M48
; DRILL file {KiCad (5.1.5)-3} date 2021/03/06 1:33:28
; FORMAT={-:-/ absolute / metric / decimal}
; #@! TF.CreationDate,2021-03-06T01:33:28+09:00
; #@! TF.GenerationSoftware,Kicad,Pcbnew,(5.1.5)-3
; #@! TF.FileFunction,NonPlated,1,2,NPTH
FMAT,2
METRIC
T1C1.000
T2C1.200
T3C1.700
T4C2.200
T5C3.000
T6C4.000
T7C4.800
%
G90
G05
T1
X143.7Y-90.22
X143.7Y-108.22
X92.7Y-108.22
X109.7Y-90.22
X126.7Y-90.22
X92.7Y-90.22
X75.7Y-108.22
X118.2Y-126.22
X126.7Y-108.22
X126.7Y-72.22
X109.7Y-108.22
X164.7Y-90.22
X75.7Y-81.22
X164.7Y-108.22
X109.7Y-72.22
X84.2Y-126.22
X164.7Y-126.22
X143.7Y-126.22
X92.7Y-72.22
X143.7Y-72.22
X164.7Y-72.22
T2
X179.5Y-92.0
X186.5Y-92.0
T3
X71.5Y-70.5
X71.5Y-81.5
X139.5Y-79.5
X139.5Y-90.5
X160.5Y-97.5
X160.5Y-108.5
X139.5Y-97.5
X139.5Y-108.5
X105.5Y-61.5
X105.5Y-72.5
X80.0Y-115.5
X80.0Y-126.5
X160.5Y-115.5
X160.5Y-126.5
X139.5Y-115.5
X139.5Y-126.5
X88.5Y-61.5
X88.5Y-72.5
X139.5Y-61.5
X139.5Y-72.5
X160.5Y-61.5
X160.5Y-72.5
X88.5Y-97.5
X88.5Y-108.5
X105.5Y-79.5
X105.5Y-90.5
X122.5Y-79.5
X122.5Y-90.5
X88.5Y-79.5
X88.5Y-90.5
X71.5Y-97.5
X71.5Y-108.5
X114.0Y-115.5
X114.0Y-126.5
X122.5Y-97.5
X122.5Y-108.5
X122.5Y-61.5
X122.5Y-72.5
X105.5Y-97.5
X105.5Y-108.5
X160.5Y-79.5
X160.5Y-90.5
T4
X187.0Y-61.0
X173.5Y-61.0
X173.5Y-92.75
T5
X154.6Y-121.0
X156.8Y-116.0
X133.6Y-121.0
X135.8Y-116.0
X82.6Y-67.0
X84.8Y-62.0
X133.6Y-67.0
X135.8Y-62.0
X154.6Y-67.0
X156.8Y-62.0
X82.6Y-103.0
X84.8Y-98.0
X99.6Y-85.0
X101.8Y-80.0
X116.6Y-85.0
X118.8Y-80.0
X82.6Y-85.0
X84.8Y-80.0
X65.6Y-103.0
X67.8Y-98.0
X108.1Y-121.0
X110.3Y-116.0
X116.6Y-103.0
X118.8Y-98.0
X116.6Y-67.0
X118.8Y-62.0
X99.6Y-103.0
X101.8Y-98.0
X154.6Y-85.0
X156.8Y-80.0
X65.6Y-76.0
X67.8Y-71.0
X133.6Y-85.0
X135.8Y-80.0
X154.6Y-103.0
X156.8Y-98.0
X133.6Y-103.0
X135.8Y-98.0
X99.6Y-67.0
X101.8Y-62.0
X74.1Y-121.0
X76.3Y-116.0
T6
X122.5Y-103.0
X122.5Y-67.0
X105.5Y-103.0
X160.5Y-85.0
X71.5Y-76.0
X139.5Y-85.0
X160.5Y-103.0
X139.5Y-103.0
X105.5Y-67.0
X80.0Y-121.0
X160.5Y-121.0
X139.5Y-121.0
X88.5Y-67.0
X139.5Y-67.0
X160.5Y-67.0
X88.5Y-103.0
X105.5Y-85.0
X122.5Y-85.0
X88.5Y-85.0
X71.5Y-103.0
X114.0Y-121.0
T7
X69.0Y-64.0
X150.0Y-124.0
X69.0Y-124.0
X150.0Y-64.0
T0
M30
