G04 #@! TF.GenerationSoftware,KiCad,Pcbnew,(5.1.5)-3*
G04 #@! TF.CreationDate,2021-03-06T01:33:25+09:00*
G04 #@! TF.ProjectId,Setta21,53657474-6132-4312-9e6b-696361645f70,rev?*
G04 #@! TF.SameCoordinates,Original*
G04 #@! TF.FileFunction,Profile,NP*
%FSLAX46Y46*%
G04 Gerber Fmt 4.6, Leading zero omitted, Abs format (unit mm)*
G04 Created by KiCad (PCBNEW (5.1.5)-3) date 2021-03-06 01:33:25*
%MOMM*%
%LPD*%
G04 APERTURE LIST*
%ADD10C,0.100000*%
G04 APERTURE END LIST*
D10*
X63000000Y-58500000D02*
X63500000Y-58000000D01*
X63000000Y-129500000D02*
X63500000Y-130000000D01*
X190000000Y-129500000D02*
X189500000Y-130000000D01*
X189500000Y-58000000D02*
X190000000Y-58500000D01*
X82950000Y-122800000D02*
X82950000Y-119300000D01*
X87450000Y-122800000D02*
X82950000Y-122800000D01*
X87450000Y-119300000D02*
X87450000Y-122800000D01*
X82950000Y-119300000D02*
X87450000Y-119300000D01*
X74450000Y-104800000D02*
X74450000Y-101300000D01*
X78950000Y-104800000D02*
X74450000Y-104800000D01*
X78950000Y-101300000D02*
X78950000Y-104800000D01*
X74450000Y-101300000D02*
X78950000Y-101300000D01*
X74450000Y-77800000D02*
X74450000Y-74300000D01*
X78950000Y-77800000D02*
X74450000Y-77800000D01*
X78950000Y-74300000D02*
X78950000Y-77800000D01*
X74450000Y-74300000D02*
X78950000Y-74300000D01*
X91450000Y-68800000D02*
X91450000Y-65300000D01*
X95950000Y-68800000D02*
X91450000Y-68800000D01*
X95950000Y-65300000D02*
X95950000Y-68800000D01*
X91450000Y-65300000D02*
X95950000Y-65300000D01*
X91450000Y-86800000D02*
X91450000Y-83300000D01*
X95950000Y-86800000D02*
X91450000Y-86800000D01*
X95950000Y-83300000D02*
X95950000Y-86800000D01*
X91450000Y-83300000D02*
X95950000Y-83300000D01*
X91450000Y-104800000D02*
X91450000Y-101300000D01*
X95950000Y-104800000D02*
X91450000Y-104800000D01*
X95950000Y-101300000D02*
X95950000Y-104800000D01*
X91450000Y-101300000D02*
X95950000Y-101300000D01*
X108450000Y-104800000D02*
X108450000Y-101300000D01*
X112950000Y-104800000D02*
X108450000Y-104800000D01*
X112950000Y-101300000D02*
X112950000Y-104800000D01*
X108450000Y-101300000D02*
X112950000Y-101300000D01*
X108450000Y-86800000D02*
X108450000Y-83300000D01*
X112950000Y-86800000D02*
X108450000Y-86800000D01*
X112950000Y-83300000D02*
X112950000Y-86800000D01*
X108450000Y-83300000D02*
X112950000Y-83300000D01*
X108450000Y-68800000D02*
X108450000Y-65300000D01*
X112950000Y-68800000D02*
X108450000Y-68800000D01*
X112950000Y-65300000D02*
X112950000Y-68800000D01*
X108450000Y-65300000D02*
X112950000Y-65300000D01*
X125450000Y-68800000D02*
X125450000Y-65300000D01*
X129950000Y-68800000D02*
X125450000Y-68800000D01*
X129950000Y-65300000D02*
X129950000Y-68800000D01*
X125450000Y-65300000D02*
X129950000Y-65300000D01*
X125450000Y-86800000D02*
X125450000Y-83300000D01*
X129950000Y-86800000D02*
X125450000Y-86800000D01*
X129950000Y-83300000D02*
X129950000Y-86800000D01*
X125450000Y-83300000D02*
X129950000Y-83300000D01*
X125450000Y-104800000D02*
X125450000Y-101300000D01*
X129950000Y-104800000D02*
X125450000Y-104800000D01*
X129950000Y-101300000D02*
X129950000Y-104800000D01*
X125450000Y-101300000D02*
X129950000Y-101300000D01*
X116950000Y-122800000D02*
X116950000Y-119300000D01*
X121450000Y-122800000D02*
X116950000Y-122800000D01*
X121450000Y-119300000D02*
X121450000Y-122800000D01*
X116950000Y-119300000D02*
X121450000Y-119300000D01*
X142450000Y-122800000D02*
X142450000Y-119300000D01*
X146950000Y-122800000D02*
X142450000Y-122800000D01*
X146950000Y-119300000D02*
X146950000Y-122800000D01*
X142450000Y-119300000D02*
X146950000Y-119300000D01*
X142450000Y-104800000D02*
X142450000Y-101300000D01*
X146950000Y-104800000D02*
X142450000Y-104800000D01*
X146950000Y-101300000D02*
X146950000Y-104800000D01*
X142450000Y-101300000D02*
X146950000Y-101300000D01*
X142450000Y-86800000D02*
X142450000Y-83300000D01*
X146950000Y-86800000D02*
X142450000Y-86800000D01*
X146950000Y-83300000D02*
X146950000Y-86800000D01*
X142450000Y-83300000D02*
X146950000Y-83300000D01*
X142450000Y-68800000D02*
X142450000Y-65300000D01*
X146950000Y-68800000D02*
X142450000Y-68800000D01*
X146950000Y-65300000D02*
X146950000Y-68800000D01*
X142450000Y-65300000D02*
X146950000Y-65300000D01*
X163450000Y-68800000D02*
X163450000Y-65300000D01*
X167950000Y-68800000D02*
X163450000Y-68800000D01*
X167950000Y-65300000D02*
X167950000Y-68800000D01*
X163450000Y-65300000D02*
X167950000Y-65300000D01*
X163450000Y-86800000D02*
X163450000Y-83300000D01*
X167950000Y-86800000D02*
X163450000Y-86800000D01*
X167950000Y-83300000D02*
X167950000Y-86800000D01*
X163450000Y-83300000D02*
X167950000Y-83300000D01*
X163450000Y-104800000D02*
X163450000Y-101300000D01*
X167950000Y-104800000D02*
X163450000Y-104800000D01*
X167950000Y-101300000D02*
X167950000Y-104800000D01*
X163450000Y-101300000D02*
X167950000Y-101300000D01*
X167950000Y-119300000D02*
X163450000Y-119300000D01*
X167950000Y-122800000D02*
X167950000Y-119300000D01*
X163450000Y-122800000D02*
X167950000Y-122800000D01*
X163450000Y-119300000D02*
X163450000Y-122800000D01*
X190000000Y-58500000D02*
X190000000Y-129500000D01*
X63500000Y-58000000D02*
X189500000Y-58000000D01*
X63000000Y-129500000D02*
X63000000Y-58500000D01*
X189500000Y-130000000D02*
X63500000Y-130000000D01*
M02*
