M48
; DRILL file {KiCad (5.1.5)-3} date 2021/03/06 1:33:28
; FORMAT={-:-/ absolute / metric / decimal}
; #@! TF.CreationDate,2021-03-06T01:33:28+09:00
; #@! TF.GenerationSoftware,Kicad,Pcbnew,(5.1.5)-3
; #@! TF.FileFunction,Plated,1,2,PTH
FMAT,2
METRIC
T1C0.400
T2C0.813
T3C1.000
T4C1.300
%
G90
G05
T1
X65.65Y-108.05
X68.5Y-110.7
X69.8Y-105.85
X70.1Y-89.75
X72.45Y-93.45
X74.004Y-105.846
X74.05Y-79.25
X77.05Y-68.3
X78.45Y-66.4
X78.9Y-98.75
X78.95Y-96.0
X79.0Y-93.15
X79.0Y-94.5
X79.1Y-85.7
X79.55Y-107.8
X79.75Y-70.65
X80.205Y-113.25
X81.85Y-98.9
X82.5Y-91.3
X82.547Y-123.31
X82.7Y-75.75
X84.7Y-115.0
X86.9Y-116.1
X88.5Y-59.3
X89.45Y-120.6
X89.7Y-127.0
X89.8Y-122.0
X91.1Y-112.25
X91.25Y-107.05
X91.75Y-91.75
X94.3Y-121.55
X94.6Y-62.45
X96.3Y-113.3
X96.4Y-106.65
X96.75Y-109.8
X96.8Y-108.5
X97.65Y-104.45
X97.95Y-111.25
X98.75Y-121.75
X99.15Y-59.7
X99.3Y-92.55
X99.45Y-123.6
X100.15Y-121.75
X101.65Y-108.4
X102.0Y-92.2
X102.05Y-72.2
X103.403Y-108.298
X103.55Y-112.825
X103.95Y-77.35
X104.35Y-111.365
X105.25Y-114.85
X105.876Y-88.996
X107.5Y-75.475
X107.8Y-69.45
X108.075Y-105.4
X108.2Y-87.45
X108.95Y-95.8
X110.95Y-120.35
X111.55Y-80.05
X111.6Y-98.0
X113.55Y-113.95
X114.6Y-87.55
X114.85Y-61.2
X115.35Y-95.75
X116.45Y-90.35
X116.575Y-123.65
X117.55Y-127.4
X117.65Y-115.2
X121.6Y-115.8
X121.85Y-59.3
X122.05Y-124.6
X122.1Y-121.0
X123.3Y-88.35
X123.3Y-123.15
X124.3Y-77.95
X124.95Y-119.45
X125.15Y-111.3
X125.2Y-74.5
X125.25Y-108.9
X126.45Y-120.45
X126.45Y-129.225
X127.9Y-111.275
X129.1Y-120.4
X129.35Y-62.5
X131.55Y-61.6
X131.65Y-111.2
X131.65Y-115.25
X133.15Y-108.0
X135.9Y-91.0
X138.2Y-70.4
X138.3Y-88.65
X139.95Y-77.2
X141.1Y-113.15
X141.55Y-69.45
X141.9Y-123.45
X142.0Y-87.45
X142.2Y-60.3
X142.399Y-113.899
X142.4Y-110.9
X143.815Y-93.2
X143.815Y-115.65
X144.9Y-94.25
X145.4Y-109.5
X145.6Y-80.15
X145.6Y-115.35
X145.95Y-108.05
X146.0Y-97.85
X146.6Y-96.35
X148.0Y-116.5
X148.5Y-92.2
X148.5Y-97.5
X148.5Y-100.35
X148.8Y-86.8
X148.9Y-90.35
X149.95Y-77.45
X150.55Y-99.1
X151.5Y-79.7
X151.5Y-109.5
X152.0Y-73.0
X153.15Y-63.65
X154.35Y-61.75
X154.5Y-94.15
X154.8Y-90.75
X157.3Y-70.0
X158.45Y-125.75
X159.8Y-88.4
X160.05Y-100.0
X163.4Y-74.6
X166.5Y-115.0
X168.25Y-81.4
X168.6Y-70.0
X168.65Y-88.75
X169.5Y-78.05
X170.85Y-107.65
X170.9Y-115.2
X172.0Y-74.6
X173.2Y-126.13
X173.8Y-107.95
X174.15Y-67.05
X174.65Y-104.95
X175.875Y-104.95
X177.1Y-74.6
X178.65Y-64.85
X180.0Y-111.8
X180.0Y-114.35
X180.05Y-109.2
X180.45Y-73.65
X181.9Y-97.7
X181.95Y-121.1
X182.0Y-100.85
X182.0Y-103.85
X183.7Y-97.55
X184.0Y-100.05
X186.0Y-116.0
X186.9Y-64.1
T2
X177.88Y-66.8
X180.42Y-66.8
X182.96Y-66.8
X185.5Y-66.8
X172.494Y-96.588
X172.494Y-99.128
X172.494Y-101.668
X172.494Y-104.208
X172.494Y-106.748
X172.494Y-109.288
X172.494Y-111.828
X172.494Y-114.368
X172.494Y-116.908
X172.494Y-119.448
X172.494Y-121.988
X172.494Y-124.528
X187.714Y-96.588
X187.714Y-99.128
X187.714Y-101.668
X187.714Y-104.208
X187.714Y-106.748
X187.714Y-109.288
X187.714Y-111.828
X187.714Y-114.368
X187.714Y-116.908
X187.714Y-119.448
X187.714Y-121.988
X187.714Y-124.528
T4
X176.95Y-59.75
X183.45Y-59.75
T3
G00X176.45Y-89.9
M15
G01X175.95Y-89.9
M16
G05
G00X177.95Y-94.1
M15
G01X177.45Y-94.1
M16
G05
G00X181.95Y-94.1
M15
G01X181.45Y-94.1
M16
G05
G00X184.95Y-94.1
M15
G01X184.45Y-94.1
M16
G05
T0
M30
