G04 #@! TF.GenerationSoftware,KiCad,Pcbnew,(5.1.5)-3*
G04 #@! TF.CreationDate,2021-03-06T02:00:21+09:00*
G04 #@! TF.ProjectId,Getta25,47657474-6132-4352-9e6b-696361645f70,rev?*
G04 #@! TF.SameCoordinates,Original*
G04 #@! TF.FileFunction,Soldermask,Bot*
G04 #@! TF.FilePolarity,Negative*
%FSLAX46Y46*%
G04 Gerber Fmt 4.6, Leading zero omitted, Abs format (unit mm)*
G04 Created by KiCad (PCBNEW (5.1.5)-3) date 2021-03-06 02:00:21*
%MOMM*%
%LPD*%
G04 APERTURE LIST*
%ADD10C,0.100000*%
G04 APERTURE END LIST*
D10*
G36*
X123677107Y-132979772D02*
G01*
X123877293Y-133062692D01*
X123877295Y-133062693D01*
X123967251Y-133122800D01*
X124057458Y-133183074D01*
X124210676Y-133336292D01*
X124331058Y-133516457D01*
X124413978Y-133716643D01*
X124456250Y-133929158D01*
X124456250Y-134145842D01*
X124413978Y-134358357D01*
X124331058Y-134558543D01*
X124331057Y-134558545D01*
X124210675Y-134738709D01*
X124057459Y-134891925D01*
X123877295Y-135012307D01*
X123877294Y-135012308D01*
X123877293Y-135012308D01*
X123677107Y-135095228D01*
X123464592Y-135137500D01*
X123247908Y-135137500D01*
X123035393Y-135095228D01*
X122835207Y-135012308D01*
X122835206Y-135012308D01*
X122835205Y-135012307D01*
X122655041Y-134891925D01*
X122501825Y-134738709D01*
X122381443Y-134558545D01*
X122381442Y-134558543D01*
X122298522Y-134358357D01*
X122256250Y-134145842D01*
X122256250Y-133929158D01*
X122298522Y-133716643D01*
X122381442Y-133516457D01*
X122501824Y-133336292D01*
X122655042Y-133183074D01*
X122745249Y-133122800D01*
X122835205Y-133062693D01*
X122835207Y-133062692D01*
X123035393Y-132979772D01*
X123247908Y-132937500D01*
X123464592Y-132937500D01*
X123677107Y-132979772D01*
G37*
G36*
X64145857Y-132979772D02*
G01*
X64346043Y-133062692D01*
X64346045Y-133062693D01*
X64436001Y-133122800D01*
X64526208Y-133183074D01*
X64679426Y-133336292D01*
X64799808Y-133516457D01*
X64882728Y-133716643D01*
X64925000Y-133929158D01*
X64925000Y-134145842D01*
X64882728Y-134358357D01*
X64799808Y-134558543D01*
X64799807Y-134558545D01*
X64679425Y-134738709D01*
X64526209Y-134891925D01*
X64346045Y-135012307D01*
X64346044Y-135012308D01*
X64346043Y-135012308D01*
X64145857Y-135095228D01*
X63933342Y-135137500D01*
X63716658Y-135137500D01*
X63504143Y-135095228D01*
X63303957Y-135012308D01*
X63303956Y-135012308D01*
X63303955Y-135012307D01*
X63123791Y-134891925D01*
X62970575Y-134738709D01*
X62850193Y-134558545D01*
X62850192Y-134558543D01*
X62767272Y-134358357D01*
X62725000Y-134145842D01*
X62725000Y-133929158D01*
X62767272Y-133716643D01*
X62850192Y-133516457D01*
X62970574Y-133336292D01*
X63123792Y-133183074D01*
X63213999Y-133122800D01*
X63303955Y-133062693D01*
X63303957Y-133062692D01*
X63504143Y-132979772D01*
X63716658Y-132937500D01*
X63933342Y-132937500D01*
X64145857Y-132979772D01*
G37*
G36*
X110335673Y-115058311D02*
G01*
X110478664Y-115094958D01*
X114739084Y-116645624D01*
X123256840Y-119745833D01*
X123256845Y-119745835D01*
X123256844Y-119745835D01*
X123389949Y-119809679D01*
X123547516Y-119927877D01*
X123547519Y-119927881D01*
X123547521Y-119927882D01*
X123679008Y-120074555D01*
X123779355Y-120244063D01*
X123787057Y-120265966D01*
X123797413Y-120288173D01*
X123809238Y-120308148D01*
X123874587Y-120493977D01*
X123902427Y-120688981D01*
X123891689Y-120885674D01*
X123855042Y-121028664D01*
X123855038Y-121028675D01*
X119204166Y-133806839D01*
X119204164Y-133806843D01*
X119140322Y-133939944D01*
X119022119Y-134097519D01*
X118953275Y-134159235D01*
X118875444Y-134229008D01*
X118793177Y-134277709D01*
X118705937Y-134329354D01*
X118684036Y-134337056D01*
X118661829Y-134347412D01*
X118641852Y-134359238D01*
X118548938Y-134391912D01*
X118456024Y-134424587D01*
X118358521Y-134438507D01*
X118261019Y-134452427D01*
X118261018Y-134452427D01*
X118251791Y-134451923D01*
X118064326Y-134441689D01*
X117921336Y-134405042D01*
X117713385Y-134329354D01*
X105143161Y-129754166D01*
X105097716Y-129732368D01*
X105010056Y-129690322D01*
X104852481Y-129572119D01*
X104790765Y-129503275D01*
X104720992Y-129425444D01*
X104620646Y-129255937D01*
X104612944Y-129234036D01*
X104602588Y-129211829D01*
X104590762Y-129191852D01*
X104525413Y-129006023D01*
X104497573Y-128811018D01*
X104508311Y-128614327D01*
X104544958Y-128471336D01*
X104662917Y-128147244D01*
X106801397Y-128147244D01*
X106804860Y-128171502D01*
X106812989Y-128194619D01*
X106825472Y-128215705D01*
X106841829Y-128233951D01*
X106861431Y-128248655D01*
X106883523Y-128259252D01*
X117549051Y-132141186D01*
X117572777Y-132147266D01*
X117597244Y-132148602D01*
X117621502Y-132145139D01*
X117644619Y-132137010D01*
X117665705Y-132124527D01*
X117683951Y-132108170D01*
X117698655Y-132088568D01*
X117709253Y-132066474D01*
X118602335Y-129612752D01*
X121591185Y-121400952D01*
X121597266Y-121377222D01*
X121598602Y-121352755D01*
X121595139Y-121328497D01*
X121587010Y-121305380D01*
X121574527Y-121284294D01*
X121558170Y-121266048D01*
X121538568Y-121251344D01*
X121516483Y-121240751D01*
X110850952Y-117358814D01*
X110827223Y-117352733D01*
X110802756Y-117351397D01*
X110778498Y-117354860D01*
X110755381Y-117362989D01*
X110734295Y-117375472D01*
X110716049Y-117391829D01*
X110701345Y-117411431D01*
X110690749Y-117433521D01*
X106808814Y-128099048D01*
X106802733Y-128122777D01*
X106801397Y-128147244D01*
X104662917Y-128147244D01*
X107019493Y-121672607D01*
X109195833Y-115693160D01*
X109213333Y-115656675D01*
X109259679Y-115560051D01*
X109377877Y-115402484D01*
X109377881Y-115402481D01*
X109377882Y-115402479D01*
X109524555Y-115270992D01*
X109694063Y-115170645D01*
X109715970Y-115162941D01*
X109738173Y-115152587D01*
X109758148Y-115140762D01*
X109943977Y-115075413D01*
X110138982Y-115047573D01*
X110335673Y-115058311D01*
G37*
G36*
X80296032Y-116964469D02*
G01*
X80390285Y-116993061D01*
X80484535Y-117021651D01*
X80484537Y-117021652D01*
X80658258Y-117114507D01*
X80719184Y-117164508D01*
X80810528Y-117239472D01*
X80825260Y-117257423D01*
X80842577Y-117274740D01*
X80860528Y-117289472D01*
X80909358Y-117348972D01*
X80985493Y-117441742D01*
X81078348Y-117615463D01*
X81135531Y-117803968D01*
X81150000Y-117950876D01*
X81150000Y-131549124D01*
X81135531Y-131696032D01*
X81078348Y-131884537D01*
X80985493Y-132058258D01*
X80911349Y-132148602D01*
X80860528Y-132210528D01*
X80842577Y-132225260D01*
X80825260Y-132242577D01*
X80810528Y-132260528D01*
X80751028Y-132309358D01*
X80658258Y-132385493D01*
X80484537Y-132478348D01*
X80484535Y-132478349D01*
X80397212Y-132504838D01*
X80296032Y-132535531D01*
X80149124Y-132550000D01*
X66550876Y-132550000D01*
X66403968Y-132535531D01*
X66302788Y-132504838D01*
X66215465Y-132478349D01*
X66215463Y-132478348D01*
X66041742Y-132385493D01*
X65889472Y-132260528D01*
X65874740Y-132242577D01*
X65857418Y-132225255D01*
X65839473Y-132210528D01*
X65768894Y-132124527D01*
X65714508Y-132058258D01*
X65621653Y-131884537D01*
X65564470Y-131696032D01*
X65550001Y-131549124D01*
X65550001Y-119074999D01*
X67550000Y-119074999D01*
X67550000Y-130425001D01*
X67552402Y-130449387D01*
X67559515Y-130472836D01*
X67571066Y-130494447D01*
X67586611Y-130513389D01*
X67605553Y-130528934D01*
X67627164Y-130540485D01*
X67650613Y-130547598D01*
X67674999Y-130550000D01*
X79025002Y-130550000D01*
X79049388Y-130547598D01*
X79072837Y-130540485D01*
X79094448Y-130528934D01*
X79113390Y-130513389D01*
X79128935Y-130494447D01*
X79140486Y-130472836D01*
X79147599Y-130449387D01*
X79150001Y-130425001D01*
X79150000Y-119074999D01*
X79147598Y-119050613D01*
X79140485Y-119027164D01*
X79128934Y-119005553D01*
X79113389Y-118986611D01*
X79094447Y-118971066D01*
X79072836Y-118959515D01*
X79049387Y-118952402D01*
X79025001Y-118950000D01*
X67674999Y-118950000D01*
X67650613Y-118952402D01*
X67627164Y-118959515D01*
X67605553Y-118971066D01*
X67586611Y-118986611D01*
X67571066Y-119005553D01*
X67559515Y-119027164D01*
X67552402Y-119050613D01*
X67550000Y-119074999D01*
X65550001Y-119074999D01*
X65550000Y-117950877D01*
X65564469Y-117803969D01*
X65621652Y-117615464D01*
X65714507Y-117441742D01*
X65790642Y-117348972D01*
X65839472Y-117289472D01*
X65857423Y-117274740D01*
X65874740Y-117257423D01*
X65889472Y-117239472D01*
X65980816Y-117164508D01*
X66041742Y-117114507D01*
X66215463Y-117021652D01*
X66215465Y-117021651D01*
X66309715Y-116993061D01*
X66403968Y-116964469D01*
X66550876Y-116950000D01*
X80149124Y-116950000D01*
X80296032Y-116964469D01*
G37*
G36*
X58371031Y-116064469D02*
G01*
X58446953Y-116087500D01*
X58559534Y-116121651D01*
X58559536Y-116121652D01*
X58733258Y-116214507D01*
X58885528Y-116339472D01*
X59010493Y-116491742D01*
X59103350Y-116665466D01*
X59162752Y-116861287D01*
X59172129Y-116883925D01*
X59185743Y-116904300D01*
X59203070Y-116921627D01*
X59223444Y-116935240D01*
X59246083Y-116944618D01*
X59282368Y-116950000D01*
X60424124Y-116950000D01*
X60571032Y-116964469D01*
X60707170Y-117005766D01*
X60731202Y-117010546D01*
X60771031Y-117014469D01*
X60865284Y-117043061D01*
X60959534Y-117071651D01*
X60959536Y-117071652D01*
X61133258Y-117164507D01*
X61285528Y-117289472D01*
X61410493Y-117441742D01*
X61503348Y-117615463D01*
X61560531Y-117803968D01*
X61575000Y-117950876D01*
X61575000Y-131549124D01*
X61560531Y-131696032D01*
X61503348Y-131884537D01*
X61410493Y-132058258D01*
X61336349Y-132148602D01*
X61285528Y-132210528D01*
X61267577Y-132225260D01*
X61250260Y-132242577D01*
X61235528Y-132260528D01*
X61176028Y-132309358D01*
X61083258Y-132385493D01*
X60909537Y-132478348D01*
X60909535Y-132478349D01*
X60822212Y-132504838D01*
X60721032Y-132535531D01*
X60574124Y-132550000D01*
X28975876Y-132550000D01*
X28828968Y-132535531D01*
X28727788Y-132504838D01*
X28640465Y-132478349D01*
X28640463Y-132478348D01*
X28466742Y-132385493D01*
X28314472Y-132260528D01*
X28299740Y-132242577D01*
X28282418Y-132225255D01*
X28264473Y-132210528D01*
X28193894Y-132124527D01*
X28139508Y-132058258D01*
X28046653Y-131884537D01*
X27989470Y-131696032D01*
X27975001Y-131549124D01*
X27975001Y-119074999D01*
X29975000Y-119074999D01*
X29975000Y-130425001D01*
X29977402Y-130449387D01*
X29984515Y-130472836D01*
X29996066Y-130494447D01*
X30011611Y-130513389D01*
X30030553Y-130528934D01*
X30052164Y-130540485D01*
X30075613Y-130547598D01*
X30099999Y-130550000D01*
X59450002Y-130550000D01*
X59474388Y-130547598D01*
X59497837Y-130540485D01*
X59519448Y-130528934D01*
X59538390Y-130513389D01*
X59553935Y-130494447D01*
X59565486Y-130472836D01*
X59572599Y-130449387D01*
X59575001Y-130425001D01*
X59575000Y-119074999D01*
X59572598Y-119050613D01*
X59565485Y-119027164D01*
X59553934Y-119005553D01*
X59538389Y-118986611D01*
X59519447Y-118971066D01*
X59497836Y-118959515D01*
X59474387Y-118952402D01*
X59450001Y-118950000D01*
X58325876Y-118950000D01*
X58287252Y-118946196D01*
X58262748Y-118946196D01*
X58175000Y-118954838D01*
X57978969Y-118935531D01*
X57884717Y-118906940D01*
X57790466Y-118878349D01*
X57790464Y-118878348D01*
X57616743Y-118785493D01*
X57464473Y-118660528D01*
X57339508Y-118508258D01*
X57246651Y-118334534D01*
X57187248Y-118138713D01*
X57177871Y-118116074D01*
X57164257Y-118095700D01*
X57146930Y-118078373D01*
X57126555Y-118064759D01*
X57103916Y-118055382D01*
X57067632Y-118050000D01*
X56382368Y-118050000D01*
X56357982Y-118052402D01*
X56334533Y-118059515D01*
X56312922Y-118071066D01*
X56293980Y-118086611D01*
X56278435Y-118105553D01*
X56262752Y-118138713D01*
X56203350Y-118334534D01*
X56110493Y-118508258D01*
X55985528Y-118660528D01*
X55833258Y-118785493D01*
X55659537Y-118878348D01*
X55659535Y-118878349D01*
X55565284Y-118906940D01*
X55471032Y-118935531D01*
X55275000Y-118954838D01*
X55231988Y-118950602D01*
X55219736Y-118950000D01*
X34330264Y-118950000D01*
X34318012Y-118950602D01*
X34275000Y-118954838D01*
X34078969Y-118935531D01*
X33984717Y-118906940D01*
X33890466Y-118878349D01*
X33890464Y-118878348D01*
X33716743Y-118785493D01*
X33564473Y-118660528D01*
X33439508Y-118508258D01*
X33346651Y-118334534D01*
X33287248Y-118138713D01*
X33277871Y-118116074D01*
X33264257Y-118095700D01*
X33246930Y-118078373D01*
X33226555Y-118064759D01*
X33203916Y-118055382D01*
X33167632Y-118050000D01*
X32482368Y-118050000D01*
X32457982Y-118052402D01*
X32434533Y-118059515D01*
X32412922Y-118071066D01*
X32393980Y-118086611D01*
X32378435Y-118105553D01*
X32362752Y-118138713D01*
X32303350Y-118334534D01*
X32210493Y-118508258D01*
X32085528Y-118660528D01*
X31933258Y-118785493D01*
X31759537Y-118878348D01*
X31759535Y-118878349D01*
X31665284Y-118906940D01*
X31571032Y-118935531D01*
X31375000Y-118954838D01*
X31287252Y-118946196D01*
X31262748Y-118946196D01*
X31224124Y-118950000D01*
X30099999Y-118950000D01*
X30075613Y-118952402D01*
X30052164Y-118959515D01*
X30030553Y-118971066D01*
X30011611Y-118986611D01*
X29996066Y-119005553D01*
X29984515Y-119027164D01*
X29977402Y-119050613D01*
X29975000Y-119074999D01*
X27975001Y-119074999D01*
X27975000Y-117950877D01*
X27989469Y-117803969D01*
X28046652Y-117615464D01*
X28139507Y-117441742D01*
X28264472Y-117289472D01*
X28416742Y-117164507D01*
X28590463Y-117071652D01*
X28590465Y-117071651D01*
X28684715Y-117043061D01*
X28778968Y-117014469D01*
X28818798Y-117010546D01*
X28842831Y-117005766D01*
X28978968Y-116964469D01*
X29125876Y-116950000D01*
X30267633Y-116950000D01*
X30292019Y-116947598D01*
X30315468Y-116940485D01*
X30337079Y-116928934D01*
X30356021Y-116913389D01*
X30371566Y-116894447D01*
X30383117Y-116872836D01*
X30387250Y-116861286D01*
X30446652Y-116665463D01*
X30539507Y-116491742D01*
X30664472Y-116339472D01*
X30816742Y-116214507D01*
X30990463Y-116121652D01*
X30990465Y-116121651D01*
X31103046Y-116087500D01*
X31178968Y-116064469D01*
X31375000Y-116045162D01*
X31418012Y-116049398D01*
X31430264Y-116050000D01*
X34219736Y-116050000D01*
X34231988Y-116049398D01*
X34275000Y-116045162D01*
X34471031Y-116064469D01*
X34546953Y-116087500D01*
X34659534Y-116121651D01*
X34659536Y-116121652D01*
X34833258Y-116214507D01*
X34985528Y-116339472D01*
X35110493Y-116491742D01*
X35203350Y-116665466D01*
X35262752Y-116861287D01*
X35272129Y-116883925D01*
X35285743Y-116904300D01*
X35303070Y-116921627D01*
X35323444Y-116935240D01*
X35346083Y-116944618D01*
X35382368Y-116950000D01*
X54167633Y-116950000D01*
X54192019Y-116947598D01*
X54215468Y-116940485D01*
X54237079Y-116928934D01*
X54256021Y-116913389D01*
X54271566Y-116894447D01*
X54283117Y-116872836D01*
X54287250Y-116861286D01*
X54346652Y-116665463D01*
X54439507Y-116491742D01*
X54564472Y-116339472D01*
X54716742Y-116214507D01*
X54890463Y-116121652D01*
X54890465Y-116121651D01*
X55003046Y-116087500D01*
X55078968Y-116064469D01*
X55275000Y-116045162D01*
X55318012Y-116049398D01*
X55330264Y-116050000D01*
X58119736Y-116050000D01*
X58131988Y-116049398D01*
X58175000Y-116045162D01*
X58371031Y-116064469D01*
G37*
G36*
X99346032Y-98439469D02*
G01*
X99440285Y-98468061D01*
X99534535Y-98496651D01*
X99534537Y-98496652D01*
X99708258Y-98589507D01*
X99769184Y-98639508D01*
X99860528Y-98714472D01*
X99875260Y-98732423D01*
X99892577Y-98749740D01*
X99910528Y-98764472D01*
X99931074Y-98789508D01*
X100035493Y-98916742D01*
X100128348Y-99090463D01*
X100185531Y-99278968D01*
X100200000Y-99425876D01*
X100200000Y-131024124D01*
X100185531Y-131171032D01*
X100128348Y-131359537D01*
X100035493Y-131533258D01*
X99959358Y-131626028D01*
X99910528Y-131685528D01*
X99892577Y-131700260D01*
X99875260Y-131717577D01*
X99860528Y-131735528D01*
X99801028Y-131784358D01*
X99708258Y-131860493D01*
X99534537Y-131953348D01*
X99534535Y-131953349D01*
X99447212Y-131979838D01*
X99346032Y-132010531D01*
X99199124Y-132025000D01*
X85600876Y-132025000D01*
X85453968Y-132010531D01*
X85352788Y-131979838D01*
X85265465Y-131953349D01*
X85265463Y-131953348D01*
X85091742Y-131860493D01*
X84939472Y-131735528D01*
X84814507Y-131583258D01*
X84721652Y-131409537D01*
X84704795Y-131353966D01*
X84664470Y-131221034D01*
X84664469Y-131221032D01*
X84660546Y-131181198D01*
X84655765Y-131157164D01*
X84614470Y-131021035D01*
X84600001Y-130874124D01*
X84600000Y-129732368D01*
X84597598Y-129707982D01*
X84590485Y-129684533D01*
X84578934Y-129662922D01*
X84563389Y-129643980D01*
X84544447Y-129628435D01*
X84511287Y-129612752D01*
X84315466Y-129553350D01*
X84141742Y-129460493D01*
X83989472Y-129335528D01*
X83864507Y-129183258D01*
X83771652Y-129009537D01*
X83714469Y-128821032D01*
X83695162Y-128625000D01*
X83699399Y-128581978D01*
X83700001Y-128569726D01*
X83700000Y-125780264D01*
X83699398Y-125768012D01*
X83695162Y-125725000D01*
X83714469Y-125528968D01*
X83771652Y-125340463D01*
X83864507Y-125166742D01*
X83989472Y-125014472D01*
X84141742Y-124889507D01*
X84315463Y-124796652D01*
X84315465Y-124796651D01*
X84444217Y-124757595D01*
X84511287Y-124737249D01*
X84533926Y-124727871D01*
X84554301Y-124714257D01*
X84571628Y-124696930D01*
X84585241Y-124676556D01*
X84594619Y-124653917D01*
X84600001Y-124617632D01*
X84600000Y-105832368D01*
X84597598Y-105807982D01*
X84590485Y-105784533D01*
X84578934Y-105762922D01*
X84563389Y-105743980D01*
X84544447Y-105728435D01*
X84511287Y-105712752D01*
X84315466Y-105653350D01*
X84141742Y-105560493D01*
X83989472Y-105435528D01*
X83864507Y-105283258D01*
X83771652Y-105109537D01*
X83714469Y-104921032D01*
X83695162Y-104725000D01*
X83699399Y-104681978D01*
X83700001Y-104669726D01*
X83700001Y-102932368D01*
X85700000Y-102932368D01*
X85700000Y-103617632D01*
X85702402Y-103642018D01*
X85709515Y-103665467D01*
X85721066Y-103687078D01*
X85736611Y-103706020D01*
X85755553Y-103721565D01*
X85788713Y-103737248D01*
X85984534Y-103796650D01*
X86158258Y-103889507D01*
X86310528Y-104014472D01*
X86435493Y-104166742D01*
X86462218Y-104216742D01*
X86528349Y-104340465D01*
X86556940Y-104434716D01*
X86585531Y-104528968D01*
X86604838Y-104725000D01*
X86600602Y-104768012D01*
X86600000Y-104780264D01*
X86600000Y-125669736D01*
X86600602Y-125681988D01*
X86604838Y-125725000D01*
X86585531Y-125921032D01*
X86528348Y-126109537D01*
X86435493Y-126283258D01*
X86310528Y-126435528D01*
X86158258Y-126560493D01*
X85984534Y-126653350D01*
X85788713Y-126712752D01*
X85766075Y-126722129D01*
X85745700Y-126735743D01*
X85728373Y-126753070D01*
X85714760Y-126773444D01*
X85705382Y-126796083D01*
X85700000Y-126832368D01*
X85700000Y-127517632D01*
X85702402Y-127542018D01*
X85709515Y-127565467D01*
X85721066Y-127587078D01*
X85736611Y-127606020D01*
X85755553Y-127621565D01*
X85788713Y-127637248D01*
X85984534Y-127696650D01*
X86158258Y-127789507D01*
X86310528Y-127914472D01*
X86435493Y-128066742D01*
X86528348Y-128240463D01*
X86585531Y-128428968D01*
X86604838Y-128625000D01*
X86596196Y-128712748D01*
X86596196Y-128737252D01*
X86600000Y-128775876D01*
X86600000Y-129900001D01*
X86602402Y-129924387D01*
X86609515Y-129947836D01*
X86621066Y-129969447D01*
X86636611Y-129988389D01*
X86655553Y-130003934D01*
X86677164Y-130015485D01*
X86700613Y-130022598D01*
X86724999Y-130025000D01*
X98075002Y-130025000D01*
X98099388Y-130022598D01*
X98122837Y-130015485D01*
X98144448Y-130003934D01*
X98163390Y-129988389D01*
X98178935Y-129969447D01*
X98190486Y-129947836D01*
X98197599Y-129924387D01*
X98200001Y-129900001D01*
X98200000Y-100549999D01*
X98197598Y-100525613D01*
X98190485Y-100502164D01*
X98178934Y-100480553D01*
X98163389Y-100461611D01*
X98144447Y-100446066D01*
X98122836Y-100434515D01*
X98099387Y-100427402D01*
X98075001Y-100425000D01*
X86724999Y-100425000D01*
X86700613Y-100427402D01*
X86677164Y-100434515D01*
X86655553Y-100446066D01*
X86636611Y-100461611D01*
X86621066Y-100480553D01*
X86609515Y-100502164D01*
X86602402Y-100525613D01*
X86600000Y-100549999D01*
X86600000Y-101674124D01*
X86596196Y-101712748D01*
X86596196Y-101737252D01*
X86604838Y-101825000D01*
X86585531Y-102021032D01*
X86528348Y-102209537D01*
X86435493Y-102383258D01*
X86310528Y-102535528D01*
X86158258Y-102660493D01*
X85984534Y-102753350D01*
X85788713Y-102812752D01*
X85766075Y-102822129D01*
X85745700Y-102835743D01*
X85728373Y-102853070D01*
X85714760Y-102873444D01*
X85705382Y-102896083D01*
X85700000Y-102932368D01*
X83700001Y-102932368D01*
X83700000Y-101880264D01*
X83699398Y-101868012D01*
X83695162Y-101825000D01*
X83714469Y-101628968D01*
X83771652Y-101440463D01*
X83864507Y-101266742D01*
X83989472Y-101114472D01*
X84141742Y-100989507D01*
X84315463Y-100896652D01*
X84315465Y-100896651D01*
X84444217Y-100857595D01*
X84511287Y-100837249D01*
X84533926Y-100827871D01*
X84554301Y-100814257D01*
X84571628Y-100796930D01*
X84585241Y-100776556D01*
X84594619Y-100753917D01*
X84600001Y-100717632D01*
X84600001Y-100605674D01*
X84600000Y-99575881D01*
X84603325Y-99542119D01*
X84614469Y-99428969D01*
X84655766Y-99292832D01*
X84660546Y-99268799D01*
X84664469Y-99228968D01*
X84693061Y-99134715D01*
X84721651Y-99040465D01*
X84787782Y-98916742D01*
X84814507Y-98866742D01*
X84939472Y-98714472D01*
X85091742Y-98589507D01*
X85265463Y-98496652D01*
X85265465Y-98496651D01*
X85359715Y-98468061D01*
X85453968Y-98439469D01*
X85600876Y-98425000D01*
X99199124Y-98425000D01*
X99346032Y-98439469D01*
G37*
G36*
X26045857Y-113929772D02*
G01*
X26246043Y-114012692D01*
X26246045Y-114012693D01*
X26300912Y-114049354D01*
X26426208Y-114133074D01*
X26579426Y-114286292D01*
X26699808Y-114466457D01*
X26782728Y-114666643D01*
X26825000Y-114879158D01*
X26825000Y-115095842D01*
X26782728Y-115308357D01*
X26699808Y-115508543D01*
X26579426Y-115688708D01*
X26426208Y-115841926D01*
X26341397Y-115898595D01*
X26246045Y-115962307D01*
X26246044Y-115962308D01*
X26246043Y-115962308D01*
X26045857Y-116045228D01*
X25833342Y-116087500D01*
X25616658Y-116087500D01*
X25404143Y-116045228D01*
X25203957Y-115962308D01*
X25203956Y-115962308D01*
X25203955Y-115962307D01*
X25108603Y-115898595D01*
X25023792Y-115841926D01*
X24870574Y-115688708D01*
X24750192Y-115508543D01*
X24667272Y-115308357D01*
X24625000Y-115095842D01*
X24625000Y-114879158D01*
X24667272Y-114666643D01*
X24750192Y-114466457D01*
X24870574Y-114286292D01*
X25023792Y-114133074D01*
X25149088Y-114049354D01*
X25203955Y-114012693D01*
X25203957Y-114012692D01*
X25404143Y-113929772D01*
X25616658Y-113887500D01*
X25833342Y-113887500D01*
X26045857Y-113929772D01*
G37*
G36*
X110335673Y-94778311D02*
G01*
X110478664Y-94814958D01*
X113227037Y-95815284D01*
X123256840Y-99465833D01*
X123256845Y-99465835D01*
X123256844Y-99465835D01*
X123389949Y-99529679D01*
X123547516Y-99647877D01*
X123547519Y-99647881D01*
X123547521Y-99647882D01*
X123679008Y-99794555D01*
X123779355Y-99964063D01*
X123783962Y-99977164D01*
X123787057Y-99985966D01*
X123797413Y-100008173D01*
X123809238Y-100028148D01*
X123809238Y-100028149D01*
X123847000Y-100135528D01*
X123874587Y-100213977D01*
X123902427Y-100408981D01*
X123891689Y-100605674D01*
X123855042Y-100748664D01*
X123855038Y-100748675D01*
X119204166Y-113526839D01*
X119204164Y-113526843D01*
X119140322Y-113659944D01*
X119022119Y-113817519D01*
X118988782Y-113847404D01*
X118875444Y-113949008D01*
X118705937Y-114049354D01*
X118684036Y-114057056D01*
X118661829Y-114067412D01*
X118641852Y-114079238D01*
X118548938Y-114111912D01*
X118456024Y-114144587D01*
X118358521Y-114158507D01*
X118261019Y-114172427D01*
X118261018Y-114172427D01*
X118251791Y-114171923D01*
X118064326Y-114161689D01*
X117921336Y-114125042D01*
X117612657Y-114012692D01*
X105143161Y-109474166D01*
X105120359Y-109463229D01*
X105010056Y-109410322D01*
X104852481Y-109292119D01*
X104790765Y-109223275D01*
X104720992Y-109145444D01*
X104620646Y-108975937D01*
X104612944Y-108954036D01*
X104602588Y-108931829D01*
X104590762Y-108911852D01*
X104525413Y-108726023D01*
X104497573Y-108531018D01*
X104508311Y-108334327D01*
X104544958Y-108191336D01*
X104662917Y-107867244D01*
X106801397Y-107867244D01*
X106804860Y-107891502D01*
X106812989Y-107914619D01*
X106825472Y-107935705D01*
X106841829Y-107953951D01*
X106861431Y-107968655D01*
X106883523Y-107979252D01*
X117549051Y-111861186D01*
X117572777Y-111867266D01*
X117597244Y-111868602D01*
X117621502Y-111865139D01*
X117644619Y-111857010D01*
X117665705Y-111844527D01*
X117683951Y-111828170D01*
X117698655Y-111808568D01*
X117709253Y-111786474D01*
X118894142Y-108531018D01*
X121591185Y-101120952D01*
X121597266Y-101097222D01*
X121598602Y-101072755D01*
X121595139Y-101048497D01*
X121587010Y-101025380D01*
X121574527Y-101004294D01*
X121558170Y-100986048D01*
X121538568Y-100971344D01*
X121516483Y-100960751D01*
X110850952Y-97078814D01*
X110827223Y-97072733D01*
X110802756Y-97071397D01*
X110778498Y-97074860D01*
X110755381Y-97082989D01*
X110734295Y-97095472D01*
X110716049Y-97111829D01*
X110701345Y-97131431D01*
X110690749Y-97153521D01*
X106808814Y-107819048D01*
X106802733Y-107842777D01*
X106801397Y-107867244D01*
X104662917Y-107867244D01*
X106494234Y-102835743D01*
X109195833Y-95413160D01*
X109213333Y-95376675D01*
X109259679Y-95280051D01*
X109377877Y-95122484D01*
X109377881Y-95122481D01*
X109377882Y-95122479D01*
X109524555Y-94990992D01*
X109694063Y-94890645D01*
X109715970Y-94882941D01*
X109738173Y-94872587D01*
X109758148Y-94860762D01*
X109943977Y-94795413D01*
X110138982Y-94767573D01*
X110335673Y-94778311D01*
G37*
G36*
X61246032Y-97914469D02*
G01*
X61340284Y-97943060D01*
X61434535Y-97971651D01*
X61434537Y-97971652D01*
X61608258Y-98064507D01*
X61669184Y-98114508D01*
X61760528Y-98189472D01*
X61775260Y-98207423D01*
X61792577Y-98224740D01*
X61810528Y-98239472D01*
X61859358Y-98298972D01*
X61935493Y-98391742D01*
X62028348Y-98565463D01*
X62085531Y-98753968D01*
X62100000Y-98900876D01*
X62100000Y-112499124D01*
X62085531Y-112646032D01*
X62028348Y-112834537D01*
X61935493Y-113008258D01*
X61859358Y-113101028D01*
X61810528Y-113160528D01*
X61792577Y-113175260D01*
X61775260Y-113192577D01*
X61760528Y-113210528D01*
X61701028Y-113259358D01*
X61608258Y-113335493D01*
X61434537Y-113428348D01*
X61434535Y-113428349D01*
X61347212Y-113454838D01*
X61246032Y-113485531D01*
X61099124Y-113500000D01*
X47500876Y-113500000D01*
X47353968Y-113485531D01*
X47252788Y-113454838D01*
X47165465Y-113428349D01*
X47165463Y-113428348D01*
X46991742Y-113335493D01*
X46839472Y-113210528D01*
X46824740Y-113192577D01*
X46807418Y-113175255D01*
X46789473Y-113160528D01*
X46733145Y-113091891D01*
X46664508Y-113008258D01*
X46571653Y-112834537D01*
X46514470Y-112646032D01*
X46500001Y-112499124D01*
X46500001Y-100024999D01*
X48500000Y-100024999D01*
X48500000Y-111375001D01*
X48502402Y-111399387D01*
X48509515Y-111422836D01*
X48521066Y-111444447D01*
X48536611Y-111463389D01*
X48555553Y-111478934D01*
X48577164Y-111490485D01*
X48600613Y-111497598D01*
X48624999Y-111500000D01*
X59975002Y-111500000D01*
X59999388Y-111497598D01*
X60022837Y-111490485D01*
X60044448Y-111478934D01*
X60063390Y-111463389D01*
X60078935Y-111444447D01*
X60090486Y-111422836D01*
X60097599Y-111399387D01*
X60100001Y-111375001D01*
X60100000Y-100024999D01*
X60097598Y-100000613D01*
X60090485Y-99977164D01*
X60078934Y-99955553D01*
X60063389Y-99936611D01*
X60044447Y-99921066D01*
X60022836Y-99909515D01*
X59999387Y-99902402D01*
X59975001Y-99900000D01*
X48624999Y-99900000D01*
X48600613Y-99902402D01*
X48577164Y-99909515D01*
X48555553Y-99921066D01*
X48536611Y-99936611D01*
X48521066Y-99955553D01*
X48509515Y-99977164D01*
X48502402Y-100000613D01*
X48500000Y-100024999D01*
X46500001Y-100024999D01*
X46500000Y-98900877D01*
X46514469Y-98753969D01*
X46564358Y-98589508D01*
X46571651Y-98565466D01*
X46598377Y-98515465D01*
X46664507Y-98391742D01*
X46740642Y-98298972D01*
X46789472Y-98239472D01*
X46807423Y-98224740D01*
X46824740Y-98207423D01*
X46839472Y-98189472D01*
X46930816Y-98114508D01*
X46991742Y-98064507D01*
X47165463Y-97971652D01*
X47165465Y-97971651D01*
X47259716Y-97943060D01*
X47353968Y-97914469D01*
X47500876Y-97900000D01*
X61099124Y-97900000D01*
X61246032Y-97914469D01*
G37*
G36*
X80296032Y-97914469D02*
G01*
X80390284Y-97943060D01*
X80484535Y-97971651D01*
X80484537Y-97971652D01*
X80658258Y-98064507D01*
X80719184Y-98114508D01*
X80810528Y-98189472D01*
X80825260Y-98207423D01*
X80842577Y-98224740D01*
X80860528Y-98239472D01*
X80909358Y-98298972D01*
X80985493Y-98391742D01*
X81078348Y-98565463D01*
X81135531Y-98753968D01*
X81150000Y-98900876D01*
X81150000Y-112499124D01*
X81135531Y-112646032D01*
X81078348Y-112834537D01*
X80985493Y-113008258D01*
X80909358Y-113101028D01*
X80860528Y-113160528D01*
X80842577Y-113175260D01*
X80825260Y-113192577D01*
X80810528Y-113210528D01*
X80751028Y-113259358D01*
X80658258Y-113335493D01*
X80484537Y-113428348D01*
X80484535Y-113428349D01*
X80397212Y-113454838D01*
X80296032Y-113485531D01*
X80149124Y-113500000D01*
X66550876Y-113500000D01*
X66403968Y-113485531D01*
X66302788Y-113454838D01*
X66215465Y-113428349D01*
X66215463Y-113428348D01*
X66041742Y-113335493D01*
X65889472Y-113210528D01*
X65874740Y-113192577D01*
X65857418Y-113175255D01*
X65839473Y-113160528D01*
X65783145Y-113091891D01*
X65714508Y-113008258D01*
X65621653Y-112834537D01*
X65564470Y-112646032D01*
X65550001Y-112499124D01*
X65550001Y-100024999D01*
X67550000Y-100024999D01*
X67550000Y-111375001D01*
X67552402Y-111399387D01*
X67559515Y-111422836D01*
X67571066Y-111444447D01*
X67586611Y-111463389D01*
X67605553Y-111478934D01*
X67627164Y-111490485D01*
X67650613Y-111497598D01*
X67674999Y-111500000D01*
X79025002Y-111500000D01*
X79049388Y-111497598D01*
X79072837Y-111490485D01*
X79094448Y-111478934D01*
X79113390Y-111463389D01*
X79128935Y-111444447D01*
X79140486Y-111422836D01*
X79147599Y-111399387D01*
X79150001Y-111375001D01*
X79150000Y-100024999D01*
X79147598Y-100000613D01*
X79140485Y-99977164D01*
X79128934Y-99955553D01*
X79113389Y-99936611D01*
X79094447Y-99921066D01*
X79072836Y-99909515D01*
X79049387Y-99902402D01*
X79025001Y-99900000D01*
X67674999Y-99900000D01*
X67650613Y-99902402D01*
X67627164Y-99909515D01*
X67605553Y-99921066D01*
X67586611Y-99936611D01*
X67571066Y-99955553D01*
X67559515Y-99977164D01*
X67552402Y-100000613D01*
X67550000Y-100024999D01*
X65550001Y-100024999D01*
X65550000Y-98900877D01*
X65564469Y-98753969D01*
X65614358Y-98589508D01*
X65621651Y-98565466D01*
X65648377Y-98515465D01*
X65714507Y-98391742D01*
X65790642Y-98298972D01*
X65839472Y-98239472D01*
X65857423Y-98224740D01*
X65874740Y-98207423D01*
X65889472Y-98189472D01*
X65980816Y-98114508D01*
X66041742Y-98064507D01*
X66215463Y-97971652D01*
X66215465Y-97971651D01*
X66309716Y-97943060D01*
X66403968Y-97914469D01*
X66550876Y-97900000D01*
X80149124Y-97900000D01*
X80296032Y-97914469D01*
G37*
G36*
X42196032Y-97914469D02*
G01*
X42290284Y-97943060D01*
X42384535Y-97971651D01*
X42384537Y-97971652D01*
X42558258Y-98064507D01*
X42619184Y-98114508D01*
X42710528Y-98189472D01*
X42725260Y-98207423D01*
X42742577Y-98224740D01*
X42760528Y-98239472D01*
X42809358Y-98298972D01*
X42885493Y-98391742D01*
X42978348Y-98565463D01*
X43035531Y-98753968D01*
X43050000Y-98900876D01*
X43050000Y-112499124D01*
X43035531Y-112646032D01*
X42978348Y-112834537D01*
X42885493Y-113008258D01*
X42809358Y-113101028D01*
X42760528Y-113160528D01*
X42742577Y-113175260D01*
X42725260Y-113192577D01*
X42710528Y-113210528D01*
X42651028Y-113259358D01*
X42558258Y-113335493D01*
X42384537Y-113428348D01*
X42384535Y-113428349D01*
X42297212Y-113454838D01*
X42196032Y-113485531D01*
X42049124Y-113500000D01*
X28450876Y-113500000D01*
X28303968Y-113485531D01*
X28202788Y-113454838D01*
X28115465Y-113428349D01*
X28115463Y-113428348D01*
X27941742Y-113335493D01*
X27789472Y-113210528D01*
X27774740Y-113192577D01*
X27757418Y-113175255D01*
X27739473Y-113160528D01*
X27683145Y-113091891D01*
X27614508Y-113008258D01*
X27521653Y-112834537D01*
X27464470Y-112646032D01*
X27450001Y-112499124D01*
X27450001Y-100024999D01*
X29450000Y-100024999D01*
X29450000Y-111375001D01*
X29452402Y-111399387D01*
X29459515Y-111422836D01*
X29471066Y-111444447D01*
X29486611Y-111463389D01*
X29505553Y-111478934D01*
X29527164Y-111490485D01*
X29550613Y-111497598D01*
X29574999Y-111500000D01*
X40925002Y-111500000D01*
X40949388Y-111497598D01*
X40972837Y-111490485D01*
X40994448Y-111478934D01*
X41013390Y-111463389D01*
X41028935Y-111444447D01*
X41040486Y-111422836D01*
X41047599Y-111399387D01*
X41050001Y-111375001D01*
X41050000Y-100024999D01*
X41047598Y-100000613D01*
X41040485Y-99977164D01*
X41028934Y-99955553D01*
X41013389Y-99936611D01*
X40994447Y-99921066D01*
X40972836Y-99909515D01*
X40949387Y-99902402D01*
X40925001Y-99900000D01*
X29574999Y-99900000D01*
X29550613Y-99902402D01*
X29527164Y-99909515D01*
X29505553Y-99921066D01*
X29486611Y-99936611D01*
X29471066Y-99955553D01*
X29459515Y-99977164D01*
X29452402Y-100000613D01*
X29450000Y-100024999D01*
X27450001Y-100024999D01*
X27450000Y-98900877D01*
X27464469Y-98753969D01*
X27514358Y-98589508D01*
X27521651Y-98565466D01*
X27548377Y-98515465D01*
X27614507Y-98391742D01*
X27690642Y-98298972D01*
X27739472Y-98239472D01*
X27757423Y-98224740D01*
X27774740Y-98207423D01*
X27789472Y-98189472D01*
X27880816Y-98114508D01*
X27941742Y-98064507D01*
X28115463Y-97971652D01*
X28115465Y-97971651D01*
X28209716Y-97943060D01*
X28303968Y-97914469D01*
X28450876Y-97900000D01*
X42049124Y-97900000D01*
X42196032Y-97914469D01*
G37*
G36*
X42196032Y-78864469D02*
G01*
X42290284Y-78893060D01*
X42384535Y-78921651D01*
X42384537Y-78921652D01*
X42558258Y-79014507D01*
X42619184Y-79064508D01*
X42710528Y-79139472D01*
X42725260Y-79157423D01*
X42742577Y-79174740D01*
X42760528Y-79189472D01*
X42809358Y-79248972D01*
X42885493Y-79341742D01*
X42978348Y-79515463D01*
X43035531Y-79703968D01*
X43050000Y-79850876D01*
X43050000Y-93449124D01*
X43035531Y-93596032D01*
X43020363Y-93646034D01*
X42980510Y-93777412D01*
X42978348Y-93784537D01*
X42885493Y-93958258D01*
X42809358Y-94051028D01*
X42760528Y-94110528D01*
X42742577Y-94125260D01*
X42725260Y-94142577D01*
X42710528Y-94160528D01*
X42651028Y-94209358D01*
X42558258Y-94285493D01*
X42384537Y-94378348D01*
X42384535Y-94378349D01*
X42297212Y-94404838D01*
X42196032Y-94435531D01*
X42049124Y-94450000D01*
X28450876Y-94450000D01*
X28303968Y-94435531D01*
X28202788Y-94404838D01*
X28115465Y-94378349D01*
X28115463Y-94378348D01*
X27941742Y-94285493D01*
X27789472Y-94160528D01*
X27774740Y-94142577D01*
X27757418Y-94125255D01*
X27739473Y-94110528D01*
X27683145Y-94041891D01*
X27614508Y-93958258D01*
X27521653Y-93784537D01*
X27519492Y-93777412D01*
X27479638Y-93646034D01*
X27464470Y-93596032D01*
X27450001Y-93449124D01*
X27450001Y-80974999D01*
X29450000Y-80974999D01*
X29450000Y-92325001D01*
X29452402Y-92349387D01*
X29459515Y-92372836D01*
X29471066Y-92394447D01*
X29486611Y-92413389D01*
X29505553Y-92428934D01*
X29527164Y-92440485D01*
X29550613Y-92447598D01*
X29574999Y-92450000D01*
X40925002Y-92450000D01*
X40949388Y-92447598D01*
X40972837Y-92440485D01*
X40994448Y-92428934D01*
X41013390Y-92413389D01*
X41028935Y-92394447D01*
X41040486Y-92372836D01*
X41047599Y-92349387D01*
X41050001Y-92325001D01*
X41050000Y-80974999D01*
X41047598Y-80950613D01*
X41040485Y-80927164D01*
X41028934Y-80905553D01*
X41013389Y-80886611D01*
X40994447Y-80871066D01*
X40972836Y-80859515D01*
X40949387Y-80852402D01*
X40925001Y-80850000D01*
X29574999Y-80850000D01*
X29550613Y-80852402D01*
X29527164Y-80859515D01*
X29505553Y-80871066D01*
X29486611Y-80886611D01*
X29471066Y-80905553D01*
X29459515Y-80927164D01*
X29452402Y-80950613D01*
X29450000Y-80974999D01*
X27450001Y-80974999D01*
X27450000Y-79850877D01*
X27464469Y-79703969D01*
X27521652Y-79515464D01*
X27614507Y-79341742D01*
X27690642Y-79248972D01*
X27739472Y-79189472D01*
X27757423Y-79174740D01*
X27774740Y-79157423D01*
X27789472Y-79139472D01*
X27880816Y-79064508D01*
X27941742Y-79014507D01*
X28115463Y-78921652D01*
X28115465Y-78921651D01*
X28209715Y-78893061D01*
X28303968Y-78864469D01*
X28450876Y-78850000D01*
X42049124Y-78850000D01*
X42196032Y-78864469D01*
G37*
G36*
X80296032Y-78864469D02*
G01*
X80390284Y-78893060D01*
X80484535Y-78921651D01*
X80484537Y-78921652D01*
X80658258Y-79014507D01*
X80719184Y-79064508D01*
X80810528Y-79139472D01*
X80825260Y-79157423D01*
X80842577Y-79174740D01*
X80860528Y-79189472D01*
X80909358Y-79248972D01*
X80985493Y-79341742D01*
X81078348Y-79515463D01*
X81135531Y-79703968D01*
X81150000Y-79850876D01*
X81150000Y-93449124D01*
X81135531Y-93596032D01*
X81120363Y-93646034D01*
X81080510Y-93777412D01*
X81078348Y-93784537D01*
X80985493Y-93958258D01*
X80909358Y-94051028D01*
X80860528Y-94110528D01*
X80842577Y-94125260D01*
X80825260Y-94142577D01*
X80810528Y-94160528D01*
X80751028Y-94209358D01*
X80658258Y-94285493D01*
X80484537Y-94378348D01*
X80484535Y-94378349D01*
X80397212Y-94404838D01*
X80296032Y-94435531D01*
X80149124Y-94450000D01*
X66550876Y-94450000D01*
X66403968Y-94435531D01*
X66302788Y-94404838D01*
X66215465Y-94378349D01*
X66215463Y-94378348D01*
X66041742Y-94285493D01*
X65889472Y-94160528D01*
X65874740Y-94142577D01*
X65857418Y-94125255D01*
X65839473Y-94110528D01*
X65783145Y-94041891D01*
X65714508Y-93958258D01*
X65621653Y-93784537D01*
X65619492Y-93777412D01*
X65579638Y-93646034D01*
X65564470Y-93596032D01*
X65550001Y-93449124D01*
X65550001Y-80974999D01*
X67550000Y-80974999D01*
X67550000Y-92325001D01*
X67552402Y-92349387D01*
X67559515Y-92372836D01*
X67571066Y-92394447D01*
X67586611Y-92413389D01*
X67605553Y-92428934D01*
X67627164Y-92440485D01*
X67650613Y-92447598D01*
X67674999Y-92450000D01*
X79025002Y-92450000D01*
X79049388Y-92447598D01*
X79072837Y-92440485D01*
X79094448Y-92428934D01*
X79113390Y-92413389D01*
X79128935Y-92394447D01*
X79140486Y-92372836D01*
X79147599Y-92349387D01*
X79150001Y-92325001D01*
X79150000Y-80974999D01*
X79147598Y-80950613D01*
X79140485Y-80927164D01*
X79128934Y-80905553D01*
X79113389Y-80886611D01*
X79094447Y-80871066D01*
X79072836Y-80859515D01*
X79049387Y-80852402D01*
X79025001Y-80850000D01*
X67674999Y-80850000D01*
X67650613Y-80852402D01*
X67627164Y-80859515D01*
X67605553Y-80871066D01*
X67586611Y-80886611D01*
X67571066Y-80905553D01*
X67559515Y-80927164D01*
X67552402Y-80950613D01*
X67550000Y-80974999D01*
X65550001Y-80974999D01*
X65550000Y-79850877D01*
X65564469Y-79703969D01*
X65621652Y-79515464D01*
X65714507Y-79341742D01*
X65790642Y-79248972D01*
X65839472Y-79189472D01*
X65857423Y-79174740D01*
X65874740Y-79157423D01*
X65889472Y-79139472D01*
X65980816Y-79064508D01*
X66041742Y-79014507D01*
X66215463Y-78921652D01*
X66215465Y-78921651D01*
X66309715Y-78893061D01*
X66403968Y-78864469D01*
X66550876Y-78850000D01*
X80149124Y-78850000D01*
X80296032Y-78864469D01*
G37*
G36*
X61246032Y-78864469D02*
G01*
X61340284Y-78893060D01*
X61434535Y-78921651D01*
X61434537Y-78921652D01*
X61608258Y-79014507D01*
X61669184Y-79064508D01*
X61760528Y-79139472D01*
X61775260Y-79157423D01*
X61792577Y-79174740D01*
X61810528Y-79189472D01*
X61859358Y-79248972D01*
X61935493Y-79341742D01*
X62028348Y-79515463D01*
X62085531Y-79703968D01*
X62100000Y-79850876D01*
X62100000Y-93449124D01*
X62085531Y-93596032D01*
X62070363Y-93646034D01*
X62030510Y-93777412D01*
X62028348Y-93784537D01*
X61935493Y-93958258D01*
X61859358Y-94051028D01*
X61810528Y-94110528D01*
X61792577Y-94125260D01*
X61775260Y-94142577D01*
X61760528Y-94160528D01*
X61701028Y-94209358D01*
X61608258Y-94285493D01*
X61434537Y-94378348D01*
X61434535Y-94378349D01*
X61347212Y-94404838D01*
X61246032Y-94435531D01*
X61099124Y-94450000D01*
X47500876Y-94450000D01*
X47353968Y-94435531D01*
X47252788Y-94404838D01*
X47165465Y-94378349D01*
X47165463Y-94378348D01*
X46991742Y-94285493D01*
X46839472Y-94160528D01*
X46824740Y-94142577D01*
X46807418Y-94125255D01*
X46789473Y-94110528D01*
X46733145Y-94041891D01*
X46664508Y-93958258D01*
X46571653Y-93784537D01*
X46569492Y-93777412D01*
X46529638Y-93646034D01*
X46514470Y-93596032D01*
X46500001Y-93449124D01*
X46500001Y-80974999D01*
X48500000Y-80974999D01*
X48500000Y-92325001D01*
X48502402Y-92349387D01*
X48509515Y-92372836D01*
X48521066Y-92394447D01*
X48536611Y-92413389D01*
X48555553Y-92428934D01*
X48577164Y-92440485D01*
X48600613Y-92447598D01*
X48624999Y-92450000D01*
X59975002Y-92450000D01*
X59999388Y-92447598D01*
X60022837Y-92440485D01*
X60044448Y-92428934D01*
X60063390Y-92413389D01*
X60078935Y-92394447D01*
X60090486Y-92372836D01*
X60097599Y-92349387D01*
X60100001Y-92325001D01*
X60100000Y-80974999D01*
X60097598Y-80950613D01*
X60090485Y-80927164D01*
X60078934Y-80905553D01*
X60063389Y-80886611D01*
X60044447Y-80871066D01*
X60022836Y-80859515D01*
X59999387Y-80852402D01*
X59975001Y-80850000D01*
X48624999Y-80850000D01*
X48600613Y-80852402D01*
X48577164Y-80859515D01*
X48555553Y-80871066D01*
X48536611Y-80886611D01*
X48521066Y-80905553D01*
X48509515Y-80927164D01*
X48502402Y-80950613D01*
X48500000Y-80974999D01*
X46500001Y-80974999D01*
X46500000Y-79850877D01*
X46514469Y-79703969D01*
X46571652Y-79515464D01*
X46664507Y-79341742D01*
X46740642Y-79248972D01*
X46789472Y-79189472D01*
X46807423Y-79174740D01*
X46824740Y-79157423D01*
X46839472Y-79139472D01*
X46930816Y-79064508D01*
X46991742Y-79014507D01*
X47165463Y-78921652D01*
X47165465Y-78921651D01*
X47259715Y-78893061D01*
X47353968Y-78864469D01*
X47500876Y-78850000D01*
X61099124Y-78850000D01*
X61246032Y-78864469D01*
G37*
G36*
X99346032Y-60339469D02*
G01*
X99440285Y-60368061D01*
X99534535Y-60396651D01*
X99534537Y-60396652D01*
X99708258Y-60489507D01*
X99769184Y-60539508D01*
X99860528Y-60614472D01*
X99875260Y-60632423D01*
X99892577Y-60649740D01*
X99910528Y-60664472D01*
X99931074Y-60689508D01*
X100035493Y-60816742D01*
X100128348Y-60990463D01*
X100185531Y-61178968D01*
X100200000Y-61325876D01*
X100200000Y-92924124D01*
X100185531Y-93071032D01*
X100185530Y-93071034D01*
X100135233Y-93236843D01*
X100128348Y-93259537D01*
X100035493Y-93433258D01*
X99959358Y-93526028D01*
X99910528Y-93585528D01*
X99892577Y-93600260D01*
X99875260Y-93617577D01*
X99860528Y-93635528D01*
X99831917Y-93659008D01*
X99708258Y-93760493D01*
X99568785Y-93835042D01*
X99534535Y-93853349D01*
X99447212Y-93879838D01*
X99346032Y-93910531D01*
X99199124Y-93925000D01*
X85600876Y-93925000D01*
X85453968Y-93910531D01*
X85352788Y-93879838D01*
X85265465Y-93853349D01*
X85231215Y-93835042D01*
X85091742Y-93760493D01*
X84939472Y-93635528D01*
X84814507Y-93483258D01*
X84721652Y-93309537D01*
X84704795Y-93253966D01*
X84664470Y-93121034D01*
X84664469Y-93121032D01*
X84660546Y-93081198D01*
X84655765Y-93057164D01*
X84614470Y-92921035D01*
X84600001Y-92774124D01*
X84600000Y-91632368D01*
X84597598Y-91607982D01*
X84590485Y-91584533D01*
X84578934Y-91562922D01*
X84563389Y-91543980D01*
X84544447Y-91528435D01*
X84511287Y-91512752D01*
X84315466Y-91453350D01*
X84141742Y-91360493D01*
X83989472Y-91235528D01*
X83864507Y-91083258D01*
X83771652Y-90909537D01*
X83714469Y-90721032D01*
X83695162Y-90525000D01*
X83699399Y-90481978D01*
X83700001Y-90469726D01*
X83700000Y-87680264D01*
X83699398Y-87668012D01*
X83695162Y-87625000D01*
X83714469Y-87428968D01*
X83758071Y-87285233D01*
X83771651Y-87240465D01*
X83771652Y-87240463D01*
X83864507Y-87066742D01*
X83989472Y-86914472D01*
X84141742Y-86789507D01*
X84315463Y-86696652D01*
X84315465Y-86696651D01*
X84444217Y-86657595D01*
X84511287Y-86637249D01*
X84533926Y-86627871D01*
X84554301Y-86614257D01*
X84571628Y-86596930D01*
X84585241Y-86576556D01*
X84594619Y-86553917D01*
X84600001Y-86517632D01*
X84600000Y-67732368D01*
X84597598Y-67707982D01*
X84590485Y-67684533D01*
X84578934Y-67662922D01*
X84563389Y-67643980D01*
X84544447Y-67628435D01*
X84511287Y-67612752D01*
X84315466Y-67553350D01*
X84141742Y-67460493D01*
X83989472Y-67335528D01*
X83864507Y-67183258D01*
X83771652Y-67009537D01*
X83765159Y-66988132D01*
X83714470Y-66821034D01*
X83714469Y-66821032D01*
X83695162Y-66625000D01*
X83699399Y-66581978D01*
X83700001Y-66569726D01*
X83700001Y-64832368D01*
X85700000Y-64832368D01*
X85700000Y-65517632D01*
X85702402Y-65542018D01*
X85709515Y-65565467D01*
X85721066Y-65587078D01*
X85736611Y-65606020D01*
X85755553Y-65621565D01*
X85788713Y-65637248D01*
X85984534Y-65696650D01*
X86158258Y-65789507D01*
X86310528Y-65914472D01*
X86435493Y-66066742D01*
X86462218Y-66116742D01*
X86528349Y-66240465D01*
X86556939Y-66334715D01*
X86585531Y-66428968D01*
X86604838Y-66625000D01*
X86600602Y-66668012D01*
X86600000Y-66680264D01*
X86600000Y-87569736D01*
X86600602Y-87581988D01*
X86604838Y-87625000D01*
X86585531Y-87821032D01*
X86528348Y-88009537D01*
X86435493Y-88183258D01*
X86310528Y-88335528D01*
X86158258Y-88460493D01*
X85984534Y-88553350D01*
X85788713Y-88612752D01*
X85766075Y-88622129D01*
X85745700Y-88635743D01*
X85728373Y-88653070D01*
X85714760Y-88673444D01*
X85705382Y-88696083D01*
X85700000Y-88732368D01*
X85700000Y-89417632D01*
X85702402Y-89442018D01*
X85709515Y-89465467D01*
X85721066Y-89487078D01*
X85736611Y-89506020D01*
X85755553Y-89521565D01*
X85788713Y-89537248D01*
X85984534Y-89596650D01*
X86158258Y-89689507D01*
X86310528Y-89814472D01*
X86435493Y-89966742D01*
X86528348Y-90140463D01*
X86585531Y-90328968D01*
X86604838Y-90525000D01*
X86596196Y-90612748D01*
X86596196Y-90637252D01*
X86600000Y-90675876D01*
X86600000Y-91800001D01*
X86602402Y-91824387D01*
X86609515Y-91847836D01*
X86621066Y-91869447D01*
X86636611Y-91888389D01*
X86655553Y-91903934D01*
X86677164Y-91915485D01*
X86700613Y-91922598D01*
X86724999Y-91925000D01*
X98075002Y-91925000D01*
X98099388Y-91922598D01*
X98122837Y-91915485D01*
X98144448Y-91903934D01*
X98163390Y-91888389D01*
X98178935Y-91869447D01*
X98190486Y-91847836D01*
X98197599Y-91824387D01*
X98200001Y-91800001D01*
X98200000Y-62449999D01*
X98197598Y-62425613D01*
X98190485Y-62402164D01*
X98178934Y-62380553D01*
X98163389Y-62361611D01*
X98144447Y-62346066D01*
X98122836Y-62334515D01*
X98099387Y-62327402D01*
X98075001Y-62325000D01*
X86724999Y-62325000D01*
X86700613Y-62327402D01*
X86677164Y-62334515D01*
X86655553Y-62346066D01*
X86636611Y-62361611D01*
X86621066Y-62380553D01*
X86609515Y-62402164D01*
X86602402Y-62425613D01*
X86600000Y-62449999D01*
X86600000Y-63574124D01*
X86596196Y-63612748D01*
X86596196Y-63637252D01*
X86604838Y-63725000D01*
X86585531Y-63921032D01*
X86528348Y-64109537D01*
X86435493Y-64283258D01*
X86310528Y-64435528D01*
X86158258Y-64560493D01*
X85984534Y-64653350D01*
X85788713Y-64712752D01*
X85766075Y-64722129D01*
X85745700Y-64735743D01*
X85728373Y-64753070D01*
X85714760Y-64773444D01*
X85705382Y-64796083D01*
X85700000Y-64832368D01*
X83700001Y-64832368D01*
X83700000Y-63780264D01*
X83699398Y-63768012D01*
X83695162Y-63725000D01*
X83714469Y-63528968D01*
X83771652Y-63340463D01*
X83864507Y-63166742D01*
X83989472Y-63014472D01*
X84141742Y-62889507D01*
X84315463Y-62796652D01*
X84315465Y-62796651D01*
X84444217Y-62757595D01*
X84511287Y-62737249D01*
X84533926Y-62727871D01*
X84554301Y-62714257D01*
X84571628Y-62696930D01*
X84585241Y-62676556D01*
X84594619Y-62653917D01*
X84600001Y-62617632D01*
X84600001Y-62449999D01*
X84600000Y-61475881D01*
X84600000Y-61475877D01*
X84614469Y-61328969D01*
X84655766Y-61192832D01*
X84660546Y-61168799D01*
X84664469Y-61128968D01*
X84693060Y-61034716D01*
X84721651Y-60940465D01*
X84787782Y-60816742D01*
X84814507Y-60766742D01*
X84939472Y-60614472D01*
X85091742Y-60489507D01*
X85265463Y-60396652D01*
X85265465Y-60396651D01*
X85359715Y-60368061D01*
X85453968Y-60339469D01*
X85600876Y-60325000D01*
X99199124Y-60325000D01*
X99346032Y-60339469D01*
G37*
G36*
X110335673Y-74488311D02*
G01*
X110478664Y-74524958D01*
X113105527Y-75481058D01*
X123256840Y-79175833D01*
X123256845Y-79175835D01*
X123256844Y-79175835D01*
X123389949Y-79239679D01*
X123547516Y-79357877D01*
X123547519Y-79357881D01*
X123547521Y-79357882D01*
X123679008Y-79504555D01*
X123779355Y-79674063D01*
X123787057Y-79695966D01*
X123797413Y-79718173D01*
X123809238Y-79738148D01*
X123874587Y-79923977D01*
X123902427Y-80118981D01*
X123891689Y-80315674D01*
X123855042Y-80458664D01*
X123855038Y-80458675D01*
X119204166Y-93236839D01*
X119204164Y-93236843D01*
X119140322Y-93369944D01*
X119022119Y-93527519D01*
X118957412Y-93585526D01*
X118875444Y-93659008D01*
X118755796Y-93729838D01*
X118705937Y-93759354D01*
X118684036Y-93767056D01*
X118661829Y-93777412D01*
X118641852Y-93789238D01*
X118601725Y-93803349D01*
X118456024Y-93854587D01*
X118414396Y-93860530D01*
X118261019Y-93882427D01*
X118261018Y-93882427D01*
X118251791Y-93881923D01*
X118064326Y-93871689D01*
X117921336Y-93835042D01*
X117579138Y-93710492D01*
X105143161Y-89184166D01*
X105120359Y-89173229D01*
X105010056Y-89120322D01*
X104852481Y-89002119D01*
X104790765Y-88933275D01*
X104720992Y-88855444D01*
X104620646Y-88685937D01*
X104612944Y-88664036D01*
X104602588Y-88641829D01*
X104590762Y-88621852D01*
X104525413Y-88436023D01*
X104497573Y-88241018D01*
X104508311Y-88044327D01*
X104544958Y-87901336D01*
X104662917Y-87577244D01*
X106801397Y-87577244D01*
X106804860Y-87601502D01*
X106812989Y-87624619D01*
X106825472Y-87645705D01*
X106841829Y-87663951D01*
X106861431Y-87678655D01*
X106883523Y-87689252D01*
X117549051Y-91571186D01*
X117572777Y-91577266D01*
X117597244Y-91578602D01*
X117621502Y-91575139D01*
X117644619Y-91567010D01*
X117665705Y-91554527D01*
X117683951Y-91538170D01*
X117698655Y-91518568D01*
X117709253Y-91496474D01*
X118777849Y-88560530D01*
X121591185Y-80830952D01*
X121597266Y-80807222D01*
X121598602Y-80782755D01*
X121595139Y-80758497D01*
X121587010Y-80735380D01*
X121574527Y-80714294D01*
X121558170Y-80696048D01*
X121538568Y-80681344D01*
X121516483Y-80670751D01*
X110850952Y-76788814D01*
X110827223Y-76782733D01*
X110802756Y-76781397D01*
X110778498Y-76784860D01*
X110755381Y-76792989D01*
X110734295Y-76805472D01*
X110716049Y-76821829D01*
X110701345Y-76841431D01*
X110690749Y-76863521D01*
X106808814Y-87529048D01*
X106802733Y-87552777D01*
X106801397Y-87577244D01*
X104662917Y-87577244D01*
X107019493Y-81102607D01*
X109195833Y-75123160D01*
X109213333Y-75086675D01*
X109259679Y-74990051D01*
X109377877Y-74832484D01*
X109377881Y-74832481D01*
X109377882Y-74832479D01*
X109524555Y-74700992D01*
X109694063Y-74600645D01*
X109715970Y-74592941D01*
X109738173Y-74582587D01*
X109758148Y-74570762D01*
X109943977Y-74505413D01*
X110138982Y-74477573D01*
X110335673Y-74488311D01*
G37*
G36*
X123677107Y-73448522D02*
G01*
X123877293Y-73531442D01*
X123877295Y-73531443D01*
X123897140Y-73544703D01*
X124057458Y-73651824D01*
X124210676Y-73805042D01*
X124331058Y-73985207D01*
X124413978Y-74185393D01*
X124456250Y-74397908D01*
X124456250Y-74614592D01*
X124413978Y-74827107D01*
X124331058Y-75027293D01*
X124331057Y-75027295D01*
X124287434Y-75092581D01*
X124210676Y-75207458D01*
X124057458Y-75360676D01*
X123998605Y-75400000D01*
X123877295Y-75481057D01*
X123877294Y-75481058D01*
X123877293Y-75481058D01*
X123677107Y-75563978D01*
X123464592Y-75606250D01*
X123247908Y-75606250D01*
X123035393Y-75563978D01*
X122835207Y-75481058D01*
X122835206Y-75481058D01*
X122835205Y-75481057D01*
X122713895Y-75400000D01*
X122655042Y-75360676D01*
X122501824Y-75207458D01*
X122425066Y-75092581D01*
X122381443Y-75027295D01*
X122381442Y-75027293D01*
X122298522Y-74827107D01*
X122256250Y-74614592D01*
X122256250Y-74397908D01*
X122298522Y-74185393D01*
X122381442Y-73985207D01*
X122501824Y-73805042D01*
X122655042Y-73651824D01*
X122815360Y-73544703D01*
X122835205Y-73531443D01*
X122835207Y-73531442D01*
X123035393Y-73448522D01*
X123247908Y-73406250D01*
X123464592Y-73406250D01*
X123677107Y-73448522D01*
G37*
G36*
X61246032Y-59814469D02*
G01*
X61340285Y-59843061D01*
X61434535Y-59871651D01*
X61434537Y-59871652D01*
X61608258Y-59964507D01*
X61669184Y-60014508D01*
X61760528Y-60089472D01*
X61775260Y-60107423D01*
X61792577Y-60124740D01*
X61810528Y-60139472D01*
X61829344Y-60162400D01*
X61935493Y-60291742D01*
X62028348Y-60465463D01*
X62085531Y-60653968D01*
X62100000Y-60800876D01*
X62100000Y-74399124D01*
X62085531Y-74546032D01*
X62028348Y-74734537D01*
X61935493Y-74908258D01*
X61892888Y-74960172D01*
X61810528Y-75060528D01*
X61792577Y-75075260D01*
X61775260Y-75092577D01*
X61760528Y-75110528D01*
X61727321Y-75137780D01*
X61608258Y-75235493D01*
X61434537Y-75328348D01*
X61434535Y-75328349D01*
X61347212Y-75354838D01*
X61246032Y-75385531D01*
X61099124Y-75400000D01*
X47500876Y-75400000D01*
X47353968Y-75385531D01*
X47252788Y-75354838D01*
X47165465Y-75328349D01*
X47165463Y-75328348D01*
X46991742Y-75235493D01*
X46839472Y-75110528D01*
X46824740Y-75092577D01*
X46807418Y-75075255D01*
X46789473Y-75060528D01*
X46707113Y-74960172D01*
X46664508Y-74908258D01*
X46571653Y-74734537D01*
X46514470Y-74546032D01*
X46500001Y-74399124D01*
X46500001Y-61924999D01*
X48500000Y-61924999D01*
X48500000Y-73275001D01*
X48502402Y-73299387D01*
X48509515Y-73322836D01*
X48521066Y-73344447D01*
X48536611Y-73363389D01*
X48555553Y-73378934D01*
X48577164Y-73390485D01*
X48600613Y-73397598D01*
X48624999Y-73400000D01*
X59975002Y-73400000D01*
X59999388Y-73397598D01*
X60022837Y-73390485D01*
X60044448Y-73378934D01*
X60063390Y-73363389D01*
X60078935Y-73344447D01*
X60090486Y-73322836D01*
X60097599Y-73299387D01*
X60100001Y-73275001D01*
X60100000Y-61924999D01*
X60097598Y-61900613D01*
X60090485Y-61877164D01*
X60078934Y-61855553D01*
X60063389Y-61836611D01*
X60044447Y-61821066D01*
X60022836Y-61809515D01*
X59999387Y-61802402D01*
X59975001Y-61800000D01*
X48624999Y-61800000D01*
X48600613Y-61802402D01*
X48577164Y-61809515D01*
X48555553Y-61821066D01*
X48536611Y-61836611D01*
X48521066Y-61855553D01*
X48509515Y-61877164D01*
X48502402Y-61900613D01*
X48500000Y-61924999D01*
X46500001Y-61924999D01*
X46500000Y-60800877D01*
X46514469Y-60653969D01*
X46564358Y-60489508D01*
X46571651Y-60465466D01*
X46581708Y-60446651D01*
X46664507Y-60291742D01*
X46770656Y-60162400D01*
X46789472Y-60139472D01*
X46807423Y-60124740D01*
X46824740Y-60107423D01*
X46839472Y-60089472D01*
X46930816Y-60014508D01*
X46991742Y-59964507D01*
X47165463Y-59871652D01*
X47165465Y-59871651D01*
X47259715Y-59843061D01*
X47353968Y-59814469D01*
X47500876Y-59800000D01*
X61099124Y-59800000D01*
X61246032Y-59814469D01*
G37*
G36*
X80296032Y-59814469D02*
G01*
X80390285Y-59843061D01*
X80484535Y-59871651D01*
X80484537Y-59871652D01*
X80658258Y-59964507D01*
X80719184Y-60014508D01*
X80810528Y-60089472D01*
X80825260Y-60107423D01*
X80842577Y-60124740D01*
X80860528Y-60139472D01*
X80879344Y-60162400D01*
X80985493Y-60291742D01*
X81078348Y-60465463D01*
X81135531Y-60653968D01*
X81150000Y-60800876D01*
X81150000Y-74399124D01*
X81135531Y-74546032D01*
X81078348Y-74734537D01*
X80985493Y-74908258D01*
X80942888Y-74960172D01*
X80860528Y-75060528D01*
X80842577Y-75075260D01*
X80825260Y-75092577D01*
X80810528Y-75110528D01*
X80777321Y-75137780D01*
X80658258Y-75235493D01*
X80484537Y-75328348D01*
X80484535Y-75328349D01*
X80397212Y-75354838D01*
X80296032Y-75385531D01*
X80149124Y-75400000D01*
X66550876Y-75400000D01*
X66403968Y-75385531D01*
X66302788Y-75354838D01*
X66215465Y-75328349D01*
X66215463Y-75328348D01*
X66041742Y-75235493D01*
X65889472Y-75110528D01*
X65874740Y-75092577D01*
X65857418Y-75075255D01*
X65839473Y-75060528D01*
X65757113Y-74960172D01*
X65714508Y-74908258D01*
X65621653Y-74734537D01*
X65564470Y-74546032D01*
X65550001Y-74399124D01*
X65550001Y-61924999D01*
X67550000Y-61924999D01*
X67550000Y-73275001D01*
X67552402Y-73299387D01*
X67559515Y-73322836D01*
X67571066Y-73344447D01*
X67586611Y-73363389D01*
X67605553Y-73378934D01*
X67627164Y-73390485D01*
X67650613Y-73397598D01*
X67674999Y-73400000D01*
X79025002Y-73400000D01*
X79049388Y-73397598D01*
X79072837Y-73390485D01*
X79094448Y-73378934D01*
X79113390Y-73363389D01*
X79128935Y-73344447D01*
X79140486Y-73322836D01*
X79147599Y-73299387D01*
X79150001Y-73275001D01*
X79150000Y-61924999D01*
X79147598Y-61900613D01*
X79140485Y-61877164D01*
X79128934Y-61855553D01*
X79113389Y-61836611D01*
X79094447Y-61821066D01*
X79072836Y-61809515D01*
X79049387Y-61802402D01*
X79025001Y-61800000D01*
X67674999Y-61800000D01*
X67650613Y-61802402D01*
X67627164Y-61809515D01*
X67605553Y-61821066D01*
X67586611Y-61836611D01*
X67571066Y-61855553D01*
X67559515Y-61877164D01*
X67552402Y-61900613D01*
X67550000Y-61924999D01*
X65550001Y-61924999D01*
X65550000Y-60800877D01*
X65564469Y-60653969D01*
X65614358Y-60489508D01*
X65621651Y-60465466D01*
X65631708Y-60446651D01*
X65714507Y-60291742D01*
X65820656Y-60162400D01*
X65839472Y-60139472D01*
X65857423Y-60124740D01*
X65874740Y-60107423D01*
X65889472Y-60089472D01*
X65980816Y-60014508D01*
X66041742Y-59964507D01*
X66215463Y-59871652D01*
X66215465Y-59871651D01*
X66309715Y-59843061D01*
X66403968Y-59814469D01*
X66550876Y-59800000D01*
X80149124Y-59800000D01*
X80296032Y-59814469D01*
G37*
G36*
X42196032Y-59814469D02*
G01*
X42290285Y-59843061D01*
X42384535Y-59871651D01*
X42384537Y-59871652D01*
X42558258Y-59964507D01*
X42619184Y-60014508D01*
X42710528Y-60089472D01*
X42725260Y-60107423D01*
X42742577Y-60124740D01*
X42760528Y-60139472D01*
X42779344Y-60162400D01*
X42885493Y-60291742D01*
X42978348Y-60465463D01*
X43035531Y-60653968D01*
X43050000Y-60800876D01*
X43050000Y-74399124D01*
X43035531Y-74546032D01*
X42978348Y-74734537D01*
X42885493Y-74908258D01*
X42842888Y-74960172D01*
X42760528Y-75060528D01*
X42742577Y-75075260D01*
X42725260Y-75092577D01*
X42710528Y-75110528D01*
X42677321Y-75137780D01*
X42558258Y-75235493D01*
X42384537Y-75328348D01*
X42384535Y-75328349D01*
X42297212Y-75354838D01*
X42196032Y-75385531D01*
X42049124Y-75400000D01*
X28450876Y-75400000D01*
X28303968Y-75385531D01*
X28202788Y-75354838D01*
X28115465Y-75328349D01*
X28115463Y-75328348D01*
X27941742Y-75235493D01*
X27789472Y-75110528D01*
X27774740Y-75092577D01*
X27757418Y-75075255D01*
X27739473Y-75060528D01*
X27657113Y-74960172D01*
X27614508Y-74908258D01*
X27521653Y-74734537D01*
X27464470Y-74546032D01*
X27450001Y-74399124D01*
X27450001Y-61924999D01*
X29450000Y-61924999D01*
X29450000Y-73275001D01*
X29452402Y-73299387D01*
X29459515Y-73322836D01*
X29471066Y-73344447D01*
X29486611Y-73363389D01*
X29505553Y-73378934D01*
X29527164Y-73390485D01*
X29550613Y-73397598D01*
X29574999Y-73400000D01*
X40925002Y-73400000D01*
X40949388Y-73397598D01*
X40972837Y-73390485D01*
X40994448Y-73378934D01*
X41013390Y-73363389D01*
X41028935Y-73344447D01*
X41040486Y-73322836D01*
X41047599Y-73299387D01*
X41050001Y-73275001D01*
X41050000Y-61924999D01*
X41047598Y-61900613D01*
X41040485Y-61877164D01*
X41028934Y-61855553D01*
X41013389Y-61836611D01*
X40994447Y-61821066D01*
X40972836Y-61809515D01*
X40949387Y-61802402D01*
X40925001Y-61800000D01*
X29574999Y-61800000D01*
X29550613Y-61802402D01*
X29527164Y-61809515D01*
X29505553Y-61821066D01*
X29486611Y-61836611D01*
X29471066Y-61855553D01*
X29459515Y-61877164D01*
X29452402Y-61900613D01*
X29450000Y-61924999D01*
X27450001Y-61924999D01*
X27450000Y-60800877D01*
X27464469Y-60653969D01*
X27514358Y-60489508D01*
X27521651Y-60465466D01*
X27531708Y-60446651D01*
X27614507Y-60291742D01*
X27720656Y-60162400D01*
X27739472Y-60139472D01*
X27757423Y-60124740D01*
X27774740Y-60107423D01*
X27789472Y-60089472D01*
X27880816Y-60014508D01*
X27941742Y-59964507D01*
X28115463Y-59871652D01*
X28115465Y-59871651D01*
X28209715Y-59843061D01*
X28303968Y-59814469D01*
X28450876Y-59800000D01*
X42049124Y-59800000D01*
X42196032Y-59814469D01*
G37*
G36*
X110335673Y-54208311D02*
G01*
X110478664Y-54244958D01*
X115569186Y-56097756D01*
X123256840Y-58895833D01*
X123256845Y-58895835D01*
X123256844Y-58895835D01*
X123389949Y-58959679D01*
X123547516Y-59077877D01*
X123547519Y-59077881D01*
X123547521Y-59077882D01*
X123679008Y-59224555D01*
X123779355Y-59394063D01*
X123787057Y-59415966D01*
X123797413Y-59438173D01*
X123809238Y-59458148D01*
X123874587Y-59643977D01*
X123902427Y-59838981D01*
X123891689Y-60035674D01*
X123855042Y-60178664D01*
X123855038Y-60178675D01*
X119204166Y-72956839D01*
X119204164Y-72956843D01*
X119140322Y-73089944D01*
X119022119Y-73247519D01*
X118988782Y-73277404D01*
X118875444Y-73379008D01*
X118718949Y-73471651D01*
X118705937Y-73479354D01*
X118684036Y-73487056D01*
X118661829Y-73497412D01*
X118641852Y-73509238D01*
X118578712Y-73531442D01*
X118456024Y-73574587D01*
X118358521Y-73588507D01*
X118261019Y-73602427D01*
X118261018Y-73602427D01*
X118251791Y-73601923D01*
X118064326Y-73591689D01*
X117921336Y-73555042D01*
X117692221Y-73471651D01*
X105143161Y-68904166D01*
X105120359Y-68893229D01*
X105010056Y-68840322D01*
X104852481Y-68722119D01*
X104790765Y-68653275D01*
X104720992Y-68575444D01*
X104620646Y-68405937D01*
X104612944Y-68384036D01*
X104602588Y-68361829D01*
X104590762Y-68341852D01*
X104525413Y-68156023D01*
X104497573Y-67961018D01*
X104508311Y-67764327D01*
X104544958Y-67621336D01*
X104662917Y-67297244D01*
X106801397Y-67297244D01*
X106804860Y-67321502D01*
X106812989Y-67344619D01*
X106825472Y-67365705D01*
X106841829Y-67383951D01*
X106861431Y-67398655D01*
X106883523Y-67409252D01*
X117549051Y-71291186D01*
X117572777Y-71297266D01*
X117597244Y-71298602D01*
X117621502Y-71295139D01*
X117644619Y-71287010D01*
X117665705Y-71274527D01*
X117683951Y-71258170D01*
X117698655Y-71238568D01*
X117709253Y-71216474D01*
X118894142Y-67961018D01*
X121591185Y-60550952D01*
X121597266Y-60527222D01*
X121598602Y-60502755D01*
X121595139Y-60478497D01*
X121587010Y-60455380D01*
X121574527Y-60434294D01*
X121558170Y-60416048D01*
X121538568Y-60401344D01*
X121516483Y-60390751D01*
X110850952Y-56508814D01*
X110827223Y-56502733D01*
X110802756Y-56501397D01*
X110778498Y-56504860D01*
X110755381Y-56512989D01*
X110734295Y-56525472D01*
X110716049Y-56541829D01*
X110701345Y-56561431D01*
X110690749Y-56583521D01*
X106808814Y-67249048D01*
X106802733Y-67272777D01*
X106801397Y-67297244D01*
X104662917Y-67297244D01*
X106627131Y-61900613D01*
X109195833Y-54843160D01*
X109220496Y-54791742D01*
X109259679Y-54710051D01*
X109377877Y-54552484D01*
X109377881Y-54552481D01*
X109377882Y-54552479D01*
X109524555Y-54420992D01*
X109694063Y-54320645D01*
X109715970Y-54312941D01*
X109738173Y-54302587D01*
X109758148Y-54290762D01*
X109943977Y-54225413D01*
X110138982Y-54197573D01*
X110335673Y-54208311D01*
G37*
G36*
X26045857Y-56779772D02*
G01*
X26246043Y-56862692D01*
X26246045Y-56862693D01*
X26336738Y-56923292D01*
X26426208Y-56983074D01*
X26579426Y-57136292D01*
X26699808Y-57316457D01*
X26782728Y-57516643D01*
X26825000Y-57729158D01*
X26825000Y-57945842D01*
X26782728Y-58158357D01*
X26699808Y-58358543D01*
X26699807Y-58358545D01*
X26579425Y-58538709D01*
X26426209Y-58691925D01*
X26246045Y-58812307D01*
X26246044Y-58812308D01*
X26246043Y-58812308D01*
X26045857Y-58895228D01*
X25833342Y-58937500D01*
X25616658Y-58937500D01*
X25404143Y-58895228D01*
X25203957Y-58812308D01*
X25203956Y-58812308D01*
X25203955Y-58812307D01*
X25023791Y-58691925D01*
X24870575Y-58538709D01*
X24750193Y-58358545D01*
X24750192Y-58358543D01*
X24667272Y-58158357D01*
X24625000Y-57945842D01*
X24625000Y-57729158D01*
X24667272Y-57516643D01*
X24750192Y-57316457D01*
X24870574Y-57136292D01*
X25023792Y-56983074D01*
X25113262Y-56923292D01*
X25203955Y-56862693D01*
X25203957Y-56862692D01*
X25404143Y-56779772D01*
X25616658Y-56737500D01*
X25833342Y-56737500D01*
X26045857Y-56779772D01*
G37*
G36*
X80296032Y-40764469D02*
G01*
X80390285Y-40793061D01*
X80484535Y-40821651D01*
X80484537Y-40821652D01*
X80658258Y-40914507D01*
X80719184Y-40964508D01*
X80810528Y-41039472D01*
X80825260Y-41057423D01*
X80842577Y-41074740D01*
X80860528Y-41089472D01*
X80909358Y-41148972D01*
X80985493Y-41241742D01*
X81078348Y-41415463D01*
X81135531Y-41603968D01*
X81150000Y-41750876D01*
X81150000Y-55349124D01*
X81135531Y-55496032D01*
X81078348Y-55684537D01*
X80985493Y-55858258D01*
X80916523Y-55942297D01*
X80860528Y-56010528D01*
X80842577Y-56025260D01*
X80825260Y-56042577D01*
X80810528Y-56060528D01*
X80751028Y-56109358D01*
X80658258Y-56185493D01*
X80484537Y-56278348D01*
X80484535Y-56278349D01*
X80397212Y-56304838D01*
X80296032Y-56335531D01*
X80149124Y-56350000D01*
X66550876Y-56350000D01*
X66403968Y-56335531D01*
X66302788Y-56304838D01*
X66215465Y-56278349D01*
X66215463Y-56278348D01*
X66041742Y-56185493D01*
X65889472Y-56060528D01*
X65889450Y-56060501D01*
X65874740Y-56042577D01*
X65857418Y-56025255D01*
X65839473Y-56010528D01*
X65783145Y-55941891D01*
X65714508Y-55858258D01*
X65621653Y-55684537D01*
X65564470Y-55496032D01*
X65550001Y-55349124D01*
X65550001Y-42874999D01*
X67550000Y-42874999D01*
X67550000Y-54225001D01*
X67552402Y-54249387D01*
X67559515Y-54272836D01*
X67571066Y-54294447D01*
X67586611Y-54313389D01*
X67605553Y-54328934D01*
X67627164Y-54340485D01*
X67650613Y-54347598D01*
X67674999Y-54350000D01*
X79025002Y-54350000D01*
X79049388Y-54347598D01*
X79072837Y-54340485D01*
X79094448Y-54328934D01*
X79113390Y-54313389D01*
X79128935Y-54294447D01*
X79140486Y-54272836D01*
X79147599Y-54249387D01*
X79150001Y-54225001D01*
X79150000Y-42874999D01*
X79147598Y-42850613D01*
X79140485Y-42827164D01*
X79128934Y-42805553D01*
X79113389Y-42786611D01*
X79094447Y-42771066D01*
X79072836Y-42759515D01*
X79049387Y-42752402D01*
X79025001Y-42750000D01*
X67674999Y-42750000D01*
X67650613Y-42752402D01*
X67627164Y-42759515D01*
X67605553Y-42771066D01*
X67586611Y-42786611D01*
X67571066Y-42805553D01*
X67559515Y-42827164D01*
X67552402Y-42850613D01*
X67550000Y-42874999D01*
X65550001Y-42874999D01*
X65550000Y-41750877D01*
X65564469Y-41603969D01*
X65621652Y-41415464D01*
X65714507Y-41241742D01*
X65790642Y-41148972D01*
X65839472Y-41089472D01*
X65857423Y-41074740D01*
X65874740Y-41057423D01*
X65889472Y-41039472D01*
X65980816Y-40964508D01*
X66041742Y-40914507D01*
X66215463Y-40821652D01*
X66215465Y-40821651D01*
X66309715Y-40793061D01*
X66403968Y-40764469D01*
X66550876Y-40750000D01*
X80149124Y-40750000D01*
X80296032Y-40764469D01*
G37*
G36*
X61246032Y-40764469D02*
G01*
X61340285Y-40793061D01*
X61434535Y-40821651D01*
X61434537Y-40821652D01*
X61608258Y-40914507D01*
X61669184Y-40964508D01*
X61760528Y-41039472D01*
X61775260Y-41057423D01*
X61792577Y-41074740D01*
X61810528Y-41089472D01*
X61859358Y-41148972D01*
X61935493Y-41241742D01*
X62028348Y-41415463D01*
X62085531Y-41603968D01*
X62100000Y-41750876D01*
X62100000Y-55349124D01*
X62085531Y-55496032D01*
X62028348Y-55684537D01*
X61935493Y-55858258D01*
X61866523Y-55942297D01*
X61810528Y-56010528D01*
X61792577Y-56025260D01*
X61775260Y-56042577D01*
X61760528Y-56060528D01*
X61701028Y-56109358D01*
X61608258Y-56185493D01*
X61434537Y-56278348D01*
X61434535Y-56278349D01*
X61347212Y-56304838D01*
X61246032Y-56335531D01*
X61099124Y-56350000D01*
X47500876Y-56350000D01*
X47353968Y-56335531D01*
X47252788Y-56304838D01*
X47165465Y-56278349D01*
X47165463Y-56278348D01*
X46991742Y-56185493D01*
X46839472Y-56060528D01*
X46839450Y-56060501D01*
X46824740Y-56042577D01*
X46807418Y-56025255D01*
X46789473Y-56010528D01*
X46733145Y-55941891D01*
X46664508Y-55858258D01*
X46571653Y-55684537D01*
X46514470Y-55496032D01*
X46500001Y-55349124D01*
X46500001Y-42874999D01*
X48500000Y-42874999D01*
X48500000Y-54225001D01*
X48502402Y-54249387D01*
X48509515Y-54272836D01*
X48521066Y-54294447D01*
X48536611Y-54313389D01*
X48555553Y-54328934D01*
X48577164Y-54340485D01*
X48600613Y-54347598D01*
X48624999Y-54350000D01*
X59975002Y-54350000D01*
X59999388Y-54347598D01*
X60022837Y-54340485D01*
X60044448Y-54328934D01*
X60063390Y-54313389D01*
X60078935Y-54294447D01*
X60090486Y-54272836D01*
X60097599Y-54249387D01*
X60100001Y-54225001D01*
X60100000Y-42874999D01*
X60097598Y-42850613D01*
X60090485Y-42827164D01*
X60078934Y-42805553D01*
X60063389Y-42786611D01*
X60044447Y-42771066D01*
X60022836Y-42759515D01*
X59999387Y-42752402D01*
X59975001Y-42750000D01*
X48624999Y-42750000D01*
X48600613Y-42752402D01*
X48577164Y-42759515D01*
X48555553Y-42771066D01*
X48536611Y-42786611D01*
X48521066Y-42805553D01*
X48509515Y-42827164D01*
X48502402Y-42850613D01*
X48500000Y-42874999D01*
X46500001Y-42874999D01*
X46500000Y-41750877D01*
X46514469Y-41603969D01*
X46571652Y-41415464D01*
X46664507Y-41241742D01*
X46740642Y-41148972D01*
X46789472Y-41089472D01*
X46807423Y-41074740D01*
X46824740Y-41057423D01*
X46839472Y-41039472D01*
X46930816Y-40964508D01*
X46991742Y-40914507D01*
X47165463Y-40821652D01*
X47165465Y-40821651D01*
X47259715Y-40793061D01*
X47353968Y-40764469D01*
X47500876Y-40750000D01*
X61099124Y-40750000D01*
X61246032Y-40764469D01*
G37*
G36*
X42196032Y-40764469D02*
G01*
X42290285Y-40793061D01*
X42384535Y-40821651D01*
X42384537Y-40821652D01*
X42558258Y-40914507D01*
X42619184Y-40964508D01*
X42710528Y-41039472D01*
X42725260Y-41057423D01*
X42742577Y-41074740D01*
X42760528Y-41089472D01*
X42809358Y-41148972D01*
X42885493Y-41241742D01*
X42978348Y-41415463D01*
X43035531Y-41603968D01*
X43050000Y-41750876D01*
X43050000Y-55349124D01*
X43035531Y-55496032D01*
X42978348Y-55684537D01*
X42885493Y-55858258D01*
X42816523Y-55942297D01*
X42760528Y-56010528D01*
X42742577Y-56025260D01*
X42725260Y-56042577D01*
X42710528Y-56060528D01*
X42651028Y-56109358D01*
X42558258Y-56185493D01*
X42384537Y-56278348D01*
X42384535Y-56278349D01*
X42297212Y-56304838D01*
X42196032Y-56335531D01*
X42049124Y-56350000D01*
X28450876Y-56350000D01*
X28303968Y-56335531D01*
X28202788Y-56304838D01*
X28115465Y-56278349D01*
X28115463Y-56278348D01*
X27941742Y-56185493D01*
X27789472Y-56060528D01*
X27789450Y-56060501D01*
X27774740Y-56042577D01*
X27757418Y-56025255D01*
X27739473Y-56010528D01*
X27683145Y-55941891D01*
X27614508Y-55858258D01*
X27521653Y-55684537D01*
X27464470Y-55496032D01*
X27450001Y-55349124D01*
X27450001Y-42874999D01*
X29450000Y-42874999D01*
X29450000Y-54225001D01*
X29452402Y-54249387D01*
X29459515Y-54272836D01*
X29471066Y-54294447D01*
X29486611Y-54313389D01*
X29505553Y-54328934D01*
X29527164Y-54340485D01*
X29550613Y-54347598D01*
X29574999Y-54350000D01*
X40925002Y-54350000D01*
X40949388Y-54347598D01*
X40972837Y-54340485D01*
X40994448Y-54328934D01*
X41013390Y-54313389D01*
X41028935Y-54294447D01*
X41040486Y-54272836D01*
X41047599Y-54249387D01*
X41050001Y-54225001D01*
X41050000Y-42874999D01*
X41047598Y-42850613D01*
X41040485Y-42827164D01*
X41028934Y-42805553D01*
X41013389Y-42786611D01*
X40994447Y-42771066D01*
X40972836Y-42759515D01*
X40949387Y-42752402D01*
X40925001Y-42750000D01*
X29574999Y-42750000D01*
X29550613Y-42752402D01*
X29527164Y-42759515D01*
X29505553Y-42771066D01*
X29486611Y-42786611D01*
X29471066Y-42805553D01*
X29459515Y-42827164D01*
X29452402Y-42850613D01*
X29450000Y-42874999D01*
X27450001Y-42874999D01*
X27450000Y-41750877D01*
X27464469Y-41603969D01*
X27521652Y-41415464D01*
X27614507Y-41241742D01*
X27690642Y-41148972D01*
X27739472Y-41089472D01*
X27757423Y-41074740D01*
X27774740Y-41057423D01*
X27789472Y-41039472D01*
X27880816Y-40964508D01*
X27941742Y-40914507D01*
X28115463Y-40821652D01*
X28115465Y-40821651D01*
X28209715Y-40793061D01*
X28303968Y-40764469D01*
X28450876Y-40750000D01*
X42049124Y-40750000D01*
X42196032Y-40764469D01*
G37*
G36*
X99346032Y-40764469D02*
G01*
X99440285Y-40793061D01*
X99534535Y-40821651D01*
X99534537Y-40821652D01*
X99708258Y-40914507D01*
X99769184Y-40964508D01*
X99860528Y-41039472D01*
X99875260Y-41057423D01*
X99892577Y-41074740D01*
X99910528Y-41089472D01*
X99959358Y-41148972D01*
X100035493Y-41241742D01*
X100128348Y-41415463D01*
X100185531Y-41603968D01*
X100200000Y-41750876D01*
X100200000Y-55349124D01*
X100185531Y-55496032D01*
X100128348Y-55684537D01*
X100035493Y-55858258D01*
X99966523Y-55942297D01*
X99910528Y-56010528D01*
X99892577Y-56025260D01*
X99875260Y-56042577D01*
X99860528Y-56060528D01*
X99801028Y-56109358D01*
X99708258Y-56185493D01*
X99534537Y-56278348D01*
X99534535Y-56278349D01*
X99447212Y-56304838D01*
X99346032Y-56335531D01*
X99199124Y-56350000D01*
X85600876Y-56350000D01*
X85453968Y-56335531D01*
X85352788Y-56304838D01*
X85265465Y-56278349D01*
X85265463Y-56278348D01*
X85091742Y-56185493D01*
X84939472Y-56060528D01*
X84939450Y-56060501D01*
X84924740Y-56042577D01*
X84907418Y-56025255D01*
X84889473Y-56010528D01*
X84833145Y-55941891D01*
X84764508Y-55858258D01*
X84671653Y-55684537D01*
X84614470Y-55496032D01*
X84600001Y-55349124D01*
X84600001Y-42874999D01*
X86600000Y-42874999D01*
X86600000Y-54225001D01*
X86602402Y-54249387D01*
X86609515Y-54272836D01*
X86621066Y-54294447D01*
X86636611Y-54313389D01*
X86655553Y-54328934D01*
X86677164Y-54340485D01*
X86700613Y-54347598D01*
X86724999Y-54350000D01*
X98075002Y-54350000D01*
X98099388Y-54347598D01*
X98122837Y-54340485D01*
X98144448Y-54328934D01*
X98163390Y-54313389D01*
X98178935Y-54294447D01*
X98190486Y-54272836D01*
X98197599Y-54249387D01*
X98200001Y-54225001D01*
X98200000Y-42874999D01*
X98197598Y-42850613D01*
X98190485Y-42827164D01*
X98178934Y-42805553D01*
X98163389Y-42786611D01*
X98144447Y-42771066D01*
X98122836Y-42759515D01*
X98099387Y-42752402D01*
X98075001Y-42750000D01*
X86724999Y-42750000D01*
X86700613Y-42752402D01*
X86677164Y-42759515D01*
X86655553Y-42771066D01*
X86636611Y-42786611D01*
X86621066Y-42805553D01*
X86609515Y-42827164D01*
X86602402Y-42850613D01*
X86600000Y-42874999D01*
X84600001Y-42874999D01*
X84600000Y-41750877D01*
X84614469Y-41603969D01*
X84671652Y-41415464D01*
X84764507Y-41241742D01*
X84840642Y-41148972D01*
X84889472Y-41089472D01*
X84907423Y-41074740D01*
X84924740Y-41057423D01*
X84939472Y-41039472D01*
X85030816Y-40964508D01*
X85091742Y-40914507D01*
X85265463Y-40821652D01*
X85265465Y-40821651D01*
X85359715Y-40793061D01*
X85453968Y-40764469D01*
X85600876Y-40750000D01*
X99199124Y-40750000D01*
X99346032Y-40764469D01*
G37*
G36*
X42196032Y-16714469D02*
G01*
X42290285Y-16743061D01*
X42384535Y-16771651D01*
X42384537Y-16771652D01*
X42558258Y-16864507D01*
X42619184Y-16914508D01*
X42710528Y-16989472D01*
X42725260Y-17007423D01*
X42742577Y-17024740D01*
X42760528Y-17039472D01*
X42809358Y-17098972D01*
X42885493Y-17191742D01*
X42978348Y-17365463D01*
X43035531Y-17553968D01*
X43050000Y-17700876D01*
X43050000Y-31299124D01*
X43035531Y-31446032D01*
X42978348Y-31634537D01*
X42885493Y-31808258D01*
X42809358Y-31901028D01*
X42760528Y-31960528D01*
X42742577Y-31975260D01*
X42725260Y-31992577D01*
X42710528Y-32010528D01*
X42651028Y-32059358D01*
X42558258Y-32135493D01*
X42384537Y-32228348D01*
X42384535Y-32228349D01*
X42297212Y-32254838D01*
X42196032Y-32285531D01*
X42049124Y-32300000D01*
X28450876Y-32300000D01*
X28303968Y-32285531D01*
X28202788Y-32254838D01*
X28115465Y-32228349D01*
X28115463Y-32228348D01*
X27941742Y-32135493D01*
X27789472Y-32010528D01*
X27774740Y-31992577D01*
X27757418Y-31975255D01*
X27739473Y-31960528D01*
X27683145Y-31891891D01*
X27614508Y-31808258D01*
X27521653Y-31634537D01*
X27464470Y-31446032D01*
X27450001Y-31299124D01*
X27450001Y-18824999D01*
X29450000Y-18824999D01*
X29450000Y-30175001D01*
X29452402Y-30199387D01*
X29459515Y-30222836D01*
X29471066Y-30244447D01*
X29486611Y-30263389D01*
X29505553Y-30278934D01*
X29527164Y-30290485D01*
X29550613Y-30297598D01*
X29574999Y-30300000D01*
X40925002Y-30300000D01*
X40949388Y-30297598D01*
X40972837Y-30290485D01*
X40994448Y-30278934D01*
X41013390Y-30263389D01*
X41028935Y-30244447D01*
X41040486Y-30222836D01*
X41047599Y-30199387D01*
X41050001Y-30175001D01*
X41050000Y-18824999D01*
X41047598Y-18800613D01*
X41040485Y-18777164D01*
X41028934Y-18755553D01*
X41013389Y-18736611D01*
X40994447Y-18721066D01*
X40972836Y-18709515D01*
X40949387Y-18702402D01*
X40925001Y-18700000D01*
X29574999Y-18700000D01*
X29550613Y-18702402D01*
X29527164Y-18709515D01*
X29505553Y-18721066D01*
X29486611Y-18736611D01*
X29471066Y-18755553D01*
X29459515Y-18777164D01*
X29452402Y-18800613D01*
X29450000Y-18824999D01*
X27450001Y-18824999D01*
X27450000Y-17700877D01*
X27464469Y-17553969D01*
X27521652Y-17365464D01*
X27614507Y-17191742D01*
X27690642Y-17098972D01*
X27739472Y-17039472D01*
X27757423Y-17024740D01*
X27774740Y-17007423D01*
X27789472Y-16989472D01*
X27880816Y-16914508D01*
X27941742Y-16864507D01*
X28115463Y-16771652D01*
X28115465Y-16771651D01*
X28209716Y-16743060D01*
X28303968Y-16714469D01*
X28450876Y-16700000D01*
X42049124Y-16700000D01*
X42196032Y-16714469D01*
G37*
G36*
X99346032Y-16714469D02*
G01*
X99440285Y-16743061D01*
X99534535Y-16771651D01*
X99534537Y-16771652D01*
X99708258Y-16864507D01*
X99769184Y-16914508D01*
X99860528Y-16989472D01*
X99875260Y-17007423D01*
X99892577Y-17024740D01*
X99910528Y-17039472D01*
X99959358Y-17098972D01*
X100035493Y-17191742D01*
X100128348Y-17365463D01*
X100185531Y-17553968D01*
X100200000Y-17700876D01*
X100200000Y-31299124D01*
X100185531Y-31446032D01*
X100128348Y-31634537D01*
X100035493Y-31808258D01*
X99959358Y-31901028D01*
X99910528Y-31960528D01*
X99892577Y-31975260D01*
X99875260Y-31992577D01*
X99860528Y-32010528D01*
X99801028Y-32059358D01*
X99708258Y-32135493D01*
X99534537Y-32228348D01*
X99534535Y-32228349D01*
X99447212Y-32254838D01*
X99346032Y-32285531D01*
X99199124Y-32300000D01*
X85600876Y-32300000D01*
X85453968Y-32285531D01*
X85352788Y-32254838D01*
X85265465Y-32228349D01*
X85265463Y-32228348D01*
X85091742Y-32135493D01*
X84939472Y-32010528D01*
X84924740Y-31992577D01*
X84907418Y-31975255D01*
X84889473Y-31960528D01*
X84833145Y-31891891D01*
X84764508Y-31808258D01*
X84671653Y-31634537D01*
X84614470Y-31446032D01*
X84600001Y-31299124D01*
X84600001Y-18824999D01*
X86600000Y-18824999D01*
X86600000Y-30175001D01*
X86602402Y-30199387D01*
X86609515Y-30222836D01*
X86621066Y-30244447D01*
X86636611Y-30263389D01*
X86655553Y-30278934D01*
X86677164Y-30290485D01*
X86700613Y-30297598D01*
X86724999Y-30300000D01*
X98075002Y-30300000D01*
X98099388Y-30297598D01*
X98122837Y-30290485D01*
X98144448Y-30278934D01*
X98163390Y-30263389D01*
X98178935Y-30244447D01*
X98190486Y-30222836D01*
X98197599Y-30199387D01*
X98200001Y-30175001D01*
X98200000Y-18824999D01*
X98197598Y-18800613D01*
X98190485Y-18777164D01*
X98178934Y-18755553D01*
X98163389Y-18736611D01*
X98144447Y-18721066D01*
X98122836Y-18709515D01*
X98099387Y-18702402D01*
X98075001Y-18700000D01*
X86724999Y-18700000D01*
X86700613Y-18702402D01*
X86677164Y-18709515D01*
X86655553Y-18721066D01*
X86636611Y-18736611D01*
X86621066Y-18755553D01*
X86609515Y-18777164D01*
X86602402Y-18800613D01*
X86600000Y-18824999D01*
X84600001Y-18824999D01*
X84600000Y-17700877D01*
X84614469Y-17553969D01*
X84671652Y-17365464D01*
X84764507Y-17191742D01*
X84840642Y-17098972D01*
X84889472Y-17039472D01*
X84907423Y-17024740D01*
X84924740Y-17007423D01*
X84939472Y-16989472D01*
X85030816Y-16914508D01*
X85091742Y-16864507D01*
X85265463Y-16771652D01*
X85265465Y-16771651D01*
X85359716Y-16743060D01*
X85453968Y-16714469D01*
X85600876Y-16700000D01*
X99199124Y-16700000D01*
X99346032Y-16714469D01*
G37*
G36*
X80296032Y-16714469D02*
G01*
X80390285Y-16743061D01*
X80484535Y-16771651D01*
X80484537Y-16771652D01*
X80658258Y-16864507D01*
X80719184Y-16914508D01*
X80810528Y-16989472D01*
X80825260Y-17007423D01*
X80842577Y-17024740D01*
X80860528Y-17039472D01*
X80909358Y-17098972D01*
X80985493Y-17191742D01*
X81078348Y-17365463D01*
X81135531Y-17553968D01*
X81150000Y-17700876D01*
X81150000Y-31299124D01*
X81135531Y-31446032D01*
X81078348Y-31634537D01*
X80985493Y-31808258D01*
X80909358Y-31901028D01*
X80860528Y-31960528D01*
X80842577Y-31975260D01*
X80825260Y-31992577D01*
X80810528Y-32010528D01*
X80751028Y-32059358D01*
X80658258Y-32135493D01*
X80484537Y-32228348D01*
X80484535Y-32228349D01*
X80397212Y-32254838D01*
X80296032Y-32285531D01*
X80149124Y-32300000D01*
X66550876Y-32300000D01*
X66403968Y-32285531D01*
X66302788Y-32254838D01*
X66215465Y-32228349D01*
X66215463Y-32228348D01*
X66041742Y-32135493D01*
X65889472Y-32010528D01*
X65874740Y-31992577D01*
X65857418Y-31975255D01*
X65839473Y-31960528D01*
X65783145Y-31891891D01*
X65714508Y-31808258D01*
X65621653Y-31634537D01*
X65564470Y-31446032D01*
X65550001Y-31299124D01*
X65550001Y-18824999D01*
X67550000Y-18824999D01*
X67550000Y-30175001D01*
X67552402Y-30199387D01*
X67559515Y-30222836D01*
X67571066Y-30244447D01*
X67586611Y-30263389D01*
X67605553Y-30278934D01*
X67627164Y-30290485D01*
X67650613Y-30297598D01*
X67674999Y-30300000D01*
X79025002Y-30300000D01*
X79049388Y-30297598D01*
X79072837Y-30290485D01*
X79094448Y-30278934D01*
X79113390Y-30263389D01*
X79128935Y-30244447D01*
X79140486Y-30222836D01*
X79147599Y-30199387D01*
X79150001Y-30175001D01*
X79150000Y-18824999D01*
X79147598Y-18800613D01*
X79140485Y-18777164D01*
X79128934Y-18755553D01*
X79113389Y-18736611D01*
X79094447Y-18721066D01*
X79072836Y-18709515D01*
X79049387Y-18702402D01*
X79025001Y-18700000D01*
X67674999Y-18700000D01*
X67650613Y-18702402D01*
X67627164Y-18709515D01*
X67605553Y-18721066D01*
X67586611Y-18736611D01*
X67571066Y-18755553D01*
X67559515Y-18777164D01*
X67552402Y-18800613D01*
X67550000Y-18824999D01*
X65550001Y-18824999D01*
X65550000Y-17700877D01*
X65564469Y-17553969D01*
X65621652Y-17365464D01*
X65714507Y-17191742D01*
X65790642Y-17098972D01*
X65839472Y-17039472D01*
X65857423Y-17024740D01*
X65874740Y-17007423D01*
X65889472Y-16989472D01*
X65980816Y-16914508D01*
X66041742Y-16864507D01*
X66215463Y-16771652D01*
X66215465Y-16771651D01*
X66309716Y-16743060D01*
X66403968Y-16714469D01*
X66550876Y-16700000D01*
X80149124Y-16700000D01*
X80296032Y-16714469D01*
G37*
G36*
X61246032Y-16714469D02*
G01*
X61340285Y-16743061D01*
X61434535Y-16771651D01*
X61434537Y-16771652D01*
X61608258Y-16864507D01*
X61669184Y-16914508D01*
X61760528Y-16989472D01*
X61775260Y-17007423D01*
X61792577Y-17024740D01*
X61810528Y-17039472D01*
X61859358Y-17098972D01*
X61935493Y-17191742D01*
X62028348Y-17365463D01*
X62085531Y-17553968D01*
X62100000Y-17700876D01*
X62100000Y-31299124D01*
X62085531Y-31446032D01*
X62028348Y-31634537D01*
X61935493Y-31808258D01*
X61859358Y-31901028D01*
X61810528Y-31960528D01*
X61792577Y-31975260D01*
X61775260Y-31992577D01*
X61760528Y-32010528D01*
X61701028Y-32059358D01*
X61608258Y-32135493D01*
X61434537Y-32228348D01*
X61434535Y-32228349D01*
X61347212Y-32254838D01*
X61246032Y-32285531D01*
X61099124Y-32300000D01*
X47500876Y-32300000D01*
X47353968Y-32285531D01*
X47252788Y-32254838D01*
X47165465Y-32228349D01*
X47165463Y-32228348D01*
X46991742Y-32135493D01*
X46839472Y-32010528D01*
X46824740Y-31992577D01*
X46807418Y-31975255D01*
X46789473Y-31960528D01*
X46733145Y-31891891D01*
X46664508Y-31808258D01*
X46571653Y-31634537D01*
X46514470Y-31446032D01*
X46500001Y-31299124D01*
X46500001Y-18824999D01*
X48500000Y-18824999D01*
X48500000Y-30175001D01*
X48502402Y-30199387D01*
X48509515Y-30222836D01*
X48521066Y-30244447D01*
X48536611Y-30263389D01*
X48555553Y-30278934D01*
X48577164Y-30290485D01*
X48600613Y-30297598D01*
X48624999Y-30300000D01*
X59975002Y-30300000D01*
X59999388Y-30297598D01*
X60022837Y-30290485D01*
X60044448Y-30278934D01*
X60063390Y-30263389D01*
X60078935Y-30244447D01*
X60090486Y-30222836D01*
X60097599Y-30199387D01*
X60100001Y-30175001D01*
X60100000Y-18824999D01*
X60097598Y-18800613D01*
X60090485Y-18777164D01*
X60078934Y-18755553D01*
X60063389Y-18736611D01*
X60044447Y-18721066D01*
X60022836Y-18709515D01*
X59999387Y-18702402D01*
X59975001Y-18700000D01*
X48624999Y-18700000D01*
X48600613Y-18702402D01*
X48577164Y-18709515D01*
X48555553Y-18721066D01*
X48536611Y-18736611D01*
X48521066Y-18755553D01*
X48509515Y-18777164D01*
X48502402Y-18800613D01*
X48500000Y-18824999D01*
X46500001Y-18824999D01*
X46500000Y-17700877D01*
X46514469Y-17553969D01*
X46571652Y-17365464D01*
X46664507Y-17191742D01*
X46740642Y-17098972D01*
X46789472Y-17039472D01*
X46807423Y-17024740D01*
X46824740Y-17007423D01*
X46839472Y-16989472D01*
X46930816Y-16914508D01*
X46991742Y-16864507D01*
X47165463Y-16771652D01*
X47165465Y-16771651D01*
X47259716Y-16743060D01*
X47353968Y-16714469D01*
X47500876Y-16700000D01*
X61099124Y-16700000D01*
X61246032Y-16714469D01*
G37*
G36*
X83195857Y-11536022D02*
G01*
X83396043Y-11618942D01*
X83396045Y-11618943D01*
X83486738Y-11679542D01*
X83576208Y-11739324D01*
X83729426Y-11892542D01*
X83849808Y-12072707D01*
X83932728Y-12272893D01*
X83975000Y-12485408D01*
X83975000Y-12702092D01*
X83932728Y-12914607D01*
X83849808Y-13114793D01*
X83849807Y-13114795D01*
X83729425Y-13294959D01*
X83576209Y-13448175D01*
X83396045Y-13568557D01*
X83396044Y-13568558D01*
X83396043Y-13568558D01*
X83195857Y-13651478D01*
X82983342Y-13693750D01*
X82766658Y-13693750D01*
X82554143Y-13651478D01*
X82353957Y-13568558D01*
X82353956Y-13568558D01*
X82353955Y-13568557D01*
X82173791Y-13448175D01*
X82020575Y-13294959D01*
X81900193Y-13114795D01*
X81900192Y-13114793D01*
X81817272Y-12914607D01*
X81775000Y-12702092D01*
X81775000Y-12485408D01*
X81817272Y-12272893D01*
X81900192Y-12072707D01*
X82020574Y-11892542D01*
X82173792Y-11739324D01*
X82263262Y-11679542D01*
X82353955Y-11618943D01*
X82353957Y-11618942D01*
X82554143Y-11536022D01*
X82766658Y-11493750D01*
X82983342Y-11493750D01*
X83195857Y-11536022D01*
G37*
G36*
X45095857Y-11536022D02*
G01*
X45296043Y-11618942D01*
X45296045Y-11618943D01*
X45386738Y-11679542D01*
X45476208Y-11739324D01*
X45629426Y-11892542D01*
X45749808Y-12072707D01*
X45832728Y-12272893D01*
X45875000Y-12485408D01*
X45875000Y-12702092D01*
X45832728Y-12914607D01*
X45749808Y-13114793D01*
X45749807Y-13114795D01*
X45629425Y-13294959D01*
X45476209Y-13448175D01*
X45296045Y-13568557D01*
X45296044Y-13568558D01*
X45296043Y-13568558D01*
X45095857Y-13651478D01*
X44883342Y-13693750D01*
X44666658Y-13693750D01*
X44454143Y-13651478D01*
X44253957Y-13568558D01*
X44253956Y-13568558D01*
X44253955Y-13568557D01*
X44073791Y-13448175D01*
X43920575Y-13294959D01*
X43800193Y-13114795D01*
X43800192Y-13114793D01*
X43717272Y-12914607D01*
X43675000Y-12702092D01*
X43675000Y-12485408D01*
X43717272Y-12272893D01*
X43800192Y-12072707D01*
X43920574Y-11892542D01*
X44073792Y-11739324D01*
X44163262Y-11679542D01*
X44253955Y-11618943D01*
X44253957Y-11618942D01*
X44454143Y-11536022D01*
X44666658Y-11493750D01*
X44883342Y-11493750D01*
X45095857Y-11536022D01*
G37*
M02*
