M48
; DRILL file {KiCad (5.1.5)-3} date 2021/03/06 2:00:23
; FORMAT={-:-/ absolute / metric / decimal}
; #@! TF.CreationDate,2021-03-06T02:00:23+09:00
; #@! TF.GenerationSoftware,Kicad,Pcbnew,(5.1.5)-3
; #@! TF.FileFunction,Plated,1,2,PTH
FMAT,2
METRIC
T1C0.500
%
G90
G05
T1
G00X66.55Y-118.0
M15
G01X66.55Y-131.5
M16
G05
G00X66.6Y-117.95
M15
G01X80.1Y-117.95
M16
G05
G00X66.6Y-131.55
M15
G01X80.1Y-131.55
M16
G05
G00X80.15Y-118.0
M15
G01X80.15Y-131.5
M16
G05
G00X85.6Y-17.75
M15
G01X85.6Y-31.25
M16
G05
G00X85.65Y-17.7
M15
G01X99.15Y-17.7
M16
G05
G00X85.65Y-31.3
M15
G01X99.15Y-31.3
M16
G05
G00X99.2Y-17.75
M15
G01X99.2Y-31.25
M16
G05
G00X28.45Y-79.9
M15
G01X28.45Y-93.4
M16
G05
G00X28.5Y-79.85
M15
G01X42.0Y-79.85
M16
G05
G00X28.5Y-93.45
M15
G01X42.0Y-93.45
M16
G05
G00X42.05Y-79.9
M15
G01X42.05Y-93.4
M16
G05
G00X28.975Y-118.0
M15
G01X28.975Y-131.5
M16
G05
G00X31.375Y-117.95
M15
G01X28.975Y-117.95
M16
G05
G00X31.375Y-117.1
M15
G01X31.375Y-117.9
M16
G05
G00X34.275Y-117.05
M15
G01X31.375Y-117.05
M16
G05
G00X34.275Y-117.1
M15
G01X34.275Y-117.9
M16
G05
G00X55.225Y-117.95
M15
G01X34.325Y-117.95
M16
G05
G00X60.575Y-131.55
M15
G01X28.975Y-131.55
M16
G05
G00X55.275Y-117.1
M15
G01X55.275Y-117.9
M16
G05
G00X58.175Y-117.05
M15
G01X55.275Y-117.05
M16
G05
G00X58.175Y-117.1
M15
G01X58.175Y-117.9
M16
G05
G00X60.575Y-117.95
M15
G01X58.175Y-117.95
M16
G05
G00X60.575Y-118.0
M15
G01X60.575Y-131.5
M16
G05
G00X105.501Y-88.197
M15
G01X110.119Y-75.511
M16
G05
G00X118.217Y-92.879
M15
G01X105.531Y-88.261
M16
G05
G00X122.869Y-80.099
M15
G01X110.183Y-75.481
M16
G05
G00X118.281Y-92.849
M15
G01X122.899Y-80.163
M16
G05
G00X105.501Y-128.767
M15
G01X110.119Y-116.081
M16
G05
G00X118.217Y-133.449
M15
G01X105.531Y-128.831
M16
G05
G00X122.869Y-120.669
M15
G01X110.183Y-116.051
M16
G05
G00X118.281Y-133.419
M15
G01X122.899Y-120.733
M16
G05
G00X28.45Y-17.75
M15
G01X28.45Y-31.25
M16
G05
G00X28.5Y-17.7
M15
G01X42.0Y-17.7
M16
G05
G00X28.5Y-31.3
M15
G01X42.0Y-31.3
M16
G05
G00X42.05Y-17.75
M15
G01X42.05Y-31.25
M16
G05
G00X47.5Y-98.95
M15
G01X47.5Y-112.45
M16
G05
G00X47.55Y-98.9
M15
G01X61.05Y-98.9
M16
G05
G00X47.55Y-112.5
M15
G01X61.05Y-112.5
M16
G05
G00X61.1Y-98.95
M15
G01X61.1Y-112.45
M16
G05
G00X105.501Y-108.487
M15
G01X110.119Y-95.801
M16
G05
G00X118.217Y-113.169
M15
G01X105.531Y-108.551
M16
G05
G00X122.869Y-100.389
M15
G01X110.183Y-95.771
M16
G05
G00X118.281Y-113.139
M15
G01X122.899Y-100.453
M16
G05
G00X66.55Y-79.9
M15
G01X66.55Y-93.4
M16
G05
G00X66.6Y-79.85
M15
G01X80.1Y-79.85
M16
G05
G00X66.6Y-93.45
M15
G01X80.1Y-93.45
M16
G05
G00X80.15Y-79.9
M15
G01X80.15Y-93.4
M16
G05
G00X66.55Y-17.75
M15
G01X66.55Y-31.25
M16
G05
G00X66.6Y-17.7
M15
G01X80.1Y-17.7
M16
G05
G00X66.6Y-31.3
M15
G01X80.1Y-31.3
M16
G05
G00X80.15Y-17.75
M15
G01X80.15Y-31.25
M16
G05
G00X66.55Y-98.95
M15
G01X66.55Y-112.45
M16
G05
G00X66.6Y-98.9
M15
G01X80.1Y-98.9
M16
G05
G00X66.6Y-112.5
M15
G01X80.1Y-112.5
M16
G05
G00X80.15Y-98.95
M15
G01X80.15Y-112.45
M16
G05
G00X47.5Y-79.9
M15
G01X47.5Y-93.4
M16
G05
G00X47.55Y-79.85
M15
G01X61.05Y-79.85
M16
G05
G00X47.55Y-93.45
M15
G01X61.05Y-93.45
M16
G05
G00X61.1Y-79.9
M15
G01X61.1Y-93.4
M16
G05
G00X28.45Y-41.8
M15
G01X28.45Y-55.3
M16
G05
G00X28.5Y-41.75
M15
G01X42.0Y-41.75
M16
G05
G00X28.5Y-55.35
M15
G01X42.0Y-55.35
M16
G05
G00X42.05Y-41.8
M15
G01X42.05Y-55.3
M16
G05
G00X28.45Y-98.95
M15
G01X28.45Y-112.45
M16
G05
G00X28.5Y-98.9
M15
G01X42.0Y-98.9
M16
G05
G00X28.5Y-112.5
M15
G01X42.0Y-112.5
M16
G05
G00X42.05Y-98.95
M15
G01X42.05Y-112.45
M16
G05
G00X66.55Y-60.85
M15
G01X66.55Y-74.35
M16
G05
G00X66.6Y-60.8
M15
G01X80.1Y-60.8
M16
G05
G00X66.6Y-74.4
M15
G01X80.1Y-74.4
M16
G05
G00X80.15Y-60.85
M15
G01X80.15Y-74.35
M16
G05
G00X85.6Y-41.8
M15
G01X85.6Y-55.3
M16
G05
G00X85.65Y-41.75
M15
G01X99.15Y-41.75
M16
G05
G00X85.65Y-55.35
M15
G01X99.15Y-55.35
M16
G05
G00X99.2Y-41.8
M15
G01X99.2Y-55.3
M16
G05
G00X105.501Y-67.917
M15
G01X110.119Y-55.231
M16
G05
G00X118.217Y-72.599
M15
G01X105.531Y-67.981
M16
G05
G00X122.869Y-59.819
M15
G01X110.183Y-55.201
M16
G05
G00X118.281Y-72.569
M15
G01X122.899Y-59.883
M16
G05
G00X47.5Y-60.85
M15
G01X47.5Y-74.35
M16
G05
G00X47.55Y-60.8
M15
G01X61.05Y-60.8
M16
G05
G00X47.55Y-74.4
M15
G01X61.05Y-74.4
M16
G05
G00X61.1Y-60.85
M15
G01X61.1Y-74.35
M16
G05
G00X47.5Y-41.8
M15
G01X47.5Y-55.3
M16
G05
G00X47.55Y-41.75
M15
G01X61.05Y-41.75
M16
G05
G00X47.55Y-55.35
M15
G01X61.05Y-55.35
M16
G05
G00X61.1Y-41.8
M15
G01X61.1Y-55.3
M16
G05
G00X47.5Y-17.75
M15
G01X47.5Y-31.25
M16
G05
G00X47.55Y-17.7
M15
G01X61.05Y-17.7
M16
G05
G00X47.55Y-31.3
M15
G01X61.05Y-31.3
M16
G05
G00X61.1Y-17.75
M15
G01X61.1Y-31.25
M16
G05
G00X84.7Y-101.825
M15
G01X84.7Y-104.725
M16
G05
G00X84.7Y-125.725
M15
G01X84.7Y-128.625
M16
G05
G00X84.75Y-101.825
M15
G01X85.55Y-101.825
M16
G05
G00X84.75Y-104.725
M15
G01X85.55Y-104.725
M16
G05
G00X84.75Y-125.725
M15
G01X85.55Y-125.725
M16
G05
G00X84.75Y-128.625
M15
G01X85.55Y-128.625
M16
G05
G00X85.6Y-99.425
M15
G01X85.6Y-101.825
M16
G05
G00X85.6Y-104.775
M15
G01X85.6Y-125.675
M16
G05
G00X85.6Y-128.625
M15
G01X85.6Y-131.025
M16
G05
G00X85.65Y-99.425
M15
G01X99.15Y-99.425
M16
G05
G00X85.65Y-131.025
M15
G01X99.15Y-131.025
M16
G05
G00X99.2Y-99.425
M15
G01X99.2Y-131.025
M16
G05
G00X84.7Y-63.725
M15
G01X84.7Y-66.625
M16
G05
G00X84.7Y-87.625
M15
G01X84.7Y-90.525
M16
G05
G00X84.75Y-63.725
M15
G01X85.55Y-63.725
M16
G05
G00X84.75Y-66.625
M15
G01X85.55Y-66.625
M16
G05
G00X84.75Y-87.625
M15
G01X85.55Y-87.625
M16
G05
G00X84.75Y-90.525
M15
G01X85.55Y-90.525
M16
G05
G00X85.6Y-61.325
M15
G01X85.6Y-63.725
M16
G05
G00X85.6Y-66.675
M15
G01X85.6Y-87.575
M16
G05
G00X85.6Y-90.525
M15
G01X85.6Y-92.925
M16
G05
G00X85.65Y-61.325
M15
G01X99.15Y-61.325
M16
G05
G00X85.65Y-92.925
M15
G01X99.15Y-92.925
M16
G05
G00X99.2Y-61.325
M15
G01X99.2Y-92.925
M16
G05
G00X66.55Y-41.8
M15
G01X66.55Y-55.3
M16
G05
G00X66.6Y-41.75
M15
G01X80.1Y-41.75
M16
G05
G00X66.6Y-55.35
M15
G01X80.1Y-55.35
M16
G05
G00X80.15Y-41.8
M15
G01X80.15Y-55.3
M16
G05
G00X28.45Y-60.85
M15
G01X28.45Y-74.35
M16
G05
G00X28.5Y-60.8
M15
G01X42.0Y-60.8
M16
G05
G00X28.5Y-74.4
M15
G01X42.0Y-74.4
M16
G05
G00X42.05Y-60.85
M15
G01X42.05Y-74.35
M16
G05
T0
M30
