M48
; DRILL file {KiCad (5.1.5)-3} date 2021/03/06 1:46:47
; FORMAT={-:-/ absolute / metric / decimal}
; #@! TF.CreationDate,2021-03-06T01:46:47+09:00
; #@! TF.GenerationSoftware,Kicad,Pcbnew,(5.1.5)-3
; #@! TF.FileFunction,NonPlated,1,2,NPTH
FMAT,2
METRIC
T1C1.000
T2C1.200
T3C1.700
T4C3.000
T5C4.000
T6C4.800
%
G90
G05
T1
X143.8Y-122.28
X169.3Y-104.28
X152.3Y-104.28
X169.3Y-140.28
X160.8Y-122.28
X152.3Y-140.28
X177.8Y-122.28
T2
X104.55Y-144.5
X104.55Y-151.5
T3
X148.0Y-122.0
X148.0Y-133.0
X173.5Y-104.0
X173.5Y-115.0
X156.5Y-104.0
X156.5Y-115.0
X173.5Y-140.0
X173.5Y-151.0
X165.0Y-122.0
X165.0Y-133.0
X156.5Y-140.0
X156.5Y-151.0
X182.0Y-122.0
X182.0Y-133.0
T4
X151.7Y-132.5
X153.9Y-127.5
X177.2Y-114.5
X179.4Y-109.5
X160.2Y-114.5
X162.4Y-109.5
X177.2Y-150.5
X179.4Y-145.5
X168.7Y-132.5
X170.9Y-127.5
X160.2Y-150.5
X162.4Y-145.5
X185.7Y-132.5
X187.9Y-127.5
T5
X148.0Y-127.5
X173.5Y-109.5
X156.5Y-109.5
X173.5Y-145.5
X165.0Y-127.5
X156.5Y-145.5
X182.0Y-127.5
T6
X104.0Y-127.5
T0
M30
