G04 #@! TF.GenerationSoftware,KiCad,Pcbnew,(5.1.5)-3*
G04 #@! TF.CreationDate,2021-03-06T01:40:43+09:00*
G04 #@! TF.ProjectId,Setta21_Top,53657474-6132-4315-9f54-6f702e6b6963,rev?*
G04 #@! TF.SameCoordinates,Original*
G04 #@! TF.FileFunction,Copper,L2,Bot*
G04 #@! TF.FilePolarity,Positive*
%FSLAX46Y46*%
G04 Gerber Fmt 4.6, Leading zero omitted, Abs format (unit mm)*
G04 Created by KiCad (PCBNEW (5.1.5)-3) date 2021-03-06 01:40:43*
%MOMM*%
%LPD*%
G04 APERTURE LIST*
%ADD10C,0.254000*%
G04 APERTURE END LIST*
D10*
G36*
X191815000Y-58783736D02*
G01*
X191815001Y-129216263D01*
X191716264Y-129315000D01*
X173783736Y-129315000D01*
X173685000Y-129216264D01*
X173685000Y-112567462D01*
X173698419Y-112500000D01*
X173645255Y-112232727D01*
X173493857Y-112006143D01*
X173484663Y-112000000D01*
X173493857Y-111993857D01*
X173645255Y-111767273D01*
X173685000Y-111567462D01*
X173698419Y-111500000D01*
X173685000Y-111432538D01*
X173685000Y-92461593D01*
X174254677Y-92461593D01*
X174265000Y-92778284D01*
X174265000Y-93095113D01*
X174276210Y-93122176D01*
X174277164Y-93151453D01*
X174497901Y-93684359D01*
X174511293Y-93689716D01*
X174529138Y-93732799D01*
X175017201Y-94220862D01*
X175060284Y-94238707D01*
X175065641Y-94252099D01*
X175362171Y-94363753D01*
X175654887Y-94485000D01*
X175684177Y-94485000D01*
X175711593Y-94495323D01*
X176028284Y-94485000D01*
X176345113Y-94485000D01*
X176372176Y-94473790D01*
X176401453Y-94472836D01*
X176934359Y-94252099D01*
X176939716Y-94238707D01*
X176982799Y-94220862D01*
X177470862Y-93732799D01*
X177488707Y-93689716D01*
X177502099Y-93684359D01*
X177613753Y-93387829D01*
X177665000Y-93264107D01*
X177665000Y-101732538D01*
X177651581Y-101800000D01*
X177704745Y-102067273D01*
X177856143Y-102293857D01*
X178082727Y-102445255D01*
X178350000Y-102498419D01*
X178417461Y-102485000D01*
X189932539Y-102485000D01*
X190000000Y-102498419D01*
X190267273Y-102445255D01*
X190493857Y-102293857D01*
X190645255Y-102067273D01*
X190685000Y-101867462D01*
X190685000Y-101867461D01*
X190698419Y-101800000D01*
X190685000Y-101732538D01*
X190685000Y-70867462D01*
X190698419Y-70800000D01*
X190645255Y-70532727D01*
X190493857Y-70306143D01*
X190267273Y-70154745D01*
X190067462Y-70115000D01*
X190067461Y-70115000D01*
X190000000Y-70101581D01*
X189932538Y-70115000D01*
X178417462Y-70115000D01*
X178350000Y-70101581D01*
X178282539Y-70115000D01*
X178282538Y-70115000D01*
X178082727Y-70154745D01*
X177856143Y-70306143D01*
X177704745Y-70532727D01*
X177651581Y-70800000D01*
X177665001Y-70867467D01*
X177665000Y-92208919D01*
X177502099Y-91815641D01*
X177488707Y-91810284D01*
X177470862Y-91767201D01*
X176982799Y-91279138D01*
X176939716Y-91261293D01*
X176934359Y-91247901D01*
X176637829Y-91136247D01*
X176345113Y-91015000D01*
X176315823Y-91015000D01*
X176288407Y-91004677D01*
X175971716Y-91015000D01*
X175654887Y-91015000D01*
X175627824Y-91026210D01*
X175598547Y-91027164D01*
X175065641Y-91247901D01*
X175060284Y-91261293D01*
X175017201Y-91279138D01*
X174529138Y-91767201D01*
X174511293Y-91810284D01*
X174497901Y-91815641D01*
X174386247Y-92112171D01*
X174265000Y-92404887D01*
X174265000Y-92434177D01*
X174254677Y-92461593D01*
X173685000Y-92461593D01*
X173685000Y-76567462D01*
X173698419Y-76500000D01*
X173645255Y-76232727D01*
X173493857Y-76006143D01*
X173484663Y-76000000D01*
X173493857Y-75993857D01*
X173645255Y-75767273D01*
X173698419Y-75500000D01*
X173685000Y-75432538D01*
X173685000Y-60711593D01*
X174254677Y-60711593D01*
X174265000Y-61028284D01*
X174265000Y-61345113D01*
X174276210Y-61372176D01*
X174277164Y-61401453D01*
X174497901Y-61934359D01*
X174511293Y-61939716D01*
X174529138Y-61982799D01*
X175017201Y-62470862D01*
X175060284Y-62488707D01*
X175065641Y-62502099D01*
X175362171Y-62613753D01*
X175654887Y-62735000D01*
X175684177Y-62735000D01*
X175711593Y-62745323D01*
X176028284Y-62735000D01*
X176345113Y-62735000D01*
X176372176Y-62723790D01*
X176401453Y-62722836D01*
X176934359Y-62502099D01*
X176939716Y-62488707D01*
X176982799Y-62470862D01*
X177470862Y-61982799D01*
X177488707Y-61939716D01*
X177502099Y-61934359D01*
X177613753Y-61637829D01*
X177735000Y-61345113D01*
X177735000Y-61315823D01*
X177745323Y-61288407D01*
X177735000Y-60971716D01*
X177735000Y-60711593D01*
X187754677Y-60711593D01*
X187765000Y-61028284D01*
X187765000Y-61345113D01*
X187776210Y-61372176D01*
X187777164Y-61401453D01*
X187997901Y-61934359D01*
X188011293Y-61939716D01*
X188029138Y-61982799D01*
X188517201Y-62470862D01*
X188560284Y-62488707D01*
X188565641Y-62502099D01*
X188862171Y-62613753D01*
X189154887Y-62735000D01*
X189184177Y-62735000D01*
X189211593Y-62745323D01*
X189528284Y-62735000D01*
X189845113Y-62735000D01*
X189872176Y-62723790D01*
X189901453Y-62722836D01*
X190434359Y-62502099D01*
X190439716Y-62488707D01*
X190482799Y-62470862D01*
X190970862Y-61982799D01*
X190988707Y-61939716D01*
X191002099Y-61934359D01*
X191113753Y-61637829D01*
X191235000Y-61345113D01*
X191235000Y-61315823D01*
X191245323Y-61288407D01*
X191235000Y-60971716D01*
X191235000Y-60654887D01*
X191223790Y-60627824D01*
X191222836Y-60598547D01*
X191002099Y-60065641D01*
X190988707Y-60060284D01*
X190970862Y-60017201D01*
X190482799Y-59529138D01*
X190439716Y-59511293D01*
X190434359Y-59497901D01*
X190137829Y-59386247D01*
X189845113Y-59265000D01*
X189815823Y-59265000D01*
X189788407Y-59254677D01*
X189471716Y-59265000D01*
X189154887Y-59265000D01*
X189127824Y-59276210D01*
X189098547Y-59277164D01*
X188565641Y-59497901D01*
X188560284Y-59511293D01*
X188517201Y-59529138D01*
X188029138Y-60017201D01*
X188011293Y-60060284D01*
X187997901Y-60065641D01*
X187886247Y-60362171D01*
X187765000Y-60654887D01*
X187765000Y-60684177D01*
X187754677Y-60711593D01*
X177735000Y-60711593D01*
X177735000Y-60654887D01*
X177723790Y-60627824D01*
X177722836Y-60598547D01*
X177502099Y-60065641D01*
X177488707Y-60060284D01*
X177470862Y-60017201D01*
X176982799Y-59529138D01*
X176939716Y-59511293D01*
X176934359Y-59497901D01*
X176637829Y-59386247D01*
X176345113Y-59265000D01*
X176315823Y-59265000D01*
X176288407Y-59254677D01*
X175971716Y-59265000D01*
X175654887Y-59265000D01*
X175627824Y-59276210D01*
X175598547Y-59277164D01*
X175065641Y-59497901D01*
X175060284Y-59511293D01*
X175017201Y-59529138D01*
X174529138Y-60017201D01*
X174511293Y-60060284D01*
X174497901Y-60065641D01*
X174386247Y-60362171D01*
X174265000Y-60654887D01*
X174265000Y-60684177D01*
X174254677Y-60711593D01*
X173685000Y-60711593D01*
X173685000Y-58783736D01*
X173783736Y-58685000D01*
X191716264Y-58685000D01*
X191815000Y-58783736D01*
G37*
X191815000Y-58783736D02*
X191815001Y-129216263D01*
X191716264Y-129315000D01*
X173783736Y-129315000D01*
X173685000Y-129216264D01*
X173685000Y-112567462D01*
X173698419Y-112500000D01*
X173645255Y-112232727D01*
X173493857Y-112006143D01*
X173484663Y-112000000D01*
X173493857Y-111993857D01*
X173645255Y-111767273D01*
X173685000Y-111567462D01*
X173698419Y-111500000D01*
X173685000Y-111432538D01*
X173685000Y-92461593D01*
X174254677Y-92461593D01*
X174265000Y-92778284D01*
X174265000Y-93095113D01*
X174276210Y-93122176D01*
X174277164Y-93151453D01*
X174497901Y-93684359D01*
X174511293Y-93689716D01*
X174529138Y-93732799D01*
X175017201Y-94220862D01*
X175060284Y-94238707D01*
X175065641Y-94252099D01*
X175362171Y-94363753D01*
X175654887Y-94485000D01*
X175684177Y-94485000D01*
X175711593Y-94495323D01*
X176028284Y-94485000D01*
X176345113Y-94485000D01*
X176372176Y-94473790D01*
X176401453Y-94472836D01*
X176934359Y-94252099D01*
X176939716Y-94238707D01*
X176982799Y-94220862D01*
X177470862Y-93732799D01*
X177488707Y-93689716D01*
X177502099Y-93684359D01*
X177613753Y-93387829D01*
X177665000Y-93264107D01*
X177665000Y-101732538D01*
X177651581Y-101800000D01*
X177704745Y-102067273D01*
X177856143Y-102293857D01*
X178082727Y-102445255D01*
X178350000Y-102498419D01*
X178417461Y-102485000D01*
X189932539Y-102485000D01*
X190000000Y-102498419D01*
X190267273Y-102445255D01*
X190493857Y-102293857D01*
X190645255Y-102067273D01*
X190685000Y-101867462D01*
X190685000Y-101867461D01*
X190698419Y-101800000D01*
X190685000Y-101732538D01*
X190685000Y-70867462D01*
X190698419Y-70800000D01*
X190645255Y-70532727D01*
X190493857Y-70306143D01*
X190267273Y-70154745D01*
X190067462Y-70115000D01*
X190067461Y-70115000D01*
X190000000Y-70101581D01*
X189932538Y-70115000D01*
X178417462Y-70115000D01*
X178350000Y-70101581D01*
X178282539Y-70115000D01*
X178282538Y-70115000D01*
X178082727Y-70154745D01*
X177856143Y-70306143D01*
X177704745Y-70532727D01*
X177651581Y-70800000D01*
X177665001Y-70867467D01*
X177665000Y-92208919D01*
X177502099Y-91815641D01*
X177488707Y-91810284D01*
X177470862Y-91767201D01*
X176982799Y-91279138D01*
X176939716Y-91261293D01*
X176934359Y-91247901D01*
X176637829Y-91136247D01*
X176345113Y-91015000D01*
X176315823Y-91015000D01*
X176288407Y-91004677D01*
X175971716Y-91015000D01*
X175654887Y-91015000D01*
X175627824Y-91026210D01*
X175598547Y-91027164D01*
X175065641Y-91247901D01*
X175060284Y-91261293D01*
X175017201Y-91279138D01*
X174529138Y-91767201D01*
X174511293Y-91810284D01*
X174497901Y-91815641D01*
X174386247Y-92112171D01*
X174265000Y-92404887D01*
X174265000Y-92434177D01*
X174254677Y-92461593D01*
X173685000Y-92461593D01*
X173685000Y-76567462D01*
X173698419Y-76500000D01*
X173645255Y-76232727D01*
X173493857Y-76006143D01*
X173484663Y-76000000D01*
X173493857Y-75993857D01*
X173645255Y-75767273D01*
X173698419Y-75500000D01*
X173685000Y-75432538D01*
X173685000Y-60711593D01*
X174254677Y-60711593D01*
X174265000Y-61028284D01*
X174265000Y-61345113D01*
X174276210Y-61372176D01*
X174277164Y-61401453D01*
X174497901Y-61934359D01*
X174511293Y-61939716D01*
X174529138Y-61982799D01*
X175017201Y-62470862D01*
X175060284Y-62488707D01*
X175065641Y-62502099D01*
X175362171Y-62613753D01*
X175654887Y-62735000D01*
X175684177Y-62735000D01*
X175711593Y-62745323D01*
X176028284Y-62735000D01*
X176345113Y-62735000D01*
X176372176Y-62723790D01*
X176401453Y-62722836D01*
X176934359Y-62502099D01*
X176939716Y-62488707D01*
X176982799Y-62470862D01*
X177470862Y-61982799D01*
X177488707Y-61939716D01*
X177502099Y-61934359D01*
X177613753Y-61637829D01*
X177735000Y-61345113D01*
X177735000Y-61315823D01*
X177745323Y-61288407D01*
X177735000Y-60971716D01*
X177735000Y-60711593D01*
X187754677Y-60711593D01*
X187765000Y-61028284D01*
X187765000Y-61345113D01*
X187776210Y-61372176D01*
X187777164Y-61401453D01*
X187997901Y-61934359D01*
X188011293Y-61939716D01*
X188029138Y-61982799D01*
X188517201Y-62470862D01*
X188560284Y-62488707D01*
X188565641Y-62502099D01*
X188862171Y-62613753D01*
X189154887Y-62735000D01*
X189184177Y-62735000D01*
X189211593Y-62745323D01*
X189528284Y-62735000D01*
X189845113Y-62735000D01*
X189872176Y-62723790D01*
X189901453Y-62722836D01*
X190434359Y-62502099D01*
X190439716Y-62488707D01*
X190482799Y-62470862D01*
X190970862Y-61982799D01*
X190988707Y-61939716D01*
X191002099Y-61934359D01*
X191113753Y-61637829D01*
X191235000Y-61345113D01*
X191235000Y-61315823D01*
X191245323Y-61288407D01*
X191235000Y-60971716D01*
X191235000Y-60654887D01*
X191223790Y-60627824D01*
X191222836Y-60598547D01*
X191002099Y-60065641D01*
X190988707Y-60060284D01*
X190970862Y-60017201D01*
X190482799Y-59529138D01*
X190439716Y-59511293D01*
X190434359Y-59497901D01*
X190137829Y-59386247D01*
X189845113Y-59265000D01*
X189815823Y-59265000D01*
X189788407Y-59254677D01*
X189471716Y-59265000D01*
X189154887Y-59265000D01*
X189127824Y-59276210D01*
X189098547Y-59277164D01*
X188565641Y-59497901D01*
X188560284Y-59511293D01*
X188517201Y-59529138D01*
X188029138Y-60017201D01*
X188011293Y-60060284D01*
X187997901Y-60065641D01*
X187886247Y-60362171D01*
X187765000Y-60654887D01*
X187765000Y-60684177D01*
X187754677Y-60711593D01*
X177735000Y-60711593D01*
X177735000Y-60654887D01*
X177723790Y-60627824D01*
X177722836Y-60598547D01*
X177502099Y-60065641D01*
X177488707Y-60060284D01*
X177470862Y-60017201D01*
X176982799Y-59529138D01*
X176939716Y-59511293D01*
X176934359Y-59497901D01*
X176637829Y-59386247D01*
X176345113Y-59265000D01*
X176315823Y-59265000D01*
X176288407Y-59254677D01*
X175971716Y-59265000D01*
X175654887Y-59265000D01*
X175627824Y-59276210D01*
X175598547Y-59277164D01*
X175065641Y-59497901D01*
X175060284Y-59511293D01*
X175017201Y-59529138D01*
X174529138Y-60017201D01*
X174511293Y-60060284D01*
X174497901Y-60065641D01*
X174386247Y-60362171D01*
X174265000Y-60654887D01*
X174265000Y-60684177D01*
X174254677Y-60711593D01*
X173685000Y-60711593D01*
X173685000Y-58783736D01*
X173783736Y-58685000D01*
X191716264Y-58685000D01*
X191815000Y-58783736D01*
G36*
X169315001Y-58783737D02*
G01*
X169315000Y-75432538D01*
X169301581Y-75500000D01*
X169354745Y-75767273D01*
X169506143Y-75993857D01*
X169515337Y-76000000D01*
X169506143Y-76006143D01*
X169354745Y-76232727D01*
X169301581Y-76500000D01*
X169315000Y-76567462D01*
X169315001Y-111432533D01*
X169301581Y-111500000D01*
X169354745Y-111767273D01*
X169506143Y-111993857D01*
X169515337Y-112000000D01*
X169506143Y-112006143D01*
X169354745Y-112232727D01*
X169301581Y-112500000D01*
X169315000Y-112567462D01*
X169315001Y-129216263D01*
X169216264Y-129315000D01*
X63783736Y-129315000D01*
X63685000Y-129216264D01*
X63685000Y-123711593D01*
X67254677Y-123711593D01*
X67265000Y-124028284D01*
X67265000Y-124345113D01*
X67276210Y-124372176D01*
X67277164Y-124401453D01*
X67497901Y-124934359D01*
X67511293Y-124939716D01*
X67529138Y-124982799D01*
X68017201Y-125470862D01*
X68060284Y-125488707D01*
X68065641Y-125502099D01*
X68362171Y-125613753D01*
X68654887Y-125735000D01*
X68684177Y-125735000D01*
X68711593Y-125745323D01*
X69028284Y-125735000D01*
X69345113Y-125735000D01*
X69372176Y-125723790D01*
X69401453Y-125722836D01*
X69934359Y-125502099D01*
X69939716Y-125488707D01*
X69982799Y-125470862D01*
X70470862Y-124982799D01*
X70488707Y-124939716D01*
X70502099Y-124934359D01*
X70613753Y-124637829D01*
X70735000Y-124345113D01*
X70735000Y-124315823D01*
X70745323Y-124288407D01*
X70735000Y-123971716D01*
X70735000Y-123654887D01*
X70723790Y-123627824D01*
X70722836Y-123598547D01*
X70502099Y-123065641D01*
X70488707Y-123060284D01*
X70470862Y-123017201D01*
X69982799Y-122529138D01*
X69939716Y-122511293D01*
X69934359Y-122497901D01*
X69637829Y-122386247D01*
X69345113Y-122265000D01*
X69315823Y-122265000D01*
X69288407Y-122254677D01*
X68971716Y-122265000D01*
X68654887Y-122265000D01*
X68627824Y-122276210D01*
X68598547Y-122277164D01*
X68065641Y-122497901D01*
X68060284Y-122511293D01*
X68017201Y-122529138D01*
X67529138Y-123017201D01*
X67511293Y-123060284D01*
X67497901Y-123065641D01*
X67386247Y-123362171D01*
X67265000Y-123654887D01*
X67265000Y-123684177D01*
X67254677Y-123711593D01*
X63685000Y-123711593D01*
X63685000Y-114000000D01*
X72301581Y-114000000D01*
X72315001Y-114067467D01*
X72315000Y-127932538D01*
X72301581Y-128000000D01*
X72354745Y-128267273D01*
X72506143Y-128493857D01*
X72732727Y-128645255D01*
X73000000Y-128698419D01*
X73067461Y-128685000D01*
X86932539Y-128685000D01*
X87000000Y-128698419D01*
X87267273Y-128645255D01*
X87493857Y-128493857D01*
X87645255Y-128267273D01*
X87685000Y-128067462D01*
X87685000Y-128067461D01*
X87698419Y-128000000D01*
X87685000Y-127932538D01*
X87685000Y-114067462D01*
X87698419Y-114000000D01*
X106301581Y-114000000D01*
X106315000Y-114067462D01*
X106315001Y-127932533D01*
X106301581Y-128000000D01*
X106354745Y-128267273D01*
X106506143Y-128493857D01*
X106732727Y-128645255D01*
X106932538Y-128685000D01*
X106932539Y-128685000D01*
X107000000Y-128698419D01*
X107067462Y-128685000D01*
X120932538Y-128685000D01*
X121000000Y-128698419D01*
X121067461Y-128685000D01*
X121067462Y-128685000D01*
X121267273Y-128645255D01*
X121493857Y-128493857D01*
X121645255Y-128267273D01*
X121698419Y-128000000D01*
X121685000Y-127932538D01*
X121685000Y-114067462D01*
X121698419Y-114000000D01*
X131801581Y-114000000D01*
X131815000Y-114067462D01*
X131815001Y-127932533D01*
X131801581Y-128000000D01*
X131854745Y-128267273D01*
X132006143Y-128493857D01*
X132232727Y-128645255D01*
X132432538Y-128685000D01*
X132432539Y-128685000D01*
X132500000Y-128698419D01*
X132567462Y-128685000D01*
X146432538Y-128685000D01*
X146500000Y-128698419D01*
X146567461Y-128685000D01*
X146567462Y-128685000D01*
X146767273Y-128645255D01*
X146993857Y-128493857D01*
X147145255Y-128267273D01*
X147198419Y-128000000D01*
X147185000Y-127932538D01*
X147185000Y-123711593D01*
X148254677Y-123711593D01*
X148265000Y-124028284D01*
X148265000Y-124345113D01*
X148276210Y-124372176D01*
X148277164Y-124401453D01*
X148497901Y-124934359D01*
X148511293Y-124939716D01*
X148529138Y-124982799D01*
X149017201Y-125470862D01*
X149060284Y-125488707D01*
X149065641Y-125502099D01*
X149362171Y-125613753D01*
X149654887Y-125735000D01*
X149684177Y-125735000D01*
X149711593Y-125745323D01*
X150028284Y-125735000D01*
X150345113Y-125735000D01*
X150372176Y-125723790D01*
X150401453Y-125722836D01*
X150934359Y-125502099D01*
X150939716Y-125488707D01*
X150982799Y-125470862D01*
X151470862Y-124982799D01*
X151488707Y-124939716D01*
X151502099Y-124934359D01*
X151613753Y-124637829D01*
X151735000Y-124345113D01*
X151735000Y-124315823D01*
X151745323Y-124288407D01*
X151735000Y-123971716D01*
X151735000Y-123654887D01*
X151723790Y-123627824D01*
X151722836Y-123598547D01*
X151502099Y-123065641D01*
X151488707Y-123060284D01*
X151470862Y-123017201D01*
X150982799Y-122529138D01*
X150939716Y-122511293D01*
X150934359Y-122497901D01*
X150637829Y-122386247D01*
X150345113Y-122265000D01*
X150315823Y-122265000D01*
X150288407Y-122254677D01*
X149971716Y-122265000D01*
X149654887Y-122265000D01*
X149627824Y-122276210D01*
X149598547Y-122277164D01*
X149065641Y-122497901D01*
X149060284Y-122511293D01*
X149017201Y-122529138D01*
X148529138Y-123017201D01*
X148511293Y-123060284D01*
X148497901Y-123065641D01*
X148386247Y-123362171D01*
X148265000Y-123654887D01*
X148265000Y-123684177D01*
X148254677Y-123711593D01*
X147185000Y-123711593D01*
X147185000Y-114067462D01*
X147198419Y-114000000D01*
X152801581Y-114000000D01*
X152815000Y-114067462D01*
X152815001Y-127932533D01*
X152801581Y-128000000D01*
X152854745Y-128267273D01*
X153006143Y-128493857D01*
X153232727Y-128645255D01*
X153432538Y-128685000D01*
X153432539Y-128685000D01*
X153500000Y-128698419D01*
X153567462Y-128685000D01*
X167432538Y-128685000D01*
X167500000Y-128698419D01*
X167567461Y-128685000D01*
X167567462Y-128685000D01*
X167767273Y-128645255D01*
X167993857Y-128493857D01*
X168145255Y-128267273D01*
X168198419Y-128000000D01*
X168185000Y-127932538D01*
X168185000Y-114067462D01*
X168198419Y-114000000D01*
X168145255Y-113732727D01*
X167993857Y-113506143D01*
X167767273Y-113354745D01*
X167567462Y-113315000D01*
X167500000Y-113301581D01*
X167432539Y-113315000D01*
X153567461Y-113315000D01*
X153500000Y-113301581D01*
X153432538Y-113315000D01*
X153232727Y-113354745D01*
X153006143Y-113506143D01*
X152854745Y-113732727D01*
X152801581Y-114000000D01*
X147198419Y-114000000D01*
X147145255Y-113732727D01*
X146993857Y-113506143D01*
X146767273Y-113354745D01*
X146567462Y-113315000D01*
X146500000Y-113301581D01*
X146432539Y-113315000D01*
X132567461Y-113315000D01*
X132500000Y-113301581D01*
X132432538Y-113315000D01*
X132232727Y-113354745D01*
X132006143Y-113506143D01*
X131854745Y-113732727D01*
X131801581Y-114000000D01*
X121698419Y-114000000D01*
X121645255Y-113732727D01*
X121493857Y-113506143D01*
X121267273Y-113354745D01*
X121067462Y-113315000D01*
X121000000Y-113301581D01*
X120932539Y-113315000D01*
X107067461Y-113315000D01*
X107000000Y-113301581D01*
X106932538Y-113315000D01*
X106732727Y-113354745D01*
X106506143Y-113506143D01*
X106354745Y-113732727D01*
X106301581Y-114000000D01*
X87698419Y-114000000D01*
X87645255Y-113732727D01*
X87493857Y-113506143D01*
X87267273Y-113354745D01*
X87067462Y-113315000D01*
X87067461Y-113315000D01*
X87000000Y-113301581D01*
X86932538Y-113315000D01*
X73067462Y-113315000D01*
X73000000Y-113301581D01*
X72932539Y-113315000D01*
X72932538Y-113315000D01*
X72732727Y-113354745D01*
X72506143Y-113506143D01*
X72354745Y-113732727D01*
X72301581Y-114000000D01*
X63685000Y-114000000D01*
X63685000Y-96000000D01*
X63801581Y-96000000D01*
X63815000Y-96067462D01*
X63815001Y-109932533D01*
X63801581Y-110000000D01*
X63854745Y-110267273D01*
X64006143Y-110493857D01*
X64232727Y-110645255D01*
X64432538Y-110685000D01*
X64432539Y-110685000D01*
X64500000Y-110698419D01*
X64567462Y-110685000D01*
X78432538Y-110685000D01*
X78500000Y-110698419D01*
X78567461Y-110685000D01*
X78567462Y-110685000D01*
X78767273Y-110645255D01*
X78993857Y-110493857D01*
X79145255Y-110267273D01*
X79198419Y-110000000D01*
X79185000Y-109932538D01*
X79185000Y-96067462D01*
X79198419Y-96000000D01*
X80801581Y-96000000D01*
X80815000Y-96067462D01*
X80815001Y-109932533D01*
X80801581Y-110000000D01*
X80854745Y-110267273D01*
X81006143Y-110493857D01*
X81232727Y-110645255D01*
X81432538Y-110685000D01*
X81432539Y-110685000D01*
X81500000Y-110698419D01*
X81567462Y-110685000D01*
X95432538Y-110685000D01*
X95500000Y-110698419D01*
X95567461Y-110685000D01*
X95567462Y-110685000D01*
X95767273Y-110645255D01*
X95993857Y-110493857D01*
X96145255Y-110267273D01*
X96198419Y-110000000D01*
X96185000Y-109932538D01*
X96185000Y-96067462D01*
X96198419Y-96000000D01*
X97801581Y-96000000D01*
X97815000Y-96067462D01*
X97815001Y-109932533D01*
X97801581Y-110000000D01*
X97854745Y-110267273D01*
X98006143Y-110493857D01*
X98232727Y-110645255D01*
X98432538Y-110685000D01*
X98432539Y-110685000D01*
X98500000Y-110698419D01*
X98567462Y-110685000D01*
X112432538Y-110685000D01*
X112500000Y-110698419D01*
X112567461Y-110685000D01*
X112567462Y-110685000D01*
X112767273Y-110645255D01*
X112993857Y-110493857D01*
X113145255Y-110267273D01*
X113198419Y-110000000D01*
X113185000Y-109932538D01*
X113185000Y-96067462D01*
X113198419Y-96000000D01*
X114801581Y-96000000D01*
X114815000Y-96067462D01*
X114815001Y-109932533D01*
X114801581Y-110000000D01*
X114854745Y-110267273D01*
X115006143Y-110493857D01*
X115232727Y-110645255D01*
X115432538Y-110685000D01*
X115432539Y-110685000D01*
X115500000Y-110698419D01*
X115567462Y-110685000D01*
X129432538Y-110685000D01*
X129500000Y-110698419D01*
X129567461Y-110685000D01*
X129567462Y-110685000D01*
X129767273Y-110645255D01*
X129993857Y-110493857D01*
X130145255Y-110267273D01*
X130198419Y-110000000D01*
X130185000Y-109932538D01*
X130185000Y-96067462D01*
X130198419Y-96000000D01*
X131801581Y-96000000D01*
X131815000Y-96067462D01*
X131815001Y-109932533D01*
X131801581Y-110000000D01*
X131854745Y-110267273D01*
X132006143Y-110493857D01*
X132232727Y-110645255D01*
X132432538Y-110685000D01*
X132432539Y-110685000D01*
X132500000Y-110698419D01*
X132567462Y-110685000D01*
X146432538Y-110685000D01*
X146500000Y-110698419D01*
X146567461Y-110685000D01*
X146567462Y-110685000D01*
X146767273Y-110645255D01*
X146993857Y-110493857D01*
X147145255Y-110267273D01*
X147198419Y-110000000D01*
X147185000Y-109932538D01*
X147185000Y-96067462D01*
X147198419Y-96000000D01*
X152801581Y-96000000D01*
X152815000Y-96067462D01*
X152815001Y-109932533D01*
X152801581Y-110000000D01*
X152854745Y-110267273D01*
X153006143Y-110493857D01*
X153232727Y-110645255D01*
X153432538Y-110685000D01*
X153432539Y-110685000D01*
X153500000Y-110698419D01*
X153567462Y-110685000D01*
X167432538Y-110685000D01*
X167500000Y-110698419D01*
X167567461Y-110685000D01*
X167567462Y-110685000D01*
X167767273Y-110645255D01*
X167993857Y-110493857D01*
X168145255Y-110267273D01*
X168198419Y-110000000D01*
X168185000Y-109932538D01*
X168185000Y-96067462D01*
X168198419Y-96000000D01*
X168145255Y-95732727D01*
X167993857Y-95506143D01*
X167767273Y-95354745D01*
X167567462Y-95315000D01*
X167500000Y-95301581D01*
X167432539Y-95315000D01*
X153567461Y-95315000D01*
X153500000Y-95301581D01*
X153432538Y-95315000D01*
X153232727Y-95354745D01*
X153006143Y-95506143D01*
X152854745Y-95732727D01*
X152801581Y-96000000D01*
X147198419Y-96000000D01*
X147145255Y-95732727D01*
X146993857Y-95506143D01*
X146767273Y-95354745D01*
X146567462Y-95315000D01*
X146500000Y-95301581D01*
X146432539Y-95315000D01*
X132567461Y-95315000D01*
X132500000Y-95301581D01*
X132432538Y-95315000D01*
X132232727Y-95354745D01*
X132006143Y-95506143D01*
X131854745Y-95732727D01*
X131801581Y-96000000D01*
X130198419Y-96000000D01*
X130145255Y-95732727D01*
X129993857Y-95506143D01*
X129767273Y-95354745D01*
X129567462Y-95315000D01*
X129500000Y-95301581D01*
X129432539Y-95315000D01*
X115567461Y-95315000D01*
X115500000Y-95301581D01*
X115432538Y-95315000D01*
X115232727Y-95354745D01*
X115006143Y-95506143D01*
X114854745Y-95732727D01*
X114801581Y-96000000D01*
X113198419Y-96000000D01*
X113145255Y-95732727D01*
X112993857Y-95506143D01*
X112767273Y-95354745D01*
X112567462Y-95315000D01*
X112500000Y-95301581D01*
X112432539Y-95315000D01*
X98567461Y-95315000D01*
X98500000Y-95301581D01*
X98432538Y-95315000D01*
X98232727Y-95354745D01*
X98006143Y-95506143D01*
X97854745Y-95732727D01*
X97801581Y-96000000D01*
X96198419Y-96000000D01*
X96145255Y-95732727D01*
X95993857Y-95506143D01*
X95767273Y-95354745D01*
X95567462Y-95315000D01*
X95500000Y-95301581D01*
X95432539Y-95315000D01*
X81567461Y-95315000D01*
X81500000Y-95301581D01*
X81432538Y-95315000D01*
X81232727Y-95354745D01*
X81006143Y-95506143D01*
X80854745Y-95732727D01*
X80801581Y-96000000D01*
X79198419Y-96000000D01*
X79145255Y-95732727D01*
X78993857Y-95506143D01*
X78767273Y-95354745D01*
X78567462Y-95315000D01*
X78500000Y-95301581D01*
X78432539Y-95315000D01*
X64567461Y-95315000D01*
X64500000Y-95301581D01*
X64432538Y-95315000D01*
X64232727Y-95354745D01*
X64006143Y-95506143D01*
X63854745Y-95732727D01*
X63801581Y-96000000D01*
X63685000Y-96000000D01*
X63685000Y-69000000D01*
X63801581Y-69000000D01*
X63815001Y-69067467D01*
X63815000Y-82932538D01*
X63801581Y-83000000D01*
X63854745Y-83267273D01*
X64006143Y-83493857D01*
X64232727Y-83645255D01*
X64500000Y-83698419D01*
X64567461Y-83685000D01*
X78432539Y-83685000D01*
X78500000Y-83698419D01*
X78767273Y-83645255D01*
X78993857Y-83493857D01*
X79145255Y-83267273D01*
X79185000Y-83067462D01*
X79185000Y-83067461D01*
X79198419Y-83000000D01*
X79185000Y-82932538D01*
X79185000Y-78000000D01*
X80801581Y-78000000D01*
X80815000Y-78067462D01*
X80815001Y-91907533D01*
X80801581Y-91975000D01*
X80854745Y-92242273D01*
X81006143Y-92468857D01*
X81232727Y-92620255D01*
X81432538Y-92660000D01*
X81432539Y-92660000D01*
X81500000Y-92673419D01*
X81567462Y-92660000D01*
X95432538Y-92660000D01*
X95500000Y-92673419D01*
X95567461Y-92660000D01*
X95567462Y-92660000D01*
X95767273Y-92620255D01*
X95993857Y-92468857D01*
X96145255Y-92242273D01*
X96198419Y-91975000D01*
X96185000Y-91907538D01*
X96185000Y-78067462D01*
X96198419Y-78000000D01*
X97801581Y-78000000D01*
X97815000Y-78067462D01*
X97815001Y-91932533D01*
X97801581Y-92000000D01*
X97854745Y-92267273D01*
X98006143Y-92493857D01*
X98232727Y-92645255D01*
X98432538Y-92685000D01*
X98432539Y-92685000D01*
X98500000Y-92698419D01*
X98567462Y-92685000D01*
X112432538Y-92685000D01*
X112500000Y-92698419D01*
X112567461Y-92685000D01*
X112567462Y-92685000D01*
X112767273Y-92645255D01*
X112993857Y-92493857D01*
X113145255Y-92267273D01*
X113198419Y-92000000D01*
X113185000Y-91932538D01*
X113185000Y-78067462D01*
X113198419Y-78000000D01*
X114801581Y-78000000D01*
X114815000Y-78067462D01*
X114815001Y-91932533D01*
X114801581Y-92000000D01*
X114854745Y-92267273D01*
X115006143Y-92493857D01*
X115232727Y-92645255D01*
X115432538Y-92685000D01*
X115432539Y-92685000D01*
X115500000Y-92698419D01*
X115567462Y-92685000D01*
X129432538Y-92685000D01*
X129500000Y-92698419D01*
X129567461Y-92685000D01*
X129567462Y-92685000D01*
X129767273Y-92645255D01*
X129993857Y-92493857D01*
X130145255Y-92267273D01*
X130198419Y-92000000D01*
X130185000Y-91932538D01*
X130185000Y-78067462D01*
X130198419Y-78000000D01*
X131801581Y-78000000D01*
X131815000Y-78067462D01*
X131815001Y-91932533D01*
X131801581Y-92000000D01*
X131854745Y-92267273D01*
X132006143Y-92493857D01*
X132232727Y-92645255D01*
X132432538Y-92685000D01*
X132432539Y-92685000D01*
X132500000Y-92698419D01*
X132567462Y-92685000D01*
X146432538Y-92685000D01*
X146500000Y-92698419D01*
X146567461Y-92685000D01*
X146567462Y-92685000D01*
X146767273Y-92645255D01*
X146993857Y-92493857D01*
X147145255Y-92267273D01*
X147198419Y-92000000D01*
X147185000Y-91932538D01*
X147185000Y-78067462D01*
X147198419Y-78000000D01*
X152801581Y-78000000D01*
X152815000Y-78067462D01*
X152815001Y-91932533D01*
X152801581Y-92000000D01*
X152854745Y-92267273D01*
X153006143Y-92493857D01*
X153232727Y-92645255D01*
X153432538Y-92685000D01*
X153432539Y-92685000D01*
X153500000Y-92698419D01*
X153567462Y-92685000D01*
X167432538Y-92685000D01*
X167500000Y-92698419D01*
X167567461Y-92685000D01*
X167567462Y-92685000D01*
X167767273Y-92645255D01*
X167993857Y-92493857D01*
X168145255Y-92267273D01*
X168198419Y-92000000D01*
X168185000Y-91932538D01*
X168185000Y-78067462D01*
X168198419Y-78000000D01*
X168145255Y-77732727D01*
X167993857Y-77506143D01*
X167767273Y-77354745D01*
X167567462Y-77315000D01*
X167500000Y-77301581D01*
X167432539Y-77315000D01*
X153567461Y-77315000D01*
X153500000Y-77301581D01*
X153432538Y-77315000D01*
X153232727Y-77354745D01*
X153006143Y-77506143D01*
X152854745Y-77732727D01*
X152801581Y-78000000D01*
X147198419Y-78000000D01*
X147145255Y-77732727D01*
X146993857Y-77506143D01*
X146767273Y-77354745D01*
X146567462Y-77315000D01*
X146500000Y-77301581D01*
X146432539Y-77315000D01*
X132567461Y-77315000D01*
X132500000Y-77301581D01*
X132432538Y-77315000D01*
X132232727Y-77354745D01*
X132006143Y-77506143D01*
X131854745Y-77732727D01*
X131801581Y-78000000D01*
X130198419Y-78000000D01*
X130145255Y-77732727D01*
X129993857Y-77506143D01*
X129767273Y-77354745D01*
X129567462Y-77315000D01*
X129500000Y-77301581D01*
X129432539Y-77315000D01*
X115567461Y-77315000D01*
X115500000Y-77301581D01*
X115432538Y-77315000D01*
X115232727Y-77354745D01*
X115006143Y-77506143D01*
X114854745Y-77732727D01*
X114801581Y-78000000D01*
X113198419Y-78000000D01*
X113145255Y-77732727D01*
X112993857Y-77506143D01*
X112767273Y-77354745D01*
X112567462Y-77315000D01*
X112500000Y-77301581D01*
X112432539Y-77315000D01*
X98567461Y-77315000D01*
X98500000Y-77301581D01*
X98432538Y-77315000D01*
X98232727Y-77354745D01*
X98006143Y-77506143D01*
X97854745Y-77732727D01*
X97801581Y-78000000D01*
X96198419Y-78000000D01*
X96145255Y-77732727D01*
X95993857Y-77506143D01*
X95767273Y-77354745D01*
X95567462Y-77315000D01*
X95500000Y-77301581D01*
X95432539Y-77315000D01*
X81567461Y-77315000D01*
X81500000Y-77301581D01*
X81432538Y-77315000D01*
X81232727Y-77354745D01*
X81006143Y-77506143D01*
X80854745Y-77732727D01*
X80801581Y-78000000D01*
X79185000Y-78000000D01*
X79185000Y-69067462D01*
X79198419Y-69000000D01*
X79145255Y-68732727D01*
X78993857Y-68506143D01*
X78767273Y-68354745D01*
X78567462Y-68315000D01*
X78567461Y-68315000D01*
X78500000Y-68301581D01*
X78432538Y-68315000D01*
X64567462Y-68315000D01*
X64500000Y-68301581D01*
X64432539Y-68315000D01*
X64432538Y-68315000D01*
X64232727Y-68354745D01*
X64006143Y-68506143D01*
X63854745Y-68732727D01*
X63801581Y-69000000D01*
X63685000Y-69000000D01*
X63685000Y-63711593D01*
X67254677Y-63711593D01*
X67265000Y-64028284D01*
X67265000Y-64345113D01*
X67276210Y-64372176D01*
X67277164Y-64401453D01*
X67497901Y-64934359D01*
X67511293Y-64939716D01*
X67529138Y-64982799D01*
X68017201Y-65470862D01*
X68060284Y-65488707D01*
X68065641Y-65502099D01*
X68362171Y-65613753D01*
X68654887Y-65735000D01*
X68684177Y-65735000D01*
X68711593Y-65745323D01*
X69028284Y-65735000D01*
X69345113Y-65735000D01*
X69372176Y-65723790D01*
X69401453Y-65722836D01*
X69934359Y-65502099D01*
X69939716Y-65488707D01*
X69982799Y-65470862D01*
X70470862Y-64982799D01*
X70488707Y-64939716D01*
X70502099Y-64934359D01*
X70613753Y-64637829D01*
X70735000Y-64345113D01*
X70735000Y-64315823D01*
X70745323Y-64288407D01*
X70735000Y-63971716D01*
X70735000Y-63654887D01*
X70723790Y-63627824D01*
X70722836Y-63598547D01*
X70502099Y-63065641D01*
X70488707Y-63060284D01*
X70470862Y-63017201D01*
X69982799Y-62529138D01*
X69939716Y-62511293D01*
X69934359Y-62497901D01*
X69637829Y-62386247D01*
X69345113Y-62265000D01*
X69315823Y-62265000D01*
X69288407Y-62254677D01*
X68971716Y-62265000D01*
X68654887Y-62265000D01*
X68627824Y-62276210D01*
X68598547Y-62277164D01*
X68065641Y-62497901D01*
X68060284Y-62511293D01*
X68017201Y-62529138D01*
X67529138Y-63017201D01*
X67511293Y-63060284D01*
X67497901Y-63065641D01*
X67386247Y-63362171D01*
X67265000Y-63654887D01*
X67265000Y-63684177D01*
X67254677Y-63711593D01*
X63685000Y-63711593D01*
X63685000Y-60000000D01*
X80801581Y-60000000D01*
X80815000Y-60067462D01*
X80815001Y-73932533D01*
X80801581Y-74000000D01*
X80854745Y-74267273D01*
X81006143Y-74493857D01*
X81232727Y-74645255D01*
X81432538Y-74685000D01*
X81432539Y-74685000D01*
X81500000Y-74698419D01*
X81567462Y-74685000D01*
X95432538Y-74685000D01*
X95500000Y-74698419D01*
X95567461Y-74685000D01*
X95567462Y-74685000D01*
X95767273Y-74645255D01*
X95993857Y-74493857D01*
X96145255Y-74267273D01*
X96198419Y-74000000D01*
X96185000Y-73932538D01*
X96185000Y-60067462D01*
X96198419Y-60000000D01*
X97801581Y-60000000D01*
X97815000Y-60067462D01*
X97815001Y-73907533D01*
X97801581Y-73975000D01*
X97854745Y-74242273D01*
X98006143Y-74468857D01*
X98232727Y-74620255D01*
X98432538Y-74660000D01*
X98432539Y-74660000D01*
X98500000Y-74673419D01*
X98567462Y-74660000D01*
X112432538Y-74660000D01*
X112500000Y-74673419D01*
X112567461Y-74660000D01*
X112567462Y-74660000D01*
X112767273Y-74620255D01*
X112993857Y-74468857D01*
X113145255Y-74242273D01*
X113180053Y-74067333D01*
X113185000Y-74042462D01*
X113185000Y-74042461D01*
X113198419Y-73975000D01*
X113185000Y-73907538D01*
X113185000Y-60067462D01*
X113198419Y-60000000D01*
X114801581Y-60000000D01*
X114815000Y-60067462D01*
X114815001Y-73932533D01*
X114801581Y-74000000D01*
X114854745Y-74267273D01*
X115006143Y-74493857D01*
X115232727Y-74645255D01*
X115432538Y-74685000D01*
X115432539Y-74685000D01*
X115500000Y-74698419D01*
X115567462Y-74685000D01*
X129432538Y-74685000D01*
X129500000Y-74698419D01*
X129567461Y-74685000D01*
X129567462Y-74685000D01*
X129767273Y-74645255D01*
X129993857Y-74493857D01*
X130145255Y-74267273D01*
X130198419Y-74000000D01*
X130185000Y-73932538D01*
X130185000Y-60067462D01*
X130198419Y-60000000D01*
X131801581Y-60000000D01*
X131815000Y-60067462D01*
X131815001Y-73932533D01*
X131801581Y-74000000D01*
X131854745Y-74267273D01*
X132006143Y-74493857D01*
X132232727Y-74645255D01*
X132432538Y-74685000D01*
X132432539Y-74685000D01*
X132500000Y-74698419D01*
X132567462Y-74685000D01*
X146432538Y-74685000D01*
X146500000Y-74698419D01*
X146567461Y-74685000D01*
X146567462Y-74685000D01*
X146767273Y-74645255D01*
X146993857Y-74493857D01*
X147145255Y-74267273D01*
X147198419Y-74000000D01*
X147185000Y-73932538D01*
X147185000Y-63711593D01*
X148254677Y-63711593D01*
X148265000Y-64028284D01*
X148265000Y-64345113D01*
X148276210Y-64372176D01*
X148277164Y-64401453D01*
X148497901Y-64934359D01*
X148511293Y-64939716D01*
X148529138Y-64982799D01*
X149017201Y-65470862D01*
X149060284Y-65488707D01*
X149065641Y-65502099D01*
X149362171Y-65613753D01*
X149654887Y-65735000D01*
X149684177Y-65735000D01*
X149711593Y-65745323D01*
X150028284Y-65735000D01*
X150345113Y-65735000D01*
X150372176Y-65723790D01*
X150401453Y-65722836D01*
X150934359Y-65502099D01*
X150939716Y-65488707D01*
X150982799Y-65470862D01*
X151470862Y-64982799D01*
X151488707Y-64939716D01*
X151502099Y-64934359D01*
X151613753Y-64637829D01*
X151735000Y-64345113D01*
X151735000Y-64315823D01*
X151745323Y-64288407D01*
X151735000Y-63971716D01*
X151735000Y-63654887D01*
X151723790Y-63627824D01*
X151722836Y-63598547D01*
X151502099Y-63065641D01*
X151488707Y-63060284D01*
X151470862Y-63017201D01*
X150982799Y-62529138D01*
X150939716Y-62511293D01*
X150934359Y-62497901D01*
X150637829Y-62386247D01*
X150345113Y-62265000D01*
X150315823Y-62265000D01*
X150288407Y-62254677D01*
X149971716Y-62265000D01*
X149654887Y-62265000D01*
X149627824Y-62276210D01*
X149598547Y-62277164D01*
X149065641Y-62497901D01*
X149060284Y-62511293D01*
X149017201Y-62529138D01*
X148529138Y-63017201D01*
X148511293Y-63060284D01*
X148497901Y-63065641D01*
X148386247Y-63362171D01*
X148265000Y-63654887D01*
X148265000Y-63684177D01*
X148254677Y-63711593D01*
X147185000Y-63711593D01*
X147185000Y-60067462D01*
X147198419Y-60000000D01*
X152801581Y-60000000D01*
X152815000Y-60067462D01*
X152815001Y-73932533D01*
X152801581Y-74000000D01*
X152854745Y-74267273D01*
X153006143Y-74493857D01*
X153232727Y-74645255D01*
X153432538Y-74685000D01*
X153432539Y-74685000D01*
X153500000Y-74698419D01*
X153567462Y-74685000D01*
X167432538Y-74685000D01*
X167500000Y-74698419D01*
X167567461Y-74685000D01*
X167567462Y-74685000D01*
X167767273Y-74645255D01*
X167993857Y-74493857D01*
X168145255Y-74267273D01*
X168198419Y-74000000D01*
X168185000Y-73932538D01*
X168185000Y-60067462D01*
X168198419Y-60000000D01*
X168145255Y-59732727D01*
X167993857Y-59506143D01*
X167767273Y-59354745D01*
X167567462Y-59315000D01*
X167500000Y-59301581D01*
X167432539Y-59315000D01*
X153567461Y-59315000D01*
X153500000Y-59301581D01*
X153432538Y-59315000D01*
X153232727Y-59354745D01*
X153006143Y-59506143D01*
X152854745Y-59732727D01*
X152801581Y-60000000D01*
X147198419Y-60000000D01*
X147145255Y-59732727D01*
X146993857Y-59506143D01*
X146767273Y-59354745D01*
X146567462Y-59315000D01*
X146500000Y-59301581D01*
X146432539Y-59315000D01*
X132567461Y-59315000D01*
X132500000Y-59301581D01*
X132432538Y-59315000D01*
X132232727Y-59354745D01*
X132006143Y-59506143D01*
X131854745Y-59732727D01*
X131801581Y-60000000D01*
X130198419Y-60000000D01*
X130145255Y-59732727D01*
X129993857Y-59506143D01*
X129767273Y-59354745D01*
X129567462Y-59315000D01*
X129500000Y-59301581D01*
X129432539Y-59315000D01*
X115567461Y-59315000D01*
X115500000Y-59301581D01*
X115432538Y-59315000D01*
X115232727Y-59354745D01*
X115006143Y-59506143D01*
X114854745Y-59732727D01*
X114801581Y-60000000D01*
X113198419Y-60000000D01*
X113145255Y-59732727D01*
X112993857Y-59506143D01*
X112767273Y-59354745D01*
X112567462Y-59315000D01*
X112500000Y-59301581D01*
X112432539Y-59315000D01*
X98567461Y-59315000D01*
X98500000Y-59301581D01*
X98432538Y-59315000D01*
X98232727Y-59354745D01*
X98006143Y-59506143D01*
X97854745Y-59732727D01*
X97801581Y-60000000D01*
X96198419Y-60000000D01*
X96145255Y-59732727D01*
X95993857Y-59506143D01*
X95767273Y-59354745D01*
X95567462Y-59315000D01*
X95500000Y-59301581D01*
X95432539Y-59315000D01*
X81567461Y-59315000D01*
X81500000Y-59301581D01*
X81432538Y-59315000D01*
X81232727Y-59354745D01*
X81006143Y-59506143D01*
X80854745Y-59732727D01*
X80801581Y-60000000D01*
X63685000Y-60000000D01*
X63685000Y-58783736D01*
X63783736Y-58685000D01*
X169216264Y-58685000D01*
X169315001Y-58783737D01*
G37*
X169315001Y-58783737D02*
X169315000Y-75432538D01*
X169301581Y-75500000D01*
X169354745Y-75767273D01*
X169506143Y-75993857D01*
X169515337Y-76000000D01*
X169506143Y-76006143D01*
X169354745Y-76232727D01*
X169301581Y-76500000D01*
X169315000Y-76567462D01*
X169315001Y-111432533D01*
X169301581Y-111500000D01*
X169354745Y-111767273D01*
X169506143Y-111993857D01*
X169515337Y-112000000D01*
X169506143Y-112006143D01*
X169354745Y-112232727D01*
X169301581Y-112500000D01*
X169315000Y-112567462D01*
X169315001Y-129216263D01*
X169216264Y-129315000D01*
X63783736Y-129315000D01*
X63685000Y-129216264D01*
X63685000Y-123711593D01*
X67254677Y-123711593D01*
X67265000Y-124028284D01*
X67265000Y-124345113D01*
X67276210Y-124372176D01*
X67277164Y-124401453D01*
X67497901Y-124934359D01*
X67511293Y-124939716D01*
X67529138Y-124982799D01*
X68017201Y-125470862D01*
X68060284Y-125488707D01*
X68065641Y-125502099D01*
X68362171Y-125613753D01*
X68654887Y-125735000D01*
X68684177Y-125735000D01*
X68711593Y-125745323D01*
X69028284Y-125735000D01*
X69345113Y-125735000D01*
X69372176Y-125723790D01*
X69401453Y-125722836D01*
X69934359Y-125502099D01*
X69939716Y-125488707D01*
X69982799Y-125470862D01*
X70470862Y-124982799D01*
X70488707Y-124939716D01*
X70502099Y-124934359D01*
X70613753Y-124637829D01*
X70735000Y-124345113D01*
X70735000Y-124315823D01*
X70745323Y-124288407D01*
X70735000Y-123971716D01*
X70735000Y-123654887D01*
X70723790Y-123627824D01*
X70722836Y-123598547D01*
X70502099Y-123065641D01*
X70488707Y-123060284D01*
X70470862Y-123017201D01*
X69982799Y-122529138D01*
X69939716Y-122511293D01*
X69934359Y-122497901D01*
X69637829Y-122386247D01*
X69345113Y-122265000D01*
X69315823Y-122265000D01*
X69288407Y-122254677D01*
X68971716Y-122265000D01*
X68654887Y-122265000D01*
X68627824Y-122276210D01*
X68598547Y-122277164D01*
X68065641Y-122497901D01*
X68060284Y-122511293D01*
X68017201Y-122529138D01*
X67529138Y-123017201D01*
X67511293Y-123060284D01*
X67497901Y-123065641D01*
X67386247Y-123362171D01*
X67265000Y-123654887D01*
X67265000Y-123684177D01*
X67254677Y-123711593D01*
X63685000Y-123711593D01*
X63685000Y-114000000D01*
X72301581Y-114000000D01*
X72315001Y-114067467D01*
X72315000Y-127932538D01*
X72301581Y-128000000D01*
X72354745Y-128267273D01*
X72506143Y-128493857D01*
X72732727Y-128645255D01*
X73000000Y-128698419D01*
X73067461Y-128685000D01*
X86932539Y-128685000D01*
X87000000Y-128698419D01*
X87267273Y-128645255D01*
X87493857Y-128493857D01*
X87645255Y-128267273D01*
X87685000Y-128067462D01*
X87685000Y-128067461D01*
X87698419Y-128000000D01*
X87685000Y-127932538D01*
X87685000Y-114067462D01*
X87698419Y-114000000D01*
X106301581Y-114000000D01*
X106315000Y-114067462D01*
X106315001Y-127932533D01*
X106301581Y-128000000D01*
X106354745Y-128267273D01*
X106506143Y-128493857D01*
X106732727Y-128645255D01*
X106932538Y-128685000D01*
X106932539Y-128685000D01*
X107000000Y-128698419D01*
X107067462Y-128685000D01*
X120932538Y-128685000D01*
X121000000Y-128698419D01*
X121067461Y-128685000D01*
X121067462Y-128685000D01*
X121267273Y-128645255D01*
X121493857Y-128493857D01*
X121645255Y-128267273D01*
X121698419Y-128000000D01*
X121685000Y-127932538D01*
X121685000Y-114067462D01*
X121698419Y-114000000D01*
X131801581Y-114000000D01*
X131815000Y-114067462D01*
X131815001Y-127932533D01*
X131801581Y-128000000D01*
X131854745Y-128267273D01*
X132006143Y-128493857D01*
X132232727Y-128645255D01*
X132432538Y-128685000D01*
X132432539Y-128685000D01*
X132500000Y-128698419D01*
X132567462Y-128685000D01*
X146432538Y-128685000D01*
X146500000Y-128698419D01*
X146567461Y-128685000D01*
X146567462Y-128685000D01*
X146767273Y-128645255D01*
X146993857Y-128493857D01*
X147145255Y-128267273D01*
X147198419Y-128000000D01*
X147185000Y-127932538D01*
X147185000Y-123711593D01*
X148254677Y-123711593D01*
X148265000Y-124028284D01*
X148265000Y-124345113D01*
X148276210Y-124372176D01*
X148277164Y-124401453D01*
X148497901Y-124934359D01*
X148511293Y-124939716D01*
X148529138Y-124982799D01*
X149017201Y-125470862D01*
X149060284Y-125488707D01*
X149065641Y-125502099D01*
X149362171Y-125613753D01*
X149654887Y-125735000D01*
X149684177Y-125735000D01*
X149711593Y-125745323D01*
X150028284Y-125735000D01*
X150345113Y-125735000D01*
X150372176Y-125723790D01*
X150401453Y-125722836D01*
X150934359Y-125502099D01*
X150939716Y-125488707D01*
X150982799Y-125470862D01*
X151470862Y-124982799D01*
X151488707Y-124939716D01*
X151502099Y-124934359D01*
X151613753Y-124637829D01*
X151735000Y-124345113D01*
X151735000Y-124315823D01*
X151745323Y-124288407D01*
X151735000Y-123971716D01*
X151735000Y-123654887D01*
X151723790Y-123627824D01*
X151722836Y-123598547D01*
X151502099Y-123065641D01*
X151488707Y-123060284D01*
X151470862Y-123017201D01*
X150982799Y-122529138D01*
X150939716Y-122511293D01*
X150934359Y-122497901D01*
X150637829Y-122386247D01*
X150345113Y-122265000D01*
X150315823Y-122265000D01*
X150288407Y-122254677D01*
X149971716Y-122265000D01*
X149654887Y-122265000D01*
X149627824Y-122276210D01*
X149598547Y-122277164D01*
X149065641Y-122497901D01*
X149060284Y-122511293D01*
X149017201Y-122529138D01*
X148529138Y-123017201D01*
X148511293Y-123060284D01*
X148497901Y-123065641D01*
X148386247Y-123362171D01*
X148265000Y-123654887D01*
X148265000Y-123684177D01*
X148254677Y-123711593D01*
X147185000Y-123711593D01*
X147185000Y-114067462D01*
X147198419Y-114000000D01*
X152801581Y-114000000D01*
X152815000Y-114067462D01*
X152815001Y-127932533D01*
X152801581Y-128000000D01*
X152854745Y-128267273D01*
X153006143Y-128493857D01*
X153232727Y-128645255D01*
X153432538Y-128685000D01*
X153432539Y-128685000D01*
X153500000Y-128698419D01*
X153567462Y-128685000D01*
X167432538Y-128685000D01*
X167500000Y-128698419D01*
X167567461Y-128685000D01*
X167567462Y-128685000D01*
X167767273Y-128645255D01*
X167993857Y-128493857D01*
X168145255Y-128267273D01*
X168198419Y-128000000D01*
X168185000Y-127932538D01*
X168185000Y-114067462D01*
X168198419Y-114000000D01*
X168145255Y-113732727D01*
X167993857Y-113506143D01*
X167767273Y-113354745D01*
X167567462Y-113315000D01*
X167500000Y-113301581D01*
X167432539Y-113315000D01*
X153567461Y-113315000D01*
X153500000Y-113301581D01*
X153432538Y-113315000D01*
X153232727Y-113354745D01*
X153006143Y-113506143D01*
X152854745Y-113732727D01*
X152801581Y-114000000D01*
X147198419Y-114000000D01*
X147145255Y-113732727D01*
X146993857Y-113506143D01*
X146767273Y-113354745D01*
X146567462Y-113315000D01*
X146500000Y-113301581D01*
X146432539Y-113315000D01*
X132567461Y-113315000D01*
X132500000Y-113301581D01*
X132432538Y-113315000D01*
X132232727Y-113354745D01*
X132006143Y-113506143D01*
X131854745Y-113732727D01*
X131801581Y-114000000D01*
X121698419Y-114000000D01*
X121645255Y-113732727D01*
X121493857Y-113506143D01*
X121267273Y-113354745D01*
X121067462Y-113315000D01*
X121000000Y-113301581D01*
X120932539Y-113315000D01*
X107067461Y-113315000D01*
X107000000Y-113301581D01*
X106932538Y-113315000D01*
X106732727Y-113354745D01*
X106506143Y-113506143D01*
X106354745Y-113732727D01*
X106301581Y-114000000D01*
X87698419Y-114000000D01*
X87645255Y-113732727D01*
X87493857Y-113506143D01*
X87267273Y-113354745D01*
X87067462Y-113315000D01*
X87067461Y-113315000D01*
X87000000Y-113301581D01*
X86932538Y-113315000D01*
X73067462Y-113315000D01*
X73000000Y-113301581D01*
X72932539Y-113315000D01*
X72932538Y-113315000D01*
X72732727Y-113354745D01*
X72506143Y-113506143D01*
X72354745Y-113732727D01*
X72301581Y-114000000D01*
X63685000Y-114000000D01*
X63685000Y-96000000D01*
X63801581Y-96000000D01*
X63815000Y-96067462D01*
X63815001Y-109932533D01*
X63801581Y-110000000D01*
X63854745Y-110267273D01*
X64006143Y-110493857D01*
X64232727Y-110645255D01*
X64432538Y-110685000D01*
X64432539Y-110685000D01*
X64500000Y-110698419D01*
X64567462Y-110685000D01*
X78432538Y-110685000D01*
X78500000Y-110698419D01*
X78567461Y-110685000D01*
X78567462Y-110685000D01*
X78767273Y-110645255D01*
X78993857Y-110493857D01*
X79145255Y-110267273D01*
X79198419Y-110000000D01*
X79185000Y-109932538D01*
X79185000Y-96067462D01*
X79198419Y-96000000D01*
X80801581Y-96000000D01*
X80815000Y-96067462D01*
X80815001Y-109932533D01*
X80801581Y-110000000D01*
X80854745Y-110267273D01*
X81006143Y-110493857D01*
X81232727Y-110645255D01*
X81432538Y-110685000D01*
X81432539Y-110685000D01*
X81500000Y-110698419D01*
X81567462Y-110685000D01*
X95432538Y-110685000D01*
X95500000Y-110698419D01*
X95567461Y-110685000D01*
X95567462Y-110685000D01*
X95767273Y-110645255D01*
X95993857Y-110493857D01*
X96145255Y-110267273D01*
X96198419Y-110000000D01*
X96185000Y-109932538D01*
X96185000Y-96067462D01*
X96198419Y-96000000D01*
X97801581Y-96000000D01*
X97815000Y-96067462D01*
X97815001Y-109932533D01*
X97801581Y-110000000D01*
X97854745Y-110267273D01*
X98006143Y-110493857D01*
X98232727Y-110645255D01*
X98432538Y-110685000D01*
X98432539Y-110685000D01*
X98500000Y-110698419D01*
X98567462Y-110685000D01*
X112432538Y-110685000D01*
X112500000Y-110698419D01*
X112567461Y-110685000D01*
X112567462Y-110685000D01*
X112767273Y-110645255D01*
X112993857Y-110493857D01*
X113145255Y-110267273D01*
X113198419Y-110000000D01*
X113185000Y-109932538D01*
X113185000Y-96067462D01*
X113198419Y-96000000D01*
X114801581Y-96000000D01*
X114815000Y-96067462D01*
X114815001Y-109932533D01*
X114801581Y-110000000D01*
X114854745Y-110267273D01*
X115006143Y-110493857D01*
X115232727Y-110645255D01*
X115432538Y-110685000D01*
X115432539Y-110685000D01*
X115500000Y-110698419D01*
X115567462Y-110685000D01*
X129432538Y-110685000D01*
X129500000Y-110698419D01*
X129567461Y-110685000D01*
X129567462Y-110685000D01*
X129767273Y-110645255D01*
X129993857Y-110493857D01*
X130145255Y-110267273D01*
X130198419Y-110000000D01*
X130185000Y-109932538D01*
X130185000Y-96067462D01*
X130198419Y-96000000D01*
X131801581Y-96000000D01*
X131815000Y-96067462D01*
X131815001Y-109932533D01*
X131801581Y-110000000D01*
X131854745Y-110267273D01*
X132006143Y-110493857D01*
X132232727Y-110645255D01*
X132432538Y-110685000D01*
X132432539Y-110685000D01*
X132500000Y-110698419D01*
X132567462Y-110685000D01*
X146432538Y-110685000D01*
X146500000Y-110698419D01*
X146567461Y-110685000D01*
X146567462Y-110685000D01*
X146767273Y-110645255D01*
X146993857Y-110493857D01*
X147145255Y-110267273D01*
X147198419Y-110000000D01*
X147185000Y-109932538D01*
X147185000Y-96067462D01*
X147198419Y-96000000D01*
X152801581Y-96000000D01*
X152815000Y-96067462D01*
X152815001Y-109932533D01*
X152801581Y-110000000D01*
X152854745Y-110267273D01*
X153006143Y-110493857D01*
X153232727Y-110645255D01*
X153432538Y-110685000D01*
X153432539Y-110685000D01*
X153500000Y-110698419D01*
X153567462Y-110685000D01*
X167432538Y-110685000D01*
X167500000Y-110698419D01*
X167567461Y-110685000D01*
X167567462Y-110685000D01*
X167767273Y-110645255D01*
X167993857Y-110493857D01*
X168145255Y-110267273D01*
X168198419Y-110000000D01*
X168185000Y-109932538D01*
X168185000Y-96067462D01*
X168198419Y-96000000D01*
X168145255Y-95732727D01*
X167993857Y-95506143D01*
X167767273Y-95354745D01*
X167567462Y-95315000D01*
X167500000Y-95301581D01*
X167432539Y-95315000D01*
X153567461Y-95315000D01*
X153500000Y-95301581D01*
X153432538Y-95315000D01*
X153232727Y-95354745D01*
X153006143Y-95506143D01*
X152854745Y-95732727D01*
X152801581Y-96000000D01*
X147198419Y-96000000D01*
X147145255Y-95732727D01*
X146993857Y-95506143D01*
X146767273Y-95354745D01*
X146567462Y-95315000D01*
X146500000Y-95301581D01*
X146432539Y-95315000D01*
X132567461Y-95315000D01*
X132500000Y-95301581D01*
X132432538Y-95315000D01*
X132232727Y-95354745D01*
X132006143Y-95506143D01*
X131854745Y-95732727D01*
X131801581Y-96000000D01*
X130198419Y-96000000D01*
X130145255Y-95732727D01*
X129993857Y-95506143D01*
X129767273Y-95354745D01*
X129567462Y-95315000D01*
X129500000Y-95301581D01*
X129432539Y-95315000D01*
X115567461Y-95315000D01*
X115500000Y-95301581D01*
X115432538Y-95315000D01*
X115232727Y-95354745D01*
X115006143Y-95506143D01*
X114854745Y-95732727D01*
X114801581Y-96000000D01*
X113198419Y-96000000D01*
X113145255Y-95732727D01*
X112993857Y-95506143D01*
X112767273Y-95354745D01*
X112567462Y-95315000D01*
X112500000Y-95301581D01*
X112432539Y-95315000D01*
X98567461Y-95315000D01*
X98500000Y-95301581D01*
X98432538Y-95315000D01*
X98232727Y-95354745D01*
X98006143Y-95506143D01*
X97854745Y-95732727D01*
X97801581Y-96000000D01*
X96198419Y-96000000D01*
X96145255Y-95732727D01*
X95993857Y-95506143D01*
X95767273Y-95354745D01*
X95567462Y-95315000D01*
X95500000Y-95301581D01*
X95432539Y-95315000D01*
X81567461Y-95315000D01*
X81500000Y-95301581D01*
X81432538Y-95315000D01*
X81232727Y-95354745D01*
X81006143Y-95506143D01*
X80854745Y-95732727D01*
X80801581Y-96000000D01*
X79198419Y-96000000D01*
X79145255Y-95732727D01*
X78993857Y-95506143D01*
X78767273Y-95354745D01*
X78567462Y-95315000D01*
X78500000Y-95301581D01*
X78432539Y-95315000D01*
X64567461Y-95315000D01*
X64500000Y-95301581D01*
X64432538Y-95315000D01*
X64232727Y-95354745D01*
X64006143Y-95506143D01*
X63854745Y-95732727D01*
X63801581Y-96000000D01*
X63685000Y-96000000D01*
X63685000Y-69000000D01*
X63801581Y-69000000D01*
X63815001Y-69067467D01*
X63815000Y-82932538D01*
X63801581Y-83000000D01*
X63854745Y-83267273D01*
X64006143Y-83493857D01*
X64232727Y-83645255D01*
X64500000Y-83698419D01*
X64567461Y-83685000D01*
X78432539Y-83685000D01*
X78500000Y-83698419D01*
X78767273Y-83645255D01*
X78993857Y-83493857D01*
X79145255Y-83267273D01*
X79185000Y-83067462D01*
X79185000Y-83067461D01*
X79198419Y-83000000D01*
X79185000Y-82932538D01*
X79185000Y-78000000D01*
X80801581Y-78000000D01*
X80815000Y-78067462D01*
X80815001Y-91907533D01*
X80801581Y-91975000D01*
X80854745Y-92242273D01*
X81006143Y-92468857D01*
X81232727Y-92620255D01*
X81432538Y-92660000D01*
X81432539Y-92660000D01*
X81500000Y-92673419D01*
X81567462Y-92660000D01*
X95432538Y-92660000D01*
X95500000Y-92673419D01*
X95567461Y-92660000D01*
X95567462Y-92660000D01*
X95767273Y-92620255D01*
X95993857Y-92468857D01*
X96145255Y-92242273D01*
X96198419Y-91975000D01*
X96185000Y-91907538D01*
X96185000Y-78067462D01*
X96198419Y-78000000D01*
X97801581Y-78000000D01*
X97815000Y-78067462D01*
X97815001Y-91932533D01*
X97801581Y-92000000D01*
X97854745Y-92267273D01*
X98006143Y-92493857D01*
X98232727Y-92645255D01*
X98432538Y-92685000D01*
X98432539Y-92685000D01*
X98500000Y-92698419D01*
X98567462Y-92685000D01*
X112432538Y-92685000D01*
X112500000Y-92698419D01*
X112567461Y-92685000D01*
X112567462Y-92685000D01*
X112767273Y-92645255D01*
X112993857Y-92493857D01*
X113145255Y-92267273D01*
X113198419Y-92000000D01*
X113185000Y-91932538D01*
X113185000Y-78067462D01*
X113198419Y-78000000D01*
X114801581Y-78000000D01*
X114815000Y-78067462D01*
X114815001Y-91932533D01*
X114801581Y-92000000D01*
X114854745Y-92267273D01*
X115006143Y-92493857D01*
X115232727Y-92645255D01*
X115432538Y-92685000D01*
X115432539Y-92685000D01*
X115500000Y-92698419D01*
X115567462Y-92685000D01*
X129432538Y-92685000D01*
X129500000Y-92698419D01*
X129567461Y-92685000D01*
X129567462Y-92685000D01*
X129767273Y-92645255D01*
X129993857Y-92493857D01*
X130145255Y-92267273D01*
X130198419Y-92000000D01*
X130185000Y-91932538D01*
X130185000Y-78067462D01*
X130198419Y-78000000D01*
X131801581Y-78000000D01*
X131815000Y-78067462D01*
X131815001Y-91932533D01*
X131801581Y-92000000D01*
X131854745Y-92267273D01*
X132006143Y-92493857D01*
X132232727Y-92645255D01*
X132432538Y-92685000D01*
X132432539Y-92685000D01*
X132500000Y-92698419D01*
X132567462Y-92685000D01*
X146432538Y-92685000D01*
X146500000Y-92698419D01*
X146567461Y-92685000D01*
X146567462Y-92685000D01*
X146767273Y-92645255D01*
X146993857Y-92493857D01*
X147145255Y-92267273D01*
X147198419Y-92000000D01*
X147185000Y-91932538D01*
X147185000Y-78067462D01*
X147198419Y-78000000D01*
X152801581Y-78000000D01*
X152815000Y-78067462D01*
X152815001Y-91932533D01*
X152801581Y-92000000D01*
X152854745Y-92267273D01*
X153006143Y-92493857D01*
X153232727Y-92645255D01*
X153432538Y-92685000D01*
X153432539Y-92685000D01*
X153500000Y-92698419D01*
X153567462Y-92685000D01*
X167432538Y-92685000D01*
X167500000Y-92698419D01*
X167567461Y-92685000D01*
X167567462Y-92685000D01*
X167767273Y-92645255D01*
X167993857Y-92493857D01*
X168145255Y-92267273D01*
X168198419Y-92000000D01*
X168185000Y-91932538D01*
X168185000Y-78067462D01*
X168198419Y-78000000D01*
X168145255Y-77732727D01*
X167993857Y-77506143D01*
X167767273Y-77354745D01*
X167567462Y-77315000D01*
X167500000Y-77301581D01*
X167432539Y-77315000D01*
X153567461Y-77315000D01*
X153500000Y-77301581D01*
X153432538Y-77315000D01*
X153232727Y-77354745D01*
X153006143Y-77506143D01*
X152854745Y-77732727D01*
X152801581Y-78000000D01*
X147198419Y-78000000D01*
X147145255Y-77732727D01*
X146993857Y-77506143D01*
X146767273Y-77354745D01*
X146567462Y-77315000D01*
X146500000Y-77301581D01*
X146432539Y-77315000D01*
X132567461Y-77315000D01*
X132500000Y-77301581D01*
X132432538Y-77315000D01*
X132232727Y-77354745D01*
X132006143Y-77506143D01*
X131854745Y-77732727D01*
X131801581Y-78000000D01*
X130198419Y-78000000D01*
X130145255Y-77732727D01*
X129993857Y-77506143D01*
X129767273Y-77354745D01*
X129567462Y-77315000D01*
X129500000Y-77301581D01*
X129432539Y-77315000D01*
X115567461Y-77315000D01*
X115500000Y-77301581D01*
X115432538Y-77315000D01*
X115232727Y-77354745D01*
X115006143Y-77506143D01*
X114854745Y-77732727D01*
X114801581Y-78000000D01*
X113198419Y-78000000D01*
X113145255Y-77732727D01*
X112993857Y-77506143D01*
X112767273Y-77354745D01*
X112567462Y-77315000D01*
X112500000Y-77301581D01*
X112432539Y-77315000D01*
X98567461Y-77315000D01*
X98500000Y-77301581D01*
X98432538Y-77315000D01*
X98232727Y-77354745D01*
X98006143Y-77506143D01*
X97854745Y-77732727D01*
X97801581Y-78000000D01*
X96198419Y-78000000D01*
X96145255Y-77732727D01*
X95993857Y-77506143D01*
X95767273Y-77354745D01*
X95567462Y-77315000D01*
X95500000Y-77301581D01*
X95432539Y-77315000D01*
X81567461Y-77315000D01*
X81500000Y-77301581D01*
X81432538Y-77315000D01*
X81232727Y-77354745D01*
X81006143Y-77506143D01*
X80854745Y-77732727D01*
X80801581Y-78000000D01*
X79185000Y-78000000D01*
X79185000Y-69067462D01*
X79198419Y-69000000D01*
X79145255Y-68732727D01*
X78993857Y-68506143D01*
X78767273Y-68354745D01*
X78567462Y-68315000D01*
X78567461Y-68315000D01*
X78500000Y-68301581D01*
X78432538Y-68315000D01*
X64567462Y-68315000D01*
X64500000Y-68301581D01*
X64432539Y-68315000D01*
X64432538Y-68315000D01*
X64232727Y-68354745D01*
X64006143Y-68506143D01*
X63854745Y-68732727D01*
X63801581Y-69000000D01*
X63685000Y-69000000D01*
X63685000Y-63711593D01*
X67254677Y-63711593D01*
X67265000Y-64028284D01*
X67265000Y-64345113D01*
X67276210Y-64372176D01*
X67277164Y-64401453D01*
X67497901Y-64934359D01*
X67511293Y-64939716D01*
X67529138Y-64982799D01*
X68017201Y-65470862D01*
X68060284Y-65488707D01*
X68065641Y-65502099D01*
X68362171Y-65613753D01*
X68654887Y-65735000D01*
X68684177Y-65735000D01*
X68711593Y-65745323D01*
X69028284Y-65735000D01*
X69345113Y-65735000D01*
X69372176Y-65723790D01*
X69401453Y-65722836D01*
X69934359Y-65502099D01*
X69939716Y-65488707D01*
X69982799Y-65470862D01*
X70470862Y-64982799D01*
X70488707Y-64939716D01*
X70502099Y-64934359D01*
X70613753Y-64637829D01*
X70735000Y-64345113D01*
X70735000Y-64315823D01*
X70745323Y-64288407D01*
X70735000Y-63971716D01*
X70735000Y-63654887D01*
X70723790Y-63627824D01*
X70722836Y-63598547D01*
X70502099Y-63065641D01*
X70488707Y-63060284D01*
X70470862Y-63017201D01*
X69982799Y-62529138D01*
X69939716Y-62511293D01*
X69934359Y-62497901D01*
X69637829Y-62386247D01*
X69345113Y-62265000D01*
X69315823Y-62265000D01*
X69288407Y-62254677D01*
X68971716Y-62265000D01*
X68654887Y-62265000D01*
X68627824Y-62276210D01*
X68598547Y-62277164D01*
X68065641Y-62497901D01*
X68060284Y-62511293D01*
X68017201Y-62529138D01*
X67529138Y-63017201D01*
X67511293Y-63060284D01*
X67497901Y-63065641D01*
X67386247Y-63362171D01*
X67265000Y-63654887D01*
X67265000Y-63684177D01*
X67254677Y-63711593D01*
X63685000Y-63711593D01*
X63685000Y-60000000D01*
X80801581Y-60000000D01*
X80815000Y-60067462D01*
X80815001Y-73932533D01*
X80801581Y-74000000D01*
X80854745Y-74267273D01*
X81006143Y-74493857D01*
X81232727Y-74645255D01*
X81432538Y-74685000D01*
X81432539Y-74685000D01*
X81500000Y-74698419D01*
X81567462Y-74685000D01*
X95432538Y-74685000D01*
X95500000Y-74698419D01*
X95567461Y-74685000D01*
X95567462Y-74685000D01*
X95767273Y-74645255D01*
X95993857Y-74493857D01*
X96145255Y-74267273D01*
X96198419Y-74000000D01*
X96185000Y-73932538D01*
X96185000Y-60067462D01*
X96198419Y-60000000D01*
X97801581Y-60000000D01*
X97815000Y-60067462D01*
X97815001Y-73907533D01*
X97801581Y-73975000D01*
X97854745Y-74242273D01*
X98006143Y-74468857D01*
X98232727Y-74620255D01*
X98432538Y-74660000D01*
X98432539Y-74660000D01*
X98500000Y-74673419D01*
X98567462Y-74660000D01*
X112432538Y-74660000D01*
X112500000Y-74673419D01*
X112567461Y-74660000D01*
X112567462Y-74660000D01*
X112767273Y-74620255D01*
X112993857Y-74468857D01*
X113145255Y-74242273D01*
X113180053Y-74067333D01*
X113185000Y-74042462D01*
X113185000Y-74042461D01*
X113198419Y-73975000D01*
X113185000Y-73907538D01*
X113185000Y-60067462D01*
X113198419Y-60000000D01*
X114801581Y-60000000D01*
X114815000Y-60067462D01*
X114815001Y-73932533D01*
X114801581Y-74000000D01*
X114854745Y-74267273D01*
X115006143Y-74493857D01*
X115232727Y-74645255D01*
X115432538Y-74685000D01*
X115432539Y-74685000D01*
X115500000Y-74698419D01*
X115567462Y-74685000D01*
X129432538Y-74685000D01*
X129500000Y-74698419D01*
X129567461Y-74685000D01*
X129567462Y-74685000D01*
X129767273Y-74645255D01*
X129993857Y-74493857D01*
X130145255Y-74267273D01*
X130198419Y-74000000D01*
X130185000Y-73932538D01*
X130185000Y-60067462D01*
X130198419Y-60000000D01*
X131801581Y-60000000D01*
X131815000Y-60067462D01*
X131815001Y-73932533D01*
X131801581Y-74000000D01*
X131854745Y-74267273D01*
X132006143Y-74493857D01*
X132232727Y-74645255D01*
X132432538Y-74685000D01*
X132432539Y-74685000D01*
X132500000Y-74698419D01*
X132567462Y-74685000D01*
X146432538Y-74685000D01*
X146500000Y-74698419D01*
X146567461Y-74685000D01*
X146567462Y-74685000D01*
X146767273Y-74645255D01*
X146993857Y-74493857D01*
X147145255Y-74267273D01*
X147198419Y-74000000D01*
X147185000Y-73932538D01*
X147185000Y-63711593D01*
X148254677Y-63711593D01*
X148265000Y-64028284D01*
X148265000Y-64345113D01*
X148276210Y-64372176D01*
X148277164Y-64401453D01*
X148497901Y-64934359D01*
X148511293Y-64939716D01*
X148529138Y-64982799D01*
X149017201Y-65470862D01*
X149060284Y-65488707D01*
X149065641Y-65502099D01*
X149362171Y-65613753D01*
X149654887Y-65735000D01*
X149684177Y-65735000D01*
X149711593Y-65745323D01*
X150028284Y-65735000D01*
X150345113Y-65735000D01*
X150372176Y-65723790D01*
X150401453Y-65722836D01*
X150934359Y-65502099D01*
X150939716Y-65488707D01*
X150982799Y-65470862D01*
X151470862Y-64982799D01*
X151488707Y-64939716D01*
X151502099Y-64934359D01*
X151613753Y-64637829D01*
X151735000Y-64345113D01*
X151735000Y-64315823D01*
X151745323Y-64288407D01*
X151735000Y-63971716D01*
X151735000Y-63654887D01*
X151723790Y-63627824D01*
X151722836Y-63598547D01*
X151502099Y-63065641D01*
X151488707Y-63060284D01*
X151470862Y-63017201D01*
X150982799Y-62529138D01*
X150939716Y-62511293D01*
X150934359Y-62497901D01*
X150637829Y-62386247D01*
X150345113Y-62265000D01*
X150315823Y-62265000D01*
X150288407Y-62254677D01*
X149971716Y-62265000D01*
X149654887Y-62265000D01*
X149627824Y-62276210D01*
X149598547Y-62277164D01*
X149065641Y-62497901D01*
X149060284Y-62511293D01*
X149017201Y-62529138D01*
X148529138Y-63017201D01*
X148511293Y-63060284D01*
X148497901Y-63065641D01*
X148386247Y-63362171D01*
X148265000Y-63654887D01*
X148265000Y-63684177D01*
X148254677Y-63711593D01*
X147185000Y-63711593D01*
X147185000Y-60067462D01*
X147198419Y-60000000D01*
X152801581Y-60000000D01*
X152815000Y-60067462D01*
X152815001Y-73932533D01*
X152801581Y-74000000D01*
X152854745Y-74267273D01*
X153006143Y-74493857D01*
X153232727Y-74645255D01*
X153432538Y-74685000D01*
X153432539Y-74685000D01*
X153500000Y-74698419D01*
X153567462Y-74685000D01*
X167432538Y-74685000D01*
X167500000Y-74698419D01*
X167567461Y-74685000D01*
X167567462Y-74685000D01*
X167767273Y-74645255D01*
X167993857Y-74493857D01*
X168145255Y-74267273D01*
X168198419Y-74000000D01*
X168185000Y-73932538D01*
X168185000Y-60067462D01*
X168198419Y-60000000D01*
X168145255Y-59732727D01*
X167993857Y-59506143D01*
X167767273Y-59354745D01*
X167567462Y-59315000D01*
X167500000Y-59301581D01*
X167432539Y-59315000D01*
X153567461Y-59315000D01*
X153500000Y-59301581D01*
X153432538Y-59315000D01*
X153232727Y-59354745D01*
X153006143Y-59506143D01*
X152854745Y-59732727D01*
X152801581Y-60000000D01*
X147198419Y-60000000D01*
X147145255Y-59732727D01*
X146993857Y-59506143D01*
X146767273Y-59354745D01*
X146567462Y-59315000D01*
X146500000Y-59301581D01*
X146432539Y-59315000D01*
X132567461Y-59315000D01*
X132500000Y-59301581D01*
X132432538Y-59315000D01*
X132232727Y-59354745D01*
X132006143Y-59506143D01*
X131854745Y-59732727D01*
X131801581Y-60000000D01*
X130198419Y-60000000D01*
X130145255Y-59732727D01*
X129993857Y-59506143D01*
X129767273Y-59354745D01*
X129567462Y-59315000D01*
X129500000Y-59301581D01*
X129432539Y-59315000D01*
X115567461Y-59315000D01*
X115500000Y-59301581D01*
X115432538Y-59315000D01*
X115232727Y-59354745D01*
X115006143Y-59506143D01*
X114854745Y-59732727D01*
X114801581Y-60000000D01*
X113198419Y-60000000D01*
X113145255Y-59732727D01*
X112993857Y-59506143D01*
X112767273Y-59354745D01*
X112567462Y-59315000D01*
X112500000Y-59301581D01*
X112432539Y-59315000D01*
X98567461Y-59315000D01*
X98500000Y-59301581D01*
X98432538Y-59315000D01*
X98232727Y-59354745D01*
X98006143Y-59506143D01*
X97854745Y-59732727D01*
X97801581Y-60000000D01*
X96198419Y-60000000D01*
X96145255Y-59732727D01*
X95993857Y-59506143D01*
X95767273Y-59354745D01*
X95567462Y-59315000D01*
X95500000Y-59301581D01*
X95432539Y-59315000D01*
X81567461Y-59315000D01*
X81500000Y-59301581D01*
X81432538Y-59315000D01*
X81232727Y-59354745D01*
X81006143Y-59506143D01*
X80854745Y-59732727D01*
X80801581Y-60000000D01*
X63685000Y-60000000D01*
X63685000Y-58783736D01*
X63783736Y-58685000D01*
X169216264Y-58685000D01*
X169315001Y-58783737D01*
M02*
