M48
; DRILL file {KiCad (5.1.5)-3} date 2021/03/06 1:46:06
; FORMAT={-:-/ absolute / metric / decimal}
; #@! TF.CreationDate,2021-03-06T01:46:06+09:00
; #@! TF.GenerationSoftware,Kicad,Pcbnew,(5.1.5)-3
; #@! TF.FileFunction,Plated,1,2,PTH
FMAT,2
METRIC
T1C0.400
T2C0.813
T3C1.000
T4C1.300
%
G90
G05
T1
X138.25Y-105.5
X138.987Y-137.013
X141.25Y-133.75
X141.7Y-142.0
X142.0Y-131.5
X142.25Y-103.25
X142.9Y-114.2
X143.0Y-116.0
X143.0Y-117.0
X143.0Y-119.013
X143.75Y-123.75
X144.0Y-139.0
X144.25Y-133.25
X144.25Y-142.0
X145.75Y-139.0
X145.75Y-142.0
X145.75Y-151.25
X146.25Y-116.0
X146.25Y-117.0
X146.25Y-119.0
X146.5Y-132.25
X150.0Y-129.5
X150.5Y-149.5
X151.0Y-140.5
X151.5Y-136.5
X152.0Y-114.5
X152.2Y-151.5
X152.5Y-129.75
X153.75Y-136.5
X155.0Y-113.5
X155.0Y-122.5
X155.5Y-134.0
X156.5Y-122.5
X157.25Y-154.0
X160.0Y-106.5
X160.0Y-140.5
X160.5Y-123.5
X162.5Y-133.0
X163.0Y-116.25
X163.75Y-153.25
X164.75Y-148.5
X165.237Y-112.987
X166.75Y-119.0
X167.5Y-140.0
X167.5Y-150.0
X168.0Y-125.0
X168.75Y-138.0
X169.0Y-114.5
X171.0Y-107.0
X171.75Y-115.75
X173.25Y-133.25
X173.5Y-121.5
X173.75Y-153.25
X174.5Y-138.0
X179.5Y-124.5
T2
X105.822Y-103.294
X105.822Y-118.514
X108.362Y-103.294
X108.362Y-118.514
X110.902Y-103.294
X110.902Y-118.514
X113.442Y-103.294
X113.442Y-118.514
X115.982Y-103.294
X115.982Y-118.514
X118.522Y-103.294
X118.522Y-118.514
X121.062Y-103.294
X121.062Y-118.514
X123.602Y-103.294
X123.602Y-118.514
X126.142Y-103.294
X126.142Y-118.514
X128.682Y-103.294
X128.682Y-118.514
X131.222Y-103.294
X131.222Y-118.514
X133.762Y-103.294
X133.762Y-118.514
T4
X139.0Y-107.7
X139.0Y-114.2
T3
G00X102.45Y-142.95
M15
G01X102.45Y-142.45
M16
G05
G00X102.45Y-146.95
M15
G01X102.45Y-146.45
M16
G05
G00X102.45Y-149.95
M15
G01X102.45Y-149.45
M16
G05
G00X106.65Y-141.45
M15
G01X106.65Y-140.95
M16
G05
T0
M30
