G04 #@! TF.GenerationSoftware,KiCad,Pcbnew,(5.1.5)-3*
G04 #@! TF.CreationDate,2021-03-06T01:45:53+09:00*
G04 #@! TF.ProjectId,Nafuda,4e616675-6461-42e6-9b69-6361645f7063,rev?*
G04 #@! TF.SameCoordinates,Original*
G04 #@! TF.FileFunction,Profile,NP*
%FSLAX46Y46*%
G04 Gerber Fmt 4.6, Leading zero omitted, Abs format (unit mm)*
G04 Created by KiCad (PCBNEW (5.1.5)-3) date 2021-03-06 01:45:53*
%MOMM*%
%LPD*%
G04 APERTURE LIST*
%ADD10C,0.100000*%
G04 APERTURE END LIST*
D10*
X166000000Y-107750000D02*
X166000000Y-111250000D01*
X170500000Y-107750000D02*
X166000000Y-107750000D01*
X170500000Y-111250000D02*
X170500000Y-107750000D01*
X166000000Y-111250000D02*
X170500000Y-111250000D01*
X179000000Y-125750000D02*
X174500000Y-125750000D01*
X174500000Y-129250000D02*
X179000000Y-129250000D01*
X174500000Y-125750000D02*
X174500000Y-129250000D01*
X179000000Y-129250000D02*
X179000000Y-125750000D01*
X153500000Y-111250000D02*
X149000000Y-111250000D01*
X153500000Y-107750000D02*
X153500000Y-111250000D01*
X149000000Y-107750000D02*
X153500000Y-107750000D01*
X149000000Y-111250000D02*
X149000000Y-107750000D01*
X153500000Y-147250000D02*
X149000000Y-147250000D01*
X153500000Y-143750000D02*
X153500000Y-147250000D01*
X149000000Y-143750000D02*
X153500000Y-143750000D01*
X149000000Y-147250000D02*
X149000000Y-143750000D01*
X170500000Y-147250000D02*
X166000000Y-147250000D01*
X170500000Y-143750000D02*
X170500000Y-147250000D01*
X166000000Y-143750000D02*
X170500000Y-143750000D01*
X166000000Y-147250000D02*
X166000000Y-143750000D01*
X140500000Y-129250000D02*
X140500000Y-125750000D01*
X145000000Y-129250000D02*
X140500000Y-129250000D01*
X145000000Y-125750000D02*
X145000000Y-129250000D01*
X140500000Y-125750000D02*
X145000000Y-125750000D01*
X157500000Y-125750000D02*
X157500000Y-129250000D01*
X162000000Y-125750000D02*
X157500000Y-125750000D01*
X162000000Y-129250000D02*
X162000000Y-125750000D01*
X157500000Y-129250000D02*
X162000000Y-129250000D01*
X102000000Y-155000000D02*
G75*
G02X100000000Y-153000000I0J2000000D01*
G01*
X100000000Y-102000000D02*
G75*
G02X102000000Y-100000000I2000000J0D01*
G01*
X189000000Y-100000000D02*
G75*
G02X191000000Y-102000000I0J-2000000D01*
G01*
X191000000Y-153000000D02*
G75*
G02X189000000Y-155000000I-2000000J0D01*
G01*
X102000000Y-100000000D02*
X189000000Y-100000000D01*
X191000000Y-102000000D02*
X191000000Y-153000000D01*
X102000000Y-155000000D02*
X189000000Y-155000000D01*
X100000000Y-102000000D02*
X100000000Y-153000000D01*
M02*
