M48
; DRILL file {KiCad (5.1.5)-3} date 2021/03/06 2:31:43
; FORMAT={-:-/ absolute / metric / decimal}
; #@! TF.CreationDate,2021-03-06T02:31:43+09:00
; #@! TF.GenerationSoftware,Kicad,Pcbnew,(5.1.5)-3
; #@! TF.FileFunction,NonPlated,1,2,NPTH
FMAT,2
METRIC
T1C1.200
T2C1.800
T3C2.200
T4C3.000
T5C3.048
T6C3.988
T7C4.000
T8C4.300
%
G90
G05
T1
X27.275Y-13.6
X34.275Y-13.6
T2
X39.695Y-124.75
X49.855Y-124.75
X92.4Y-72.045
X92.4Y-82.205
X92.4Y-110.145
X92.4Y-120.305
T3
X49.22Y-48.55
X59.38Y-48.55
X87.32Y-24.5
X97.48Y-24.5
X49.22Y-86.65
X59.38Y-86.65
X87.32Y-48.55
X97.48Y-48.55
X30.17Y-67.6
X40.33Y-67.6
X68.27Y-86.65
X78.43Y-86.65
X68.27Y-48.55
X78.43Y-48.55
X68.27Y-124.75
X78.43Y-124.75
X30.17Y-24.5
X40.33Y-24.5
X30.17Y-86.65
X40.33Y-86.65
X109.426Y-123.013
X118.974Y-126.487
X109.426Y-82.443
X118.974Y-85.917
X30.17Y-48.55
X40.33Y-48.55
X109.426Y-62.163
X118.974Y-65.637
X30.17Y-105.7
X40.33Y-105.7
X109.426Y-102.733
X118.974Y-106.207
X49.22Y-67.6
X59.38Y-67.6
X49.22Y-24.5
X59.38Y-24.5
X49.22Y-105.7
X59.38Y-105.7
X68.27Y-67.6
X78.43Y-67.6
X68.27Y-24.5
X78.43Y-24.5
X68.27Y-105.7
X78.43Y-105.7
T4
X50.49Y-65.06
X56.84Y-62.52
X51.76Y-29.58
X58.11Y-27.04
X50.49Y-103.16
X56.84Y-100.62
X69.54Y-65.06
X75.89Y-62.52
X70.81Y-29.58
X77.16Y-27.04
X69.54Y-103.16
X75.89Y-100.62
X50.49Y-46.01
X56.84Y-43.47
X89.86Y-29.58
X96.21Y-27.04
X50.49Y-84.11
X56.84Y-81.57
X40.965Y-122.21
X47.315Y-119.67
X88.59Y-46.01
X94.94Y-43.47
X31.44Y-65.06
X37.79Y-62.52
X87.32Y-74.585
X89.86Y-80.935
X69.54Y-84.11
X75.89Y-81.57
X87.32Y-112.685
X89.86Y-119.035
X69.54Y-46.01
X75.89Y-43.47
X69.54Y-122.21
X75.89Y-119.67
X32.71Y-29.58
X39.06Y-27.04
X31.44Y-84.11
X37.79Y-81.57
X110.076Y-128.655
X116.911Y-128.44
X110.076Y-88.085
X116.911Y-87.87
X31.44Y-46.01
X37.79Y-43.47
X110.076Y-67.805
X116.911Y-67.59
X31.44Y-103.16
X37.79Y-100.62
X110.076Y-108.375
X116.911Y-108.16
T5
X32.837Y-131.735
X56.713Y-131.735
X99.385Y-65.187
X99.385Y-89.063
X99.385Y-103.287
X99.385Y-127.163
T6
X32.837Y-116.495
X56.713Y-116.495
X84.145Y-65.187
X84.145Y-89.063
X84.145Y-103.287
X84.145Y-127.163
T7
X73.35Y-48.55
X73.35Y-124.75
X35.25Y-24.5
X35.25Y-86.65
X114.2Y-124.75
X114.2Y-84.18
X35.25Y-48.55
X114.2Y-63.9
X35.25Y-105.7
X114.2Y-104.47
X54.3Y-67.6
X54.3Y-24.5
X54.3Y-105.7
X73.35Y-67.6
X73.35Y-24.5
X73.35Y-105.7
X54.3Y-48.55
X92.4Y-24.5
X54.3Y-86.65
X44.775Y-124.75
X92.4Y-48.55
X35.25Y-67.6
X92.4Y-77.125
X73.35Y-86.65
X92.4Y-115.225
T8
X63.825Y-134.037
X104.55Y-12.594
X82.875Y-12.594
X44.775Y-12.594
X123.356Y-74.506
X104.55Y-45.0
X123.356Y-53.9
X25.725Y-57.837
X25.725Y-114.987
T0
M30
