G04 #@! TF.GenerationSoftware,KiCad,Pcbnew,(5.1.5)-3*
G04 #@! TF.CreationDate,2021-03-06T02:31:41+09:00*
G04 #@! TF.ProjectId,Getta25,47657474-6132-4352-9e6b-696361645f70,rev?*
G04 #@! TF.SameCoordinates,Original*
G04 #@! TF.FileFunction,Legend,Top*
G04 #@! TF.FilePolarity,Positive*
%FSLAX46Y46*%
G04 Gerber Fmt 4.6, Leading zero omitted, Abs format (unit mm)*
G04 Created by KiCad (PCBNEW (5.1.5)-3) date 2021-03-06 02:31:41*
%MOMM*%
%LPD*%
G04 APERTURE LIST*
%ADD10C,0.180000*%
%ADD11C,0.200000*%
%ADD12C,0.150000*%
%ADD13C,0.300000*%
%ADD14C,0.125000*%
%ADD15C,0.010000*%
G04 APERTURE END LIST*
D10*
X115150000Y-14228571D02*
X115292857Y-14276190D01*
X115340476Y-14323809D01*
X115388095Y-14419047D01*
X115388095Y-14561904D01*
X115340476Y-14657142D01*
X115292857Y-14704761D01*
X115197619Y-14752380D01*
X114816666Y-14752380D01*
X114816666Y-13752380D01*
X115150000Y-13752380D01*
X115245238Y-13800000D01*
X115292857Y-13847619D01*
X115340476Y-13942857D01*
X115340476Y-14038095D01*
X115292857Y-14133333D01*
X115245238Y-14180952D01*
X115150000Y-14228571D01*
X114816666Y-14228571D01*
X115816666Y-14752380D02*
X115816666Y-13752380D01*
X116150000Y-14466666D01*
X116483333Y-13752380D01*
X116483333Y-14752380D01*
X116959523Y-14752380D02*
X116959523Y-13752380D01*
X117340476Y-13752380D01*
X117435714Y-13800000D01*
X117483333Y-13847619D01*
X117530952Y-13942857D01*
X117530952Y-14085714D01*
X117483333Y-14180952D01*
X117435714Y-14228571D01*
X117340476Y-14276190D01*
X116959523Y-14276190D01*
D11*
X109750000Y-15600000D02*
X122450000Y-15600000D01*
D12*
G36*
X109650000Y-15500000D02*
G01*
X107250000Y-15500000D01*
X107250000Y-13100000D01*
X109650000Y-13100000D01*
X109650000Y-15500000D01*
G37*
X109650000Y-15500000D02*
X107250000Y-15500000D01*
X107250000Y-13100000D01*
X109650000Y-13100000D01*
X109650000Y-15500000D01*
G36*
X124850000Y-15500000D02*
G01*
X122450000Y-15500000D01*
X122450000Y-13100000D01*
X124850000Y-13100000D01*
X124850000Y-15500000D01*
G37*
X124850000Y-15500000D02*
X122450000Y-15500000D01*
X122450000Y-13100000D01*
X124850000Y-13100000D01*
X124850000Y-15500000D01*
D13*
X85885714Y-130150000D02*
X85742857Y-130078571D01*
X85528571Y-130078571D01*
X85314285Y-130150000D01*
X85171428Y-130292857D01*
X85100000Y-130435714D01*
X85028571Y-130721428D01*
X85028571Y-130935714D01*
X85100000Y-131221428D01*
X85171428Y-131364285D01*
X85314285Y-131507142D01*
X85528571Y-131578571D01*
X85671428Y-131578571D01*
X85885714Y-131507142D01*
X85957142Y-131435714D01*
X85957142Y-130935714D01*
X85671428Y-130935714D01*
X87171428Y-131507142D02*
X87028571Y-131578571D01*
X86742857Y-131578571D01*
X86600000Y-131507142D01*
X86528571Y-131364285D01*
X86528571Y-130792857D01*
X86600000Y-130650000D01*
X86742857Y-130578571D01*
X87028571Y-130578571D01*
X87171428Y-130650000D01*
X87242857Y-130792857D01*
X87242857Y-130935714D01*
X86528571Y-131078571D01*
X87671428Y-130578571D02*
X88242857Y-130578571D01*
X87885714Y-130078571D02*
X87885714Y-131364285D01*
X87957142Y-131507142D01*
X88100000Y-131578571D01*
X88242857Y-131578571D01*
X88528571Y-130578571D02*
X89100000Y-130578571D01*
X88742857Y-130078571D02*
X88742857Y-131364285D01*
X88814285Y-131507142D01*
X88957142Y-131578571D01*
X89100000Y-131578571D01*
X90242857Y-131578571D02*
X90242857Y-130792857D01*
X90171428Y-130650000D01*
X90028571Y-130578571D01*
X89742857Y-130578571D01*
X89600000Y-130650000D01*
X90242857Y-131507142D02*
X90100000Y-131578571D01*
X89742857Y-131578571D01*
X89600000Y-131507142D01*
X89528571Y-131364285D01*
X89528571Y-131221428D01*
X89600000Y-131078571D01*
X89742857Y-131007142D01*
X90100000Y-131007142D01*
X90242857Y-130935714D01*
X90885714Y-130221428D02*
X90957142Y-130150000D01*
X91100000Y-130078571D01*
X91457142Y-130078571D01*
X91600000Y-130150000D01*
X91671428Y-130221428D01*
X91742857Y-130364285D01*
X91742857Y-130507142D01*
X91671428Y-130721428D01*
X90814285Y-131578571D01*
X91742857Y-131578571D01*
X93100000Y-130078571D02*
X92385714Y-130078571D01*
X92314285Y-130792857D01*
X92385714Y-130721428D01*
X92528571Y-130650000D01*
X92885714Y-130650000D01*
X93028571Y-130721428D01*
X93100000Y-130792857D01*
X93171428Y-130935714D01*
X93171428Y-131292857D01*
X93100000Y-131435714D01*
X93028571Y-131507142D01*
X92885714Y-131578571D01*
X92528571Y-131578571D01*
X92385714Y-131507142D01*
X92314285Y-131435714D01*
X95814285Y-131578571D02*
X95314285Y-130864285D01*
X94957142Y-131578571D02*
X94957142Y-130078571D01*
X95528571Y-130078571D01*
X95671428Y-130150000D01*
X95742857Y-130221428D01*
X95814285Y-130364285D01*
X95814285Y-130578571D01*
X95742857Y-130721428D01*
X95671428Y-130792857D01*
X95528571Y-130864285D01*
X94957142Y-130864285D01*
X97028571Y-131507142D02*
X96885714Y-131578571D01*
X96600000Y-131578571D01*
X96457142Y-131507142D01*
X96385714Y-131364285D01*
X96385714Y-130792857D01*
X96457142Y-130650000D01*
X96600000Y-130578571D01*
X96885714Y-130578571D01*
X97028571Y-130650000D01*
X97100000Y-130792857D01*
X97100000Y-130935714D01*
X96385714Y-131078571D01*
X97600000Y-130578571D02*
X97957142Y-131578571D01*
X98314285Y-130578571D01*
X98814285Y-130221428D02*
X98885714Y-130150000D01*
X99028571Y-130078571D01*
X99385714Y-130078571D01*
X99528571Y-130150000D01*
X99600000Y-130221428D01*
X99671428Y-130364285D01*
X99671428Y-130507142D01*
X99600000Y-130721428D01*
X98742857Y-131578571D01*
X99671428Y-131578571D01*
D14*
X110219047Y-42639285D02*
X110052380Y-42282142D01*
X109933333Y-42639285D02*
X109933333Y-41889285D01*
X110123809Y-41889285D01*
X110171428Y-41925000D01*
X110195238Y-41960714D01*
X110219047Y-42032142D01*
X110219047Y-42139285D01*
X110195238Y-42210714D01*
X110171428Y-42246428D01*
X110123809Y-42282142D01*
X109933333Y-42282142D01*
X110528571Y-41889285D02*
X110623809Y-41889285D01*
X110671428Y-41925000D01*
X110719047Y-41996428D01*
X110742857Y-42139285D01*
X110742857Y-42389285D01*
X110719047Y-42532142D01*
X110671428Y-42603571D01*
X110623809Y-42639285D01*
X110528571Y-42639285D01*
X110480952Y-42603571D01*
X110433333Y-42532142D01*
X110409523Y-42389285D01*
X110409523Y-42139285D01*
X110433333Y-41996428D01*
X110480952Y-41925000D01*
X110528571Y-41889285D01*
X110909523Y-41889285D02*
X111028571Y-42639285D01*
X111123809Y-42103571D01*
X111219047Y-42639285D01*
X111338095Y-41889285D01*
X111742857Y-42139285D02*
X111742857Y-42639285D01*
X111623809Y-41853571D02*
X111504761Y-42389285D01*
X111814285Y-42389285D01*
D12*
X122386400Y-46082000D02*
X122386400Y-13062000D01*
X124926400Y-46082000D02*
X122386400Y-46082000D01*
X124926400Y-13062000D02*
X124926400Y-46082000D01*
X122386400Y-13062000D02*
X124926400Y-13062000D01*
X107166400Y-46082000D02*
X107166400Y-13062000D01*
X109706400Y-46082000D02*
X107166400Y-46082000D01*
X109706400Y-13062000D02*
X109706400Y-46082000D01*
X107166400Y-13062000D02*
X109706400Y-13062000D01*
X122386400Y-15602000D02*
X124926400Y-15602000D01*
X107166400Y-15602000D02*
X109706400Y-15602000D01*
X51300000Y-13775000D02*
X51300000Y-14025000D01*
X57300000Y-14025000D02*
X57300000Y-13775000D01*
X57300000Y-10775000D02*
X57300000Y-10525000D01*
X51300000Y-10525000D02*
X51300000Y-10775000D01*
X110930000Y-50470000D02*
X121090000Y-50470000D01*
X110930000Y-47930000D02*
X121090000Y-47930000D01*
X121090000Y-47930000D02*
X121090000Y-50470000D01*
X110930000Y-50470000D02*
X110930000Y-47930000D01*
D15*
G36*
X114657449Y-24312078D02*
G01*
X114699705Y-24326643D01*
X114731057Y-24348199D01*
X114745373Y-24375111D01*
X114745306Y-24384948D01*
X114733549Y-24462368D01*
X114721528Y-24531530D01*
X114710020Y-24588758D01*
X114699805Y-24630377D01*
X114691659Y-24652711D01*
X114688067Y-24655312D01*
X114681938Y-24658288D01*
X114684157Y-24667737D01*
X114683344Y-24686294D01*
X114676090Y-24724283D01*
X114663498Y-24776881D01*
X114646670Y-24839266D01*
X114638252Y-24868421D01*
X114603682Y-24988089D01*
X114576413Y-25088708D01*
X114555507Y-25175255D01*
X114540023Y-25252707D01*
X114529023Y-25326040D01*
X114521568Y-25400231D01*
X114516717Y-25480258D01*
X114515083Y-25520924D01*
X114512769Y-25638026D01*
X114515537Y-25739039D01*
X114524360Y-25832939D01*
X114540209Y-25928702D01*
X114564059Y-26035303D01*
X114575965Y-26082633D01*
X114589869Y-26140386D01*
X114599905Y-26189539D01*
X114605089Y-26224694D01*
X114604652Y-26240170D01*
X114604157Y-26247543D01*
X114612938Y-26243426D01*
X114624103Y-26241240D01*
X114622872Y-26258763D01*
X114622111Y-26261770D01*
X114619217Y-26280578D01*
X114622613Y-26282419D01*
X114630327Y-26289392D01*
X114643686Y-26314870D01*
X114660525Y-26353192D01*
X114678675Y-26398693D01*
X114695968Y-26445713D01*
X114710237Y-26488587D01*
X114719314Y-26521653D01*
X114721031Y-26539250D01*
X114720983Y-26539384D01*
X114720869Y-26550637D01*
X114724925Y-26549655D01*
X114732764Y-26558837D01*
X114748575Y-26588473D01*
X114771009Y-26635389D01*
X114798716Y-26696411D01*
X114830348Y-26768366D01*
X114864554Y-26848080D01*
X114899985Y-26932379D01*
X114935291Y-27018090D01*
X114969124Y-27102039D01*
X115000133Y-27181052D01*
X115026969Y-27251955D01*
X115045638Y-27303900D01*
X115077948Y-27400515D01*
X115105836Y-27490826D01*
X115128420Y-27571450D01*
X115144821Y-27639003D01*
X115154159Y-27690101D01*
X115155554Y-27721360D01*
X115154978Y-27724305D01*
X115154700Y-27740831D01*
X115161776Y-27740334D01*
X115169834Y-27744913D01*
X115170177Y-27772079D01*
X115169595Y-27777525D01*
X115168301Y-27805489D01*
X115171765Y-27817589D01*
X115173210Y-27817316D01*
X115179354Y-27825364D01*
X115184843Y-27854627D01*
X115189453Y-27900923D01*
X115192959Y-27960070D01*
X115195137Y-28027887D01*
X115195761Y-28100191D01*
X115194607Y-28172802D01*
X115193699Y-28198536D01*
X115176808Y-28381962D01*
X115140555Y-28572329D01*
X115084233Y-28773266D01*
X115078192Y-28791882D01*
X115050024Y-28874117D01*
X115021562Y-28950677D01*
X114994239Y-29018296D01*
X114969486Y-29073704D01*
X114948736Y-29113633D01*
X114933421Y-29134816D01*
X114926992Y-29136943D01*
X114919918Y-29136859D01*
X114923274Y-29144145D01*
X114921625Y-29161379D01*
X114909520Y-29196335D01*
X114889055Y-29244655D01*
X114862325Y-29301977D01*
X114831423Y-29363942D01*
X114798445Y-29426189D01*
X114765484Y-29484358D01*
X114739653Y-29526400D01*
X114696353Y-29590622D01*
X114663086Y-29633150D01*
X114638804Y-29655148D01*
X114622461Y-29657778D01*
X114621791Y-29657396D01*
X114614878Y-29657679D01*
X114617182Y-29662754D01*
X114615138Y-29681569D01*
X114594011Y-29707030D01*
X114558289Y-29736318D01*
X114512458Y-29766615D01*
X114461007Y-29795102D01*
X114408422Y-29818961D01*
X114359192Y-29835373D01*
X114334508Y-29840295D01*
X114305126Y-29843073D01*
X114289097Y-29837210D01*
X114279312Y-29816874D01*
X114271865Y-29788898D01*
X114258478Y-29711545D01*
X114257835Y-29631829D01*
X114270623Y-29545580D01*
X114297530Y-29448628D01*
X114339242Y-29336804D01*
X114351052Y-29308424D01*
X114386679Y-29222074D01*
X114413387Y-29151293D01*
X114433431Y-29088838D01*
X114449064Y-29027469D01*
X114462543Y-28959943D01*
X114466417Y-28937910D01*
X114504307Y-28657360D01*
X114520496Y-28379107D01*
X114519654Y-28192900D01*
X114513769Y-28054246D01*
X114503768Y-27934896D01*
X114488442Y-27828919D01*
X114466581Y-27730385D01*
X114436977Y-27633364D01*
X114398421Y-27531926D01*
X114372519Y-27471095D01*
X114354606Y-27426146D01*
X114343273Y-27389371D01*
X114340480Y-27367396D01*
X114341232Y-27365163D01*
X114342682Y-27356439D01*
X114338023Y-27358254D01*
X114327153Y-27351429D01*
X114309058Y-27326948D01*
X114286710Y-27290417D01*
X114263081Y-27247441D01*
X114241143Y-27203627D01*
X114223869Y-27164582D01*
X114214232Y-27135911D01*
X114213972Y-27124284D01*
X114215667Y-27115256D01*
X114210602Y-27117214D01*
X114199323Y-27110722D01*
X114181237Y-27086672D01*
X114159428Y-27050903D01*
X114136983Y-27009252D01*
X114116985Y-26967557D01*
X114102518Y-26931655D01*
X114096668Y-26907384D01*
X114097242Y-26902677D01*
X114098176Y-26889786D01*
X114093184Y-26890541D01*
X114082918Y-26883553D01*
X114068014Y-26856234D01*
X114049861Y-26812930D01*
X114029850Y-26757985D01*
X114009370Y-26695742D01*
X113989812Y-26630546D01*
X113972566Y-26566741D01*
X113959022Y-26508672D01*
X113950571Y-26460683D01*
X113948520Y-26438468D01*
X113945636Y-26404900D01*
X113940971Y-26385949D01*
X113938253Y-26384236D01*
X113933280Y-26374764D01*
X113926607Y-26345411D01*
X113919348Y-26301538D01*
X113916028Y-26277257D01*
X113910084Y-26217616D01*
X113905805Y-26147239D01*
X113903121Y-26069885D01*
X113901963Y-25989310D01*
X113902261Y-25909271D01*
X113903946Y-25833525D01*
X113906949Y-25765830D01*
X113911199Y-25709942D01*
X113916628Y-25669619D01*
X113923166Y-25648619D01*
X113927688Y-25646913D01*
X113932863Y-25641972D01*
X113930936Y-25628100D01*
X113930407Y-25600254D01*
X113936764Y-25552929D01*
X113948935Y-25490765D01*
X113965848Y-25418404D01*
X113986429Y-25340486D01*
X114009607Y-25261654D01*
X114030305Y-25198105D01*
X114058515Y-25121239D01*
X114091741Y-25039522D01*
X114128390Y-24956033D01*
X114166869Y-24873855D01*
X114205584Y-24796067D01*
X114242943Y-24725751D01*
X114277353Y-24665986D01*
X114307221Y-24619855D01*
X114330953Y-24590438D01*
X114346957Y-24580815D01*
X114349112Y-24581550D01*
X114356808Y-24582058D01*
X114353984Y-24575720D01*
X114353506Y-24556745D01*
X114364545Y-24532506D01*
X114381104Y-24512068D01*
X114397190Y-24504494D01*
X114400351Y-24505621D01*
X114407554Y-24505687D01*
X114404721Y-24499419D01*
X114407378Y-24482653D01*
X114422843Y-24453018D01*
X114446899Y-24416494D01*
X114475328Y-24379059D01*
X114503914Y-24346695D01*
X114526553Y-24326660D01*
X114564743Y-24310454D01*
X114610419Y-24306137D01*
X114657449Y-24312078D01*
G37*
X114657449Y-24312078D02*
X114699705Y-24326643D01*
X114731057Y-24348199D01*
X114745373Y-24375111D01*
X114745306Y-24384948D01*
X114733549Y-24462368D01*
X114721528Y-24531530D01*
X114710020Y-24588758D01*
X114699805Y-24630377D01*
X114691659Y-24652711D01*
X114688067Y-24655312D01*
X114681938Y-24658288D01*
X114684157Y-24667737D01*
X114683344Y-24686294D01*
X114676090Y-24724283D01*
X114663498Y-24776881D01*
X114646670Y-24839266D01*
X114638252Y-24868421D01*
X114603682Y-24988089D01*
X114576413Y-25088708D01*
X114555507Y-25175255D01*
X114540023Y-25252707D01*
X114529023Y-25326040D01*
X114521568Y-25400231D01*
X114516717Y-25480258D01*
X114515083Y-25520924D01*
X114512769Y-25638026D01*
X114515537Y-25739039D01*
X114524360Y-25832939D01*
X114540209Y-25928702D01*
X114564059Y-26035303D01*
X114575965Y-26082633D01*
X114589869Y-26140386D01*
X114599905Y-26189539D01*
X114605089Y-26224694D01*
X114604652Y-26240170D01*
X114604157Y-26247543D01*
X114612938Y-26243426D01*
X114624103Y-26241240D01*
X114622872Y-26258763D01*
X114622111Y-26261770D01*
X114619217Y-26280578D01*
X114622613Y-26282419D01*
X114630327Y-26289392D01*
X114643686Y-26314870D01*
X114660525Y-26353192D01*
X114678675Y-26398693D01*
X114695968Y-26445713D01*
X114710237Y-26488587D01*
X114719314Y-26521653D01*
X114721031Y-26539250D01*
X114720983Y-26539384D01*
X114720869Y-26550637D01*
X114724925Y-26549655D01*
X114732764Y-26558837D01*
X114748575Y-26588473D01*
X114771009Y-26635389D01*
X114798716Y-26696411D01*
X114830348Y-26768366D01*
X114864554Y-26848080D01*
X114899985Y-26932379D01*
X114935291Y-27018090D01*
X114969124Y-27102039D01*
X115000133Y-27181052D01*
X115026969Y-27251955D01*
X115045638Y-27303900D01*
X115077948Y-27400515D01*
X115105836Y-27490826D01*
X115128420Y-27571450D01*
X115144821Y-27639003D01*
X115154159Y-27690101D01*
X115155554Y-27721360D01*
X115154978Y-27724305D01*
X115154700Y-27740831D01*
X115161776Y-27740334D01*
X115169834Y-27744913D01*
X115170177Y-27772079D01*
X115169595Y-27777525D01*
X115168301Y-27805489D01*
X115171765Y-27817589D01*
X115173210Y-27817316D01*
X115179354Y-27825364D01*
X115184843Y-27854627D01*
X115189453Y-27900923D01*
X115192959Y-27960070D01*
X115195137Y-28027887D01*
X115195761Y-28100191D01*
X115194607Y-28172802D01*
X115193699Y-28198536D01*
X115176808Y-28381962D01*
X115140555Y-28572329D01*
X115084233Y-28773266D01*
X115078192Y-28791882D01*
X115050024Y-28874117D01*
X115021562Y-28950677D01*
X114994239Y-29018296D01*
X114969486Y-29073704D01*
X114948736Y-29113633D01*
X114933421Y-29134816D01*
X114926992Y-29136943D01*
X114919918Y-29136859D01*
X114923274Y-29144145D01*
X114921625Y-29161379D01*
X114909520Y-29196335D01*
X114889055Y-29244655D01*
X114862325Y-29301977D01*
X114831423Y-29363942D01*
X114798445Y-29426189D01*
X114765484Y-29484358D01*
X114739653Y-29526400D01*
X114696353Y-29590622D01*
X114663086Y-29633150D01*
X114638804Y-29655148D01*
X114622461Y-29657778D01*
X114621791Y-29657396D01*
X114614878Y-29657679D01*
X114617182Y-29662754D01*
X114615138Y-29681569D01*
X114594011Y-29707030D01*
X114558289Y-29736318D01*
X114512458Y-29766615D01*
X114461007Y-29795102D01*
X114408422Y-29818961D01*
X114359192Y-29835373D01*
X114334508Y-29840295D01*
X114305126Y-29843073D01*
X114289097Y-29837210D01*
X114279312Y-29816874D01*
X114271865Y-29788898D01*
X114258478Y-29711545D01*
X114257835Y-29631829D01*
X114270623Y-29545580D01*
X114297530Y-29448628D01*
X114339242Y-29336804D01*
X114351052Y-29308424D01*
X114386679Y-29222074D01*
X114413387Y-29151293D01*
X114433431Y-29088838D01*
X114449064Y-29027469D01*
X114462543Y-28959943D01*
X114466417Y-28937910D01*
X114504307Y-28657360D01*
X114520496Y-28379107D01*
X114519654Y-28192900D01*
X114513769Y-28054246D01*
X114503768Y-27934896D01*
X114488442Y-27828919D01*
X114466581Y-27730385D01*
X114436977Y-27633364D01*
X114398421Y-27531926D01*
X114372519Y-27471095D01*
X114354606Y-27426146D01*
X114343273Y-27389371D01*
X114340480Y-27367396D01*
X114341232Y-27365163D01*
X114342682Y-27356439D01*
X114338023Y-27358254D01*
X114327153Y-27351429D01*
X114309058Y-27326948D01*
X114286710Y-27290417D01*
X114263081Y-27247441D01*
X114241143Y-27203627D01*
X114223869Y-27164582D01*
X114214232Y-27135911D01*
X114213972Y-27124284D01*
X114215667Y-27115256D01*
X114210602Y-27117214D01*
X114199323Y-27110722D01*
X114181237Y-27086672D01*
X114159428Y-27050903D01*
X114136983Y-27009252D01*
X114116985Y-26967557D01*
X114102518Y-26931655D01*
X114096668Y-26907384D01*
X114097242Y-26902677D01*
X114098176Y-26889786D01*
X114093184Y-26890541D01*
X114082918Y-26883553D01*
X114068014Y-26856234D01*
X114049861Y-26812930D01*
X114029850Y-26757985D01*
X114009370Y-26695742D01*
X113989812Y-26630546D01*
X113972566Y-26566741D01*
X113959022Y-26508672D01*
X113950571Y-26460683D01*
X113948520Y-26438468D01*
X113945636Y-26404900D01*
X113940971Y-26385949D01*
X113938253Y-26384236D01*
X113933280Y-26374764D01*
X113926607Y-26345411D01*
X113919348Y-26301538D01*
X113916028Y-26277257D01*
X113910084Y-26217616D01*
X113905805Y-26147239D01*
X113903121Y-26069885D01*
X113901963Y-25989310D01*
X113902261Y-25909271D01*
X113903946Y-25833525D01*
X113906949Y-25765830D01*
X113911199Y-25709942D01*
X113916628Y-25669619D01*
X113923166Y-25648619D01*
X113927688Y-25646913D01*
X113932863Y-25641972D01*
X113930936Y-25628100D01*
X113930407Y-25600254D01*
X113936764Y-25552929D01*
X113948935Y-25490765D01*
X113965848Y-25418404D01*
X113986429Y-25340486D01*
X114009607Y-25261654D01*
X114030305Y-25198105D01*
X114058515Y-25121239D01*
X114091741Y-25039522D01*
X114128390Y-24956033D01*
X114166869Y-24873855D01*
X114205584Y-24796067D01*
X114242943Y-24725751D01*
X114277353Y-24665986D01*
X114307221Y-24619855D01*
X114330953Y-24590438D01*
X114346957Y-24580815D01*
X114349112Y-24581550D01*
X114356808Y-24582058D01*
X114353984Y-24575720D01*
X114353506Y-24556745D01*
X114364545Y-24532506D01*
X114381104Y-24512068D01*
X114397190Y-24504494D01*
X114400351Y-24505621D01*
X114407554Y-24505687D01*
X114404721Y-24499419D01*
X114407378Y-24482653D01*
X114422843Y-24453018D01*
X114446899Y-24416494D01*
X114475328Y-24379059D01*
X114503914Y-24346695D01*
X114526553Y-24326660D01*
X114564743Y-24310454D01*
X114610419Y-24306137D01*
X114657449Y-24312078D01*
G36*
X117982449Y-24310118D02*
G01*
X118024040Y-24315529D01*
X118055605Y-24321669D01*
X118066973Y-24325548D01*
X118074685Y-24343134D01*
X118078928Y-24380720D01*
X118079874Y-24433167D01*
X118077697Y-24495337D01*
X118072571Y-24562091D01*
X118064669Y-24628293D01*
X118054809Y-24685705D01*
X118042550Y-24740185D01*
X118024885Y-24811805D01*
X118003670Y-24893366D01*
X117980765Y-24977669D01*
X117965828Y-25030600D01*
X117927937Y-25168494D01*
X117897058Y-25293272D01*
X117873710Y-25402448D01*
X117858411Y-25493540D01*
X117851682Y-25564063D01*
X117851400Y-25578094D01*
X117849681Y-25612974D01*
X117845277Y-25633313D01*
X117841643Y-25635669D01*
X117839033Y-25644854D01*
X117839289Y-25674348D01*
X117841955Y-25719277D01*
X117846574Y-25774770D01*
X117852688Y-25835952D01*
X117859840Y-25897952D01*
X117867573Y-25955895D01*
X117875430Y-26004910D01*
X117877150Y-26014118D01*
X117893592Y-26091462D01*
X117913525Y-26169707D01*
X117938037Y-26251869D01*
X117968215Y-26340962D01*
X118005146Y-26440003D01*
X118049920Y-26552007D01*
X118103622Y-26679989D01*
X118167341Y-26826965D01*
X118183889Y-26864593D01*
X118221957Y-26952021D01*
X118256056Y-27032380D01*
X118284962Y-27102625D01*
X118307454Y-27159710D01*
X118322310Y-27200588D01*
X118328309Y-27222214D01*
X118328229Y-27224420D01*
X118328166Y-27235880D01*
X118332942Y-27234703D01*
X118342265Y-27242315D01*
X118356686Y-27269763D01*
X118374643Y-27312373D01*
X118394574Y-27365471D01*
X118414918Y-27424382D01*
X118434111Y-27484431D01*
X118450594Y-27540944D01*
X118462802Y-27589246D01*
X118469176Y-27624662D01*
X118468786Y-27641286D01*
X118467704Y-27654422D01*
X118472720Y-27653755D01*
X118481453Y-27659633D01*
X118489276Y-27682169D01*
X118494654Y-27712630D01*
X118496056Y-27742282D01*
X118491949Y-27762391D01*
X118491825Y-27762596D01*
X118489861Y-27771863D01*
X118495893Y-27769431D01*
X118504009Y-27775937D01*
X118511690Y-27800337D01*
X118517917Y-27835134D01*
X118521671Y-27872827D01*
X118521935Y-27905919D01*
X118517689Y-27926911D01*
X118517356Y-27927484D01*
X118515097Y-27936777D01*
X118524221Y-27932721D01*
X118530670Y-27940004D01*
X118534904Y-27968613D01*
X118537078Y-28014586D01*
X118537348Y-28073959D01*
X118535869Y-28142770D01*
X118532795Y-28217056D01*
X118528282Y-28292853D01*
X118522484Y-28366200D01*
X118515557Y-28433133D01*
X118507655Y-28489689D01*
X118501138Y-28523100D01*
X118470486Y-28635092D01*
X118428522Y-28760309D01*
X118377258Y-28894510D01*
X118318703Y-29033453D01*
X118254868Y-29172896D01*
X118187765Y-29308598D01*
X118119404Y-29436317D01*
X118051796Y-29551812D01*
X117986952Y-29650840D01*
X117932537Y-29722478D01*
X117870818Y-29786066D01*
X117810181Y-29828834D01*
X117752699Y-29849749D01*
X117700449Y-29847782D01*
X117688659Y-29843683D01*
X117668789Y-29829147D01*
X117668396Y-29816645D01*
X117670022Y-29807701D01*
X117664559Y-29809888D01*
X117645933Y-29808995D01*
X117626888Y-29789622D01*
X117611654Y-29758261D01*
X117604461Y-29721402D01*
X117604345Y-29717490D01*
X117601393Y-29688374D01*
X117594753Y-29675345D01*
X117592216Y-29675707D01*
X117587398Y-29667879D01*
X117586287Y-29638987D01*
X117589012Y-29593118D01*
X117589412Y-29588715D01*
X117597604Y-29508794D01*
X117605234Y-29452693D01*
X117612591Y-29418847D01*
X117619964Y-29405691D01*
X117623201Y-29405998D01*
X117628707Y-29401352D01*
X117627032Y-29388811D01*
X117628137Y-29368890D01*
X117635219Y-29329413D01*
X117647240Y-29275239D01*
X117663161Y-29211223D01*
X117672524Y-29176069D01*
X117691354Y-29104975D01*
X117708264Y-29037497D01*
X117721792Y-28979743D01*
X117730474Y-28937818D01*
X117732294Y-28926617D01*
X117739023Y-28893199D01*
X117747097Y-28874677D01*
X117751340Y-28873302D01*
X117757242Y-28870237D01*
X117755186Y-28861718D01*
X117754463Y-28843545D01*
X117756896Y-28804782D01*
X117762068Y-28749986D01*
X117769563Y-28683713D01*
X117776449Y-28629283D01*
X117792656Y-28482252D01*
X117802974Y-28334261D01*
X117807394Y-28190041D01*
X117805909Y-28054320D01*
X117798512Y-27931828D01*
X117785196Y-27827296D01*
X117777745Y-27789480D01*
X117766460Y-27734041D01*
X117759007Y-27687110D01*
X117756206Y-27654613D01*
X117757557Y-27643430D01*
X117759971Y-27634782D01*
X117755752Y-27637592D01*
X117748195Y-27629919D01*
X117734609Y-27603151D01*
X117716901Y-27562322D01*
X117696980Y-27512463D01*
X117676756Y-27458608D01*
X117658136Y-27405788D01*
X117643031Y-27359038D01*
X117633349Y-27323389D01*
X117630850Y-27308287D01*
X117626772Y-27288532D01*
X117621946Y-27285377D01*
X117614076Y-27276428D01*
X117598730Y-27247952D01*
X117577663Y-27204088D01*
X117552629Y-27148973D01*
X117525382Y-27086745D01*
X117497676Y-27021542D01*
X117471265Y-26957501D01*
X117447904Y-26898760D01*
X117429347Y-26849457D01*
X117417347Y-26813729D01*
X117413660Y-26795715D01*
X117413950Y-26794766D01*
X117416260Y-26785132D01*
X117410164Y-26787532D01*
X117400301Y-26780257D01*
X117385385Y-26753119D01*
X117366991Y-26710775D01*
X117346696Y-26657880D01*
X117326077Y-26599090D01*
X117306711Y-26539063D01*
X117290174Y-26482455D01*
X117278043Y-26433920D01*
X117271895Y-26398117D01*
X117272556Y-26381159D01*
X117273239Y-26368792D01*
X117268469Y-26369665D01*
X117260789Y-26362319D01*
X117251935Y-26336861D01*
X117243300Y-26300448D01*
X117236279Y-26260238D01*
X117232265Y-26223388D01*
X117232653Y-26197055D01*
X117233892Y-26192128D01*
X117235389Y-26178568D01*
X117230727Y-26178944D01*
X117223024Y-26171678D01*
X117216342Y-26141375D01*
X117210876Y-26090383D01*
X117206821Y-26021052D01*
X117204372Y-25935730D01*
X117203700Y-25853508D01*
X117204943Y-25776810D01*
X117208385Y-25702672D01*
X117213591Y-25635037D01*
X117220130Y-25577849D01*
X117227568Y-25535053D01*
X117235472Y-25510592D01*
X117241766Y-25506829D01*
X117246785Y-25501020D01*
X117245476Y-25484240D01*
X117246817Y-25449605D01*
X117259016Y-25396358D01*
X117280582Y-25328081D01*
X117310027Y-25248362D01*
X117345861Y-25160783D01*
X117386596Y-25068929D01*
X117430743Y-24976386D01*
X117476812Y-24886737D01*
X117523314Y-24803568D01*
X117539409Y-24776666D01*
X117590969Y-24695553D01*
X117645249Y-24616130D01*
X117700049Y-24541069D01*
X117753168Y-24473042D01*
X117802407Y-24414721D01*
X117845566Y-24368777D01*
X117880447Y-24337883D01*
X117904848Y-24324711D01*
X117911235Y-24325023D01*
X117922551Y-24324802D01*
X117919936Y-24317274D01*
X117922048Y-24309367D01*
X117943736Y-24307275D01*
X117982449Y-24310118D01*
G37*
X117982449Y-24310118D02*
X118024040Y-24315529D01*
X118055605Y-24321669D01*
X118066973Y-24325548D01*
X118074685Y-24343134D01*
X118078928Y-24380720D01*
X118079874Y-24433167D01*
X118077697Y-24495337D01*
X118072571Y-24562091D01*
X118064669Y-24628293D01*
X118054809Y-24685705D01*
X118042550Y-24740185D01*
X118024885Y-24811805D01*
X118003670Y-24893366D01*
X117980765Y-24977669D01*
X117965828Y-25030600D01*
X117927937Y-25168494D01*
X117897058Y-25293272D01*
X117873710Y-25402448D01*
X117858411Y-25493540D01*
X117851682Y-25564063D01*
X117851400Y-25578094D01*
X117849681Y-25612974D01*
X117845277Y-25633313D01*
X117841643Y-25635669D01*
X117839033Y-25644854D01*
X117839289Y-25674348D01*
X117841955Y-25719277D01*
X117846574Y-25774770D01*
X117852688Y-25835952D01*
X117859840Y-25897952D01*
X117867573Y-25955895D01*
X117875430Y-26004910D01*
X117877150Y-26014118D01*
X117893592Y-26091462D01*
X117913525Y-26169707D01*
X117938037Y-26251869D01*
X117968215Y-26340962D01*
X118005146Y-26440003D01*
X118049920Y-26552007D01*
X118103622Y-26679989D01*
X118167341Y-26826965D01*
X118183889Y-26864593D01*
X118221957Y-26952021D01*
X118256056Y-27032380D01*
X118284962Y-27102625D01*
X118307454Y-27159710D01*
X118322310Y-27200588D01*
X118328309Y-27222214D01*
X118328229Y-27224420D01*
X118328166Y-27235880D01*
X118332942Y-27234703D01*
X118342265Y-27242315D01*
X118356686Y-27269763D01*
X118374643Y-27312373D01*
X118394574Y-27365471D01*
X118414918Y-27424382D01*
X118434111Y-27484431D01*
X118450594Y-27540944D01*
X118462802Y-27589246D01*
X118469176Y-27624662D01*
X118468786Y-27641286D01*
X118467704Y-27654422D01*
X118472720Y-27653755D01*
X118481453Y-27659633D01*
X118489276Y-27682169D01*
X118494654Y-27712630D01*
X118496056Y-27742282D01*
X118491949Y-27762391D01*
X118491825Y-27762596D01*
X118489861Y-27771863D01*
X118495893Y-27769431D01*
X118504009Y-27775937D01*
X118511690Y-27800337D01*
X118517917Y-27835134D01*
X118521671Y-27872827D01*
X118521935Y-27905919D01*
X118517689Y-27926911D01*
X118517356Y-27927484D01*
X118515097Y-27936777D01*
X118524221Y-27932721D01*
X118530670Y-27940004D01*
X118534904Y-27968613D01*
X118537078Y-28014586D01*
X118537348Y-28073959D01*
X118535869Y-28142770D01*
X118532795Y-28217056D01*
X118528282Y-28292853D01*
X118522484Y-28366200D01*
X118515557Y-28433133D01*
X118507655Y-28489689D01*
X118501138Y-28523100D01*
X118470486Y-28635092D01*
X118428522Y-28760309D01*
X118377258Y-28894510D01*
X118318703Y-29033453D01*
X118254868Y-29172896D01*
X118187765Y-29308598D01*
X118119404Y-29436317D01*
X118051796Y-29551812D01*
X117986952Y-29650840D01*
X117932537Y-29722478D01*
X117870818Y-29786066D01*
X117810181Y-29828834D01*
X117752699Y-29849749D01*
X117700449Y-29847782D01*
X117688659Y-29843683D01*
X117668789Y-29829147D01*
X117668396Y-29816645D01*
X117670022Y-29807701D01*
X117664559Y-29809888D01*
X117645933Y-29808995D01*
X117626888Y-29789622D01*
X117611654Y-29758261D01*
X117604461Y-29721402D01*
X117604345Y-29717490D01*
X117601393Y-29688374D01*
X117594753Y-29675345D01*
X117592216Y-29675707D01*
X117587398Y-29667879D01*
X117586287Y-29638987D01*
X117589012Y-29593118D01*
X117589412Y-29588715D01*
X117597604Y-29508794D01*
X117605234Y-29452693D01*
X117612591Y-29418847D01*
X117619964Y-29405691D01*
X117623201Y-29405998D01*
X117628707Y-29401352D01*
X117627032Y-29388811D01*
X117628137Y-29368890D01*
X117635219Y-29329413D01*
X117647240Y-29275239D01*
X117663161Y-29211223D01*
X117672524Y-29176069D01*
X117691354Y-29104975D01*
X117708264Y-29037497D01*
X117721792Y-28979743D01*
X117730474Y-28937818D01*
X117732294Y-28926617D01*
X117739023Y-28893199D01*
X117747097Y-28874677D01*
X117751340Y-28873302D01*
X117757242Y-28870237D01*
X117755186Y-28861718D01*
X117754463Y-28843545D01*
X117756896Y-28804782D01*
X117762068Y-28749986D01*
X117769563Y-28683713D01*
X117776449Y-28629283D01*
X117792656Y-28482252D01*
X117802974Y-28334261D01*
X117807394Y-28190041D01*
X117805909Y-28054320D01*
X117798512Y-27931828D01*
X117785196Y-27827296D01*
X117777745Y-27789480D01*
X117766460Y-27734041D01*
X117759007Y-27687110D01*
X117756206Y-27654613D01*
X117757557Y-27643430D01*
X117759971Y-27634782D01*
X117755752Y-27637592D01*
X117748195Y-27629919D01*
X117734609Y-27603151D01*
X117716901Y-27562322D01*
X117696980Y-27512463D01*
X117676756Y-27458608D01*
X117658136Y-27405788D01*
X117643031Y-27359038D01*
X117633349Y-27323389D01*
X117630850Y-27308287D01*
X117626772Y-27288532D01*
X117621946Y-27285377D01*
X117614076Y-27276428D01*
X117598730Y-27247952D01*
X117577663Y-27204088D01*
X117552629Y-27148973D01*
X117525382Y-27086745D01*
X117497676Y-27021542D01*
X117471265Y-26957501D01*
X117447904Y-26898760D01*
X117429347Y-26849457D01*
X117417347Y-26813729D01*
X117413660Y-26795715D01*
X117413950Y-26794766D01*
X117416260Y-26785132D01*
X117410164Y-26787532D01*
X117400301Y-26780257D01*
X117385385Y-26753119D01*
X117366991Y-26710775D01*
X117346696Y-26657880D01*
X117326077Y-26599090D01*
X117306711Y-26539063D01*
X117290174Y-26482455D01*
X117278043Y-26433920D01*
X117271895Y-26398117D01*
X117272556Y-26381159D01*
X117273239Y-26368792D01*
X117268469Y-26369665D01*
X117260789Y-26362319D01*
X117251935Y-26336861D01*
X117243300Y-26300448D01*
X117236279Y-26260238D01*
X117232265Y-26223388D01*
X117232653Y-26197055D01*
X117233892Y-26192128D01*
X117235389Y-26178568D01*
X117230727Y-26178944D01*
X117223024Y-26171678D01*
X117216342Y-26141375D01*
X117210876Y-26090383D01*
X117206821Y-26021052D01*
X117204372Y-25935730D01*
X117203700Y-25853508D01*
X117204943Y-25776810D01*
X117208385Y-25702672D01*
X117213591Y-25635037D01*
X117220130Y-25577849D01*
X117227568Y-25535053D01*
X117235472Y-25510592D01*
X117241766Y-25506829D01*
X117246785Y-25501020D01*
X117245476Y-25484240D01*
X117246817Y-25449605D01*
X117259016Y-25396358D01*
X117280582Y-25328081D01*
X117310027Y-25248362D01*
X117345861Y-25160783D01*
X117386596Y-25068929D01*
X117430743Y-24976386D01*
X117476812Y-24886737D01*
X117523314Y-24803568D01*
X117539409Y-24776666D01*
X117590969Y-24695553D01*
X117645249Y-24616130D01*
X117700049Y-24541069D01*
X117753168Y-24473042D01*
X117802407Y-24414721D01*
X117845566Y-24368777D01*
X117880447Y-24337883D01*
X117904848Y-24324711D01*
X117911235Y-24325023D01*
X117922551Y-24324802D01*
X117919936Y-24317274D01*
X117922048Y-24309367D01*
X117943736Y-24307275D01*
X117982449Y-24310118D01*
G36*
X116397360Y-23683153D02*
G01*
X116421394Y-23717722D01*
X116437625Y-23775717D01*
X116446155Y-23857450D01*
X116447611Y-23925700D01*
X116446910Y-23980658D01*
X116444311Y-24024706D01*
X116438445Y-24064805D01*
X116427946Y-24107918D01*
X116411447Y-24161007D01*
X116387767Y-24230500D01*
X116364148Y-24300743D01*
X116341940Y-24370512D01*
X116323426Y-24432394D01*
X116310886Y-24478977D01*
X116309590Y-24484500D01*
X116290613Y-24591300D01*
X116277077Y-24717360D01*
X116269051Y-24857112D01*
X116266606Y-25004988D01*
X116269813Y-25155424D01*
X116278740Y-25302851D01*
X116293458Y-25441702D01*
X116297218Y-25468750D01*
X116306071Y-25533016D01*
X116313395Y-25592511D01*
X116318382Y-25640246D01*
X116320208Y-25667562D01*
X116323379Y-25695704D01*
X116330196Y-25707516D01*
X116332281Y-25707033D01*
X116338323Y-25712862D01*
X116338153Y-25736321D01*
X116337670Y-25739898D01*
X116335275Y-25765332D01*
X116337241Y-25774176D01*
X116337705Y-25773827D01*
X116342483Y-25783653D01*
X116352330Y-25814497D01*
X116366204Y-25862726D01*
X116383065Y-25924703D01*
X116401871Y-25996795D01*
X116404144Y-26005699D01*
X116427800Y-26095370D01*
X116456821Y-26200410D01*
X116488700Y-26312039D01*
X116520933Y-26421477D01*
X116549936Y-26516500D01*
X116611393Y-26715012D01*
X116664886Y-26891575D01*
X116710890Y-27048196D01*
X116749880Y-27186882D01*
X116782333Y-27309641D01*
X116808723Y-27418480D01*
X116829528Y-27515405D01*
X116845222Y-27602425D01*
X116856282Y-27681547D01*
X116863184Y-27754777D01*
X116866402Y-27824124D01*
X116866772Y-27853129D01*
X116867840Y-27905708D01*
X116870409Y-27947203D01*
X116874044Y-27972167D01*
X116876675Y-27976954D01*
X116883779Y-27987898D01*
X116886200Y-28009499D01*
X116882955Y-28031360D01*
X116876154Y-28035790D01*
X116870858Y-28042475D01*
X116870578Y-28066891D01*
X116871259Y-28073704D01*
X116872941Y-28108117D01*
X116872030Y-28153148D01*
X116869078Y-28202754D01*
X116864640Y-28250896D01*
X116859267Y-28291532D01*
X116853513Y-28318622D01*
X116848140Y-28326275D01*
X116842396Y-28330799D01*
X116844107Y-28344103D01*
X116844694Y-28367813D01*
X116839992Y-28408273D01*
X116831101Y-28460766D01*
X116819121Y-28520573D01*
X116805152Y-28582979D01*
X116790295Y-28643267D01*
X116775650Y-28696719D01*
X116762318Y-28738619D01*
X116751398Y-28764250D01*
X116744821Y-28769712D01*
X116739125Y-28772949D01*
X116741307Y-28781887D01*
X116740391Y-28804292D01*
X116729443Y-28848975D01*
X116708781Y-28915019D01*
X116678722Y-29001506D01*
X116639583Y-29107519D01*
X116591681Y-29232141D01*
X116543139Y-29354950D01*
X116503159Y-29454914D01*
X116471472Y-29533709D01*
X116446967Y-29593762D01*
X116428531Y-29637497D01*
X116415053Y-29667342D01*
X116405422Y-29685721D01*
X116398526Y-29695061D01*
X116393252Y-29697788D01*
X116388489Y-29696328D01*
X116387080Y-29695489D01*
X116380444Y-29695864D01*
X116383526Y-29702543D01*
X116382898Y-29721267D01*
X116370808Y-29754541D01*
X116350165Y-29797504D01*
X116323882Y-29845295D01*
X116294869Y-29893056D01*
X116266039Y-29935924D01*
X116240302Y-29969041D01*
X116220571Y-29987545D01*
X116211832Y-29989166D01*
X116205612Y-29991983D01*
X116207534Y-30000113D01*
X116202483Y-30019045D01*
X116180557Y-30046052D01*
X116147152Y-30077001D01*
X116107664Y-30107756D01*
X116067489Y-30134182D01*
X116032026Y-30152144D01*
X116006669Y-30157508D01*
X116003204Y-30156674D01*
X115989804Y-30155514D01*
X115992176Y-30163546D01*
X115991524Y-30173022D01*
X115973768Y-30170934D01*
X115955384Y-30169561D01*
X115953481Y-30175284D01*
X115949105Y-30184490D01*
X115935499Y-30186800D01*
X115915132Y-30177994D01*
X115896673Y-30149126D01*
X115888757Y-30130128D01*
X115877386Y-30092308D01*
X115873540Y-30061885D01*
X115874862Y-30053269D01*
X115876363Y-30039565D01*
X115871499Y-30039946D01*
X115863023Y-30033968D01*
X115856433Y-30008457D01*
X115852165Y-29969236D01*
X115850658Y-29922131D01*
X115852348Y-29872966D01*
X115856221Y-29836583D01*
X115867087Y-29774556D01*
X115880260Y-29716436D01*
X115894329Y-29666874D01*
X115907884Y-29630522D01*
X115919514Y-29612032D01*
X115924567Y-29611154D01*
X115931545Y-29610972D01*
X115928863Y-29605049D01*
X115928398Y-29587283D01*
X115934506Y-29551605D01*
X115945983Y-29504281D01*
X115953047Y-29479262D01*
X115967982Y-29419982D01*
X115983597Y-29343281D01*
X115998841Y-29256107D01*
X116012660Y-29165407D01*
X116024001Y-29078127D01*
X116031810Y-29001216D01*
X116035034Y-28941620D01*
X116035061Y-28938275D01*
X116036941Y-28904250D01*
X116041476Y-28884937D01*
X116044825Y-28883129D01*
X116049094Y-28874687D01*
X116051214Y-28846868D01*
X116050740Y-28805640D01*
X116050692Y-28804504D01*
X116050079Y-28757574D01*
X116051177Y-28694001D01*
X116053759Y-28622468D01*
X116057188Y-28558025D01*
X116060286Y-28497323D01*
X116061504Y-28446991D01*
X116060827Y-28411769D01*
X116058243Y-28396400D01*
X116057671Y-28396100D01*
X116053122Y-28384418D01*
X116049723Y-28353438D01*
X116048070Y-28309255D01*
X116048000Y-28297341D01*
X116041240Y-28157284D01*
X116021404Y-27999874D01*
X115989157Y-27829120D01*
X115945167Y-27649032D01*
X115933064Y-27605319D01*
X115918260Y-27549125D01*
X115907742Y-27501384D01*
X115902603Y-27467652D01*
X115903289Y-27454132D01*
X115904699Y-27445776D01*
X115895561Y-27449973D01*
X115884396Y-27452159D01*
X115885627Y-27434636D01*
X115886388Y-27431629D01*
X115889380Y-27412708D01*
X115886176Y-27410690D01*
X115879266Y-27402721D01*
X115866348Y-27375302D01*
X115849116Y-27333187D01*
X115829267Y-27281129D01*
X115808494Y-27223883D01*
X115788494Y-27166201D01*
X115770961Y-27112838D01*
X115757590Y-27068548D01*
X115750077Y-27038083D01*
X115749359Y-27027015D01*
X115749080Y-27016073D01*
X115744554Y-27017312D01*
X115736097Y-27009237D01*
X115722443Y-26982084D01*
X115705449Y-26941175D01*
X115686970Y-26891834D01*
X115668862Y-26839382D01*
X115652983Y-26789143D01*
X115641189Y-26746440D01*
X115635335Y-26716595D01*
X115635945Y-26705875D01*
X115638377Y-26696436D01*
X115628861Y-26700673D01*
X115617574Y-26702852D01*
X115618972Y-26685098D01*
X115619365Y-26683568D01*
X115621536Y-26664596D01*
X115617301Y-26661869D01*
X115608952Y-26654261D01*
X115597121Y-26628664D01*
X115583914Y-26591864D01*
X115571440Y-26550651D01*
X115561806Y-26511810D01*
X115557119Y-26482130D01*
X115557886Y-26470502D01*
X115558645Y-26457892D01*
X115553675Y-26458746D01*
X115546026Y-26450417D01*
X115535094Y-26421114D01*
X115521848Y-26374905D01*
X115507258Y-26315858D01*
X115492292Y-26248040D01*
X115477920Y-26175521D01*
X115465112Y-26102367D01*
X115458499Y-26059300D01*
X115450475Y-25996415D01*
X115443275Y-25926572D01*
X115437126Y-25853960D01*
X115432255Y-25782771D01*
X115428889Y-25717195D01*
X115427255Y-25661422D01*
X115427581Y-25619644D01*
X115430092Y-25596051D01*
X115433220Y-25592567D01*
X115439171Y-25585670D01*
X115441249Y-25559472D01*
X115440424Y-25538517D01*
X115440384Y-25497090D01*
X115444482Y-25443701D01*
X115451856Y-25383018D01*
X115461644Y-25319708D01*
X115472984Y-25258439D01*
X115485014Y-25203877D01*
X115496873Y-25160691D01*
X115507698Y-25133547D01*
X115516421Y-25126975D01*
X115521920Y-25123577D01*
X115519618Y-25114260D01*
X115519785Y-25089269D01*
X115530991Y-25042027D01*
X115553280Y-24972396D01*
X115586696Y-24880242D01*
X115629364Y-24770250D01*
X115660455Y-24692325D01*
X115683801Y-24635135D01*
X115700851Y-24595736D01*
X115713051Y-24571183D01*
X115721848Y-24558533D01*
X115728690Y-24554840D01*
X115734319Y-24556710D01*
X115741213Y-24556411D01*
X115738896Y-24551311D01*
X115738208Y-24532144D01*
X115746484Y-24500421D01*
X115750819Y-24489024D01*
X115769654Y-24447323D01*
X115794271Y-24398456D01*
X115821934Y-24347168D01*
X115849909Y-24298205D01*
X115875462Y-24256312D01*
X115895858Y-24226235D01*
X115908362Y-24212720D01*
X115910125Y-24212578D01*
X115915947Y-24209517D01*
X115914043Y-24201748D01*
X115918302Y-24184804D01*
X115934978Y-24151762D01*
X115961316Y-24106896D01*
X115994561Y-24054480D01*
X116031960Y-23998789D01*
X116070759Y-23944097D01*
X116108203Y-23894677D01*
X116126200Y-23872511D01*
X116154698Y-23842032D01*
X116178321Y-23823102D01*
X116190855Y-23819699D01*
X116198518Y-23820084D01*
X116196403Y-23815208D01*
X116198735Y-23799071D01*
X116214413Y-23778603D01*
X116235326Y-23761508D01*
X116253359Y-23755495D01*
X116257353Y-23757308D01*
X116262277Y-23758088D01*
X116259552Y-23752232D01*
X116262241Y-23734456D01*
X116281596Y-23712333D01*
X116310753Y-23691084D01*
X116342848Y-23675930D01*
X116365424Y-23671699D01*
X116397360Y-23683153D01*
G37*
X116397360Y-23683153D02*
X116421394Y-23717722D01*
X116437625Y-23775717D01*
X116446155Y-23857450D01*
X116447611Y-23925700D01*
X116446910Y-23980658D01*
X116444311Y-24024706D01*
X116438445Y-24064805D01*
X116427946Y-24107918D01*
X116411447Y-24161007D01*
X116387767Y-24230500D01*
X116364148Y-24300743D01*
X116341940Y-24370512D01*
X116323426Y-24432394D01*
X116310886Y-24478977D01*
X116309590Y-24484500D01*
X116290613Y-24591300D01*
X116277077Y-24717360D01*
X116269051Y-24857112D01*
X116266606Y-25004988D01*
X116269813Y-25155424D01*
X116278740Y-25302851D01*
X116293458Y-25441702D01*
X116297218Y-25468750D01*
X116306071Y-25533016D01*
X116313395Y-25592511D01*
X116318382Y-25640246D01*
X116320208Y-25667562D01*
X116323379Y-25695704D01*
X116330196Y-25707516D01*
X116332281Y-25707033D01*
X116338323Y-25712862D01*
X116338153Y-25736321D01*
X116337670Y-25739898D01*
X116335275Y-25765332D01*
X116337241Y-25774176D01*
X116337705Y-25773827D01*
X116342483Y-25783653D01*
X116352330Y-25814497D01*
X116366204Y-25862726D01*
X116383065Y-25924703D01*
X116401871Y-25996795D01*
X116404144Y-26005699D01*
X116427800Y-26095370D01*
X116456821Y-26200410D01*
X116488700Y-26312039D01*
X116520933Y-26421477D01*
X116549936Y-26516500D01*
X116611393Y-26715012D01*
X116664886Y-26891575D01*
X116710890Y-27048196D01*
X116749880Y-27186882D01*
X116782333Y-27309641D01*
X116808723Y-27418480D01*
X116829528Y-27515405D01*
X116845222Y-27602425D01*
X116856282Y-27681547D01*
X116863184Y-27754777D01*
X116866402Y-27824124D01*
X116866772Y-27853129D01*
X116867840Y-27905708D01*
X116870409Y-27947203D01*
X116874044Y-27972167D01*
X116876675Y-27976954D01*
X116883779Y-27987898D01*
X116886200Y-28009499D01*
X116882955Y-28031360D01*
X116876154Y-28035790D01*
X116870858Y-28042475D01*
X116870578Y-28066891D01*
X116871259Y-28073704D01*
X116872941Y-28108117D01*
X116872030Y-28153148D01*
X116869078Y-28202754D01*
X116864640Y-28250896D01*
X116859267Y-28291532D01*
X116853513Y-28318622D01*
X116848140Y-28326275D01*
X116842396Y-28330799D01*
X116844107Y-28344103D01*
X116844694Y-28367813D01*
X116839992Y-28408273D01*
X116831101Y-28460766D01*
X116819121Y-28520573D01*
X116805152Y-28582979D01*
X116790295Y-28643267D01*
X116775650Y-28696719D01*
X116762318Y-28738619D01*
X116751398Y-28764250D01*
X116744821Y-28769712D01*
X116739125Y-28772949D01*
X116741307Y-28781887D01*
X116740391Y-28804292D01*
X116729443Y-28848975D01*
X116708781Y-28915019D01*
X116678722Y-29001506D01*
X116639583Y-29107519D01*
X116591681Y-29232141D01*
X116543139Y-29354950D01*
X116503159Y-29454914D01*
X116471472Y-29533709D01*
X116446967Y-29593762D01*
X116428531Y-29637497D01*
X116415053Y-29667342D01*
X116405422Y-29685721D01*
X116398526Y-29695061D01*
X116393252Y-29697788D01*
X116388489Y-29696328D01*
X116387080Y-29695489D01*
X116380444Y-29695864D01*
X116383526Y-29702543D01*
X116382898Y-29721267D01*
X116370808Y-29754541D01*
X116350165Y-29797504D01*
X116323882Y-29845295D01*
X116294869Y-29893056D01*
X116266039Y-29935924D01*
X116240302Y-29969041D01*
X116220571Y-29987545D01*
X116211832Y-29989166D01*
X116205612Y-29991983D01*
X116207534Y-30000113D01*
X116202483Y-30019045D01*
X116180557Y-30046052D01*
X116147152Y-30077001D01*
X116107664Y-30107756D01*
X116067489Y-30134182D01*
X116032026Y-30152144D01*
X116006669Y-30157508D01*
X116003204Y-30156674D01*
X115989804Y-30155514D01*
X115992176Y-30163546D01*
X115991524Y-30173022D01*
X115973768Y-30170934D01*
X115955384Y-30169561D01*
X115953481Y-30175284D01*
X115949105Y-30184490D01*
X115935499Y-30186800D01*
X115915132Y-30177994D01*
X115896673Y-30149126D01*
X115888757Y-30130128D01*
X115877386Y-30092308D01*
X115873540Y-30061885D01*
X115874862Y-30053269D01*
X115876363Y-30039565D01*
X115871499Y-30039946D01*
X115863023Y-30033968D01*
X115856433Y-30008457D01*
X115852165Y-29969236D01*
X115850658Y-29922131D01*
X115852348Y-29872966D01*
X115856221Y-29836583D01*
X115867087Y-29774556D01*
X115880260Y-29716436D01*
X115894329Y-29666874D01*
X115907884Y-29630522D01*
X115919514Y-29612032D01*
X115924567Y-29611154D01*
X115931545Y-29610972D01*
X115928863Y-29605049D01*
X115928398Y-29587283D01*
X115934506Y-29551605D01*
X115945983Y-29504281D01*
X115953047Y-29479262D01*
X115967982Y-29419982D01*
X115983597Y-29343281D01*
X115998841Y-29256107D01*
X116012660Y-29165407D01*
X116024001Y-29078127D01*
X116031810Y-29001216D01*
X116035034Y-28941620D01*
X116035061Y-28938275D01*
X116036941Y-28904250D01*
X116041476Y-28884937D01*
X116044825Y-28883129D01*
X116049094Y-28874687D01*
X116051214Y-28846868D01*
X116050740Y-28805640D01*
X116050692Y-28804504D01*
X116050079Y-28757574D01*
X116051177Y-28694001D01*
X116053759Y-28622468D01*
X116057188Y-28558025D01*
X116060286Y-28497323D01*
X116061504Y-28446991D01*
X116060827Y-28411769D01*
X116058243Y-28396400D01*
X116057671Y-28396100D01*
X116053122Y-28384418D01*
X116049723Y-28353438D01*
X116048070Y-28309255D01*
X116048000Y-28297341D01*
X116041240Y-28157284D01*
X116021404Y-27999874D01*
X115989157Y-27829120D01*
X115945167Y-27649032D01*
X115933064Y-27605319D01*
X115918260Y-27549125D01*
X115907742Y-27501384D01*
X115902603Y-27467652D01*
X115903289Y-27454132D01*
X115904699Y-27445776D01*
X115895561Y-27449973D01*
X115884396Y-27452159D01*
X115885627Y-27434636D01*
X115886388Y-27431629D01*
X115889380Y-27412708D01*
X115886176Y-27410690D01*
X115879266Y-27402721D01*
X115866348Y-27375302D01*
X115849116Y-27333187D01*
X115829267Y-27281129D01*
X115808494Y-27223883D01*
X115788494Y-27166201D01*
X115770961Y-27112838D01*
X115757590Y-27068548D01*
X115750077Y-27038083D01*
X115749359Y-27027015D01*
X115749080Y-27016073D01*
X115744554Y-27017312D01*
X115736097Y-27009237D01*
X115722443Y-26982084D01*
X115705449Y-26941175D01*
X115686970Y-26891834D01*
X115668862Y-26839382D01*
X115652983Y-26789143D01*
X115641189Y-26746440D01*
X115635335Y-26716595D01*
X115635945Y-26705875D01*
X115638377Y-26696436D01*
X115628861Y-26700673D01*
X115617574Y-26702852D01*
X115618972Y-26685098D01*
X115619365Y-26683568D01*
X115621536Y-26664596D01*
X115617301Y-26661869D01*
X115608952Y-26654261D01*
X115597121Y-26628664D01*
X115583914Y-26591864D01*
X115571440Y-26550651D01*
X115561806Y-26511810D01*
X115557119Y-26482130D01*
X115557886Y-26470502D01*
X115558645Y-26457892D01*
X115553675Y-26458746D01*
X115546026Y-26450417D01*
X115535094Y-26421114D01*
X115521848Y-26374905D01*
X115507258Y-26315858D01*
X115492292Y-26248040D01*
X115477920Y-26175521D01*
X115465112Y-26102367D01*
X115458499Y-26059300D01*
X115450475Y-25996415D01*
X115443275Y-25926572D01*
X115437126Y-25853960D01*
X115432255Y-25782771D01*
X115428889Y-25717195D01*
X115427255Y-25661422D01*
X115427581Y-25619644D01*
X115430092Y-25596051D01*
X115433220Y-25592567D01*
X115439171Y-25585670D01*
X115441249Y-25559472D01*
X115440424Y-25538517D01*
X115440384Y-25497090D01*
X115444482Y-25443701D01*
X115451856Y-25383018D01*
X115461644Y-25319708D01*
X115472984Y-25258439D01*
X115485014Y-25203877D01*
X115496873Y-25160691D01*
X115507698Y-25133547D01*
X115516421Y-25126975D01*
X115521920Y-25123577D01*
X115519618Y-25114260D01*
X115519785Y-25089269D01*
X115530991Y-25042027D01*
X115553280Y-24972396D01*
X115586696Y-24880242D01*
X115629364Y-24770250D01*
X115660455Y-24692325D01*
X115683801Y-24635135D01*
X115700851Y-24595736D01*
X115713051Y-24571183D01*
X115721848Y-24558533D01*
X115728690Y-24554840D01*
X115734319Y-24556710D01*
X115741213Y-24556411D01*
X115738896Y-24551311D01*
X115738208Y-24532144D01*
X115746484Y-24500421D01*
X115750819Y-24489024D01*
X115769654Y-24447323D01*
X115794271Y-24398456D01*
X115821934Y-24347168D01*
X115849909Y-24298205D01*
X115875462Y-24256312D01*
X115895858Y-24226235D01*
X115908362Y-24212720D01*
X115910125Y-24212578D01*
X115915947Y-24209517D01*
X115914043Y-24201748D01*
X115918302Y-24184804D01*
X115934978Y-24151762D01*
X115961316Y-24106896D01*
X115994561Y-24054480D01*
X116031960Y-23998789D01*
X116070759Y-23944097D01*
X116108203Y-23894677D01*
X116126200Y-23872511D01*
X116154698Y-23842032D01*
X116178321Y-23823102D01*
X116190855Y-23819699D01*
X116198518Y-23820084D01*
X116196403Y-23815208D01*
X116198735Y-23799071D01*
X116214413Y-23778603D01*
X116235326Y-23761508D01*
X116253359Y-23755495D01*
X116257353Y-23757308D01*
X116262277Y-23758088D01*
X116259552Y-23752232D01*
X116262241Y-23734456D01*
X116281596Y-23712333D01*
X116310753Y-23691084D01*
X116342848Y-23675930D01*
X116365424Y-23671699D01*
X116397360Y-23683153D01*
G36*
X113232258Y-28031784D02*
G01*
X113290399Y-28052154D01*
X113334142Y-28092463D01*
X113338058Y-28098169D01*
X113349721Y-28119185D01*
X113351991Y-28138912D01*
X113344688Y-28166996D01*
X113336346Y-28189980D01*
X113315142Y-28240685D01*
X113291903Y-28287000D01*
X113269574Y-28323997D01*
X113251096Y-28346746D01*
X113240237Y-28350993D01*
X113234191Y-28354044D01*
X113236485Y-28363770D01*
X113232031Y-28378909D01*
X113211412Y-28407401D01*
X113173837Y-28450166D01*
X113118514Y-28508121D01*
X113068918Y-28558105D01*
X112974216Y-28655931D01*
X112897717Y-28743204D01*
X112836649Y-28823694D01*
X112788238Y-28901173D01*
X112749712Y-28979410D01*
X112737732Y-29008480D01*
X112719492Y-29049761D01*
X112703292Y-29077305D01*
X112692077Y-29086192D01*
X112691386Y-29085892D01*
X112684681Y-29086339D01*
X112687298Y-29092089D01*
X112688136Y-29110084D01*
X112682822Y-29145852D01*
X112672442Y-29192818D01*
X112667586Y-29211526D01*
X112656058Y-29258506D01*
X112647997Y-29303928D01*
X112642814Y-29354081D01*
X112639917Y-29415254D01*
X112638715Y-29493735D01*
X112638601Y-29520050D01*
X112640763Y-29636654D01*
X112648920Y-29736182D01*
X112664536Y-29826550D01*
X112689076Y-29915673D01*
X112724005Y-30011469D01*
X112734147Y-30036454D01*
X112750843Y-30081001D01*
X112761272Y-30117027D01*
X112763550Y-30137799D01*
X112762955Y-30139388D01*
X112762660Y-30146902D01*
X112767389Y-30144828D01*
X112780166Y-30150270D01*
X112798647Y-30172829D01*
X112809348Y-30190491D01*
X112834396Y-30232884D01*
X112865415Y-30281146D01*
X112881639Y-30304851D01*
X112903472Y-30339479D01*
X112915930Y-30366647D01*
X112916899Y-30378191D01*
X112916832Y-30387513D01*
X112920673Y-30387139D01*
X112934113Y-30394074D01*
X112959118Y-30415667D01*
X112991501Y-30447385D01*
X113027073Y-30484693D01*
X113061646Y-30523056D01*
X113091030Y-30557941D01*
X113111038Y-30584813D01*
X113117481Y-30599138D01*
X113117128Y-30599815D01*
X113116700Y-30604406D01*
X113122332Y-30601759D01*
X113140875Y-30602819D01*
X113164968Y-30616339D01*
X113186201Y-30635616D01*
X113196163Y-30653946D01*
X113195008Y-30659679D01*
X113194611Y-30667330D01*
X113200499Y-30664718D01*
X113216774Y-30667376D01*
X113247809Y-30682013D01*
X113287770Y-30705745D01*
X113300887Y-30714382D01*
X113363265Y-30753209D01*
X113442689Y-30797848D01*
X113532513Y-30844945D01*
X113626094Y-30891147D01*
X113716790Y-30933100D01*
X113797955Y-30967449D01*
X113816261Y-30974562D01*
X113864297Y-30994372D01*
X113899464Y-31011962D01*
X113917287Y-31024948D01*
X113918302Y-31028960D01*
X113918784Y-31035622D01*
X113924157Y-31033168D01*
X113940296Y-31033868D01*
X113976397Y-31041126D01*
X114028186Y-31053902D01*
X114091388Y-31071158D01*
X114145194Y-31086862D01*
X114240728Y-31114352D01*
X114344619Y-31142255D01*
X114453053Y-31169723D01*
X114562214Y-31195906D01*
X114668285Y-31219953D01*
X114767451Y-31241016D01*
X114855895Y-31258245D01*
X114929802Y-31270790D01*
X114985354Y-31277802D01*
X115008194Y-31279000D01*
X115025256Y-31283972D01*
X115025739Y-31291554D01*
X115027741Y-31298886D01*
X115036660Y-31296941D01*
X115055927Y-31295727D01*
X115094784Y-31297665D01*
X115147673Y-31302347D01*
X115209034Y-31309367D01*
X115211945Y-31309736D01*
X115347827Y-31326475D01*
X115469856Y-31340037D01*
X115583322Y-31350733D01*
X115693514Y-31358874D01*
X115805722Y-31364770D01*
X115925236Y-31368731D01*
X116057343Y-31371067D01*
X116207336Y-31372090D01*
X116276600Y-31372202D01*
X116460755Y-31371435D01*
X116624485Y-31368759D01*
X116772710Y-31363874D01*
X116910354Y-31356478D01*
X117042339Y-31346271D01*
X117173587Y-31332952D01*
X117309021Y-31316220D01*
X117400550Y-31303527D01*
X117690620Y-31255258D01*
X117967279Y-31195968D01*
X118228743Y-31126243D01*
X118473228Y-31046670D01*
X118698952Y-30957835D01*
X118904130Y-30860322D01*
X119086980Y-30754718D01*
X119103302Y-30744171D01*
X119147188Y-30717354D01*
X119183868Y-30698315D01*
X119207805Y-30689778D01*
X119213053Y-30690151D01*
X119221076Y-30690846D01*
X119218989Y-30685884D01*
X119222905Y-30670916D01*
X119242114Y-30649340D01*
X119269580Y-30626647D01*
X119298263Y-30608332D01*
X119321126Y-30599887D01*
X119327881Y-30600902D01*
X119336882Y-30603633D01*
X119334367Y-30599711D01*
X119339364Y-30587682D01*
X119358801Y-30561973D01*
X119388898Y-30526599D01*
X119425872Y-30485575D01*
X119465944Y-30442918D01*
X119505332Y-30402643D01*
X119540255Y-30368765D01*
X119566932Y-30345300D01*
X119581582Y-30336263D01*
X119582352Y-30336339D01*
X119587499Y-30331820D01*
X119585210Y-30326921D01*
X119587282Y-30309970D01*
X119601288Y-30280660D01*
X119614328Y-30259931D01*
X119691947Y-30127151D01*
X119749050Y-29984142D01*
X119786434Y-29828379D01*
X119804877Y-29657779D01*
X119807398Y-29596668D01*
X119808218Y-29546489D01*
X119807362Y-29511700D01*
X119804852Y-29496754D01*
X119804025Y-29496604D01*
X119797363Y-29490045D01*
X119794502Y-29466043D01*
X119794500Y-29465277D01*
X119790173Y-29424634D01*
X119778336Y-29366524D01*
X119760706Y-29297145D01*
X119738998Y-29222695D01*
X119714929Y-29149372D01*
X119690214Y-29083374D01*
X119685827Y-29072746D01*
X119665262Y-29021910D01*
X119649024Y-28978234D01*
X119639427Y-28948120D01*
X119637829Y-28939957D01*
X119633202Y-28924133D01*
X119628971Y-28923414D01*
X119618520Y-28916662D01*
X119601880Y-28893492D01*
X119582788Y-28860869D01*
X119564980Y-28825756D01*
X119552190Y-28795118D01*
X119548156Y-28775918D01*
X119548791Y-28773958D01*
X119548986Y-28766417D01*
X119543901Y-28768647D01*
X119526542Y-28767783D01*
X119511669Y-28752108D01*
X119507130Y-28731639D01*
X119509618Y-28724894D01*
X119511692Y-28715484D01*
X119506212Y-28717593D01*
X119493391Y-28711689D01*
X119467549Y-28689931D01*
X119432053Y-28655875D01*
X119390266Y-28613075D01*
X119345554Y-28565087D01*
X119301283Y-28515465D01*
X119260816Y-28467765D01*
X119227520Y-28425541D01*
X119219916Y-28415150D01*
X119185042Y-28360901D01*
X119158094Y-28308206D01*
X119141453Y-28262688D01*
X119137502Y-28229968D01*
X119138935Y-28224016D01*
X119139837Y-28210884D01*
X119133954Y-28212039D01*
X119126464Y-28205439D01*
X119122162Y-28176968D01*
X119121400Y-28150558D01*
X119122447Y-28113328D01*
X119128559Y-28089005D01*
X119144184Y-28074855D01*
X119173775Y-28068144D01*
X119221782Y-28066137D01*
X119258963Y-28066050D01*
X119386807Y-28078457D01*
X119513935Y-28115456D01*
X119641047Y-28177314D01*
X119756400Y-28254752D01*
X119806093Y-28294832D01*
X119855970Y-28339246D01*
X119902610Y-28384416D01*
X119942592Y-28426760D01*
X119972496Y-28462700D01*
X119988900Y-28488657D01*
X119990257Y-28499468D01*
X119988544Y-28508500D01*
X119994040Y-28506311D01*
X120011327Y-28507971D01*
X120029935Y-28524231D01*
X120042140Y-28545953D01*
X120041431Y-28562361D01*
X120039145Y-28571978D01*
X120045098Y-28569652D01*
X120062457Y-28570516D01*
X120077330Y-28586191D01*
X120081869Y-28606660D01*
X120079381Y-28613405D01*
X120077326Y-28622775D01*
X120083248Y-28620421D01*
X120098087Y-28623708D01*
X120115343Y-28641758D01*
X120128720Y-28665476D01*
X120131922Y-28685767D01*
X120130633Y-28688873D01*
X120132332Y-28698286D01*
X120138300Y-28698039D01*
X120150793Y-28706863D01*
X120170362Y-28732885D01*
X120193696Y-28770125D01*
X120217484Y-28812601D01*
X120238416Y-28854332D01*
X120253179Y-28889339D01*
X120258465Y-28911640D01*
X120258013Y-28914284D01*
X120258760Y-28925057D01*
X120263566Y-28923665D01*
X120273007Y-28930969D01*
X120287347Y-28956401D01*
X120304185Y-28993758D01*
X120321119Y-29036840D01*
X120335747Y-29079445D01*
X120345666Y-29115373D01*
X120348475Y-29138422D01*
X120347855Y-29141270D01*
X120347289Y-29153455D01*
X120352051Y-29152521D01*
X120359646Y-29160827D01*
X120370570Y-29189485D01*
X120383620Y-29233854D01*
X120397591Y-29289294D01*
X120411279Y-29351165D01*
X120423479Y-29414826D01*
X120429316Y-29450200D01*
X120436671Y-29520001D01*
X120440828Y-29607484D01*
X120441882Y-29705149D01*
X120439930Y-29805492D01*
X120435070Y-29901011D01*
X120427399Y-29984204D01*
X120421907Y-30022637D01*
X120385779Y-30184566D01*
X120333343Y-30346609D01*
X120267384Y-30501849D01*
X120190686Y-30643367D01*
X120143140Y-30715367D01*
X120112726Y-30754670D01*
X120087951Y-30780377D01*
X120072450Y-30788804D01*
X120071121Y-30788332D01*
X120063384Y-30787568D01*
X120067116Y-30795699D01*
X120063429Y-30811273D01*
X120045444Y-30837873D01*
X120018183Y-30870239D01*
X119986667Y-30903111D01*
X119955916Y-30931229D01*
X119930953Y-30949333D01*
X119917354Y-30952587D01*
X119910566Y-30952909D01*
X119912693Y-30957525D01*
X119909714Y-30973905D01*
X119892124Y-30997216D01*
X119866918Y-31021034D01*
X119841091Y-31038938D01*
X119821639Y-31044504D01*
X119819035Y-31043515D01*
X119809150Y-31040960D01*
X119811648Y-31047322D01*
X119807802Y-31062392D01*
X119788689Y-31084036D01*
X119761367Y-31106716D01*
X119732894Y-31124895D01*
X119710330Y-31133037D01*
X119703863Y-31131876D01*
X119694768Y-31130112D01*
X119696789Y-31135318D01*
X119693043Y-31150000D01*
X119674576Y-31169301D01*
X119649637Y-31187004D01*
X119626479Y-31196896D01*
X119616113Y-31196087D01*
X119606721Y-31198071D01*
X119606860Y-31205031D01*
X119599838Y-31218377D01*
X119588623Y-31220169D01*
X119571552Y-31225416D01*
X119569573Y-31232869D01*
X119561728Y-31244132D01*
X119550161Y-31245508D01*
X119534565Y-31248552D01*
X119534289Y-31253825D01*
X119527551Y-31264814D01*
X119503599Y-31283310D01*
X119468218Y-31306040D01*
X119427192Y-31329735D01*
X119386309Y-31351123D01*
X119351353Y-31366933D01*
X119328110Y-31373895D01*
X119323017Y-31373272D01*
X119313854Y-31371396D01*
X119316394Y-31377597D01*
X119309768Y-31389459D01*
X119282293Y-31408590D01*
X119237041Y-31433726D01*
X119177084Y-31463598D01*
X119105496Y-31496942D01*
X119025350Y-31532491D01*
X118939718Y-31568978D01*
X118851674Y-31605138D01*
X118764289Y-31639704D01*
X118680638Y-31671409D01*
X118603792Y-31698989D01*
X118536826Y-31721177D01*
X118482810Y-31736705D01*
X118444819Y-31744309D01*
X118427805Y-31743752D01*
X118414890Y-31742621D01*
X118415491Y-31747187D01*
X118406572Y-31754668D01*
X118375568Y-31766777D01*
X118325216Y-31782745D01*
X118258252Y-31801800D01*
X118177410Y-31823173D01*
X118085426Y-31846092D01*
X117985037Y-31869788D01*
X117959350Y-31875652D01*
X117779257Y-31913085D01*
X117581012Y-31948231D01*
X117371830Y-31980047D01*
X117158930Y-32007493D01*
X116949528Y-32029527D01*
X116816350Y-32040627D01*
X116718343Y-32046568D01*
X116602174Y-32051519D01*
X116473421Y-32055412D01*
X116337663Y-32058176D01*
X116200478Y-32059745D01*
X116067444Y-32060048D01*
X115944142Y-32059019D01*
X115836148Y-32056586D01*
X115764475Y-32053582D01*
X115668215Y-32047674D01*
X115567300Y-32040298D01*
X115464768Y-32031788D01*
X115363656Y-32022480D01*
X115266999Y-32012708D01*
X115177835Y-32002808D01*
X115099201Y-31993115D01*
X115034134Y-31983964D01*
X114985670Y-31975691D01*
X114956846Y-31968629D01*
X114950122Y-31963711D01*
X114945065Y-31958787D01*
X114932272Y-31960630D01*
X114909706Y-31961194D01*
X114868505Y-31957167D01*
X114812628Y-31949332D01*
X114746036Y-31938471D01*
X114672686Y-31925365D01*
X114596538Y-31910797D01*
X114521550Y-31895548D01*
X114451683Y-31880401D01*
X114390894Y-31866138D01*
X114343144Y-31853541D01*
X114312390Y-31843392D01*
X114302593Y-31836472D01*
X114302694Y-31836270D01*
X114299691Y-31830307D01*
X114291412Y-31832300D01*
X114268814Y-31832794D01*
X114227311Y-31825732D01*
X114170127Y-31812198D01*
X114100484Y-31793275D01*
X114021607Y-31770045D01*
X113936719Y-31743593D01*
X113849043Y-31715001D01*
X113761804Y-31685352D01*
X113678223Y-31655729D01*
X113601526Y-31627215D01*
X113534935Y-31600894D01*
X113481674Y-31577848D01*
X113444966Y-31559160D01*
X113428035Y-31545914D01*
X113427678Y-31542094D01*
X113427601Y-31535299D01*
X113419440Y-31539139D01*
X113402343Y-31538501D01*
X113370805Y-31528798D01*
X113330940Y-31512879D01*
X113288868Y-31493591D01*
X113250703Y-31473784D01*
X113222564Y-31456304D01*
X113210567Y-31444001D01*
X113210841Y-31442010D01*
X113206892Y-31437128D01*
X113195426Y-31440053D01*
X113180645Y-31442525D01*
X113184028Y-31431595D01*
X113187547Y-31420779D01*
X113179406Y-31424057D01*
X113162261Y-31422335D01*
X113129158Y-31409297D01*
X113084379Y-31387476D01*
X113032208Y-31359409D01*
X112976926Y-31327631D01*
X112922818Y-31294676D01*
X112874165Y-31263080D01*
X112835251Y-31235379D01*
X112810358Y-31214107D01*
X112803769Y-31201800D01*
X112803814Y-31201725D01*
X112801300Y-31194793D01*
X112794284Y-31196168D01*
X112777400Y-31191398D01*
X112747493Y-31173889D01*
X112709956Y-31147830D01*
X112670182Y-31117410D01*
X112633566Y-31086816D01*
X112605499Y-31060238D01*
X112591376Y-31041864D01*
X112590739Y-31038084D01*
X112586188Y-31029504D01*
X112580146Y-31031815D01*
X112565855Y-31026971D01*
X112538819Y-31006891D01*
X112502943Y-30975519D01*
X112462132Y-30936801D01*
X112420292Y-30894682D01*
X112381326Y-30853106D01*
X112349141Y-30816021D01*
X112327640Y-30787369D01*
X112320730Y-30771097D01*
X112321102Y-30770106D01*
X112323636Y-30760306D01*
X112316450Y-30763259D01*
X112301398Y-30758550D01*
X112277251Y-30734879D01*
X112246284Y-30695993D01*
X112210774Y-30645641D01*
X112172998Y-30587573D01*
X112135231Y-30525536D01*
X112099749Y-30463281D01*
X112068829Y-30404556D01*
X112044746Y-30353110D01*
X112029777Y-30312692D01*
X112026199Y-30287050D01*
X112026490Y-30285683D01*
X112027058Y-30269838D01*
X112022281Y-30269237D01*
X112013780Y-30261602D01*
X112002452Y-30233455D01*
X111989438Y-30189372D01*
X111975878Y-30133932D01*
X111962910Y-30071710D01*
X111951676Y-30007283D01*
X111944819Y-29958200D01*
X111938686Y-29885742D01*
X111935828Y-29803989D01*
X111936732Y-29728671D01*
X111937339Y-29716900D01*
X111942524Y-29648281D01*
X111949518Y-29581331D01*
X111957629Y-29520470D01*
X111966166Y-29470123D01*
X111974439Y-29434710D01*
X111981756Y-29418655D01*
X111983966Y-29418429D01*
X111988541Y-29412166D01*
X111986674Y-29390778D01*
X111984905Y-29368117D01*
X111993565Y-29365913D01*
X111996820Y-29367724D01*
X112007339Y-29370963D01*
X112004071Y-29362952D01*
X111999384Y-29341875D01*
X112002213Y-29314755D01*
X112010176Y-29290916D01*
X112020893Y-29279685D01*
X112025095Y-29280601D01*
X112032716Y-29280999D01*
X112030023Y-29274946D01*
X112026035Y-29255066D01*
X112029420Y-29229753D01*
X112037570Y-29209015D01*
X112047873Y-29202861D01*
X112048709Y-29203297D01*
X112054755Y-29200286D01*
X112052588Y-29191142D01*
X112054037Y-29170619D01*
X112065437Y-29133955D01*
X112084663Y-29085403D01*
X112109592Y-29029216D01*
X112138101Y-28969648D01*
X112168065Y-28910954D01*
X112197361Y-28857386D01*
X112223865Y-28813198D01*
X112245453Y-28782645D01*
X112260001Y-28769978D01*
X112262699Y-28770316D01*
X112270675Y-28765892D01*
X112271491Y-28754738D01*
X112277621Y-28737836D01*
X112286568Y-28736139D01*
X112296951Y-28732053D01*
X112294995Y-28726049D01*
X112297372Y-28709507D01*
X112312266Y-28681689D01*
X112334926Y-28648781D01*
X112360599Y-28616971D01*
X112384534Y-28592443D01*
X112401981Y-28581385D01*
X112405728Y-28581874D01*
X112413638Y-28582783D01*
X112409984Y-28574764D01*
X112412169Y-28557523D01*
X112428030Y-28532447D01*
X112451145Y-28506534D01*
X112475092Y-28486779D01*
X112493447Y-28480177D01*
X112495974Y-28481106D01*
X112502899Y-28480872D01*
X112500763Y-28476205D01*
X112503583Y-28460471D01*
X112519875Y-28438638D01*
X112542259Y-28417805D01*
X112563356Y-28405076D01*
X112574291Y-28405447D01*
X112579505Y-28406532D01*
X112577112Y-28401338D01*
X112580773Y-28385155D01*
X112598759Y-28360670D01*
X112624590Y-28334144D01*
X112651787Y-28311835D01*
X112673869Y-28300003D01*
X112681668Y-28300335D01*
X112692356Y-28299689D01*
X112692339Y-28293301D01*
X112700704Y-28278202D01*
X112727290Y-28253612D01*
X112768085Y-28222321D01*
X112819077Y-28187121D01*
X112876253Y-28150801D01*
X112935602Y-28116152D01*
X112983794Y-28090582D01*
X113077721Y-28050972D01*
X113160954Y-28031382D01*
X113232258Y-28031784D01*
G37*
X113232258Y-28031784D02*
X113290399Y-28052154D01*
X113334142Y-28092463D01*
X113338058Y-28098169D01*
X113349721Y-28119185D01*
X113351991Y-28138912D01*
X113344688Y-28166996D01*
X113336346Y-28189980D01*
X113315142Y-28240685D01*
X113291903Y-28287000D01*
X113269574Y-28323997D01*
X113251096Y-28346746D01*
X113240237Y-28350993D01*
X113234191Y-28354044D01*
X113236485Y-28363770D01*
X113232031Y-28378909D01*
X113211412Y-28407401D01*
X113173837Y-28450166D01*
X113118514Y-28508121D01*
X113068918Y-28558105D01*
X112974216Y-28655931D01*
X112897717Y-28743204D01*
X112836649Y-28823694D01*
X112788238Y-28901173D01*
X112749712Y-28979410D01*
X112737732Y-29008480D01*
X112719492Y-29049761D01*
X112703292Y-29077305D01*
X112692077Y-29086192D01*
X112691386Y-29085892D01*
X112684681Y-29086339D01*
X112687298Y-29092089D01*
X112688136Y-29110084D01*
X112682822Y-29145852D01*
X112672442Y-29192818D01*
X112667586Y-29211526D01*
X112656058Y-29258506D01*
X112647997Y-29303928D01*
X112642814Y-29354081D01*
X112639917Y-29415254D01*
X112638715Y-29493735D01*
X112638601Y-29520050D01*
X112640763Y-29636654D01*
X112648920Y-29736182D01*
X112664536Y-29826550D01*
X112689076Y-29915673D01*
X112724005Y-30011469D01*
X112734147Y-30036454D01*
X112750843Y-30081001D01*
X112761272Y-30117027D01*
X112763550Y-30137799D01*
X112762955Y-30139388D01*
X112762660Y-30146902D01*
X112767389Y-30144828D01*
X112780166Y-30150270D01*
X112798647Y-30172829D01*
X112809348Y-30190491D01*
X112834396Y-30232884D01*
X112865415Y-30281146D01*
X112881639Y-30304851D01*
X112903472Y-30339479D01*
X112915930Y-30366647D01*
X112916899Y-30378191D01*
X112916832Y-30387513D01*
X112920673Y-30387139D01*
X112934113Y-30394074D01*
X112959118Y-30415667D01*
X112991501Y-30447385D01*
X113027073Y-30484693D01*
X113061646Y-30523056D01*
X113091030Y-30557941D01*
X113111038Y-30584813D01*
X113117481Y-30599138D01*
X113117128Y-30599815D01*
X113116700Y-30604406D01*
X113122332Y-30601759D01*
X113140875Y-30602819D01*
X113164968Y-30616339D01*
X113186201Y-30635616D01*
X113196163Y-30653946D01*
X113195008Y-30659679D01*
X113194611Y-30667330D01*
X113200499Y-30664718D01*
X113216774Y-30667376D01*
X113247809Y-30682013D01*
X113287770Y-30705745D01*
X113300887Y-30714382D01*
X113363265Y-30753209D01*
X113442689Y-30797848D01*
X113532513Y-30844945D01*
X113626094Y-30891147D01*
X113716790Y-30933100D01*
X113797955Y-30967449D01*
X113816261Y-30974562D01*
X113864297Y-30994372D01*
X113899464Y-31011962D01*
X113917287Y-31024948D01*
X113918302Y-31028960D01*
X113918784Y-31035622D01*
X113924157Y-31033168D01*
X113940296Y-31033868D01*
X113976397Y-31041126D01*
X114028186Y-31053902D01*
X114091388Y-31071158D01*
X114145194Y-31086862D01*
X114240728Y-31114352D01*
X114344619Y-31142255D01*
X114453053Y-31169723D01*
X114562214Y-31195906D01*
X114668285Y-31219953D01*
X114767451Y-31241016D01*
X114855895Y-31258245D01*
X114929802Y-31270790D01*
X114985354Y-31277802D01*
X115008194Y-31279000D01*
X115025256Y-31283972D01*
X115025739Y-31291554D01*
X115027741Y-31298886D01*
X115036660Y-31296941D01*
X115055927Y-31295727D01*
X115094784Y-31297665D01*
X115147673Y-31302347D01*
X115209034Y-31309367D01*
X115211945Y-31309736D01*
X115347827Y-31326475D01*
X115469856Y-31340037D01*
X115583322Y-31350733D01*
X115693514Y-31358874D01*
X115805722Y-31364770D01*
X115925236Y-31368731D01*
X116057343Y-31371067D01*
X116207336Y-31372090D01*
X116276600Y-31372202D01*
X116460755Y-31371435D01*
X116624485Y-31368759D01*
X116772710Y-31363874D01*
X116910354Y-31356478D01*
X117042339Y-31346271D01*
X117173587Y-31332952D01*
X117309021Y-31316220D01*
X117400550Y-31303527D01*
X117690620Y-31255258D01*
X117967279Y-31195968D01*
X118228743Y-31126243D01*
X118473228Y-31046670D01*
X118698952Y-30957835D01*
X118904130Y-30860322D01*
X119086980Y-30754718D01*
X119103302Y-30744171D01*
X119147188Y-30717354D01*
X119183868Y-30698315D01*
X119207805Y-30689778D01*
X119213053Y-30690151D01*
X119221076Y-30690846D01*
X119218989Y-30685884D01*
X119222905Y-30670916D01*
X119242114Y-30649340D01*
X119269580Y-30626647D01*
X119298263Y-30608332D01*
X119321126Y-30599887D01*
X119327881Y-30600902D01*
X119336882Y-30603633D01*
X119334367Y-30599711D01*
X119339364Y-30587682D01*
X119358801Y-30561973D01*
X119388898Y-30526599D01*
X119425872Y-30485575D01*
X119465944Y-30442918D01*
X119505332Y-30402643D01*
X119540255Y-30368765D01*
X119566932Y-30345300D01*
X119581582Y-30336263D01*
X119582352Y-30336339D01*
X119587499Y-30331820D01*
X119585210Y-30326921D01*
X119587282Y-30309970D01*
X119601288Y-30280660D01*
X119614328Y-30259931D01*
X119691947Y-30127151D01*
X119749050Y-29984142D01*
X119786434Y-29828379D01*
X119804877Y-29657779D01*
X119807398Y-29596668D01*
X119808218Y-29546489D01*
X119807362Y-29511700D01*
X119804852Y-29496754D01*
X119804025Y-29496604D01*
X119797363Y-29490045D01*
X119794502Y-29466043D01*
X119794500Y-29465277D01*
X119790173Y-29424634D01*
X119778336Y-29366524D01*
X119760706Y-29297145D01*
X119738998Y-29222695D01*
X119714929Y-29149372D01*
X119690214Y-29083374D01*
X119685827Y-29072746D01*
X119665262Y-29021910D01*
X119649024Y-28978234D01*
X119639427Y-28948120D01*
X119637829Y-28939957D01*
X119633202Y-28924133D01*
X119628971Y-28923414D01*
X119618520Y-28916662D01*
X119601880Y-28893492D01*
X119582788Y-28860869D01*
X119564980Y-28825756D01*
X119552190Y-28795118D01*
X119548156Y-28775918D01*
X119548791Y-28773958D01*
X119548986Y-28766417D01*
X119543901Y-28768647D01*
X119526542Y-28767783D01*
X119511669Y-28752108D01*
X119507130Y-28731639D01*
X119509618Y-28724894D01*
X119511692Y-28715484D01*
X119506212Y-28717593D01*
X119493391Y-28711689D01*
X119467549Y-28689931D01*
X119432053Y-28655875D01*
X119390266Y-28613075D01*
X119345554Y-28565087D01*
X119301283Y-28515465D01*
X119260816Y-28467765D01*
X119227520Y-28425541D01*
X119219916Y-28415150D01*
X119185042Y-28360901D01*
X119158094Y-28308206D01*
X119141453Y-28262688D01*
X119137502Y-28229968D01*
X119138935Y-28224016D01*
X119139837Y-28210884D01*
X119133954Y-28212039D01*
X119126464Y-28205439D01*
X119122162Y-28176968D01*
X119121400Y-28150558D01*
X119122447Y-28113328D01*
X119128559Y-28089005D01*
X119144184Y-28074855D01*
X119173775Y-28068144D01*
X119221782Y-28066137D01*
X119258963Y-28066050D01*
X119386807Y-28078457D01*
X119513935Y-28115456D01*
X119641047Y-28177314D01*
X119756400Y-28254752D01*
X119806093Y-28294832D01*
X119855970Y-28339246D01*
X119902610Y-28384416D01*
X119942592Y-28426760D01*
X119972496Y-28462700D01*
X119988900Y-28488657D01*
X119990257Y-28499468D01*
X119988544Y-28508500D01*
X119994040Y-28506311D01*
X120011327Y-28507971D01*
X120029935Y-28524231D01*
X120042140Y-28545953D01*
X120041431Y-28562361D01*
X120039145Y-28571978D01*
X120045098Y-28569652D01*
X120062457Y-28570516D01*
X120077330Y-28586191D01*
X120081869Y-28606660D01*
X120079381Y-28613405D01*
X120077326Y-28622775D01*
X120083248Y-28620421D01*
X120098087Y-28623708D01*
X120115343Y-28641758D01*
X120128720Y-28665476D01*
X120131922Y-28685767D01*
X120130633Y-28688873D01*
X120132332Y-28698286D01*
X120138300Y-28698039D01*
X120150793Y-28706863D01*
X120170362Y-28732885D01*
X120193696Y-28770125D01*
X120217484Y-28812601D01*
X120238416Y-28854332D01*
X120253179Y-28889339D01*
X120258465Y-28911640D01*
X120258013Y-28914284D01*
X120258760Y-28925057D01*
X120263566Y-28923665D01*
X120273007Y-28930969D01*
X120287347Y-28956401D01*
X120304185Y-28993758D01*
X120321119Y-29036840D01*
X120335747Y-29079445D01*
X120345666Y-29115373D01*
X120348475Y-29138422D01*
X120347855Y-29141270D01*
X120347289Y-29153455D01*
X120352051Y-29152521D01*
X120359646Y-29160827D01*
X120370570Y-29189485D01*
X120383620Y-29233854D01*
X120397591Y-29289294D01*
X120411279Y-29351165D01*
X120423479Y-29414826D01*
X120429316Y-29450200D01*
X120436671Y-29520001D01*
X120440828Y-29607484D01*
X120441882Y-29705149D01*
X120439930Y-29805492D01*
X120435070Y-29901011D01*
X120427399Y-29984204D01*
X120421907Y-30022637D01*
X120385779Y-30184566D01*
X120333343Y-30346609D01*
X120267384Y-30501849D01*
X120190686Y-30643367D01*
X120143140Y-30715367D01*
X120112726Y-30754670D01*
X120087951Y-30780377D01*
X120072450Y-30788804D01*
X120071121Y-30788332D01*
X120063384Y-30787568D01*
X120067116Y-30795699D01*
X120063429Y-30811273D01*
X120045444Y-30837873D01*
X120018183Y-30870239D01*
X119986667Y-30903111D01*
X119955916Y-30931229D01*
X119930953Y-30949333D01*
X119917354Y-30952587D01*
X119910566Y-30952909D01*
X119912693Y-30957525D01*
X119909714Y-30973905D01*
X119892124Y-30997216D01*
X119866918Y-31021034D01*
X119841091Y-31038938D01*
X119821639Y-31044504D01*
X119819035Y-31043515D01*
X119809150Y-31040960D01*
X119811648Y-31047322D01*
X119807802Y-31062392D01*
X119788689Y-31084036D01*
X119761367Y-31106716D01*
X119732894Y-31124895D01*
X119710330Y-31133037D01*
X119703863Y-31131876D01*
X119694768Y-31130112D01*
X119696789Y-31135318D01*
X119693043Y-31150000D01*
X119674576Y-31169301D01*
X119649637Y-31187004D01*
X119626479Y-31196896D01*
X119616113Y-31196087D01*
X119606721Y-31198071D01*
X119606860Y-31205031D01*
X119599838Y-31218377D01*
X119588623Y-31220169D01*
X119571552Y-31225416D01*
X119569573Y-31232869D01*
X119561728Y-31244132D01*
X119550161Y-31245508D01*
X119534565Y-31248552D01*
X119534289Y-31253825D01*
X119527551Y-31264814D01*
X119503599Y-31283310D01*
X119468218Y-31306040D01*
X119427192Y-31329735D01*
X119386309Y-31351123D01*
X119351353Y-31366933D01*
X119328110Y-31373895D01*
X119323017Y-31373272D01*
X119313854Y-31371396D01*
X119316394Y-31377597D01*
X119309768Y-31389459D01*
X119282293Y-31408590D01*
X119237041Y-31433726D01*
X119177084Y-31463598D01*
X119105496Y-31496942D01*
X119025350Y-31532491D01*
X118939718Y-31568978D01*
X118851674Y-31605138D01*
X118764289Y-31639704D01*
X118680638Y-31671409D01*
X118603792Y-31698989D01*
X118536826Y-31721177D01*
X118482810Y-31736705D01*
X118444819Y-31744309D01*
X118427805Y-31743752D01*
X118414890Y-31742621D01*
X118415491Y-31747187D01*
X118406572Y-31754668D01*
X118375568Y-31766777D01*
X118325216Y-31782745D01*
X118258252Y-31801800D01*
X118177410Y-31823173D01*
X118085426Y-31846092D01*
X117985037Y-31869788D01*
X117959350Y-31875652D01*
X117779257Y-31913085D01*
X117581012Y-31948231D01*
X117371830Y-31980047D01*
X117158930Y-32007493D01*
X116949528Y-32029527D01*
X116816350Y-32040627D01*
X116718343Y-32046568D01*
X116602174Y-32051519D01*
X116473421Y-32055412D01*
X116337663Y-32058176D01*
X116200478Y-32059745D01*
X116067444Y-32060048D01*
X115944142Y-32059019D01*
X115836148Y-32056586D01*
X115764475Y-32053582D01*
X115668215Y-32047674D01*
X115567300Y-32040298D01*
X115464768Y-32031788D01*
X115363656Y-32022480D01*
X115266999Y-32012708D01*
X115177835Y-32002808D01*
X115099201Y-31993115D01*
X115034134Y-31983964D01*
X114985670Y-31975691D01*
X114956846Y-31968629D01*
X114950122Y-31963711D01*
X114945065Y-31958787D01*
X114932272Y-31960630D01*
X114909706Y-31961194D01*
X114868505Y-31957167D01*
X114812628Y-31949332D01*
X114746036Y-31938471D01*
X114672686Y-31925365D01*
X114596538Y-31910797D01*
X114521550Y-31895548D01*
X114451683Y-31880401D01*
X114390894Y-31866138D01*
X114343144Y-31853541D01*
X114312390Y-31843392D01*
X114302593Y-31836472D01*
X114302694Y-31836270D01*
X114299691Y-31830307D01*
X114291412Y-31832300D01*
X114268814Y-31832794D01*
X114227311Y-31825732D01*
X114170127Y-31812198D01*
X114100484Y-31793275D01*
X114021607Y-31770045D01*
X113936719Y-31743593D01*
X113849043Y-31715001D01*
X113761804Y-31685352D01*
X113678223Y-31655729D01*
X113601526Y-31627215D01*
X113534935Y-31600894D01*
X113481674Y-31577848D01*
X113444966Y-31559160D01*
X113428035Y-31545914D01*
X113427678Y-31542094D01*
X113427601Y-31535299D01*
X113419440Y-31539139D01*
X113402343Y-31538501D01*
X113370805Y-31528798D01*
X113330940Y-31512879D01*
X113288868Y-31493591D01*
X113250703Y-31473784D01*
X113222564Y-31456304D01*
X113210567Y-31444001D01*
X113210841Y-31442010D01*
X113206892Y-31437128D01*
X113195426Y-31440053D01*
X113180645Y-31442525D01*
X113184028Y-31431595D01*
X113187547Y-31420779D01*
X113179406Y-31424057D01*
X113162261Y-31422335D01*
X113129158Y-31409297D01*
X113084379Y-31387476D01*
X113032208Y-31359409D01*
X112976926Y-31327631D01*
X112922818Y-31294676D01*
X112874165Y-31263080D01*
X112835251Y-31235379D01*
X112810358Y-31214107D01*
X112803769Y-31201800D01*
X112803814Y-31201725D01*
X112801300Y-31194793D01*
X112794284Y-31196168D01*
X112777400Y-31191398D01*
X112747493Y-31173889D01*
X112709956Y-31147830D01*
X112670182Y-31117410D01*
X112633566Y-31086816D01*
X112605499Y-31060238D01*
X112591376Y-31041864D01*
X112590739Y-31038084D01*
X112586188Y-31029504D01*
X112580146Y-31031815D01*
X112565855Y-31026971D01*
X112538819Y-31006891D01*
X112502943Y-30975519D01*
X112462132Y-30936801D01*
X112420292Y-30894682D01*
X112381326Y-30853106D01*
X112349141Y-30816021D01*
X112327640Y-30787369D01*
X112320730Y-30771097D01*
X112321102Y-30770106D01*
X112323636Y-30760306D01*
X112316450Y-30763259D01*
X112301398Y-30758550D01*
X112277251Y-30734879D01*
X112246284Y-30695993D01*
X112210774Y-30645641D01*
X112172998Y-30587573D01*
X112135231Y-30525536D01*
X112099749Y-30463281D01*
X112068829Y-30404556D01*
X112044746Y-30353110D01*
X112029777Y-30312692D01*
X112026199Y-30287050D01*
X112026490Y-30285683D01*
X112027058Y-30269838D01*
X112022281Y-30269237D01*
X112013780Y-30261602D01*
X112002452Y-30233455D01*
X111989438Y-30189372D01*
X111975878Y-30133932D01*
X111962910Y-30071710D01*
X111951676Y-30007283D01*
X111944819Y-29958200D01*
X111938686Y-29885742D01*
X111935828Y-29803989D01*
X111936732Y-29728671D01*
X111937339Y-29716900D01*
X111942524Y-29648281D01*
X111949518Y-29581331D01*
X111957629Y-29520470D01*
X111966166Y-29470123D01*
X111974439Y-29434710D01*
X111981756Y-29418655D01*
X111983966Y-29418429D01*
X111988541Y-29412166D01*
X111986674Y-29390778D01*
X111984905Y-29368117D01*
X111993565Y-29365913D01*
X111996820Y-29367724D01*
X112007339Y-29370963D01*
X112004071Y-29362952D01*
X111999384Y-29341875D01*
X112002213Y-29314755D01*
X112010176Y-29290916D01*
X112020893Y-29279685D01*
X112025095Y-29280601D01*
X112032716Y-29280999D01*
X112030023Y-29274946D01*
X112026035Y-29255066D01*
X112029420Y-29229753D01*
X112037570Y-29209015D01*
X112047873Y-29202861D01*
X112048709Y-29203297D01*
X112054755Y-29200286D01*
X112052588Y-29191142D01*
X112054037Y-29170619D01*
X112065437Y-29133955D01*
X112084663Y-29085403D01*
X112109592Y-29029216D01*
X112138101Y-28969648D01*
X112168065Y-28910954D01*
X112197361Y-28857386D01*
X112223865Y-28813198D01*
X112245453Y-28782645D01*
X112260001Y-28769978D01*
X112262699Y-28770316D01*
X112270675Y-28765892D01*
X112271491Y-28754738D01*
X112277621Y-28737836D01*
X112286568Y-28736139D01*
X112296951Y-28732053D01*
X112294995Y-28726049D01*
X112297372Y-28709507D01*
X112312266Y-28681689D01*
X112334926Y-28648781D01*
X112360599Y-28616971D01*
X112384534Y-28592443D01*
X112401981Y-28581385D01*
X112405728Y-28581874D01*
X112413638Y-28582783D01*
X112409984Y-28574764D01*
X112412169Y-28557523D01*
X112428030Y-28532447D01*
X112451145Y-28506534D01*
X112475092Y-28486779D01*
X112493447Y-28480177D01*
X112495974Y-28481106D01*
X112502899Y-28480872D01*
X112500763Y-28476205D01*
X112503583Y-28460471D01*
X112519875Y-28438638D01*
X112542259Y-28417805D01*
X112563356Y-28405076D01*
X112574291Y-28405447D01*
X112579505Y-28406532D01*
X112577112Y-28401338D01*
X112580773Y-28385155D01*
X112598759Y-28360670D01*
X112624590Y-28334144D01*
X112651787Y-28311835D01*
X112673869Y-28300003D01*
X112681668Y-28300335D01*
X112692356Y-28299689D01*
X112692339Y-28293301D01*
X112700704Y-28278202D01*
X112727290Y-28253612D01*
X112768085Y-28222321D01*
X112819077Y-28187121D01*
X112876253Y-28150801D01*
X112935602Y-28116152D01*
X112983794Y-28090582D01*
X113077721Y-28050972D01*
X113160954Y-28031382D01*
X113232258Y-28031784D01*
G36*
X77616476Y-54141492D02*
G01*
X77750075Y-54290505D01*
X77750480Y-54490345D01*
X77748798Y-54494825D01*
X77618552Y-54604096D01*
X77391292Y-54633333D01*
X77190471Y-54622379D01*
X77112226Y-54558727D01*
X77109928Y-54396191D01*
X77113468Y-54358167D01*
X77152099Y-54167122D01*
X77250760Y-54093094D01*
X77384772Y-54083000D01*
X77616476Y-54141492D01*
G37*
X77616476Y-54141492D02*
X77750075Y-54290505D01*
X77750480Y-54490345D01*
X77748798Y-54494825D01*
X77618552Y-54604096D01*
X77391292Y-54633333D01*
X77190471Y-54622379D01*
X77112226Y-54558727D01*
X77109928Y-54396191D01*
X77113468Y-54358167D01*
X77152099Y-54167122D01*
X77250760Y-54093094D01*
X77384772Y-54083000D01*
X77616476Y-54141492D01*
G36*
X82328547Y-55833733D02*
G01*
X82350908Y-55835342D01*
X82762795Y-55902523D01*
X83030382Y-56040294D01*
X83167641Y-56259044D01*
X83193666Y-56461988D01*
X83125432Y-56737519D01*
X82919370Y-56918219D01*
X82573445Y-57005568D01*
X82433994Y-57014017D01*
X82142392Y-57032367D01*
X81884787Y-57065854D01*
X81828408Y-57077517D01*
X81673843Y-57138390D01*
X81653565Y-57246391D01*
X81677768Y-57322188D01*
X81807089Y-57500398D01*
X81969323Y-57613586D01*
X82129553Y-57663194D01*
X82291762Y-57639808D01*
X82521032Y-57532430D01*
X82553345Y-57514907D01*
X82856138Y-57388425D01*
X83069865Y-57382447D01*
X83180865Y-57495431D01*
X83193666Y-57587104D01*
X83115138Y-57773445D01*
X82903690Y-57933481D01*
X82595528Y-58049294D01*
X82226859Y-58102965D01*
X82147842Y-58104667D01*
X81844765Y-58090319D01*
X81636001Y-58031121D01*
X81447790Y-57902841D01*
X81395835Y-57857612D01*
X81246571Y-57711674D01*
X81163627Y-57573599D01*
X81127674Y-57386739D01*
X81119386Y-57094447D01*
X81119333Y-57047202D01*
X81124311Y-56741588D01*
X81150896Y-56575033D01*
X81796666Y-56575033D01*
X82093000Y-56576553D01*
X82330844Y-56555934D01*
X82506276Y-56503809D01*
X82513881Y-56499307D01*
X82599469Y-56419300D01*
X82545722Y-56353951D01*
X82379967Y-56292891D01*
X82153596Y-56309736D01*
X81998967Y-56406556D01*
X81796666Y-56575033D01*
X81150896Y-56575033D01*
X81155917Y-56543578D01*
X81239157Y-56391453D01*
X81399037Y-56223491D01*
X81486248Y-56141593D01*
X81701068Y-55950498D01*
X81865640Y-55852285D01*
X82051090Y-55821761D01*
X82328547Y-55833733D01*
G37*
X82328547Y-55833733D02*
X82350908Y-55835342D01*
X82762795Y-55902523D01*
X83030382Y-56040294D01*
X83167641Y-56259044D01*
X83193666Y-56461988D01*
X83125432Y-56737519D01*
X82919370Y-56918219D01*
X82573445Y-57005568D01*
X82433994Y-57014017D01*
X82142392Y-57032367D01*
X81884787Y-57065854D01*
X81828408Y-57077517D01*
X81673843Y-57138390D01*
X81653565Y-57246391D01*
X81677768Y-57322188D01*
X81807089Y-57500398D01*
X81969323Y-57613586D01*
X82129553Y-57663194D01*
X82291762Y-57639808D01*
X82521032Y-57532430D01*
X82553345Y-57514907D01*
X82856138Y-57388425D01*
X83069865Y-57382447D01*
X83180865Y-57495431D01*
X83193666Y-57587104D01*
X83115138Y-57773445D01*
X82903690Y-57933481D01*
X82595528Y-58049294D01*
X82226859Y-58102965D01*
X82147842Y-58104667D01*
X81844765Y-58090319D01*
X81636001Y-58031121D01*
X81447790Y-57902841D01*
X81395835Y-57857612D01*
X81246571Y-57711674D01*
X81163627Y-57573599D01*
X81127674Y-57386739D01*
X81119386Y-57094447D01*
X81119333Y-57047202D01*
X81124311Y-56741588D01*
X81150896Y-56575033D01*
X81796666Y-56575033D01*
X82093000Y-56576553D01*
X82330844Y-56555934D01*
X82506276Y-56503809D01*
X82513881Y-56499307D01*
X82599469Y-56419300D01*
X82545722Y-56353951D01*
X82379967Y-56292891D01*
X82153596Y-56309736D01*
X81998967Y-56406556D01*
X81796666Y-56575033D01*
X81150896Y-56575033D01*
X81155917Y-56543578D01*
X81239157Y-56391453D01*
X81399037Y-56223491D01*
X81486248Y-56141593D01*
X81701068Y-55950498D01*
X81865640Y-55852285D01*
X82051090Y-55821761D01*
X82328547Y-55833733D01*
G36*
X61631586Y-54168479D02*
G01*
X61817101Y-54189721D01*
X61921084Y-54233139D01*
X61946552Y-54257417D01*
X62007868Y-54423042D01*
X61996796Y-54505255D01*
X61933800Y-54570872D01*
X61786025Y-54610627D01*
X61522902Y-54629628D01*
X61230320Y-54633333D01*
X60873869Y-54643631D01*
X60607655Y-54671746D01*
X60467329Y-54713509D01*
X60457113Y-54723749D01*
X60419161Y-54853183D01*
X60380214Y-55091546D01*
X60357575Y-55295249D01*
X60313918Y-55776333D01*
X60937625Y-55776333D01*
X61259362Y-55780395D01*
X61449096Y-55799587D01*
X61544096Y-55844418D01*
X61581630Y-55925395D01*
X61587435Y-55959561D01*
X61579013Y-56085253D01*
X61491295Y-56164473D01*
X61295843Y-56208396D01*
X60964221Y-56228195D01*
X60899657Y-56229803D01*
X60646051Y-56243358D01*
X60465752Y-56267512D01*
X60423027Y-56281432D01*
X60389193Y-56378546D01*
X60351814Y-56607622D01*
X60316049Y-56931513D01*
X60293388Y-57214358D01*
X60232705Y-58104667D01*
X59719442Y-58104667D01*
X59780351Y-56220833D01*
X59800399Y-55672695D01*
X59822759Y-55182553D01*
X59845931Y-54775333D01*
X59868412Y-54475962D01*
X59888703Y-54309364D01*
X59896963Y-54284105D01*
X59999275Y-54258944D01*
X60234243Y-54231077D01*
X60565309Y-54204136D01*
X60899914Y-54184435D01*
X61335527Y-54167391D01*
X61631586Y-54168479D01*
G37*
X61631586Y-54168479D02*
X61817101Y-54189721D01*
X61921084Y-54233139D01*
X61946552Y-54257417D01*
X62007868Y-54423042D01*
X61996796Y-54505255D01*
X61933800Y-54570872D01*
X61786025Y-54610627D01*
X61522902Y-54629628D01*
X61230320Y-54633333D01*
X60873869Y-54643631D01*
X60607655Y-54671746D01*
X60467329Y-54713509D01*
X60457113Y-54723749D01*
X60419161Y-54853183D01*
X60380214Y-55091546D01*
X60357575Y-55295249D01*
X60313918Y-55776333D01*
X60937625Y-55776333D01*
X61259362Y-55780395D01*
X61449096Y-55799587D01*
X61544096Y-55844418D01*
X61581630Y-55925395D01*
X61587435Y-55959561D01*
X61579013Y-56085253D01*
X61491295Y-56164473D01*
X61295843Y-56208396D01*
X60964221Y-56228195D01*
X60899657Y-56229803D01*
X60646051Y-56243358D01*
X60465752Y-56267512D01*
X60423027Y-56281432D01*
X60389193Y-56378546D01*
X60351814Y-56607622D01*
X60316049Y-56931513D01*
X60293388Y-57214358D01*
X60232705Y-58104667D01*
X59719442Y-58104667D01*
X59780351Y-56220833D01*
X59800399Y-55672695D01*
X59822759Y-55182553D01*
X59845931Y-54775333D01*
X59868412Y-54475962D01*
X59888703Y-54309364D01*
X59896963Y-54284105D01*
X59999275Y-54258944D01*
X60234243Y-54231077D01*
X60565309Y-54204136D01*
X60899914Y-54184435D01*
X61335527Y-54167391D01*
X61631586Y-54168479D01*
G36*
X76020867Y-55800658D02*
G01*
X76286281Y-55917414D01*
X76459932Y-56090892D01*
X76505000Y-56255122D01*
X76436671Y-56371854D01*
X76267413Y-56413867D01*
X76050815Y-56375707D01*
X75923963Y-56314281D01*
X75741523Y-56261488D01*
X75535885Y-56278971D01*
X75373664Y-56352050D01*
X75319666Y-56447455D01*
X75397995Y-56539761D01*
X75610098Y-56634304D01*
X75749783Y-56675254D01*
X76042582Y-56776480D01*
X76296122Y-56907886D01*
X76381359Y-56972195D01*
X76580360Y-57242434D01*
X76652524Y-57536660D01*
X76601275Y-57812914D01*
X76430034Y-58029237D01*
X76288862Y-58106366D01*
X75996103Y-58169143D01*
X75632690Y-58182475D01*
X75273102Y-58149169D01*
X74991818Y-58072037D01*
X74959833Y-58056239D01*
X74790074Y-57906857D01*
X74729125Y-57732888D01*
X74786820Y-57586102D01*
X74861695Y-57539664D01*
X75021159Y-57540547D01*
X75245061Y-57608160D01*
X75296654Y-57631162D01*
X75555649Y-57714191D01*
X75793163Y-57724729D01*
X75977222Y-57675590D01*
X76075850Y-57579589D01*
X76057073Y-57449541D01*
X75974805Y-57359380D01*
X75840539Y-57282688D01*
X75604783Y-57176792D01*
X75395956Y-57094100D01*
X75030518Y-56903656D01*
X74807122Y-56671272D01*
X74731014Y-56417434D01*
X74807441Y-56162625D01*
X75041648Y-55927331D01*
X75089105Y-55895994D01*
X75380773Y-55779420D01*
X75705196Y-55751150D01*
X76020867Y-55800658D01*
G37*
X76020867Y-55800658D02*
X76286281Y-55917414D01*
X76459932Y-56090892D01*
X76505000Y-56255122D01*
X76436671Y-56371854D01*
X76267413Y-56413867D01*
X76050815Y-56375707D01*
X75923963Y-56314281D01*
X75741523Y-56261488D01*
X75535885Y-56278971D01*
X75373664Y-56352050D01*
X75319666Y-56447455D01*
X75397995Y-56539761D01*
X75610098Y-56634304D01*
X75749783Y-56675254D01*
X76042582Y-56776480D01*
X76296122Y-56907886D01*
X76381359Y-56972195D01*
X76580360Y-57242434D01*
X76652524Y-57536660D01*
X76601275Y-57812914D01*
X76430034Y-58029237D01*
X76288862Y-58106366D01*
X75996103Y-58169143D01*
X75632690Y-58182475D01*
X75273102Y-58149169D01*
X74991818Y-58072037D01*
X74959833Y-58056239D01*
X74790074Y-57906857D01*
X74729125Y-57732888D01*
X74786820Y-57586102D01*
X74861695Y-57539664D01*
X75021159Y-57540547D01*
X75245061Y-57608160D01*
X75296654Y-57631162D01*
X75555649Y-57714191D01*
X75793163Y-57724729D01*
X75977222Y-57675590D01*
X76075850Y-57579589D01*
X76057073Y-57449541D01*
X75974805Y-57359380D01*
X75840539Y-57282688D01*
X75604783Y-57176792D01*
X75395956Y-57094100D01*
X75030518Y-56903656D01*
X74807122Y-56671272D01*
X74731014Y-56417434D01*
X74807441Y-56162625D01*
X75041648Y-55927331D01*
X75089105Y-55895994D01*
X75380773Y-55779420D01*
X75705196Y-55751150D01*
X76020867Y-55800658D01*
G36*
X77690333Y-58274000D02*
G01*
X77182333Y-58274000D01*
X77182333Y-55310667D01*
X77690333Y-55310667D01*
X77690333Y-58274000D01*
G37*
X77690333Y-58274000D02*
X77182333Y-58274000D01*
X77182333Y-55310667D01*
X77690333Y-55310667D01*
X77690333Y-58274000D01*
G36*
X70802578Y-54446636D02*
G01*
X70886361Y-54551160D01*
X70949429Y-54779664D01*
X70949817Y-54781500D01*
X71007327Y-55006235D01*
X71086197Y-55110291D01*
X71236106Y-55139939D01*
X71336180Y-55141333D01*
X71627382Y-55180475D01*
X71832700Y-55283550D01*
X71918810Y-55429033D01*
X71907080Y-55510090D01*
X71820637Y-55600148D01*
X71627303Y-55642457D01*
X71427657Y-55649333D01*
X71001666Y-55649333D01*
X71004436Y-56009167D01*
X71034778Y-56632861D01*
X71112635Y-57141608D01*
X71233891Y-57522645D01*
X71394431Y-57763210D01*
X71590138Y-57850541D01*
X71598397Y-57850667D01*
X71745331Y-57918821D01*
X71822920Y-58069138D01*
X71801277Y-58196974D01*
X71670244Y-58266518D01*
X71448595Y-58269049D01*
X71197642Y-58212334D01*
X70978696Y-58104141D01*
X70960491Y-58090451D01*
X70758884Y-57888358D01*
X70621003Y-57633135D01*
X70537501Y-57293070D01*
X70499030Y-56836451D01*
X70493666Y-56506776D01*
X70493666Y-55665446D01*
X70165976Y-55709399D01*
X69895807Y-55711379D01*
X69764022Y-55621497D01*
X69762963Y-55433600D01*
X69774240Y-55394576D01*
X69868893Y-55269291D01*
X70072000Y-55226633D01*
X70113733Y-55226000D01*
X70286646Y-55217050D01*
X70374187Y-55160367D01*
X70411047Y-55011206D01*
X70425527Y-54823833D01*
X70450006Y-54579920D01*
X70499539Y-54461265D01*
X70600109Y-54423796D01*
X70662621Y-54421667D01*
X70802578Y-54446636D01*
G37*
X70802578Y-54446636D02*
X70886361Y-54551160D01*
X70949429Y-54779664D01*
X70949817Y-54781500D01*
X71007327Y-55006235D01*
X71086197Y-55110291D01*
X71236106Y-55139939D01*
X71336180Y-55141333D01*
X71627382Y-55180475D01*
X71832700Y-55283550D01*
X71918810Y-55429033D01*
X71907080Y-55510090D01*
X71820637Y-55600148D01*
X71627303Y-55642457D01*
X71427657Y-55649333D01*
X71001666Y-55649333D01*
X71004436Y-56009167D01*
X71034778Y-56632861D01*
X71112635Y-57141608D01*
X71233891Y-57522645D01*
X71394431Y-57763210D01*
X71590138Y-57850541D01*
X71598397Y-57850667D01*
X71745331Y-57918821D01*
X71822920Y-58069138D01*
X71801277Y-58196974D01*
X71670244Y-58266518D01*
X71448595Y-58269049D01*
X71197642Y-58212334D01*
X70978696Y-58104141D01*
X70960491Y-58090451D01*
X70758884Y-57888358D01*
X70621003Y-57633135D01*
X70537501Y-57293070D01*
X70499030Y-56836451D01*
X70493666Y-56506776D01*
X70493666Y-55665446D01*
X70165976Y-55709399D01*
X69895807Y-55711379D01*
X69764022Y-55621497D01*
X69762963Y-55433600D01*
X69774240Y-55394576D01*
X69868893Y-55269291D01*
X70072000Y-55226633D01*
X70113733Y-55226000D01*
X70286646Y-55217050D01*
X70374187Y-55160367D01*
X70411047Y-55011206D01*
X70425527Y-54823833D01*
X70450006Y-54579920D01*
X70499539Y-54461265D01*
X70600109Y-54423796D01*
X70662621Y-54421667D01*
X70802578Y-54446636D01*
G36*
X68696423Y-55363909D02*
G01*
X68745377Y-55400531D01*
X68928868Y-55567846D01*
X69056401Y-55755292D01*
X69141210Y-56000552D01*
X69196527Y-56341311D01*
X69234108Y-56792333D01*
X69264480Y-57193930D01*
X69300237Y-57567667D01*
X69335696Y-57857506D01*
X69352139Y-57956500D01*
X69384329Y-58162669D01*
X69353559Y-58252308D01*
X69235849Y-58273670D01*
X69194363Y-58274000D01*
X69000442Y-58234528D01*
X68859834Y-58103237D01*
X68764725Y-57860812D01*
X68707302Y-57487936D01*
X68680792Y-57004261D01*
X68666552Y-56608517D01*
X68644496Y-56342647D01*
X68605665Y-56167195D01*
X68541103Y-56042705D01*
X68441852Y-55929722D01*
X68435359Y-55923208D01*
X68283968Y-55782913D01*
X68186141Y-55753897D01*
X68077943Y-55825505D01*
X68042021Y-55857662D01*
X67892003Y-56053505D01*
X67788554Y-56339861D01*
X67726672Y-56740004D01*
X67701354Y-57277213D01*
X67700138Y-57448500D01*
X67697387Y-57828370D01*
X67685486Y-58069893D01*
X67658179Y-58204031D01*
X67609209Y-58261746D01*
X67533312Y-58274000D01*
X67366883Y-58205563D01*
X67269641Y-58092162D01*
X67230145Y-57946196D01*
X67210209Y-57682400D01*
X67209445Y-57284982D01*
X67227467Y-56738150D01*
X67233243Y-56610495D01*
X67257056Y-56116637D01*
X67278035Y-55767018D01*
X67301234Y-55536726D01*
X67331705Y-55400853D01*
X67374502Y-55334485D01*
X67434678Y-55312714D01*
X67496914Y-55310667D01*
X67651650Y-55344462D01*
X67699666Y-55405700D01*
X67741128Y-55455061D01*
X67805500Y-55416740D01*
X67956696Y-55345787D01*
X68186046Y-55283632D01*
X68215675Y-55278005D01*
X68480082Y-55266821D01*
X68696423Y-55363909D01*
G37*
X68696423Y-55363909D02*
X68745377Y-55400531D01*
X68928868Y-55567846D01*
X69056401Y-55755292D01*
X69141210Y-56000552D01*
X69196527Y-56341311D01*
X69234108Y-56792333D01*
X69264480Y-57193930D01*
X69300237Y-57567667D01*
X69335696Y-57857506D01*
X69352139Y-57956500D01*
X69384329Y-58162669D01*
X69353559Y-58252308D01*
X69235849Y-58273670D01*
X69194363Y-58274000D01*
X69000442Y-58234528D01*
X68859834Y-58103237D01*
X68764725Y-57860812D01*
X68707302Y-57487936D01*
X68680792Y-57004261D01*
X68666552Y-56608517D01*
X68644496Y-56342647D01*
X68605665Y-56167195D01*
X68541103Y-56042705D01*
X68441852Y-55929722D01*
X68435359Y-55923208D01*
X68283968Y-55782913D01*
X68186141Y-55753897D01*
X68077943Y-55825505D01*
X68042021Y-55857662D01*
X67892003Y-56053505D01*
X67788554Y-56339861D01*
X67726672Y-56740004D01*
X67701354Y-57277213D01*
X67700138Y-57448500D01*
X67697387Y-57828370D01*
X67685486Y-58069893D01*
X67658179Y-58204031D01*
X67609209Y-58261746D01*
X67533312Y-58274000D01*
X67366883Y-58205563D01*
X67269641Y-58092162D01*
X67230145Y-57946196D01*
X67210209Y-57682400D01*
X67209445Y-57284982D01*
X67227467Y-56738150D01*
X67233243Y-56610495D01*
X67257056Y-56116637D01*
X67278035Y-55767018D01*
X67301234Y-55536726D01*
X67331705Y-55400853D01*
X67374502Y-55334485D01*
X67434678Y-55312714D01*
X67496914Y-55310667D01*
X67651650Y-55344462D01*
X67699666Y-55405700D01*
X67741128Y-55455061D01*
X67805500Y-55416740D01*
X67956696Y-55345787D01*
X68186046Y-55283632D01*
X68215675Y-55278005D01*
X68480082Y-55266821D01*
X68696423Y-55363909D01*
G36*
X65916699Y-55731942D02*
G01*
X66293854Y-55975717D01*
X66570878Y-56339865D01*
X66732218Y-56798058D01*
X66768016Y-57172774D01*
X66692352Y-57561723D01*
X66488388Y-57882261D01*
X66189329Y-58116864D01*
X65828381Y-58248005D01*
X65438751Y-58258161D01*
X65053645Y-58129806D01*
X65006405Y-58102496D01*
X64718966Y-57830159D01*
X64542920Y-57436017D01*
X64501672Y-57090958D01*
X65039384Y-57090958D01*
X65127504Y-57436284D01*
X65187858Y-57544634D01*
X65323631Y-57701881D01*
X65493664Y-57754409D01*
X65651601Y-57749640D01*
X65875823Y-57705112D01*
X66018347Y-57585448D01*
X66112561Y-57419935D01*
X66205545Y-57179619D01*
X66205321Y-56974708D01*
X66164072Y-56827268D01*
X65999058Y-56479200D01*
X65796172Y-56285861D01*
X65566420Y-56251644D01*
X65320812Y-56380943D01*
X65239849Y-56458439D01*
X65077782Y-56745156D01*
X65039384Y-57090958D01*
X64501672Y-57090958D01*
X64482342Y-56929254D01*
X64482333Y-56922296D01*
X64499480Y-56641643D01*
X64572837Y-56434234D01*
X64735277Y-56217321D01*
X64784251Y-56162300D01*
X65130545Y-55859578D01*
X65481658Y-55702790D01*
X65817163Y-55699698D01*
X65916699Y-55731942D01*
G37*
X65916699Y-55731942D02*
X66293854Y-55975717D01*
X66570878Y-56339865D01*
X66732218Y-56798058D01*
X66768016Y-57172774D01*
X66692352Y-57561723D01*
X66488388Y-57882261D01*
X66189329Y-58116864D01*
X65828381Y-58248005D01*
X65438751Y-58258161D01*
X65053645Y-58129806D01*
X65006405Y-58102496D01*
X64718966Y-57830159D01*
X64542920Y-57436017D01*
X64501672Y-57090958D01*
X65039384Y-57090958D01*
X65127504Y-57436284D01*
X65187858Y-57544634D01*
X65323631Y-57701881D01*
X65493664Y-57754409D01*
X65651601Y-57749640D01*
X65875823Y-57705112D01*
X66018347Y-57585448D01*
X66112561Y-57419935D01*
X66205545Y-57179619D01*
X66205321Y-56974708D01*
X66164072Y-56827268D01*
X65999058Y-56479200D01*
X65796172Y-56285861D01*
X65566420Y-56251644D01*
X65320812Y-56380943D01*
X65239849Y-56458439D01*
X65077782Y-56745156D01*
X65039384Y-57090958D01*
X64501672Y-57090958D01*
X64482342Y-56929254D01*
X64482333Y-56922296D01*
X64499480Y-56641643D01*
X64572837Y-56434234D01*
X64735277Y-56217321D01*
X64784251Y-56162300D01*
X65130545Y-55859578D01*
X65481658Y-55702790D01*
X65817163Y-55699698D01*
X65916699Y-55731942D01*
G36*
X62802436Y-55834337D02*
G01*
X62864615Y-55918430D01*
X62873666Y-56073948D01*
X62873666Y-56340477D01*
X63158826Y-56164239D01*
X63425624Y-56041662D01*
X63690526Y-55987310D01*
X63910030Y-56001709D01*
X64040631Y-56085382D01*
X64059000Y-56153371D01*
X63989920Y-56298299D01*
X63772417Y-56442879D01*
X63675496Y-56488385D01*
X63394569Y-56647469D01*
X63211945Y-56857474D01*
X63127022Y-57021513D01*
X63024180Y-57301633D01*
X62964659Y-57566878D01*
X62959036Y-57639000D01*
X62929986Y-57986205D01*
X62846432Y-58190115D01*
X62698614Y-58270754D01*
X62649467Y-58274000D01*
X62475826Y-58233446D01*
X62402688Y-58163689D01*
X62388511Y-58041016D01*
X62380132Y-57784935D01*
X62378100Y-57431287D01*
X62382966Y-57015918D01*
X62384179Y-56957189D01*
X62408000Y-55861000D01*
X62640833Y-55834209D01*
X62802436Y-55834337D01*
G37*
X62802436Y-55834337D02*
X62864615Y-55918430D01*
X62873666Y-56073948D01*
X62873666Y-56340477D01*
X63158826Y-56164239D01*
X63425624Y-56041662D01*
X63690526Y-55987310D01*
X63910030Y-56001709D01*
X64040631Y-56085382D01*
X64059000Y-56153371D01*
X63989920Y-56298299D01*
X63772417Y-56442879D01*
X63675496Y-56488385D01*
X63394569Y-56647469D01*
X63211945Y-56857474D01*
X63127022Y-57021513D01*
X63024180Y-57301633D01*
X62964659Y-57566878D01*
X62959036Y-57639000D01*
X62929986Y-57986205D01*
X62846432Y-58190115D01*
X62698614Y-58270754D01*
X62649467Y-58274000D01*
X62475826Y-58233446D01*
X62402688Y-58163689D01*
X62388511Y-58041016D01*
X62380132Y-57784935D01*
X62378100Y-57431287D01*
X62382966Y-57015918D01*
X62384179Y-56957189D01*
X62408000Y-55861000D01*
X62640833Y-55834209D01*
X62802436Y-55834337D01*
G36*
X80600240Y-56136167D02*
G01*
X80615795Y-56659204D01*
X80631875Y-57142876D01*
X80647249Y-57554096D01*
X80660687Y-57859778D01*
X80670336Y-58020000D01*
X80670903Y-58224541D01*
X80606923Y-58316823D01*
X80509562Y-58342856D01*
X80306480Y-58295008D01*
X80220383Y-58204864D01*
X80135527Y-58101327D01*
X80027337Y-58089153D01*
X79838040Y-58157175D01*
X79378412Y-58276184D01*
X78968813Y-58243991D01*
X78629001Y-58075998D01*
X78378734Y-57787610D01*
X78237769Y-57394228D01*
X78227075Y-56960296D01*
X78724372Y-56960296D01*
X78736142Y-57265426D01*
X78835507Y-57516204D01*
X78964009Y-57694773D01*
X79142754Y-57760766D01*
X79258840Y-57766000D01*
X79557933Y-57705071D01*
X79722333Y-57596667D01*
X79873965Y-57472359D01*
X79976333Y-57427333D01*
X80041246Y-57375990D01*
X80055739Y-57208013D01*
X80020954Y-56902478D01*
X80009019Y-56828060D01*
X79922801Y-56577107D01*
X79732373Y-56404834D01*
X79676546Y-56373061D01*
X79356760Y-56265555D01*
X79093856Y-56317267D01*
X78889353Y-56527756D01*
X78843415Y-56613711D01*
X78724372Y-56960296D01*
X78227075Y-56960296D01*
X78225866Y-56911257D01*
X78227027Y-56901238D01*
X78332584Y-56456125D01*
X78540976Y-56127336D01*
X78872325Y-55883436D01*
X78881685Y-55878506D01*
X79248564Y-55770061D01*
X79654640Y-55780019D01*
X79912833Y-55856356D01*
X79986065Y-55873349D01*
X80030304Y-55825152D01*
X80052703Y-55681771D01*
X80060414Y-55413211D01*
X80061000Y-55235058D01*
X80061000Y-54548667D01*
X80555806Y-54548667D01*
X80600240Y-56136167D01*
G37*
X80600240Y-56136167D02*
X80615795Y-56659204D01*
X80631875Y-57142876D01*
X80647249Y-57554096D01*
X80660687Y-57859778D01*
X80670336Y-58020000D01*
X80670903Y-58224541D01*
X80606923Y-58316823D01*
X80509562Y-58342856D01*
X80306480Y-58295008D01*
X80220383Y-58204864D01*
X80135527Y-58101327D01*
X80027337Y-58089153D01*
X79838040Y-58157175D01*
X79378412Y-58276184D01*
X78968813Y-58243991D01*
X78629001Y-58075998D01*
X78378734Y-57787610D01*
X78237769Y-57394228D01*
X78227075Y-56960296D01*
X78724372Y-56960296D01*
X78736142Y-57265426D01*
X78835507Y-57516204D01*
X78964009Y-57694773D01*
X79142754Y-57760766D01*
X79258840Y-57766000D01*
X79557933Y-57705071D01*
X79722333Y-57596667D01*
X79873965Y-57472359D01*
X79976333Y-57427333D01*
X80041246Y-57375990D01*
X80055739Y-57208013D01*
X80020954Y-56902478D01*
X80009019Y-56828060D01*
X79922801Y-56577107D01*
X79732373Y-56404834D01*
X79676546Y-56373061D01*
X79356760Y-56265555D01*
X79093856Y-56317267D01*
X78889353Y-56527756D01*
X78843415Y-56613711D01*
X78724372Y-56960296D01*
X78227075Y-56960296D01*
X78225866Y-56911257D01*
X78227027Y-56901238D01*
X78332584Y-56456125D01*
X78540976Y-56127336D01*
X78872325Y-55883436D01*
X78881685Y-55878506D01*
X79248564Y-55770061D01*
X79654640Y-55780019D01*
X79912833Y-55856356D01*
X79986065Y-55873349D01*
X80030304Y-55825152D01*
X80052703Y-55681771D01*
X80060414Y-55413211D01*
X80061000Y-55235058D01*
X80061000Y-54548667D01*
X80555806Y-54548667D01*
X80600240Y-56136167D01*
G36*
X103589145Y-56796525D02*
G01*
X103646499Y-56832239D01*
X103712480Y-56881930D01*
X103776501Y-56937554D01*
X103827973Y-56991064D01*
X103832794Y-56996950D01*
X103955374Y-57176411D01*
X104036577Y-57358752D01*
X104077345Y-57548011D01*
X104078617Y-57748226D01*
X104049757Y-57928249D01*
X104025669Y-58020863D01*
X103996137Y-58115000D01*
X103964703Y-58201327D01*
X103934910Y-58270513D01*
X103910303Y-58313224D01*
X103900225Y-58322063D01*
X103874236Y-58315084D01*
X103822560Y-58291000D01*
X103755648Y-58254757D01*
X103745201Y-58248727D01*
X103638468Y-58176730D01*
X103527262Y-58084917D01*
X103421182Y-57982746D01*
X103329829Y-57879674D01*
X103262802Y-57785158D01*
X103248773Y-57759688D01*
X103209297Y-57661773D01*
X103174016Y-57539256D01*
X103147031Y-57409872D01*
X103132445Y-57291354D01*
X103131000Y-57250479D01*
X103138974Y-57170462D01*
X103159637Y-57078142D01*
X103188099Y-56990974D01*
X103219470Y-56926411D01*
X103223375Y-56920769D01*
X103241779Y-56899556D01*
X103261507Y-56895558D01*
X103292609Y-56911698D01*
X103345136Y-56950902D01*
X103356003Y-56959356D01*
X103410724Y-57000853D01*
X103445982Y-57018361D01*
X103469150Y-57007790D01*
X103487596Y-56965052D01*
X103508693Y-56886056D01*
X103512045Y-56872791D01*
X103529152Y-56818323D01*
X103545633Y-56786353D01*
X103551005Y-56782833D01*
X103589145Y-56796525D01*
G37*
X103589145Y-56796525D02*
X103646499Y-56832239D01*
X103712480Y-56881930D01*
X103776501Y-56937554D01*
X103827973Y-56991064D01*
X103832794Y-56996950D01*
X103955374Y-57176411D01*
X104036577Y-57358752D01*
X104077345Y-57548011D01*
X104078617Y-57748226D01*
X104049757Y-57928249D01*
X104025669Y-58020863D01*
X103996137Y-58115000D01*
X103964703Y-58201327D01*
X103934910Y-58270513D01*
X103910303Y-58313224D01*
X103900225Y-58322063D01*
X103874236Y-58315084D01*
X103822560Y-58291000D01*
X103755648Y-58254757D01*
X103745201Y-58248727D01*
X103638468Y-58176730D01*
X103527262Y-58084917D01*
X103421182Y-57982746D01*
X103329829Y-57879674D01*
X103262802Y-57785158D01*
X103248773Y-57759688D01*
X103209297Y-57661773D01*
X103174016Y-57539256D01*
X103147031Y-57409872D01*
X103132445Y-57291354D01*
X103131000Y-57250479D01*
X103138974Y-57170462D01*
X103159637Y-57078142D01*
X103188099Y-56990974D01*
X103219470Y-56926411D01*
X103223375Y-56920769D01*
X103241779Y-56899556D01*
X103261507Y-56895558D01*
X103292609Y-56911698D01*
X103345136Y-56950902D01*
X103356003Y-56959356D01*
X103410724Y-57000853D01*
X103445982Y-57018361D01*
X103469150Y-57007790D01*
X103487596Y-56965052D01*
X103508693Y-56886056D01*
X103512045Y-56872791D01*
X103529152Y-56818323D01*
X103545633Y-56786353D01*
X103551005Y-56782833D01*
X103589145Y-56796525D01*
G36*
X105182144Y-57294838D02*
G01*
X105221453Y-57301200D01*
X105226386Y-57303975D01*
X105228380Y-57331960D01*
X105215307Y-57386477D01*
X105193362Y-57447331D01*
X105142286Y-57572079D01*
X105279643Y-57559252D01*
X105417000Y-57546426D01*
X105416983Y-57614421D01*
X105400769Y-57705362D01*
X105355529Y-57812477D01*
X105286308Y-57926809D01*
X105198148Y-58039407D01*
X105146865Y-58093931D01*
X104998679Y-58220522D01*
X104843242Y-58309901D01*
X104676167Y-58366112D01*
X104594256Y-58380335D01*
X104486444Y-58391840D01*
X104368387Y-58399680D01*
X104255744Y-58402907D01*
X104164171Y-58400571D01*
X104141708Y-58398474D01*
X104098505Y-58390050D01*
X104072706Y-58372677D01*
X104063320Y-58339385D01*
X104069360Y-58283206D01*
X104089836Y-58197173D01*
X104105157Y-58140863D01*
X104182553Y-57920228D01*
X104283636Y-57733714D01*
X104409887Y-57579397D01*
X104562789Y-57455355D01*
X104687849Y-57384845D01*
X104783178Y-57341917D01*
X104861570Y-57315836D01*
X104942315Y-57301548D01*
X105032208Y-57294633D01*
X105115342Y-57292470D01*
X105182144Y-57294838D01*
G37*
X105182144Y-57294838D02*
X105221453Y-57301200D01*
X105226386Y-57303975D01*
X105228380Y-57331960D01*
X105215307Y-57386477D01*
X105193362Y-57447331D01*
X105142286Y-57572079D01*
X105279643Y-57559252D01*
X105417000Y-57546426D01*
X105416983Y-57614421D01*
X105400769Y-57705362D01*
X105355529Y-57812477D01*
X105286308Y-57926809D01*
X105198148Y-58039407D01*
X105146865Y-58093931D01*
X104998679Y-58220522D01*
X104843242Y-58309901D01*
X104676167Y-58366112D01*
X104594256Y-58380335D01*
X104486444Y-58391840D01*
X104368387Y-58399680D01*
X104255744Y-58402907D01*
X104164171Y-58400571D01*
X104141708Y-58398474D01*
X104098505Y-58390050D01*
X104072706Y-58372677D01*
X104063320Y-58339385D01*
X104069360Y-58283206D01*
X104089836Y-58197173D01*
X104105157Y-58140863D01*
X104182553Y-57920228D01*
X104283636Y-57733714D01*
X104409887Y-57579397D01*
X104562789Y-57455355D01*
X104687849Y-57384845D01*
X104783178Y-57341917D01*
X104861570Y-57315836D01*
X104942315Y-57301548D01*
X105032208Y-57294633D01*
X105115342Y-57292470D01*
X105182144Y-57294838D01*
G36*
X103056553Y-58043648D02*
G01*
X103086926Y-58049068D01*
X103278142Y-58107064D01*
X103469325Y-58199558D01*
X103648707Y-58320371D01*
X103723402Y-58383195D01*
X103810215Y-58461626D01*
X103740482Y-58534526D01*
X103648264Y-58616945D01*
X103528453Y-58703415D01*
X103393853Y-58785323D01*
X103282926Y-58842340D01*
X103203297Y-58876599D01*
X103133141Y-58897477D01*
X103055277Y-58908683D01*
X102952523Y-58913925D01*
X102951083Y-58913967D01*
X102847608Y-58913311D01*
X102747088Y-58906558D01*
X102667279Y-58895019D01*
X102654750Y-58892094D01*
X102491782Y-58837899D01*
X102360804Y-58768523D01*
X102288155Y-58709565D01*
X102218369Y-58639779D01*
X102336880Y-58561079D01*
X102455391Y-58482378D01*
X102338112Y-58411300D01*
X102277966Y-58372737D01*
X102235662Y-58341584D01*
X102220833Y-58325409D01*
X102235568Y-58303812D01*
X102272531Y-58267341D01*
X102289625Y-58252419D01*
X102415616Y-58168575D01*
X102568295Y-58102463D01*
X102734671Y-58057396D01*
X102901754Y-58036687D01*
X103056553Y-58043648D01*
G37*
X103056553Y-58043648D02*
X103086926Y-58049068D01*
X103278142Y-58107064D01*
X103469325Y-58199558D01*
X103648707Y-58320371D01*
X103723402Y-58383195D01*
X103810215Y-58461626D01*
X103740482Y-58534526D01*
X103648264Y-58616945D01*
X103528453Y-58703415D01*
X103393853Y-58785323D01*
X103282926Y-58842340D01*
X103203297Y-58876599D01*
X103133141Y-58897477D01*
X103055277Y-58908683D01*
X102952523Y-58913925D01*
X102951083Y-58913967D01*
X102847608Y-58913311D01*
X102747088Y-58906558D01*
X102667279Y-58895019D01*
X102654750Y-58892094D01*
X102491782Y-58837899D01*
X102360804Y-58768523D01*
X102288155Y-58709565D01*
X102218369Y-58639779D01*
X102336880Y-58561079D01*
X102455391Y-58482378D01*
X102338112Y-58411300D01*
X102277966Y-58372737D01*
X102235662Y-58341584D01*
X102220833Y-58325409D01*
X102235568Y-58303812D01*
X102272531Y-58267341D01*
X102289625Y-58252419D01*
X102415616Y-58168575D01*
X102568295Y-58102463D01*
X102734671Y-58057396D01*
X102901754Y-58036687D01*
X103056553Y-58043648D01*
G36*
X104556902Y-58522855D02*
G01*
X104712755Y-58546859D01*
X104850024Y-58589775D01*
X104938147Y-58630857D01*
X105052249Y-58704475D01*
X105161779Y-58799286D01*
X105260771Y-58907592D01*
X105343255Y-59021696D01*
X105403262Y-59133899D01*
X105434826Y-59236505D01*
X105438167Y-59275763D01*
X105438167Y-59348931D01*
X105166509Y-59319839D01*
X105216594Y-59443044D01*
X105240240Y-59509565D01*
X105252063Y-59560420D01*
X105250260Y-59582687D01*
X105211069Y-59599275D01*
X105143194Y-59607788D01*
X105059540Y-59608066D01*
X104973011Y-59599949D01*
X104909000Y-59586925D01*
X104701382Y-59510858D01*
X104522884Y-59404071D01*
X104373449Y-59266519D01*
X104253024Y-59098158D01*
X104212634Y-59021488D01*
X104170321Y-58925499D01*
X104130409Y-58821080D01*
X104096638Y-58719582D01*
X104072746Y-58632351D01*
X104062473Y-58570738D01*
X104062333Y-58565364D01*
X104080513Y-58543660D01*
X104136059Y-58528298D01*
X104230482Y-58519035D01*
X104365291Y-58515628D01*
X104371890Y-58515610D01*
X104556902Y-58522855D01*
G37*
X104556902Y-58522855D02*
X104712755Y-58546859D01*
X104850024Y-58589775D01*
X104938147Y-58630857D01*
X105052249Y-58704475D01*
X105161779Y-58799286D01*
X105260771Y-58907592D01*
X105343255Y-59021696D01*
X105403262Y-59133899D01*
X105434826Y-59236505D01*
X105438167Y-59275763D01*
X105438167Y-59348931D01*
X105166509Y-59319839D01*
X105216594Y-59443044D01*
X105240240Y-59509565D01*
X105252063Y-59560420D01*
X105250260Y-59582687D01*
X105211069Y-59599275D01*
X105143194Y-59607788D01*
X105059540Y-59608066D01*
X104973011Y-59599949D01*
X104909000Y-59586925D01*
X104701382Y-59510858D01*
X104522884Y-59404071D01*
X104373449Y-59266519D01*
X104253024Y-59098158D01*
X104212634Y-59021488D01*
X104170321Y-58925499D01*
X104130409Y-58821080D01*
X104096638Y-58719582D01*
X104072746Y-58632351D01*
X104062473Y-58570738D01*
X104062333Y-58565364D01*
X104080513Y-58543660D01*
X104136059Y-58528298D01*
X104230482Y-58519035D01*
X104365291Y-58515628D01*
X104371890Y-58515610D01*
X104556902Y-58522855D01*
G36*
X103919004Y-58622353D02*
G01*
X103949679Y-58674842D01*
X103984509Y-58753026D01*
X104020128Y-58849298D01*
X104053167Y-58956052D01*
X104055056Y-58962851D01*
X104097695Y-59179970D01*
X104101180Y-59383270D01*
X104065179Y-59575807D01*
X103989363Y-59760638D01*
X103963774Y-59806639D01*
X103899483Y-59902238D01*
X103824920Y-59990943D01*
X103747456Y-60065858D01*
X103674460Y-60120090D01*
X103613304Y-60146745D01*
X103598475Y-60148333D01*
X103581884Y-60129659D01*
X103559782Y-60080933D01*
X103539056Y-60019439D01*
X103501097Y-59890544D01*
X103398123Y-59981186D01*
X103342179Y-60029200D01*
X103308314Y-60052209D01*
X103287285Y-60053688D01*
X103269847Y-60037108D01*
X103265349Y-60031073D01*
X103219211Y-59939283D01*
X103189333Y-59818350D01*
X103176687Y-59678606D01*
X103182243Y-59530385D01*
X103205245Y-59391219D01*
X103261699Y-59217044D01*
X103346535Y-59063934D01*
X103466374Y-58920188D01*
X103478750Y-58907663D01*
X103543714Y-58847500D01*
X103620991Y-58783134D01*
X103702298Y-58720613D01*
X103779352Y-58665984D01*
X103843871Y-58625292D01*
X103887572Y-58604584D01*
X103895851Y-58603166D01*
X103919004Y-58622353D01*
G37*
X103919004Y-58622353D02*
X103949679Y-58674842D01*
X103984509Y-58753026D01*
X104020128Y-58849298D01*
X104053167Y-58956052D01*
X104055056Y-58962851D01*
X104097695Y-59179970D01*
X104101180Y-59383270D01*
X104065179Y-59575807D01*
X103989363Y-59760638D01*
X103963774Y-59806639D01*
X103899483Y-59902238D01*
X103824920Y-59990943D01*
X103747456Y-60065858D01*
X103674460Y-60120090D01*
X103613304Y-60146745D01*
X103598475Y-60148333D01*
X103581884Y-60129659D01*
X103559782Y-60080933D01*
X103539056Y-60019439D01*
X103501097Y-59890544D01*
X103398123Y-59981186D01*
X103342179Y-60029200D01*
X103308314Y-60052209D01*
X103287285Y-60053688D01*
X103269847Y-60037108D01*
X103265349Y-60031073D01*
X103219211Y-59939283D01*
X103189333Y-59818350D01*
X103176687Y-59678606D01*
X103182243Y-59530385D01*
X103205245Y-59391219D01*
X103261699Y-59217044D01*
X103346535Y-59063934D01*
X103466374Y-58920188D01*
X103478750Y-58907663D01*
X103543714Y-58847500D01*
X103620991Y-58783134D01*
X103702298Y-58720613D01*
X103779352Y-58665984D01*
X103843871Y-58625292D01*
X103887572Y-58604584D01*
X103895851Y-58603166D01*
X103919004Y-58622353D01*
G36*
X103589145Y-76996525D02*
G01*
X103646499Y-77032239D01*
X103712480Y-77081930D01*
X103776501Y-77137554D01*
X103827973Y-77191064D01*
X103832794Y-77196950D01*
X103955374Y-77376411D01*
X104036577Y-77558752D01*
X104077345Y-77748011D01*
X104078617Y-77948226D01*
X104049757Y-78128249D01*
X104025669Y-78220863D01*
X103996137Y-78315000D01*
X103964703Y-78401327D01*
X103934910Y-78470513D01*
X103910303Y-78513224D01*
X103900225Y-78522063D01*
X103874236Y-78515084D01*
X103822560Y-78491000D01*
X103755648Y-78454757D01*
X103745201Y-78448727D01*
X103638468Y-78376730D01*
X103527262Y-78284917D01*
X103421182Y-78182746D01*
X103329829Y-78079674D01*
X103262802Y-77985158D01*
X103248773Y-77959688D01*
X103209297Y-77861773D01*
X103174016Y-77739256D01*
X103147031Y-77609872D01*
X103132445Y-77491354D01*
X103131000Y-77450479D01*
X103138974Y-77370462D01*
X103159637Y-77278142D01*
X103188099Y-77190974D01*
X103219470Y-77126411D01*
X103223375Y-77120769D01*
X103241779Y-77099556D01*
X103261507Y-77095558D01*
X103292609Y-77111698D01*
X103345136Y-77150902D01*
X103356003Y-77159356D01*
X103410724Y-77200853D01*
X103445982Y-77218361D01*
X103469150Y-77207790D01*
X103487596Y-77165052D01*
X103508693Y-77086056D01*
X103512045Y-77072791D01*
X103529152Y-77018323D01*
X103545633Y-76986353D01*
X103551005Y-76982833D01*
X103589145Y-76996525D01*
G37*
X103589145Y-76996525D02*
X103646499Y-77032239D01*
X103712480Y-77081930D01*
X103776501Y-77137554D01*
X103827973Y-77191064D01*
X103832794Y-77196950D01*
X103955374Y-77376411D01*
X104036577Y-77558752D01*
X104077345Y-77748011D01*
X104078617Y-77948226D01*
X104049757Y-78128249D01*
X104025669Y-78220863D01*
X103996137Y-78315000D01*
X103964703Y-78401327D01*
X103934910Y-78470513D01*
X103910303Y-78513224D01*
X103900225Y-78522063D01*
X103874236Y-78515084D01*
X103822560Y-78491000D01*
X103755648Y-78454757D01*
X103745201Y-78448727D01*
X103638468Y-78376730D01*
X103527262Y-78284917D01*
X103421182Y-78182746D01*
X103329829Y-78079674D01*
X103262802Y-77985158D01*
X103248773Y-77959688D01*
X103209297Y-77861773D01*
X103174016Y-77739256D01*
X103147031Y-77609872D01*
X103132445Y-77491354D01*
X103131000Y-77450479D01*
X103138974Y-77370462D01*
X103159637Y-77278142D01*
X103188099Y-77190974D01*
X103219470Y-77126411D01*
X103223375Y-77120769D01*
X103241779Y-77099556D01*
X103261507Y-77095558D01*
X103292609Y-77111698D01*
X103345136Y-77150902D01*
X103356003Y-77159356D01*
X103410724Y-77200853D01*
X103445982Y-77218361D01*
X103469150Y-77207790D01*
X103487596Y-77165052D01*
X103508693Y-77086056D01*
X103512045Y-77072791D01*
X103529152Y-77018323D01*
X103545633Y-76986353D01*
X103551005Y-76982833D01*
X103589145Y-76996525D01*
G36*
X105182144Y-77494838D02*
G01*
X105221453Y-77501200D01*
X105226386Y-77503975D01*
X105228380Y-77531960D01*
X105215307Y-77586477D01*
X105193362Y-77647331D01*
X105142286Y-77772079D01*
X105279643Y-77759252D01*
X105417000Y-77746426D01*
X105416983Y-77814421D01*
X105400769Y-77905362D01*
X105355529Y-78012477D01*
X105286308Y-78126809D01*
X105198148Y-78239407D01*
X105146865Y-78293931D01*
X104998679Y-78420522D01*
X104843242Y-78509901D01*
X104676167Y-78566112D01*
X104594256Y-78580335D01*
X104486444Y-78591840D01*
X104368387Y-78599680D01*
X104255744Y-78602907D01*
X104164171Y-78600571D01*
X104141708Y-78598474D01*
X104098505Y-78590050D01*
X104072706Y-78572677D01*
X104063320Y-78539385D01*
X104069360Y-78483206D01*
X104089836Y-78397173D01*
X104105157Y-78340863D01*
X104182553Y-78120228D01*
X104283636Y-77933714D01*
X104409887Y-77779397D01*
X104562789Y-77655355D01*
X104687849Y-77584845D01*
X104783178Y-77541917D01*
X104861570Y-77515836D01*
X104942315Y-77501548D01*
X105032208Y-77494633D01*
X105115342Y-77492470D01*
X105182144Y-77494838D01*
G37*
X105182144Y-77494838D02*
X105221453Y-77501200D01*
X105226386Y-77503975D01*
X105228380Y-77531960D01*
X105215307Y-77586477D01*
X105193362Y-77647331D01*
X105142286Y-77772079D01*
X105279643Y-77759252D01*
X105417000Y-77746426D01*
X105416983Y-77814421D01*
X105400769Y-77905362D01*
X105355529Y-78012477D01*
X105286308Y-78126809D01*
X105198148Y-78239407D01*
X105146865Y-78293931D01*
X104998679Y-78420522D01*
X104843242Y-78509901D01*
X104676167Y-78566112D01*
X104594256Y-78580335D01*
X104486444Y-78591840D01*
X104368387Y-78599680D01*
X104255744Y-78602907D01*
X104164171Y-78600571D01*
X104141708Y-78598474D01*
X104098505Y-78590050D01*
X104072706Y-78572677D01*
X104063320Y-78539385D01*
X104069360Y-78483206D01*
X104089836Y-78397173D01*
X104105157Y-78340863D01*
X104182553Y-78120228D01*
X104283636Y-77933714D01*
X104409887Y-77779397D01*
X104562789Y-77655355D01*
X104687849Y-77584845D01*
X104783178Y-77541917D01*
X104861570Y-77515836D01*
X104942315Y-77501548D01*
X105032208Y-77494633D01*
X105115342Y-77492470D01*
X105182144Y-77494838D01*
G36*
X103056553Y-78243648D02*
G01*
X103086926Y-78249068D01*
X103278142Y-78307064D01*
X103469325Y-78399558D01*
X103648707Y-78520371D01*
X103723402Y-78583195D01*
X103810215Y-78661626D01*
X103740482Y-78734526D01*
X103648264Y-78816945D01*
X103528453Y-78903415D01*
X103393853Y-78985323D01*
X103282926Y-79042340D01*
X103203297Y-79076599D01*
X103133141Y-79097477D01*
X103055277Y-79108683D01*
X102952523Y-79113925D01*
X102951083Y-79113967D01*
X102847608Y-79113311D01*
X102747088Y-79106558D01*
X102667279Y-79095019D01*
X102654750Y-79092094D01*
X102491782Y-79037899D01*
X102360804Y-78968523D01*
X102288155Y-78909565D01*
X102218369Y-78839779D01*
X102336880Y-78761079D01*
X102455391Y-78682378D01*
X102338112Y-78611300D01*
X102277966Y-78572737D01*
X102235662Y-78541584D01*
X102220833Y-78525409D01*
X102235568Y-78503812D01*
X102272531Y-78467341D01*
X102289625Y-78452419D01*
X102415616Y-78368575D01*
X102568295Y-78302463D01*
X102734671Y-78257396D01*
X102901754Y-78236687D01*
X103056553Y-78243648D01*
G37*
X103056553Y-78243648D02*
X103086926Y-78249068D01*
X103278142Y-78307064D01*
X103469325Y-78399558D01*
X103648707Y-78520371D01*
X103723402Y-78583195D01*
X103810215Y-78661626D01*
X103740482Y-78734526D01*
X103648264Y-78816945D01*
X103528453Y-78903415D01*
X103393853Y-78985323D01*
X103282926Y-79042340D01*
X103203297Y-79076599D01*
X103133141Y-79097477D01*
X103055277Y-79108683D01*
X102952523Y-79113925D01*
X102951083Y-79113967D01*
X102847608Y-79113311D01*
X102747088Y-79106558D01*
X102667279Y-79095019D01*
X102654750Y-79092094D01*
X102491782Y-79037899D01*
X102360804Y-78968523D01*
X102288155Y-78909565D01*
X102218369Y-78839779D01*
X102336880Y-78761079D01*
X102455391Y-78682378D01*
X102338112Y-78611300D01*
X102277966Y-78572737D01*
X102235662Y-78541584D01*
X102220833Y-78525409D01*
X102235568Y-78503812D01*
X102272531Y-78467341D01*
X102289625Y-78452419D01*
X102415616Y-78368575D01*
X102568295Y-78302463D01*
X102734671Y-78257396D01*
X102901754Y-78236687D01*
X103056553Y-78243648D01*
G36*
X104556902Y-78722855D02*
G01*
X104712755Y-78746859D01*
X104850024Y-78789775D01*
X104938147Y-78830857D01*
X105052249Y-78904475D01*
X105161779Y-78999286D01*
X105260771Y-79107592D01*
X105343255Y-79221696D01*
X105403262Y-79333899D01*
X105434826Y-79436505D01*
X105438167Y-79475763D01*
X105438167Y-79548931D01*
X105166509Y-79519839D01*
X105216594Y-79643044D01*
X105240240Y-79709565D01*
X105252063Y-79760420D01*
X105250260Y-79782687D01*
X105211069Y-79799275D01*
X105143194Y-79807788D01*
X105059540Y-79808066D01*
X104973011Y-79799949D01*
X104909000Y-79786925D01*
X104701382Y-79710858D01*
X104522884Y-79604071D01*
X104373449Y-79466519D01*
X104253024Y-79298158D01*
X104212634Y-79221488D01*
X104170321Y-79125499D01*
X104130409Y-79021080D01*
X104096638Y-78919582D01*
X104072746Y-78832351D01*
X104062473Y-78770738D01*
X104062333Y-78765364D01*
X104080513Y-78743660D01*
X104136059Y-78728298D01*
X104230482Y-78719035D01*
X104365291Y-78715628D01*
X104371890Y-78715610D01*
X104556902Y-78722855D01*
G37*
X104556902Y-78722855D02*
X104712755Y-78746859D01*
X104850024Y-78789775D01*
X104938147Y-78830857D01*
X105052249Y-78904475D01*
X105161779Y-78999286D01*
X105260771Y-79107592D01*
X105343255Y-79221696D01*
X105403262Y-79333899D01*
X105434826Y-79436505D01*
X105438167Y-79475763D01*
X105438167Y-79548931D01*
X105166509Y-79519839D01*
X105216594Y-79643044D01*
X105240240Y-79709565D01*
X105252063Y-79760420D01*
X105250260Y-79782687D01*
X105211069Y-79799275D01*
X105143194Y-79807788D01*
X105059540Y-79808066D01*
X104973011Y-79799949D01*
X104909000Y-79786925D01*
X104701382Y-79710858D01*
X104522884Y-79604071D01*
X104373449Y-79466519D01*
X104253024Y-79298158D01*
X104212634Y-79221488D01*
X104170321Y-79125499D01*
X104130409Y-79021080D01*
X104096638Y-78919582D01*
X104072746Y-78832351D01*
X104062473Y-78770738D01*
X104062333Y-78765364D01*
X104080513Y-78743660D01*
X104136059Y-78728298D01*
X104230482Y-78719035D01*
X104365291Y-78715628D01*
X104371890Y-78715610D01*
X104556902Y-78722855D01*
G36*
X103919004Y-78822353D02*
G01*
X103949679Y-78874842D01*
X103984509Y-78953026D01*
X104020128Y-79049298D01*
X104053167Y-79156052D01*
X104055056Y-79162851D01*
X104097695Y-79379970D01*
X104101180Y-79583270D01*
X104065179Y-79775807D01*
X103989363Y-79960638D01*
X103963774Y-80006639D01*
X103899483Y-80102238D01*
X103824920Y-80190943D01*
X103747456Y-80265858D01*
X103674460Y-80320090D01*
X103613304Y-80346745D01*
X103598475Y-80348333D01*
X103581884Y-80329659D01*
X103559782Y-80280933D01*
X103539056Y-80219439D01*
X103501097Y-80090544D01*
X103398123Y-80181186D01*
X103342179Y-80229200D01*
X103308314Y-80252209D01*
X103287285Y-80253688D01*
X103269847Y-80237108D01*
X103265349Y-80231073D01*
X103219211Y-80139283D01*
X103189333Y-80018350D01*
X103176687Y-79878606D01*
X103182243Y-79730385D01*
X103205245Y-79591219D01*
X103261699Y-79417044D01*
X103346535Y-79263934D01*
X103466374Y-79120188D01*
X103478750Y-79107663D01*
X103543714Y-79047500D01*
X103620991Y-78983134D01*
X103702298Y-78920613D01*
X103779352Y-78865984D01*
X103843871Y-78825292D01*
X103887572Y-78804584D01*
X103895851Y-78803166D01*
X103919004Y-78822353D01*
G37*
X103919004Y-78822353D02*
X103949679Y-78874842D01*
X103984509Y-78953026D01*
X104020128Y-79049298D01*
X104053167Y-79156052D01*
X104055056Y-79162851D01*
X104097695Y-79379970D01*
X104101180Y-79583270D01*
X104065179Y-79775807D01*
X103989363Y-79960638D01*
X103963774Y-80006639D01*
X103899483Y-80102238D01*
X103824920Y-80190943D01*
X103747456Y-80265858D01*
X103674460Y-80320090D01*
X103613304Y-80346745D01*
X103598475Y-80348333D01*
X103581884Y-80329659D01*
X103559782Y-80280933D01*
X103539056Y-80219439D01*
X103501097Y-80090544D01*
X103398123Y-80181186D01*
X103342179Y-80229200D01*
X103308314Y-80252209D01*
X103287285Y-80253688D01*
X103269847Y-80237108D01*
X103265349Y-80231073D01*
X103219211Y-80139283D01*
X103189333Y-80018350D01*
X103176687Y-79878606D01*
X103182243Y-79730385D01*
X103205245Y-79591219D01*
X103261699Y-79417044D01*
X103346535Y-79263934D01*
X103466374Y-79120188D01*
X103478750Y-79107663D01*
X103543714Y-79047500D01*
X103620991Y-78983134D01*
X103702298Y-78920613D01*
X103779352Y-78865984D01*
X103843871Y-78825292D01*
X103887572Y-78804584D01*
X103895851Y-78803166D01*
X103919004Y-78822353D01*
G36*
X103589145Y-97396525D02*
G01*
X103646499Y-97432239D01*
X103712480Y-97481930D01*
X103776501Y-97537554D01*
X103827973Y-97591064D01*
X103832794Y-97596950D01*
X103955374Y-97776411D01*
X104036577Y-97958752D01*
X104077345Y-98148011D01*
X104078617Y-98348226D01*
X104049757Y-98528249D01*
X104025669Y-98620863D01*
X103996137Y-98715000D01*
X103964703Y-98801327D01*
X103934910Y-98870513D01*
X103910303Y-98913224D01*
X103900225Y-98922063D01*
X103874236Y-98915084D01*
X103822560Y-98891000D01*
X103755648Y-98854757D01*
X103745201Y-98848727D01*
X103638468Y-98776730D01*
X103527262Y-98684917D01*
X103421182Y-98582746D01*
X103329829Y-98479674D01*
X103262802Y-98385158D01*
X103248773Y-98359688D01*
X103209297Y-98261773D01*
X103174016Y-98139256D01*
X103147031Y-98009872D01*
X103132445Y-97891354D01*
X103131000Y-97850479D01*
X103138974Y-97770462D01*
X103159637Y-97678142D01*
X103188099Y-97590974D01*
X103219470Y-97526411D01*
X103223375Y-97520769D01*
X103241779Y-97499556D01*
X103261507Y-97495558D01*
X103292609Y-97511698D01*
X103345136Y-97550902D01*
X103356003Y-97559356D01*
X103410724Y-97600853D01*
X103445982Y-97618361D01*
X103469150Y-97607790D01*
X103487596Y-97565052D01*
X103508693Y-97486056D01*
X103512045Y-97472791D01*
X103529152Y-97418323D01*
X103545633Y-97386353D01*
X103551005Y-97382833D01*
X103589145Y-97396525D01*
G37*
X103589145Y-97396525D02*
X103646499Y-97432239D01*
X103712480Y-97481930D01*
X103776501Y-97537554D01*
X103827973Y-97591064D01*
X103832794Y-97596950D01*
X103955374Y-97776411D01*
X104036577Y-97958752D01*
X104077345Y-98148011D01*
X104078617Y-98348226D01*
X104049757Y-98528249D01*
X104025669Y-98620863D01*
X103996137Y-98715000D01*
X103964703Y-98801327D01*
X103934910Y-98870513D01*
X103910303Y-98913224D01*
X103900225Y-98922063D01*
X103874236Y-98915084D01*
X103822560Y-98891000D01*
X103755648Y-98854757D01*
X103745201Y-98848727D01*
X103638468Y-98776730D01*
X103527262Y-98684917D01*
X103421182Y-98582746D01*
X103329829Y-98479674D01*
X103262802Y-98385158D01*
X103248773Y-98359688D01*
X103209297Y-98261773D01*
X103174016Y-98139256D01*
X103147031Y-98009872D01*
X103132445Y-97891354D01*
X103131000Y-97850479D01*
X103138974Y-97770462D01*
X103159637Y-97678142D01*
X103188099Y-97590974D01*
X103219470Y-97526411D01*
X103223375Y-97520769D01*
X103241779Y-97499556D01*
X103261507Y-97495558D01*
X103292609Y-97511698D01*
X103345136Y-97550902D01*
X103356003Y-97559356D01*
X103410724Y-97600853D01*
X103445982Y-97618361D01*
X103469150Y-97607790D01*
X103487596Y-97565052D01*
X103508693Y-97486056D01*
X103512045Y-97472791D01*
X103529152Y-97418323D01*
X103545633Y-97386353D01*
X103551005Y-97382833D01*
X103589145Y-97396525D01*
G36*
X105182144Y-97894838D02*
G01*
X105221453Y-97901200D01*
X105226386Y-97903975D01*
X105228380Y-97931960D01*
X105215307Y-97986477D01*
X105193362Y-98047331D01*
X105142286Y-98172079D01*
X105279643Y-98159252D01*
X105417000Y-98146426D01*
X105416983Y-98214421D01*
X105400769Y-98305362D01*
X105355529Y-98412477D01*
X105286308Y-98526809D01*
X105198148Y-98639407D01*
X105146865Y-98693931D01*
X104998679Y-98820522D01*
X104843242Y-98909901D01*
X104676167Y-98966112D01*
X104594256Y-98980335D01*
X104486444Y-98991840D01*
X104368387Y-98999680D01*
X104255744Y-99002907D01*
X104164171Y-99000571D01*
X104141708Y-98998474D01*
X104098505Y-98990050D01*
X104072706Y-98972677D01*
X104063320Y-98939385D01*
X104069360Y-98883206D01*
X104089836Y-98797173D01*
X104105157Y-98740863D01*
X104182553Y-98520228D01*
X104283636Y-98333714D01*
X104409887Y-98179397D01*
X104562789Y-98055355D01*
X104687849Y-97984845D01*
X104783178Y-97941917D01*
X104861570Y-97915836D01*
X104942315Y-97901548D01*
X105032208Y-97894633D01*
X105115342Y-97892470D01*
X105182144Y-97894838D01*
G37*
X105182144Y-97894838D02*
X105221453Y-97901200D01*
X105226386Y-97903975D01*
X105228380Y-97931960D01*
X105215307Y-97986477D01*
X105193362Y-98047331D01*
X105142286Y-98172079D01*
X105279643Y-98159252D01*
X105417000Y-98146426D01*
X105416983Y-98214421D01*
X105400769Y-98305362D01*
X105355529Y-98412477D01*
X105286308Y-98526809D01*
X105198148Y-98639407D01*
X105146865Y-98693931D01*
X104998679Y-98820522D01*
X104843242Y-98909901D01*
X104676167Y-98966112D01*
X104594256Y-98980335D01*
X104486444Y-98991840D01*
X104368387Y-98999680D01*
X104255744Y-99002907D01*
X104164171Y-99000571D01*
X104141708Y-98998474D01*
X104098505Y-98990050D01*
X104072706Y-98972677D01*
X104063320Y-98939385D01*
X104069360Y-98883206D01*
X104089836Y-98797173D01*
X104105157Y-98740863D01*
X104182553Y-98520228D01*
X104283636Y-98333714D01*
X104409887Y-98179397D01*
X104562789Y-98055355D01*
X104687849Y-97984845D01*
X104783178Y-97941917D01*
X104861570Y-97915836D01*
X104942315Y-97901548D01*
X105032208Y-97894633D01*
X105115342Y-97892470D01*
X105182144Y-97894838D01*
G36*
X103056553Y-98643648D02*
G01*
X103086926Y-98649068D01*
X103278142Y-98707064D01*
X103469325Y-98799558D01*
X103648707Y-98920371D01*
X103723402Y-98983195D01*
X103810215Y-99061626D01*
X103740482Y-99134526D01*
X103648264Y-99216945D01*
X103528453Y-99303415D01*
X103393853Y-99385323D01*
X103282926Y-99442340D01*
X103203297Y-99476599D01*
X103133141Y-99497477D01*
X103055277Y-99508683D01*
X102952523Y-99513925D01*
X102951083Y-99513967D01*
X102847608Y-99513311D01*
X102747088Y-99506558D01*
X102667279Y-99495019D01*
X102654750Y-99492094D01*
X102491782Y-99437899D01*
X102360804Y-99368523D01*
X102288155Y-99309565D01*
X102218369Y-99239779D01*
X102336880Y-99161079D01*
X102455391Y-99082378D01*
X102338112Y-99011300D01*
X102277966Y-98972737D01*
X102235662Y-98941584D01*
X102220833Y-98925409D01*
X102235568Y-98903812D01*
X102272531Y-98867341D01*
X102289625Y-98852419D01*
X102415616Y-98768575D01*
X102568295Y-98702463D01*
X102734671Y-98657396D01*
X102901754Y-98636687D01*
X103056553Y-98643648D01*
G37*
X103056553Y-98643648D02*
X103086926Y-98649068D01*
X103278142Y-98707064D01*
X103469325Y-98799558D01*
X103648707Y-98920371D01*
X103723402Y-98983195D01*
X103810215Y-99061626D01*
X103740482Y-99134526D01*
X103648264Y-99216945D01*
X103528453Y-99303415D01*
X103393853Y-99385323D01*
X103282926Y-99442340D01*
X103203297Y-99476599D01*
X103133141Y-99497477D01*
X103055277Y-99508683D01*
X102952523Y-99513925D01*
X102951083Y-99513967D01*
X102847608Y-99513311D01*
X102747088Y-99506558D01*
X102667279Y-99495019D01*
X102654750Y-99492094D01*
X102491782Y-99437899D01*
X102360804Y-99368523D01*
X102288155Y-99309565D01*
X102218369Y-99239779D01*
X102336880Y-99161079D01*
X102455391Y-99082378D01*
X102338112Y-99011300D01*
X102277966Y-98972737D01*
X102235662Y-98941584D01*
X102220833Y-98925409D01*
X102235568Y-98903812D01*
X102272531Y-98867341D01*
X102289625Y-98852419D01*
X102415616Y-98768575D01*
X102568295Y-98702463D01*
X102734671Y-98657396D01*
X102901754Y-98636687D01*
X103056553Y-98643648D01*
G36*
X104556902Y-99122855D02*
G01*
X104712755Y-99146859D01*
X104850024Y-99189775D01*
X104938147Y-99230857D01*
X105052249Y-99304475D01*
X105161779Y-99399286D01*
X105260771Y-99507592D01*
X105343255Y-99621696D01*
X105403262Y-99733899D01*
X105434826Y-99836505D01*
X105438167Y-99875763D01*
X105438167Y-99948931D01*
X105166509Y-99919839D01*
X105216594Y-100043044D01*
X105240240Y-100109565D01*
X105252063Y-100160420D01*
X105250260Y-100182687D01*
X105211069Y-100199275D01*
X105143194Y-100207788D01*
X105059540Y-100208066D01*
X104973011Y-100199949D01*
X104909000Y-100186925D01*
X104701382Y-100110858D01*
X104522884Y-100004071D01*
X104373449Y-99866519D01*
X104253024Y-99698158D01*
X104212634Y-99621488D01*
X104170321Y-99525499D01*
X104130409Y-99421080D01*
X104096638Y-99319582D01*
X104072746Y-99232351D01*
X104062473Y-99170738D01*
X104062333Y-99165364D01*
X104080513Y-99143660D01*
X104136059Y-99128298D01*
X104230482Y-99119035D01*
X104365291Y-99115628D01*
X104371890Y-99115610D01*
X104556902Y-99122855D01*
G37*
X104556902Y-99122855D02*
X104712755Y-99146859D01*
X104850024Y-99189775D01*
X104938147Y-99230857D01*
X105052249Y-99304475D01*
X105161779Y-99399286D01*
X105260771Y-99507592D01*
X105343255Y-99621696D01*
X105403262Y-99733899D01*
X105434826Y-99836505D01*
X105438167Y-99875763D01*
X105438167Y-99948931D01*
X105166509Y-99919839D01*
X105216594Y-100043044D01*
X105240240Y-100109565D01*
X105252063Y-100160420D01*
X105250260Y-100182687D01*
X105211069Y-100199275D01*
X105143194Y-100207788D01*
X105059540Y-100208066D01*
X104973011Y-100199949D01*
X104909000Y-100186925D01*
X104701382Y-100110858D01*
X104522884Y-100004071D01*
X104373449Y-99866519D01*
X104253024Y-99698158D01*
X104212634Y-99621488D01*
X104170321Y-99525499D01*
X104130409Y-99421080D01*
X104096638Y-99319582D01*
X104072746Y-99232351D01*
X104062473Y-99170738D01*
X104062333Y-99165364D01*
X104080513Y-99143660D01*
X104136059Y-99128298D01*
X104230482Y-99119035D01*
X104365291Y-99115628D01*
X104371890Y-99115610D01*
X104556902Y-99122855D01*
G36*
X103919004Y-99222353D02*
G01*
X103949679Y-99274842D01*
X103984509Y-99353026D01*
X104020128Y-99449298D01*
X104053167Y-99556052D01*
X104055056Y-99562851D01*
X104097695Y-99779970D01*
X104101180Y-99983270D01*
X104065179Y-100175807D01*
X103989363Y-100360638D01*
X103963774Y-100406639D01*
X103899483Y-100502238D01*
X103824920Y-100590943D01*
X103747456Y-100665858D01*
X103674460Y-100720090D01*
X103613304Y-100746745D01*
X103598475Y-100748333D01*
X103581884Y-100729659D01*
X103559782Y-100680933D01*
X103539056Y-100619439D01*
X103501097Y-100490544D01*
X103398123Y-100581186D01*
X103342179Y-100629200D01*
X103308314Y-100652209D01*
X103287285Y-100653688D01*
X103269847Y-100637108D01*
X103265349Y-100631073D01*
X103219211Y-100539283D01*
X103189333Y-100418350D01*
X103176687Y-100278606D01*
X103182243Y-100130385D01*
X103205245Y-99991219D01*
X103261699Y-99817044D01*
X103346535Y-99663934D01*
X103466374Y-99520188D01*
X103478750Y-99507663D01*
X103543714Y-99447500D01*
X103620991Y-99383134D01*
X103702298Y-99320613D01*
X103779352Y-99265984D01*
X103843871Y-99225292D01*
X103887572Y-99204584D01*
X103895851Y-99203166D01*
X103919004Y-99222353D01*
G37*
X103919004Y-99222353D02*
X103949679Y-99274842D01*
X103984509Y-99353026D01*
X104020128Y-99449298D01*
X104053167Y-99556052D01*
X104055056Y-99562851D01*
X104097695Y-99779970D01*
X104101180Y-99983270D01*
X104065179Y-100175807D01*
X103989363Y-100360638D01*
X103963774Y-100406639D01*
X103899483Y-100502238D01*
X103824920Y-100590943D01*
X103747456Y-100665858D01*
X103674460Y-100720090D01*
X103613304Y-100746745D01*
X103598475Y-100748333D01*
X103581884Y-100729659D01*
X103559782Y-100680933D01*
X103539056Y-100619439D01*
X103501097Y-100490544D01*
X103398123Y-100581186D01*
X103342179Y-100629200D01*
X103308314Y-100652209D01*
X103287285Y-100653688D01*
X103269847Y-100637108D01*
X103265349Y-100631073D01*
X103219211Y-100539283D01*
X103189333Y-100418350D01*
X103176687Y-100278606D01*
X103182243Y-100130385D01*
X103205245Y-99991219D01*
X103261699Y-99817044D01*
X103346535Y-99663934D01*
X103466374Y-99520188D01*
X103478750Y-99507663D01*
X103543714Y-99447500D01*
X103620991Y-99383134D01*
X103702298Y-99320613D01*
X103779352Y-99265984D01*
X103843871Y-99225292D01*
X103887572Y-99204584D01*
X103895851Y-99203166D01*
X103919004Y-99222353D01*
G36*
X103589145Y-117996525D02*
G01*
X103646499Y-118032239D01*
X103712480Y-118081930D01*
X103776501Y-118137554D01*
X103827973Y-118191064D01*
X103832794Y-118196950D01*
X103955374Y-118376411D01*
X104036577Y-118558752D01*
X104077345Y-118748011D01*
X104078617Y-118948226D01*
X104049757Y-119128249D01*
X104025669Y-119220863D01*
X103996137Y-119315000D01*
X103964703Y-119401327D01*
X103934910Y-119470513D01*
X103910303Y-119513224D01*
X103900225Y-119522063D01*
X103874236Y-119515084D01*
X103822560Y-119491000D01*
X103755648Y-119454757D01*
X103745201Y-119448727D01*
X103638468Y-119376730D01*
X103527262Y-119284917D01*
X103421182Y-119182746D01*
X103329829Y-119079674D01*
X103262802Y-118985158D01*
X103248773Y-118959688D01*
X103209297Y-118861773D01*
X103174016Y-118739256D01*
X103147031Y-118609872D01*
X103132445Y-118491354D01*
X103131000Y-118450479D01*
X103138974Y-118370462D01*
X103159637Y-118278142D01*
X103188099Y-118190974D01*
X103219470Y-118126411D01*
X103223375Y-118120769D01*
X103241779Y-118099556D01*
X103261507Y-118095558D01*
X103292609Y-118111698D01*
X103345136Y-118150902D01*
X103356003Y-118159356D01*
X103410724Y-118200853D01*
X103445982Y-118218361D01*
X103469150Y-118207790D01*
X103487596Y-118165052D01*
X103508693Y-118086056D01*
X103512045Y-118072791D01*
X103529152Y-118018323D01*
X103545633Y-117986353D01*
X103551005Y-117982833D01*
X103589145Y-117996525D01*
G37*
X103589145Y-117996525D02*
X103646499Y-118032239D01*
X103712480Y-118081930D01*
X103776501Y-118137554D01*
X103827973Y-118191064D01*
X103832794Y-118196950D01*
X103955374Y-118376411D01*
X104036577Y-118558752D01*
X104077345Y-118748011D01*
X104078617Y-118948226D01*
X104049757Y-119128249D01*
X104025669Y-119220863D01*
X103996137Y-119315000D01*
X103964703Y-119401327D01*
X103934910Y-119470513D01*
X103910303Y-119513224D01*
X103900225Y-119522063D01*
X103874236Y-119515084D01*
X103822560Y-119491000D01*
X103755648Y-119454757D01*
X103745201Y-119448727D01*
X103638468Y-119376730D01*
X103527262Y-119284917D01*
X103421182Y-119182746D01*
X103329829Y-119079674D01*
X103262802Y-118985158D01*
X103248773Y-118959688D01*
X103209297Y-118861773D01*
X103174016Y-118739256D01*
X103147031Y-118609872D01*
X103132445Y-118491354D01*
X103131000Y-118450479D01*
X103138974Y-118370462D01*
X103159637Y-118278142D01*
X103188099Y-118190974D01*
X103219470Y-118126411D01*
X103223375Y-118120769D01*
X103241779Y-118099556D01*
X103261507Y-118095558D01*
X103292609Y-118111698D01*
X103345136Y-118150902D01*
X103356003Y-118159356D01*
X103410724Y-118200853D01*
X103445982Y-118218361D01*
X103469150Y-118207790D01*
X103487596Y-118165052D01*
X103508693Y-118086056D01*
X103512045Y-118072791D01*
X103529152Y-118018323D01*
X103545633Y-117986353D01*
X103551005Y-117982833D01*
X103589145Y-117996525D01*
G36*
X105182144Y-118494838D02*
G01*
X105221453Y-118501200D01*
X105226386Y-118503975D01*
X105228380Y-118531960D01*
X105215307Y-118586477D01*
X105193362Y-118647331D01*
X105142286Y-118772079D01*
X105279643Y-118759252D01*
X105417000Y-118746426D01*
X105416983Y-118814421D01*
X105400769Y-118905362D01*
X105355529Y-119012477D01*
X105286308Y-119126809D01*
X105198148Y-119239407D01*
X105146865Y-119293931D01*
X104998679Y-119420522D01*
X104843242Y-119509901D01*
X104676167Y-119566112D01*
X104594256Y-119580335D01*
X104486444Y-119591840D01*
X104368387Y-119599680D01*
X104255744Y-119602907D01*
X104164171Y-119600571D01*
X104141708Y-119598474D01*
X104098505Y-119590050D01*
X104072706Y-119572677D01*
X104063320Y-119539385D01*
X104069360Y-119483206D01*
X104089836Y-119397173D01*
X104105157Y-119340863D01*
X104182553Y-119120228D01*
X104283636Y-118933714D01*
X104409887Y-118779397D01*
X104562789Y-118655355D01*
X104687849Y-118584845D01*
X104783178Y-118541917D01*
X104861570Y-118515836D01*
X104942315Y-118501548D01*
X105032208Y-118494633D01*
X105115342Y-118492470D01*
X105182144Y-118494838D01*
G37*
X105182144Y-118494838D02*
X105221453Y-118501200D01*
X105226386Y-118503975D01*
X105228380Y-118531960D01*
X105215307Y-118586477D01*
X105193362Y-118647331D01*
X105142286Y-118772079D01*
X105279643Y-118759252D01*
X105417000Y-118746426D01*
X105416983Y-118814421D01*
X105400769Y-118905362D01*
X105355529Y-119012477D01*
X105286308Y-119126809D01*
X105198148Y-119239407D01*
X105146865Y-119293931D01*
X104998679Y-119420522D01*
X104843242Y-119509901D01*
X104676167Y-119566112D01*
X104594256Y-119580335D01*
X104486444Y-119591840D01*
X104368387Y-119599680D01*
X104255744Y-119602907D01*
X104164171Y-119600571D01*
X104141708Y-119598474D01*
X104098505Y-119590050D01*
X104072706Y-119572677D01*
X104063320Y-119539385D01*
X104069360Y-119483206D01*
X104089836Y-119397173D01*
X104105157Y-119340863D01*
X104182553Y-119120228D01*
X104283636Y-118933714D01*
X104409887Y-118779397D01*
X104562789Y-118655355D01*
X104687849Y-118584845D01*
X104783178Y-118541917D01*
X104861570Y-118515836D01*
X104942315Y-118501548D01*
X105032208Y-118494633D01*
X105115342Y-118492470D01*
X105182144Y-118494838D01*
G36*
X103056553Y-119243648D02*
G01*
X103086926Y-119249068D01*
X103278142Y-119307064D01*
X103469325Y-119399558D01*
X103648707Y-119520371D01*
X103723402Y-119583195D01*
X103810215Y-119661626D01*
X103740482Y-119734526D01*
X103648264Y-119816945D01*
X103528453Y-119903415D01*
X103393853Y-119985323D01*
X103282926Y-120042340D01*
X103203297Y-120076599D01*
X103133141Y-120097477D01*
X103055277Y-120108683D01*
X102952523Y-120113925D01*
X102951083Y-120113967D01*
X102847608Y-120113311D01*
X102747088Y-120106558D01*
X102667279Y-120095019D01*
X102654750Y-120092094D01*
X102491782Y-120037899D01*
X102360804Y-119968523D01*
X102288155Y-119909565D01*
X102218369Y-119839779D01*
X102336880Y-119761079D01*
X102455391Y-119682378D01*
X102338112Y-119611300D01*
X102277966Y-119572737D01*
X102235662Y-119541584D01*
X102220833Y-119525409D01*
X102235568Y-119503812D01*
X102272531Y-119467341D01*
X102289625Y-119452419D01*
X102415616Y-119368575D01*
X102568295Y-119302463D01*
X102734671Y-119257396D01*
X102901754Y-119236687D01*
X103056553Y-119243648D01*
G37*
X103056553Y-119243648D02*
X103086926Y-119249068D01*
X103278142Y-119307064D01*
X103469325Y-119399558D01*
X103648707Y-119520371D01*
X103723402Y-119583195D01*
X103810215Y-119661626D01*
X103740482Y-119734526D01*
X103648264Y-119816945D01*
X103528453Y-119903415D01*
X103393853Y-119985323D01*
X103282926Y-120042340D01*
X103203297Y-120076599D01*
X103133141Y-120097477D01*
X103055277Y-120108683D01*
X102952523Y-120113925D01*
X102951083Y-120113967D01*
X102847608Y-120113311D01*
X102747088Y-120106558D01*
X102667279Y-120095019D01*
X102654750Y-120092094D01*
X102491782Y-120037899D01*
X102360804Y-119968523D01*
X102288155Y-119909565D01*
X102218369Y-119839779D01*
X102336880Y-119761079D01*
X102455391Y-119682378D01*
X102338112Y-119611300D01*
X102277966Y-119572737D01*
X102235662Y-119541584D01*
X102220833Y-119525409D01*
X102235568Y-119503812D01*
X102272531Y-119467341D01*
X102289625Y-119452419D01*
X102415616Y-119368575D01*
X102568295Y-119302463D01*
X102734671Y-119257396D01*
X102901754Y-119236687D01*
X103056553Y-119243648D01*
G36*
X104556902Y-119722855D02*
G01*
X104712755Y-119746859D01*
X104850024Y-119789775D01*
X104938147Y-119830857D01*
X105052249Y-119904475D01*
X105161779Y-119999286D01*
X105260771Y-120107592D01*
X105343255Y-120221696D01*
X105403262Y-120333899D01*
X105434826Y-120436505D01*
X105438167Y-120475763D01*
X105438167Y-120548931D01*
X105166509Y-120519839D01*
X105216594Y-120643044D01*
X105240240Y-120709565D01*
X105252063Y-120760420D01*
X105250260Y-120782687D01*
X105211069Y-120799275D01*
X105143194Y-120807788D01*
X105059540Y-120808066D01*
X104973011Y-120799949D01*
X104909000Y-120786925D01*
X104701382Y-120710858D01*
X104522884Y-120604071D01*
X104373449Y-120466519D01*
X104253024Y-120298158D01*
X104212634Y-120221488D01*
X104170321Y-120125499D01*
X104130409Y-120021080D01*
X104096638Y-119919582D01*
X104072746Y-119832351D01*
X104062473Y-119770738D01*
X104062333Y-119765364D01*
X104080513Y-119743660D01*
X104136059Y-119728298D01*
X104230482Y-119719035D01*
X104365291Y-119715628D01*
X104371890Y-119715610D01*
X104556902Y-119722855D01*
G37*
X104556902Y-119722855D02*
X104712755Y-119746859D01*
X104850024Y-119789775D01*
X104938147Y-119830857D01*
X105052249Y-119904475D01*
X105161779Y-119999286D01*
X105260771Y-120107592D01*
X105343255Y-120221696D01*
X105403262Y-120333899D01*
X105434826Y-120436505D01*
X105438167Y-120475763D01*
X105438167Y-120548931D01*
X105166509Y-120519839D01*
X105216594Y-120643044D01*
X105240240Y-120709565D01*
X105252063Y-120760420D01*
X105250260Y-120782687D01*
X105211069Y-120799275D01*
X105143194Y-120807788D01*
X105059540Y-120808066D01*
X104973011Y-120799949D01*
X104909000Y-120786925D01*
X104701382Y-120710858D01*
X104522884Y-120604071D01*
X104373449Y-120466519D01*
X104253024Y-120298158D01*
X104212634Y-120221488D01*
X104170321Y-120125499D01*
X104130409Y-120021080D01*
X104096638Y-119919582D01*
X104072746Y-119832351D01*
X104062473Y-119770738D01*
X104062333Y-119765364D01*
X104080513Y-119743660D01*
X104136059Y-119728298D01*
X104230482Y-119719035D01*
X104365291Y-119715628D01*
X104371890Y-119715610D01*
X104556902Y-119722855D01*
G36*
X103919004Y-119822353D02*
G01*
X103949679Y-119874842D01*
X103984509Y-119953026D01*
X104020128Y-120049298D01*
X104053167Y-120156052D01*
X104055056Y-120162851D01*
X104097695Y-120379970D01*
X104101180Y-120583270D01*
X104065179Y-120775807D01*
X103989363Y-120960638D01*
X103963774Y-121006639D01*
X103899483Y-121102238D01*
X103824920Y-121190943D01*
X103747456Y-121265858D01*
X103674460Y-121320090D01*
X103613304Y-121346745D01*
X103598475Y-121348333D01*
X103581884Y-121329659D01*
X103559782Y-121280933D01*
X103539056Y-121219439D01*
X103501097Y-121090544D01*
X103398123Y-121181186D01*
X103342179Y-121229200D01*
X103308314Y-121252209D01*
X103287285Y-121253688D01*
X103269847Y-121237108D01*
X103265349Y-121231073D01*
X103219211Y-121139283D01*
X103189333Y-121018350D01*
X103176687Y-120878606D01*
X103182243Y-120730385D01*
X103205245Y-120591219D01*
X103261699Y-120417044D01*
X103346535Y-120263934D01*
X103466374Y-120120188D01*
X103478750Y-120107663D01*
X103543714Y-120047500D01*
X103620991Y-119983134D01*
X103702298Y-119920613D01*
X103779352Y-119865984D01*
X103843871Y-119825292D01*
X103887572Y-119804584D01*
X103895851Y-119803166D01*
X103919004Y-119822353D01*
G37*
X103919004Y-119822353D02*
X103949679Y-119874842D01*
X103984509Y-119953026D01*
X104020128Y-120049298D01*
X104053167Y-120156052D01*
X104055056Y-120162851D01*
X104097695Y-120379970D01*
X104101180Y-120583270D01*
X104065179Y-120775807D01*
X103989363Y-120960638D01*
X103963774Y-121006639D01*
X103899483Y-121102238D01*
X103824920Y-121190943D01*
X103747456Y-121265858D01*
X103674460Y-121320090D01*
X103613304Y-121346745D01*
X103598475Y-121348333D01*
X103581884Y-121329659D01*
X103559782Y-121280933D01*
X103539056Y-121219439D01*
X103501097Y-121090544D01*
X103398123Y-121181186D01*
X103342179Y-121229200D01*
X103308314Y-121252209D01*
X103287285Y-121253688D01*
X103269847Y-121237108D01*
X103265349Y-121231073D01*
X103219211Y-121139283D01*
X103189333Y-121018350D01*
X103176687Y-120878606D01*
X103182243Y-120730385D01*
X103205245Y-120591219D01*
X103261699Y-120417044D01*
X103346535Y-120263934D01*
X103466374Y-120120188D01*
X103478750Y-120107663D01*
X103543714Y-120047500D01*
X103620991Y-119983134D01*
X103702298Y-119920613D01*
X103779352Y-119865984D01*
X103843871Y-119825292D01*
X103887572Y-119804584D01*
X103895851Y-119803166D01*
X103919004Y-119822353D01*
G36*
X90572160Y-93493656D02*
G01*
X90657344Y-93539638D01*
X90787636Y-93611539D01*
X90956203Y-93705483D01*
X91156214Y-93817594D01*
X91380836Y-93943997D01*
X91623237Y-94080816D01*
X91876585Y-94224176D01*
X92134048Y-94370200D01*
X92388793Y-94515014D01*
X92633989Y-94654741D01*
X92862803Y-94785507D01*
X93068402Y-94903436D01*
X93243956Y-95004651D01*
X93382631Y-95085278D01*
X93477595Y-95141442D01*
X93522017Y-95169265D01*
X93523736Y-95170610D01*
X93528661Y-95213601D01*
X93504282Y-95286348D01*
X93501275Y-95292496D01*
X93452732Y-95390486D01*
X93398080Y-95502300D01*
X93390504Y-95517934D01*
X93344793Y-95596379D01*
X93304391Y-95639730D01*
X93294432Y-95642865D01*
X93259088Y-95626084D01*
X93170757Y-95578709D01*
X93035148Y-95503945D01*
X92857974Y-95404997D01*
X92644942Y-95285073D01*
X92401764Y-95147376D01*
X92134149Y-94995114D01*
X91847808Y-94831491D01*
X91781305Y-94793392D01*
X90302810Y-93945988D01*
X90406281Y-93711728D01*
X90459363Y-93599649D01*
X90505424Y-93516789D01*
X90535797Y-93478456D01*
X90538916Y-93477467D01*
X90572160Y-93493656D01*
G37*
X90572160Y-93493656D02*
X90657344Y-93539638D01*
X90787636Y-93611539D01*
X90956203Y-93705483D01*
X91156214Y-93817594D01*
X91380836Y-93943997D01*
X91623237Y-94080816D01*
X91876585Y-94224176D01*
X92134048Y-94370200D01*
X92388793Y-94515014D01*
X92633989Y-94654741D01*
X92862803Y-94785507D01*
X93068402Y-94903436D01*
X93243956Y-95004651D01*
X93382631Y-95085278D01*
X93477595Y-95141442D01*
X93522017Y-95169265D01*
X93523736Y-95170610D01*
X93528661Y-95213601D01*
X93504282Y-95286348D01*
X93501275Y-95292496D01*
X93452732Y-95390486D01*
X93398080Y-95502300D01*
X93390504Y-95517934D01*
X93344793Y-95596379D01*
X93304391Y-95639730D01*
X93294432Y-95642865D01*
X93259088Y-95626084D01*
X93170757Y-95578709D01*
X93035148Y-95503945D01*
X92857974Y-95404997D01*
X92644942Y-95285073D01*
X92401764Y-95147376D01*
X92134149Y-94995114D01*
X91847808Y-94831491D01*
X91781305Y-94793392D01*
X90302810Y-93945988D01*
X90406281Y-93711728D01*
X90459363Y-93599649D01*
X90505424Y-93516789D01*
X90535797Y-93478456D01*
X90538916Y-93477467D01*
X90572160Y-93493656D01*
G36*
X87891933Y-98930000D02*
G01*
X87383933Y-98930000D01*
X87383933Y-95340134D01*
X87891933Y-95340134D01*
X87891933Y-98930000D01*
G37*
X87891933Y-98930000D02*
X87383933Y-98930000D01*
X87383933Y-95340134D01*
X87891933Y-95340134D01*
X87891933Y-98930000D01*
G36*
X93261981Y-98461786D02*
G01*
X93298449Y-98515818D01*
X93348324Y-98609859D01*
X93389562Y-98698434D01*
X93473582Y-98890201D01*
X92057125Y-99739834D01*
X91775378Y-99908466D01*
X91511034Y-100065970D01*
X91269812Y-100208989D01*
X91057434Y-100334166D01*
X90879617Y-100438142D01*
X90742081Y-100517560D01*
X90650546Y-100569063D01*
X90610730Y-100589293D01*
X90609815Y-100589467D01*
X90580736Y-100561373D01*
X90532517Y-100487233D01*
X90474915Y-100382265D01*
X90467161Y-100366979D01*
X90415749Y-100253693D01*
X90386173Y-100165650D01*
X90383737Y-100119008D01*
X90385181Y-100117252D01*
X90419435Y-100094922D01*
X90506116Y-100041429D01*
X90639451Y-99960256D01*
X90813665Y-99854888D01*
X91022984Y-99728809D01*
X91261635Y-99585502D01*
X91523843Y-99428452D01*
X91803835Y-99261143D01*
X91816710Y-99253459D01*
X92146824Y-99056878D01*
X92423664Y-98893108D01*
X92651765Y-98759664D01*
X92835665Y-98654061D01*
X92979898Y-98573815D01*
X93089001Y-98516441D01*
X93167511Y-98479454D01*
X93219962Y-98460370D01*
X93250891Y-98456703D01*
X93261981Y-98461786D01*
G37*
X93261981Y-98461786D02*
X93298449Y-98515818D01*
X93348324Y-98609859D01*
X93389562Y-98698434D01*
X93473582Y-98890201D01*
X92057125Y-99739834D01*
X91775378Y-99908466D01*
X91511034Y-100065970D01*
X91269812Y-100208989D01*
X91057434Y-100334166D01*
X90879617Y-100438142D01*
X90742081Y-100517560D01*
X90650546Y-100569063D01*
X90610730Y-100589293D01*
X90609815Y-100589467D01*
X90580736Y-100561373D01*
X90532517Y-100487233D01*
X90474915Y-100382265D01*
X90467161Y-100366979D01*
X90415749Y-100253693D01*
X90386173Y-100165650D01*
X90383737Y-100119008D01*
X90385181Y-100117252D01*
X90419435Y-100094922D01*
X90506116Y-100041429D01*
X90639451Y-99960256D01*
X90813665Y-99854888D01*
X91022984Y-99728809D01*
X91261635Y-99585502D01*
X91523843Y-99428452D01*
X91803835Y-99261143D01*
X91816710Y-99253459D01*
X92146824Y-99056878D01*
X92423664Y-98893108D01*
X92651765Y-98759664D01*
X92835665Y-98654061D01*
X92979898Y-98573815D01*
X93089001Y-98516441D01*
X93167511Y-98479454D01*
X93219962Y-98460370D01*
X93250891Y-98456703D01*
X93261981Y-98461786D01*
G36*
X95850600Y-88600667D02*
G01*
X96629533Y-88600667D01*
X96629533Y-87855600D01*
X96934333Y-87855600D01*
X96934333Y-89684400D01*
X96629533Y-89684400D01*
X96629533Y-88871600D01*
X95850600Y-88871600D01*
X95850600Y-89684400D01*
X95545800Y-89684400D01*
X95545800Y-87855600D01*
X95850600Y-87855600D01*
X95850600Y-88600667D01*
G37*
X95850600Y-88600667D02*
X96629533Y-88600667D01*
X96629533Y-87855600D01*
X96934333Y-87855600D01*
X96934333Y-89684400D01*
X96629533Y-89684400D01*
X96629533Y-88871600D01*
X95850600Y-88871600D01*
X95850600Y-89684400D01*
X95545800Y-89684400D01*
X95545800Y-87855600D01*
X95850600Y-87855600D01*
X95850600Y-88600667D01*
G36*
X94615180Y-87886276D02*
G01*
X94807265Y-87977448D01*
X94964466Y-88113241D01*
X94971080Y-88121108D01*
X95080823Y-88302987D01*
X95147974Y-88520459D01*
X95172294Y-88756258D01*
X95153546Y-88993121D01*
X95091490Y-89213782D01*
X94988707Y-89397305D01*
X94845093Y-89535663D01*
X94662727Y-89637536D01*
X94461373Y-89695866D01*
X94260792Y-89703595D01*
X94174200Y-89688207D01*
X93978052Y-89607432D01*
X93804099Y-89479354D01*
X93667705Y-89318124D01*
X93586971Y-89147328D01*
X93561706Y-89011925D01*
X93549961Y-88838171D01*
X93550617Y-88770000D01*
X93871356Y-88770000D01*
X93889843Y-88998600D01*
X93947275Y-89176961D01*
X94046607Y-89312225D01*
X94119941Y-89370687D01*
X94274296Y-89435984D01*
X94436255Y-89435931D01*
X94589068Y-89374367D01*
X94708803Y-89266372D01*
X94787696Y-89113229D01*
X94827705Y-88910123D01*
X94833856Y-88772226D01*
X94812917Y-88542978D01*
X94751115Y-88355139D01*
X94652175Y-88213969D01*
X94519819Y-88124732D01*
X94357771Y-88092690D01*
X94353011Y-88092667D01*
X94192219Y-88123389D01*
X94059419Y-88211580D01*
X93958854Y-88351276D01*
X93894762Y-88536513D01*
X93871385Y-88761328D01*
X93871356Y-88770000D01*
X93550617Y-88770000D01*
X93551735Y-88654085D01*
X93567029Y-88487685D01*
X93586971Y-88392673D01*
X93659566Y-88240688D01*
X93777120Y-88090751D01*
X93920045Y-87965448D01*
X94000039Y-87916409D01*
X94194524Y-87852164D01*
X94405252Y-87843318D01*
X94615180Y-87886276D01*
G37*
X94615180Y-87886276D02*
X94807265Y-87977448D01*
X94964466Y-88113241D01*
X94971080Y-88121108D01*
X95080823Y-88302987D01*
X95147974Y-88520459D01*
X95172294Y-88756258D01*
X95153546Y-88993121D01*
X95091490Y-89213782D01*
X94988707Y-89397305D01*
X94845093Y-89535663D01*
X94662727Y-89637536D01*
X94461373Y-89695866D01*
X94260792Y-89703595D01*
X94174200Y-89688207D01*
X93978052Y-89607432D01*
X93804099Y-89479354D01*
X93667705Y-89318124D01*
X93586971Y-89147328D01*
X93561706Y-89011925D01*
X93549961Y-88838171D01*
X93550617Y-88770000D01*
X93871356Y-88770000D01*
X93889843Y-88998600D01*
X93947275Y-89176961D01*
X94046607Y-89312225D01*
X94119941Y-89370687D01*
X94274296Y-89435984D01*
X94436255Y-89435931D01*
X94589068Y-89374367D01*
X94708803Y-89266372D01*
X94787696Y-89113229D01*
X94827705Y-88910123D01*
X94833856Y-88772226D01*
X94812917Y-88542978D01*
X94751115Y-88355139D01*
X94652175Y-88213969D01*
X94519819Y-88124732D01*
X94357771Y-88092690D01*
X94353011Y-88092667D01*
X94192219Y-88123389D01*
X94059419Y-88211580D01*
X93958854Y-88351276D01*
X93894762Y-88536513D01*
X93871385Y-88761328D01*
X93871356Y-88770000D01*
X93550617Y-88770000D01*
X93551735Y-88654085D01*
X93567029Y-88487685D01*
X93586971Y-88392673D01*
X93659566Y-88240688D01*
X93777120Y-88090751D01*
X93920045Y-87965448D01*
X94000039Y-87916409D01*
X94194524Y-87852164D01*
X94405252Y-87843318D01*
X94615180Y-87886276D01*
G36*
X92650913Y-87886276D02*
G01*
X92842999Y-87977448D01*
X93000199Y-88113241D01*
X93006814Y-88121108D01*
X93116556Y-88302987D01*
X93183707Y-88520459D01*
X93208028Y-88756258D01*
X93189279Y-88993121D01*
X93127223Y-89213782D01*
X93024440Y-89397305D01*
X92880827Y-89535663D01*
X92698461Y-89637536D01*
X92497106Y-89695866D01*
X92296526Y-89703595D01*
X92209933Y-89688207D01*
X92013786Y-89607432D01*
X91839833Y-89479354D01*
X91703439Y-89318124D01*
X91622704Y-89147328D01*
X91597440Y-89011925D01*
X91585694Y-88838171D01*
X91586351Y-88770000D01*
X91907090Y-88770000D01*
X91925577Y-88998600D01*
X91983008Y-89176961D01*
X92082340Y-89312225D01*
X92155675Y-89370687D01*
X92310029Y-89435984D01*
X92471988Y-89435931D01*
X92624801Y-89374367D01*
X92744536Y-89266372D01*
X92823430Y-89113229D01*
X92863438Y-88910123D01*
X92869589Y-88772226D01*
X92848650Y-88542978D01*
X92786849Y-88355139D01*
X92687908Y-88213969D01*
X92555552Y-88124732D01*
X92393504Y-88092690D01*
X92388744Y-88092667D01*
X92227952Y-88123389D01*
X92095153Y-88211580D01*
X91994587Y-88351276D01*
X91930495Y-88536513D01*
X91907118Y-88761328D01*
X91907090Y-88770000D01*
X91586351Y-88770000D01*
X91587469Y-88654085D01*
X91602762Y-88487685D01*
X91622704Y-88392673D01*
X91695300Y-88240688D01*
X91812854Y-88090751D01*
X91955778Y-87965448D01*
X92035772Y-87916409D01*
X92230257Y-87852164D01*
X92440985Y-87843318D01*
X92650913Y-87886276D01*
G37*
X92650913Y-87886276D02*
X92842999Y-87977448D01*
X93000199Y-88113241D01*
X93006814Y-88121108D01*
X93116556Y-88302987D01*
X93183707Y-88520459D01*
X93208028Y-88756258D01*
X93189279Y-88993121D01*
X93127223Y-89213782D01*
X93024440Y-89397305D01*
X92880827Y-89535663D01*
X92698461Y-89637536D01*
X92497106Y-89695866D01*
X92296526Y-89703595D01*
X92209933Y-89688207D01*
X92013786Y-89607432D01*
X91839833Y-89479354D01*
X91703439Y-89318124D01*
X91622704Y-89147328D01*
X91597440Y-89011925D01*
X91585694Y-88838171D01*
X91586351Y-88770000D01*
X91907090Y-88770000D01*
X91925577Y-88998600D01*
X91983008Y-89176961D01*
X92082340Y-89312225D01*
X92155675Y-89370687D01*
X92310029Y-89435984D01*
X92471988Y-89435931D01*
X92624801Y-89374367D01*
X92744536Y-89266372D01*
X92823430Y-89113229D01*
X92863438Y-88910123D01*
X92869589Y-88772226D01*
X92848650Y-88542978D01*
X92786849Y-88355139D01*
X92687908Y-88213969D01*
X92555552Y-88124732D01*
X92393504Y-88092690D01*
X92388744Y-88092667D01*
X92227952Y-88123389D01*
X92095153Y-88211580D01*
X91994587Y-88351276D01*
X91930495Y-88536513D01*
X91907118Y-88761328D01*
X91907090Y-88770000D01*
X91586351Y-88770000D01*
X91587469Y-88654085D01*
X91602762Y-88487685D01*
X91622704Y-88392673D01*
X91695300Y-88240688D01*
X91812854Y-88090751D01*
X91955778Y-87965448D01*
X92035772Y-87916409D01*
X92230257Y-87852164D01*
X92440985Y-87843318D01*
X92650913Y-87886276D01*
G36*
X90711088Y-87853271D02*
G01*
X90743176Y-87859530D01*
X90925156Y-87930814D01*
X91079928Y-88055179D01*
X91193943Y-88219364D01*
X91241314Y-88347118D01*
X91262050Y-88463317D01*
X91246484Y-88530375D01*
X91187332Y-88560354D01*
X91109267Y-88565763D01*
X91019555Y-88554020D01*
X90961235Y-88508523D01*
X90916719Y-88413866D01*
X90908714Y-88390108D01*
X90830904Y-88244736D01*
X90713041Y-88142928D01*
X90568392Y-88095020D01*
X90526950Y-88092667D01*
X90431960Y-88102210D01*
X90353559Y-88139785D01*
X90263956Y-88218811D01*
X90262334Y-88220430D01*
X90150717Y-88375616D01*
X90081459Y-88564562D01*
X90054810Y-88770493D01*
X90071019Y-88976632D01*
X90130336Y-89166204D01*
X90233008Y-89322433D01*
X90245771Y-89335678D01*
X90324183Y-89404432D01*
X90399116Y-89437443D01*
X90502395Y-89447109D01*
X90532373Y-89447333D01*
X90647647Y-89440380D01*
X90743679Y-89422703D01*
X90775705Y-89410734D01*
X90835735Y-89352230D01*
X90896873Y-89252813D01*
X90946488Y-89137896D01*
X90971950Y-89032891D01*
X90973056Y-89013678D01*
X90979585Y-88966900D01*
X91009758Y-88945812D01*
X91081231Y-88943012D01*
X91134667Y-88945945D01*
X91231362Y-88954692D01*
X91277217Y-88972818D01*
X91289056Y-89012740D01*
X91286335Y-89057867D01*
X91239420Y-89263660D01*
X91143714Y-89442931D01*
X91008371Y-89583581D01*
X90842546Y-89673508D01*
X90813859Y-89682364D01*
X90612369Y-89713533D01*
X90402358Y-89704643D01*
X90249892Y-89668513D01*
X90072990Y-89571566D01*
X89929822Y-89425727D01*
X89822765Y-89242144D01*
X89754195Y-89031963D01*
X89726490Y-88806331D01*
X89742028Y-88576395D01*
X89803185Y-88353301D01*
X89912338Y-88148197D01*
X89922592Y-88133759D01*
X90071829Y-87983003D01*
X90259055Y-87883976D01*
X90475174Y-87839719D01*
X90711088Y-87853271D01*
G37*
X90711088Y-87853271D02*
X90743176Y-87859530D01*
X90925156Y-87930814D01*
X91079928Y-88055179D01*
X91193943Y-88219364D01*
X91241314Y-88347118D01*
X91262050Y-88463317D01*
X91246484Y-88530375D01*
X91187332Y-88560354D01*
X91109267Y-88565763D01*
X91019555Y-88554020D01*
X90961235Y-88508523D01*
X90916719Y-88413866D01*
X90908714Y-88390108D01*
X90830904Y-88244736D01*
X90713041Y-88142928D01*
X90568392Y-88095020D01*
X90526950Y-88092667D01*
X90431960Y-88102210D01*
X90353559Y-88139785D01*
X90263956Y-88218811D01*
X90262334Y-88220430D01*
X90150717Y-88375616D01*
X90081459Y-88564562D01*
X90054810Y-88770493D01*
X90071019Y-88976632D01*
X90130336Y-89166204D01*
X90233008Y-89322433D01*
X90245771Y-89335678D01*
X90324183Y-89404432D01*
X90399116Y-89437443D01*
X90502395Y-89447109D01*
X90532373Y-89447333D01*
X90647647Y-89440380D01*
X90743679Y-89422703D01*
X90775705Y-89410734D01*
X90835735Y-89352230D01*
X90896873Y-89252813D01*
X90946488Y-89137896D01*
X90971950Y-89032891D01*
X90973056Y-89013678D01*
X90979585Y-88966900D01*
X91009758Y-88945812D01*
X91081231Y-88943012D01*
X91134667Y-88945945D01*
X91231362Y-88954692D01*
X91277217Y-88972818D01*
X91289056Y-89012740D01*
X91286335Y-89057867D01*
X91239420Y-89263660D01*
X91143714Y-89442931D01*
X91008371Y-89583581D01*
X90842546Y-89673508D01*
X90813859Y-89682364D01*
X90612369Y-89713533D01*
X90402358Y-89704643D01*
X90249892Y-89668513D01*
X90072990Y-89571566D01*
X89929822Y-89425727D01*
X89822765Y-89242144D01*
X89754195Y-89031963D01*
X89726490Y-88806331D01*
X89742028Y-88576395D01*
X89803185Y-88353301D01*
X89912338Y-88148197D01*
X89922592Y-88133759D01*
X90071829Y-87983003D01*
X90259055Y-87883976D01*
X90475174Y-87839719D01*
X90711088Y-87853271D01*
G36*
X99135667Y-92834000D02*
G01*
X99914600Y-92834000D01*
X99914600Y-92088934D01*
X100219400Y-92088934D01*
X100219400Y-93917733D01*
X99914600Y-93917733D01*
X99914600Y-93104933D01*
X99135667Y-93104933D01*
X99135667Y-93917733D01*
X98830867Y-93917733D01*
X98830867Y-92088934D01*
X99135667Y-92088934D01*
X99135667Y-92834000D01*
G37*
X99135667Y-92834000D02*
X99914600Y-92834000D01*
X99914600Y-92088934D01*
X100219400Y-92088934D01*
X100219400Y-93917733D01*
X99914600Y-93917733D01*
X99914600Y-93104933D01*
X99135667Y-93104933D01*
X99135667Y-93917733D01*
X98830867Y-93917733D01*
X98830867Y-92088934D01*
X99135667Y-92088934D01*
X99135667Y-92834000D01*
G36*
X97900246Y-92119610D02*
G01*
X98092332Y-92210782D01*
X98249533Y-92346574D01*
X98256147Y-92354441D01*
X98365890Y-92536320D01*
X98433040Y-92753792D01*
X98457361Y-92989592D01*
X98438612Y-93226455D01*
X98376556Y-93447115D01*
X98273774Y-93630639D01*
X98130160Y-93768997D01*
X97947794Y-93870870D01*
X97746439Y-93929200D01*
X97545859Y-93936928D01*
X97459267Y-93921541D01*
X97263119Y-93840766D01*
X97089166Y-93712688D01*
X96952772Y-93551458D01*
X96872037Y-93380661D01*
X96846773Y-93245259D01*
X96835028Y-93071505D01*
X96835684Y-93003333D01*
X97156423Y-93003333D01*
X97174910Y-93231933D01*
X97232342Y-93410294D01*
X97331674Y-93545559D01*
X97405008Y-93604020D01*
X97559363Y-93669318D01*
X97721322Y-93669264D01*
X97874135Y-93607700D01*
X97993870Y-93499706D01*
X98072763Y-93346562D01*
X98112772Y-93143456D01*
X98118923Y-93005559D01*
X98097984Y-92776312D01*
X98036182Y-92588472D01*
X97937241Y-92447303D01*
X97804885Y-92358065D01*
X97642837Y-92326023D01*
X97638077Y-92326000D01*
X97477285Y-92356722D01*
X97344486Y-92444913D01*
X97243920Y-92584609D01*
X97179828Y-92769846D01*
X97156452Y-92994661D01*
X97156423Y-93003333D01*
X96835684Y-93003333D01*
X96836802Y-92887418D01*
X96852095Y-92721018D01*
X96872037Y-92626006D01*
X96944633Y-92474021D01*
X97062187Y-92324085D01*
X97205112Y-92198782D01*
X97285105Y-92149743D01*
X97479591Y-92085498D01*
X97690319Y-92076651D01*
X97900246Y-92119610D01*
G37*
X97900246Y-92119610D02*
X98092332Y-92210782D01*
X98249533Y-92346574D01*
X98256147Y-92354441D01*
X98365890Y-92536320D01*
X98433040Y-92753792D01*
X98457361Y-92989592D01*
X98438612Y-93226455D01*
X98376556Y-93447115D01*
X98273774Y-93630639D01*
X98130160Y-93768997D01*
X97947794Y-93870870D01*
X97746439Y-93929200D01*
X97545859Y-93936928D01*
X97459267Y-93921541D01*
X97263119Y-93840766D01*
X97089166Y-93712688D01*
X96952772Y-93551458D01*
X96872037Y-93380661D01*
X96846773Y-93245259D01*
X96835028Y-93071505D01*
X96835684Y-93003333D01*
X97156423Y-93003333D01*
X97174910Y-93231933D01*
X97232342Y-93410294D01*
X97331674Y-93545559D01*
X97405008Y-93604020D01*
X97559363Y-93669318D01*
X97721322Y-93669264D01*
X97874135Y-93607700D01*
X97993870Y-93499706D01*
X98072763Y-93346562D01*
X98112772Y-93143456D01*
X98118923Y-93005559D01*
X98097984Y-92776312D01*
X98036182Y-92588472D01*
X97937241Y-92447303D01*
X97804885Y-92358065D01*
X97642837Y-92326023D01*
X97638077Y-92326000D01*
X97477285Y-92356722D01*
X97344486Y-92444913D01*
X97243920Y-92584609D01*
X97179828Y-92769846D01*
X97156452Y-92994661D01*
X97156423Y-93003333D01*
X96835684Y-93003333D01*
X96836802Y-92887418D01*
X96852095Y-92721018D01*
X96872037Y-92626006D01*
X96944633Y-92474021D01*
X97062187Y-92324085D01*
X97205112Y-92198782D01*
X97285105Y-92149743D01*
X97479591Y-92085498D01*
X97690319Y-92076651D01*
X97900246Y-92119610D01*
G36*
X90753667Y-92746766D02*
G01*
X92395264Y-93685011D01*
X92753769Y-93889602D01*
X93058207Y-94062541D01*
X93313077Y-94206200D01*
X93522879Y-94322955D01*
X93692111Y-94415179D01*
X93825273Y-94485245D01*
X93926864Y-94535530D01*
X94001382Y-94568405D01*
X94053328Y-94586245D01*
X94087200Y-94591425D01*
X94105531Y-94587446D01*
X94150127Y-94562685D01*
X94246288Y-94508257D01*
X94386856Y-94428248D01*
X94564671Y-94326746D01*
X94772573Y-94207836D01*
X95003405Y-94075604D01*
X95224181Y-93948961D01*
X95468753Y-93808870D01*
X95696258Y-93679111D01*
X95899653Y-93563660D01*
X96071894Y-93466490D01*
X96205937Y-93391578D01*
X96294739Y-93342896D01*
X96330281Y-93324749D01*
X96368652Y-93327922D01*
X96414616Y-93371776D01*
X96475963Y-93465023D01*
X96512266Y-93528282D01*
X96572366Y-93646166D01*
X96606394Y-93735281D01*
X96609235Y-93782014D01*
X96608126Y-93783354D01*
X96572745Y-93806576D01*
X96485322Y-93859398D01*
X96352647Y-93937850D01*
X96181505Y-94037960D01*
X95978684Y-94155758D01*
X95750973Y-94287272D01*
X95511628Y-94424825D01*
X94445133Y-95036291D01*
X94428200Y-97105626D01*
X94411266Y-99174960D01*
X92455111Y-100373280D01*
X92124537Y-100575708D01*
X91811267Y-100767386D01*
X91520027Y-100945433D01*
X91255540Y-101106970D01*
X91022531Y-101249114D01*
X90825725Y-101368985D01*
X90669845Y-101463702D01*
X90559616Y-101530384D01*
X90499763Y-101566149D01*
X90490011Y-101571600D01*
X90459891Y-101555208D01*
X90375823Y-101507861D01*
X90242618Y-101432302D01*
X90065083Y-101331273D01*
X89848029Y-101207518D01*
X89596264Y-101063780D01*
X89314597Y-100902801D01*
X89007836Y-100727325D01*
X88680792Y-100540095D01*
X88492234Y-100432082D01*
X86503400Y-99292565D01*
X86504627Y-97070816D01*
X86505742Y-95052267D01*
X87047035Y-95052267D01*
X87054617Y-97046828D01*
X87062200Y-99041388D01*
X88772467Y-100014709D01*
X90482733Y-100988029D01*
X90601266Y-100925699D01*
X90652566Y-100897110D01*
X90756535Y-100837798D01*
X90907321Y-100751146D01*
X91099075Y-100640536D01*
X91325943Y-100509350D01*
X91582075Y-100360970D01*
X91861619Y-100198776D01*
X92158723Y-100026152D01*
X92311533Y-99937275D01*
X93903266Y-99011179D01*
X93910803Y-97014790D01*
X93918339Y-95018400D01*
X92224508Y-94053200D01*
X91913236Y-93876113D01*
X91618802Y-93709158D01*
X91346592Y-93555351D01*
X91101990Y-93417708D01*
X90890380Y-93299246D01*
X90717147Y-93202981D01*
X90587676Y-93131930D01*
X90507351Y-93089107D01*
X90482169Y-93077217D01*
X90444840Y-93091944D01*
X90354531Y-93138160D01*
X90216561Y-93212864D01*
X90036246Y-93313060D01*
X89818903Y-93435749D01*
X89569850Y-93577932D01*
X89294406Y-93736612D01*
X88997886Y-93908790D01*
X88740348Y-94059350D01*
X87047035Y-95052267D01*
X86505742Y-95052267D01*
X86505855Y-94849067D01*
X88367244Y-93765333D01*
X90228633Y-92681600D01*
X90228733Y-89989200D01*
X90735973Y-89989200D01*
X90753667Y-92746766D01*
G37*
X90753667Y-92746766D02*
X92395264Y-93685011D01*
X92753769Y-93889602D01*
X93058207Y-94062541D01*
X93313077Y-94206200D01*
X93522879Y-94322955D01*
X93692111Y-94415179D01*
X93825273Y-94485245D01*
X93926864Y-94535530D01*
X94001382Y-94568405D01*
X94053328Y-94586245D01*
X94087200Y-94591425D01*
X94105531Y-94587446D01*
X94150127Y-94562685D01*
X94246288Y-94508257D01*
X94386856Y-94428248D01*
X94564671Y-94326746D01*
X94772573Y-94207836D01*
X95003405Y-94075604D01*
X95224181Y-93948961D01*
X95468753Y-93808870D01*
X95696258Y-93679111D01*
X95899653Y-93563660D01*
X96071894Y-93466490D01*
X96205937Y-93391578D01*
X96294739Y-93342896D01*
X96330281Y-93324749D01*
X96368652Y-93327922D01*
X96414616Y-93371776D01*
X96475963Y-93465023D01*
X96512266Y-93528282D01*
X96572366Y-93646166D01*
X96606394Y-93735281D01*
X96609235Y-93782014D01*
X96608126Y-93783354D01*
X96572745Y-93806576D01*
X96485322Y-93859398D01*
X96352647Y-93937850D01*
X96181505Y-94037960D01*
X95978684Y-94155758D01*
X95750973Y-94287272D01*
X95511628Y-94424825D01*
X94445133Y-95036291D01*
X94428200Y-97105626D01*
X94411266Y-99174960D01*
X92455111Y-100373280D01*
X92124537Y-100575708D01*
X91811267Y-100767386D01*
X91520027Y-100945433D01*
X91255540Y-101106970D01*
X91022531Y-101249114D01*
X90825725Y-101368985D01*
X90669845Y-101463702D01*
X90559616Y-101530384D01*
X90499763Y-101566149D01*
X90490011Y-101571600D01*
X90459891Y-101555208D01*
X90375823Y-101507861D01*
X90242618Y-101432302D01*
X90065083Y-101331273D01*
X89848029Y-101207518D01*
X89596264Y-101063780D01*
X89314597Y-100902801D01*
X89007836Y-100727325D01*
X88680792Y-100540095D01*
X88492234Y-100432082D01*
X86503400Y-99292565D01*
X86504627Y-97070816D01*
X86505742Y-95052267D01*
X87047035Y-95052267D01*
X87054617Y-97046828D01*
X87062200Y-99041388D01*
X88772467Y-100014709D01*
X90482733Y-100988029D01*
X90601266Y-100925699D01*
X90652566Y-100897110D01*
X90756535Y-100837798D01*
X90907321Y-100751146D01*
X91099075Y-100640536D01*
X91325943Y-100509350D01*
X91582075Y-100360970D01*
X91861619Y-100198776D01*
X92158723Y-100026152D01*
X92311533Y-99937275D01*
X93903266Y-99011179D01*
X93910803Y-97014790D01*
X93918339Y-95018400D01*
X92224508Y-94053200D01*
X91913236Y-93876113D01*
X91618802Y-93709158D01*
X91346592Y-93555351D01*
X91101990Y-93417708D01*
X90890380Y-93299246D01*
X90717147Y-93202981D01*
X90587676Y-93131930D01*
X90507351Y-93089107D01*
X90482169Y-93077217D01*
X90444840Y-93091944D01*
X90354531Y-93138160D01*
X90216561Y-93212864D01*
X90036246Y-93313060D01*
X89818903Y-93435749D01*
X89569850Y-93577932D01*
X89294406Y-93736612D01*
X88997886Y-93908790D01*
X88740348Y-94059350D01*
X87047035Y-95052267D01*
X86505742Y-95052267D01*
X86505855Y-94849067D01*
X88367244Y-93765333D01*
X90228633Y-92681600D01*
X90228733Y-89989200D01*
X90735973Y-89989200D01*
X90753667Y-92746766D01*
D14*
X120619047Y-34991285D02*
X120452380Y-34634142D01*
X120333333Y-34991285D02*
X120333333Y-34241285D01*
X120523809Y-34241285D01*
X120571428Y-34277000D01*
X120595238Y-34312714D01*
X120619047Y-34384142D01*
X120619047Y-34491285D01*
X120595238Y-34562714D01*
X120571428Y-34598428D01*
X120523809Y-34634142D01*
X120333333Y-34634142D01*
X120928571Y-34241285D02*
X121023809Y-34241285D01*
X121071428Y-34277000D01*
X121119047Y-34348428D01*
X121142857Y-34491285D01*
X121142857Y-34741285D01*
X121119047Y-34884142D01*
X121071428Y-34955571D01*
X121023809Y-34991285D01*
X120928571Y-34991285D01*
X120880952Y-34955571D01*
X120833333Y-34884142D01*
X120809523Y-34741285D01*
X120809523Y-34491285D01*
X120833333Y-34348428D01*
X120880952Y-34277000D01*
X120928571Y-34241285D01*
X121309523Y-34241285D02*
X121428571Y-34991285D01*
X121523809Y-34455571D01*
X121619047Y-34991285D01*
X121738095Y-34241285D01*
X122190476Y-34991285D02*
X121904761Y-34991285D01*
X122047619Y-34991285D02*
X122047619Y-34241285D01*
X122000000Y-34348428D01*
X121952380Y-34419857D01*
X121904761Y-34455571D01*
X110327380Y-37467857D02*
X110303571Y-37503571D01*
X110232142Y-37539285D01*
X110184523Y-37539285D01*
X110113095Y-37503571D01*
X110065476Y-37432142D01*
X110041666Y-37360714D01*
X110017857Y-37217857D01*
X110017857Y-37110714D01*
X110041666Y-36967857D01*
X110065476Y-36896428D01*
X110113095Y-36825000D01*
X110184523Y-36789285D01*
X110232142Y-36789285D01*
X110303571Y-36825000D01*
X110327380Y-36860714D01*
X110636904Y-36789285D02*
X110732142Y-36789285D01*
X110779761Y-36825000D01*
X110827380Y-36896428D01*
X110851190Y-37039285D01*
X110851190Y-37289285D01*
X110827380Y-37432142D01*
X110779761Y-37503571D01*
X110732142Y-37539285D01*
X110636904Y-37539285D01*
X110589285Y-37503571D01*
X110541666Y-37432142D01*
X110517857Y-37289285D01*
X110517857Y-37039285D01*
X110541666Y-36896428D01*
X110589285Y-36825000D01*
X110636904Y-36789285D01*
X111303571Y-37539285D02*
X111065476Y-37539285D01*
X111065476Y-36789285D01*
X111684523Y-37039285D02*
X111684523Y-37539285D01*
X111565476Y-36753571D02*
X111446428Y-37289285D01*
X111755952Y-37289285D01*
X120569047Y-37539285D02*
X120402380Y-37182142D01*
X120283333Y-37539285D02*
X120283333Y-36789285D01*
X120473809Y-36789285D01*
X120521428Y-36825000D01*
X120545238Y-36860714D01*
X120569047Y-36932142D01*
X120569047Y-37039285D01*
X120545238Y-37110714D01*
X120521428Y-37146428D01*
X120473809Y-37182142D01*
X120283333Y-37182142D01*
X120878571Y-36789285D02*
X120973809Y-36789285D01*
X121021428Y-36825000D01*
X121069047Y-36896428D01*
X121092857Y-37039285D01*
X121092857Y-37289285D01*
X121069047Y-37432142D01*
X121021428Y-37503571D01*
X120973809Y-37539285D01*
X120878571Y-37539285D01*
X120830952Y-37503571D01*
X120783333Y-37432142D01*
X120759523Y-37289285D01*
X120759523Y-37039285D01*
X120783333Y-36896428D01*
X120830952Y-36825000D01*
X120878571Y-36789285D01*
X121259523Y-36789285D02*
X121378571Y-37539285D01*
X121473809Y-37003571D01*
X121569047Y-37539285D01*
X121688095Y-36789285D01*
X121854761Y-36860714D02*
X121878571Y-36825000D01*
X121926190Y-36789285D01*
X122045238Y-36789285D01*
X122092857Y-36825000D01*
X122116666Y-36860714D01*
X122140476Y-36932142D01*
X122140476Y-37003571D01*
X122116666Y-37110714D01*
X121830952Y-37539285D01*
X122140476Y-37539285D01*
X110277380Y-40067857D02*
X110253571Y-40103571D01*
X110182142Y-40139285D01*
X110134523Y-40139285D01*
X110063095Y-40103571D01*
X110015476Y-40032142D01*
X109991666Y-39960714D01*
X109967857Y-39817857D01*
X109967857Y-39710714D01*
X109991666Y-39567857D01*
X110015476Y-39496428D01*
X110063095Y-39425000D01*
X110134523Y-39389285D01*
X110182142Y-39389285D01*
X110253571Y-39425000D01*
X110277380Y-39460714D01*
X110586904Y-39389285D02*
X110682142Y-39389285D01*
X110729761Y-39425000D01*
X110777380Y-39496428D01*
X110801190Y-39639285D01*
X110801190Y-39889285D01*
X110777380Y-40032142D01*
X110729761Y-40103571D01*
X110682142Y-40139285D01*
X110586904Y-40139285D01*
X110539285Y-40103571D01*
X110491666Y-40032142D01*
X110467857Y-39889285D01*
X110467857Y-39639285D01*
X110491666Y-39496428D01*
X110539285Y-39425000D01*
X110586904Y-39389285D01*
X111253571Y-40139285D02*
X111015476Y-40139285D01*
X111015476Y-39389285D01*
X111658333Y-39389285D02*
X111420238Y-39389285D01*
X111396428Y-39746428D01*
X111420238Y-39710714D01*
X111467857Y-39675000D01*
X111586904Y-39675000D01*
X111634523Y-39710714D01*
X111658333Y-39746428D01*
X111682142Y-39817857D01*
X111682142Y-39996428D01*
X111658333Y-40067857D01*
X111634523Y-40103571D01*
X111586904Y-40139285D01*
X111467857Y-40139285D01*
X111420238Y-40103571D01*
X111396428Y-40067857D01*
X120569047Y-40134785D02*
X120402380Y-39777642D01*
X120283333Y-40134785D02*
X120283333Y-39384785D01*
X120473809Y-39384785D01*
X120521428Y-39420500D01*
X120545238Y-39456214D01*
X120569047Y-39527642D01*
X120569047Y-39634785D01*
X120545238Y-39706214D01*
X120521428Y-39741928D01*
X120473809Y-39777642D01*
X120283333Y-39777642D01*
X120878571Y-39384785D02*
X120973809Y-39384785D01*
X121021428Y-39420500D01*
X121069047Y-39491928D01*
X121092857Y-39634785D01*
X121092857Y-39884785D01*
X121069047Y-40027642D01*
X121021428Y-40099071D01*
X120973809Y-40134785D01*
X120878571Y-40134785D01*
X120830952Y-40099071D01*
X120783333Y-40027642D01*
X120759523Y-39884785D01*
X120759523Y-39634785D01*
X120783333Y-39491928D01*
X120830952Y-39420500D01*
X120878571Y-39384785D01*
X121259523Y-39384785D02*
X121378571Y-40134785D01*
X121473809Y-39599071D01*
X121569047Y-40134785D01*
X121688095Y-39384785D01*
X121830952Y-39384785D02*
X122140476Y-39384785D01*
X121973809Y-39670500D01*
X122045238Y-39670500D01*
X122092857Y-39706214D01*
X122116666Y-39741928D01*
X122140476Y-39813357D01*
X122140476Y-39991928D01*
X122116666Y-40063357D01*
X122092857Y-40099071D01*
X122045238Y-40134785D01*
X121902380Y-40134785D01*
X121854761Y-40099071D01*
X121830952Y-40063357D01*
X110352380Y-27292857D02*
X110328571Y-27328571D01*
X110257142Y-27364285D01*
X110209523Y-27364285D01*
X110138095Y-27328571D01*
X110090476Y-27257142D01*
X110066666Y-27185714D01*
X110042857Y-27042857D01*
X110042857Y-26935714D01*
X110066666Y-26792857D01*
X110090476Y-26721428D01*
X110138095Y-26650000D01*
X110209523Y-26614285D01*
X110257142Y-26614285D01*
X110328571Y-26650000D01*
X110352380Y-26685714D01*
X110661904Y-26614285D02*
X110757142Y-26614285D01*
X110804761Y-26650000D01*
X110852380Y-26721428D01*
X110876190Y-26864285D01*
X110876190Y-27114285D01*
X110852380Y-27257142D01*
X110804761Y-27328571D01*
X110757142Y-27364285D01*
X110661904Y-27364285D01*
X110614285Y-27328571D01*
X110566666Y-27257142D01*
X110542857Y-27114285D01*
X110542857Y-26864285D01*
X110566666Y-26721428D01*
X110614285Y-26650000D01*
X110661904Y-26614285D01*
X111328571Y-27364285D02*
X111090476Y-27364285D01*
X111090476Y-26614285D01*
X111590476Y-26614285D02*
X111638095Y-26614285D01*
X111685714Y-26650000D01*
X111709523Y-26685714D01*
X111733333Y-26757142D01*
X111757142Y-26900000D01*
X111757142Y-27078571D01*
X111733333Y-27221428D01*
X111709523Y-27292857D01*
X111685714Y-27328571D01*
X111638095Y-27364285D01*
X111590476Y-27364285D01*
X111542857Y-27328571D01*
X111519047Y-27292857D01*
X111495238Y-27221428D01*
X111471428Y-27078571D01*
X111471428Y-26900000D01*
X111495238Y-26757142D01*
X111519047Y-26685714D01*
X111542857Y-26650000D01*
X111590476Y-26614285D01*
X120853857Y-27335571D02*
X120925285Y-27371285D01*
X121044333Y-27371285D01*
X121091952Y-27335571D01*
X121115761Y-27299857D01*
X121139571Y-27228428D01*
X121139571Y-27157000D01*
X121115761Y-27085571D01*
X121091952Y-27049857D01*
X121044333Y-27014142D01*
X120949095Y-26978428D01*
X120901476Y-26942714D01*
X120877666Y-26907000D01*
X120853857Y-26835571D01*
X120853857Y-26764142D01*
X120877666Y-26692714D01*
X120901476Y-26657000D01*
X120949095Y-26621285D01*
X121068142Y-26621285D01*
X121139571Y-26657000D01*
X121353857Y-27371285D02*
X121353857Y-26621285D01*
X121472904Y-26621285D01*
X121544333Y-26657000D01*
X121591952Y-26728428D01*
X121615761Y-26799857D01*
X121639571Y-26942714D01*
X121639571Y-27049857D01*
X121615761Y-27192714D01*
X121591952Y-27264142D01*
X121544333Y-27335571D01*
X121472904Y-27371285D01*
X121353857Y-27371285D01*
X121830047Y-27157000D02*
X122068142Y-27157000D01*
X121782428Y-27371285D02*
X121949095Y-26621285D01*
X122115761Y-27371285D01*
X110302380Y-29842857D02*
X110278571Y-29878571D01*
X110207142Y-29914285D01*
X110159523Y-29914285D01*
X110088095Y-29878571D01*
X110040476Y-29807142D01*
X110016666Y-29735714D01*
X109992857Y-29592857D01*
X109992857Y-29485714D01*
X110016666Y-29342857D01*
X110040476Y-29271428D01*
X110088095Y-29200000D01*
X110159523Y-29164285D01*
X110207142Y-29164285D01*
X110278571Y-29200000D01*
X110302380Y-29235714D01*
X110611904Y-29164285D02*
X110707142Y-29164285D01*
X110754761Y-29200000D01*
X110802380Y-29271428D01*
X110826190Y-29414285D01*
X110826190Y-29664285D01*
X110802380Y-29807142D01*
X110754761Y-29878571D01*
X110707142Y-29914285D01*
X110611904Y-29914285D01*
X110564285Y-29878571D01*
X110516666Y-29807142D01*
X110492857Y-29664285D01*
X110492857Y-29414285D01*
X110516666Y-29271428D01*
X110564285Y-29200000D01*
X110611904Y-29164285D01*
X111278571Y-29914285D02*
X111040476Y-29914285D01*
X111040476Y-29164285D01*
X111707142Y-29914285D02*
X111421428Y-29914285D01*
X111564285Y-29914285D02*
X111564285Y-29164285D01*
X111516666Y-29271428D01*
X111469047Y-29342857D01*
X111421428Y-29378571D01*
X120865761Y-29875571D02*
X120937190Y-29911285D01*
X121056238Y-29911285D01*
X121103857Y-29875571D01*
X121127666Y-29839857D01*
X121151476Y-29768428D01*
X121151476Y-29697000D01*
X121127666Y-29625571D01*
X121103857Y-29589857D01*
X121056238Y-29554142D01*
X120961000Y-29518428D01*
X120913380Y-29482714D01*
X120889571Y-29447000D01*
X120865761Y-29375571D01*
X120865761Y-29304142D01*
X120889571Y-29232714D01*
X120913380Y-29197000D01*
X120961000Y-29161285D01*
X121080047Y-29161285D01*
X121151476Y-29197000D01*
X121651476Y-29839857D02*
X121627666Y-29875571D01*
X121556238Y-29911285D01*
X121508619Y-29911285D01*
X121437190Y-29875571D01*
X121389571Y-29804142D01*
X121365761Y-29732714D01*
X121341952Y-29589857D01*
X121341952Y-29482714D01*
X121365761Y-29339857D01*
X121389571Y-29268428D01*
X121437190Y-29197000D01*
X121508619Y-29161285D01*
X121556238Y-29161285D01*
X121627666Y-29197000D01*
X121651476Y-29232714D01*
X122103857Y-29911285D02*
X121865761Y-29911285D01*
X121865761Y-29161285D01*
X110302380Y-32367857D02*
X110278571Y-32403571D01*
X110207142Y-32439285D01*
X110159523Y-32439285D01*
X110088095Y-32403571D01*
X110040476Y-32332142D01*
X110016666Y-32260714D01*
X109992857Y-32117857D01*
X109992857Y-32010714D01*
X110016666Y-31867857D01*
X110040476Y-31796428D01*
X110088095Y-31725000D01*
X110159523Y-31689285D01*
X110207142Y-31689285D01*
X110278571Y-31725000D01*
X110302380Y-31760714D01*
X110611904Y-31689285D02*
X110707142Y-31689285D01*
X110754761Y-31725000D01*
X110802380Y-31796428D01*
X110826190Y-31939285D01*
X110826190Y-32189285D01*
X110802380Y-32332142D01*
X110754761Y-32403571D01*
X110707142Y-32439285D01*
X110611904Y-32439285D01*
X110564285Y-32403571D01*
X110516666Y-32332142D01*
X110492857Y-32189285D01*
X110492857Y-31939285D01*
X110516666Y-31796428D01*
X110564285Y-31725000D01*
X110611904Y-31689285D01*
X111278571Y-32439285D02*
X111040476Y-32439285D01*
X111040476Y-31689285D01*
X111421428Y-31760714D02*
X111445238Y-31725000D01*
X111492857Y-31689285D01*
X111611904Y-31689285D01*
X111659523Y-31725000D01*
X111683333Y-31760714D01*
X111707142Y-31832142D01*
X111707142Y-31903571D01*
X111683333Y-32010714D01*
X111397619Y-32439285D01*
X111707142Y-32439285D01*
X120569047Y-32489285D02*
X120402380Y-32132142D01*
X120283333Y-32489285D02*
X120283333Y-31739285D01*
X120473809Y-31739285D01*
X120521428Y-31775000D01*
X120545238Y-31810714D01*
X120569047Y-31882142D01*
X120569047Y-31989285D01*
X120545238Y-32060714D01*
X120521428Y-32096428D01*
X120473809Y-32132142D01*
X120283333Y-32132142D01*
X120878571Y-31739285D02*
X120973809Y-31739285D01*
X121021428Y-31775000D01*
X121069047Y-31846428D01*
X121092857Y-31989285D01*
X121092857Y-32239285D01*
X121069047Y-32382142D01*
X121021428Y-32453571D01*
X120973809Y-32489285D01*
X120878571Y-32489285D01*
X120830952Y-32453571D01*
X120783333Y-32382142D01*
X120759523Y-32239285D01*
X120759523Y-31989285D01*
X120783333Y-31846428D01*
X120830952Y-31775000D01*
X120878571Y-31739285D01*
X121259523Y-31739285D02*
X121378571Y-32489285D01*
X121473809Y-31953571D01*
X121569047Y-32489285D01*
X121688095Y-31739285D01*
X121973809Y-31739285D02*
X122021428Y-31739285D01*
X122069047Y-31775000D01*
X122092857Y-31810714D01*
X122116666Y-31882142D01*
X122140476Y-32025000D01*
X122140476Y-32203571D01*
X122116666Y-32346428D01*
X122092857Y-32417857D01*
X122069047Y-32453571D01*
X122021428Y-32489285D01*
X121973809Y-32489285D01*
X121926190Y-32453571D01*
X121902380Y-32417857D01*
X121878571Y-32346428D01*
X121854761Y-32203571D01*
X121854761Y-32025000D01*
X121878571Y-31882142D01*
X121902380Y-31810714D01*
X121926190Y-31775000D01*
X121973809Y-31739285D01*
X110302380Y-34967857D02*
X110278571Y-35003571D01*
X110207142Y-35039285D01*
X110159523Y-35039285D01*
X110088095Y-35003571D01*
X110040476Y-34932142D01*
X110016666Y-34860714D01*
X109992857Y-34717857D01*
X109992857Y-34610714D01*
X110016666Y-34467857D01*
X110040476Y-34396428D01*
X110088095Y-34325000D01*
X110159523Y-34289285D01*
X110207142Y-34289285D01*
X110278571Y-34325000D01*
X110302380Y-34360714D01*
X110611904Y-34289285D02*
X110707142Y-34289285D01*
X110754761Y-34325000D01*
X110802380Y-34396428D01*
X110826190Y-34539285D01*
X110826190Y-34789285D01*
X110802380Y-34932142D01*
X110754761Y-35003571D01*
X110707142Y-35039285D01*
X110611904Y-35039285D01*
X110564285Y-35003571D01*
X110516666Y-34932142D01*
X110492857Y-34789285D01*
X110492857Y-34539285D01*
X110516666Y-34396428D01*
X110564285Y-34325000D01*
X110611904Y-34289285D01*
X111278571Y-35039285D02*
X111040476Y-35039285D01*
X111040476Y-34289285D01*
X111397619Y-34289285D02*
X111707142Y-34289285D01*
X111540476Y-34575000D01*
X111611904Y-34575000D01*
X111659523Y-34610714D01*
X111683333Y-34646428D01*
X111707142Y-34717857D01*
X111707142Y-34896428D01*
X111683333Y-34967857D01*
X111659523Y-35003571D01*
X111611904Y-35039285D01*
X111469047Y-35039285D01*
X111421428Y-35003571D01*
X111397619Y-34967857D01*
X121080047Y-24180500D02*
X121032428Y-24144785D01*
X120961000Y-24144785D01*
X120889571Y-24180500D01*
X120841952Y-24251928D01*
X120818142Y-24323357D01*
X120794333Y-24466214D01*
X120794333Y-24573357D01*
X120818142Y-24716214D01*
X120841952Y-24787642D01*
X120889571Y-24859071D01*
X120961000Y-24894785D01*
X121008619Y-24894785D01*
X121080047Y-24859071D01*
X121103857Y-24823357D01*
X121103857Y-24573357D01*
X121008619Y-24573357D01*
X121318142Y-24894785D02*
X121318142Y-24144785D01*
X121603857Y-24894785D01*
X121603857Y-24144785D01*
X121841952Y-24894785D02*
X121841952Y-24144785D01*
X121961000Y-24144785D01*
X122032428Y-24180500D01*
X122080047Y-24251928D01*
X122103857Y-24323357D01*
X122127666Y-24466214D01*
X122127666Y-24573357D01*
X122103857Y-24716214D01*
X122080047Y-24787642D01*
X122032428Y-24859071D01*
X121961000Y-24894785D01*
X121841952Y-24894785D01*
X109983333Y-24081285D02*
X110150000Y-24831285D01*
X110316666Y-24081285D01*
X110769047Y-24759857D02*
X110745238Y-24795571D01*
X110673809Y-24831285D01*
X110626190Y-24831285D01*
X110554761Y-24795571D01*
X110507142Y-24724142D01*
X110483333Y-24652714D01*
X110459523Y-24509857D01*
X110459523Y-24402714D01*
X110483333Y-24259857D01*
X110507142Y-24188428D01*
X110554761Y-24117000D01*
X110626190Y-24081285D01*
X110673809Y-24081285D01*
X110745238Y-24117000D01*
X110769047Y-24152714D01*
X111269047Y-24759857D02*
X111245238Y-24795571D01*
X111173809Y-24831285D01*
X111126190Y-24831285D01*
X111054761Y-24795571D01*
X111007142Y-24724142D01*
X110983333Y-24652714D01*
X110959523Y-24509857D01*
X110959523Y-24402714D01*
X110983333Y-24259857D01*
X111007142Y-24188428D01*
X111054761Y-24117000D01*
X111126190Y-24081285D01*
X111173809Y-24081285D01*
X111245238Y-24117000D01*
X111269047Y-24152714D01*
X121143547Y-21640500D02*
X121095928Y-21604785D01*
X121024500Y-21604785D01*
X120953071Y-21640500D01*
X120905452Y-21711928D01*
X120881642Y-21783357D01*
X120857833Y-21926214D01*
X120857833Y-22033357D01*
X120881642Y-22176214D01*
X120905452Y-22247642D01*
X120953071Y-22319071D01*
X121024500Y-22354785D01*
X121072119Y-22354785D01*
X121143547Y-22319071D01*
X121167357Y-22283357D01*
X121167357Y-22033357D01*
X121072119Y-22033357D01*
X121381642Y-22354785D02*
X121381642Y-21604785D01*
X121667357Y-22354785D01*
X121667357Y-21604785D01*
X121905452Y-22354785D02*
X121905452Y-21604785D01*
X122024500Y-21604785D01*
X122095928Y-21640500D01*
X122143547Y-21711928D01*
X122167357Y-21783357D01*
X122191166Y-21926214D01*
X122191166Y-22033357D01*
X122167357Y-22176214D01*
X122143547Y-22247642D01*
X122095928Y-22319071D01*
X122024500Y-22354785D01*
X121905452Y-22354785D01*
X110301190Y-22339285D02*
X110134523Y-21982142D01*
X110015476Y-22339285D02*
X110015476Y-21589285D01*
X110205952Y-21589285D01*
X110253571Y-21625000D01*
X110277380Y-21660714D01*
X110301190Y-21732142D01*
X110301190Y-21839285D01*
X110277380Y-21910714D01*
X110253571Y-21946428D01*
X110205952Y-21982142D01*
X110015476Y-21982142D01*
X110491666Y-22303571D02*
X110563095Y-22339285D01*
X110682142Y-22339285D01*
X110729761Y-22303571D01*
X110753571Y-22267857D01*
X110777380Y-22196428D01*
X110777380Y-22125000D01*
X110753571Y-22053571D01*
X110729761Y-22017857D01*
X110682142Y-21982142D01*
X110586904Y-21946428D01*
X110539285Y-21910714D01*
X110515476Y-21875000D01*
X110491666Y-21803571D01*
X110491666Y-21732142D01*
X110515476Y-21660714D01*
X110539285Y-21625000D01*
X110586904Y-21589285D01*
X110705952Y-21589285D01*
X110777380Y-21625000D01*
X110920238Y-21589285D02*
X111205952Y-21589285D01*
X111063095Y-22339285D02*
X111063095Y-21589285D01*
X120600000Y-19739285D02*
X120600000Y-18989285D01*
X120719047Y-18989285D01*
X120790476Y-19025000D01*
X120838095Y-19096428D01*
X120861904Y-19167857D01*
X120885714Y-19310714D01*
X120885714Y-19417857D01*
X120861904Y-19560714D01*
X120838095Y-19632142D01*
X120790476Y-19703571D01*
X120719047Y-19739285D01*
X120600000Y-19739285D01*
X121076190Y-19525000D02*
X121314285Y-19525000D01*
X121028571Y-19739285D02*
X121195238Y-18989285D01*
X121361904Y-19739285D01*
X121457142Y-18989285D02*
X121742857Y-18989285D01*
X121600000Y-19739285D02*
X121600000Y-18989285D01*
X121885714Y-19525000D02*
X122123809Y-19525000D01*
X121838095Y-19739285D02*
X122004761Y-18989285D01*
X122171428Y-19739285D01*
X110269047Y-19050000D02*
X110221428Y-19014285D01*
X110150000Y-19014285D01*
X110078571Y-19050000D01*
X110030952Y-19121428D01*
X110007142Y-19192857D01*
X109983333Y-19335714D01*
X109983333Y-19442857D01*
X110007142Y-19585714D01*
X110030952Y-19657142D01*
X110078571Y-19728571D01*
X110150000Y-19764285D01*
X110197619Y-19764285D01*
X110269047Y-19728571D01*
X110292857Y-19692857D01*
X110292857Y-19442857D01*
X110197619Y-19442857D01*
X110507142Y-19764285D02*
X110507142Y-19014285D01*
X110792857Y-19764285D01*
X110792857Y-19014285D01*
X111030952Y-19764285D02*
X111030952Y-19014285D01*
X111150000Y-19014285D01*
X111221428Y-19050000D01*
X111269047Y-19121428D01*
X111292857Y-19192857D01*
X111316666Y-19335714D01*
X111316666Y-19442857D01*
X111292857Y-19585714D01*
X111269047Y-19657142D01*
X111221428Y-19728571D01*
X111150000Y-19764285D01*
X111030952Y-19764285D01*
X121178571Y-17211285D02*
X120940476Y-17211285D01*
X120940476Y-16461285D01*
X121345238Y-16818428D02*
X121511904Y-16818428D01*
X121583333Y-17211285D02*
X121345238Y-17211285D01*
X121345238Y-16461285D01*
X121583333Y-16461285D01*
X121797619Y-17211285D02*
X121797619Y-16461285D01*
X121916666Y-16461285D01*
X121988095Y-16497000D01*
X122035714Y-16568428D01*
X122059523Y-16639857D01*
X122083333Y-16782714D01*
X122083333Y-16889857D01*
X122059523Y-17032714D01*
X122035714Y-17104142D01*
X121988095Y-17175571D01*
X121916666Y-17211285D01*
X121797619Y-17211285D01*
X110304761Y-17211285D02*
X110138095Y-16854142D01*
X110019047Y-17211285D02*
X110019047Y-16461285D01*
X110209523Y-16461285D01*
X110257142Y-16497000D01*
X110280952Y-16532714D01*
X110304761Y-16604142D01*
X110304761Y-16711285D01*
X110280952Y-16782714D01*
X110257142Y-16818428D01*
X110209523Y-16854142D01*
X110019047Y-16854142D01*
X110495238Y-16997000D02*
X110733333Y-16997000D01*
X110447619Y-17211285D02*
X110614285Y-16461285D01*
X110780952Y-17211285D01*
X110900000Y-16461285D02*
X111019047Y-17211285D01*
X111114285Y-16675571D01*
X111209523Y-17211285D01*
X111328571Y-16461285D01*
D12*
D14*
X110171428Y-14271428D02*
X110242857Y-14307142D01*
X110266666Y-14342857D01*
X110290476Y-14414285D01*
X110290476Y-14521428D01*
X110266666Y-14592857D01*
X110242857Y-14628571D01*
X110195238Y-14664285D01*
X110004761Y-14664285D01*
X110004761Y-13914285D01*
X110171428Y-13914285D01*
X110219047Y-13950000D01*
X110242857Y-13985714D01*
X110266666Y-14057142D01*
X110266666Y-14128571D01*
X110242857Y-14200000D01*
X110219047Y-14235714D01*
X110171428Y-14271428D01*
X110004761Y-14271428D01*
X110480952Y-14450000D02*
X110719047Y-14450000D01*
X110433333Y-14664285D02*
X110600000Y-13914285D01*
X110766666Y-14664285D01*
X110861904Y-13914285D02*
X111147619Y-13914285D01*
X111004761Y-14664285D02*
X111004761Y-13914285D01*
X111314285Y-14378571D02*
X111695238Y-14378571D01*
X111504761Y-14664285D02*
X111504761Y-14092857D01*
X120621428Y-14278428D02*
X120692857Y-14314142D01*
X120716666Y-14349857D01*
X120740476Y-14421285D01*
X120740476Y-14528428D01*
X120716666Y-14599857D01*
X120692857Y-14635571D01*
X120645238Y-14671285D01*
X120454761Y-14671285D01*
X120454761Y-13921285D01*
X120621428Y-13921285D01*
X120669047Y-13957000D01*
X120692857Y-13992714D01*
X120716666Y-14064142D01*
X120716666Y-14135571D01*
X120692857Y-14207000D01*
X120669047Y-14242714D01*
X120621428Y-14278428D01*
X120454761Y-14278428D01*
X120930952Y-14457000D02*
X121169047Y-14457000D01*
X120883333Y-14671285D02*
X121050000Y-13921285D01*
X121216666Y-14671285D01*
X121311904Y-13921285D02*
X121597619Y-13921285D01*
X121454761Y-14671285D02*
X121454761Y-13921285D01*
X121764285Y-14385571D02*
X122145238Y-14385571D01*
D12*
X114547619Y-46552380D02*
X114738095Y-46552380D01*
X114833333Y-46600000D01*
X114928571Y-46695238D01*
X114976190Y-46885714D01*
X114976190Y-47219047D01*
X114928571Y-47409523D01*
X114833333Y-47504761D01*
X114738095Y-47552380D01*
X114547619Y-47552380D01*
X114452380Y-47504761D01*
X114357142Y-47409523D01*
X114309523Y-47219047D01*
X114309523Y-46885714D01*
X114357142Y-46695238D01*
X114452380Y-46600000D01*
X114547619Y-46552380D01*
X115880952Y-47552380D02*
X115404761Y-47552380D01*
X115404761Y-46552380D01*
X116214285Y-47028571D02*
X116547619Y-47028571D01*
X116690476Y-47552380D02*
X116214285Y-47552380D01*
X116214285Y-46552380D01*
X116690476Y-46552380D01*
X117119047Y-47552380D02*
X117119047Y-46552380D01*
X117357142Y-46552380D01*
X117500000Y-46600000D01*
X117595238Y-46695238D01*
X117642857Y-46790476D01*
X117690476Y-46980952D01*
X117690476Y-47123809D01*
X117642857Y-47314285D01*
X117595238Y-47409523D01*
X117500000Y-47504761D01*
X117357142Y-47552380D01*
X117119047Y-47552380D01*
M02*
