G04 #@! TF.GenerationSoftware,KiCad,Pcbnew,(5.1.5)-3*
G04 #@! TF.CreationDate,2021-03-06T01:57:34+09:00*
G04 #@! TF.ProjectId,Getta25,47657474-6132-4352-9e6b-696361645f70,rev?*
G04 #@! TF.SameCoordinates,Original*
G04 #@! TF.FileFunction,Legend,Top*
G04 #@! TF.FilePolarity,Positive*
%FSLAX46Y46*%
G04 Gerber Fmt 4.6, Leading zero omitted, Abs format (unit mm)*
G04 Created by KiCad (PCBNEW (5.1.5)-3) date 2021-03-06 01:57:34*
%MOMM*%
%LPD*%
G04 APERTURE LIST*
%ADD10C,0.300000*%
G04 APERTURE END LIST*
D10*
X60200000Y22521428D02*
X60485714Y22521428D01*
X60628571Y22450000D01*
X60771428Y22307142D01*
X60842857Y22021428D01*
X60842857Y21521428D01*
X60771428Y21235714D01*
X60628571Y21092857D01*
X60485714Y21021428D01*
X60200000Y21021428D01*
X60057142Y21092857D01*
X59914285Y21235714D01*
X59842857Y21521428D01*
X59842857Y22021428D01*
X59914285Y22307142D01*
X60057142Y22450000D01*
X60200000Y22521428D01*
X61485714Y22021428D02*
X61485714Y21021428D01*
X61485714Y21878571D02*
X61557142Y21950000D01*
X61700000Y22021428D01*
X61914285Y22021428D01*
X62057142Y21950000D01*
X62128571Y21807142D01*
X62128571Y21021428D01*
X63914285Y22592857D02*
X62628571Y20664285D01*
X64700000Y22521428D02*
X64985714Y22521428D01*
X65128571Y22450000D01*
X65271428Y22307142D01*
X65342857Y22021428D01*
X65342857Y21521428D01*
X65271428Y21235714D01*
X65128571Y21092857D01*
X64985714Y21021428D01*
X64700000Y21021428D01*
X64557142Y21092857D01*
X64414285Y21235714D01*
X64342857Y21521428D01*
X64342857Y22021428D01*
X64414285Y22307142D01*
X64557142Y22450000D01*
X64700000Y22521428D01*
X65771428Y22021428D02*
X66342857Y22021428D01*
X65985714Y21021428D02*
X65985714Y22307142D01*
X66057142Y22450000D01*
X66200000Y22521428D01*
X66342857Y22521428D01*
X66628571Y22021428D02*
X67200000Y22021428D01*
X66842857Y21021428D02*
X66842857Y22307142D01*
X66914285Y22450000D01*
X67057142Y22521428D01*
X67200000Y22521428D01*
M02*
