G04 #@! TF.GenerationSoftware,KiCad,Pcbnew,(5.1.5)-3*
G04 #@! TF.CreationDate,2021-03-06T02:00:36+09:00*
G04 #@! TF.ProjectId,Getta25,47657474-6132-4352-9e6b-696361645f70,rev?*
G04 #@! TF.SameCoordinates,Original*
G04 #@! TF.FileFunction,Soldermask,Top*
G04 #@! TF.FilePolarity,Negative*
%FSLAX46Y46*%
G04 Gerber Fmt 4.6, Leading zero omitted, Abs format (unit mm)*
G04 Created by KiCad (PCBNEW (5.1.5)-3) date 2021-03-06 02:00:36*
%MOMM*%
%LPD*%
G04 APERTURE LIST*
%ADD10C,0.010000*%
%ADD11C,0.100000*%
G04 APERTURE END LIST*
D10*
G36*
X59362991Y-11697781D02*
G01*
X59461286Y-11698448D01*
X59543038Y-11699653D01*
X59603281Y-11701426D01*
X59637048Y-11703793D01*
X59642413Y-11705169D01*
X59646713Y-11725141D01*
X59651595Y-11773688D01*
X59656803Y-11845528D01*
X59662081Y-11935381D01*
X59667173Y-12037965D01*
X59671824Y-12147999D01*
X59675778Y-12260202D01*
X59678779Y-12369291D01*
X59680571Y-12469988D01*
X59680840Y-12498491D01*
X59680095Y-12580970D01*
X59675894Y-12636167D01*
X59667369Y-12670564D01*
X59655390Y-12688991D01*
X59641134Y-12698534D01*
X59617154Y-12705472D01*
X59578751Y-12710146D01*
X59521230Y-12712898D01*
X59439892Y-12714069D01*
X59330040Y-12713999D01*
X59312490Y-12713912D01*
X59209562Y-12712763D01*
X59115941Y-12710595D01*
X59037851Y-12707642D01*
X58981516Y-12704136D01*
X58953866Y-12700518D01*
X58933227Y-12692689D01*
X58920053Y-12678296D01*
X58912000Y-12650109D01*
X58906726Y-12600901D01*
X58903066Y-12543844D01*
X58896262Y-12469378D01*
X58886133Y-12410221D01*
X58874218Y-12374910D01*
X58872079Y-12371837D01*
X58830361Y-12342319D01*
X58761165Y-12317268D01*
X58670796Y-12298735D01*
X58632261Y-12293832D01*
X58539000Y-12283800D01*
X58534366Y-12002132D01*
X58533094Y-11894871D01*
X58533533Y-11816998D01*
X58535975Y-11764065D01*
X58540714Y-11731623D01*
X58548041Y-11715223D01*
X58553470Y-11711355D01*
X58577135Y-11708445D01*
X58628960Y-11705820D01*
X58703978Y-11703507D01*
X58797223Y-11701536D01*
X58903726Y-11699933D01*
X59018521Y-11698728D01*
X59136642Y-11697949D01*
X59253121Y-11697624D01*
X59362991Y-11697781D01*
G37*
X59362991Y-11697781D02*
X59461286Y-11698448D01*
X59543038Y-11699653D01*
X59603281Y-11701426D01*
X59637048Y-11703793D01*
X59642413Y-11705169D01*
X59646713Y-11725141D01*
X59651595Y-11773688D01*
X59656803Y-11845528D01*
X59662081Y-11935381D01*
X59667173Y-12037965D01*
X59671824Y-12147999D01*
X59675778Y-12260202D01*
X59678779Y-12369291D01*
X59680571Y-12469988D01*
X59680840Y-12498491D01*
X59680095Y-12580970D01*
X59675894Y-12636167D01*
X59667369Y-12670564D01*
X59655390Y-12688991D01*
X59641134Y-12698534D01*
X59617154Y-12705472D01*
X59578751Y-12710146D01*
X59521230Y-12712898D01*
X59439892Y-12714069D01*
X59330040Y-12713999D01*
X59312490Y-12713912D01*
X59209562Y-12712763D01*
X59115941Y-12710595D01*
X59037851Y-12707642D01*
X58981516Y-12704136D01*
X58953866Y-12700518D01*
X58933227Y-12692689D01*
X58920053Y-12678296D01*
X58912000Y-12650109D01*
X58906726Y-12600901D01*
X58903066Y-12543844D01*
X58896262Y-12469378D01*
X58886133Y-12410221D01*
X58874218Y-12374910D01*
X58872079Y-12371837D01*
X58830361Y-12342319D01*
X58761165Y-12317268D01*
X58670796Y-12298735D01*
X58632261Y-12293832D01*
X58539000Y-12283800D01*
X58534366Y-12002132D01*
X58533094Y-11894871D01*
X58533533Y-11816998D01*
X58535975Y-11764065D01*
X58540714Y-11731623D01*
X58548041Y-11715223D01*
X58553470Y-11711355D01*
X58577135Y-11708445D01*
X58628960Y-11705820D01*
X58703978Y-11703507D01*
X58797223Y-11701536D01*
X58903726Y-11699933D01*
X59018521Y-11698728D01*
X59136642Y-11697949D01*
X59253121Y-11697624D01*
X59362991Y-11697781D01*
G36*
X53100075Y-11556268D02*
G01*
X53196608Y-11557945D01*
X53277309Y-11560509D01*
X53336557Y-11563771D01*
X53368733Y-11567543D01*
X53371507Y-11568375D01*
X53379436Y-11573106D01*
X53385840Y-11582295D01*
X53390843Y-11599166D01*
X53394569Y-11626942D01*
X53397144Y-11668846D01*
X53398691Y-11728101D01*
X53399335Y-11807931D01*
X53399201Y-11911559D01*
X53398415Y-12042207D01*
X53397099Y-12203100D01*
X53396907Y-12225170D01*
X53395281Y-12392826D01*
X53393530Y-12529704D01*
X53391510Y-12638891D01*
X53389075Y-12723477D01*
X53386079Y-12786549D01*
X53382378Y-12831197D01*
X53377826Y-12860508D01*
X53372278Y-12877570D01*
X53365866Y-12885303D01*
X53342807Y-12889343D01*
X53289239Y-12892957D01*
X53208516Y-12896057D01*
X53103994Y-12898556D01*
X52979029Y-12900365D01*
X52836976Y-12901397D01*
X52743035Y-12901608D01*
X52584488Y-12901576D01*
X52456476Y-12901223D01*
X52355667Y-12900389D01*
X52278730Y-12898911D01*
X52222332Y-12896631D01*
X52183142Y-12893386D01*
X52157828Y-12889018D01*
X52143060Y-12883365D01*
X52135505Y-12876266D01*
X52133435Y-12872233D01*
X52129789Y-12846950D01*
X52126579Y-12793313D01*
X52123980Y-12716832D01*
X52122166Y-12623021D01*
X52121311Y-12517390D01*
X52121267Y-12487000D01*
X52121267Y-12131400D01*
X52317558Y-12126653D01*
X52401856Y-12124310D01*
X52459510Y-12121025D01*
X52497737Y-12115150D01*
X52523752Y-12105041D01*
X52544772Y-12089053D01*
X52563091Y-12070660D01*
X52582934Y-12048496D01*
X52597159Y-12025866D01*
X52607289Y-11996262D01*
X52614844Y-11953174D01*
X52621346Y-11890095D01*
X52628316Y-11800517D01*
X52629267Y-11787541D01*
X52646200Y-11555667D01*
X52993333Y-11555667D01*
X53100075Y-11556268D01*
G37*
X53100075Y-11556268D02*
X53196608Y-11557945D01*
X53277309Y-11560509D01*
X53336557Y-11563771D01*
X53368733Y-11567543D01*
X53371507Y-11568375D01*
X53379436Y-11573106D01*
X53385840Y-11582295D01*
X53390843Y-11599166D01*
X53394569Y-11626942D01*
X53397144Y-11668846D01*
X53398691Y-11728101D01*
X53399335Y-11807931D01*
X53399201Y-11911559D01*
X53398415Y-12042207D01*
X53397099Y-12203100D01*
X53396907Y-12225170D01*
X53395281Y-12392826D01*
X53393530Y-12529704D01*
X53391510Y-12638891D01*
X53389075Y-12723477D01*
X53386079Y-12786549D01*
X53382378Y-12831197D01*
X53377826Y-12860508D01*
X53372278Y-12877570D01*
X53365866Y-12885303D01*
X53342807Y-12889343D01*
X53289239Y-12892957D01*
X53208516Y-12896057D01*
X53103994Y-12898556D01*
X52979029Y-12900365D01*
X52836976Y-12901397D01*
X52743035Y-12901608D01*
X52584488Y-12901576D01*
X52456476Y-12901223D01*
X52355667Y-12900389D01*
X52278730Y-12898911D01*
X52222332Y-12896631D01*
X52183142Y-12893386D01*
X52157828Y-12889018D01*
X52143060Y-12883365D01*
X52135505Y-12876266D01*
X52133435Y-12872233D01*
X52129789Y-12846950D01*
X52126579Y-12793313D01*
X52123980Y-12716832D01*
X52122166Y-12623021D01*
X52121311Y-12517390D01*
X52121267Y-12487000D01*
X52121267Y-12131400D01*
X52317558Y-12126653D01*
X52401856Y-12124310D01*
X52459510Y-12121025D01*
X52497737Y-12115150D01*
X52523752Y-12105041D01*
X52544772Y-12089053D01*
X52563091Y-12070660D01*
X52582934Y-12048496D01*
X52597159Y-12025866D01*
X52607289Y-11996262D01*
X52614844Y-11953174D01*
X52621346Y-11890095D01*
X52628316Y-11800517D01*
X52629267Y-11787541D01*
X52646200Y-11555667D01*
X52993333Y-11555667D01*
X53100075Y-11556268D01*
G36*
X60901516Y-11667289D02*
G01*
X60993100Y-11670142D01*
X61094646Y-11674524D01*
X61200573Y-11680119D01*
X61305295Y-11686609D01*
X61403229Y-11693680D01*
X61488791Y-11701014D01*
X61556397Y-11708295D01*
X61600464Y-11715206D01*
X61615232Y-11720537D01*
X61618284Y-11741774D01*
X61621110Y-11793038D01*
X61623630Y-11870490D01*
X61625765Y-11970291D01*
X61627434Y-12088602D01*
X61628559Y-12221583D01*
X61629058Y-12365396D01*
X61629074Y-12386397D01*
X61628948Y-12556600D01*
X61628347Y-12696009D01*
X61627165Y-12807692D01*
X61625293Y-12894720D01*
X61622624Y-12960162D01*
X61619049Y-13007089D01*
X61614462Y-13038569D01*
X61608755Y-13057673D01*
X61605312Y-13063730D01*
X61598050Y-13071883D01*
X61587200Y-13078606D01*
X61569599Y-13084067D01*
X61542083Y-13088435D01*
X61501490Y-13091881D01*
X61444656Y-13094573D01*
X61368418Y-13096680D01*
X61269613Y-13098371D01*
X61145079Y-13099815D01*
X60991652Y-13101182D01*
X60889629Y-13101995D01*
X60739717Y-13102867D01*
X60600381Y-13103104D01*
X60475254Y-13102743D01*
X60367967Y-13101820D01*
X60282154Y-13100372D01*
X60221446Y-13098435D01*
X60189477Y-13096045D01*
X60185517Y-13094940D01*
X60181988Y-13075149D01*
X60178848Y-13026385D01*
X60176245Y-12953539D01*
X60174329Y-12861504D01*
X60173250Y-12755173D01*
X60173067Y-12687378D01*
X60173067Y-12292267D01*
X60360174Y-12292267D01*
X60462597Y-12290141D01*
X60538234Y-12282394D01*
X60593977Y-12266976D01*
X60636718Y-12241834D01*
X60673350Y-12204917D01*
X60679571Y-12197188D01*
X60693810Y-12176172D01*
X60703643Y-12151381D01*
X60709871Y-12116475D01*
X60713292Y-12065119D01*
X60714708Y-11990974D01*
X60714933Y-11916918D01*
X60715435Y-11821558D01*
X60717331Y-11754806D01*
X60721208Y-11711415D01*
X60727652Y-11686136D01*
X60737248Y-11673721D01*
X60742383Y-11671071D01*
X60770574Y-11667437D01*
X60825480Y-11666282D01*
X60901516Y-11667289D01*
G37*
X60901516Y-11667289D02*
X60993100Y-11670142D01*
X61094646Y-11674524D01*
X61200573Y-11680119D01*
X61305295Y-11686609D01*
X61403229Y-11693680D01*
X61488791Y-11701014D01*
X61556397Y-11708295D01*
X61600464Y-11715206D01*
X61615232Y-11720537D01*
X61618284Y-11741774D01*
X61621110Y-11793038D01*
X61623630Y-11870490D01*
X61625765Y-11970291D01*
X61627434Y-12088602D01*
X61628559Y-12221583D01*
X61629058Y-12365396D01*
X61629074Y-12386397D01*
X61628948Y-12556600D01*
X61628347Y-12696009D01*
X61627165Y-12807692D01*
X61625293Y-12894720D01*
X61622624Y-12960162D01*
X61619049Y-13007089D01*
X61614462Y-13038569D01*
X61608755Y-13057673D01*
X61605312Y-13063730D01*
X61598050Y-13071883D01*
X61587200Y-13078606D01*
X61569599Y-13084067D01*
X61542083Y-13088435D01*
X61501490Y-13091881D01*
X61444656Y-13094573D01*
X61368418Y-13096680D01*
X61269613Y-13098371D01*
X61145079Y-13099815D01*
X60991652Y-13101182D01*
X60889629Y-13101995D01*
X60739717Y-13102867D01*
X60600381Y-13103104D01*
X60475254Y-13102743D01*
X60367967Y-13101820D01*
X60282154Y-13100372D01*
X60221446Y-13098435D01*
X60189477Y-13096045D01*
X60185517Y-13094940D01*
X60181988Y-13075149D01*
X60178848Y-13026385D01*
X60176245Y-12953539D01*
X60174329Y-12861504D01*
X60173250Y-12755173D01*
X60173067Y-12687378D01*
X60173067Y-12292267D01*
X60360174Y-12292267D01*
X60462597Y-12290141D01*
X60538234Y-12282394D01*
X60593977Y-12266976D01*
X60636718Y-12241834D01*
X60673350Y-12204917D01*
X60679571Y-12197188D01*
X60693810Y-12176172D01*
X60703643Y-12151381D01*
X60709871Y-12116475D01*
X60713292Y-12065119D01*
X60714708Y-11990974D01*
X60714933Y-11916918D01*
X60715435Y-11821558D01*
X60717331Y-11754806D01*
X60721208Y-11711415D01*
X60727652Y-11686136D01*
X60737248Y-11673721D01*
X60742383Y-11671071D01*
X60770574Y-11667437D01*
X60825480Y-11666282D01*
X60901516Y-11667289D01*
G36*
X53788478Y-11618585D02*
G01*
X53884603Y-11619999D01*
X54005496Y-11622468D01*
X54154155Y-11625948D01*
X54333576Y-11630396D01*
X54339821Y-11630553D01*
X55100016Y-11649655D01*
X55176975Y-11694412D01*
X55223752Y-11726494D01*
X55284094Y-11774643D01*
X55347955Y-11830649D01*
X55376048Y-11857081D01*
X55440511Y-11922526D01*
X55486170Y-11978535D01*
X55521047Y-12036335D01*
X55550948Y-12101789D01*
X55586657Y-12194042D01*
X55613678Y-12281372D01*
X55633130Y-12370960D01*
X55646133Y-12469989D01*
X55653804Y-12585640D01*
X55657265Y-12725097D01*
X55657712Y-12786878D01*
X55657400Y-12887380D01*
X55655824Y-12976189D01*
X55653188Y-13047767D01*
X55649696Y-13096573D01*
X55645553Y-13117068D01*
X55645543Y-13117078D01*
X55624511Y-13121827D01*
X55575656Y-13125783D01*
X55505015Y-13128887D01*
X55418624Y-13131080D01*
X55322520Y-13132305D01*
X55222739Y-13132503D01*
X55125317Y-13131616D01*
X55036291Y-13129584D01*
X54961696Y-13126350D01*
X54928761Y-13124017D01*
X54866534Y-13116636D01*
X54817418Y-13107064D01*
X54791391Y-13097284D01*
X54790650Y-13096600D01*
X54783685Y-13073756D01*
X54776974Y-13024530D01*
X54771324Y-12956404D01*
X54767808Y-12884933D01*
X54756353Y-12741112D01*
X54732864Y-12628503D01*
X54697175Y-12546601D01*
X54649116Y-12494897D01*
X54635685Y-12486906D01*
X54588556Y-12468358D01*
X54524639Y-12453687D01*
X54440730Y-12442604D01*
X54333624Y-12434819D01*
X54200117Y-12430044D01*
X54037006Y-12427990D01*
X53980909Y-12427861D01*
X53852704Y-12427529D01*
X53754194Y-12426449D01*
X53681213Y-12424355D01*
X53629593Y-12420982D01*
X53595166Y-12416063D01*
X53573766Y-12409333D01*
X53561809Y-12401124D01*
X53552678Y-12387431D01*
X53545846Y-12364173D01*
X53541002Y-12326928D01*
X53537833Y-12271274D01*
X53536029Y-12192787D01*
X53535278Y-12087048D01*
X53535200Y-12023360D01*
X53535798Y-11894787D01*
X53537728Y-11796559D01*
X53541195Y-11725174D01*
X53546402Y-11677129D01*
X53553553Y-11648920D01*
X53557412Y-11641829D01*
X53564062Y-11634655D01*
X53574504Y-11628837D01*
X53591735Y-11624332D01*
X53618751Y-11621098D01*
X53658549Y-11619091D01*
X53714126Y-11618267D01*
X53788478Y-11618585D01*
G37*
X53788478Y-11618585D02*
X53884603Y-11619999D01*
X54005496Y-11622468D01*
X54154155Y-11625948D01*
X54333576Y-11630396D01*
X54339821Y-11630553D01*
X55100016Y-11649655D01*
X55176975Y-11694412D01*
X55223752Y-11726494D01*
X55284094Y-11774643D01*
X55347955Y-11830649D01*
X55376048Y-11857081D01*
X55440511Y-11922526D01*
X55486170Y-11978535D01*
X55521047Y-12036335D01*
X55550948Y-12101789D01*
X55586657Y-12194042D01*
X55613678Y-12281372D01*
X55633130Y-12370960D01*
X55646133Y-12469989D01*
X55653804Y-12585640D01*
X55657265Y-12725097D01*
X55657712Y-12786878D01*
X55657400Y-12887380D01*
X55655824Y-12976189D01*
X55653188Y-13047767D01*
X55649696Y-13096573D01*
X55645553Y-13117068D01*
X55645543Y-13117078D01*
X55624511Y-13121827D01*
X55575656Y-13125783D01*
X55505015Y-13128887D01*
X55418624Y-13131080D01*
X55322520Y-13132305D01*
X55222739Y-13132503D01*
X55125317Y-13131616D01*
X55036291Y-13129584D01*
X54961696Y-13126350D01*
X54928761Y-13124017D01*
X54866534Y-13116636D01*
X54817418Y-13107064D01*
X54791391Y-13097284D01*
X54790650Y-13096600D01*
X54783685Y-13073756D01*
X54776974Y-13024530D01*
X54771324Y-12956404D01*
X54767808Y-12884933D01*
X54756353Y-12741112D01*
X54732864Y-12628503D01*
X54697175Y-12546601D01*
X54649116Y-12494897D01*
X54635685Y-12486906D01*
X54588556Y-12468358D01*
X54524639Y-12453687D01*
X54440730Y-12442604D01*
X54333624Y-12434819D01*
X54200117Y-12430044D01*
X54037006Y-12427990D01*
X53980909Y-12427861D01*
X53852704Y-12427529D01*
X53754194Y-12426449D01*
X53681213Y-12424355D01*
X53629593Y-12420982D01*
X53595166Y-12416063D01*
X53573766Y-12409333D01*
X53561809Y-12401124D01*
X53552678Y-12387431D01*
X53545846Y-12364173D01*
X53541002Y-12326928D01*
X53537833Y-12271274D01*
X53536029Y-12192787D01*
X53535278Y-12087048D01*
X53535200Y-12023360D01*
X53535798Y-11894787D01*
X53537728Y-11796559D01*
X53541195Y-11725174D01*
X53546402Y-11677129D01*
X53553553Y-11648920D01*
X53557412Y-11641829D01*
X53564062Y-11634655D01*
X53574504Y-11628837D01*
X53591735Y-11624332D01*
X53618751Y-11621098D01*
X53658549Y-11619091D01*
X53714126Y-11618267D01*
X53788478Y-11618585D01*
G36*
X65765276Y-13243095D02*
G01*
X65814570Y-13245414D01*
X65845899Y-13250288D01*
X65864559Y-13258173D01*
X65875255Y-13268707D01*
X65882968Y-13295788D01*
X65889187Y-13348728D01*
X65893741Y-13419547D01*
X65896458Y-13500263D01*
X65897166Y-13582895D01*
X65895693Y-13659462D01*
X65891867Y-13721983D01*
X65885860Y-13761234D01*
X65881028Y-13775318D01*
X65871929Y-13785418D01*
X65853556Y-13792197D01*
X65820902Y-13796315D01*
X65768961Y-13798436D01*
X65692725Y-13799221D01*
X65597805Y-13799334D01*
X65319961Y-13799334D01*
X65324614Y-13524167D01*
X65329266Y-13249000D01*
X65591622Y-13244304D01*
X65692725Y-13242877D01*
X65765276Y-13243095D01*
G37*
X65765276Y-13243095D02*
X65814570Y-13245414D01*
X65845899Y-13250288D01*
X65864559Y-13258173D01*
X65875255Y-13268707D01*
X65882968Y-13295788D01*
X65889187Y-13348728D01*
X65893741Y-13419547D01*
X65896458Y-13500263D01*
X65897166Y-13582895D01*
X65895693Y-13659462D01*
X65891867Y-13721983D01*
X65885860Y-13761234D01*
X65881028Y-13775318D01*
X65871929Y-13785418D01*
X65853556Y-13792197D01*
X65820902Y-13796315D01*
X65768961Y-13798436D01*
X65692725Y-13799221D01*
X65597805Y-13799334D01*
X65319961Y-13799334D01*
X65324614Y-13524167D01*
X65329266Y-13249000D01*
X65591622Y-13244304D01*
X65692725Y-13242877D01*
X65765276Y-13243095D01*
G36*
X65152050Y-12751156D02*
G01*
X65200573Y-12753876D01*
X65231824Y-12759454D01*
X65251322Y-12768335D01*
X65259141Y-12774893D01*
X65267214Y-12786198D01*
X65273579Y-12804612D01*
X65278433Y-12833863D01*
X65281973Y-12877680D01*
X65284395Y-12939793D01*
X65285897Y-13023929D01*
X65286676Y-13133818D01*
X65286928Y-13273188D01*
X65286933Y-13301010D01*
X65286933Y-13799334D01*
X64736068Y-13799334D01*
X64578427Y-13799067D01*
X64451717Y-13798193D01*
X64353010Y-13796596D01*
X64279375Y-13794160D01*
X64227881Y-13790773D01*
X64195597Y-13786318D01*
X64179594Y-13780682D01*
X64176808Y-13777456D01*
X64174194Y-13753623D01*
X64172528Y-13702358D01*
X64171894Y-13630084D01*
X64172376Y-13543223D01*
X64173106Y-13493823D01*
X64177800Y-13232067D01*
X64409855Y-13223600D01*
X64522989Y-13217842D01*
X64603558Y-13210037D01*
X64651073Y-13200244D01*
X64663118Y-13193857D01*
X64673960Y-13166476D01*
X64683721Y-13109725D01*
X64691736Y-13028099D01*
X64694960Y-12977937D01*
X64700215Y-12899755D01*
X64706465Y-12834237D01*
X64712895Y-12788654D01*
X64718227Y-12770614D01*
X64738802Y-12765798D01*
X64786942Y-12761060D01*
X64856346Y-12756833D01*
X64940715Y-12753553D01*
X64981104Y-12752517D01*
X65080733Y-12750852D01*
X65152050Y-12751156D01*
G37*
X65152050Y-12751156D02*
X65200573Y-12753876D01*
X65231824Y-12759454D01*
X65251322Y-12768335D01*
X65259141Y-12774893D01*
X65267214Y-12786198D01*
X65273579Y-12804612D01*
X65278433Y-12833863D01*
X65281973Y-12877680D01*
X65284395Y-12939793D01*
X65285897Y-13023929D01*
X65286676Y-13133818D01*
X65286928Y-13273188D01*
X65286933Y-13301010D01*
X65286933Y-13799334D01*
X64736068Y-13799334D01*
X64578427Y-13799067D01*
X64451717Y-13798193D01*
X64353010Y-13796596D01*
X64279375Y-13794160D01*
X64227881Y-13790773D01*
X64195597Y-13786318D01*
X64179594Y-13780682D01*
X64176808Y-13777456D01*
X64174194Y-13753623D01*
X64172528Y-13702358D01*
X64171894Y-13630084D01*
X64172376Y-13543223D01*
X64173106Y-13493823D01*
X64177800Y-13232067D01*
X64409855Y-13223600D01*
X64522989Y-13217842D01*
X64603558Y-13210037D01*
X64651073Y-13200244D01*
X64663118Y-13193857D01*
X64673960Y-13166476D01*
X64683721Y-13109725D01*
X64691736Y-13028099D01*
X64694960Y-12977937D01*
X64700215Y-12899755D01*
X64706465Y-12834237D01*
X64712895Y-12788654D01*
X64718227Y-12770614D01*
X64738802Y-12765798D01*
X64786942Y-12761060D01*
X64856346Y-12756833D01*
X64940715Y-12753553D01*
X64981104Y-12752517D01*
X65080733Y-12750852D01*
X65152050Y-12751156D01*
G36*
X54901277Y-13260947D02*
G01*
X55057024Y-13261537D01*
X55863533Y-13265934D01*
X55868068Y-13676982D01*
X55869172Y-13811885D01*
X55869057Y-13916231D01*
X55867589Y-13993315D01*
X55864635Y-14046431D01*
X55860063Y-14078871D01*
X55853738Y-14093930D01*
X55851135Y-14095687D01*
X55830409Y-14097289D01*
X55779152Y-14098963D01*
X55700700Y-14100660D01*
X55598389Y-14102333D01*
X55475554Y-14103935D01*
X55335531Y-14105417D01*
X55181656Y-14106732D01*
X55017264Y-14107832D01*
X54992660Y-14107971D01*
X54796541Y-14108907D01*
X54631716Y-14109327D01*
X54495616Y-14109177D01*
X54385673Y-14108403D01*
X54299317Y-14106951D01*
X54233979Y-14104768D01*
X54187090Y-14101799D01*
X54156081Y-14097990D01*
X54138384Y-14093287D01*
X54132985Y-14089916D01*
X54125472Y-14075459D01*
X54119944Y-14046746D01*
X54116238Y-14000060D01*
X54114192Y-13931689D01*
X54113644Y-13837916D01*
X54114431Y-13715028D01*
X54114858Y-13675798D01*
X54119400Y-13284364D01*
X54184958Y-13270753D01*
X54214895Y-13268091D01*
X54275047Y-13265786D01*
X54361764Y-13263875D01*
X54471396Y-13262397D01*
X54600292Y-13261391D01*
X54744803Y-13260895D01*
X54901277Y-13260947D01*
G37*
X54901277Y-13260947D02*
X55057024Y-13261537D01*
X55863533Y-13265934D01*
X55868068Y-13676982D01*
X55869172Y-13811885D01*
X55869057Y-13916231D01*
X55867589Y-13993315D01*
X55864635Y-14046431D01*
X55860063Y-14078871D01*
X55853738Y-14093930D01*
X55851135Y-14095687D01*
X55830409Y-14097289D01*
X55779152Y-14098963D01*
X55700700Y-14100660D01*
X55598389Y-14102333D01*
X55475554Y-14103935D01*
X55335531Y-14105417D01*
X55181656Y-14106732D01*
X55017264Y-14107832D01*
X54992660Y-14107971D01*
X54796541Y-14108907D01*
X54631716Y-14109327D01*
X54495616Y-14109177D01*
X54385673Y-14108403D01*
X54299317Y-14106951D01*
X54233979Y-14104768D01*
X54187090Y-14101799D01*
X54156081Y-14097990D01*
X54138384Y-14093287D01*
X54132985Y-14089916D01*
X54125472Y-14075459D01*
X54119944Y-14046746D01*
X54116238Y-14000060D01*
X54114192Y-13931689D01*
X54113644Y-13837916D01*
X54114431Y-13715028D01*
X54114858Y-13675798D01*
X54119400Y-13284364D01*
X54184958Y-13270753D01*
X54214895Y-13268091D01*
X54275047Y-13265786D01*
X54361764Y-13263875D01*
X54471396Y-13262397D01*
X54600292Y-13261391D01*
X54744803Y-13260895D01*
X54901277Y-13260947D01*
G36*
X52749483Y-13155147D02*
G01*
X52856500Y-13156403D01*
X52956394Y-13158823D01*
X53043397Y-13162384D01*
X53111736Y-13167063D01*
X53155641Y-13172835D01*
X53168172Y-13177034D01*
X53176485Y-13185596D01*
X53182971Y-13200164D01*
X53187801Y-13224450D01*
X53191152Y-13262170D01*
X53193196Y-13317037D01*
X53194107Y-13392767D01*
X53194061Y-13493074D01*
X53193230Y-13621671D01*
X53192575Y-13697734D01*
X53188066Y-14197267D01*
X52942533Y-14208255D01*
X52833545Y-14213116D01*
X52716520Y-14218308D01*
X52605247Y-14223222D01*
X52513517Y-14227247D01*
X52510733Y-14227369D01*
X52432440Y-14230057D01*
X52365052Y-14231029D01*
X52316771Y-14230246D01*
X52297485Y-14228350D01*
X52287721Y-14221473D01*
X52280089Y-14203750D01*
X52274073Y-14170805D01*
X52269161Y-14118264D01*
X52264837Y-14041750D01*
X52260589Y-13936888D01*
X52259433Y-13904436D01*
X52255705Y-13786220D01*
X52252506Y-13662781D01*
X52250067Y-13544780D01*
X52248617Y-13442875D01*
X52248314Y-13389296D01*
X52248797Y-13303663D01*
X52250919Y-13245703D01*
X52255617Y-13209232D01*
X52263827Y-13188063D01*
X52276488Y-13176012D01*
X52281020Y-13173396D01*
X52309571Y-13167167D01*
X52365627Y-13162244D01*
X52443418Y-13158605D01*
X52537171Y-13156224D01*
X52641117Y-13155080D01*
X52749483Y-13155147D01*
G37*
X52749483Y-13155147D02*
X52856500Y-13156403D01*
X52956394Y-13158823D01*
X53043397Y-13162384D01*
X53111736Y-13167063D01*
X53155641Y-13172835D01*
X53168172Y-13177034D01*
X53176485Y-13185596D01*
X53182971Y-13200164D01*
X53187801Y-13224450D01*
X53191152Y-13262170D01*
X53193196Y-13317037D01*
X53194107Y-13392767D01*
X53194061Y-13493074D01*
X53193230Y-13621671D01*
X53192575Y-13697734D01*
X53188066Y-14197267D01*
X52942533Y-14208255D01*
X52833545Y-14213116D01*
X52716520Y-14218308D01*
X52605247Y-14223222D01*
X52513517Y-14227247D01*
X52510733Y-14227369D01*
X52432440Y-14230057D01*
X52365052Y-14231029D01*
X52316771Y-14230246D01*
X52297485Y-14228350D01*
X52287721Y-14221473D01*
X52280089Y-14203750D01*
X52274073Y-14170805D01*
X52269161Y-14118264D01*
X52264837Y-14041750D01*
X52260589Y-13936888D01*
X52259433Y-13904436D01*
X52255705Y-13786220D01*
X52252506Y-13662781D01*
X52250067Y-13544780D01*
X52248617Y-13442875D01*
X52248314Y-13389296D01*
X52248797Y-13303663D01*
X52250919Y-13245703D01*
X52255617Y-13209232D01*
X52263827Y-13188063D01*
X52276488Y-13176012D01*
X52281020Y-13173396D01*
X52309571Y-13167167D01*
X52365627Y-13162244D01*
X52443418Y-13158605D01*
X52537171Y-13156224D01*
X52641117Y-13155080D01*
X52749483Y-13155147D01*
G36*
X62670798Y-11851451D02*
G01*
X62826127Y-11852063D01*
X62979998Y-11853063D01*
X63128562Y-11854431D01*
X63267974Y-11856152D01*
X63394387Y-11858208D01*
X63503952Y-11860581D01*
X63592824Y-11863255D01*
X63657156Y-11866211D01*
X63693099Y-11869434D01*
X63698831Y-11870877D01*
X63709290Y-11877305D01*
X63717326Y-11886636D01*
X63723129Y-11902780D01*
X63726889Y-11929645D01*
X63728794Y-11971140D01*
X63729035Y-12031174D01*
X63727800Y-12113657D01*
X63725280Y-12222496D01*
X63721996Y-12348954D01*
X63718702Y-12469865D01*
X63715520Y-12579077D01*
X63712597Y-12672199D01*
X63710076Y-12744841D01*
X63708102Y-12792614D01*
X63706819Y-12811127D01*
X63706778Y-12811204D01*
X63689746Y-12812221D01*
X63642610Y-12813784D01*
X63569128Y-12815800D01*
X63473057Y-12818177D01*
X63358153Y-12820820D01*
X63228175Y-12823639D01*
X63086879Y-12826540D01*
X63079239Y-12826692D01*
X62454811Y-12839131D01*
X62461172Y-13856865D01*
X62467533Y-14874600D01*
X61975306Y-14879084D01*
X61849430Y-14879845D01*
X61734658Y-14879800D01*
X61635325Y-14879009D01*
X61555768Y-14877533D01*
X61500324Y-14875433D01*
X61473330Y-14872770D01*
X61471540Y-14872029D01*
X61469099Y-14853176D01*
X61466835Y-14803996D01*
X61464802Y-14728029D01*
X61463055Y-14628815D01*
X61461651Y-14509894D01*
X61460644Y-14374804D01*
X61460091Y-14227086D01*
X61460000Y-14135945D01*
X61460000Y-13411401D01*
X61523500Y-13401974D01*
X61622616Y-13384106D01*
X61700406Y-13363576D01*
X61751751Y-13341866D01*
X61764800Y-13332170D01*
X61771130Y-13321865D01*
X61776420Y-13302589D01*
X61780790Y-13271383D01*
X61784360Y-13225290D01*
X61787250Y-13161351D01*
X61789580Y-13076609D01*
X61791471Y-12968106D01*
X61793043Y-12832884D01*
X61794416Y-12667985D01*
X61794957Y-12589848D01*
X61799714Y-11872609D01*
X61837290Y-11862536D01*
X61865798Y-11859435D01*
X61923622Y-11856859D01*
X62006917Y-11854790D01*
X62111834Y-11853211D01*
X62234529Y-11852105D01*
X62371152Y-11851454D01*
X62517857Y-11851242D01*
X62670798Y-11851451D01*
G37*
X62670798Y-11851451D02*
X62826127Y-11852063D01*
X62979998Y-11853063D01*
X63128562Y-11854431D01*
X63267974Y-11856152D01*
X63394387Y-11858208D01*
X63503952Y-11860581D01*
X63592824Y-11863255D01*
X63657156Y-11866211D01*
X63693099Y-11869434D01*
X63698831Y-11870877D01*
X63709290Y-11877305D01*
X63717326Y-11886636D01*
X63723129Y-11902780D01*
X63726889Y-11929645D01*
X63728794Y-11971140D01*
X63729035Y-12031174D01*
X63727800Y-12113657D01*
X63725280Y-12222496D01*
X63721996Y-12348954D01*
X63718702Y-12469865D01*
X63715520Y-12579077D01*
X63712597Y-12672199D01*
X63710076Y-12744841D01*
X63708102Y-12792614D01*
X63706819Y-12811127D01*
X63706778Y-12811204D01*
X63689746Y-12812221D01*
X63642610Y-12813784D01*
X63569128Y-12815800D01*
X63473057Y-12818177D01*
X63358153Y-12820820D01*
X63228175Y-12823639D01*
X63086879Y-12826540D01*
X63079239Y-12826692D01*
X62454811Y-12839131D01*
X62461172Y-13856865D01*
X62467533Y-14874600D01*
X61975306Y-14879084D01*
X61849430Y-14879845D01*
X61734658Y-14879800D01*
X61635325Y-14879009D01*
X61555768Y-14877533D01*
X61500324Y-14875433D01*
X61473330Y-14872770D01*
X61471540Y-14872029D01*
X61469099Y-14853176D01*
X61466835Y-14803996D01*
X61464802Y-14728029D01*
X61463055Y-14628815D01*
X61461651Y-14509894D01*
X61460644Y-14374804D01*
X61460091Y-14227086D01*
X61460000Y-14135945D01*
X61460000Y-13411401D01*
X61523500Y-13401974D01*
X61622616Y-13384106D01*
X61700406Y-13363576D01*
X61751751Y-13341866D01*
X61764800Y-13332170D01*
X61771130Y-13321865D01*
X61776420Y-13302589D01*
X61780790Y-13271383D01*
X61784360Y-13225290D01*
X61787250Y-13161351D01*
X61789580Y-13076609D01*
X61791471Y-12968106D01*
X61793043Y-12832884D01*
X61794416Y-12667985D01*
X61794957Y-12589848D01*
X61799714Y-11872609D01*
X61837290Y-11862536D01*
X61865798Y-11859435D01*
X61923622Y-11856859D01*
X62006917Y-11854790D01*
X62111834Y-11853211D01*
X62234529Y-11852105D01*
X62371152Y-11851454D01*
X62517857Y-11851242D01*
X62670798Y-11851451D01*
G36*
X65034738Y-13867344D02*
G01*
X65118810Y-13869412D01*
X65192555Y-13873129D01*
X65248772Y-13878447D01*
X65280261Y-13885316D01*
X65283547Y-13887387D01*
X65288824Y-13909231D01*
X65293376Y-13960574D01*
X65297201Y-14037059D01*
X65300300Y-14134324D01*
X65302673Y-14248013D01*
X65304320Y-14373765D01*
X65305240Y-14507221D01*
X65305434Y-14644022D01*
X65304902Y-14779809D01*
X65303644Y-14910224D01*
X65301660Y-15030906D01*
X65298949Y-15137497D01*
X65295512Y-15225638D01*
X65291349Y-15290969D01*
X65286459Y-15329132D01*
X65283546Y-15336880D01*
X65258872Y-15345304D01*
X65208206Y-15351688D01*
X65138215Y-15356066D01*
X65055564Y-15358473D01*
X64966922Y-15358942D01*
X64878954Y-15357509D01*
X64798328Y-15354207D01*
X64731710Y-15349071D01*
X64685766Y-15342136D01*
X64667253Y-15333702D01*
X64665646Y-15312195D01*
X64664790Y-15260500D01*
X64664660Y-15182285D01*
X64665230Y-15081217D01*
X64666476Y-14960967D01*
X64668371Y-14825202D01*
X64670890Y-14677591D01*
X64672290Y-14604782D01*
X64675965Y-14428055D01*
X64679398Y-14282286D01*
X64682746Y-14164570D01*
X64686167Y-14072002D01*
X64689820Y-14001676D01*
X64693861Y-13950687D01*
X64698449Y-13916129D01*
X64703741Y-13895097D01*
X64709896Y-13884685D01*
X64711472Y-13883473D01*
X64739178Y-13876554D01*
X64792558Y-13871531D01*
X64864411Y-13868354D01*
X64947538Y-13866975D01*
X65034738Y-13867344D01*
G37*
X65034738Y-13867344D02*
X65118810Y-13869412D01*
X65192555Y-13873129D01*
X65248772Y-13878447D01*
X65280261Y-13885316D01*
X65283547Y-13887387D01*
X65288824Y-13909231D01*
X65293376Y-13960574D01*
X65297201Y-14037059D01*
X65300300Y-14134324D01*
X65302673Y-14248013D01*
X65304320Y-14373765D01*
X65305240Y-14507221D01*
X65305434Y-14644022D01*
X65304902Y-14779809D01*
X65303644Y-14910224D01*
X65301660Y-15030906D01*
X65298949Y-15137497D01*
X65295512Y-15225638D01*
X65291349Y-15290969D01*
X65286459Y-15329132D01*
X65283546Y-15336880D01*
X65258872Y-15345304D01*
X65208206Y-15351688D01*
X65138215Y-15356066D01*
X65055564Y-15358473D01*
X64966922Y-15358942D01*
X64878954Y-15357509D01*
X64798328Y-15354207D01*
X64731710Y-15349071D01*
X64685766Y-15342136D01*
X64667253Y-15333702D01*
X64665646Y-15312195D01*
X64664790Y-15260500D01*
X64664660Y-15182285D01*
X64665230Y-15081217D01*
X64666476Y-14960967D01*
X64668371Y-14825202D01*
X64670890Y-14677591D01*
X64672290Y-14604782D01*
X64675965Y-14428055D01*
X64679398Y-14282286D01*
X64682746Y-14164570D01*
X64686167Y-14072002D01*
X64689820Y-14001676D01*
X64693861Y-13950687D01*
X64698449Y-13916129D01*
X64703741Y-13895097D01*
X64709896Y-13884685D01*
X64711472Y-13883473D01*
X64739178Y-13876554D01*
X64792558Y-13871531D01*
X64864411Y-13868354D01*
X64947538Y-13866975D01*
X65034738Y-13867344D01*
G36*
X72077458Y-11708676D02*
G01*
X72224375Y-11709508D01*
X72345931Y-11711488D01*
X72444960Y-11715045D01*
X72524298Y-11720610D01*
X72586780Y-11728612D01*
X72635240Y-11739480D01*
X72672514Y-11753645D01*
X72701437Y-11771535D01*
X72724843Y-11793581D01*
X72745568Y-11820211D01*
X72766447Y-11851857D01*
X72779933Y-11872972D01*
X72847667Y-11978358D01*
X72841589Y-12571196D01*
X72835512Y-13164035D01*
X72778991Y-13274251D01*
X72761094Y-13307332D01*
X72740080Y-13341892D01*
X72714043Y-13380217D01*
X72681075Y-13424596D01*
X72639268Y-13477315D01*
X72586713Y-13540661D01*
X72521504Y-13616921D01*
X72441731Y-13708382D01*
X72345488Y-13817331D01*
X72230866Y-13946055D01*
X72095957Y-14096841D01*
X72049840Y-14148286D01*
X71949069Y-14260861D01*
X71849654Y-14372296D01*
X71755314Y-14478391D01*
X71669772Y-14574949D01*
X71596750Y-14657771D01*
X71539967Y-14722659D01*
X71511102Y-14756067D01*
X71380724Y-14908467D01*
X72038416Y-14918984D01*
X72217945Y-14922022D01*
X72366864Y-14925032D01*
X72488429Y-14928259D01*
X72585898Y-14931946D01*
X72662526Y-14936336D01*
X72721570Y-14941675D01*
X72766285Y-14948205D01*
X72799928Y-14956171D01*
X72825754Y-14965816D01*
X72847021Y-14977385D01*
X72850820Y-14979824D01*
X72893311Y-15023554D01*
X72926674Y-15087669D01*
X72949155Y-15162900D01*
X72958998Y-15239977D01*
X72954449Y-15309632D01*
X72933753Y-15362595D01*
X72925222Y-15372778D01*
X72898037Y-15412193D01*
X72887122Y-15444163D01*
X72870020Y-15478208D01*
X72834593Y-15514003D01*
X72823996Y-15521718D01*
X72766458Y-15560400D01*
X71616964Y-15560400D01*
X71387964Y-15560318D01*
X71190572Y-15560039D01*
X71022529Y-15559517D01*
X70881575Y-15558704D01*
X70765453Y-15557554D01*
X70671904Y-15556019D01*
X70598669Y-15554053D01*
X70543489Y-15551607D01*
X70504105Y-15548636D01*
X70478260Y-15545091D01*
X70463693Y-15540927D01*
X70458199Y-15536241D01*
X70455569Y-15512322D01*
X70453820Y-15460287D01*
X70453012Y-15385878D01*
X70453207Y-15294836D01*
X70454468Y-15192900D01*
X70454497Y-15191203D01*
X70456250Y-15097804D01*
X72611653Y-15097804D01*
X72618764Y-15124542D01*
X72636812Y-15137067D01*
X72657729Y-15124771D01*
X72662312Y-15118658D01*
X72663060Y-15093477D01*
X72644388Y-15075227D01*
X72621281Y-15076431D01*
X72611653Y-15097804D01*
X70456250Y-15097804D01*
X70456599Y-15079216D01*
X70458918Y-14995713D01*
X70462145Y-14935317D01*
X70466970Y-14892649D01*
X70474083Y-14862331D01*
X70484174Y-14838984D01*
X70497931Y-14817230D01*
X70503469Y-14809378D01*
X70526069Y-14781486D01*
X70569557Y-14731459D01*
X70631607Y-14661821D01*
X70709893Y-14575095D01*
X70802090Y-14473806D01*
X70905873Y-14360478D01*
X71018917Y-14237635D01*
X71138895Y-14107802D01*
X71263482Y-13973503D01*
X71390354Y-13837262D01*
X71517184Y-13701603D01*
X71641647Y-13569050D01*
X71761418Y-13442128D01*
X71819761Y-13380572D01*
X71927231Y-13266703D01*
X72012879Y-13174302D01*
X72078820Y-13100884D01*
X72127168Y-13043959D01*
X72160039Y-13001039D01*
X72179547Y-12969637D01*
X72187736Y-12947653D01*
X72191704Y-12907852D01*
X72193844Y-12845839D01*
X72194337Y-12768667D01*
X72193366Y-12683389D01*
X72191112Y-12597060D01*
X72187757Y-12516732D01*
X72183482Y-12449458D01*
X72178468Y-12402291D01*
X72173185Y-12382529D01*
X72153099Y-12378589D01*
X72103768Y-12374727D01*
X72029813Y-12371134D01*
X71935855Y-12367995D01*
X71826517Y-12365500D01*
X71715985Y-12363931D01*
X71570580Y-12362706D01*
X71455229Y-12362796D01*
X71366126Y-12364883D01*
X71299465Y-12369648D01*
X71251440Y-12377773D01*
X71218244Y-12389938D01*
X71196070Y-12406826D01*
X71181114Y-12429118D01*
X71169567Y-12457495D01*
X71167989Y-12462042D01*
X71159846Y-12503895D01*
X71153389Y-12574240D01*
X71148959Y-12667729D01*
X71146897Y-12779015D01*
X71146822Y-12794059D01*
X71146663Y-12900245D01*
X71145002Y-12977264D01*
X71138784Y-13029780D01*
X71124952Y-13062456D01*
X71100450Y-13079956D01*
X71062222Y-13086944D01*
X71007211Y-13088083D01*
X70954253Y-13087902D01*
X70873778Y-13085737D01*
X70821224Y-13076170D01*
X70790817Y-13055173D01*
X70776778Y-13018719D01*
X70773334Y-12962780D01*
X70773333Y-12961747D01*
X70768166Y-12894999D01*
X70753708Y-12852060D01*
X70748788Y-12845874D01*
X70719930Y-12831470D01*
X70668817Y-12818081D01*
X70612208Y-12809331D01*
X70500174Y-12797333D01*
X70505520Y-12405100D01*
X70507305Y-12280049D01*
X70509164Y-12183989D01*
X70511630Y-12112046D01*
X70515232Y-12059348D01*
X70520503Y-12021022D01*
X70527973Y-11992194D01*
X70538174Y-11967991D01*
X70551636Y-11943541D01*
X70556786Y-11934756D01*
X70624952Y-11842572D01*
X70706154Y-11771788D01*
X70784581Y-11731696D01*
X70807840Y-11726336D01*
X70845432Y-11721823D01*
X70899830Y-11718094D01*
X70973503Y-11715088D01*
X71068923Y-11712743D01*
X71188561Y-11710996D01*
X71334887Y-11709785D01*
X71510374Y-11709048D01*
X71696200Y-11708737D01*
X71902345Y-11708562D01*
X72077458Y-11708676D01*
G37*
X72077458Y-11708676D02*
X72224375Y-11709508D01*
X72345931Y-11711488D01*
X72444960Y-11715045D01*
X72524298Y-11720610D01*
X72586780Y-11728612D01*
X72635240Y-11739480D01*
X72672514Y-11753645D01*
X72701437Y-11771535D01*
X72724843Y-11793581D01*
X72745568Y-11820211D01*
X72766447Y-11851857D01*
X72779933Y-11872972D01*
X72847667Y-11978358D01*
X72841589Y-12571196D01*
X72835512Y-13164035D01*
X72778991Y-13274251D01*
X72761094Y-13307332D01*
X72740080Y-13341892D01*
X72714043Y-13380217D01*
X72681075Y-13424596D01*
X72639268Y-13477315D01*
X72586713Y-13540661D01*
X72521504Y-13616921D01*
X72441731Y-13708382D01*
X72345488Y-13817331D01*
X72230866Y-13946055D01*
X72095957Y-14096841D01*
X72049840Y-14148286D01*
X71949069Y-14260861D01*
X71849654Y-14372296D01*
X71755314Y-14478391D01*
X71669772Y-14574949D01*
X71596750Y-14657771D01*
X71539967Y-14722659D01*
X71511102Y-14756067D01*
X71380724Y-14908467D01*
X72038416Y-14918984D01*
X72217945Y-14922022D01*
X72366864Y-14925032D01*
X72488429Y-14928259D01*
X72585898Y-14931946D01*
X72662526Y-14936336D01*
X72721570Y-14941675D01*
X72766285Y-14948205D01*
X72799928Y-14956171D01*
X72825754Y-14965816D01*
X72847021Y-14977385D01*
X72850820Y-14979824D01*
X72893311Y-15023554D01*
X72926674Y-15087669D01*
X72949155Y-15162900D01*
X72958998Y-15239977D01*
X72954449Y-15309632D01*
X72933753Y-15362595D01*
X72925222Y-15372778D01*
X72898037Y-15412193D01*
X72887122Y-15444163D01*
X72870020Y-15478208D01*
X72834593Y-15514003D01*
X72823996Y-15521718D01*
X72766458Y-15560400D01*
X71616964Y-15560400D01*
X71387964Y-15560318D01*
X71190572Y-15560039D01*
X71022529Y-15559517D01*
X70881575Y-15558704D01*
X70765453Y-15557554D01*
X70671904Y-15556019D01*
X70598669Y-15554053D01*
X70543489Y-15551607D01*
X70504105Y-15548636D01*
X70478260Y-15545091D01*
X70463693Y-15540927D01*
X70458199Y-15536241D01*
X70455569Y-15512322D01*
X70453820Y-15460287D01*
X70453012Y-15385878D01*
X70453207Y-15294836D01*
X70454468Y-15192900D01*
X70454497Y-15191203D01*
X70456250Y-15097804D01*
X72611653Y-15097804D01*
X72618764Y-15124542D01*
X72636812Y-15137067D01*
X72657729Y-15124771D01*
X72662312Y-15118658D01*
X72663060Y-15093477D01*
X72644388Y-15075227D01*
X72621281Y-15076431D01*
X72611653Y-15097804D01*
X70456250Y-15097804D01*
X70456599Y-15079216D01*
X70458918Y-14995713D01*
X70462145Y-14935317D01*
X70466970Y-14892649D01*
X70474083Y-14862331D01*
X70484174Y-14838984D01*
X70497931Y-14817230D01*
X70503469Y-14809378D01*
X70526069Y-14781486D01*
X70569557Y-14731459D01*
X70631607Y-14661821D01*
X70709893Y-14575095D01*
X70802090Y-14473806D01*
X70905873Y-14360478D01*
X71018917Y-14237635D01*
X71138895Y-14107802D01*
X71263482Y-13973503D01*
X71390354Y-13837262D01*
X71517184Y-13701603D01*
X71641647Y-13569050D01*
X71761418Y-13442128D01*
X71819761Y-13380572D01*
X71927231Y-13266703D01*
X72012879Y-13174302D01*
X72078820Y-13100884D01*
X72127168Y-13043959D01*
X72160039Y-13001039D01*
X72179547Y-12969637D01*
X72187736Y-12947653D01*
X72191704Y-12907852D01*
X72193844Y-12845839D01*
X72194337Y-12768667D01*
X72193366Y-12683389D01*
X72191112Y-12597060D01*
X72187757Y-12516732D01*
X72183482Y-12449458D01*
X72178468Y-12402291D01*
X72173185Y-12382529D01*
X72153099Y-12378589D01*
X72103768Y-12374727D01*
X72029813Y-12371134D01*
X71935855Y-12367995D01*
X71826517Y-12365500D01*
X71715985Y-12363931D01*
X71570580Y-12362706D01*
X71455229Y-12362796D01*
X71366126Y-12364883D01*
X71299465Y-12369648D01*
X71251440Y-12377773D01*
X71218244Y-12389938D01*
X71196070Y-12406826D01*
X71181114Y-12429118D01*
X71169567Y-12457495D01*
X71167989Y-12462042D01*
X71159846Y-12503895D01*
X71153389Y-12574240D01*
X71148959Y-12667729D01*
X71146897Y-12779015D01*
X71146822Y-12794059D01*
X71146663Y-12900245D01*
X71145002Y-12977264D01*
X71138784Y-13029780D01*
X71124952Y-13062456D01*
X71100450Y-13079956D01*
X71062222Y-13086944D01*
X71007211Y-13088083D01*
X70954253Y-13087902D01*
X70873778Y-13085737D01*
X70821224Y-13076170D01*
X70790817Y-13055173D01*
X70776778Y-13018719D01*
X70773334Y-12962780D01*
X70773333Y-12961747D01*
X70768166Y-12894999D01*
X70753708Y-12852060D01*
X70748788Y-12845874D01*
X70719930Y-12831470D01*
X70668817Y-12818081D01*
X70612208Y-12809331D01*
X70500174Y-12797333D01*
X70505520Y-12405100D01*
X70507305Y-12280049D01*
X70509164Y-12183989D01*
X70511630Y-12112046D01*
X70515232Y-12059348D01*
X70520503Y-12021022D01*
X70527973Y-11992194D01*
X70538174Y-11967991D01*
X70551636Y-11943541D01*
X70556786Y-11934756D01*
X70624952Y-11842572D01*
X70706154Y-11771788D01*
X70784581Y-11731696D01*
X70807840Y-11726336D01*
X70845432Y-11721823D01*
X70899830Y-11718094D01*
X70973503Y-11715088D01*
X71068923Y-11712743D01*
X71188561Y-11710996D01*
X71334887Y-11709785D01*
X71510374Y-11709048D01*
X71696200Y-11708737D01*
X71902345Y-11708562D01*
X72077458Y-11708676D01*
G36*
X69223392Y-15022743D02*
G01*
X69318415Y-15024119D01*
X69425126Y-15026824D01*
X69460806Y-15027966D01*
X69823164Y-15040161D01*
X69900315Y-15250854D01*
X69940642Y-15367560D01*
X69965697Y-15456679D01*
X69975851Y-15520664D01*
X69971476Y-15561965D01*
X69952942Y-15583035D01*
X69950682Y-15583988D01*
X69926347Y-15587042D01*
X69873550Y-15589734D01*
X69797695Y-15591923D01*
X69704185Y-15593465D01*
X69598425Y-15594216D01*
X69562499Y-15594267D01*
X69201101Y-15594267D01*
X69131367Y-15412234D01*
X69101916Y-15335647D01*
X69075505Y-15267496D01*
X69055307Y-15215936D01*
X69045417Y-15191303D01*
X69029840Y-15132781D01*
X69030353Y-15078952D01*
X69045842Y-15039779D01*
X69063824Y-15026760D01*
X69090559Y-15024047D01*
X69145594Y-15022714D01*
X69223392Y-15022743D01*
G37*
X69223392Y-15022743D02*
X69318415Y-15024119D01*
X69425126Y-15026824D01*
X69460806Y-15027966D01*
X69823164Y-15040161D01*
X69900315Y-15250854D01*
X69940642Y-15367560D01*
X69965697Y-15456679D01*
X69975851Y-15520664D01*
X69971476Y-15561965D01*
X69952942Y-15583035D01*
X69950682Y-15583988D01*
X69926347Y-15587042D01*
X69873550Y-15589734D01*
X69797695Y-15591923D01*
X69704185Y-15593465D01*
X69598425Y-15594216D01*
X69562499Y-15594267D01*
X69201101Y-15594267D01*
X69131367Y-15412234D01*
X69101916Y-15335647D01*
X69075505Y-15267496D01*
X69055307Y-15215936D01*
X69045417Y-15191303D01*
X69029840Y-15132781D01*
X69030353Y-15078952D01*
X69045842Y-15039779D01*
X69063824Y-15026760D01*
X69090559Y-15024047D01*
X69145594Y-15022714D01*
X69223392Y-15022743D01*
G36*
X68387414Y-11719898D02*
G01*
X68454726Y-11722314D01*
X68501025Y-11726140D01*
X68529522Y-11731482D01*
X68541752Y-11736987D01*
X68550334Y-11746012D01*
X68561208Y-11762557D01*
X68574948Y-11788104D01*
X68592130Y-11824135D01*
X68613326Y-11872130D01*
X68639110Y-11933571D01*
X68670057Y-12009940D01*
X68706741Y-12102718D01*
X68749735Y-12213386D01*
X68799613Y-12343426D01*
X68856950Y-12494319D01*
X68922319Y-12667547D01*
X68996295Y-12864591D01*
X69079450Y-13086933D01*
X69172360Y-13336054D01*
X69275598Y-13613435D01*
X69389737Y-13920557D01*
X69435902Y-14044867D01*
X69482843Y-14170457D01*
X69527033Y-14287105D01*
X69566856Y-14390666D01*
X69600694Y-14476997D01*
X69626934Y-14541951D01*
X69643958Y-14581385D01*
X69648594Y-14590371D01*
X69667612Y-14637385D01*
X69672562Y-14688785D01*
X69663849Y-14732500D01*
X69643033Y-14756024D01*
X69611749Y-14761996D01*
X69553621Y-14767194D01*
X69475663Y-14771469D01*
X69384893Y-14774673D01*
X69288326Y-14776660D01*
X69192978Y-14777282D01*
X69105866Y-14776391D01*
X69034005Y-14773839D01*
X68986867Y-14769826D01*
X68885267Y-14755983D01*
X68780139Y-14488859D01*
X68771210Y-14568074D01*
X68746401Y-14669460D01*
X68697404Y-14775661D01*
X68630102Y-14875920D01*
X68563320Y-14948048D01*
X68453021Y-15026901D01*
X68328966Y-15076135D01*
X68194228Y-15095522D01*
X68051878Y-15084833D01*
X67904989Y-15043840D01*
X67814208Y-15003724D01*
X67710772Y-14937842D01*
X67631966Y-14855308D01*
X67575204Y-14752195D01*
X67568554Y-14729444D01*
X67813825Y-14729444D01*
X67822750Y-14746362D01*
X67834403Y-14756389D01*
X67854871Y-14766395D01*
X67889140Y-14773500D01*
X67942098Y-14778108D01*
X68018631Y-14780626D01*
X68123625Y-14781460D01*
X68136083Y-14781467D01*
X68240260Y-14780313D01*
X68328011Y-14777061D01*
X68394052Y-14772027D01*
X68433102Y-14765528D01*
X68438740Y-14763353D01*
X68461424Y-14744949D01*
X68454719Y-14723798D01*
X68452486Y-14721019D01*
X68438206Y-14711808D01*
X68409992Y-14705158D01*
X68363377Y-14700723D01*
X68293892Y-14698159D01*
X68197071Y-14697120D01*
X68142360Y-14697059D01*
X68018767Y-14698142D01*
X67926557Y-14701451D01*
X67863289Y-14707458D01*
X67826525Y-14716633D01*
X67813825Y-14729444D01*
X67568554Y-14729444D01*
X67537900Y-14624577D01*
X67528428Y-14569800D01*
X67516006Y-14485133D01*
X67499661Y-14544400D01*
X67490331Y-14575228D01*
X67471878Y-14633647D01*
X67445777Y-14715085D01*
X67413500Y-14814968D01*
X67376523Y-14928722D01*
X67336320Y-15051774D01*
X67323587Y-15090620D01*
X67272226Y-15245310D01*
X67229642Y-15369274D01*
X67195153Y-15464308D01*
X67168078Y-15532206D01*
X67147738Y-15574763D01*
X67133450Y-15593772D01*
X67132442Y-15594387D01*
X67104576Y-15599959D01*
X67047904Y-15604038D01*
X66967455Y-15606593D01*
X66868258Y-15607592D01*
X66755344Y-15607005D01*
X66633741Y-15604799D01*
X66508479Y-15600945D01*
X66451100Y-15598613D01*
X66319866Y-15592842D01*
X66319866Y-15538219D01*
X66325132Y-15509301D01*
X66340072Y-15452582D01*
X66363398Y-15372307D01*
X66393825Y-15272720D01*
X66430065Y-15158064D01*
X66470832Y-15032583D01*
X66498055Y-14950498D01*
X66578076Y-14709851D01*
X66659713Y-14461792D01*
X66717331Y-14284948D01*
X67780116Y-14284948D01*
X67794768Y-14328759D01*
X67809323Y-14344057D01*
X67847236Y-14369657D01*
X67875742Y-14369915D01*
X67908320Y-14344454D01*
X67911600Y-14341200D01*
X67924742Y-14323282D01*
X68374611Y-14323282D01*
X68391909Y-14357133D01*
X68422182Y-14373985D01*
X68456720Y-14369584D01*
X68486815Y-14339675D01*
X68491013Y-14331418D01*
X68500378Y-14282418D01*
X68482406Y-14246747D01*
X68440942Y-14231302D01*
X68435095Y-14231133D01*
X68398571Y-14243696D01*
X68378995Y-14276688D01*
X68374611Y-14323282D01*
X67924742Y-14323282D01*
X67940325Y-14302037D01*
X67938862Y-14266393D01*
X67906729Y-14226058D01*
X67904731Y-14224168D01*
X67871621Y-14199119D01*
X67844120Y-14197926D01*
X67828731Y-14204771D01*
X67791974Y-14239766D01*
X67780116Y-14284948D01*
X66717331Y-14284948D01*
X66744084Y-14202839D01*
X66789548Y-14061983D01*
X67640666Y-14061983D01*
X67652584Y-14056495D01*
X67684018Y-14033977D01*
X67728490Y-13999106D01*
X67734433Y-13994283D01*
X67794108Y-13948829D01*
X67855681Y-13906882D01*
X67899533Y-13880988D01*
X67956322Y-13858490D01*
X68027700Y-13844261D01*
X68119428Y-13836544D01*
X68239566Y-13836197D01*
X68338033Y-13850351D01*
X68424782Y-13881395D01*
X68506404Y-13929391D01*
X68588826Y-13986088D01*
X68548754Y-13880011D01*
X68456849Y-13637114D01*
X68376151Y-13424709D01*
X68306154Y-13241513D01*
X68246352Y-13086241D01*
X68196239Y-12957610D01*
X68155309Y-12854335D01*
X68123055Y-12775133D01*
X68098973Y-12718718D01*
X68082555Y-12683808D01*
X68073297Y-12669118D01*
X68071388Y-12668701D01*
X68065239Y-12685632D01*
X68050456Y-12730888D01*
X68028297Y-12800404D01*
X68000018Y-12890115D01*
X67966875Y-12995956D01*
X67930125Y-13113861D01*
X67891026Y-13239766D01*
X67850833Y-13369605D01*
X67810803Y-13499313D01*
X67772194Y-13624825D01*
X67736262Y-13742076D01*
X67704263Y-13847000D01*
X67677454Y-13935533D01*
X67657093Y-14003609D01*
X67644435Y-14047163D01*
X67640666Y-14061983D01*
X66789548Y-14061983D01*
X66832307Y-13929509D01*
X66925500Y-13638321D01*
X67024782Y-13325792D01*
X67131270Y-12988441D01*
X67246082Y-12622784D01*
X67269327Y-12548554D01*
X67318945Y-12390500D01*
X67365733Y-12242347D01*
X67408683Y-12107226D01*
X67446787Y-11988265D01*
X67479038Y-11888592D01*
X67504428Y-11811337D01*
X67521949Y-11759628D01*
X67530594Y-11736595D01*
X67531110Y-11735754D01*
X67550169Y-11732828D01*
X67598735Y-11729861D01*
X67672447Y-11726991D01*
X67766947Y-11724355D01*
X67877876Y-11722091D01*
X68000872Y-11720339D01*
X68027307Y-11720054D01*
X68176915Y-11718873D01*
X68295881Y-11718786D01*
X68387414Y-11719898D01*
G37*
X68387414Y-11719898D02*
X68454726Y-11722314D01*
X68501025Y-11726140D01*
X68529522Y-11731482D01*
X68541752Y-11736987D01*
X68550334Y-11746012D01*
X68561208Y-11762557D01*
X68574948Y-11788104D01*
X68592130Y-11824135D01*
X68613326Y-11872130D01*
X68639110Y-11933571D01*
X68670057Y-12009940D01*
X68706741Y-12102718D01*
X68749735Y-12213386D01*
X68799613Y-12343426D01*
X68856950Y-12494319D01*
X68922319Y-12667547D01*
X68996295Y-12864591D01*
X69079450Y-13086933D01*
X69172360Y-13336054D01*
X69275598Y-13613435D01*
X69389737Y-13920557D01*
X69435902Y-14044867D01*
X69482843Y-14170457D01*
X69527033Y-14287105D01*
X69566856Y-14390666D01*
X69600694Y-14476997D01*
X69626934Y-14541951D01*
X69643958Y-14581385D01*
X69648594Y-14590371D01*
X69667612Y-14637385D01*
X69672562Y-14688785D01*
X69663849Y-14732500D01*
X69643033Y-14756024D01*
X69611749Y-14761996D01*
X69553621Y-14767194D01*
X69475663Y-14771469D01*
X69384893Y-14774673D01*
X69288326Y-14776660D01*
X69192978Y-14777282D01*
X69105866Y-14776391D01*
X69034005Y-14773839D01*
X68986867Y-14769826D01*
X68885267Y-14755983D01*
X68780139Y-14488859D01*
X68771210Y-14568074D01*
X68746401Y-14669460D01*
X68697404Y-14775661D01*
X68630102Y-14875920D01*
X68563320Y-14948048D01*
X68453021Y-15026901D01*
X68328966Y-15076135D01*
X68194228Y-15095522D01*
X68051878Y-15084833D01*
X67904989Y-15043840D01*
X67814208Y-15003724D01*
X67710772Y-14937842D01*
X67631966Y-14855308D01*
X67575204Y-14752195D01*
X67568554Y-14729444D01*
X67813825Y-14729444D01*
X67822750Y-14746362D01*
X67834403Y-14756389D01*
X67854871Y-14766395D01*
X67889140Y-14773500D01*
X67942098Y-14778108D01*
X68018631Y-14780626D01*
X68123625Y-14781460D01*
X68136083Y-14781467D01*
X68240260Y-14780313D01*
X68328011Y-14777061D01*
X68394052Y-14772027D01*
X68433102Y-14765528D01*
X68438740Y-14763353D01*
X68461424Y-14744949D01*
X68454719Y-14723798D01*
X68452486Y-14721019D01*
X68438206Y-14711808D01*
X68409992Y-14705158D01*
X68363377Y-14700723D01*
X68293892Y-14698159D01*
X68197071Y-14697120D01*
X68142360Y-14697059D01*
X68018767Y-14698142D01*
X67926557Y-14701451D01*
X67863289Y-14707458D01*
X67826525Y-14716633D01*
X67813825Y-14729444D01*
X67568554Y-14729444D01*
X67537900Y-14624577D01*
X67528428Y-14569800D01*
X67516006Y-14485133D01*
X67499661Y-14544400D01*
X67490331Y-14575228D01*
X67471878Y-14633647D01*
X67445777Y-14715085D01*
X67413500Y-14814968D01*
X67376523Y-14928722D01*
X67336320Y-15051774D01*
X67323587Y-15090620D01*
X67272226Y-15245310D01*
X67229642Y-15369274D01*
X67195153Y-15464308D01*
X67168078Y-15532206D01*
X67147738Y-15574763D01*
X67133450Y-15593772D01*
X67132442Y-15594387D01*
X67104576Y-15599959D01*
X67047904Y-15604038D01*
X66967455Y-15606593D01*
X66868258Y-15607592D01*
X66755344Y-15607005D01*
X66633741Y-15604799D01*
X66508479Y-15600945D01*
X66451100Y-15598613D01*
X66319866Y-15592842D01*
X66319866Y-15538219D01*
X66325132Y-15509301D01*
X66340072Y-15452582D01*
X66363398Y-15372307D01*
X66393825Y-15272720D01*
X66430065Y-15158064D01*
X66470832Y-15032583D01*
X66498055Y-14950498D01*
X66578076Y-14709851D01*
X66659713Y-14461792D01*
X66717331Y-14284948D01*
X67780116Y-14284948D01*
X67794768Y-14328759D01*
X67809323Y-14344057D01*
X67847236Y-14369657D01*
X67875742Y-14369915D01*
X67908320Y-14344454D01*
X67911600Y-14341200D01*
X67924742Y-14323282D01*
X68374611Y-14323282D01*
X68391909Y-14357133D01*
X68422182Y-14373985D01*
X68456720Y-14369584D01*
X68486815Y-14339675D01*
X68491013Y-14331418D01*
X68500378Y-14282418D01*
X68482406Y-14246747D01*
X68440942Y-14231302D01*
X68435095Y-14231133D01*
X68398571Y-14243696D01*
X68378995Y-14276688D01*
X68374611Y-14323282D01*
X67924742Y-14323282D01*
X67940325Y-14302037D01*
X67938862Y-14266393D01*
X67906729Y-14226058D01*
X67904731Y-14224168D01*
X67871621Y-14199119D01*
X67844120Y-14197926D01*
X67828731Y-14204771D01*
X67791974Y-14239766D01*
X67780116Y-14284948D01*
X66717331Y-14284948D01*
X66744084Y-14202839D01*
X66789548Y-14061983D01*
X67640666Y-14061983D01*
X67652584Y-14056495D01*
X67684018Y-14033977D01*
X67728490Y-13999106D01*
X67734433Y-13994283D01*
X67794108Y-13948829D01*
X67855681Y-13906882D01*
X67899533Y-13880988D01*
X67956322Y-13858490D01*
X68027700Y-13844261D01*
X68119428Y-13836544D01*
X68239566Y-13836197D01*
X68338033Y-13850351D01*
X68424782Y-13881395D01*
X68506404Y-13929391D01*
X68588826Y-13986088D01*
X68548754Y-13880011D01*
X68456849Y-13637114D01*
X68376151Y-13424709D01*
X68306154Y-13241513D01*
X68246352Y-13086241D01*
X68196239Y-12957610D01*
X68155309Y-12854335D01*
X68123055Y-12775133D01*
X68098973Y-12718718D01*
X68082555Y-12683808D01*
X68073297Y-12669118D01*
X68071388Y-12668701D01*
X68065239Y-12685632D01*
X68050456Y-12730888D01*
X68028297Y-12800404D01*
X68000018Y-12890115D01*
X67966875Y-12995956D01*
X67930125Y-13113861D01*
X67891026Y-13239766D01*
X67850833Y-13369605D01*
X67810803Y-13499313D01*
X67772194Y-13624825D01*
X67736262Y-13742076D01*
X67704263Y-13847000D01*
X67677454Y-13935533D01*
X67657093Y-14003609D01*
X67644435Y-14047163D01*
X67640666Y-14061983D01*
X66789548Y-14061983D01*
X66832307Y-13929509D01*
X66925500Y-13638321D01*
X67024782Y-13325792D01*
X67131270Y-12988441D01*
X67246082Y-12622784D01*
X67269327Y-12548554D01*
X67318945Y-12390500D01*
X67365733Y-12242347D01*
X67408683Y-12107226D01*
X67446787Y-11988265D01*
X67479038Y-11888592D01*
X67504428Y-11811337D01*
X67521949Y-11759628D01*
X67530594Y-11736595D01*
X67531110Y-11735754D01*
X67550169Y-11732828D01*
X67598735Y-11729861D01*
X67672447Y-11726991D01*
X67766947Y-11724355D01*
X67877876Y-11722091D01*
X68000872Y-11720339D01*
X68027307Y-11720054D01*
X68176915Y-11718873D01*
X68295881Y-11718786D01*
X68387414Y-11719898D01*
G36*
X59724333Y-15602734D02*
G01*
X58610482Y-15607089D01*
X58381305Y-15607870D01*
X58183885Y-15608268D01*
X58016112Y-15608252D01*
X57875877Y-15607789D01*
X57761072Y-15606846D01*
X57669588Y-15605390D01*
X57599317Y-15603389D01*
X57548148Y-15600811D01*
X57513975Y-15597622D01*
X57494687Y-15593790D01*
X57488301Y-15589737D01*
X57486043Y-15566991D01*
X57484444Y-15515672D01*
X57483555Y-15441068D01*
X57483427Y-15348465D01*
X57484112Y-15243152D01*
X57484552Y-15204381D01*
X57489133Y-14840733D01*
X59724333Y-14840733D01*
X59724333Y-15602734D01*
G37*
X59724333Y-15602734D02*
X58610482Y-15607089D01*
X58381305Y-15607870D01*
X58183885Y-15608268D01*
X58016112Y-15608252D01*
X57875877Y-15607789D01*
X57761072Y-15606846D01*
X57669588Y-15605390D01*
X57599317Y-15603389D01*
X57548148Y-15600811D01*
X57513975Y-15597622D01*
X57494687Y-15593790D01*
X57488301Y-15589737D01*
X57486043Y-15566991D01*
X57484444Y-15515672D01*
X57483555Y-15441068D01*
X57483427Y-15348465D01*
X57484112Y-15243152D01*
X57484552Y-15204381D01*
X57489133Y-14840733D01*
X59724333Y-14840733D01*
X59724333Y-15602734D01*
G36*
X58010851Y-11801292D02*
G01*
X58109774Y-11801866D01*
X58187904Y-11803036D01*
X58247854Y-11804858D01*
X58292240Y-11807391D01*
X58323675Y-11810692D01*
X58344774Y-11814818D01*
X58358151Y-11819827D01*
X58366420Y-11825776D01*
X58366703Y-11826056D01*
X58376828Y-11840118D01*
X58384253Y-11862308D01*
X58389372Y-11897446D01*
X58392580Y-11950350D01*
X58394268Y-12025842D01*
X58394830Y-12128741D01*
X58394835Y-12170710D01*
X58394229Y-12273265D01*
X58392686Y-12366158D01*
X58390386Y-12443267D01*
X58387510Y-12498471D01*
X58384394Y-12525100D01*
X58374183Y-12563200D01*
X57243600Y-12563200D01*
X57243600Y-13305562D01*
X57916700Y-13311155D01*
X58086055Y-13312635D01*
X58225014Y-13314118D01*
X58337046Y-13315792D01*
X58425619Y-13317848D01*
X58494205Y-13320475D01*
X58546271Y-13323862D01*
X58585288Y-13328201D01*
X58614725Y-13333679D01*
X58638051Y-13340487D01*
X58658736Y-13348816D01*
X58666000Y-13352127D01*
X58764386Y-13415613D01*
X58841222Y-13501892D01*
X58893141Y-13605185D01*
X58916773Y-13719711D01*
X58916726Y-13782329D01*
X58910668Y-13842381D01*
X58899116Y-13885296D01*
X58876875Y-13914346D01*
X58838750Y-13932804D01*
X58779546Y-13943943D01*
X58694071Y-13951033D01*
X58644458Y-13953839D01*
X58564269Y-13958405D01*
X58497100Y-13962787D01*
X58449777Y-13966498D01*
X58429132Y-13969055D01*
X58428933Y-13969138D01*
X58440768Y-13972762D01*
X58479481Y-13979051D01*
X58538285Y-13986978D01*
X58581333Y-13992203D01*
X58742200Y-14011000D01*
X58747200Y-14061930D01*
X58745634Y-14093164D01*
X58732757Y-14119690D01*
X58706230Y-14141866D01*
X58663714Y-14160049D01*
X58602870Y-14174596D01*
X58521358Y-14185865D01*
X58416840Y-14194213D01*
X58286976Y-14199998D01*
X58129427Y-14203575D01*
X57941855Y-14205304D01*
X57806633Y-14205605D01*
X57243600Y-14205734D01*
X57243369Y-14870367D01*
X57243063Y-15018511D01*
X57242292Y-15157097D01*
X57241112Y-15282227D01*
X57239581Y-15389999D01*
X57237758Y-15476514D01*
X57235700Y-15537870D01*
X57233466Y-15570168D01*
X57232927Y-15573100D01*
X57222717Y-15611200D01*
X56787247Y-15611200D01*
X56669064Y-15610778D01*
X56562193Y-15609590D01*
X56471261Y-15607753D01*
X56400893Y-15605383D01*
X56355717Y-15602598D01*
X56340489Y-15599911D01*
X56338989Y-15581816D01*
X56337548Y-15532025D01*
X56336179Y-15452710D01*
X56334893Y-15346042D01*
X56333705Y-15214193D01*
X56332628Y-15059333D01*
X56331673Y-14883635D01*
X56330855Y-14689269D01*
X56330186Y-14478407D01*
X56329679Y-14253220D01*
X56329348Y-14015879D01*
X56329205Y-13768556D01*
X56329200Y-13712844D01*
X56329236Y-13557664D01*
X58418178Y-13557664D01*
X58422558Y-13594226D01*
X58429608Y-13605413D01*
X58452818Y-13626188D01*
X58462800Y-13630000D01*
X58483129Y-13618523D01*
X58495992Y-13605413D01*
X58508358Y-13570692D01*
X58499520Y-13535299D01*
X58474469Y-13513356D01*
X58462800Y-13511467D01*
X58433255Y-13525370D01*
X58418178Y-13557664D01*
X56329236Y-13557664D01*
X56329272Y-13408903D01*
X56329501Y-13137254D01*
X56329903Y-12896324D01*
X56330497Y-12684537D01*
X56331300Y-12500320D01*
X56332329Y-12342099D01*
X56333604Y-12208299D01*
X56335140Y-12097347D01*
X56336956Y-12007669D01*
X56339069Y-11937689D01*
X56341497Y-11885835D01*
X56344257Y-11850531D01*
X56347368Y-11830205D01*
X56350367Y-11823483D01*
X56370743Y-11820902D01*
X56421926Y-11818275D01*
X56500854Y-11815660D01*
X56604465Y-11813120D01*
X56729700Y-11810712D01*
X56873497Y-11808497D01*
X57032797Y-11806536D01*
X57204536Y-11804887D01*
X57354936Y-11803796D01*
X57563177Y-11802565D01*
X57740167Y-11801698D01*
X57888520Y-11801255D01*
X58010851Y-11801292D01*
G37*
X58010851Y-11801292D02*
X58109774Y-11801866D01*
X58187904Y-11803036D01*
X58247854Y-11804858D01*
X58292240Y-11807391D01*
X58323675Y-11810692D01*
X58344774Y-11814818D01*
X58358151Y-11819827D01*
X58366420Y-11825776D01*
X58366703Y-11826056D01*
X58376828Y-11840118D01*
X58384253Y-11862308D01*
X58389372Y-11897446D01*
X58392580Y-11950350D01*
X58394268Y-12025842D01*
X58394830Y-12128741D01*
X58394835Y-12170710D01*
X58394229Y-12273265D01*
X58392686Y-12366158D01*
X58390386Y-12443267D01*
X58387510Y-12498471D01*
X58384394Y-12525100D01*
X58374183Y-12563200D01*
X57243600Y-12563200D01*
X57243600Y-13305562D01*
X57916700Y-13311155D01*
X58086055Y-13312635D01*
X58225014Y-13314118D01*
X58337046Y-13315792D01*
X58425619Y-13317848D01*
X58494205Y-13320475D01*
X58546271Y-13323862D01*
X58585288Y-13328201D01*
X58614725Y-13333679D01*
X58638051Y-13340487D01*
X58658736Y-13348816D01*
X58666000Y-13352127D01*
X58764386Y-13415613D01*
X58841222Y-13501892D01*
X58893141Y-13605185D01*
X58916773Y-13719711D01*
X58916726Y-13782329D01*
X58910668Y-13842381D01*
X58899116Y-13885296D01*
X58876875Y-13914346D01*
X58838750Y-13932804D01*
X58779546Y-13943943D01*
X58694071Y-13951033D01*
X58644458Y-13953839D01*
X58564269Y-13958405D01*
X58497100Y-13962787D01*
X58449777Y-13966498D01*
X58429132Y-13969055D01*
X58428933Y-13969138D01*
X58440768Y-13972762D01*
X58479481Y-13979051D01*
X58538285Y-13986978D01*
X58581333Y-13992203D01*
X58742200Y-14011000D01*
X58747200Y-14061930D01*
X58745634Y-14093164D01*
X58732757Y-14119690D01*
X58706230Y-14141866D01*
X58663714Y-14160049D01*
X58602870Y-14174596D01*
X58521358Y-14185865D01*
X58416840Y-14194213D01*
X58286976Y-14199998D01*
X58129427Y-14203575D01*
X57941855Y-14205304D01*
X57806633Y-14205605D01*
X57243600Y-14205734D01*
X57243369Y-14870367D01*
X57243063Y-15018511D01*
X57242292Y-15157097D01*
X57241112Y-15282227D01*
X57239581Y-15389999D01*
X57237758Y-15476514D01*
X57235700Y-15537870D01*
X57233466Y-15570168D01*
X57232927Y-15573100D01*
X57222717Y-15611200D01*
X56787247Y-15611200D01*
X56669064Y-15610778D01*
X56562193Y-15609590D01*
X56471261Y-15607753D01*
X56400893Y-15605383D01*
X56355717Y-15602598D01*
X56340489Y-15599911D01*
X56338989Y-15581816D01*
X56337548Y-15532025D01*
X56336179Y-15452710D01*
X56334893Y-15346042D01*
X56333705Y-15214193D01*
X56332628Y-15059333D01*
X56331673Y-14883635D01*
X56330855Y-14689269D01*
X56330186Y-14478407D01*
X56329679Y-14253220D01*
X56329348Y-14015879D01*
X56329205Y-13768556D01*
X56329200Y-13712844D01*
X56329236Y-13557664D01*
X58418178Y-13557664D01*
X58422558Y-13594226D01*
X58429608Y-13605413D01*
X58452818Y-13626188D01*
X58462800Y-13630000D01*
X58483129Y-13618523D01*
X58495992Y-13605413D01*
X58508358Y-13570692D01*
X58499520Y-13535299D01*
X58474469Y-13513356D01*
X58462800Y-13511467D01*
X58433255Y-13525370D01*
X58418178Y-13557664D01*
X56329236Y-13557664D01*
X56329272Y-13408903D01*
X56329501Y-13137254D01*
X56329903Y-12896324D01*
X56330497Y-12684537D01*
X56331300Y-12500320D01*
X56332329Y-12342099D01*
X56333604Y-12208299D01*
X56335140Y-12097347D01*
X56336956Y-12007669D01*
X56339069Y-11937689D01*
X56341497Y-11885835D01*
X56344257Y-11850531D01*
X56347368Y-11830205D01*
X56350367Y-11823483D01*
X56370743Y-11820902D01*
X56421926Y-11818275D01*
X56500854Y-11815660D01*
X56604465Y-11813120D01*
X56729700Y-11810712D01*
X56873497Y-11808497D01*
X57032797Y-11806536D01*
X57204536Y-11804887D01*
X57354936Y-11803796D01*
X57563177Y-11802565D01*
X57740167Y-11801698D01*
X57888520Y-11801255D01*
X58010851Y-11801292D01*
G36*
X75276131Y-11686194D02*
G01*
X75288769Y-11686412D01*
X75523133Y-11691134D01*
X75527647Y-11758867D01*
X75533488Y-11828610D01*
X75542756Y-11871206D01*
X75560171Y-11893347D01*
X75590452Y-11901728D01*
X75629289Y-11903031D01*
X75701531Y-11904325D01*
X75747322Y-11911864D01*
X75772373Y-11931896D01*
X75782396Y-11970665D01*
X75783100Y-12034417D01*
X75781995Y-12070039D01*
X75777133Y-12216067D01*
X75049000Y-12228561D01*
X74852952Y-12231972D01*
X74687819Y-12235086D01*
X74550654Y-12238166D01*
X74438512Y-12241471D01*
X74348445Y-12245262D01*
X74277507Y-12249802D01*
X74222750Y-12255349D01*
X74181228Y-12262166D01*
X74149995Y-12270514D01*
X74126104Y-12280652D01*
X74106608Y-12292843D01*
X74088559Y-12307347D01*
X74080557Y-12314319D01*
X74019910Y-12367568D01*
X74031935Y-12740551D01*
X74035952Y-12862121D01*
X74039536Y-12954520D01*
X74043304Y-13022425D01*
X74047872Y-13070514D01*
X74053856Y-13103466D01*
X74061874Y-13125959D01*
X74072542Y-13142671D01*
X74086477Y-13158282D01*
X74087088Y-13158924D01*
X74130216Y-13204314D01*
X75237412Y-13184522D01*
X75537306Y-13576545D01*
X75614775Y-13678546D01*
X75685959Y-13773672D01*
X75748085Y-13858105D01*
X75798377Y-13928025D01*
X75834061Y-13979612D01*
X75852360Y-14009047D01*
X75853734Y-14012053D01*
X75858489Y-14041795D01*
X75862388Y-14100449D01*
X75865434Y-14183075D01*
X75867629Y-14284728D01*
X75868977Y-14400466D01*
X75869481Y-14525347D01*
X75869143Y-14654427D01*
X75867968Y-14782765D01*
X75865958Y-14905418D01*
X75863116Y-15017443D01*
X75859445Y-15113897D01*
X75854949Y-15189838D01*
X75852979Y-15212761D01*
X75841973Y-15312924D01*
X75829500Y-15386721D01*
X75812595Y-15441620D01*
X75788294Y-15485089D01*
X75753631Y-15524597D01*
X75715416Y-15559259D01*
X75628202Y-15634318D01*
X75228534Y-15647060D01*
X75097882Y-15650663D01*
X74954945Y-15653621D01*
X74803727Y-15655934D01*
X74648233Y-15657607D01*
X74492470Y-15658641D01*
X74340442Y-15659038D01*
X74196154Y-15658801D01*
X74063612Y-15657932D01*
X73946821Y-15656433D01*
X73849786Y-15654308D01*
X73776512Y-15651557D01*
X73731005Y-15648184D01*
X73719624Y-15646179D01*
X73630113Y-15610081D01*
X73556359Y-15559466D01*
X73497233Y-15491637D01*
X73451603Y-15403897D01*
X73418340Y-15293546D01*
X73396313Y-15157889D01*
X73384392Y-14994226D01*
X73381367Y-14838811D01*
X73384402Y-14697253D01*
X73393624Y-14596200D01*
X73821333Y-14596200D01*
X73834249Y-14611677D01*
X73838267Y-14612133D01*
X73853127Y-14598350D01*
X73855200Y-14585734D01*
X73846991Y-14568207D01*
X73838267Y-14569800D01*
X73821979Y-14591449D01*
X73821333Y-14596200D01*
X73393624Y-14596200D01*
X73394492Y-14586691D01*
X73412356Y-14504852D01*
X73438714Y-14449465D01*
X73474286Y-14418256D01*
X73517501Y-14408933D01*
X73554593Y-14400939D01*
X73576898Y-14370772D01*
X73581729Y-14358133D01*
X73595523Y-14327313D01*
X73615919Y-14312386D01*
X73653954Y-14307700D01*
X73680752Y-14307428D01*
X73799153Y-14319538D01*
X73894511Y-14355234D01*
X73965954Y-14414016D01*
X74012608Y-14495382D01*
X74013668Y-14498315D01*
X74025508Y-14546344D01*
X74036488Y-14616848D01*
X74045020Y-14698442D01*
X74048199Y-14745920D01*
X74053376Y-14828414D01*
X74059849Y-14884583D01*
X74069241Y-14921967D01*
X74083174Y-14948104D01*
X74094665Y-14961820D01*
X74132037Y-15001600D01*
X74653058Y-15001600D01*
X74799447Y-15001553D01*
X74915674Y-15001243D01*
X75005442Y-15000416D01*
X75072456Y-14998815D01*
X75120421Y-14996187D01*
X75153040Y-14992278D01*
X75174017Y-14986832D01*
X75187058Y-14979594D01*
X75195865Y-14970310D01*
X75200440Y-14963966D01*
X75209606Y-14945572D01*
X75216451Y-14917157D01*
X75221281Y-14874194D01*
X75224407Y-14812159D01*
X75226135Y-14726525D01*
X75226774Y-14612766D01*
X75226800Y-14577021D01*
X75226628Y-14451646D01*
X75224788Y-14353556D01*
X75219292Y-14276170D01*
X75208155Y-14212907D01*
X75189388Y-14157187D01*
X75161005Y-14102429D01*
X75121020Y-14042054D01*
X75067444Y-13969479D01*
X75027399Y-13916616D01*
X74913533Y-13766390D01*
X74514071Y-13765928D01*
X74378541Y-13765249D01*
X74233555Y-13763622D01*
X74089489Y-13761225D01*
X73956717Y-13758237D01*
X73845612Y-13754834D01*
X73829095Y-13754206D01*
X73543582Y-13742946D01*
X73395214Y-13606186D01*
X73407204Y-12775660D01*
X73419193Y-11945133D01*
X73480563Y-11852108D01*
X73520685Y-11799257D01*
X73562851Y-11756038D01*
X73592285Y-11735070D01*
X73612640Y-11728685D01*
X73646970Y-11723060D01*
X73698020Y-11718054D01*
X73768535Y-11713526D01*
X73861259Y-11709337D01*
X73978937Y-11705346D01*
X74124314Y-11701412D01*
X74300135Y-11697395D01*
X74348520Y-11696374D01*
X74510953Y-11693235D01*
X74672155Y-11690565D01*
X74826881Y-11688419D01*
X74969886Y-11686854D01*
X75095926Y-11685924D01*
X75199756Y-11685686D01*
X75276131Y-11686194D01*
G37*
X75276131Y-11686194D02*
X75288769Y-11686412D01*
X75523133Y-11691134D01*
X75527647Y-11758867D01*
X75533488Y-11828610D01*
X75542756Y-11871206D01*
X75560171Y-11893347D01*
X75590452Y-11901728D01*
X75629289Y-11903031D01*
X75701531Y-11904325D01*
X75747322Y-11911864D01*
X75772373Y-11931896D01*
X75782396Y-11970665D01*
X75783100Y-12034417D01*
X75781995Y-12070039D01*
X75777133Y-12216067D01*
X75049000Y-12228561D01*
X74852952Y-12231972D01*
X74687819Y-12235086D01*
X74550654Y-12238166D01*
X74438512Y-12241471D01*
X74348445Y-12245262D01*
X74277507Y-12249802D01*
X74222750Y-12255349D01*
X74181228Y-12262166D01*
X74149995Y-12270514D01*
X74126104Y-12280652D01*
X74106608Y-12292843D01*
X74088559Y-12307347D01*
X74080557Y-12314319D01*
X74019910Y-12367568D01*
X74031935Y-12740551D01*
X74035952Y-12862121D01*
X74039536Y-12954520D01*
X74043304Y-13022425D01*
X74047872Y-13070514D01*
X74053856Y-13103466D01*
X74061874Y-13125959D01*
X74072542Y-13142671D01*
X74086477Y-13158282D01*
X74087088Y-13158924D01*
X74130216Y-13204314D01*
X75237412Y-13184522D01*
X75537306Y-13576545D01*
X75614775Y-13678546D01*
X75685959Y-13773672D01*
X75748085Y-13858105D01*
X75798377Y-13928025D01*
X75834061Y-13979612D01*
X75852360Y-14009047D01*
X75853734Y-14012053D01*
X75858489Y-14041795D01*
X75862388Y-14100449D01*
X75865434Y-14183075D01*
X75867629Y-14284728D01*
X75868977Y-14400466D01*
X75869481Y-14525347D01*
X75869143Y-14654427D01*
X75867968Y-14782765D01*
X75865958Y-14905418D01*
X75863116Y-15017443D01*
X75859445Y-15113897D01*
X75854949Y-15189838D01*
X75852979Y-15212761D01*
X75841973Y-15312924D01*
X75829500Y-15386721D01*
X75812595Y-15441620D01*
X75788294Y-15485089D01*
X75753631Y-15524597D01*
X75715416Y-15559259D01*
X75628202Y-15634318D01*
X75228534Y-15647060D01*
X75097882Y-15650663D01*
X74954945Y-15653621D01*
X74803727Y-15655934D01*
X74648233Y-15657607D01*
X74492470Y-15658641D01*
X74340442Y-15659038D01*
X74196154Y-15658801D01*
X74063612Y-15657932D01*
X73946821Y-15656433D01*
X73849786Y-15654308D01*
X73776512Y-15651557D01*
X73731005Y-15648184D01*
X73719624Y-15646179D01*
X73630113Y-15610081D01*
X73556359Y-15559466D01*
X73497233Y-15491637D01*
X73451603Y-15403897D01*
X73418340Y-15293546D01*
X73396313Y-15157889D01*
X73384392Y-14994226D01*
X73381367Y-14838811D01*
X73384402Y-14697253D01*
X73393624Y-14596200D01*
X73821333Y-14596200D01*
X73834249Y-14611677D01*
X73838267Y-14612133D01*
X73853127Y-14598350D01*
X73855200Y-14585734D01*
X73846991Y-14568207D01*
X73838267Y-14569800D01*
X73821979Y-14591449D01*
X73821333Y-14596200D01*
X73393624Y-14596200D01*
X73394492Y-14586691D01*
X73412356Y-14504852D01*
X73438714Y-14449465D01*
X73474286Y-14418256D01*
X73517501Y-14408933D01*
X73554593Y-14400939D01*
X73576898Y-14370772D01*
X73581729Y-14358133D01*
X73595523Y-14327313D01*
X73615919Y-14312386D01*
X73653954Y-14307700D01*
X73680752Y-14307428D01*
X73799153Y-14319538D01*
X73894511Y-14355234D01*
X73965954Y-14414016D01*
X74012608Y-14495382D01*
X74013668Y-14498315D01*
X74025508Y-14546344D01*
X74036488Y-14616848D01*
X74045020Y-14698442D01*
X74048199Y-14745920D01*
X74053376Y-14828414D01*
X74059849Y-14884583D01*
X74069241Y-14921967D01*
X74083174Y-14948104D01*
X74094665Y-14961820D01*
X74132037Y-15001600D01*
X74653058Y-15001600D01*
X74799447Y-15001553D01*
X74915674Y-15001243D01*
X75005442Y-15000416D01*
X75072456Y-14998815D01*
X75120421Y-14996187D01*
X75153040Y-14992278D01*
X75174017Y-14986832D01*
X75187058Y-14979594D01*
X75195865Y-14970310D01*
X75200440Y-14963966D01*
X75209606Y-14945572D01*
X75216451Y-14917157D01*
X75221281Y-14874194D01*
X75224407Y-14812159D01*
X75226135Y-14726525D01*
X75226774Y-14612766D01*
X75226800Y-14577021D01*
X75226628Y-14451646D01*
X75224788Y-14353556D01*
X75219292Y-14276170D01*
X75208155Y-14212907D01*
X75189388Y-14157187D01*
X75161005Y-14102429D01*
X75121020Y-14042054D01*
X75067444Y-13969479D01*
X75027399Y-13916616D01*
X74913533Y-13766390D01*
X74514071Y-13765928D01*
X74378541Y-13765249D01*
X74233555Y-13763622D01*
X74089489Y-13761225D01*
X73956717Y-13758237D01*
X73845612Y-13754834D01*
X73829095Y-13754206D01*
X73543582Y-13742946D01*
X73395214Y-13606186D01*
X73407204Y-12775660D01*
X73419193Y-11945133D01*
X73480563Y-11852108D01*
X73520685Y-11799257D01*
X73562851Y-11756038D01*
X73592285Y-11735070D01*
X73612640Y-11728685D01*
X73646970Y-11723060D01*
X73698020Y-11718054D01*
X73768535Y-11713526D01*
X73861259Y-11709337D01*
X73978937Y-11705346D01*
X74124314Y-11701412D01*
X74300135Y-11697395D01*
X74348520Y-11696374D01*
X74510953Y-11693235D01*
X74672155Y-11690565D01*
X74826881Y-11688419D01*
X74969886Y-11686854D01*
X75095926Y-11685924D01*
X75199756Y-11685686D01*
X75276131Y-11686194D01*
G36*
X55191687Y-14277417D02*
G01*
X55626466Y-14281933D01*
X55623238Y-14557001D01*
X55619809Y-14696032D01*
X55612138Y-14809342D01*
X55598702Y-14904969D01*
X55577980Y-14990949D01*
X55548447Y-15075319D01*
X55508584Y-15166116D01*
X55507392Y-15168643D01*
X55433394Y-15289336D01*
X55332607Y-15401025D01*
X55211892Y-15498541D01*
X55078108Y-15576717D01*
X54938116Y-15630383D01*
X54874855Y-15645172D01*
X54838254Y-15648678D01*
X54771945Y-15651680D01*
X54680085Y-15654181D01*
X54566830Y-15656181D01*
X54436336Y-15657681D01*
X54292759Y-15658681D01*
X54140254Y-15659182D01*
X53982978Y-15659185D01*
X53825087Y-15658691D01*
X53670736Y-15657700D01*
X53524081Y-15656213D01*
X53389279Y-15654231D01*
X53270485Y-15651755D01*
X53171856Y-15648784D01*
X53097546Y-15645321D01*
X53090240Y-15644858D01*
X53003404Y-15638055D01*
X52939109Y-15629269D01*
X52886038Y-15615785D01*
X52832874Y-15594890D01*
X52783017Y-15571184D01*
X52642082Y-15483604D01*
X52523906Y-15371193D01*
X52427840Y-15233288D01*
X52400653Y-15181611D01*
X52349386Y-15066637D01*
X52313229Y-14958186D01*
X52289284Y-14844497D01*
X52274655Y-14713808D01*
X52270770Y-14654277D01*
X52266746Y-14571222D01*
X52266032Y-14515260D01*
X52269260Y-14479722D01*
X52277062Y-14457940D01*
X52290070Y-14443246D01*
X52290826Y-14442612D01*
X52306172Y-14434559D01*
X52333178Y-14428111D01*
X52375623Y-14423017D01*
X52437282Y-14419022D01*
X52521934Y-14415873D01*
X52633354Y-14413317D01*
X52756418Y-14411357D01*
X53191636Y-14405310D01*
X53202320Y-14445222D01*
X53209095Y-14487299D01*
X53212973Y-14543634D01*
X53213299Y-14561333D01*
X53226117Y-14641700D01*
X53260343Y-14712246D01*
X53310581Y-14762408D01*
X53318394Y-14767096D01*
X53338182Y-14773279D01*
X53374879Y-14778298D01*
X53431202Y-14782249D01*
X53509867Y-14785227D01*
X53613592Y-14787328D01*
X53745095Y-14788648D01*
X53907091Y-14789283D01*
X53950696Y-14789344D01*
X54109372Y-14789385D01*
X54237737Y-14789051D01*
X54339347Y-14788174D01*
X54417757Y-14786588D01*
X54476521Y-14784126D01*
X54519195Y-14780623D01*
X54549334Y-14775912D01*
X54570493Y-14769826D01*
X54586228Y-14762199D01*
X54590737Y-14759380D01*
X54642288Y-14713891D01*
X54682544Y-14650108D01*
X54713198Y-14563802D01*
X54735942Y-14450741D01*
X54746252Y-14370550D01*
X54756908Y-14272900D01*
X55191687Y-14277417D01*
G37*
X55191687Y-14277417D02*
X55626466Y-14281933D01*
X55623238Y-14557001D01*
X55619809Y-14696032D01*
X55612138Y-14809342D01*
X55598702Y-14904969D01*
X55577980Y-14990949D01*
X55548447Y-15075319D01*
X55508584Y-15166116D01*
X55507392Y-15168643D01*
X55433394Y-15289336D01*
X55332607Y-15401025D01*
X55211892Y-15498541D01*
X55078108Y-15576717D01*
X54938116Y-15630383D01*
X54874855Y-15645172D01*
X54838254Y-15648678D01*
X54771945Y-15651680D01*
X54680085Y-15654181D01*
X54566830Y-15656181D01*
X54436336Y-15657681D01*
X54292759Y-15658681D01*
X54140254Y-15659182D01*
X53982978Y-15659185D01*
X53825087Y-15658691D01*
X53670736Y-15657700D01*
X53524081Y-15656213D01*
X53389279Y-15654231D01*
X53270485Y-15651755D01*
X53171856Y-15648784D01*
X53097546Y-15645321D01*
X53090240Y-15644858D01*
X53003404Y-15638055D01*
X52939109Y-15629269D01*
X52886038Y-15615785D01*
X52832874Y-15594890D01*
X52783017Y-15571184D01*
X52642082Y-15483604D01*
X52523906Y-15371193D01*
X52427840Y-15233288D01*
X52400653Y-15181611D01*
X52349386Y-15066637D01*
X52313229Y-14958186D01*
X52289284Y-14844497D01*
X52274655Y-14713808D01*
X52270770Y-14654277D01*
X52266746Y-14571222D01*
X52266032Y-14515260D01*
X52269260Y-14479722D01*
X52277062Y-14457940D01*
X52290070Y-14443246D01*
X52290826Y-14442612D01*
X52306172Y-14434559D01*
X52333178Y-14428111D01*
X52375623Y-14423017D01*
X52437282Y-14419022D01*
X52521934Y-14415873D01*
X52633354Y-14413317D01*
X52756418Y-14411357D01*
X53191636Y-14405310D01*
X53202320Y-14445222D01*
X53209095Y-14487299D01*
X53212973Y-14543634D01*
X53213299Y-14561333D01*
X53226117Y-14641700D01*
X53260343Y-14712246D01*
X53310581Y-14762408D01*
X53318394Y-14767096D01*
X53338182Y-14773279D01*
X53374879Y-14778298D01*
X53431202Y-14782249D01*
X53509867Y-14785227D01*
X53613592Y-14787328D01*
X53745095Y-14788648D01*
X53907091Y-14789283D01*
X53950696Y-14789344D01*
X54109372Y-14789385D01*
X54237737Y-14789051D01*
X54339347Y-14788174D01*
X54417757Y-14786588D01*
X54476521Y-14784126D01*
X54519195Y-14780623D01*
X54549334Y-14775912D01*
X54570493Y-14769826D01*
X54586228Y-14762199D01*
X54590737Y-14759380D01*
X54642288Y-14713891D01*
X54682544Y-14650108D01*
X54713198Y-14563802D01*
X54735942Y-14450741D01*
X54746252Y-14370550D01*
X54756908Y-14272900D01*
X55191687Y-14277417D01*
G36*
X61963767Y-15157982D02*
G01*
X62467533Y-15162467D01*
X62467298Y-15428556D01*
X62466181Y-15526033D01*
X62463229Y-15608067D01*
X62458764Y-15669297D01*
X62453108Y-15704359D01*
X62450364Y-15710079D01*
X62430136Y-15714067D01*
X62381378Y-15718200D01*
X62309424Y-15722339D01*
X62219609Y-15726343D01*
X62117269Y-15730073D01*
X62007739Y-15733388D01*
X61896353Y-15736147D01*
X61788446Y-15738211D01*
X61689354Y-15739439D01*
X61604411Y-15739691D01*
X61538953Y-15738827D01*
X61498314Y-15736707D01*
X61489633Y-15735330D01*
X61478743Y-15729518D01*
X61470880Y-15715730D01*
X61465560Y-15689156D01*
X61462302Y-15644989D01*
X61460622Y-15578421D01*
X61460036Y-15484644D01*
X61460000Y-15440373D01*
X61460000Y-15153496D01*
X61963767Y-15157982D01*
G37*
X61963767Y-15157982D02*
X62467533Y-15162467D01*
X62467298Y-15428556D01*
X62466181Y-15526033D01*
X62463229Y-15608067D01*
X62458764Y-15669297D01*
X62453108Y-15704359D01*
X62450364Y-15710079D01*
X62430136Y-15714067D01*
X62381378Y-15718200D01*
X62309424Y-15722339D01*
X62219609Y-15726343D01*
X62117269Y-15730073D01*
X62007739Y-15733388D01*
X61896353Y-15736147D01*
X61788446Y-15738211D01*
X61689354Y-15739439D01*
X61604411Y-15739691D01*
X61538953Y-15738827D01*
X61498314Y-15736707D01*
X61489633Y-15735330D01*
X61478743Y-15729518D01*
X61470880Y-15715730D01*
X61465560Y-15689156D01*
X61462302Y-15644989D01*
X61460622Y-15578421D01*
X61460036Y-15484644D01*
X61460000Y-15440373D01*
X61460000Y-15153496D01*
X61963767Y-15157982D01*
D11*
G36*
X123677107Y-132979772D02*
G01*
X123877293Y-133062692D01*
X123877295Y-133062693D01*
X123967251Y-133122800D01*
X124057458Y-133183074D01*
X124210676Y-133336292D01*
X124331058Y-133516457D01*
X124413978Y-133716643D01*
X124456250Y-133929158D01*
X124456250Y-134145842D01*
X124413978Y-134358357D01*
X124331058Y-134558543D01*
X124331057Y-134558545D01*
X124210675Y-134738709D01*
X124057459Y-134891925D01*
X123877295Y-135012307D01*
X123877294Y-135012308D01*
X123877293Y-135012308D01*
X123677107Y-135095228D01*
X123464592Y-135137500D01*
X123247908Y-135137500D01*
X123035393Y-135095228D01*
X122835207Y-135012308D01*
X122835206Y-135012308D01*
X122835205Y-135012307D01*
X122655041Y-134891925D01*
X122501825Y-134738709D01*
X122381443Y-134558545D01*
X122381442Y-134558543D01*
X122298522Y-134358357D01*
X122256250Y-134145842D01*
X122256250Y-133929158D01*
X122298522Y-133716643D01*
X122381442Y-133516457D01*
X122501824Y-133336292D01*
X122655042Y-133183074D01*
X122745249Y-133122800D01*
X122835205Y-133062693D01*
X122835207Y-133062692D01*
X123035393Y-132979772D01*
X123247908Y-132937500D01*
X123464592Y-132937500D01*
X123677107Y-132979772D01*
G37*
G36*
X64145857Y-132979772D02*
G01*
X64346043Y-133062692D01*
X64346045Y-133062693D01*
X64436001Y-133122800D01*
X64526208Y-133183074D01*
X64679426Y-133336292D01*
X64799808Y-133516457D01*
X64882728Y-133716643D01*
X64925000Y-133929158D01*
X64925000Y-134145842D01*
X64882728Y-134358357D01*
X64799808Y-134558543D01*
X64799807Y-134558545D01*
X64679425Y-134738709D01*
X64526209Y-134891925D01*
X64346045Y-135012307D01*
X64346044Y-135012308D01*
X64346043Y-135012308D01*
X64145857Y-135095228D01*
X63933342Y-135137500D01*
X63716658Y-135137500D01*
X63504143Y-135095228D01*
X63303957Y-135012308D01*
X63303956Y-135012308D01*
X63303955Y-135012307D01*
X63123791Y-134891925D01*
X62970575Y-134738709D01*
X62850193Y-134558545D01*
X62850192Y-134558543D01*
X62767272Y-134358357D01*
X62725000Y-134145842D01*
X62725000Y-133929158D01*
X62767272Y-133716643D01*
X62850192Y-133516457D01*
X62970574Y-133336292D01*
X63123792Y-133183074D01*
X63213999Y-133122800D01*
X63303955Y-133062693D01*
X63303957Y-133062692D01*
X63504143Y-132979772D01*
X63716658Y-132937500D01*
X63933342Y-132937500D01*
X64145857Y-132979772D01*
G37*
G36*
X110335673Y-115058311D02*
G01*
X110478664Y-115094958D01*
X114739084Y-116645624D01*
X123256840Y-119745833D01*
X123256845Y-119745835D01*
X123256844Y-119745835D01*
X123389949Y-119809679D01*
X123547516Y-119927877D01*
X123547519Y-119927881D01*
X123547521Y-119927882D01*
X123679008Y-120074555D01*
X123779355Y-120244063D01*
X123787057Y-120265966D01*
X123797413Y-120288173D01*
X123809238Y-120308148D01*
X123874587Y-120493977D01*
X123902427Y-120688981D01*
X123891689Y-120885674D01*
X123855042Y-121028664D01*
X123855038Y-121028675D01*
X119204166Y-133806839D01*
X119204164Y-133806843D01*
X119140322Y-133939944D01*
X119022119Y-134097519D01*
X118953275Y-134159235D01*
X118875444Y-134229008D01*
X118793177Y-134277709D01*
X118705937Y-134329354D01*
X118684036Y-134337056D01*
X118661829Y-134347412D01*
X118641852Y-134359238D01*
X118548938Y-134391912D01*
X118456024Y-134424587D01*
X118358521Y-134438507D01*
X118261019Y-134452427D01*
X118261018Y-134452427D01*
X118251791Y-134451923D01*
X118064326Y-134441689D01*
X117921336Y-134405042D01*
X117713385Y-134329354D01*
X105143161Y-129754166D01*
X105097716Y-129732368D01*
X105010056Y-129690322D01*
X104852481Y-129572119D01*
X104790765Y-129503275D01*
X104720992Y-129425444D01*
X104620646Y-129255937D01*
X104612944Y-129234036D01*
X104602588Y-129211829D01*
X104590762Y-129191852D01*
X104525413Y-129006023D01*
X104497573Y-128811018D01*
X104508311Y-128614327D01*
X104544958Y-128471336D01*
X104662917Y-128147244D01*
X106801397Y-128147244D01*
X106804860Y-128171502D01*
X106812989Y-128194619D01*
X106825472Y-128215705D01*
X106841829Y-128233951D01*
X106861431Y-128248655D01*
X106883523Y-128259252D01*
X117549051Y-132141186D01*
X117572777Y-132147266D01*
X117597244Y-132148602D01*
X117621502Y-132145139D01*
X117644619Y-132137010D01*
X117665705Y-132124527D01*
X117683951Y-132108170D01*
X117698655Y-132088568D01*
X117709253Y-132066474D01*
X118602335Y-129612752D01*
X121591185Y-121400952D01*
X121597266Y-121377222D01*
X121598602Y-121352755D01*
X121595139Y-121328497D01*
X121587010Y-121305380D01*
X121574527Y-121284294D01*
X121558170Y-121266048D01*
X121538568Y-121251344D01*
X121516483Y-121240751D01*
X110850952Y-117358814D01*
X110827223Y-117352733D01*
X110802756Y-117351397D01*
X110778498Y-117354860D01*
X110755381Y-117362989D01*
X110734295Y-117375472D01*
X110716049Y-117391829D01*
X110701345Y-117411431D01*
X110690749Y-117433521D01*
X106808814Y-128099048D01*
X106802733Y-128122777D01*
X106801397Y-128147244D01*
X104662917Y-128147244D01*
X107019493Y-121672607D01*
X109195833Y-115693160D01*
X109213333Y-115656675D01*
X109259679Y-115560051D01*
X109377877Y-115402484D01*
X109377881Y-115402481D01*
X109377882Y-115402479D01*
X109524555Y-115270992D01*
X109694063Y-115170645D01*
X109715970Y-115162941D01*
X109738173Y-115152587D01*
X109758148Y-115140762D01*
X109943977Y-115075413D01*
X110138982Y-115047573D01*
X110335673Y-115058311D01*
G37*
G36*
X80296032Y-116964469D02*
G01*
X80390285Y-116993061D01*
X80484535Y-117021651D01*
X80484537Y-117021652D01*
X80658258Y-117114507D01*
X80719184Y-117164508D01*
X80810528Y-117239472D01*
X80825260Y-117257423D01*
X80842577Y-117274740D01*
X80860528Y-117289472D01*
X80909358Y-117348972D01*
X80985493Y-117441742D01*
X81078348Y-117615463D01*
X81135531Y-117803968D01*
X81150000Y-117950876D01*
X81150000Y-131549124D01*
X81135531Y-131696032D01*
X81078348Y-131884537D01*
X80985493Y-132058258D01*
X80911349Y-132148602D01*
X80860528Y-132210528D01*
X80842577Y-132225260D01*
X80825260Y-132242577D01*
X80810528Y-132260528D01*
X80751028Y-132309358D01*
X80658258Y-132385493D01*
X80484537Y-132478348D01*
X80484535Y-132478349D01*
X80397212Y-132504838D01*
X80296032Y-132535531D01*
X80149124Y-132550000D01*
X66550876Y-132550000D01*
X66403968Y-132535531D01*
X66302788Y-132504838D01*
X66215465Y-132478349D01*
X66215463Y-132478348D01*
X66041742Y-132385493D01*
X65889472Y-132260528D01*
X65874740Y-132242577D01*
X65857418Y-132225255D01*
X65839473Y-132210528D01*
X65768894Y-132124527D01*
X65714508Y-132058258D01*
X65621653Y-131884537D01*
X65564470Y-131696032D01*
X65550001Y-131549124D01*
X65550001Y-119074999D01*
X67550000Y-119074999D01*
X67550000Y-130425001D01*
X67552402Y-130449387D01*
X67559515Y-130472836D01*
X67571066Y-130494447D01*
X67586611Y-130513389D01*
X67605553Y-130528934D01*
X67627164Y-130540485D01*
X67650613Y-130547598D01*
X67674999Y-130550000D01*
X79025002Y-130550000D01*
X79049388Y-130547598D01*
X79072837Y-130540485D01*
X79094448Y-130528934D01*
X79113390Y-130513389D01*
X79128935Y-130494447D01*
X79140486Y-130472836D01*
X79147599Y-130449387D01*
X79150001Y-130425001D01*
X79150000Y-119074999D01*
X79147598Y-119050613D01*
X79140485Y-119027164D01*
X79128934Y-119005553D01*
X79113389Y-118986611D01*
X79094447Y-118971066D01*
X79072836Y-118959515D01*
X79049387Y-118952402D01*
X79025001Y-118950000D01*
X67674999Y-118950000D01*
X67650613Y-118952402D01*
X67627164Y-118959515D01*
X67605553Y-118971066D01*
X67586611Y-118986611D01*
X67571066Y-119005553D01*
X67559515Y-119027164D01*
X67552402Y-119050613D01*
X67550000Y-119074999D01*
X65550001Y-119074999D01*
X65550000Y-117950877D01*
X65564469Y-117803969D01*
X65621652Y-117615464D01*
X65714507Y-117441742D01*
X65790642Y-117348972D01*
X65839472Y-117289472D01*
X65857423Y-117274740D01*
X65874740Y-117257423D01*
X65889472Y-117239472D01*
X65980816Y-117164508D01*
X66041742Y-117114507D01*
X66215463Y-117021652D01*
X66215465Y-117021651D01*
X66309715Y-116993061D01*
X66403968Y-116964469D01*
X66550876Y-116950000D01*
X80149124Y-116950000D01*
X80296032Y-116964469D01*
G37*
G36*
X58371031Y-116064469D02*
G01*
X58446953Y-116087500D01*
X58559534Y-116121651D01*
X58559536Y-116121652D01*
X58733258Y-116214507D01*
X58885528Y-116339472D01*
X59010493Y-116491742D01*
X59103350Y-116665466D01*
X59162752Y-116861287D01*
X59172129Y-116883925D01*
X59185743Y-116904300D01*
X59203070Y-116921627D01*
X59223444Y-116935240D01*
X59246083Y-116944618D01*
X59282368Y-116950000D01*
X60424124Y-116950000D01*
X60571032Y-116964469D01*
X60707170Y-117005766D01*
X60731202Y-117010546D01*
X60771031Y-117014469D01*
X60865284Y-117043061D01*
X60959534Y-117071651D01*
X60959536Y-117071652D01*
X61133258Y-117164507D01*
X61285528Y-117289472D01*
X61410493Y-117441742D01*
X61503348Y-117615463D01*
X61560531Y-117803968D01*
X61575000Y-117950876D01*
X61575000Y-131549124D01*
X61560531Y-131696032D01*
X61503348Y-131884537D01*
X61410493Y-132058258D01*
X61336349Y-132148602D01*
X61285528Y-132210528D01*
X61267577Y-132225260D01*
X61250260Y-132242577D01*
X61235528Y-132260528D01*
X61176028Y-132309358D01*
X61083258Y-132385493D01*
X60909537Y-132478348D01*
X60909535Y-132478349D01*
X60822212Y-132504838D01*
X60721032Y-132535531D01*
X60574124Y-132550000D01*
X28975876Y-132550000D01*
X28828968Y-132535531D01*
X28727788Y-132504838D01*
X28640465Y-132478349D01*
X28640463Y-132478348D01*
X28466742Y-132385493D01*
X28314472Y-132260528D01*
X28299740Y-132242577D01*
X28282418Y-132225255D01*
X28264473Y-132210528D01*
X28193894Y-132124527D01*
X28139508Y-132058258D01*
X28046653Y-131884537D01*
X27989470Y-131696032D01*
X27975001Y-131549124D01*
X27975001Y-119074999D01*
X29975000Y-119074999D01*
X29975000Y-130425001D01*
X29977402Y-130449387D01*
X29984515Y-130472836D01*
X29996066Y-130494447D01*
X30011611Y-130513389D01*
X30030553Y-130528934D01*
X30052164Y-130540485D01*
X30075613Y-130547598D01*
X30099999Y-130550000D01*
X59450002Y-130550000D01*
X59474388Y-130547598D01*
X59497837Y-130540485D01*
X59519448Y-130528934D01*
X59538390Y-130513389D01*
X59553935Y-130494447D01*
X59565486Y-130472836D01*
X59572599Y-130449387D01*
X59575001Y-130425001D01*
X59575000Y-119074999D01*
X59572598Y-119050613D01*
X59565485Y-119027164D01*
X59553934Y-119005553D01*
X59538389Y-118986611D01*
X59519447Y-118971066D01*
X59497836Y-118959515D01*
X59474387Y-118952402D01*
X59450001Y-118950000D01*
X58325876Y-118950000D01*
X58287252Y-118946196D01*
X58262748Y-118946196D01*
X58175000Y-118954838D01*
X57978969Y-118935531D01*
X57884717Y-118906940D01*
X57790466Y-118878349D01*
X57790464Y-118878348D01*
X57616743Y-118785493D01*
X57464473Y-118660528D01*
X57339508Y-118508258D01*
X57246651Y-118334534D01*
X57187248Y-118138713D01*
X57177871Y-118116074D01*
X57164257Y-118095700D01*
X57146930Y-118078373D01*
X57126555Y-118064759D01*
X57103916Y-118055382D01*
X57067632Y-118050000D01*
X56382368Y-118050000D01*
X56357982Y-118052402D01*
X56334533Y-118059515D01*
X56312922Y-118071066D01*
X56293980Y-118086611D01*
X56278435Y-118105553D01*
X56262752Y-118138713D01*
X56203350Y-118334534D01*
X56110493Y-118508258D01*
X55985528Y-118660528D01*
X55833258Y-118785493D01*
X55659537Y-118878348D01*
X55659535Y-118878349D01*
X55565284Y-118906940D01*
X55471032Y-118935531D01*
X55275000Y-118954838D01*
X55231988Y-118950602D01*
X55219736Y-118950000D01*
X34330264Y-118950000D01*
X34318012Y-118950602D01*
X34275000Y-118954838D01*
X34078969Y-118935531D01*
X33984717Y-118906940D01*
X33890466Y-118878349D01*
X33890464Y-118878348D01*
X33716743Y-118785493D01*
X33564473Y-118660528D01*
X33439508Y-118508258D01*
X33346651Y-118334534D01*
X33287248Y-118138713D01*
X33277871Y-118116074D01*
X33264257Y-118095700D01*
X33246930Y-118078373D01*
X33226555Y-118064759D01*
X33203916Y-118055382D01*
X33167632Y-118050000D01*
X32482368Y-118050000D01*
X32457982Y-118052402D01*
X32434533Y-118059515D01*
X32412922Y-118071066D01*
X32393980Y-118086611D01*
X32378435Y-118105553D01*
X32362752Y-118138713D01*
X32303350Y-118334534D01*
X32210493Y-118508258D01*
X32085528Y-118660528D01*
X31933258Y-118785493D01*
X31759537Y-118878348D01*
X31759535Y-118878349D01*
X31665284Y-118906940D01*
X31571032Y-118935531D01*
X31375000Y-118954838D01*
X31287252Y-118946196D01*
X31262748Y-118946196D01*
X31224124Y-118950000D01*
X30099999Y-118950000D01*
X30075613Y-118952402D01*
X30052164Y-118959515D01*
X30030553Y-118971066D01*
X30011611Y-118986611D01*
X29996066Y-119005553D01*
X29984515Y-119027164D01*
X29977402Y-119050613D01*
X29975000Y-119074999D01*
X27975001Y-119074999D01*
X27975000Y-117950877D01*
X27989469Y-117803969D01*
X28046652Y-117615464D01*
X28139507Y-117441742D01*
X28264472Y-117289472D01*
X28416742Y-117164507D01*
X28590463Y-117071652D01*
X28590465Y-117071651D01*
X28684715Y-117043061D01*
X28778968Y-117014469D01*
X28818798Y-117010546D01*
X28842831Y-117005766D01*
X28978968Y-116964469D01*
X29125876Y-116950000D01*
X30267633Y-116950000D01*
X30292019Y-116947598D01*
X30315468Y-116940485D01*
X30337079Y-116928934D01*
X30356021Y-116913389D01*
X30371566Y-116894447D01*
X30383117Y-116872836D01*
X30387250Y-116861286D01*
X30446652Y-116665463D01*
X30539507Y-116491742D01*
X30664472Y-116339472D01*
X30816742Y-116214507D01*
X30990463Y-116121652D01*
X30990465Y-116121651D01*
X31103046Y-116087500D01*
X31178968Y-116064469D01*
X31375000Y-116045162D01*
X31418012Y-116049398D01*
X31430264Y-116050000D01*
X34219736Y-116050000D01*
X34231988Y-116049398D01*
X34275000Y-116045162D01*
X34471031Y-116064469D01*
X34546953Y-116087500D01*
X34659534Y-116121651D01*
X34659536Y-116121652D01*
X34833258Y-116214507D01*
X34985528Y-116339472D01*
X35110493Y-116491742D01*
X35203350Y-116665466D01*
X35262752Y-116861287D01*
X35272129Y-116883925D01*
X35285743Y-116904300D01*
X35303070Y-116921627D01*
X35323444Y-116935240D01*
X35346083Y-116944618D01*
X35382368Y-116950000D01*
X54167633Y-116950000D01*
X54192019Y-116947598D01*
X54215468Y-116940485D01*
X54237079Y-116928934D01*
X54256021Y-116913389D01*
X54271566Y-116894447D01*
X54283117Y-116872836D01*
X54287250Y-116861286D01*
X54346652Y-116665463D01*
X54439507Y-116491742D01*
X54564472Y-116339472D01*
X54716742Y-116214507D01*
X54890463Y-116121652D01*
X54890465Y-116121651D01*
X55003046Y-116087500D01*
X55078968Y-116064469D01*
X55275000Y-116045162D01*
X55318012Y-116049398D01*
X55330264Y-116050000D01*
X58119736Y-116050000D01*
X58131988Y-116049398D01*
X58175000Y-116045162D01*
X58371031Y-116064469D01*
G37*
G36*
X99346032Y-98439469D02*
G01*
X99440285Y-98468061D01*
X99534535Y-98496651D01*
X99534537Y-98496652D01*
X99708258Y-98589507D01*
X99769184Y-98639508D01*
X99860528Y-98714472D01*
X99875260Y-98732423D01*
X99892577Y-98749740D01*
X99910528Y-98764472D01*
X99931074Y-98789508D01*
X100035493Y-98916742D01*
X100128348Y-99090463D01*
X100185531Y-99278968D01*
X100200000Y-99425876D01*
X100200000Y-131024124D01*
X100185531Y-131171032D01*
X100128348Y-131359537D01*
X100035493Y-131533258D01*
X99959358Y-131626028D01*
X99910528Y-131685528D01*
X99892577Y-131700260D01*
X99875260Y-131717577D01*
X99860528Y-131735528D01*
X99801028Y-131784358D01*
X99708258Y-131860493D01*
X99534537Y-131953348D01*
X99534535Y-131953349D01*
X99447212Y-131979838D01*
X99346032Y-132010531D01*
X99199124Y-132025000D01*
X85600876Y-132025000D01*
X85453968Y-132010531D01*
X85352788Y-131979838D01*
X85265465Y-131953349D01*
X85265463Y-131953348D01*
X85091742Y-131860493D01*
X84939472Y-131735528D01*
X84814507Y-131583258D01*
X84721652Y-131409537D01*
X84704795Y-131353966D01*
X84664470Y-131221034D01*
X84664469Y-131221032D01*
X84660546Y-131181198D01*
X84655765Y-131157164D01*
X84614470Y-131021035D01*
X84600001Y-130874124D01*
X84600000Y-129732368D01*
X84597598Y-129707982D01*
X84590485Y-129684533D01*
X84578934Y-129662922D01*
X84563389Y-129643980D01*
X84544447Y-129628435D01*
X84511287Y-129612752D01*
X84315466Y-129553350D01*
X84141742Y-129460493D01*
X83989472Y-129335528D01*
X83864507Y-129183258D01*
X83771652Y-129009537D01*
X83714469Y-128821032D01*
X83695162Y-128625000D01*
X83699399Y-128581978D01*
X83700001Y-128569726D01*
X83700000Y-125780264D01*
X83699398Y-125768012D01*
X83695162Y-125725000D01*
X83714469Y-125528968D01*
X83771652Y-125340463D01*
X83864507Y-125166742D01*
X83989472Y-125014472D01*
X84141742Y-124889507D01*
X84315463Y-124796652D01*
X84315465Y-124796651D01*
X84444217Y-124757595D01*
X84511287Y-124737249D01*
X84533926Y-124727871D01*
X84554301Y-124714257D01*
X84571628Y-124696930D01*
X84585241Y-124676556D01*
X84594619Y-124653917D01*
X84600001Y-124617632D01*
X84600000Y-105832368D01*
X84597598Y-105807982D01*
X84590485Y-105784533D01*
X84578934Y-105762922D01*
X84563389Y-105743980D01*
X84544447Y-105728435D01*
X84511287Y-105712752D01*
X84315466Y-105653350D01*
X84141742Y-105560493D01*
X83989472Y-105435528D01*
X83864507Y-105283258D01*
X83771652Y-105109537D01*
X83714469Y-104921032D01*
X83695162Y-104725000D01*
X83699399Y-104681978D01*
X83700001Y-104669726D01*
X83700001Y-102932368D01*
X85700000Y-102932368D01*
X85700000Y-103617632D01*
X85702402Y-103642018D01*
X85709515Y-103665467D01*
X85721066Y-103687078D01*
X85736611Y-103706020D01*
X85755553Y-103721565D01*
X85788713Y-103737248D01*
X85984534Y-103796650D01*
X86158258Y-103889507D01*
X86310528Y-104014472D01*
X86435493Y-104166742D01*
X86462218Y-104216742D01*
X86528349Y-104340465D01*
X86556940Y-104434716D01*
X86585531Y-104528968D01*
X86604838Y-104725000D01*
X86600602Y-104768012D01*
X86600000Y-104780264D01*
X86600000Y-125669736D01*
X86600602Y-125681988D01*
X86604838Y-125725000D01*
X86585531Y-125921032D01*
X86528348Y-126109537D01*
X86435493Y-126283258D01*
X86310528Y-126435528D01*
X86158258Y-126560493D01*
X85984534Y-126653350D01*
X85788713Y-126712752D01*
X85766075Y-126722129D01*
X85745700Y-126735743D01*
X85728373Y-126753070D01*
X85714760Y-126773444D01*
X85705382Y-126796083D01*
X85700000Y-126832368D01*
X85700000Y-127517632D01*
X85702402Y-127542018D01*
X85709515Y-127565467D01*
X85721066Y-127587078D01*
X85736611Y-127606020D01*
X85755553Y-127621565D01*
X85788713Y-127637248D01*
X85984534Y-127696650D01*
X86158258Y-127789507D01*
X86310528Y-127914472D01*
X86435493Y-128066742D01*
X86528348Y-128240463D01*
X86585531Y-128428968D01*
X86604838Y-128625000D01*
X86596196Y-128712748D01*
X86596196Y-128737252D01*
X86600000Y-128775876D01*
X86600000Y-129900001D01*
X86602402Y-129924387D01*
X86609515Y-129947836D01*
X86621066Y-129969447D01*
X86636611Y-129988389D01*
X86655553Y-130003934D01*
X86677164Y-130015485D01*
X86700613Y-130022598D01*
X86724999Y-130025000D01*
X98075002Y-130025000D01*
X98099388Y-130022598D01*
X98122837Y-130015485D01*
X98144448Y-130003934D01*
X98163390Y-129988389D01*
X98178935Y-129969447D01*
X98190486Y-129947836D01*
X98197599Y-129924387D01*
X98200001Y-129900001D01*
X98200000Y-100549999D01*
X98197598Y-100525613D01*
X98190485Y-100502164D01*
X98178934Y-100480553D01*
X98163389Y-100461611D01*
X98144447Y-100446066D01*
X98122836Y-100434515D01*
X98099387Y-100427402D01*
X98075001Y-100425000D01*
X86724999Y-100425000D01*
X86700613Y-100427402D01*
X86677164Y-100434515D01*
X86655553Y-100446066D01*
X86636611Y-100461611D01*
X86621066Y-100480553D01*
X86609515Y-100502164D01*
X86602402Y-100525613D01*
X86600000Y-100549999D01*
X86600000Y-101674124D01*
X86596196Y-101712748D01*
X86596196Y-101737252D01*
X86604838Y-101825000D01*
X86585531Y-102021032D01*
X86528348Y-102209537D01*
X86435493Y-102383258D01*
X86310528Y-102535528D01*
X86158258Y-102660493D01*
X85984534Y-102753350D01*
X85788713Y-102812752D01*
X85766075Y-102822129D01*
X85745700Y-102835743D01*
X85728373Y-102853070D01*
X85714760Y-102873444D01*
X85705382Y-102896083D01*
X85700000Y-102932368D01*
X83700001Y-102932368D01*
X83700000Y-101880264D01*
X83699398Y-101868012D01*
X83695162Y-101825000D01*
X83714469Y-101628968D01*
X83771652Y-101440463D01*
X83864507Y-101266742D01*
X83989472Y-101114472D01*
X84141742Y-100989507D01*
X84315463Y-100896652D01*
X84315465Y-100896651D01*
X84444217Y-100857595D01*
X84511287Y-100837249D01*
X84533926Y-100827871D01*
X84554301Y-100814257D01*
X84571628Y-100796930D01*
X84585241Y-100776556D01*
X84594619Y-100753917D01*
X84600001Y-100717632D01*
X84600001Y-100605674D01*
X84600000Y-99575881D01*
X84603325Y-99542119D01*
X84614469Y-99428969D01*
X84655766Y-99292832D01*
X84660546Y-99268799D01*
X84664469Y-99228968D01*
X84693061Y-99134715D01*
X84721651Y-99040465D01*
X84787782Y-98916742D01*
X84814507Y-98866742D01*
X84939472Y-98714472D01*
X85091742Y-98589507D01*
X85265463Y-98496652D01*
X85265465Y-98496651D01*
X85359715Y-98468061D01*
X85453968Y-98439469D01*
X85600876Y-98425000D01*
X99199124Y-98425000D01*
X99346032Y-98439469D01*
G37*
G36*
X26045857Y-113929772D02*
G01*
X26246043Y-114012692D01*
X26246045Y-114012693D01*
X26300912Y-114049354D01*
X26426208Y-114133074D01*
X26579426Y-114286292D01*
X26699808Y-114466457D01*
X26782728Y-114666643D01*
X26825000Y-114879158D01*
X26825000Y-115095842D01*
X26782728Y-115308357D01*
X26699808Y-115508543D01*
X26579426Y-115688708D01*
X26426208Y-115841926D01*
X26341397Y-115898595D01*
X26246045Y-115962307D01*
X26246044Y-115962308D01*
X26246043Y-115962308D01*
X26045857Y-116045228D01*
X25833342Y-116087500D01*
X25616658Y-116087500D01*
X25404143Y-116045228D01*
X25203957Y-115962308D01*
X25203956Y-115962308D01*
X25203955Y-115962307D01*
X25108603Y-115898595D01*
X25023792Y-115841926D01*
X24870574Y-115688708D01*
X24750192Y-115508543D01*
X24667272Y-115308357D01*
X24625000Y-115095842D01*
X24625000Y-114879158D01*
X24667272Y-114666643D01*
X24750192Y-114466457D01*
X24870574Y-114286292D01*
X25023792Y-114133074D01*
X25149088Y-114049354D01*
X25203955Y-114012693D01*
X25203957Y-114012692D01*
X25404143Y-113929772D01*
X25616658Y-113887500D01*
X25833342Y-113887500D01*
X26045857Y-113929772D01*
G37*
G36*
X110335673Y-94778311D02*
G01*
X110478664Y-94814958D01*
X113227037Y-95815284D01*
X123256840Y-99465833D01*
X123256845Y-99465835D01*
X123256844Y-99465835D01*
X123389949Y-99529679D01*
X123547516Y-99647877D01*
X123547519Y-99647881D01*
X123547521Y-99647882D01*
X123679008Y-99794555D01*
X123779355Y-99964063D01*
X123783962Y-99977164D01*
X123787057Y-99985966D01*
X123797413Y-100008173D01*
X123809238Y-100028148D01*
X123809238Y-100028149D01*
X123847000Y-100135528D01*
X123874587Y-100213977D01*
X123902427Y-100408981D01*
X123891689Y-100605674D01*
X123855042Y-100748664D01*
X123855038Y-100748675D01*
X119204166Y-113526839D01*
X119204164Y-113526843D01*
X119140322Y-113659944D01*
X119022119Y-113817519D01*
X118988782Y-113847404D01*
X118875444Y-113949008D01*
X118705937Y-114049354D01*
X118684036Y-114057056D01*
X118661829Y-114067412D01*
X118641852Y-114079238D01*
X118548938Y-114111912D01*
X118456024Y-114144587D01*
X118358521Y-114158507D01*
X118261019Y-114172427D01*
X118261018Y-114172427D01*
X118251791Y-114171923D01*
X118064326Y-114161689D01*
X117921336Y-114125042D01*
X117612657Y-114012692D01*
X105143161Y-109474166D01*
X105120359Y-109463229D01*
X105010056Y-109410322D01*
X104852481Y-109292119D01*
X104790765Y-109223275D01*
X104720992Y-109145444D01*
X104620646Y-108975937D01*
X104612944Y-108954036D01*
X104602588Y-108931829D01*
X104590762Y-108911852D01*
X104525413Y-108726023D01*
X104497573Y-108531018D01*
X104508311Y-108334327D01*
X104544958Y-108191336D01*
X104662917Y-107867244D01*
X106801397Y-107867244D01*
X106804860Y-107891502D01*
X106812989Y-107914619D01*
X106825472Y-107935705D01*
X106841829Y-107953951D01*
X106861431Y-107968655D01*
X106883523Y-107979252D01*
X117549051Y-111861186D01*
X117572777Y-111867266D01*
X117597244Y-111868602D01*
X117621502Y-111865139D01*
X117644619Y-111857010D01*
X117665705Y-111844527D01*
X117683951Y-111828170D01*
X117698655Y-111808568D01*
X117709253Y-111786474D01*
X118894142Y-108531018D01*
X121591185Y-101120952D01*
X121597266Y-101097222D01*
X121598602Y-101072755D01*
X121595139Y-101048497D01*
X121587010Y-101025380D01*
X121574527Y-101004294D01*
X121558170Y-100986048D01*
X121538568Y-100971344D01*
X121516483Y-100960751D01*
X110850952Y-97078814D01*
X110827223Y-97072733D01*
X110802756Y-97071397D01*
X110778498Y-97074860D01*
X110755381Y-97082989D01*
X110734295Y-97095472D01*
X110716049Y-97111829D01*
X110701345Y-97131431D01*
X110690749Y-97153521D01*
X106808814Y-107819048D01*
X106802733Y-107842777D01*
X106801397Y-107867244D01*
X104662917Y-107867244D01*
X106494234Y-102835743D01*
X109195833Y-95413160D01*
X109213333Y-95376675D01*
X109259679Y-95280051D01*
X109377877Y-95122484D01*
X109377881Y-95122481D01*
X109377882Y-95122479D01*
X109524555Y-94990992D01*
X109694063Y-94890645D01*
X109715970Y-94882941D01*
X109738173Y-94872587D01*
X109758148Y-94860762D01*
X109943977Y-94795413D01*
X110138982Y-94767573D01*
X110335673Y-94778311D01*
G37*
G36*
X61246032Y-97914469D02*
G01*
X61340284Y-97943060D01*
X61434535Y-97971651D01*
X61434537Y-97971652D01*
X61608258Y-98064507D01*
X61669184Y-98114508D01*
X61760528Y-98189472D01*
X61775260Y-98207423D01*
X61792577Y-98224740D01*
X61810528Y-98239472D01*
X61859358Y-98298972D01*
X61935493Y-98391742D01*
X62028348Y-98565463D01*
X62085531Y-98753968D01*
X62100000Y-98900876D01*
X62100000Y-112499124D01*
X62085531Y-112646032D01*
X62028348Y-112834537D01*
X61935493Y-113008258D01*
X61859358Y-113101028D01*
X61810528Y-113160528D01*
X61792577Y-113175260D01*
X61775260Y-113192577D01*
X61760528Y-113210528D01*
X61701028Y-113259358D01*
X61608258Y-113335493D01*
X61434537Y-113428348D01*
X61434535Y-113428349D01*
X61347212Y-113454838D01*
X61246032Y-113485531D01*
X61099124Y-113500000D01*
X47500876Y-113500000D01*
X47353968Y-113485531D01*
X47252788Y-113454838D01*
X47165465Y-113428349D01*
X47165463Y-113428348D01*
X46991742Y-113335493D01*
X46839472Y-113210528D01*
X46824740Y-113192577D01*
X46807418Y-113175255D01*
X46789473Y-113160528D01*
X46733145Y-113091891D01*
X46664508Y-113008258D01*
X46571653Y-112834537D01*
X46514470Y-112646032D01*
X46500001Y-112499124D01*
X46500001Y-100024999D01*
X48500000Y-100024999D01*
X48500000Y-111375001D01*
X48502402Y-111399387D01*
X48509515Y-111422836D01*
X48521066Y-111444447D01*
X48536611Y-111463389D01*
X48555553Y-111478934D01*
X48577164Y-111490485D01*
X48600613Y-111497598D01*
X48624999Y-111500000D01*
X59975002Y-111500000D01*
X59999388Y-111497598D01*
X60022837Y-111490485D01*
X60044448Y-111478934D01*
X60063390Y-111463389D01*
X60078935Y-111444447D01*
X60090486Y-111422836D01*
X60097599Y-111399387D01*
X60100001Y-111375001D01*
X60100000Y-100024999D01*
X60097598Y-100000613D01*
X60090485Y-99977164D01*
X60078934Y-99955553D01*
X60063389Y-99936611D01*
X60044447Y-99921066D01*
X60022836Y-99909515D01*
X59999387Y-99902402D01*
X59975001Y-99900000D01*
X48624999Y-99900000D01*
X48600613Y-99902402D01*
X48577164Y-99909515D01*
X48555553Y-99921066D01*
X48536611Y-99936611D01*
X48521066Y-99955553D01*
X48509515Y-99977164D01*
X48502402Y-100000613D01*
X48500000Y-100024999D01*
X46500001Y-100024999D01*
X46500000Y-98900877D01*
X46514469Y-98753969D01*
X46564358Y-98589508D01*
X46571651Y-98565466D01*
X46598377Y-98515465D01*
X46664507Y-98391742D01*
X46740642Y-98298972D01*
X46789472Y-98239472D01*
X46807423Y-98224740D01*
X46824740Y-98207423D01*
X46839472Y-98189472D01*
X46930816Y-98114508D01*
X46991742Y-98064507D01*
X47165463Y-97971652D01*
X47165465Y-97971651D01*
X47259716Y-97943060D01*
X47353968Y-97914469D01*
X47500876Y-97900000D01*
X61099124Y-97900000D01*
X61246032Y-97914469D01*
G37*
G36*
X80296032Y-97914469D02*
G01*
X80390284Y-97943060D01*
X80484535Y-97971651D01*
X80484537Y-97971652D01*
X80658258Y-98064507D01*
X80719184Y-98114508D01*
X80810528Y-98189472D01*
X80825260Y-98207423D01*
X80842577Y-98224740D01*
X80860528Y-98239472D01*
X80909358Y-98298972D01*
X80985493Y-98391742D01*
X81078348Y-98565463D01*
X81135531Y-98753968D01*
X81150000Y-98900876D01*
X81150000Y-112499124D01*
X81135531Y-112646032D01*
X81078348Y-112834537D01*
X80985493Y-113008258D01*
X80909358Y-113101028D01*
X80860528Y-113160528D01*
X80842577Y-113175260D01*
X80825260Y-113192577D01*
X80810528Y-113210528D01*
X80751028Y-113259358D01*
X80658258Y-113335493D01*
X80484537Y-113428348D01*
X80484535Y-113428349D01*
X80397212Y-113454838D01*
X80296032Y-113485531D01*
X80149124Y-113500000D01*
X66550876Y-113500000D01*
X66403968Y-113485531D01*
X66302788Y-113454838D01*
X66215465Y-113428349D01*
X66215463Y-113428348D01*
X66041742Y-113335493D01*
X65889472Y-113210528D01*
X65874740Y-113192577D01*
X65857418Y-113175255D01*
X65839473Y-113160528D01*
X65783145Y-113091891D01*
X65714508Y-113008258D01*
X65621653Y-112834537D01*
X65564470Y-112646032D01*
X65550001Y-112499124D01*
X65550001Y-100024999D01*
X67550000Y-100024999D01*
X67550000Y-111375001D01*
X67552402Y-111399387D01*
X67559515Y-111422836D01*
X67571066Y-111444447D01*
X67586611Y-111463389D01*
X67605553Y-111478934D01*
X67627164Y-111490485D01*
X67650613Y-111497598D01*
X67674999Y-111500000D01*
X79025002Y-111500000D01*
X79049388Y-111497598D01*
X79072837Y-111490485D01*
X79094448Y-111478934D01*
X79113390Y-111463389D01*
X79128935Y-111444447D01*
X79140486Y-111422836D01*
X79147599Y-111399387D01*
X79150001Y-111375001D01*
X79150000Y-100024999D01*
X79147598Y-100000613D01*
X79140485Y-99977164D01*
X79128934Y-99955553D01*
X79113389Y-99936611D01*
X79094447Y-99921066D01*
X79072836Y-99909515D01*
X79049387Y-99902402D01*
X79025001Y-99900000D01*
X67674999Y-99900000D01*
X67650613Y-99902402D01*
X67627164Y-99909515D01*
X67605553Y-99921066D01*
X67586611Y-99936611D01*
X67571066Y-99955553D01*
X67559515Y-99977164D01*
X67552402Y-100000613D01*
X67550000Y-100024999D01*
X65550001Y-100024999D01*
X65550000Y-98900877D01*
X65564469Y-98753969D01*
X65614358Y-98589508D01*
X65621651Y-98565466D01*
X65648377Y-98515465D01*
X65714507Y-98391742D01*
X65790642Y-98298972D01*
X65839472Y-98239472D01*
X65857423Y-98224740D01*
X65874740Y-98207423D01*
X65889472Y-98189472D01*
X65980816Y-98114508D01*
X66041742Y-98064507D01*
X66215463Y-97971652D01*
X66215465Y-97971651D01*
X66309716Y-97943060D01*
X66403968Y-97914469D01*
X66550876Y-97900000D01*
X80149124Y-97900000D01*
X80296032Y-97914469D01*
G37*
G36*
X42196032Y-97914469D02*
G01*
X42290284Y-97943060D01*
X42384535Y-97971651D01*
X42384537Y-97971652D01*
X42558258Y-98064507D01*
X42619184Y-98114508D01*
X42710528Y-98189472D01*
X42725260Y-98207423D01*
X42742577Y-98224740D01*
X42760528Y-98239472D01*
X42809358Y-98298972D01*
X42885493Y-98391742D01*
X42978348Y-98565463D01*
X43035531Y-98753968D01*
X43050000Y-98900876D01*
X43050000Y-112499124D01*
X43035531Y-112646032D01*
X42978348Y-112834537D01*
X42885493Y-113008258D01*
X42809358Y-113101028D01*
X42760528Y-113160528D01*
X42742577Y-113175260D01*
X42725260Y-113192577D01*
X42710528Y-113210528D01*
X42651028Y-113259358D01*
X42558258Y-113335493D01*
X42384537Y-113428348D01*
X42384535Y-113428349D01*
X42297212Y-113454838D01*
X42196032Y-113485531D01*
X42049124Y-113500000D01*
X28450876Y-113500000D01*
X28303968Y-113485531D01*
X28202788Y-113454838D01*
X28115465Y-113428349D01*
X28115463Y-113428348D01*
X27941742Y-113335493D01*
X27789472Y-113210528D01*
X27774740Y-113192577D01*
X27757418Y-113175255D01*
X27739473Y-113160528D01*
X27683145Y-113091891D01*
X27614508Y-113008258D01*
X27521653Y-112834537D01*
X27464470Y-112646032D01*
X27450001Y-112499124D01*
X27450001Y-100024999D01*
X29450000Y-100024999D01*
X29450000Y-111375001D01*
X29452402Y-111399387D01*
X29459515Y-111422836D01*
X29471066Y-111444447D01*
X29486611Y-111463389D01*
X29505553Y-111478934D01*
X29527164Y-111490485D01*
X29550613Y-111497598D01*
X29574999Y-111500000D01*
X40925002Y-111500000D01*
X40949388Y-111497598D01*
X40972837Y-111490485D01*
X40994448Y-111478934D01*
X41013390Y-111463389D01*
X41028935Y-111444447D01*
X41040486Y-111422836D01*
X41047599Y-111399387D01*
X41050001Y-111375001D01*
X41050000Y-100024999D01*
X41047598Y-100000613D01*
X41040485Y-99977164D01*
X41028934Y-99955553D01*
X41013389Y-99936611D01*
X40994447Y-99921066D01*
X40972836Y-99909515D01*
X40949387Y-99902402D01*
X40925001Y-99900000D01*
X29574999Y-99900000D01*
X29550613Y-99902402D01*
X29527164Y-99909515D01*
X29505553Y-99921066D01*
X29486611Y-99936611D01*
X29471066Y-99955553D01*
X29459515Y-99977164D01*
X29452402Y-100000613D01*
X29450000Y-100024999D01*
X27450001Y-100024999D01*
X27450000Y-98900877D01*
X27464469Y-98753969D01*
X27514358Y-98589508D01*
X27521651Y-98565466D01*
X27548377Y-98515465D01*
X27614507Y-98391742D01*
X27690642Y-98298972D01*
X27739472Y-98239472D01*
X27757423Y-98224740D01*
X27774740Y-98207423D01*
X27789472Y-98189472D01*
X27880816Y-98114508D01*
X27941742Y-98064507D01*
X28115463Y-97971652D01*
X28115465Y-97971651D01*
X28209716Y-97943060D01*
X28303968Y-97914469D01*
X28450876Y-97900000D01*
X42049124Y-97900000D01*
X42196032Y-97914469D01*
G37*
G36*
X42196032Y-78864469D02*
G01*
X42290284Y-78893060D01*
X42384535Y-78921651D01*
X42384537Y-78921652D01*
X42558258Y-79014507D01*
X42619184Y-79064508D01*
X42710528Y-79139472D01*
X42725260Y-79157423D01*
X42742577Y-79174740D01*
X42760528Y-79189472D01*
X42809358Y-79248972D01*
X42885493Y-79341742D01*
X42978348Y-79515463D01*
X43035531Y-79703968D01*
X43050000Y-79850876D01*
X43050000Y-93449124D01*
X43035531Y-93596032D01*
X43020363Y-93646034D01*
X42980510Y-93777412D01*
X42978348Y-93784537D01*
X42885493Y-93958258D01*
X42809358Y-94051028D01*
X42760528Y-94110528D01*
X42742577Y-94125260D01*
X42725260Y-94142577D01*
X42710528Y-94160528D01*
X42651028Y-94209358D01*
X42558258Y-94285493D01*
X42384537Y-94378348D01*
X42384535Y-94378349D01*
X42297212Y-94404838D01*
X42196032Y-94435531D01*
X42049124Y-94450000D01*
X28450876Y-94450000D01*
X28303968Y-94435531D01*
X28202788Y-94404838D01*
X28115465Y-94378349D01*
X28115463Y-94378348D01*
X27941742Y-94285493D01*
X27789472Y-94160528D01*
X27774740Y-94142577D01*
X27757418Y-94125255D01*
X27739473Y-94110528D01*
X27683145Y-94041891D01*
X27614508Y-93958258D01*
X27521653Y-93784537D01*
X27519492Y-93777412D01*
X27479638Y-93646034D01*
X27464470Y-93596032D01*
X27450001Y-93449124D01*
X27450001Y-80974999D01*
X29450000Y-80974999D01*
X29450000Y-92325001D01*
X29452402Y-92349387D01*
X29459515Y-92372836D01*
X29471066Y-92394447D01*
X29486611Y-92413389D01*
X29505553Y-92428934D01*
X29527164Y-92440485D01*
X29550613Y-92447598D01*
X29574999Y-92450000D01*
X40925002Y-92450000D01*
X40949388Y-92447598D01*
X40972837Y-92440485D01*
X40994448Y-92428934D01*
X41013390Y-92413389D01*
X41028935Y-92394447D01*
X41040486Y-92372836D01*
X41047599Y-92349387D01*
X41050001Y-92325001D01*
X41050000Y-80974999D01*
X41047598Y-80950613D01*
X41040485Y-80927164D01*
X41028934Y-80905553D01*
X41013389Y-80886611D01*
X40994447Y-80871066D01*
X40972836Y-80859515D01*
X40949387Y-80852402D01*
X40925001Y-80850000D01*
X29574999Y-80850000D01*
X29550613Y-80852402D01*
X29527164Y-80859515D01*
X29505553Y-80871066D01*
X29486611Y-80886611D01*
X29471066Y-80905553D01*
X29459515Y-80927164D01*
X29452402Y-80950613D01*
X29450000Y-80974999D01*
X27450001Y-80974999D01*
X27450000Y-79850877D01*
X27464469Y-79703969D01*
X27521652Y-79515464D01*
X27614507Y-79341742D01*
X27690642Y-79248972D01*
X27739472Y-79189472D01*
X27757423Y-79174740D01*
X27774740Y-79157423D01*
X27789472Y-79139472D01*
X27880816Y-79064508D01*
X27941742Y-79014507D01*
X28115463Y-78921652D01*
X28115465Y-78921651D01*
X28209715Y-78893061D01*
X28303968Y-78864469D01*
X28450876Y-78850000D01*
X42049124Y-78850000D01*
X42196032Y-78864469D01*
G37*
G36*
X80296032Y-78864469D02*
G01*
X80390284Y-78893060D01*
X80484535Y-78921651D01*
X80484537Y-78921652D01*
X80658258Y-79014507D01*
X80719184Y-79064508D01*
X80810528Y-79139472D01*
X80825260Y-79157423D01*
X80842577Y-79174740D01*
X80860528Y-79189472D01*
X80909358Y-79248972D01*
X80985493Y-79341742D01*
X81078348Y-79515463D01*
X81135531Y-79703968D01*
X81150000Y-79850876D01*
X81150000Y-93449124D01*
X81135531Y-93596032D01*
X81120363Y-93646034D01*
X81080510Y-93777412D01*
X81078348Y-93784537D01*
X80985493Y-93958258D01*
X80909358Y-94051028D01*
X80860528Y-94110528D01*
X80842577Y-94125260D01*
X80825260Y-94142577D01*
X80810528Y-94160528D01*
X80751028Y-94209358D01*
X80658258Y-94285493D01*
X80484537Y-94378348D01*
X80484535Y-94378349D01*
X80397212Y-94404838D01*
X80296032Y-94435531D01*
X80149124Y-94450000D01*
X66550876Y-94450000D01*
X66403968Y-94435531D01*
X66302788Y-94404838D01*
X66215465Y-94378349D01*
X66215463Y-94378348D01*
X66041742Y-94285493D01*
X65889472Y-94160528D01*
X65874740Y-94142577D01*
X65857418Y-94125255D01*
X65839473Y-94110528D01*
X65783145Y-94041891D01*
X65714508Y-93958258D01*
X65621653Y-93784537D01*
X65619492Y-93777412D01*
X65579638Y-93646034D01*
X65564470Y-93596032D01*
X65550001Y-93449124D01*
X65550001Y-80974999D01*
X67550000Y-80974999D01*
X67550000Y-92325001D01*
X67552402Y-92349387D01*
X67559515Y-92372836D01*
X67571066Y-92394447D01*
X67586611Y-92413389D01*
X67605553Y-92428934D01*
X67627164Y-92440485D01*
X67650613Y-92447598D01*
X67674999Y-92450000D01*
X79025002Y-92450000D01*
X79049388Y-92447598D01*
X79072837Y-92440485D01*
X79094448Y-92428934D01*
X79113390Y-92413389D01*
X79128935Y-92394447D01*
X79140486Y-92372836D01*
X79147599Y-92349387D01*
X79150001Y-92325001D01*
X79150000Y-80974999D01*
X79147598Y-80950613D01*
X79140485Y-80927164D01*
X79128934Y-80905553D01*
X79113389Y-80886611D01*
X79094447Y-80871066D01*
X79072836Y-80859515D01*
X79049387Y-80852402D01*
X79025001Y-80850000D01*
X67674999Y-80850000D01*
X67650613Y-80852402D01*
X67627164Y-80859515D01*
X67605553Y-80871066D01*
X67586611Y-80886611D01*
X67571066Y-80905553D01*
X67559515Y-80927164D01*
X67552402Y-80950613D01*
X67550000Y-80974999D01*
X65550001Y-80974999D01*
X65550000Y-79850877D01*
X65564469Y-79703969D01*
X65621652Y-79515464D01*
X65714507Y-79341742D01*
X65790642Y-79248972D01*
X65839472Y-79189472D01*
X65857423Y-79174740D01*
X65874740Y-79157423D01*
X65889472Y-79139472D01*
X65980816Y-79064508D01*
X66041742Y-79014507D01*
X66215463Y-78921652D01*
X66215465Y-78921651D01*
X66309715Y-78893061D01*
X66403968Y-78864469D01*
X66550876Y-78850000D01*
X80149124Y-78850000D01*
X80296032Y-78864469D01*
G37*
G36*
X61246032Y-78864469D02*
G01*
X61340284Y-78893060D01*
X61434535Y-78921651D01*
X61434537Y-78921652D01*
X61608258Y-79014507D01*
X61669184Y-79064508D01*
X61760528Y-79139472D01*
X61775260Y-79157423D01*
X61792577Y-79174740D01*
X61810528Y-79189472D01*
X61859358Y-79248972D01*
X61935493Y-79341742D01*
X62028348Y-79515463D01*
X62085531Y-79703968D01*
X62100000Y-79850876D01*
X62100000Y-93449124D01*
X62085531Y-93596032D01*
X62070363Y-93646034D01*
X62030510Y-93777412D01*
X62028348Y-93784537D01*
X61935493Y-93958258D01*
X61859358Y-94051028D01*
X61810528Y-94110528D01*
X61792577Y-94125260D01*
X61775260Y-94142577D01*
X61760528Y-94160528D01*
X61701028Y-94209358D01*
X61608258Y-94285493D01*
X61434537Y-94378348D01*
X61434535Y-94378349D01*
X61347212Y-94404838D01*
X61246032Y-94435531D01*
X61099124Y-94450000D01*
X47500876Y-94450000D01*
X47353968Y-94435531D01*
X47252788Y-94404838D01*
X47165465Y-94378349D01*
X47165463Y-94378348D01*
X46991742Y-94285493D01*
X46839472Y-94160528D01*
X46824740Y-94142577D01*
X46807418Y-94125255D01*
X46789473Y-94110528D01*
X46733145Y-94041891D01*
X46664508Y-93958258D01*
X46571653Y-93784537D01*
X46569492Y-93777412D01*
X46529638Y-93646034D01*
X46514470Y-93596032D01*
X46500001Y-93449124D01*
X46500001Y-80974999D01*
X48500000Y-80974999D01*
X48500000Y-92325001D01*
X48502402Y-92349387D01*
X48509515Y-92372836D01*
X48521066Y-92394447D01*
X48536611Y-92413389D01*
X48555553Y-92428934D01*
X48577164Y-92440485D01*
X48600613Y-92447598D01*
X48624999Y-92450000D01*
X59975002Y-92450000D01*
X59999388Y-92447598D01*
X60022837Y-92440485D01*
X60044448Y-92428934D01*
X60063390Y-92413389D01*
X60078935Y-92394447D01*
X60090486Y-92372836D01*
X60097599Y-92349387D01*
X60100001Y-92325001D01*
X60100000Y-80974999D01*
X60097598Y-80950613D01*
X60090485Y-80927164D01*
X60078934Y-80905553D01*
X60063389Y-80886611D01*
X60044447Y-80871066D01*
X60022836Y-80859515D01*
X59999387Y-80852402D01*
X59975001Y-80850000D01*
X48624999Y-80850000D01*
X48600613Y-80852402D01*
X48577164Y-80859515D01*
X48555553Y-80871066D01*
X48536611Y-80886611D01*
X48521066Y-80905553D01*
X48509515Y-80927164D01*
X48502402Y-80950613D01*
X48500000Y-80974999D01*
X46500001Y-80974999D01*
X46500000Y-79850877D01*
X46514469Y-79703969D01*
X46571652Y-79515464D01*
X46664507Y-79341742D01*
X46740642Y-79248972D01*
X46789472Y-79189472D01*
X46807423Y-79174740D01*
X46824740Y-79157423D01*
X46839472Y-79139472D01*
X46930816Y-79064508D01*
X46991742Y-79014507D01*
X47165463Y-78921652D01*
X47165465Y-78921651D01*
X47259715Y-78893061D01*
X47353968Y-78864469D01*
X47500876Y-78850000D01*
X61099124Y-78850000D01*
X61246032Y-78864469D01*
G37*
G36*
X99346032Y-60339469D02*
G01*
X99440285Y-60368061D01*
X99534535Y-60396651D01*
X99534537Y-60396652D01*
X99708258Y-60489507D01*
X99769184Y-60539508D01*
X99860528Y-60614472D01*
X99875260Y-60632423D01*
X99892577Y-60649740D01*
X99910528Y-60664472D01*
X99931074Y-60689508D01*
X100035493Y-60816742D01*
X100128348Y-60990463D01*
X100185531Y-61178968D01*
X100200000Y-61325876D01*
X100200000Y-92924124D01*
X100185531Y-93071032D01*
X100185530Y-93071034D01*
X100135233Y-93236843D01*
X100128348Y-93259537D01*
X100035493Y-93433258D01*
X99959358Y-93526028D01*
X99910528Y-93585528D01*
X99892577Y-93600260D01*
X99875260Y-93617577D01*
X99860528Y-93635528D01*
X99831917Y-93659008D01*
X99708258Y-93760493D01*
X99568785Y-93835042D01*
X99534535Y-93853349D01*
X99447212Y-93879838D01*
X99346032Y-93910531D01*
X99199124Y-93925000D01*
X85600876Y-93925000D01*
X85453968Y-93910531D01*
X85352788Y-93879838D01*
X85265465Y-93853349D01*
X85231215Y-93835042D01*
X85091742Y-93760493D01*
X84939472Y-93635528D01*
X84814507Y-93483258D01*
X84721652Y-93309537D01*
X84704795Y-93253966D01*
X84664470Y-93121034D01*
X84664469Y-93121032D01*
X84660546Y-93081198D01*
X84655765Y-93057164D01*
X84614470Y-92921035D01*
X84600001Y-92774124D01*
X84600000Y-91632368D01*
X84597598Y-91607982D01*
X84590485Y-91584533D01*
X84578934Y-91562922D01*
X84563389Y-91543980D01*
X84544447Y-91528435D01*
X84511287Y-91512752D01*
X84315466Y-91453350D01*
X84141742Y-91360493D01*
X83989472Y-91235528D01*
X83864507Y-91083258D01*
X83771652Y-90909537D01*
X83714469Y-90721032D01*
X83695162Y-90525000D01*
X83699399Y-90481978D01*
X83700001Y-90469726D01*
X83700000Y-87680264D01*
X83699398Y-87668012D01*
X83695162Y-87625000D01*
X83714469Y-87428968D01*
X83758071Y-87285233D01*
X83771651Y-87240465D01*
X83771652Y-87240463D01*
X83864507Y-87066742D01*
X83989472Y-86914472D01*
X84141742Y-86789507D01*
X84315463Y-86696652D01*
X84315465Y-86696651D01*
X84444217Y-86657595D01*
X84511287Y-86637249D01*
X84533926Y-86627871D01*
X84554301Y-86614257D01*
X84571628Y-86596930D01*
X84585241Y-86576556D01*
X84594619Y-86553917D01*
X84600001Y-86517632D01*
X84600000Y-67732368D01*
X84597598Y-67707982D01*
X84590485Y-67684533D01*
X84578934Y-67662922D01*
X84563389Y-67643980D01*
X84544447Y-67628435D01*
X84511287Y-67612752D01*
X84315466Y-67553350D01*
X84141742Y-67460493D01*
X83989472Y-67335528D01*
X83864507Y-67183258D01*
X83771652Y-67009537D01*
X83765159Y-66988132D01*
X83714470Y-66821034D01*
X83714469Y-66821032D01*
X83695162Y-66625000D01*
X83699399Y-66581978D01*
X83700001Y-66569726D01*
X83700001Y-64832368D01*
X85700000Y-64832368D01*
X85700000Y-65517632D01*
X85702402Y-65542018D01*
X85709515Y-65565467D01*
X85721066Y-65587078D01*
X85736611Y-65606020D01*
X85755553Y-65621565D01*
X85788713Y-65637248D01*
X85984534Y-65696650D01*
X86158258Y-65789507D01*
X86310528Y-65914472D01*
X86435493Y-66066742D01*
X86462218Y-66116742D01*
X86528349Y-66240465D01*
X86556939Y-66334715D01*
X86585531Y-66428968D01*
X86604838Y-66625000D01*
X86600602Y-66668012D01*
X86600000Y-66680264D01*
X86600000Y-87569736D01*
X86600602Y-87581988D01*
X86604838Y-87625000D01*
X86585531Y-87821032D01*
X86528348Y-88009537D01*
X86435493Y-88183258D01*
X86310528Y-88335528D01*
X86158258Y-88460493D01*
X85984534Y-88553350D01*
X85788713Y-88612752D01*
X85766075Y-88622129D01*
X85745700Y-88635743D01*
X85728373Y-88653070D01*
X85714760Y-88673444D01*
X85705382Y-88696083D01*
X85700000Y-88732368D01*
X85700000Y-89417632D01*
X85702402Y-89442018D01*
X85709515Y-89465467D01*
X85721066Y-89487078D01*
X85736611Y-89506020D01*
X85755553Y-89521565D01*
X85788713Y-89537248D01*
X85984534Y-89596650D01*
X86158258Y-89689507D01*
X86310528Y-89814472D01*
X86435493Y-89966742D01*
X86528348Y-90140463D01*
X86585531Y-90328968D01*
X86604838Y-90525000D01*
X86596196Y-90612748D01*
X86596196Y-90637252D01*
X86600000Y-90675876D01*
X86600000Y-91800001D01*
X86602402Y-91824387D01*
X86609515Y-91847836D01*
X86621066Y-91869447D01*
X86636611Y-91888389D01*
X86655553Y-91903934D01*
X86677164Y-91915485D01*
X86700613Y-91922598D01*
X86724999Y-91925000D01*
X98075002Y-91925000D01*
X98099388Y-91922598D01*
X98122837Y-91915485D01*
X98144448Y-91903934D01*
X98163390Y-91888389D01*
X98178935Y-91869447D01*
X98190486Y-91847836D01*
X98197599Y-91824387D01*
X98200001Y-91800001D01*
X98200000Y-62449999D01*
X98197598Y-62425613D01*
X98190485Y-62402164D01*
X98178934Y-62380553D01*
X98163389Y-62361611D01*
X98144447Y-62346066D01*
X98122836Y-62334515D01*
X98099387Y-62327402D01*
X98075001Y-62325000D01*
X86724999Y-62325000D01*
X86700613Y-62327402D01*
X86677164Y-62334515D01*
X86655553Y-62346066D01*
X86636611Y-62361611D01*
X86621066Y-62380553D01*
X86609515Y-62402164D01*
X86602402Y-62425613D01*
X86600000Y-62449999D01*
X86600000Y-63574124D01*
X86596196Y-63612748D01*
X86596196Y-63637252D01*
X86604838Y-63725000D01*
X86585531Y-63921032D01*
X86528348Y-64109537D01*
X86435493Y-64283258D01*
X86310528Y-64435528D01*
X86158258Y-64560493D01*
X85984534Y-64653350D01*
X85788713Y-64712752D01*
X85766075Y-64722129D01*
X85745700Y-64735743D01*
X85728373Y-64753070D01*
X85714760Y-64773444D01*
X85705382Y-64796083D01*
X85700000Y-64832368D01*
X83700001Y-64832368D01*
X83700000Y-63780264D01*
X83699398Y-63768012D01*
X83695162Y-63725000D01*
X83714469Y-63528968D01*
X83771652Y-63340463D01*
X83864507Y-63166742D01*
X83989472Y-63014472D01*
X84141742Y-62889507D01*
X84315463Y-62796652D01*
X84315465Y-62796651D01*
X84444217Y-62757595D01*
X84511287Y-62737249D01*
X84533926Y-62727871D01*
X84554301Y-62714257D01*
X84571628Y-62696930D01*
X84585241Y-62676556D01*
X84594619Y-62653917D01*
X84600001Y-62617632D01*
X84600001Y-62449999D01*
X84600000Y-61475881D01*
X84600000Y-61475877D01*
X84614469Y-61328969D01*
X84655766Y-61192832D01*
X84660546Y-61168799D01*
X84664469Y-61128968D01*
X84693060Y-61034716D01*
X84721651Y-60940465D01*
X84787782Y-60816742D01*
X84814507Y-60766742D01*
X84939472Y-60614472D01*
X85091742Y-60489507D01*
X85265463Y-60396652D01*
X85265465Y-60396651D01*
X85359715Y-60368061D01*
X85453968Y-60339469D01*
X85600876Y-60325000D01*
X99199124Y-60325000D01*
X99346032Y-60339469D01*
G37*
G36*
X110335673Y-74488311D02*
G01*
X110478664Y-74524958D01*
X113105527Y-75481058D01*
X123256840Y-79175833D01*
X123256845Y-79175835D01*
X123256844Y-79175835D01*
X123389949Y-79239679D01*
X123547516Y-79357877D01*
X123547519Y-79357881D01*
X123547521Y-79357882D01*
X123679008Y-79504555D01*
X123779355Y-79674063D01*
X123787057Y-79695966D01*
X123797413Y-79718173D01*
X123809238Y-79738148D01*
X123874587Y-79923977D01*
X123902427Y-80118981D01*
X123891689Y-80315674D01*
X123855042Y-80458664D01*
X123855038Y-80458675D01*
X119204166Y-93236839D01*
X119204164Y-93236843D01*
X119140322Y-93369944D01*
X119022119Y-93527519D01*
X118957412Y-93585526D01*
X118875444Y-93659008D01*
X118755796Y-93729838D01*
X118705937Y-93759354D01*
X118684036Y-93767056D01*
X118661829Y-93777412D01*
X118641852Y-93789238D01*
X118601725Y-93803349D01*
X118456024Y-93854587D01*
X118414396Y-93860530D01*
X118261019Y-93882427D01*
X118261018Y-93882427D01*
X118251791Y-93881923D01*
X118064326Y-93871689D01*
X117921336Y-93835042D01*
X117579138Y-93710492D01*
X105143161Y-89184166D01*
X105120359Y-89173229D01*
X105010056Y-89120322D01*
X104852481Y-89002119D01*
X104790765Y-88933275D01*
X104720992Y-88855444D01*
X104620646Y-88685937D01*
X104612944Y-88664036D01*
X104602588Y-88641829D01*
X104590762Y-88621852D01*
X104525413Y-88436023D01*
X104497573Y-88241018D01*
X104508311Y-88044327D01*
X104544958Y-87901336D01*
X104662917Y-87577244D01*
X106801397Y-87577244D01*
X106804860Y-87601502D01*
X106812989Y-87624619D01*
X106825472Y-87645705D01*
X106841829Y-87663951D01*
X106861431Y-87678655D01*
X106883523Y-87689252D01*
X117549051Y-91571186D01*
X117572777Y-91577266D01*
X117597244Y-91578602D01*
X117621502Y-91575139D01*
X117644619Y-91567010D01*
X117665705Y-91554527D01*
X117683951Y-91538170D01*
X117698655Y-91518568D01*
X117709253Y-91496474D01*
X118777849Y-88560530D01*
X121591185Y-80830952D01*
X121597266Y-80807222D01*
X121598602Y-80782755D01*
X121595139Y-80758497D01*
X121587010Y-80735380D01*
X121574527Y-80714294D01*
X121558170Y-80696048D01*
X121538568Y-80681344D01*
X121516483Y-80670751D01*
X110850952Y-76788814D01*
X110827223Y-76782733D01*
X110802756Y-76781397D01*
X110778498Y-76784860D01*
X110755381Y-76792989D01*
X110734295Y-76805472D01*
X110716049Y-76821829D01*
X110701345Y-76841431D01*
X110690749Y-76863521D01*
X106808814Y-87529048D01*
X106802733Y-87552777D01*
X106801397Y-87577244D01*
X104662917Y-87577244D01*
X107019493Y-81102607D01*
X109195833Y-75123160D01*
X109213333Y-75086675D01*
X109259679Y-74990051D01*
X109377877Y-74832484D01*
X109377881Y-74832481D01*
X109377882Y-74832479D01*
X109524555Y-74700992D01*
X109694063Y-74600645D01*
X109715970Y-74592941D01*
X109738173Y-74582587D01*
X109758148Y-74570762D01*
X109943977Y-74505413D01*
X110138982Y-74477573D01*
X110335673Y-74488311D01*
G37*
G36*
X123677107Y-73448522D02*
G01*
X123877293Y-73531442D01*
X123877295Y-73531443D01*
X123897140Y-73544703D01*
X124057458Y-73651824D01*
X124210676Y-73805042D01*
X124331058Y-73985207D01*
X124413978Y-74185393D01*
X124456250Y-74397908D01*
X124456250Y-74614592D01*
X124413978Y-74827107D01*
X124331058Y-75027293D01*
X124331057Y-75027295D01*
X124287434Y-75092581D01*
X124210676Y-75207458D01*
X124057458Y-75360676D01*
X123998605Y-75400000D01*
X123877295Y-75481057D01*
X123877294Y-75481058D01*
X123877293Y-75481058D01*
X123677107Y-75563978D01*
X123464592Y-75606250D01*
X123247908Y-75606250D01*
X123035393Y-75563978D01*
X122835207Y-75481058D01*
X122835206Y-75481058D01*
X122835205Y-75481057D01*
X122713895Y-75400000D01*
X122655042Y-75360676D01*
X122501824Y-75207458D01*
X122425066Y-75092581D01*
X122381443Y-75027295D01*
X122381442Y-75027293D01*
X122298522Y-74827107D01*
X122256250Y-74614592D01*
X122256250Y-74397908D01*
X122298522Y-74185393D01*
X122381442Y-73985207D01*
X122501824Y-73805042D01*
X122655042Y-73651824D01*
X122815360Y-73544703D01*
X122835205Y-73531443D01*
X122835207Y-73531442D01*
X123035393Y-73448522D01*
X123247908Y-73406250D01*
X123464592Y-73406250D01*
X123677107Y-73448522D01*
G37*
G36*
X61246032Y-59814469D02*
G01*
X61340285Y-59843061D01*
X61434535Y-59871651D01*
X61434537Y-59871652D01*
X61608258Y-59964507D01*
X61669184Y-60014508D01*
X61760528Y-60089472D01*
X61775260Y-60107423D01*
X61792577Y-60124740D01*
X61810528Y-60139472D01*
X61829344Y-60162400D01*
X61935493Y-60291742D01*
X62028348Y-60465463D01*
X62085531Y-60653968D01*
X62100000Y-60800876D01*
X62100000Y-74399124D01*
X62085531Y-74546032D01*
X62028348Y-74734537D01*
X61935493Y-74908258D01*
X61892888Y-74960172D01*
X61810528Y-75060528D01*
X61792577Y-75075260D01*
X61775260Y-75092577D01*
X61760528Y-75110528D01*
X61727321Y-75137780D01*
X61608258Y-75235493D01*
X61434537Y-75328348D01*
X61434535Y-75328349D01*
X61347212Y-75354838D01*
X61246032Y-75385531D01*
X61099124Y-75400000D01*
X47500876Y-75400000D01*
X47353968Y-75385531D01*
X47252788Y-75354838D01*
X47165465Y-75328349D01*
X47165463Y-75328348D01*
X46991742Y-75235493D01*
X46839472Y-75110528D01*
X46824740Y-75092577D01*
X46807418Y-75075255D01*
X46789473Y-75060528D01*
X46707113Y-74960172D01*
X46664508Y-74908258D01*
X46571653Y-74734537D01*
X46514470Y-74546032D01*
X46500001Y-74399124D01*
X46500001Y-61924999D01*
X48500000Y-61924999D01*
X48500000Y-73275001D01*
X48502402Y-73299387D01*
X48509515Y-73322836D01*
X48521066Y-73344447D01*
X48536611Y-73363389D01*
X48555553Y-73378934D01*
X48577164Y-73390485D01*
X48600613Y-73397598D01*
X48624999Y-73400000D01*
X59975002Y-73400000D01*
X59999388Y-73397598D01*
X60022837Y-73390485D01*
X60044448Y-73378934D01*
X60063390Y-73363389D01*
X60078935Y-73344447D01*
X60090486Y-73322836D01*
X60097599Y-73299387D01*
X60100001Y-73275001D01*
X60100000Y-61924999D01*
X60097598Y-61900613D01*
X60090485Y-61877164D01*
X60078934Y-61855553D01*
X60063389Y-61836611D01*
X60044447Y-61821066D01*
X60022836Y-61809515D01*
X59999387Y-61802402D01*
X59975001Y-61800000D01*
X48624999Y-61800000D01*
X48600613Y-61802402D01*
X48577164Y-61809515D01*
X48555553Y-61821066D01*
X48536611Y-61836611D01*
X48521066Y-61855553D01*
X48509515Y-61877164D01*
X48502402Y-61900613D01*
X48500000Y-61924999D01*
X46500001Y-61924999D01*
X46500000Y-60800877D01*
X46514469Y-60653969D01*
X46564358Y-60489508D01*
X46571651Y-60465466D01*
X46581708Y-60446651D01*
X46664507Y-60291742D01*
X46770656Y-60162400D01*
X46789472Y-60139472D01*
X46807423Y-60124740D01*
X46824740Y-60107423D01*
X46839472Y-60089472D01*
X46930816Y-60014508D01*
X46991742Y-59964507D01*
X47165463Y-59871652D01*
X47165465Y-59871651D01*
X47259715Y-59843061D01*
X47353968Y-59814469D01*
X47500876Y-59800000D01*
X61099124Y-59800000D01*
X61246032Y-59814469D01*
G37*
G36*
X80296032Y-59814469D02*
G01*
X80390285Y-59843061D01*
X80484535Y-59871651D01*
X80484537Y-59871652D01*
X80658258Y-59964507D01*
X80719184Y-60014508D01*
X80810528Y-60089472D01*
X80825260Y-60107423D01*
X80842577Y-60124740D01*
X80860528Y-60139472D01*
X80879344Y-60162400D01*
X80985493Y-60291742D01*
X81078348Y-60465463D01*
X81135531Y-60653968D01*
X81150000Y-60800876D01*
X81150000Y-74399124D01*
X81135531Y-74546032D01*
X81078348Y-74734537D01*
X80985493Y-74908258D01*
X80942888Y-74960172D01*
X80860528Y-75060528D01*
X80842577Y-75075260D01*
X80825260Y-75092577D01*
X80810528Y-75110528D01*
X80777321Y-75137780D01*
X80658258Y-75235493D01*
X80484537Y-75328348D01*
X80484535Y-75328349D01*
X80397212Y-75354838D01*
X80296032Y-75385531D01*
X80149124Y-75400000D01*
X66550876Y-75400000D01*
X66403968Y-75385531D01*
X66302788Y-75354838D01*
X66215465Y-75328349D01*
X66215463Y-75328348D01*
X66041742Y-75235493D01*
X65889472Y-75110528D01*
X65874740Y-75092577D01*
X65857418Y-75075255D01*
X65839473Y-75060528D01*
X65757113Y-74960172D01*
X65714508Y-74908258D01*
X65621653Y-74734537D01*
X65564470Y-74546032D01*
X65550001Y-74399124D01*
X65550001Y-61924999D01*
X67550000Y-61924999D01*
X67550000Y-73275001D01*
X67552402Y-73299387D01*
X67559515Y-73322836D01*
X67571066Y-73344447D01*
X67586611Y-73363389D01*
X67605553Y-73378934D01*
X67627164Y-73390485D01*
X67650613Y-73397598D01*
X67674999Y-73400000D01*
X79025002Y-73400000D01*
X79049388Y-73397598D01*
X79072837Y-73390485D01*
X79094448Y-73378934D01*
X79113390Y-73363389D01*
X79128935Y-73344447D01*
X79140486Y-73322836D01*
X79147599Y-73299387D01*
X79150001Y-73275001D01*
X79150000Y-61924999D01*
X79147598Y-61900613D01*
X79140485Y-61877164D01*
X79128934Y-61855553D01*
X79113389Y-61836611D01*
X79094447Y-61821066D01*
X79072836Y-61809515D01*
X79049387Y-61802402D01*
X79025001Y-61800000D01*
X67674999Y-61800000D01*
X67650613Y-61802402D01*
X67627164Y-61809515D01*
X67605553Y-61821066D01*
X67586611Y-61836611D01*
X67571066Y-61855553D01*
X67559515Y-61877164D01*
X67552402Y-61900613D01*
X67550000Y-61924999D01*
X65550001Y-61924999D01*
X65550000Y-60800877D01*
X65564469Y-60653969D01*
X65614358Y-60489508D01*
X65621651Y-60465466D01*
X65631708Y-60446651D01*
X65714507Y-60291742D01*
X65820656Y-60162400D01*
X65839472Y-60139472D01*
X65857423Y-60124740D01*
X65874740Y-60107423D01*
X65889472Y-60089472D01*
X65980816Y-60014508D01*
X66041742Y-59964507D01*
X66215463Y-59871652D01*
X66215465Y-59871651D01*
X66309715Y-59843061D01*
X66403968Y-59814469D01*
X66550876Y-59800000D01*
X80149124Y-59800000D01*
X80296032Y-59814469D01*
G37*
G36*
X42196032Y-59814469D02*
G01*
X42290285Y-59843061D01*
X42384535Y-59871651D01*
X42384537Y-59871652D01*
X42558258Y-59964507D01*
X42619184Y-60014508D01*
X42710528Y-60089472D01*
X42725260Y-60107423D01*
X42742577Y-60124740D01*
X42760528Y-60139472D01*
X42779344Y-60162400D01*
X42885493Y-60291742D01*
X42978348Y-60465463D01*
X43035531Y-60653968D01*
X43050000Y-60800876D01*
X43050000Y-74399124D01*
X43035531Y-74546032D01*
X42978348Y-74734537D01*
X42885493Y-74908258D01*
X42842888Y-74960172D01*
X42760528Y-75060528D01*
X42742577Y-75075260D01*
X42725260Y-75092577D01*
X42710528Y-75110528D01*
X42677321Y-75137780D01*
X42558258Y-75235493D01*
X42384537Y-75328348D01*
X42384535Y-75328349D01*
X42297212Y-75354838D01*
X42196032Y-75385531D01*
X42049124Y-75400000D01*
X28450876Y-75400000D01*
X28303968Y-75385531D01*
X28202788Y-75354838D01*
X28115465Y-75328349D01*
X28115463Y-75328348D01*
X27941742Y-75235493D01*
X27789472Y-75110528D01*
X27774740Y-75092577D01*
X27757418Y-75075255D01*
X27739473Y-75060528D01*
X27657113Y-74960172D01*
X27614508Y-74908258D01*
X27521653Y-74734537D01*
X27464470Y-74546032D01*
X27450001Y-74399124D01*
X27450001Y-61924999D01*
X29450000Y-61924999D01*
X29450000Y-73275001D01*
X29452402Y-73299387D01*
X29459515Y-73322836D01*
X29471066Y-73344447D01*
X29486611Y-73363389D01*
X29505553Y-73378934D01*
X29527164Y-73390485D01*
X29550613Y-73397598D01*
X29574999Y-73400000D01*
X40925002Y-73400000D01*
X40949388Y-73397598D01*
X40972837Y-73390485D01*
X40994448Y-73378934D01*
X41013390Y-73363389D01*
X41028935Y-73344447D01*
X41040486Y-73322836D01*
X41047599Y-73299387D01*
X41050001Y-73275001D01*
X41050000Y-61924999D01*
X41047598Y-61900613D01*
X41040485Y-61877164D01*
X41028934Y-61855553D01*
X41013389Y-61836611D01*
X40994447Y-61821066D01*
X40972836Y-61809515D01*
X40949387Y-61802402D01*
X40925001Y-61800000D01*
X29574999Y-61800000D01*
X29550613Y-61802402D01*
X29527164Y-61809515D01*
X29505553Y-61821066D01*
X29486611Y-61836611D01*
X29471066Y-61855553D01*
X29459515Y-61877164D01*
X29452402Y-61900613D01*
X29450000Y-61924999D01*
X27450001Y-61924999D01*
X27450000Y-60800877D01*
X27464469Y-60653969D01*
X27514358Y-60489508D01*
X27521651Y-60465466D01*
X27531708Y-60446651D01*
X27614507Y-60291742D01*
X27720656Y-60162400D01*
X27739472Y-60139472D01*
X27757423Y-60124740D01*
X27774740Y-60107423D01*
X27789472Y-60089472D01*
X27880816Y-60014508D01*
X27941742Y-59964507D01*
X28115463Y-59871652D01*
X28115465Y-59871651D01*
X28209715Y-59843061D01*
X28303968Y-59814469D01*
X28450876Y-59800000D01*
X42049124Y-59800000D01*
X42196032Y-59814469D01*
G37*
G36*
X110335673Y-54208311D02*
G01*
X110478664Y-54244958D01*
X115569186Y-56097756D01*
X123256840Y-58895833D01*
X123256845Y-58895835D01*
X123256844Y-58895835D01*
X123389949Y-58959679D01*
X123547516Y-59077877D01*
X123547519Y-59077881D01*
X123547521Y-59077882D01*
X123679008Y-59224555D01*
X123779355Y-59394063D01*
X123787057Y-59415966D01*
X123797413Y-59438173D01*
X123809238Y-59458148D01*
X123874587Y-59643977D01*
X123902427Y-59838981D01*
X123891689Y-60035674D01*
X123855042Y-60178664D01*
X123855038Y-60178675D01*
X119204166Y-72956839D01*
X119204164Y-72956843D01*
X119140322Y-73089944D01*
X119022119Y-73247519D01*
X118988782Y-73277404D01*
X118875444Y-73379008D01*
X118718949Y-73471651D01*
X118705937Y-73479354D01*
X118684036Y-73487056D01*
X118661829Y-73497412D01*
X118641852Y-73509238D01*
X118578712Y-73531442D01*
X118456024Y-73574587D01*
X118358521Y-73588507D01*
X118261019Y-73602427D01*
X118261018Y-73602427D01*
X118251791Y-73601923D01*
X118064326Y-73591689D01*
X117921336Y-73555042D01*
X117692221Y-73471651D01*
X105143161Y-68904166D01*
X105120359Y-68893229D01*
X105010056Y-68840322D01*
X104852481Y-68722119D01*
X104790765Y-68653275D01*
X104720992Y-68575444D01*
X104620646Y-68405937D01*
X104612944Y-68384036D01*
X104602588Y-68361829D01*
X104590762Y-68341852D01*
X104525413Y-68156023D01*
X104497573Y-67961018D01*
X104508311Y-67764327D01*
X104544958Y-67621336D01*
X104662917Y-67297244D01*
X106801397Y-67297244D01*
X106804860Y-67321502D01*
X106812989Y-67344619D01*
X106825472Y-67365705D01*
X106841829Y-67383951D01*
X106861431Y-67398655D01*
X106883523Y-67409252D01*
X117549051Y-71291186D01*
X117572777Y-71297266D01*
X117597244Y-71298602D01*
X117621502Y-71295139D01*
X117644619Y-71287010D01*
X117665705Y-71274527D01*
X117683951Y-71258170D01*
X117698655Y-71238568D01*
X117709253Y-71216474D01*
X118894142Y-67961018D01*
X121591185Y-60550952D01*
X121597266Y-60527222D01*
X121598602Y-60502755D01*
X121595139Y-60478497D01*
X121587010Y-60455380D01*
X121574527Y-60434294D01*
X121558170Y-60416048D01*
X121538568Y-60401344D01*
X121516483Y-60390751D01*
X110850952Y-56508814D01*
X110827223Y-56502733D01*
X110802756Y-56501397D01*
X110778498Y-56504860D01*
X110755381Y-56512989D01*
X110734295Y-56525472D01*
X110716049Y-56541829D01*
X110701345Y-56561431D01*
X110690749Y-56583521D01*
X106808814Y-67249048D01*
X106802733Y-67272777D01*
X106801397Y-67297244D01*
X104662917Y-67297244D01*
X106627131Y-61900613D01*
X109195833Y-54843160D01*
X109220496Y-54791742D01*
X109259679Y-54710051D01*
X109377877Y-54552484D01*
X109377881Y-54552481D01*
X109377882Y-54552479D01*
X109524555Y-54420992D01*
X109694063Y-54320645D01*
X109715970Y-54312941D01*
X109738173Y-54302587D01*
X109758148Y-54290762D01*
X109943977Y-54225413D01*
X110138982Y-54197573D01*
X110335673Y-54208311D01*
G37*
G36*
X26045857Y-56779772D02*
G01*
X26246043Y-56862692D01*
X26246045Y-56862693D01*
X26336738Y-56923292D01*
X26426208Y-56983074D01*
X26579426Y-57136292D01*
X26699808Y-57316457D01*
X26782728Y-57516643D01*
X26825000Y-57729158D01*
X26825000Y-57945842D01*
X26782728Y-58158357D01*
X26699808Y-58358543D01*
X26699807Y-58358545D01*
X26579425Y-58538709D01*
X26426209Y-58691925D01*
X26246045Y-58812307D01*
X26246044Y-58812308D01*
X26246043Y-58812308D01*
X26045857Y-58895228D01*
X25833342Y-58937500D01*
X25616658Y-58937500D01*
X25404143Y-58895228D01*
X25203957Y-58812308D01*
X25203956Y-58812308D01*
X25203955Y-58812307D01*
X25023791Y-58691925D01*
X24870575Y-58538709D01*
X24750193Y-58358545D01*
X24750192Y-58358543D01*
X24667272Y-58158357D01*
X24625000Y-57945842D01*
X24625000Y-57729158D01*
X24667272Y-57516643D01*
X24750192Y-57316457D01*
X24870574Y-57136292D01*
X25023792Y-56983074D01*
X25113262Y-56923292D01*
X25203955Y-56862693D01*
X25203957Y-56862692D01*
X25404143Y-56779772D01*
X25616658Y-56737500D01*
X25833342Y-56737500D01*
X26045857Y-56779772D01*
G37*
G36*
X80296032Y-40764469D02*
G01*
X80390285Y-40793061D01*
X80484535Y-40821651D01*
X80484537Y-40821652D01*
X80658258Y-40914507D01*
X80719184Y-40964508D01*
X80810528Y-41039472D01*
X80825260Y-41057423D01*
X80842577Y-41074740D01*
X80860528Y-41089472D01*
X80909358Y-41148972D01*
X80985493Y-41241742D01*
X81078348Y-41415463D01*
X81135531Y-41603968D01*
X81150000Y-41750876D01*
X81150000Y-55349124D01*
X81135531Y-55496032D01*
X81078348Y-55684537D01*
X80985493Y-55858258D01*
X80916523Y-55942297D01*
X80860528Y-56010528D01*
X80842577Y-56025260D01*
X80825260Y-56042577D01*
X80810528Y-56060528D01*
X80751028Y-56109358D01*
X80658258Y-56185493D01*
X80484537Y-56278348D01*
X80484535Y-56278349D01*
X80397212Y-56304838D01*
X80296032Y-56335531D01*
X80149124Y-56350000D01*
X66550876Y-56350000D01*
X66403968Y-56335531D01*
X66302788Y-56304838D01*
X66215465Y-56278349D01*
X66215463Y-56278348D01*
X66041742Y-56185493D01*
X65889472Y-56060528D01*
X65889450Y-56060501D01*
X65874740Y-56042577D01*
X65857418Y-56025255D01*
X65839473Y-56010528D01*
X65783145Y-55941891D01*
X65714508Y-55858258D01*
X65621653Y-55684537D01*
X65564470Y-55496032D01*
X65550001Y-55349124D01*
X65550001Y-42874999D01*
X67550000Y-42874999D01*
X67550000Y-54225001D01*
X67552402Y-54249387D01*
X67559515Y-54272836D01*
X67571066Y-54294447D01*
X67586611Y-54313389D01*
X67605553Y-54328934D01*
X67627164Y-54340485D01*
X67650613Y-54347598D01*
X67674999Y-54350000D01*
X79025002Y-54350000D01*
X79049388Y-54347598D01*
X79072837Y-54340485D01*
X79094448Y-54328934D01*
X79113390Y-54313389D01*
X79128935Y-54294447D01*
X79140486Y-54272836D01*
X79147599Y-54249387D01*
X79150001Y-54225001D01*
X79150000Y-42874999D01*
X79147598Y-42850613D01*
X79140485Y-42827164D01*
X79128934Y-42805553D01*
X79113389Y-42786611D01*
X79094447Y-42771066D01*
X79072836Y-42759515D01*
X79049387Y-42752402D01*
X79025001Y-42750000D01*
X67674999Y-42750000D01*
X67650613Y-42752402D01*
X67627164Y-42759515D01*
X67605553Y-42771066D01*
X67586611Y-42786611D01*
X67571066Y-42805553D01*
X67559515Y-42827164D01*
X67552402Y-42850613D01*
X67550000Y-42874999D01*
X65550001Y-42874999D01*
X65550000Y-41750877D01*
X65564469Y-41603969D01*
X65621652Y-41415464D01*
X65714507Y-41241742D01*
X65790642Y-41148972D01*
X65839472Y-41089472D01*
X65857423Y-41074740D01*
X65874740Y-41057423D01*
X65889472Y-41039472D01*
X65980816Y-40964508D01*
X66041742Y-40914507D01*
X66215463Y-40821652D01*
X66215465Y-40821651D01*
X66309715Y-40793061D01*
X66403968Y-40764469D01*
X66550876Y-40750000D01*
X80149124Y-40750000D01*
X80296032Y-40764469D01*
G37*
G36*
X61246032Y-40764469D02*
G01*
X61340285Y-40793061D01*
X61434535Y-40821651D01*
X61434537Y-40821652D01*
X61608258Y-40914507D01*
X61669184Y-40964508D01*
X61760528Y-41039472D01*
X61775260Y-41057423D01*
X61792577Y-41074740D01*
X61810528Y-41089472D01*
X61859358Y-41148972D01*
X61935493Y-41241742D01*
X62028348Y-41415463D01*
X62085531Y-41603968D01*
X62100000Y-41750876D01*
X62100000Y-55349124D01*
X62085531Y-55496032D01*
X62028348Y-55684537D01*
X61935493Y-55858258D01*
X61866523Y-55942297D01*
X61810528Y-56010528D01*
X61792577Y-56025260D01*
X61775260Y-56042577D01*
X61760528Y-56060528D01*
X61701028Y-56109358D01*
X61608258Y-56185493D01*
X61434537Y-56278348D01*
X61434535Y-56278349D01*
X61347212Y-56304838D01*
X61246032Y-56335531D01*
X61099124Y-56350000D01*
X47500876Y-56350000D01*
X47353968Y-56335531D01*
X47252788Y-56304838D01*
X47165465Y-56278349D01*
X47165463Y-56278348D01*
X46991742Y-56185493D01*
X46839472Y-56060528D01*
X46839450Y-56060501D01*
X46824740Y-56042577D01*
X46807418Y-56025255D01*
X46789473Y-56010528D01*
X46733145Y-55941891D01*
X46664508Y-55858258D01*
X46571653Y-55684537D01*
X46514470Y-55496032D01*
X46500001Y-55349124D01*
X46500001Y-42874999D01*
X48500000Y-42874999D01*
X48500000Y-54225001D01*
X48502402Y-54249387D01*
X48509515Y-54272836D01*
X48521066Y-54294447D01*
X48536611Y-54313389D01*
X48555553Y-54328934D01*
X48577164Y-54340485D01*
X48600613Y-54347598D01*
X48624999Y-54350000D01*
X59975002Y-54350000D01*
X59999388Y-54347598D01*
X60022837Y-54340485D01*
X60044448Y-54328934D01*
X60063390Y-54313389D01*
X60078935Y-54294447D01*
X60090486Y-54272836D01*
X60097599Y-54249387D01*
X60100001Y-54225001D01*
X60100000Y-42874999D01*
X60097598Y-42850613D01*
X60090485Y-42827164D01*
X60078934Y-42805553D01*
X60063389Y-42786611D01*
X60044447Y-42771066D01*
X60022836Y-42759515D01*
X59999387Y-42752402D01*
X59975001Y-42750000D01*
X48624999Y-42750000D01*
X48600613Y-42752402D01*
X48577164Y-42759515D01*
X48555553Y-42771066D01*
X48536611Y-42786611D01*
X48521066Y-42805553D01*
X48509515Y-42827164D01*
X48502402Y-42850613D01*
X48500000Y-42874999D01*
X46500001Y-42874999D01*
X46500000Y-41750877D01*
X46514469Y-41603969D01*
X46571652Y-41415464D01*
X46664507Y-41241742D01*
X46740642Y-41148972D01*
X46789472Y-41089472D01*
X46807423Y-41074740D01*
X46824740Y-41057423D01*
X46839472Y-41039472D01*
X46930816Y-40964508D01*
X46991742Y-40914507D01*
X47165463Y-40821652D01*
X47165465Y-40821651D01*
X47259715Y-40793061D01*
X47353968Y-40764469D01*
X47500876Y-40750000D01*
X61099124Y-40750000D01*
X61246032Y-40764469D01*
G37*
G36*
X42196032Y-40764469D02*
G01*
X42290285Y-40793061D01*
X42384535Y-40821651D01*
X42384537Y-40821652D01*
X42558258Y-40914507D01*
X42619184Y-40964508D01*
X42710528Y-41039472D01*
X42725260Y-41057423D01*
X42742577Y-41074740D01*
X42760528Y-41089472D01*
X42809358Y-41148972D01*
X42885493Y-41241742D01*
X42978348Y-41415463D01*
X43035531Y-41603968D01*
X43050000Y-41750876D01*
X43050000Y-55349124D01*
X43035531Y-55496032D01*
X42978348Y-55684537D01*
X42885493Y-55858258D01*
X42816523Y-55942297D01*
X42760528Y-56010528D01*
X42742577Y-56025260D01*
X42725260Y-56042577D01*
X42710528Y-56060528D01*
X42651028Y-56109358D01*
X42558258Y-56185493D01*
X42384537Y-56278348D01*
X42384535Y-56278349D01*
X42297212Y-56304838D01*
X42196032Y-56335531D01*
X42049124Y-56350000D01*
X28450876Y-56350000D01*
X28303968Y-56335531D01*
X28202788Y-56304838D01*
X28115465Y-56278349D01*
X28115463Y-56278348D01*
X27941742Y-56185493D01*
X27789472Y-56060528D01*
X27789450Y-56060501D01*
X27774740Y-56042577D01*
X27757418Y-56025255D01*
X27739473Y-56010528D01*
X27683145Y-55941891D01*
X27614508Y-55858258D01*
X27521653Y-55684537D01*
X27464470Y-55496032D01*
X27450001Y-55349124D01*
X27450001Y-42874999D01*
X29450000Y-42874999D01*
X29450000Y-54225001D01*
X29452402Y-54249387D01*
X29459515Y-54272836D01*
X29471066Y-54294447D01*
X29486611Y-54313389D01*
X29505553Y-54328934D01*
X29527164Y-54340485D01*
X29550613Y-54347598D01*
X29574999Y-54350000D01*
X40925002Y-54350000D01*
X40949388Y-54347598D01*
X40972837Y-54340485D01*
X40994448Y-54328934D01*
X41013390Y-54313389D01*
X41028935Y-54294447D01*
X41040486Y-54272836D01*
X41047599Y-54249387D01*
X41050001Y-54225001D01*
X41050000Y-42874999D01*
X41047598Y-42850613D01*
X41040485Y-42827164D01*
X41028934Y-42805553D01*
X41013389Y-42786611D01*
X40994447Y-42771066D01*
X40972836Y-42759515D01*
X40949387Y-42752402D01*
X40925001Y-42750000D01*
X29574999Y-42750000D01*
X29550613Y-42752402D01*
X29527164Y-42759515D01*
X29505553Y-42771066D01*
X29486611Y-42786611D01*
X29471066Y-42805553D01*
X29459515Y-42827164D01*
X29452402Y-42850613D01*
X29450000Y-42874999D01*
X27450001Y-42874999D01*
X27450000Y-41750877D01*
X27464469Y-41603969D01*
X27521652Y-41415464D01*
X27614507Y-41241742D01*
X27690642Y-41148972D01*
X27739472Y-41089472D01*
X27757423Y-41074740D01*
X27774740Y-41057423D01*
X27789472Y-41039472D01*
X27880816Y-40964508D01*
X27941742Y-40914507D01*
X28115463Y-40821652D01*
X28115465Y-40821651D01*
X28209715Y-40793061D01*
X28303968Y-40764469D01*
X28450876Y-40750000D01*
X42049124Y-40750000D01*
X42196032Y-40764469D01*
G37*
G36*
X99346032Y-40764469D02*
G01*
X99440285Y-40793061D01*
X99534535Y-40821651D01*
X99534537Y-40821652D01*
X99708258Y-40914507D01*
X99769184Y-40964508D01*
X99860528Y-41039472D01*
X99875260Y-41057423D01*
X99892577Y-41074740D01*
X99910528Y-41089472D01*
X99959358Y-41148972D01*
X100035493Y-41241742D01*
X100128348Y-41415463D01*
X100185531Y-41603968D01*
X100200000Y-41750876D01*
X100200000Y-55349124D01*
X100185531Y-55496032D01*
X100128348Y-55684537D01*
X100035493Y-55858258D01*
X99966523Y-55942297D01*
X99910528Y-56010528D01*
X99892577Y-56025260D01*
X99875260Y-56042577D01*
X99860528Y-56060528D01*
X99801028Y-56109358D01*
X99708258Y-56185493D01*
X99534537Y-56278348D01*
X99534535Y-56278349D01*
X99447212Y-56304838D01*
X99346032Y-56335531D01*
X99199124Y-56350000D01*
X85600876Y-56350000D01*
X85453968Y-56335531D01*
X85352788Y-56304838D01*
X85265465Y-56278349D01*
X85265463Y-56278348D01*
X85091742Y-56185493D01*
X84939472Y-56060528D01*
X84939450Y-56060501D01*
X84924740Y-56042577D01*
X84907418Y-56025255D01*
X84889473Y-56010528D01*
X84833145Y-55941891D01*
X84764508Y-55858258D01*
X84671653Y-55684537D01*
X84614470Y-55496032D01*
X84600001Y-55349124D01*
X84600001Y-42874999D01*
X86600000Y-42874999D01*
X86600000Y-54225001D01*
X86602402Y-54249387D01*
X86609515Y-54272836D01*
X86621066Y-54294447D01*
X86636611Y-54313389D01*
X86655553Y-54328934D01*
X86677164Y-54340485D01*
X86700613Y-54347598D01*
X86724999Y-54350000D01*
X98075002Y-54350000D01*
X98099388Y-54347598D01*
X98122837Y-54340485D01*
X98144448Y-54328934D01*
X98163390Y-54313389D01*
X98178935Y-54294447D01*
X98190486Y-54272836D01*
X98197599Y-54249387D01*
X98200001Y-54225001D01*
X98200000Y-42874999D01*
X98197598Y-42850613D01*
X98190485Y-42827164D01*
X98178934Y-42805553D01*
X98163389Y-42786611D01*
X98144447Y-42771066D01*
X98122836Y-42759515D01*
X98099387Y-42752402D01*
X98075001Y-42750000D01*
X86724999Y-42750000D01*
X86700613Y-42752402D01*
X86677164Y-42759515D01*
X86655553Y-42771066D01*
X86636611Y-42786611D01*
X86621066Y-42805553D01*
X86609515Y-42827164D01*
X86602402Y-42850613D01*
X86600000Y-42874999D01*
X84600001Y-42874999D01*
X84600000Y-41750877D01*
X84614469Y-41603969D01*
X84671652Y-41415464D01*
X84764507Y-41241742D01*
X84840642Y-41148972D01*
X84889472Y-41089472D01*
X84907423Y-41074740D01*
X84924740Y-41057423D01*
X84939472Y-41039472D01*
X85030816Y-40964508D01*
X85091742Y-40914507D01*
X85265463Y-40821652D01*
X85265465Y-40821651D01*
X85359715Y-40793061D01*
X85453968Y-40764469D01*
X85600876Y-40750000D01*
X99199124Y-40750000D01*
X99346032Y-40764469D01*
G37*
G36*
X42196032Y-16714469D02*
G01*
X42290285Y-16743061D01*
X42384535Y-16771651D01*
X42384537Y-16771652D01*
X42558258Y-16864507D01*
X42619184Y-16914508D01*
X42710528Y-16989472D01*
X42725260Y-17007423D01*
X42742577Y-17024740D01*
X42760528Y-17039472D01*
X42809358Y-17098972D01*
X42885493Y-17191742D01*
X42978348Y-17365463D01*
X43035531Y-17553968D01*
X43050000Y-17700876D01*
X43050000Y-31299124D01*
X43035531Y-31446032D01*
X42978348Y-31634537D01*
X42885493Y-31808258D01*
X42809358Y-31901028D01*
X42760528Y-31960528D01*
X42742577Y-31975260D01*
X42725260Y-31992577D01*
X42710528Y-32010528D01*
X42651028Y-32059358D01*
X42558258Y-32135493D01*
X42384537Y-32228348D01*
X42384535Y-32228349D01*
X42297212Y-32254838D01*
X42196032Y-32285531D01*
X42049124Y-32300000D01*
X28450876Y-32300000D01*
X28303968Y-32285531D01*
X28202788Y-32254838D01*
X28115465Y-32228349D01*
X28115463Y-32228348D01*
X27941742Y-32135493D01*
X27789472Y-32010528D01*
X27774740Y-31992577D01*
X27757418Y-31975255D01*
X27739473Y-31960528D01*
X27683145Y-31891891D01*
X27614508Y-31808258D01*
X27521653Y-31634537D01*
X27464470Y-31446032D01*
X27450001Y-31299124D01*
X27450001Y-18824999D01*
X29450000Y-18824999D01*
X29450000Y-30175001D01*
X29452402Y-30199387D01*
X29459515Y-30222836D01*
X29471066Y-30244447D01*
X29486611Y-30263389D01*
X29505553Y-30278934D01*
X29527164Y-30290485D01*
X29550613Y-30297598D01*
X29574999Y-30300000D01*
X40925002Y-30300000D01*
X40949388Y-30297598D01*
X40972837Y-30290485D01*
X40994448Y-30278934D01*
X41013390Y-30263389D01*
X41028935Y-30244447D01*
X41040486Y-30222836D01*
X41047599Y-30199387D01*
X41050001Y-30175001D01*
X41050000Y-18824999D01*
X41047598Y-18800613D01*
X41040485Y-18777164D01*
X41028934Y-18755553D01*
X41013389Y-18736611D01*
X40994447Y-18721066D01*
X40972836Y-18709515D01*
X40949387Y-18702402D01*
X40925001Y-18700000D01*
X29574999Y-18700000D01*
X29550613Y-18702402D01*
X29527164Y-18709515D01*
X29505553Y-18721066D01*
X29486611Y-18736611D01*
X29471066Y-18755553D01*
X29459515Y-18777164D01*
X29452402Y-18800613D01*
X29450000Y-18824999D01*
X27450001Y-18824999D01*
X27450000Y-17700877D01*
X27464469Y-17553969D01*
X27521652Y-17365464D01*
X27614507Y-17191742D01*
X27690642Y-17098972D01*
X27739472Y-17039472D01*
X27757423Y-17024740D01*
X27774740Y-17007423D01*
X27789472Y-16989472D01*
X27880816Y-16914508D01*
X27941742Y-16864507D01*
X28115463Y-16771652D01*
X28115465Y-16771651D01*
X28209716Y-16743060D01*
X28303968Y-16714469D01*
X28450876Y-16700000D01*
X42049124Y-16700000D01*
X42196032Y-16714469D01*
G37*
G36*
X99346032Y-16714469D02*
G01*
X99440285Y-16743061D01*
X99534535Y-16771651D01*
X99534537Y-16771652D01*
X99708258Y-16864507D01*
X99769184Y-16914508D01*
X99860528Y-16989472D01*
X99875260Y-17007423D01*
X99892577Y-17024740D01*
X99910528Y-17039472D01*
X99959358Y-17098972D01*
X100035493Y-17191742D01*
X100128348Y-17365463D01*
X100185531Y-17553968D01*
X100200000Y-17700876D01*
X100200000Y-31299124D01*
X100185531Y-31446032D01*
X100128348Y-31634537D01*
X100035493Y-31808258D01*
X99959358Y-31901028D01*
X99910528Y-31960528D01*
X99892577Y-31975260D01*
X99875260Y-31992577D01*
X99860528Y-32010528D01*
X99801028Y-32059358D01*
X99708258Y-32135493D01*
X99534537Y-32228348D01*
X99534535Y-32228349D01*
X99447212Y-32254838D01*
X99346032Y-32285531D01*
X99199124Y-32300000D01*
X85600876Y-32300000D01*
X85453968Y-32285531D01*
X85352788Y-32254838D01*
X85265465Y-32228349D01*
X85265463Y-32228348D01*
X85091742Y-32135493D01*
X84939472Y-32010528D01*
X84924740Y-31992577D01*
X84907418Y-31975255D01*
X84889473Y-31960528D01*
X84833145Y-31891891D01*
X84764508Y-31808258D01*
X84671653Y-31634537D01*
X84614470Y-31446032D01*
X84600001Y-31299124D01*
X84600001Y-18824999D01*
X86600000Y-18824999D01*
X86600000Y-30175001D01*
X86602402Y-30199387D01*
X86609515Y-30222836D01*
X86621066Y-30244447D01*
X86636611Y-30263389D01*
X86655553Y-30278934D01*
X86677164Y-30290485D01*
X86700613Y-30297598D01*
X86724999Y-30300000D01*
X98075002Y-30300000D01*
X98099388Y-30297598D01*
X98122837Y-30290485D01*
X98144448Y-30278934D01*
X98163390Y-30263389D01*
X98178935Y-30244447D01*
X98190486Y-30222836D01*
X98197599Y-30199387D01*
X98200001Y-30175001D01*
X98200000Y-18824999D01*
X98197598Y-18800613D01*
X98190485Y-18777164D01*
X98178934Y-18755553D01*
X98163389Y-18736611D01*
X98144447Y-18721066D01*
X98122836Y-18709515D01*
X98099387Y-18702402D01*
X98075001Y-18700000D01*
X86724999Y-18700000D01*
X86700613Y-18702402D01*
X86677164Y-18709515D01*
X86655553Y-18721066D01*
X86636611Y-18736611D01*
X86621066Y-18755553D01*
X86609515Y-18777164D01*
X86602402Y-18800613D01*
X86600000Y-18824999D01*
X84600001Y-18824999D01*
X84600000Y-17700877D01*
X84614469Y-17553969D01*
X84671652Y-17365464D01*
X84764507Y-17191742D01*
X84840642Y-17098972D01*
X84889472Y-17039472D01*
X84907423Y-17024740D01*
X84924740Y-17007423D01*
X84939472Y-16989472D01*
X85030816Y-16914508D01*
X85091742Y-16864507D01*
X85265463Y-16771652D01*
X85265465Y-16771651D01*
X85359716Y-16743060D01*
X85453968Y-16714469D01*
X85600876Y-16700000D01*
X99199124Y-16700000D01*
X99346032Y-16714469D01*
G37*
G36*
X80296032Y-16714469D02*
G01*
X80390285Y-16743061D01*
X80484535Y-16771651D01*
X80484537Y-16771652D01*
X80658258Y-16864507D01*
X80719184Y-16914508D01*
X80810528Y-16989472D01*
X80825260Y-17007423D01*
X80842577Y-17024740D01*
X80860528Y-17039472D01*
X80909358Y-17098972D01*
X80985493Y-17191742D01*
X81078348Y-17365463D01*
X81135531Y-17553968D01*
X81150000Y-17700876D01*
X81150000Y-31299124D01*
X81135531Y-31446032D01*
X81078348Y-31634537D01*
X80985493Y-31808258D01*
X80909358Y-31901028D01*
X80860528Y-31960528D01*
X80842577Y-31975260D01*
X80825260Y-31992577D01*
X80810528Y-32010528D01*
X80751028Y-32059358D01*
X80658258Y-32135493D01*
X80484537Y-32228348D01*
X80484535Y-32228349D01*
X80397212Y-32254838D01*
X80296032Y-32285531D01*
X80149124Y-32300000D01*
X66550876Y-32300000D01*
X66403968Y-32285531D01*
X66302788Y-32254838D01*
X66215465Y-32228349D01*
X66215463Y-32228348D01*
X66041742Y-32135493D01*
X65889472Y-32010528D01*
X65874740Y-31992577D01*
X65857418Y-31975255D01*
X65839473Y-31960528D01*
X65783145Y-31891891D01*
X65714508Y-31808258D01*
X65621653Y-31634537D01*
X65564470Y-31446032D01*
X65550001Y-31299124D01*
X65550001Y-18824999D01*
X67550000Y-18824999D01*
X67550000Y-30175001D01*
X67552402Y-30199387D01*
X67559515Y-30222836D01*
X67571066Y-30244447D01*
X67586611Y-30263389D01*
X67605553Y-30278934D01*
X67627164Y-30290485D01*
X67650613Y-30297598D01*
X67674999Y-30300000D01*
X79025002Y-30300000D01*
X79049388Y-30297598D01*
X79072837Y-30290485D01*
X79094448Y-30278934D01*
X79113390Y-30263389D01*
X79128935Y-30244447D01*
X79140486Y-30222836D01*
X79147599Y-30199387D01*
X79150001Y-30175001D01*
X79150000Y-18824999D01*
X79147598Y-18800613D01*
X79140485Y-18777164D01*
X79128934Y-18755553D01*
X79113389Y-18736611D01*
X79094447Y-18721066D01*
X79072836Y-18709515D01*
X79049387Y-18702402D01*
X79025001Y-18700000D01*
X67674999Y-18700000D01*
X67650613Y-18702402D01*
X67627164Y-18709515D01*
X67605553Y-18721066D01*
X67586611Y-18736611D01*
X67571066Y-18755553D01*
X67559515Y-18777164D01*
X67552402Y-18800613D01*
X67550000Y-18824999D01*
X65550001Y-18824999D01*
X65550000Y-17700877D01*
X65564469Y-17553969D01*
X65621652Y-17365464D01*
X65714507Y-17191742D01*
X65790642Y-17098972D01*
X65839472Y-17039472D01*
X65857423Y-17024740D01*
X65874740Y-17007423D01*
X65889472Y-16989472D01*
X65980816Y-16914508D01*
X66041742Y-16864507D01*
X66215463Y-16771652D01*
X66215465Y-16771651D01*
X66309716Y-16743060D01*
X66403968Y-16714469D01*
X66550876Y-16700000D01*
X80149124Y-16700000D01*
X80296032Y-16714469D01*
G37*
G36*
X61246032Y-16714469D02*
G01*
X61340285Y-16743061D01*
X61434535Y-16771651D01*
X61434537Y-16771652D01*
X61608258Y-16864507D01*
X61669184Y-16914508D01*
X61760528Y-16989472D01*
X61775260Y-17007423D01*
X61792577Y-17024740D01*
X61810528Y-17039472D01*
X61859358Y-17098972D01*
X61935493Y-17191742D01*
X62028348Y-17365463D01*
X62085531Y-17553968D01*
X62100000Y-17700876D01*
X62100000Y-31299124D01*
X62085531Y-31446032D01*
X62028348Y-31634537D01*
X61935493Y-31808258D01*
X61859358Y-31901028D01*
X61810528Y-31960528D01*
X61792577Y-31975260D01*
X61775260Y-31992577D01*
X61760528Y-32010528D01*
X61701028Y-32059358D01*
X61608258Y-32135493D01*
X61434537Y-32228348D01*
X61434535Y-32228349D01*
X61347212Y-32254838D01*
X61246032Y-32285531D01*
X61099124Y-32300000D01*
X47500876Y-32300000D01*
X47353968Y-32285531D01*
X47252788Y-32254838D01*
X47165465Y-32228349D01*
X47165463Y-32228348D01*
X46991742Y-32135493D01*
X46839472Y-32010528D01*
X46824740Y-31992577D01*
X46807418Y-31975255D01*
X46789473Y-31960528D01*
X46733145Y-31891891D01*
X46664508Y-31808258D01*
X46571653Y-31634537D01*
X46514470Y-31446032D01*
X46500001Y-31299124D01*
X46500001Y-18824999D01*
X48500000Y-18824999D01*
X48500000Y-30175001D01*
X48502402Y-30199387D01*
X48509515Y-30222836D01*
X48521066Y-30244447D01*
X48536611Y-30263389D01*
X48555553Y-30278934D01*
X48577164Y-30290485D01*
X48600613Y-30297598D01*
X48624999Y-30300000D01*
X59975002Y-30300000D01*
X59999388Y-30297598D01*
X60022837Y-30290485D01*
X60044448Y-30278934D01*
X60063390Y-30263389D01*
X60078935Y-30244447D01*
X60090486Y-30222836D01*
X60097599Y-30199387D01*
X60100001Y-30175001D01*
X60100000Y-18824999D01*
X60097598Y-18800613D01*
X60090485Y-18777164D01*
X60078934Y-18755553D01*
X60063389Y-18736611D01*
X60044447Y-18721066D01*
X60022836Y-18709515D01*
X59999387Y-18702402D01*
X59975001Y-18700000D01*
X48624999Y-18700000D01*
X48600613Y-18702402D01*
X48577164Y-18709515D01*
X48555553Y-18721066D01*
X48536611Y-18736611D01*
X48521066Y-18755553D01*
X48509515Y-18777164D01*
X48502402Y-18800613D01*
X48500000Y-18824999D01*
X46500001Y-18824999D01*
X46500000Y-17700877D01*
X46514469Y-17553969D01*
X46571652Y-17365464D01*
X46664507Y-17191742D01*
X46740642Y-17098972D01*
X46789472Y-17039472D01*
X46807423Y-17024740D01*
X46824740Y-17007423D01*
X46839472Y-16989472D01*
X46930816Y-16914508D01*
X46991742Y-16864507D01*
X47165463Y-16771652D01*
X47165465Y-16771651D01*
X47259716Y-16743060D01*
X47353968Y-16714469D01*
X47500876Y-16700000D01*
X61099124Y-16700000D01*
X61246032Y-16714469D01*
G37*
G36*
X83195857Y-11536022D02*
G01*
X83396043Y-11618942D01*
X83396045Y-11618943D01*
X83486738Y-11679542D01*
X83576208Y-11739324D01*
X83729426Y-11892542D01*
X83849808Y-12072707D01*
X83932728Y-12272893D01*
X83975000Y-12485408D01*
X83975000Y-12702092D01*
X83932728Y-12914607D01*
X83849808Y-13114793D01*
X83849807Y-13114795D01*
X83729425Y-13294959D01*
X83576209Y-13448175D01*
X83396045Y-13568557D01*
X83396044Y-13568558D01*
X83396043Y-13568558D01*
X83195857Y-13651478D01*
X82983342Y-13693750D01*
X82766658Y-13693750D01*
X82554143Y-13651478D01*
X82353957Y-13568558D01*
X82353956Y-13568558D01*
X82353955Y-13568557D01*
X82173791Y-13448175D01*
X82020575Y-13294959D01*
X81900193Y-13114795D01*
X81900192Y-13114793D01*
X81817272Y-12914607D01*
X81775000Y-12702092D01*
X81775000Y-12485408D01*
X81817272Y-12272893D01*
X81900192Y-12072707D01*
X82020574Y-11892542D01*
X82173792Y-11739324D01*
X82263262Y-11679542D01*
X82353955Y-11618943D01*
X82353957Y-11618942D01*
X82554143Y-11536022D01*
X82766658Y-11493750D01*
X82983342Y-11493750D01*
X83195857Y-11536022D01*
G37*
G36*
X45095857Y-11536022D02*
G01*
X45296043Y-11618942D01*
X45296045Y-11618943D01*
X45386738Y-11679542D01*
X45476208Y-11739324D01*
X45629426Y-11892542D01*
X45749808Y-12072707D01*
X45832728Y-12272893D01*
X45875000Y-12485408D01*
X45875000Y-12702092D01*
X45832728Y-12914607D01*
X45749808Y-13114793D01*
X45749807Y-13114795D01*
X45629425Y-13294959D01*
X45476209Y-13448175D01*
X45296045Y-13568557D01*
X45296044Y-13568558D01*
X45296043Y-13568558D01*
X45095857Y-13651478D01*
X44883342Y-13693750D01*
X44666658Y-13693750D01*
X44454143Y-13651478D01*
X44253957Y-13568558D01*
X44253956Y-13568558D01*
X44253955Y-13568557D01*
X44073791Y-13448175D01*
X43920575Y-13294959D01*
X43800193Y-13114795D01*
X43800192Y-13114793D01*
X43717272Y-12914607D01*
X43675000Y-12702092D01*
X43675000Y-12485408D01*
X43717272Y-12272893D01*
X43800192Y-12072707D01*
X43920574Y-11892542D01*
X44073792Y-11739324D01*
X44163262Y-11679542D01*
X44253955Y-11618943D01*
X44253957Y-11618942D01*
X44454143Y-11536022D01*
X44666658Y-11493750D01*
X44883342Y-11493750D01*
X45095857Y-11536022D01*
G37*
M02*
