G04 #@! TF.GenerationSoftware,KiCad,Pcbnew,(5.1.5)-3*
G04 #@! TF.CreationDate,2021-03-06T01:57:47+09:00*
G04 #@! TF.ProjectId,Getta25,47657474-6132-4352-9e6b-696361645f70,rev?*
G04 #@! TF.SameCoordinates,Original*
G04 #@! TF.FileFunction,Soldermask,Bot*
G04 #@! TF.FilePolarity,Negative*
%FSLAX46Y46*%
G04 Gerber Fmt 4.6, Leading zero omitted, Abs format (unit mm)*
G04 Created by KiCad (PCBNEW (5.1.5)-3) date 2021-03-06 01:57:47*
%MOMM*%
%LPD*%
G04 APERTURE LIST*
%ADD10C,0.010000*%
%ADD11C,0.100000*%
G04 APERTURE END LIST*
D10*
G36*
X73902840Y8356344D02*
G01*
X73817656Y8310362D01*
X73687364Y8238461D01*
X73518797Y8144517D01*
X73318786Y8032406D01*
X73094164Y7906003D01*
X72851763Y7769184D01*
X72598415Y7625824D01*
X72340952Y7479800D01*
X72086207Y7334986D01*
X71841011Y7195259D01*
X71612197Y7064493D01*
X71406598Y6946564D01*
X71231044Y6845349D01*
X71092369Y6764722D01*
X70997405Y6708558D01*
X70952983Y6680735D01*
X70951264Y6679390D01*
X70946339Y6636399D01*
X70970718Y6563652D01*
X70973725Y6557504D01*
X71022268Y6459514D01*
X71076920Y6347700D01*
X71084496Y6332066D01*
X71130207Y6253621D01*
X71170609Y6210270D01*
X71180568Y6207135D01*
X71215912Y6223916D01*
X71304243Y6271291D01*
X71439852Y6346055D01*
X71617026Y6445003D01*
X71830058Y6564927D01*
X72073236Y6702624D01*
X72340851Y6854886D01*
X72627192Y7018509D01*
X72693695Y7056608D01*
X74172190Y7904012D01*
X74068719Y8138272D01*
X74015637Y8250351D01*
X73969576Y8333211D01*
X73939203Y8371544D01*
X73936084Y8372533D01*
X73902840Y8356344D01*
G37*
X73902840Y8356344D02*
X73817656Y8310362D01*
X73687364Y8238461D01*
X73518797Y8144517D01*
X73318786Y8032406D01*
X73094164Y7906003D01*
X72851763Y7769184D01*
X72598415Y7625824D01*
X72340952Y7479800D01*
X72086207Y7334986D01*
X71841011Y7195259D01*
X71612197Y7064493D01*
X71406598Y6946564D01*
X71231044Y6845349D01*
X71092369Y6764722D01*
X70997405Y6708558D01*
X70952983Y6680735D01*
X70951264Y6679390D01*
X70946339Y6636399D01*
X70970718Y6563652D01*
X70973725Y6557504D01*
X71022268Y6459514D01*
X71076920Y6347700D01*
X71084496Y6332066D01*
X71130207Y6253621D01*
X71170609Y6210270D01*
X71180568Y6207135D01*
X71215912Y6223916D01*
X71304243Y6271291D01*
X71439852Y6346055D01*
X71617026Y6445003D01*
X71830058Y6564927D01*
X72073236Y6702624D01*
X72340851Y6854886D01*
X72627192Y7018509D01*
X72693695Y7056608D01*
X74172190Y7904012D01*
X74068719Y8138272D01*
X74015637Y8250351D01*
X73969576Y8333211D01*
X73939203Y8371544D01*
X73936084Y8372533D01*
X73902840Y8356344D01*
G36*
X76583067Y2920000D02*
G01*
X77091067Y2920000D01*
X77091067Y6509866D01*
X76583067Y6509866D01*
X76583067Y2920000D01*
G37*
X76583067Y2920000D02*
X77091067Y2920000D01*
X77091067Y6509866D01*
X76583067Y6509866D01*
X76583067Y2920000D01*
G36*
X71213019Y3388214D02*
G01*
X71176551Y3334182D01*
X71126676Y3240141D01*
X71085438Y3151566D01*
X71001418Y2959799D01*
X72417875Y2110166D01*
X72699622Y1941534D01*
X72963966Y1784030D01*
X73205188Y1641011D01*
X73417566Y1515834D01*
X73595383Y1411858D01*
X73732919Y1332440D01*
X73824454Y1280937D01*
X73864270Y1260707D01*
X73865185Y1260533D01*
X73894264Y1288627D01*
X73942483Y1362767D01*
X74000085Y1467735D01*
X74007839Y1483021D01*
X74059251Y1596307D01*
X74088827Y1684350D01*
X74091263Y1730992D01*
X74089819Y1732748D01*
X74055565Y1755078D01*
X73968884Y1808571D01*
X73835549Y1889744D01*
X73661335Y1995112D01*
X73452016Y2121191D01*
X73213365Y2264498D01*
X72951157Y2421548D01*
X72671165Y2588857D01*
X72658290Y2596541D01*
X72328176Y2793122D01*
X72051336Y2956892D01*
X71823235Y3090336D01*
X71639335Y3195939D01*
X71495102Y3276185D01*
X71385999Y3333559D01*
X71307489Y3370546D01*
X71255038Y3389630D01*
X71224109Y3393297D01*
X71213019Y3388214D01*
G37*
X71213019Y3388214D02*
X71176551Y3334182D01*
X71126676Y3240141D01*
X71085438Y3151566D01*
X71001418Y2959799D01*
X72417875Y2110166D01*
X72699622Y1941534D01*
X72963966Y1784030D01*
X73205188Y1641011D01*
X73417566Y1515834D01*
X73595383Y1411858D01*
X73732919Y1332440D01*
X73824454Y1280937D01*
X73864270Y1260707D01*
X73865185Y1260533D01*
X73894264Y1288627D01*
X73942483Y1362767D01*
X74000085Y1467735D01*
X74007839Y1483021D01*
X74059251Y1596307D01*
X74088827Y1684350D01*
X74091263Y1730992D01*
X74089819Y1732748D01*
X74055565Y1755078D01*
X73968884Y1808571D01*
X73835549Y1889744D01*
X73661335Y1995112D01*
X73452016Y2121191D01*
X73213365Y2264498D01*
X72951157Y2421548D01*
X72671165Y2588857D01*
X72658290Y2596541D01*
X72328176Y2793122D01*
X72051336Y2956892D01*
X71823235Y3090336D01*
X71639335Y3195939D01*
X71495102Y3276185D01*
X71385999Y3333559D01*
X71307489Y3370546D01*
X71255038Y3389630D01*
X71224109Y3393297D01*
X71213019Y3388214D01*
G36*
X68624400Y13249333D02*
G01*
X67845467Y13249333D01*
X67845467Y13994400D01*
X67540667Y13994400D01*
X67540667Y12165600D01*
X67845467Y12165600D01*
X67845467Y12978400D01*
X68624400Y12978400D01*
X68624400Y12165600D01*
X68929200Y12165600D01*
X68929200Y13994400D01*
X68624400Y13994400D01*
X68624400Y13249333D01*
G37*
X68624400Y13249333D02*
X67845467Y13249333D01*
X67845467Y13994400D01*
X67540667Y13994400D01*
X67540667Y12165600D01*
X67845467Y12165600D01*
X67845467Y12978400D01*
X68624400Y12978400D01*
X68624400Y12165600D01*
X68929200Y12165600D01*
X68929200Y13994400D01*
X68624400Y13994400D01*
X68624400Y13249333D01*
G36*
X69859820Y13963724D02*
G01*
X69667735Y13872552D01*
X69510534Y13736759D01*
X69503920Y13728892D01*
X69394177Y13547013D01*
X69327026Y13329541D01*
X69302706Y13093742D01*
X69321454Y12856879D01*
X69383510Y12636218D01*
X69486293Y12452695D01*
X69629907Y12314337D01*
X69812273Y12212464D01*
X70013627Y12154134D01*
X70214208Y12146405D01*
X70300800Y12161793D01*
X70496948Y12242568D01*
X70670901Y12370646D01*
X70807295Y12531876D01*
X70888029Y12702672D01*
X70913294Y12838075D01*
X70925039Y13011829D01*
X70924383Y13080000D01*
X70603644Y13080000D01*
X70585157Y12851400D01*
X70527725Y12673039D01*
X70428393Y12537775D01*
X70355059Y12479313D01*
X70200704Y12414016D01*
X70038745Y12414069D01*
X69885932Y12475633D01*
X69766197Y12583628D01*
X69687304Y12736771D01*
X69647295Y12939877D01*
X69641144Y13077774D01*
X69662083Y13307022D01*
X69723885Y13494861D01*
X69822825Y13636031D01*
X69955181Y13725268D01*
X70117229Y13757310D01*
X70121989Y13757333D01*
X70282781Y13726611D01*
X70415581Y13638420D01*
X70516146Y13498724D01*
X70580238Y13313487D01*
X70603615Y13088672D01*
X70603644Y13080000D01*
X70924383Y13080000D01*
X70923265Y13195915D01*
X70907971Y13362315D01*
X70888029Y13457327D01*
X70815434Y13609312D01*
X70697880Y13759249D01*
X70554955Y13884552D01*
X70474961Y13933591D01*
X70280476Y13997836D01*
X70069748Y14006682D01*
X69859820Y13963724D01*
G37*
X69859820Y13963724D02*
X69667735Y13872552D01*
X69510534Y13736759D01*
X69503920Y13728892D01*
X69394177Y13547013D01*
X69327026Y13329541D01*
X69302706Y13093742D01*
X69321454Y12856879D01*
X69383510Y12636218D01*
X69486293Y12452695D01*
X69629907Y12314337D01*
X69812273Y12212464D01*
X70013627Y12154134D01*
X70214208Y12146405D01*
X70300800Y12161793D01*
X70496948Y12242568D01*
X70670901Y12370646D01*
X70807295Y12531876D01*
X70888029Y12702672D01*
X70913294Y12838075D01*
X70925039Y13011829D01*
X70924383Y13080000D01*
X70603644Y13080000D01*
X70585157Y12851400D01*
X70527725Y12673039D01*
X70428393Y12537775D01*
X70355059Y12479313D01*
X70200704Y12414016D01*
X70038745Y12414069D01*
X69885932Y12475633D01*
X69766197Y12583628D01*
X69687304Y12736771D01*
X69647295Y12939877D01*
X69641144Y13077774D01*
X69662083Y13307022D01*
X69723885Y13494861D01*
X69822825Y13636031D01*
X69955181Y13725268D01*
X70117229Y13757310D01*
X70121989Y13757333D01*
X70282781Y13726611D01*
X70415581Y13638420D01*
X70516146Y13498724D01*
X70580238Y13313487D01*
X70603615Y13088672D01*
X70603644Y13080000D01*
X70924383Y13080000D01*
X70923265Y13195915D01*
X70907971Y13362315D01*
X70888029Y13457327D01*
X70815434Y13609312D01*
X70697880Y13759249D01*
X70554955Y13884552D01*
X70474961Y13933591D01*
X70280476Y13997836D01*
X70069748Y14006682D01*
X69859820Y13963724D01*
G36*
X71824087Y13963724D02*
G01*
X71632001Y13872552D01*
X71474801Y13736759D01*
X71468186Y13728892D01*
X71358444Y13547013D01*
X71291293Y13329541D01*
X71266972Y13093742D01*
X71285721Y12856879D01*
X71347777Y12636218D01*
X71450560Y12452695D01*
X71594173Y12314337D01*
X71776539Y12212464D01*
X71977894Y12154134D01*
X72178474Y12146405D01*
X72265067Y12161793D01*
X72461214Y12242568D01*
X72635167Y12370646D01*
X72771561Y12531876D01*
X72852296Y12702672D01*
X72877560Y12838075D01*
X72889306Y13011829D01*
X72888649Y13080000D01*
X72567910Y13080000D01*
X72549423Y12851400D01*
X72491992Y12673039D01*
X72392660Y12537775D01*
X72319325Y12479313D01*
X72164971Y12414016D01*
X72003012Y12414069D01*
X71850199Y12475633D01*
X71730464Y12583628D01*
X71651570Y12736771D01*
X71611562Y12939877D01*
X71605411Y13077774D01*
X71626350Y13307022D01*
X71688151Y13494861D01*
X71787092Y13636031D01*
X71919448Y13725268D01*
X72081496Y13757310D01*
X72086256Y13757333D01*
X72247048Y13726611D01*
X72379847Y13638420D01*
X72480413Y13498724D01*
X72544505Y13313487D01*
X72567882Y13088672D01*
X72567910Y13080000D01*
X72888649Y13080000D01*
X72887531Y13195915D01*
X72872238Y13362315D01*
X72852296Y13457327D01*
X72779700Y13609312D01*
X72662146Y13759249D01*
X72519222Y13884552D01*
X72439228Y13933591D01*
X72244743Y13997836D01*
X72034015Y14006682D01*
X71824087Y13963724D01*
G37*
X71824087Y13963724D02*
X71632001Y13872552D01*
X71474801Y13736759D01*
X71468186Y13728892D01*
X71358444Y13547013D01*
X71291293Y13329541D01*
X71266972Y13093742D01*
X71285721Y12856879D01*
X71347777Y12636218D01*
X71450560Y12452695D01*
X71594173Y12314337D01*
X71776539Y12212464D01*
X71977894Y12154134D01*
X72178474Y12146405D01*
X72265067Y12161793D01*
X72461214Y12242568D01*
X72635167Y12370646D01*
X72771561Y12531876D01*
X72852296Y12702672D01*
X72877560Y12838075D01*
X72889306Y13011829D01*
X72888649Y13080000D01*
X72567910Y13080000D01*
X72549423Y12851400D01*
X72491992Y12673039D01*
X72392660Y12537775D01*
X72319325Y12479313D01*
X72164971Y12414016D01*
X72003012Y12414069D01*
X71850199Y12475633D01*
X71730464Y12583628D01*
X71651570Y12736771D01*
X71611562Y12939877D01*
X71605411Y13077774D01*
X71626350Y13307022D01*
X71688151Y13494861D01*
X71787092Y13636031D01*
X71919448Y13725268D01*
X72081496Y13757310D01*
X72086256Y13757333D01*
X72247048Y13726611D01*
X72379847Y13638420D01*
X72480413Y13498724D01*
X72544505Y13313487D01*
X72567882Y13088672D01*
X72567910Y13080000D01*
X72888649Y13080000D01*
X72887531Y13195915D01*
X72872238Y13362315D01*
X72852296Y13457327D01*
X72779700Y13609312D01*
X72662146Y13759249D01*
X72519222Y13884552D01*
X72439228Y13933591D01*
X72244743Y13997836D01*
X72034015Y14006682D01*
X71824087Y13963724D01*
G36*
X73763912Y13996729D02*
G01*
X73731824Y13990470D01*
X73549844Y13919186D01*
X73395072Y13794821D01*
X73281057Y13630636D01*
X73233686Y13502882D01*
X73212950Y13386683D01*
X73228516Y13319625D01*
X73287668Y13289646D01*
X73365733Y13284237D01*
X73455445Y13295980D01*
X73513765Y13341477D01*
X73558281Y13436134D01*
X73566286Y13459892D01*
X73644096Y13605264D01*
X73761959Y13707072D01*
X73906608Y13754980D01*
X73948050Y13757333D01*
X74043040Y13747790D01*
X74121441Y13710215D01*
X74211044Y13631189D01*
X74212666Y13629570D01*
X74324283Y13474384D01*
X74393541Y13285438D01*
X74420190Y13079507D01*
X74403981Y12873368D01*
X74344664Y12683796D01*
X74241992Y12527567D01*
X74229229Y12514322D01*
X74150817Y12445568D01*
X74075884Y12412557D01*
X73972605Y12402891D01*
X73942627Y12402667D01*
X73827353Y12409620D01*
X73731321Y12427297D01*
X73699295Y12439266D01*
X73639265Y12497770D01*
X73578127Y12597187D01*
X73528512Y12712104D01*
X73503050Y12817109D01*
X73501944Y12836322D01*
X73495415Y12883100D01*
X73465242Y12904188D01*
X73393769Y12906988D01*
X73340333Y12904055D01*
X73243638Y12895308D01*
X73197783Y12877182D01*
X73185944Y12837260D01*
X73188665Y12792133D01*
X73235580Y12586340D01*
X73331286Y12407069D01*
X73466629Y12266419D01*
X73632454Y12176492D01*
X73661141Y12167636D01*
X73862631Y12136467D01*
X74072642Y12145357D01*
X74225108Y12181487D01*
X74402010Y12278434D01*
X74545178Y12424273D01*
X74652235Y12607856D01*
X74720805Y12818037D01*
X74748510Y13043669D01*
X74732972Y13273605D01*
X74671815Y13496699D01*
X74562662Y13701803D01*
X74552408Y13716241D01*
X74403171Y13866997D01*
X74215945Y13966024D01*
X73999826Y14010281D01*
X73763912Y13996729D01*
G37*
X73763912Y13996729D02*
X73731824Y13990470D01*
X73549844Y13919186D01*
X73395072Y13794821D01*
X73281057Y13630636D01*
X73233686Y13502882D01*
X73212950Y13386683D01*
X73228516Y13319625D01*
X73287668Y13289646D01*
X73365733Y13284237D01*
X73455445Y13295980D01*
X73513765Y13341477D01*
X73558281Y13436134D01*
X73566286Y13459892D01*
X73644096Y13605264D01*
X73761959Y13707072D01*
X73906608Y13754980D01*
X73948050Y13757333D01*
X74043040Y13747790D01*
X74121441Y13710215D01*
X74211044Y13631189D01*
X74212666Y13629570D01*
X74324283Y13474384D01*
X74393541Y13285438D01*
X74420190Y13079507D01*
X74403981Y12873368D01*
X74344664Y12683796D01*
X74241992Y12527567D01*
X74229229Y12514322D01*
X74150817Y12445568D01*
X74075884Y12412557D01*
X73972605Y12402891D01*
X73942627Y12402667D01*
X73827353Y12409620D01*
X73731321Y12427297D01*
X73699295Y12439266D01*
X73639265Y12497770D01*
X73578127Y12597187D01*
X73528512Y12712104D01*
X73503050Y12817109D01*
X73501944Y12836322D01*
X73495415Y12883100D01*
X73465242Y12904188D01*
X73393769Y12906988D01*
X73340333Y12904055D01*
X73243638Y12895308D01*
X73197783Y12877182D01*
X73185944Y12837260D01*
X73188665Y12792133D01*
X73235580Y12586340D01*
X73331286Y12407069D01*
X73466629Y12266419D01*
X73632454Y12176492D01*
X73661141Y12167636D01*
X73862631Y12136467D01*
X74072642Y12145357D01*
X74225108Y12181487D01*
X74402010Y12278434D01*
X74545178Y12424273D01*
X74652235Y12607856D01*
X74720805Y12818037D01*
X74748510Y13043669D01*
X74732972Y13273605D01*
X74671815Y13496699D01*
X74562662Y13701803D01*
X74552408Y13716241D01*
X74403171Y13866997D01*
X74215945Y13966024D01*
X73999826Y14010281D01*
X73763912Y13996729D01*
G36*
X65339333Y9016000D02*
G01*
X64560400Y9016000D01*
X64560400Y9761066D01*
X64255600Y9761066D01*
X64255600Y7932267D01*
X64560400Y7932267D01*
X64560400Y8745067D01*
X65339333Y8745067D01*
X65339333Y7932267D01*
X65644133Y7932267D01*
X65644133Y9761066D01*
X65339333Y9761066D01*
X65339333Y9016000D01*
G37*
X65339333Y9016000D02*
X64560400Y9016000D01*
X64560400Y9761066D01*
X64255600Y9761066D01*
X64255600Y7932267D01*
X64560400Y7932267D01*
X64560400Y8745067D01*
X65339333Y8745067D01*
X65339333Y7932267D01*
X65644133Y7932267D01*
X65644133Y9761066D01*
X65339333Y9761066D01*
X65339333Y9016000D01*
G36*
X66574754Y9730390D02*
G01*
X66382668Y9639218D01*
X66225467Y9503426D01*
X66218853Y9495559D01*
X66109110Y9313680D01*
X66041960Y9096208D01*
X66017639Y8860408D01*
X66036388Y8623545D01*
X66098444Y8402885D01*
X66201226Y8219361D01*
X66344840Y8081003D01*
X66527206Y7979130D01*
X66728561Y7920800D01*
X66929141Y7913072D01*
X67015733Y7928459D01*
X67211881Y8009234D01*
X67385834Y8137312D01*
X67522228Y8298542D01*
X67602963Y8469339D01*
X67628227Y8604741D01*
X67639972Y8778495D01*
X67639316Y8846667D01*
X67318577Y8846667D01*
X67300090Y8618067D01*
X67242658Y8439706D01*
X67143326Y8304441D01*
X67069992Y8245980D01*
X66915637Y8180682D01*
X66753678Y8180736D01*
X66600865Y8242300D01*
X66481130Y8350294D01*
X66402237Y8503438D01*
X66362228Y8706544D01*
X66356077Y8844441D01*
X66377016Y9073688D01*
X66438818Y9261528D01*
X66537759Y9402697D01*
X66670115Y9491935D01*
X66832163Y9523977D01*
X66836923Y9524000D01*
X66997715Y9493278D01*
X67130514Y9405087D01*
X67231080Y9265391D01*
X67295172Y9080154D01*
X67318548Y8855339D01*
X67318577Y8846667D01*
X67639316Y8846667D01*
X67638198Y8962582D01*
X67622905Y9128982D01*
X67602963Y9223994D01*
X67530367Y9375979D01*
X67412813Y9525915D01*
X67269888Y9651218D01*
X67189895Y9700257D01*
X66995409Y9764502D01*
X66784681Y9773349D01*
X66574754Y9730390D01*
G37*
X66574754Y9730390D02*
X66382668Y9639218D01*
X66225467Y9503426D01*
X66218853Y9495559D01*
X66109110Y9313680D01*
X66041960Y9096208D01*
X66017639Y8860408D01*
X66036388Y8623545D01*
X66098444Y8402885D01*
X66201226Y8219361D01*
X66344840Y8081003D01*
X66527206Y7979130D01*
X66728561Y7920800D01*
X66929141Y7913072D01*
X67015733Y7928459D01*
X67211881Y8009234D01*
X67385834Y8137312D01*
X67522228Y8298542D01*
X67602963Y8469339D01*
X67628227Y8604741D01*
X67639972Y8778495D01*
X67639316Y8846667D01*
X67318577Y8846667D01*
X67300090Y8618067D01*
X67242658Y8439706D01*
X67143326Y8304441D01*
X67069992Y8245980D01*
X66915637Y8180682D01*
X66753678Y8180736D01*
X66600865Y8242300D01*
X66481130Y8350294D01*
X66402237Y8503438D01*
X66362228Y8706544D01*
X66356077Y8844441D01*
X66377016Y9073688D01*
X66438818Y9261528D01*
X66537759Y9402697D01*
X66670115Y9491935D01*
X66832163Y9523977D01*
X66836923Y9524000D01*
X66997715Y9493278D01*
X67130514Y9405087D01*
X67231080Y9265391D01*
X67295172Y9080154D01*
X67318548Y8855339D01*
X67318577Y8846667D01*
X67639316Y8846667D01*
X67638198Y8962582D01*
X67622905Y9128982D01*
X67602963Y9223994D01*
X67530367Y9375979D01*
X67412813Y9525915D01*
X67269888Y9651218D01*
X67189895Y9700257D01*
X66995409Y9764502D01*
X66784681Y9773349D01*
X66574754Y9730390D01*
G36*
X73721333Y9103234D02*
G01*
X72079736Y8164989D01*
X71721231Y7960398D01*
X71416793Y7787459D01*
X71161923Y7643800D01*
X70952121Y7527045D01*
X70782889Y7434821D01*
X70649727Y7364755D01*
X70548136Y7314470D01*
X70473618Y7281595D01*
X70421672Y7263755D01*
X70387800Y7258575D01*
X70369469Y7262554D01*
X70324873Y7287315D01*
X70228712Y7341743D01*
X70088144Y7421752D01*
X69910329Y7523254D01*
X69702427Y7642164D01*
X69471595Y7774396D01*
X69250819Y7901039D01*
X69006247Y8041130D01*
X68778742Y8170889D01*
X68575347Y8286340D01*
X68403106Y8383510D01*
X68269063Y8458422D01*
X68180261Y8507104D01*
X68144719Y8525251D01*
X68106348Y8522078D01*
X68060384Y8478224D01*
X67999037Y8384977D01*
X67962734Y8321718D01*
X67902634Y8203834D01*
X67868606Y8114719D01*
X67865765Y8067986D01*
X67866874Y8066646D01*
X67902255Y8043424D01*
X67989678Y7990602D01*
X68122353Y7912150D01*
X68293495Y7812040D01*
X68496316Y7694242D01*
X68724027Y7562728D01*
X68963372Y7425175D01*
X70029867Y6813709D01*
X70046800Y4744374D01*
X70063734Y2675040D01*
X72019889Y1476720D01*
X72350463Y1274292D01*
X72663733Y1082614D01*
X72954973Y904567D01*
X73219460Y743030D01*
X73452469Y600886D01*
X73649275Y481015D01*
X73805155Y386298D01*
X73915384Y319616D01*
X73975237Y283851D01*
X73984989Y278400D01*
X74015109Y294792D01*
X74099177Y342139D01*
X74232382Y417698D01*
X74409917Y518727D01*
X74626971Y642482D01*
X74878736Y786220D01*
X75160403Y947199D01*
X75467164Y1122675D01*
X75794208Y1309905D01*
X75982766Y1417918D01*
X77971600Y2557435D01*
X77970373Y4779184D01*
X77969258Y6797733D01*
X77427965Y6797733D01*
X77420383Y4803172D01*
X77412800Y2808612D01*
X75702533Y1835291D01*
X73992267Y861971D01*
X73873734Y924301D01*
X73822434Y952890D01*
X73718465Y1012202D01*
X73567679Y1098854D01*
X73375925Y1209464D01*
X73149057Y1340650D01*
X72892925Y1489030D01*
X72613381Y1651224D01*
X72316277Y1823848D01*
X72163467Y1912725D01*
X70571734Y2838821D01*
X70564197Y4835210D01*
X70556661Y6831600D01*
X72250492Y7796800D01*
X72561764Y7973887D01*
X72856198Y8140842D01*
X73128408Y8294649D01*
X73373010Y8432292D01*
X73584620Y8550754D01*
X73757853Y8647019D01*
X73887324Y8718070D01*
X73967649Y8760893D01*
X73992831Y8772783D01*
X74030160Y8758056D01*
X74120469Y8711840D01*
X74258439Y8637136D01*
X74438754Y8536940D01*
X74656097Y8414251D01*
X74905150Y8272068D01*
X75180594Y8113388D01*
X75477114Y7941210D01*
X75734652Y7790650D01*
X77427965Y6797733D01*
X77969258Y6797733D01*
X77969145Y7000933D01*
X76107756Y8084667D01*
X74246367Y9168400D01*
X74246267Y11860800D01*
X73739027Y11860800D01*
X73721333Y9103234D01*
G37*
X73721333Y9103234D02*
X72079736Y8164989D01*
X71721231Y7960398D01*
X71416793Y7787459D01*
X71161923Y7643800D01*
X70952121Y7527045D01*
X70782889Y7434821D01*
X70649727Y7364755D01*
X70548136Y7314470D01*
X70473618Y7281595D01*
X70421672Y7263755D01*
X70387800Y7258575D01*
X70369469Y7262554D01*
X70324873Y7287315D01*
X70228712Y7341743D01*
X70088144Y7421752D01*
X69910329Y7523254D01*
X69702427Y7642164D01*
X69471595Y7774396D01*
X69250819Y7901039D01*
X69006247Y8041130D01*
X68778742Y8170889D01*
X68575347Y8286340D01*
X68403106Y8383510D01*
X68269063Y8458422D01*
X68180261Y8507104D01*
X68144719Y8525251D01*
X68106348Y8522078D01*
X68060384Y8478224D01*
X67999037Y8384977D01*
X67962734Y8321718D01*
X67902634Y8203834D01*
X67868606Y8114719D01*
X67865765Y8067986D01*
X67866874Y8066646D01*
X67902255Y8043424D01*
X67989678Y7990602D01*
X68122353Y7912150D01*
X68293495Y7812040D01*
X68496316Y7694242D01*
X68724027Y7562728D01*
X68963372Y7425175D01*
X70029867Y6813709D01*
X70046800Y4744374D01*
X70063734Y2675040D01*
X72019889Y1476720D01*
X72350463Y1274292D01*
X72663733Y1082614D01*
X72954973Y904567D01*
X73219460Y743030D01*
X73452469Y600886D01*
X73649275Y481015D01*
X73805155Y386298D01*
X73915384Y319616D01*
X73975237Y283851D01*
X73984989Y278400D01*
X74015109Y294792D01*
X74099177Y342139D01*
X74232382Y417698D01*
X74409917Y518727D01*
X74626971Y642482D01*
X74878736Y786220D01*
X75160403Y947199D01*
X75467164Y1122675D01*
X75794208Y1309905D01*
X75982766Y1417918D01*
X77971600Y2557435D01*
X77970373Y4779184D01*
X77969258Y6797733D01*
X77427965Y6797733D01*
X77420383Y4803172D01*
X77412800Y2808612D01*
X75702533Y1835291D01*
X73992267Y861971D01*
X73873734Y924301D01*
X73822434Y952890D01*
X73718465Y1012202D01*
X73567679Y1098854D01*
X73375925Y1209464D01*
X73149057Y1340650D01*
X72892925Y1489030D01*
X72613381Y1651224D01*
X72316277Y1823848D01*
X72163467Y1912725D01*
X70571734Y2838821D01*
X70564197Y4835210D01*
X70556661Y6831600D01*
X72250492Y7796800D01*
X72561764Y7973887D01*
X72856198Y8140842D01*
X73128408Y8294649D01*
X73373010Y8432292D01*
X73584620Y8550754D01*
X73757853Y8647019D01*
X73887324Y8718070D01*
X73967649Y8760893D01*
X73992831Y8772783D01*
X74030160Y8758056D01*
X74120469Y8711840D01*
X74258439Y8637136D01*
X74438754Y8536940D01*
X74656097Y8414251D01*
X74905150Y8272068D01*
X75180594Y8113388D01*
X75477114Y7941210D01*
X75734652Y7790650D01*
X77427965Y6797733D01*
X77969258Y6797733D01*
X77969145Y7000933D01*
X76107756Y8084667D01*
X74246367Y9168400D01*
X74246267Y11860800D01*
X73739027Y11860800D01*
X73721333Y9103234D01*
D11*
G36*
X123677107Y-2842272D02*
G01*
X123877293Y-2925192D01*
X123877295Y-2925193D01*
X123967988Y-2985792D01*
X124057458Y-3045574D01*
X124210676Y-3198792D01*
X124331058Y-3378957D01*
X124413978Y-3579143D01*
X124456250Y-3791658D01*
X124456250Y-4008342D01*
X124413978Y-4220857D01*
X124331058Y-4421043D01*
X124331057Y-4421045D01*
X124210675Y-4601209D01*
X124057459Y-4754425D01*
X123877295Y-4874807D01*
X123877294Y-4874808D01*
X123877293Y-4874808D01*
X123677107Y-4957728D01*
X123464592Y-5000000D01*
X123247908Y-5000000D01*
X123035393Y-4957728D01*
X122835207Y-4874808D01*
X122835206Y-4874808D01*
X122835205Y-4874807D01*
X122655041Y-4754425D01*
X122501825Y-4601209D01*
X122381443Y-4421045D01*
X122381442Y-4421043D01*
X122298522Y-4220857D01*
X122256250Y-4008342D01*
X122256250Y-3791658D01*
X122298522Y-3579143D01*
X122381442Y-3378957D01*
X122501824Y-3198792D01*
X122655042Y-3045574D01*
X122744512Y-2985792D01*
X122835205Y-2925193D01*
X122835207Y-2925192D01*
X123035393Y-2842272D01*
X123247908Y-2800000D01*
X123464592Y-2800000D01*
X123677107Y-2842272D01*
G37*
G36*
X26045857Y-2842272D02*
G01*
X26246043Y-2925192D01*
X26246045Y-2925193D01*
X26336738Y-2985792D01*
X26426208Y-3045574D01*
X26579426Y-3198792D01*
X26699808Y-3378957D01*
X26782728Y-3579143D01*
X26825000Y-3791658D01*
X26825000Y-4008342D01*
X26782728Y-4220857D01*
X26699808Y-4421043D01*
X26699807Y-4421045D01*
X26579425Y-4601209D01*
X26426209Y-4754425D01*
X26246045Y-4874807D01*
X26246044Y-4874808D01*
X26246043Y-4874808D01*
X26045857Y-4957728D01*
X25833342Y-5000000D01*
X25616658Y-5000000D01*
X25404143Y-4957728D01*
X25203957Y-4874808D01*
X25203956Y-4874808D01*
X25203955Y-4874807D01*
X25023791Y-4754425D01*
X24870575Y-4601209D01*
X24750193Y-4421045D01*
X24750192Y-4421043D01*
X24667272Y-4220857D01*
X24625000Y-4008342D01*
X24625000Y-3791658D01*
X24667272Y-3579143D01*
X24750192Y-3378957D01*
X24870574Y-3198792D01*
X25023792Y-3045574D01*
X25113262Y-2985792D01*
X25203955Y-2925193D01*
X25203957Y-2925192D01*
X25404143Y-2842272D01*
X25616658Y-2800000D01*
X25833342Y-2800000D01*
X26045857Y-2842272D01*
G37*
G36*
X26045857Y13563978D02*
G01*
X26246043Y13481058D01*
X26246045Y13481057D01*
X26336738Y13420458D01*
X26426208Y13360676D01*
X26579426Y13207458D01*
X26699808Y13027293D01*
X26782728Y12827107D01*
X26825000Y12614592D01*
X26825000Y12397908D01*
X26782728Y12185393D01*
X26699808Y11985207D01*
X26699807Y11985205D01*
X26579425Y11805041D01*
X26426209Y11651825D01*
X26246045Y11531443D01*
X26246044Y11531442D01*
X26246043Y11531442D01*
X26045857Y11448522D01*
X25833342Y11406250D01*
X25616658Y11406250D01*
X25404143Y11448522D01*
X25203957Y11531442D01*
X25203956Y11531442D01*
X25203955Y11531443D01*
X25023791Y11651825D01*
X24870575Y11805041D01*
X24750193Y11985205D01*
X24750192Y11985207D01*
X24667272Y12185393D01*
X24625000Y12397908D01*
X24625000Y12614592D01*
X24667272Y12827107D01*
X24750192Y13027293D01*
X24870574Y13207458D01*
X25023792Y13360676D01*
X25113262Y13420458D01*
X25203955Y13481057D01*
X25203957Y13481058D01*
X25404143Y13563978D01*
X25616658Y13606250D01*
X25833342Y13606250D01*
X26045857Y13563978D01*
G37*
G36*
X123677107Y22063978D02*
G01*
X123877293Y21981058D01*
X123877295Y21981057D01*
X123967988Y21920458D01*
X124057458Y21860676D01*
X124210676Y21707458D01*
X124331058Y21527293D01*
X124413978Y21327107D01*
X124456250Y21114592D01*
X124456250Y20897908D01*
X124413978Y20685393D01*
X124331058Y20485207D01*
X124331057Y20485205D01*
X124210675Y20305041D01*
X124057459Y20151825D01*
X123877295Y20031443D01*
X123877294Y20031442D01*
X123877293Y20031442D01*
X123677107Y19948522D01*
X123464592Y19906250D01*
X123247908Y19906250D01*
X123035393Y19948522D01*
X122835207Y20031442D01*
X122835206Y20031442D01*
X122835205Y20031443D01*
X122655041Y20151825D01*
X122501825Y20305041D01*
X122381443Y20485205D01*
X122381442Y20485207D01*
X122298522Y20685393D01*
X122256250Y20897908D01*
X122256250Y21114592D01*
X122298522Y21327107D01*
X122381442Y21527293D01*
X122501824Y21707458D01*
X122655042Y21860676D01*
X122744512Y21920458D01*
X122835205Y21981057D01*
X122835207Y21981058D01*
X123035393Y22063978D01*
X123247908Y22106250D01*
X123464592Y22106250D01*
X123677107Y22063978D01*
G37*
M02*
