G04 #@! TF.GenerationSoftware,KiCad,Pcbnew,(5.1.5)-3*
G04 #@! TF.CreationDate,2021-03-06T01:57:47+09:00*
G04 #@! TF.ProjectId,Getta25,47657474-6132-4352-9e6b-696361645f70,rev?*
G04 #@! TF.SameCoordinates,Original*
G04 #@! TF.FileFunction,Copper,L2,Bot*
G04 #@! TF.FilePolarity,Positive*
%FSLAX46Y46*%
G04 Gerber Fmt 4.6, Leading zero omitted, Abs format (unit mm)*
G04 Created by KiCad (PCBNEW (5.1.5)-3) date 2021-03-06 01:57:47*
%MOMM*%
%LPD*%
G04 APERTURE LIST*
%ADD10C,0.254000*%
G04 APERTURE END LIST*
D10*
G36*
X122421891Y22508349D02*
G01*
X122416534Y22494957D01*
X122373451Y22477112D01*
X121885388Y21989049D01*
X121867543Y21945966D01*
X121854151Y21940609D01*
X121742497Y21644079D01*
X121621250Y21351363D01*
X121621250Y21322073D01*
X121610927Y21294657D01*
X121621250Y20977966D01*
X121621250Y20661137D01*
X121632460Y20634074D01*
X121633414Y20604797D01*
X121854151Y20071891D01*
X121867543Y20066534D01*
X121885388Y20023451D01*
X122373451Y19535388D01*
X122416534Y19517543D01*
X122421891Y19504151D01*
X122718421Y19392497D01*
X123011137Y19271250D01*
X123040427Y19271250D01*
X123067843Y19260927D01*
X123384534Y19271250D01*
X123701363Y19271250D01*
X123728426Y19282460D01*
X123757703Y19283414D01*
X124290609Y19504151D01*
X124295966Y19517543D01*
X124339049Y19535388D01*
X124827112Y20023451D01*
X124844957Y20066534D01*
X124858349Y20071891D01*
X124970003Y20368421D01*
X125052500Y20567586D01*
X125052501Y-3434365D01*
X124858349Y-2965641D01*
X124844957Y-2960284D01*
X124827112Y-2917201D01*
X124339049Y-2429138D01*
X124295966Y-2411293D01*
X124290609Y-2397901D01*
X123994079Y-2286247D01*
X123701363Y-2165000D01*
X123672073Y-2165000D01*
X123644657Y-2154677D01*
X123327966Y-2165000D01*
X123011137Y-2165000D01*
X122984074Y-2176210D01*
X122954797Y-2177164D01*
X122421891Y-2397901D01*
X122416534Y-2411293D01*
X122373451Y-2429138D01*
X121885388Y-2917201D01*
X121867543Y-2960284D01*
X121854151Y-2965641D01*
X121742497Y-3262171D01*
X121621250Y-3554887D01*
X121621250Y-3584177D01*
X121610927Y-3611593D01*
X121621250Y-3928284D01*
X121621250Y-4245113D01*
X121632460Y-4272176D01*
X121633414Y-4301453D01*
X121854151Y-4834359D01*
X121867543Y-4839716D01*
X121885388Y-4882799D01*
X122373451Y-5370862D01*
X122416534Y-5388707D01*
X122421891Y-5402099D01*
X122718421Y-5513753D01*
X123011137Y-5635000D01*
X123040427Y-5635000D01*
X123067843Y-5645323D01*
X123384534Y-5635000D01*
X123701363Y-5635000D01*
X123728426Y-5623790D01*
X123757703Y-5622836D01*
X124290609Y-5402099D01*
X124295966Y-5388707D01*
X124339049Y-5370862D01*
X124827112Y-4882799D01*
X124844957Y-4839716D01*
X124858349Y-4834359D01*
X124970003Y-4537829D01*
X125052501Y-4338662D01*
X125052501Y-5600066D01*
X125003069Y-5880408D01*
X124891163Y-6074234D01*
X124719719Y-6218094D01*
X124480645Y-6305109D01*
X124367595Y-6315000D01*
X110067461Y-6315000D01*
X110000000Y-6301581D01*
X109932538Y-6315000D01*
X109732727Y-6354745D01*
X109506143Y-6506143D01*
X109500000Y-6515337D01*
X109493857Y-6506143D01*
X109267273Y-6354745D01*
X109067462Y-6315000D01*
X109067461Y-6315000D01*
X109000000Y-6301581D01*
X108932538Y-6315000D01*
X50067461Y-6315000D01*
X50000000Y-6301581D01*
X49932538Y-6315000D01*
X49732727Y-6354745D01*
X49506143Y-6506143D01*
X49500000Y-6515337D01*
X49493857Y-6506143D01*
X49267273Y-6354745D01*
X49067462Y-6315000D01*
X49067461Y-6315000D01*
X49000000Y-6301581D01*
X48932538Y-6315000D01*
X24743678Y-6315000D01*
X24463342Y-6265569D01*
X24269516Y-6153663D01*
X24125656Y-5982219D01*
X24038641Y-5743145D01*
X24028750Y-5630095D01*
X24028750Y-4365637D01*
X24222901Y-4834359D01*
X24236293Y-4839716D01*
X24254138Y-4882799D01*
X24742201Y-5370862D01*
X24785284Y-5388707D01*
X24790641Y-5402099D01*
X25087171Y-5513753D01*
X25379887Y-5635000D01*
X25409177Y-5635000D01*
X25436593Y-5645323D01*
X25753284Y-5635000D01*
X26070113Y-5635000D01*
X26097176Y-5623790D01*
X26126453Y-5622836D01*
X26659359Y-5402099D01*
X26664716Y-5388707D01*
X26707799Y-5370862D01*
X27195862Y-4882799D01*
X27213707Y-4839716D01*
X27227099Y-4834359D01*
X27338753Y-4537829D01*
X27460000Y-4245113D01*
X27460000Y-4215823D01*
X27470323Y-4188407D01*
X27460000Y-3871716D01*
X27460000Y-3554887D01*
X27448790Y-3527824D01*
X27447836Y-3498547D01*
X27227099Y-2965641D01*
X27213707Y-2960284D01*
X27195862Y-2917201D01*
X26707799Y-2429138D01*
X26664716Y-2411293D01*
X26659359Y-2397901D01*
X26362829Y-2286247D01*
X26070113Y-2165000D01*
X26040823Y-2165000D01*
X26013407Y-2154677D01*
X25696716Y-2165000D01*
X25379887Y-2165000D01*
X25352824Y-2176210D01*
X25323547Y-2177164D01*
X24790641Y-2397901D01*
X24785284Y-2411293D01*
X24742201Y-2429138D01*
X24254138Y-2917201D01*
X24236293Y-2960284D01*
X24222901Y-2965641D01*
X24111247Y-3262171D01*
X24028750Y-3461336D01*
X24028750Y12040613D01*
X24222901Y11571891D01*
X24236293Y11566534D01*
X24254138Y11523451D01*
X24742201Y11035388D01*
X24785284Y11017543D01*
X24790641Y11004151D01*
X25087171Y10892497D01*
X25379887Y10771250D01*
X25409177Y10771250D01*
X25436593Y10760927D01*
X25753284Y10771250D01*
X26070113Y10771250D01*
X26097176Y10782460D01*
X26126453Y10783414D01*
X26659359Y11004151D01*
X26664716Y11017543D01*
X26707799Y11035388D01*
X27195862Y11523451D01*
X27213707Y11566534D01*
X27227099Y11571891D01*
X27338753Y11868421D01*
X27460000Y12161137D01*
X27460000Y12190427D01*
X27470323Y12217843D01*
X27460000Y12534534D01*
X27460000Y12851363D01*
X27448790Y12878426D01*
X27447836Y12907703D01*
X27227099Y13440609D01*
X27213707Y13445966D01*
X27195862Y13489049D01*
X26707799Y13977112D01*
X26664716Y13994957D01*
X26659359Y14008349D01*
X26362829Y14120003D01*
X26070113Y14241250D01*
X26040823Y14241250D01*
X26013407Y14251573D01*
X25696716Y14241250D01*
X25379887Y14241250D01*
X25352824Y14230040D01*
X25323547Y14229086D01*
X24790641Y14008349D01*
X24785284Y13994957D01*
X24742201Y13977112D01*
X24254138Y13489049D01*
X24236293Y13445966D01*
X24222901Y13440609D01*
X24111247Y13144079D01*
X24028750Y12944914D01*
X24028750Y21987572D01*
X24078181Y22267908D01*
X24190086Y22461734D01*
X24361532Y22605594D01*
X24600602Y22692609D01*
X24713655Y22702500D01*
X122890613Y22702500D01*
X122421891Y22508349D01*
G37*
X122421891Y22508349D02*
X122416534Y22494957D01*
X122373451Y22477112D01*
X121885388Y21989049D01*
X121867543Y21945966D01*
X121854151Y21940609D01*
X121742497Y21644079D01*
X121621250Y21351363D01*
X121621250Y21322073D01*
X121610927Y21294657D01*
X121621250Y20977966D01*
X121621250Y20661137D01*
X121632460Y20634074D01*
X121633414Y20604797D01*
X121854151Y20071891D01*
X121867543Y20066534D01*
X121885388Y20023451D01*
X122373451Y19535388D01*
X122416534Y19517543D01*
X122421891Y19504151D01*
X122718421Y19392497D01*
X123011137Y19271250D01*
X123040427Y19271250D01*
X123067843Y19260927D01*
X123384534Y19271250D01*
X123701363Y19271250D01*
X123728426Y19282460D01*
X123757703Y19283414D01*
X124290609Y19504151D01*
X124295966Y19517543D01*
X124339049Y19535388D01*
X124827112Y20023451D01*
X124844957Y20066534D01*
X124858349Y20071891D01*
X124970003Y20368421D01*
X125052500Y20567586D01*
X125052501Y-3434365D01*
X124858349Y-2965641D01*
X124844957Y-2960284D01*
X124827112Y-2917201D01*
X124339049Y-2429138D01*
X124295966Y-2411293D01*
X124290609Y-2397901D01*
X123994079Y-2286247D01*
X123701363Y-2165000D01*
X123672073Y-2165000D01*
X123644657Y-2154677D01*
X123327966Y-2165000D01*
X123011137Y-2165000D01*
X122984074Y-2176210D01*
X122954797Y-2177164D01*
X122421891Y-2397901D01*
X122416534Y-2411293D01*
X122373451Y-2429138D01*
X121885388Y-2917201D01*
X121867543Y-2960284D01*
X121854151Y-2965641D01*
X121742497Y-3262171D01*
X121621250Y-3554887D01*
X121621250Y-3584177D01*
X121610927Y-3611593D01*
X121621250Y-3928284D01*
X121621250Y-4245113D01*
X121632460Y-4272176D01*
X121633414Y-4301453D01*
X121854151Y-4834359D01*
X121867543Y-4839716D01*
X121885388Y-4882799D01*
X122373451Y-5370862D01*
X122416534Y-5388707D01*
X122421891Y-5402099D01*
X122718421Y-5513753D01*
X123011137Y-5635000D01*
X123040427Y-5635000D01*
X123067843Y-5645323D01*
X123384534Y-5635000D01*
X123701363Y-5635000D01*
X123728426Y-5623790D01*
X123757703Y-5622836D01*
X124290609Y-5402099D01*
X124295966Y-5388707D01*
X124339049Y-5370862D01*
X124827112Y-4882799D01*
X124844957Y-4839716D01*
X124858349Y-4834359D01*
X124970003Y-4537829D01*
X125052501Y-4338662D01*
X125052501Y-5600066D01*
X125003069Y-5880408D01*
X124891163Y-6074234D01*
X124719719Y-6218094D01*
X124480645Y-6305109D01*
X124367595Y-6315000D01*
X110067461Y-6315000D01*
X110000000Y-6301581D01*
X109932538Y-6315000D01*
X109732727Y-6354745D01*
X109506143Y-6506143D01*
X109500000Y-6515337D01*
X109493857Y-6506143D01*
X109267273Y-6354745D01*
X109067462Y-6315000D01*
X109067461Y-6315000D01*
X109000000Y-6301581D01*
X108932538Y-6315000D01*
X50067461Y-6315000D01*
X50000000Y-6301581D01*
X49932538Y-6315000D01*
X49732727Y-6354745D01*
X49506143Y-6506143D01*
X49500000Y-6515337D01*
X49493857Y-6506143D01*
X49267273Y-6354745D01*
X49067462Y-6315000D01*
X49067461Y-6315000D01*
X49000000Y-6301581D01*
X48932538Y-6315000D01*
X24743678Y-6315000D01*
X24463342Y-6265569D01*
X24269516Y-6153663D01*
X24125656Y-5982219D01*
X24038641Y-5743145D01*
X24028750Y-5630095D01*
X24028750Y-4365637D01*
X24222901Y-4834359D01*
X24236293Y-4839716D01*
X24254138Y-4882799D01*
X24742201Y-5370862D01*
X24785284Y-5388707D01*
X24790641Y-5402099D01*
X25087171Y-5513753D01*
X25379887Y-5635000D01*
X25409177Y-5635000D01*
X25436593Y-5645323D01*
X25753284Y-5635000D01*
X26070113Y-5635000D01*
X26097176Y-5623790D01*
X26126453Y-5622836D01*
X26659359Y-5402099D01*
X26664716Y-5388707D01*
X26707799Y-5370862D01*
X27195862Y-4882799D01*
X27213707Y-4839716D01*
X27227099Y-4834359D01*
X27338753Y-4537829D01*
X27460000Y-4245113D01*
X27460000Y-4215823D01*
X27470323Y-4188407D01*
X27460000Y-3871716D01*
X27460000Y-3554887D01*
X27448790Y-3527824D01*
X27447836Y-3498547D01*
X27227099Y-2965641D01*
X27213707Y-2960284D01*
X27195862Y-2917201D01*
X26707799Y-2429138D01*
X26664716Y-2411293D01*
X26659359Y-2397901D01*
X26362829Y-2286247D01*
X26070113Y-2165000D01*
X26040823Y-2165000D01*
X26013407Y-2154677D01*
X25696716Y-2165000D01*
X25379887Y-2165000D01*
X25352824Y-2176210D01*
X25323547Y-2177164D01*
X24790641Y-2397901D01*
X24785284Y-2411293D01*
X24742201Y-2429138D01*
X24254138Y-2917201D01*
X24236293Y-2960284D01*
X24222901Y-2965641D01*
X24111247Y-3262171D01*
X24028750Y-3461336D01*
X24028750Y12040613D01*
X24222901Y11571891D01*
X24236293Y11566534D01*
X24254138Y11523451D01*
X24742201Y11035388D01*
X24785284Y11017543D01*
X24790641Y11004151D01*
X25087171Y10892497D01*
X25379887Y10771250D01*
X25409177Y10771250D01*
X25436593Y10760927D01*
X25753284Y10771250D01*
X26070113Y10771250D01*
X26097176Y10782460D01*
X26126453Y10783414D01*
X26659359Y11004151D01*
X26664716Y11017543D01*
X26707799Y11035388D01*
X27195862Y11523451D01*
X27213707Y11566534D01*
X27227099Y11571891D01*
X27338753Y11868421D01*
X27460000Y12161137D01*
X27460000Y12190427D01*
X27470323Y12217843D01*
X27460000Y12534534D01*
X27460000Y12851363D01*
X27448790Y12878426D01*
X27447836Y12907703D01*
X27227099Y13440609D01*
X27213707Y13445966D01*
X27195862Y13489049D01*
X26707799Y13977112D01*
X26664716Y13994957D01*
X26659359Y14008349D01*
X26362829Y14120003D01*
X26070113Y14241250D01*
X26040823Y14241250D01*
X26013407Y14251573D01*
X25696716Y14241250D01*
X25379887Y14241250D01*
X25352824Y14230040D01*
X25323547Y14229086D01*
X24790641Y14008349D01*
X24785284Y13994957D01*
X24742201Y13977112D01*
X24254138Y13489049D01*
X24236293Y13445966D01*
X24222901Y13440609D01*
X24111247Y13144079D01*
X24028750Y12944914D01*
X24028750Y21987572D01*
X24078181Y22267908D01*
X24190086Y22461734D01*
X24361532Y22605594D01*
X24600602Y22692609D01*
X24713655Y22702500D01*
X122890613Y22702500D01*
X122421891Y22508349D01*
G36*
X124617908Y22653069D02*
G01*
X124811734Y22541164D01*
X124955594Y22369718D01*
X125042609Y22130648D01*
X125052500Y22017595D01*
X125052500Y21471887D01*
X124858349Y21940609D01*
X124844957Y21945966D01*
X124827112Y21989049D01*
X124339049Y22477112D01*
X124295966Y22494957D01*
X124290609Y22508349D01*
X123994079Y22620003D01*
X123794914Y22702500D01*
X124337572Y22702500D01*
X124617908Y22653069D01*
G37*
X124617908Y22653069D02*
X124811734Y22541164D01*
X124955594Y22369718D01*
X125042609Y22130648D01*
X125052500Y22017595D01*
X125052500Y21471887D01*
X124858349Y21940609D01*
X124844957Y21945966D01*
X124827112Y21989049D01*
X124339049Y22477112D01*
X124295966Y22494957D01*
X124290609Y22508349D01*
X123994079Y22620003D01*
X123794914Y22702500D01*
X124337572Y22702500D01*
X124617908Y22653069D01*
M02*
