G04 #@! TF.GenerationSoftware,KiCad,Pcbnew,(5.1.5)-3*
G04 #@! TF.CreationDate,2021-03-06T02:04:42+09:00*
G04 #@! TF.ProjectId,Getta25,47657474-6132-4352-9e6b-696361645f70,rev?*
G04 #@! TF.SameCoordinates,Original*
G04 #@! TF.FileFunction,Copper,L2,Bot*
G04 #@! TF.FilePolarity,Positive*
%FSLAX46Y46*%
G04 Gerber Fmt 4.6, Leading zero omitted, Abs format (unit mm)*
G04 Created by KiCad (PCBNEW (5.1.5)-3) date 2021-03-06 02:04:42*
%MOMM*%
%LPD*%
G04 APERTURE LIST*
%ADD10O,2.000000X15.500000*%
%ADD11O,15.500000X2.000000*%
%ADD12C,2.000000*%
%ADD13O,33.500000X2.000000*%
%ADD14O,22.900000X2.000000*%
%ADD15O,4.000000X2.000000*%
%ADD16O,4.700000X2.000000*%
%ADD17O,2.000000X2.900000*%
%ADD18O,2.000000X4.000000*%
%ADD19O,2.000000X4.700000*%
%ADD20O,2.900000X2.000000*%
%ADD21O,2.000000X22.900000*%
%ADD22O,2.000000X33.500000*%
%ADD23O,13.650000X2.000000*%
%ADD24O,2.000000X32.900000*%
G04 APERTURE END LIST*
D10*
X80150000Y-67600000D03*
X66550000Y-67600000D03*
D11*
X73350000Y-74400000D03*
X73350000Y-60800000D03*
D10*
X99200000Y-24500000D03*
X85600000Y-24500000D03*
D11*
X92400000Y-31300000D03*
X92400000Y-17700000D03*
D12*
X105501454Y-128767188D02*
X110118726Y-116081338D01*
X118281274Y-133418662D02*
X122898546Y-120732812D01*
X122868662Y-120668726D02*
X110182812Y-116051454D01*
X118217188Y-133448546D02*
X105531338Y-128831274D01*
D10*
X42050000Y-105700000D03*
X28450000Y-105700000D03*
D11*
X35250000Y-112500000D03*
X35250000Y-98900000D03*
D10*
X61100000Y-105700000D03*
X47500000Y-105700000D03*
D11*
X54300000Y-112500000D03*
X54300000Y-98900000D03*
D10*
X80150000Y-105700000D03*
X66550000Y-105700000D03*
D11*
X73350000Y-112500000D03*
X73350000Y-98900000D03*
D12*
X105501454Y-108487188D02*
X110118726Y-95801338D01*
X118281274Y-113138662D02*
X122898546Y-100452812D01*
X122868662Y-100388726D02*
X110182812Y-95771454D01*
X118217188Y-113168546D02*
X105531338Y-108551274D01*
D10*
X61100000Y-86650000D03*
X47500000Y-86650000D03*
D11*
X54300000Y-93450000D03*
X54300000Y-79850000D03*
D10*
X80150000Y-86650000D03*
X66550000Y-86650000D03*
D11*
X73350000Y-93450000D03*
X73350000Y-79850000D03*
D12*
X105501454Y-88197188D02*
X110118726Y-75511338D01*
X118281274Y-92848662D02*
X122898546Y-80162812D01*
X122868662Y-80098726D02*
X110182812Y-75481454D01*
X118217188Y-92878546D02*
X105531338Y-88261274D01*
D10*
X42050000Y-67600000D03*
X28450000Y-67600000D03*
D11*
X35250000Y-74400000D03*
X35250000Y-60800000D03*
D12*
X105501454Y-67917188D02*
X110118726Y-55231338D01*
X118281274Y-72568662D02*
X122898546Y-59882812D01*
X122868662Y-59818726D02*
X110182812Y-55201454D01*
X118217188Y-72598546D02*
X105531338Y-67981274D01*
D10*
X42050000Y-48550000D03*
X28450000Y-48550000D03*
D11*
X35250000Y-55350000D03*
X35250000Y-41750000D03*
D10*
X61100000Y-48550000D03*
X47500000Y-48550000D03*
D11*
X54300000Y-55350000D03*
X54300000Y-41750000D03*
D10*
X80150000Y-48550000D03*
X66550000Y-48550000D03*
D11*
X73350000Y-55350000D03*
X73350000Y-41750000D03*
D10*
X99200000Y-48550000D03*
X85600000Y-48550000D03*
D11*
X92400000Y-55350000D03*
X92400000Y-41750000D03*
D10*
X42050000Y-24500000D03*
X28450000Y-24500000D03*
D11*
X35250000Y-31300000D03*
X35250000Y-17700000D03*
D10*
X61100000Y-24500000D03*
X47500000Y-24500000D03*
D11*
X54300000Y-31300000D03*
X54300000Y-17700000D03*
D10*
X80150000Y-24500000D03*
X66550000Y-24500000D03*
D11*
X73350000Y-31300000D03*
X73350000Y-17700000D03*
D10*
X42050000Y-86650000D03*
X28450000Y-86650000D03*
D11*
X35250000Y-93450000D03*
X35250000Y-79850000D03*
D10*
X61100000Y-67600000D03*
X47500000Y-67600000D03*
D11*
X54300000Y-74400000D03*
X54300000Y-60800000D03*
D10*
X80150000Y-124750000D03*
X66550000Y-124750000D03*
D11*
X73350000Y-131550000D03*
X73350000Y-117950000D03*
D13*
X44775000Y-131550000D03*
D14*
X44775000Y-117950000D03*
D15*
X59375000Y-117950000D03*
D10*
X28975000Y-124750000D03*
X60575000Y-124750000D03*
D16*
X56725000Y-117050000D03*
D17*
X58175000Y-117500000D03*
X55275000Y-117500000D03*
X31375000Y-117500000D03*
X34275000Y-117500000D03*
D16*
X32825000Y-117050000D03*
D15*
X30175000Y-117950000D03*
D18*
X85600000Y-129825000D03*
D19*
X84700000Y-127175000D03*
D20*
X85150000Y-125725000D03*
X85150000Y-128625000D03*
X85150000Y-104725000D03*
X85150000Y-101825000D03*
D19*
X84700000Y-103275000D03*
D11*
X92400000Y-99425000D03*
X92400000Y-131025000D03*
D18*
X85600000Y-100625000D03*
D21*
X85600000Y-115225000D03*
D22*
X99200000Y-115225000D03*
X99200000Y-77125000D03*
D21*
X85600000Y-77125000D03*
D18*
X85600000Y-62525000D03*
D11*
X92400000Y-92925000D03*
X92400000Y-61325000D03*
D19*
X84700000Y-65175000D03*
D20*
X85150000Y-63725000D03*
X85150000Y-66625000D03*
X85150000Y-90525000D03*
X85150000Y-87625000D03*
D19*
X84700000Y-89075000D03*
D18*
X85600000Y-91725000D03*
D23*
X121050000Y-42150000D03*
D24*
X126950000Y-26650000D03*
D23*
X121050000Y-11150000D03*
D24*
X115150000Y-26650000D03*
M02*
