G04 #@! TF.GenerationSoftware,KiCad,Pcbnew,(5.1.5)-3*
G04 #@! TF.CreationDate,2021-03-06T02:21:54+09:00*
G04 #@! TF.ProjectId,Getta25,47657474-6132-4352-9e6b-696361645f70,rev?*
G04 #@! TF.SameCoordinates,Original*
G04 #@! TF.FileFunction,Soldermask,Top*
G04 #@! TF.FilePolarity,Negative*
%FSLAX46Y46*%
G04 Gerber Fmt 4.6, Leading zero omitted, Abs format (unit mm)*
G04 Created by KiCad (PCBNEW (5.1.5)-3) date 2021-03-06 02:21:54*
%MOMM*%
%LPD*%
G04 APERTURE LIST*
%ADD10C,0.100000*%
G04 APERTURE END LIST*
D10*
G36*
X123677107Y-132979772D02*
G01*
X123877293Y-133062692D01*
X123877295Y-133062693D01*
X123967988Y-133123292D01*
X124057458Y-133183074D01*
X124210676Y-133336292D01*
X124331058Y-133516457D01*
X124413978Y-133716643D01*
X124456250Y-133929158D01*
X124456250Y-134145842D01*
X124413978Y-134358357D01*
X124331058Y-134558543D01*
X124331057Y-134558545D01*
X124210675Y-134738709D01*
X124057459Y-134891925D01*
X123877295Y-135012307D01*
X123877294Y-135012308D01*
X123877293Y-135012308D01*
X123677107Y-135095228D01*
X123464592Y-135137500D01*
X123247908Y-135137500D01*
X123035393Y-135095228D01*
X122835207Y-135012308D01*
X122835206Y-135012308D01*
X122835205Y-135012307D01*
X122655041Y-134891925D01*
X122501825Y-134738709D01*
X122381443Y-134558545D01*
X122381442Y-134558543D01*
X122298522Y-134358357D01*
X122256250Y-134145842D01*
X122256250Y-133929158D01*
X122298522Y-133716643D01*
X122381442Y-133516457D01*
X122501824Y-133336292D01*
X122655042Y-133183074D01*
X122744512Y-133123292D01*
X122835205Y-133062693D01*
X122835207Y-133062692D01*
X123035393Y-132979772D01*
X123247908Y-132937500D01*
X123464592Y-132937500D01*
X123677107Y-132979772D01*
G37*
G36*
X64145857Y-132979772D02*
G01*
X64346043Y-133062692D01*
X64346045Y-133062693D01*
X64436738Y-133123292D01*
X64526208Y-133183074D01*
X64679426Y-133336292D01*
X64799808Y-133516457D01*
X64882728Y-133716643D01*
X64925000Y-133929158D01*
X64925000Y-134145842D01*
X64882728Y-134358357D01*
X64799808Y-134558543D01*
X64799807Y-134558545D01*
X64679425Y-134738709D01*
X64526209Y-134891925D01*
X64346045Y-135012307D01*
X64346044Y-135012308D01*
X64346043Y-135012308D01*
X64145857Y-135095228D01*
X63933342Y-135137500D01*
X63716658Y-135137500D01*
X63504143Y-135095228D01*
X63303957Y-135012308D01*
X63303956Y-135012308D01*
X63303955Y-135012307D01*
X63123791Y-134891925D01*
X62970575Y-134738709D01*
X62850193Y-134558545D01*
X62850192Y-134558543D01*
X62767272Y-134358357D01*
X62725000Y-134145842D01*
X62725000Y-133929158D01*
X62767272Y-133716643D01*
X62850192Y-133516457D01*
X62970574Y-133336292D01*
X63123792Y-133183074D01*
X63213262Y-133123292D01*
X63303955Y-133062693D01*
X63303957Y-133062692D01*
X63504143Y-132979772D01*
X63716658Y-132937500D01*
X63933342Y-132937500D01*
X64145857Y-132979772D01*
G37*
G36*
X26045857Y-113929772D02*
G01*
X26246043Y-114012692D01*
X26246045Y-114012693D01*
X26336738Y-114073292D01*
X26426208Y-114133074D01*
X26579426Y-114286292D01*
X26699808Y-114466457D01*
X26782728Y-114666643D01*
X26825000Y-114879158D01*
X26825000Y-115095842D01*
X26782728Y-115308357D01*
X26699808Y-115508543D01*
X26699807Y-115508545D01*
X26579425Y-115688709D01*
X26426209Y-115841925D01*
X26246045Y-115962307D01*
X26246044Y-115962308D01*
X26246043Y-115962308D01*
X26045857Y-116045228D01*
X25833342Y-116087500D01*
X25616658Y-116087500D01*
X25404143Y-116045228D01*
X25203957Y-115962308D01*
X25203956Y-115962308D01*
X25203955Y-115962307D01*
X25023791Y-115841925D01*
X24870575Y-115688709D01*
X24750193Y-115508545D01*
X24750192Y-115508543D01*
X24667272Y-115308357D01*
X24625000Y-115095842D01*
X24625000Y-114879158D01*
X24667272Y-114666643D01*
X24750192Y-114466457D01*
X24870574Y-114286292D01*
X25023792Y-114133074D01*
X25113262Y-114073292D01*
X25203955Y-114012693D01*
X25203957Y-114012692D01*
X25404143Y-113929772D01*
X25616658Y-113887500D01*
X25833342Y-113887500D01*
X26045857Y-113929772D01*
G37*
G36*
X123677107Y-73448522D02*
G01*
X123877293Y-73531442D01*
X123877295Y-73531443D01*
X123967988Y-73592042D01*
X124057458Y-73651824D01*
X124210676Y-73805042D01*
X124331058Y-73985207D01*
X124413978Y-74185393D01*
X124456250Y-74397908D01*
X124456250Y-74614592D01*
X124413978Y-74827107D01*
X124331058Y-75027293D01*
X124331057Y-75027295D01*
X124210675Y-75207459D01*
X124057459Y-75360675D01*
X123877295Y-75481057D01*
X123877294Y-75481058D01*
X123877293Y-75481058D01*
X123677107Y-75563978D01*
X123464592Y-75606250D01*
X123247908Y-75606250D01*
X123035393Y-75563978D01*
X122835207Y-75481058D01*
X122835206Y-75481058D01*
X122835205Y-75481057D01*
X122655041Y-75360675D01*
X122501825Y-75207459D01*
X122381443Y-75027295D01*
X122381442Y-75027293D01*
X122298522Y-74827107D01*
X122256250Y-74614592D01*
X122256250Y-74397908D01*
X122298522Y-74185393D01*
X122381442Y-73985207D01*
X122501824Y-73805042D01*
X122655042Y-73651824D01*
X122744512Y-73592042D01*
X122835205Y-73531443D01*
X122835207Y-73531442D01*
X123035393Y-73448522D01*
X123247908Y-73406250D01*
X123464592Y-73406250D01*
X123677107Y-73448522D01*
G37*
G36*
X26045857Y-56779772D02*
G01*
X26246043Y-56862692D01*
X26246045Y-56862693D01*
X26336738Y-56923292D01*
X26426208Y-56983074D01*
X26579426Y-57136292D01*
X26699808Y-57316457D01*
X26782728Y-57516643D01*
X26825000Y-57729158D01*
X26825000Y-57945842D01*
X26782728Y-58158357D01*
X26699808Y-58358543D01*
X26699807Y-58358545D01*
X26579425Y-58538709D01*
X26426209Y-58691925D01*
X26246045Y-58812307D01*
X26246044Y-58812308D01*
X26246043Y-58812308D01*
X26045857Y-58895228D01*
X25833342Y-58937500D01*
X25616658Y-58937500D01*
X25404143Y-58895228D01*
X25203957Y-58812308D01*
X25203956Y-58812308D01*
X25203955Y-58812307D01*
X25023791Y-58691925D01*
X24870575Y-58538709D01*
X24750193Y-58358545D01*
X24750192Y-58358543D01*
X24667272Y-58158357D01*
X24625000Y-57945842D01*
X24625000Y-57729158D01*
X24667272Y-57516643D01*
X24750192Y-57316457D01*
X24870574Y-57136292D01*
X25023792Y-56983074D01*
X25113262Y-56923292D01*
X25203955Y-56862693D01*
X25203957Y-56862692D01*
X25404143Y-56779772D01*
X25616658Y-56737500D01*
X25833342Y-56737500D01*
X26045857Y-56779772D01*
G37*
G36*
X123677107Y-52842272D02*
G01*
X123877293Y-52925192D01*
X123877295Y-52925193D01*
X123967988Y-52985792D01*
X124057458Y-53045574D01*
X124210676Y-53198792D01*
X124331058Y-53378957D01*
X124413978Y-53579143D01*
X124456250Y-53791658D01*
X124456250Y-54008342D01*
X124413978Y-54220857D01*
X124331058Y-54421043D01*
X124331057Y-54421045D01*
X124210675Y-54601209D01*
X124057459Y-54754425D01*
X123877295Y-54874807D01*
X123877294Y-54874808D01*
X123877293Y-54874808D01*
X123677107Y-54957728D01*
X123464592Y-55000000D01*
X123247908Y-55000000D01*
X123035393Y-54957728D01*
X122835207Y-54874808D01*
X122835206Y-54874808D01*
X122835205Y-54874807D01*
X122655041Y-54754425D01*
X122501825Y-54601209D01*
X122381443Y-54421045D01*
X122381442Y-54421043D01*
X122298522Y-54220857D01*
X122256250Y-54008342D01*
X122256250Y-53791658D01*
X122298522Y-53579143D01*
X122381442Y-53378957D01*
X122501824Y-53198792D01*
X122655042Y-53045574D01*
X122744512Y-52985792D01*
X122835205Y-52925193D01*
X122835207Y-52925192D01*
X123035393Y-52842272D01*
X123247908Y-52800000D01*
X123464592Y-52800000D01*
X123677107Y-52842272D01*
G37*
G36*
X104870857Y-43942272D02*
G01*
X105071043Y-44025192D01*
X105071045Y-44025193D01*
X105161738Y-44085792D01*
X105251208Y-44145574D01*
X105404426Y-44298792D01*
X105524808Y-44478957D01*
X105607728Y-44679143D01*
X105650000Y-44891658D01*
X105650000Y-45108342D01*
X105607728Y-45320857D01*
X105524808Y-45521043D01*
X105524807Y-45521045D01*
X105404425Y-45701209D01*
X105251209Y-45854425D01*
X105071045Y-45974807D01*
X105071044Y-45974808D01*
X105071043Y-45974808D01*
X104870857Y-46057728D01*
X104658342Y-46100000D01*
X104441658Y-46100000D01*
X104229143Y-46057728D01*
X104028957Y-45974808D01*
X104028956Y-45974808D01*
X104028955Y-45974807D01*
X103848791Y-45854425D01*
X103695575Y-45701209D01*
X103575193Y-45521045D01*
X103575192Y-45521043D01*
X103492272Y-45320857D01*
X103450000Y-45108342D01*
X103450000Y-44891658D01*
X103492272Y-44679143D01*
X103575192Y-44478957D01*
X103695574Y-44298792D01*
X103848792Y-44145574D01*
X103938262Y-44085792D01*
X104028955Y-44025193D01*
X104028957Y-44025192D01*
X104229143Y-43942272D01*
X104441658Y-43900000D01*
X104658342Y-43900000D01*
X104870857Y-43942272D01*
G37*
G36*
X123570857Y-36442272D02*
G01*
X123771043Y-36525192D01*
X123771045Y-36525193D01*
X123861738Y-36585792D01*
X123951208Y-36645574D01*
X124104426Y-36798792D01*
X124224808Y-36978957D01*
X124307728Y-37179143D01*
X124350000Y-37391658D01*
X124350000Y-37608342D01*
X124307728Y-37820857D01*
X124224808Y-38021043D01*
X124224807Y-38021045D01*
X124104425Y-38201209D01*
X123951209Y-38354425D01*
X123771045Y-38474807D01*
X123771044Y-38474808D01*
X123771043Y-38474808D01*
X123570857Y-38557728D01*
X123358342Y-38600000D01*
X123141658Y-38600000D01*
X122929143Y-38557728D01*
X122728957Y-38474808D01*
X122728956Y-38474808D01*
X122728955Y-38474807D01*
X122548791Y-38354425D01*
X122395575Y-38201209D01*
X122275193Y-38021045D01*
X122275192Y-38021043D01*
X122192272Y-37820857D01*
X122150000Y-37608342D01*
X122150000Y-37391658D01*
X122192272Y-37179143D01*
X122275192Y-36978957D01*
X122395574Y-36798792D01*
X122548792Y-36645574D01*
X122638262Y-36585792D01*
X122728955Y-36525193D01*
X122728957Y-36525192D01*
X122929143Y-36442272D01*
X123141658Y-36400000D01*
X123358342Y-36400000D01*
X123570857Y-36442272D01*
G37*
G36*
X102023195Y-37003522D02*
G01*
X102072267Y-37013283D01*
X102210942Y-37070724D01*
X102335747Y-37154116D01*
X102441884Y-37260253D01*
X102525276Y-37385058D01*
X102582717Y-37523733D01*
X102582717Y-37523734D01*
X102599547Y-37608341D01*
X102612000Y-37670950D01*
X102612000Y-37821050D01*
X102582717Y-37968267D01*
X102525276Y-38106942D01*
X102441884Y-38231747D01*
X102335747Y-38337884D01*
X102210942Y-38421276D01*
X102072267Y-38478717D01*
X102023195Y-38488478D01*
X101925052Y-38508000D01*
X101774948Y-38508000D01*
X101676805Y-38488478D01*
X101627733Y-38478717D01*
X101489058Y-38421276D01*
X101364253Y-38337884D01*
X101258116Y-38231747D01*
X101174724Y-38106942D01*
X101117283Y-37968267D01*
X101088000Y-37821050D01*
X101088000Y-37670950D01*
X101100454Y-37608341D01*
X101117283Y-37523734D01*
X101117283Y-37523733D01*
X101174724Y-37385058D01*
X101258116Y-37260253D01*
X101364253Y-37154116D01*
X101489058Y-37070724D01*
X101627733Y-37013283D01*
X101676805Y-37003522D01*
X101774948Y-36984000D01*
X101925052Y-36984000D01*
X102023195Y-37003522D01*
G37*
G36*
X26045857Y-35692272D02*
G01*
X26246043Y-35775192D01*
X26246045Y-35775193D01*
X26280004Y-35797884D01*
X26426208Y-35895574D01*
X26579426Y-36048792D01*
X26699808Y-36228957D01*
X26782728Y-36429143D01*
X26825000Y-36641658D01*
X26825000Y-36858342D01*
X26782728Y-37070857D01*
X26699808Y-37271043D01*
X26579426Y-37451208D01*
X26426208Y-37604426D01*
X26420347Y-37608342D01*
X26246045Y-37724807D01*
X26246044Y-37724808D01*
X26246043Y-37724808D01*
X26045857Y-37807728D01*
X25833342Y-37850000D01*
X25616658Y-37850000D01*
X25404143Y-37807728D01*
X25203957Y-37724808D01*
X25203956Y-37724808D01*
X25203955Y-37724807D01*
X25029653Y-37608342D01*
X25023792Y-37604426D01*
X24870574Y-37451208D01*
X24750192Y-37271043D01*
X24667272Y-37070857D01*
X24625000Y-36858342D01*
X24625000Y-36641658D01*
X24667272Y-36429143D01*
X24750192Y-36228957D01*
X24870574Y-36048792D01*
X25023792Y-35895574D01*
X25169996Y-35797884D01*
X25203955Y-35775193D01*
X25203957Y-35775192D01*
X25404143Y-35692272D01*
X25616658Y-35650000D01*
X25833342Y-35650000D01*
X26045857Y-35692272D01*
G37*
G36*
X102023195Y-34463522D02*
G01*
X102072267Y-34473283D01*
X102210942Y-34530724D01*
X102335747Y-34614116D01*
X102441884Y-34720253D01*
X102525276Y-34845058D01*
X102582717Y-34983733D01*
X102612000Y-35130950D01*
X102612000Y-35281050D01*
X102582717Y-35428267D01*
X102525276Y-35566942D01*
X102441884Y-35691747D01*
X102335747Y-35797884D01*
X102210942Y-35881276D01*
X102072267Y-35938717D01*
X102023195Y-35948478D01*
X101925052Y-35968000D01*
X101774948Y-35968000D01*
X101676805Y-35948478D01*
X101627733Y-35938717D01*
X101489058Y-35881276D01*
X101364253Y-35797884D01*
X101258116Y-35691747D01*
X101174724Y-35566942D01*
X101117283Y-35428267D01*
X101088000Y-35281050D01*
X101088000Y-35130950D01*
X101117283Y-34983733D01*
X101174724Y-34845058D01*
X101258116Y-34720253D01*
X101364253Y-34614116D01*
X101489058Y-34530724D01*
X101627733Y-34473283D01*
X101676805Y-34463522D01*
X101774948Y-34444000D01*
X101925052Y-34444000D01*
X102023195Y-34463522D01*
G37*
G36*
X44176426Y-22738022D02*
G01*
X44176429Y-22738023D01*
X44176430Y-22738023D01*
X44346080Y-22789486D01*
X44346082Y-22789487D01*
X44346085Y-22789488D01*
X44502432Y-22873056D01*
X44639475Y-22985525D01*
X44751944Y-23122569D01*
X44835512Y-23278914D01*
X44886978Y-23448573D01*
X44900000Y-23580789D01*
X44900000Y-24419210D01*
X44886978Y-24551428D01*
X44835513Y-24721084D01*
X44751944Y-24877431D01*
X44639475Y-25014475D01*
X44502431Y-25126944D01*
X44346086Y-25210512D01*
X44346083Y-25210513D01*
X44346081Y-25210514D01*
X44176431Y-25261977D01*
X44176430Y-25261977D01*
X44176427Y-25261978D01*
X44000000Y-25279354D01*
X43823574Y-25261978D01*
X43823571Y-25261977D01*
X43823570Y-25261977D01*
X43653920Y-25210514D01*
X43653918Y-25210513D01*
X43653915Y-25210512D01*
X43497570Y-25126944D01*
X43360526Y-25014475D01*
X43248057Y-24877431D01*
X43164489Y-24721086D01*
X43164487Y-24721081D01*
X43113023Y-24551431D01*
X43100000Y-24419207D01*
X43100000Y-23580789D01*
X43113022Y-23448574D01*
X43113023Y-23448570D01*
X43164486Y-23278920D01*
X43164487Y-23278918D01*
X43164488Y-23278915D01*
X43248056Y-23122568D01*
X43360525Y-22985525D01*
X43497569Y-22873056D01*
X43653914Y-22789488D01*
X43653917Y-22789487D01*
X43653919Y-22789486D01*
X43823569Y-22738023D01*
X43823570Y-22738023D01*
X43823573Y-22738022D01*
X44000000Y-22720646D01*
X44176426Y-22738022D01*
G37*
G36*
X65176426Y-22738022D02*
G01*
X65176429Y-22738023D01*
X65176430Y-22738023D01*
X65346080Y-22789486D01*
X65346082Y-22789487D01*
X65346085Y-22789488D01*
X65502432Y-22873056D01*
X65639475Y-22985525D01*
X65751944Y-23122569D01*
X65835512Y-23278914D01*
X65886978Y-23448573D01*
X65900000Y-23580789D01*
X65900000Y-24419210D01*
X65886978Y-24551428D01*
X65835513Y-24721084D01*
X65751944Y-24877431D01*
X65639475Y-25014475D01*
X65502431Y-25126944D01*
X65346086Y-25210512D01*
X65346083Y-25210513D01*
X65346081Y-25210514D01*
X65176431Y-25261977D01*
X65176430Y-25261977D01*
X65176427Y-25261978D01*
X65000000Y-25279354D01*
X64823574Y-25261978D01*
X64823571Y-25261977D01*
X64823570Y-25261977D01*
X64653920Y-25210514D01*
X64653918Y-25210513D01*
X64653915Y-25210512D01*
X64497570Y-25126944D01*
X64360526Y-25014475D01*
X64248057Y-24877431D01*
X64164489Y-24721086D01*
X64164487Y-24721081D01*
X64113023Y-24551431D01*
X64100000Y-24419207D01*
X64100000Y-23580789D01*
X64113022Y-23448574D01*
X64113023Y-23448570D01*
X64164486Y-23278920D01*
X64164487Y-23278918D01*
X64164488Y-23278915D01*
X64248056Y-23122568D01*
X64360525Y-22985525D01*
X64497569Y-22873056D01*
X64653914Y-22789488D01*
X64653917Y-22789487D01*
X64653919Y-22789486D01*
X64823569Y-22738023D01*
X64823570Y-22738023D01*
X64823573Y-22738022D01*
X65000000Y-22720646D01*
X65176426Y-22738022D01*
G37*
G36*
X83176426Y-22738022D02*
G01*
X83176429Y-22738023D01*
X83176430Y-22738023D01*
X83346080Y-22789486D01*
X83346082Y-22789487D01*
X83346085Y-22789488D01*
X83502432Y-22873056D01*
X83639475Y-22985525D01*
X83751944Y-23122569D01*
X83835512Y-23278914D01*
X83886978Y-23448573D01*
X83900000Y-23580789D01*
X83900000Y-24419210D01*
X83886978Y-24551428D01*
X83835513Y-24721084D01*
X83751944Y-24877431D01*
X83639475Y-25014475D01*
X83502431Y-25126944D01*
X83346086Y-25210512D01*
X83346083Y-25210513D01*
X83346081Y-25210514D01*
X83176431Y-25261977D01*
X83176430Y-25261977D01*
X83176427Y-25261978D01*
X83000000Y-25279354D01*
X82823574Y-25261978D01*
X82823571Y-25261977D01*
X82823570Y-25261977D01*
X82653920Y-25210514D01*
X82653918Y-25210513D01*
X82653915Y-25210512D01*
X82497570Y-25126944D01*
X82360526Y-25014475D01*
X82248057Y-24877431D01*
X82164489Y-24721086D01*
X82164487Y-24721081D01*
X82113023Y-24551431D01*
X82100000Y-24419207D01*
X82100000Y-23580789D01*
X82113022Y-23448574D01*
X82113023Y-23448570D01*
X82164486Y-23278920D01*
X82164487Y-23278918D01*
X82164488Y-23278915D01*
X82248056Y-23122568D01*
X82360525Y-22985525D01*
X82497569Y-22873056D01*
X82653914Y-22789488D01*
X82653917Y-22789487D01*
X82653919Y-22789486D01*
X82823569Y-22738023D01*
X82823570Y-22738023D01*
X82823573Y-22738022D01*
X83000000Y-22720646D01*
X83176426Y-22738022D01*
G37*
G36*
X62176426Y-22738022D02*
G01*
X62176429Y-22738023D01*
X62176430Y-22738023D01*
X62346080Y-22789486D01*
X62346082Y-22789487D01*
X62346085Y-22789488D01*
X62502432Y-22873056D01*
X62639475Y-22985525D01*
X62751944Y-23122569D01*
X62835512Y-23278914D01*
X62886978Y-23448573D01*
X62900000Y-23580789D01*
X62900000Y-24419210D01*
X62886978Y-24551428D01*
X62835513Y-24721084D01*
X62751944Y-24877431D01*
X62639475Y-25014475D01*
X62502431Y-25126944D01*
X62346086Y-25210512D01*
X62346083Y-25210513D01*
X62346081Y-25210514D01*
X62176431Y-25261977D01*
X62176430Y-25261977D01*
X62176427Y-25261978D01*
X62000000Y-25279354D01*
X61823574Y-25261978D01*
X61823571Y-25261977D01*
X61823570Y-25261977D01*
X61653920Y-25210514D01*
X61653918Y-25210513D01*
X61653915Y-25210512D01*
X61497570Y-25126944D01*
X61360526Y-25014475D01*
X61248057Y-24877431D01*
X61164489Y-24721086D01*
X61164487Y-24721081D01*
X61113023Y-24551431D01*
X61100000Y-24419207D01*
X61100000Y-23580789D01*
X61113022Y-23448574D01*
X61113023Y-23448570D01*
X61164486Y-23278920D01*
X61164487Y-23278918D01*
X61164488Y-23278915D01*
X61248056Y-23122568D01*
X61360525Y-22985525D01*
X61497569Y-22873056D01*
X61653914Y-22789488D01*
X61653917Y-22789487D01*
X61653919Y-22789486D01*
X61823569Y-22738023D01*
X61823570Y-22738023D01*
X61823573Y-22738022D01*
X62000000Y-22720646D01*
X62176426Y-22738022D01*
G37*
G36*
X26045857Y-20036022D02*
G01*
X26246043Y-20118942D01*
X26246045Y-20118943D01*
X26336738Y-20179542D01*
X26426208Y-20239324D01*
X26579426Y-20392542D01*
X26699808Y-20572707D01*
X26782728Y-20772893D01*
X26825000Y-20985408D01*
X26825000Y-21202092D01*
X26782728Y-21414607D01*
X26699808Y-21614793D01*
X26699807Y-21614795D01*
X26579425Y-21794959D01*
X26426209Y-21948175D01*
X26246045Y-22068557D01*
X26246044Y-22068558D01*
X26246043Y-22068558D01*
X26045857Y-22151478D01*
X25833342Y-22193750D01*
X25616658Y-22193750D01*
X25404143Y-22151478D01*
X25203957Y-22068558D01*
X25203956Y-22068558D01*
X25203955Y-22068557D01*
X25023791Y-21948175D01*
X24870575Y-21794959D01*
X24750193Y-21614795D01*
X24750192Y-21614793D01*
X24667272Y-21414607D01*
X24625000Y-21202092D01*
X24625000Y-20985408D01*
X24667272Y-20772893D01*
X24750192Y-20572707D01*
X24870574Y-20392542D01*
X25023792Y-20239324D01*
X25113262Y-20179542D01*
X25203955Y-20118943D01*
X25203957Y-20118942D01*
X25404143Y-20036022D01*
X25616658Y-19993750D01*
X25833342Y-19993750D01*
X26045857Y-20036022D01*
G37*
G36*
X63798015Y-14757234D02*
G01*
X63892270Y-14785826D01*
X63979128Y-14832253D01*
X64055264Y-14894736D01*
X64117747Y-14970872D01*
X64164174Y-15057730D01*
X64192766Y-15151985D01*
X64202419Y-15250000D01*
X64192766Y-15348015D01*
X64164174Y-15442270D01*
X64117747Y-15529128D01*
X64055264Y-15605264D01*
X63979128Y-15667747D01*
X63892270Y-15714174D01*
X63798015Y-15742766D01*
X63724564Y-15750000D01*
X63375436Y-15750000D01*
X63301985Y-15742766D01*
X63207730Y-15714174D01*
X63120872Y-15667747D01*
X63044736Y-15605264D01*
X62982253Y-15529128D01*
X62935826Y-15442270D01*
X62907234Y-15348015D01*
X62897581Y-15250000D01*
X62907234Y-15151985D01*
X62935826Y-15057730D01*
X62982253Y-14970872D01*
X63044736Y-14894736D01*
X63120872Y-14832253D01*
X63207730Y-14785826D01*
X63301985Y-14757234D01*
X63375436Y-14750000D01*
X63724564Y-14750000D01*
X63798015Y-14757234D01*
G37*
G36*
X61298015Y-14757234D02*
G01*
X61392270Y-14785826D01*
X61479128Y-14832253D01*
X61555264Y-14894736D01*
X61617747Y-14970872D01*
X61664174Y-15057730D01*
X61692766Y-15151985D01*
X61702419Y-15250000D01*
X61692766Y-15348015D01*
X61664174Y-15442270D01*
X61617747Y-15529128D01*
X61555264Y-15605264D01*
X61479128Y-15667747D01*
X61392270Y-15714174D01*
X61298015Y-15742766D01*
X61224564Y-15750000D01*
X60875436Y-15750000D01*
X60801985Y-15742766D01*
X60707730Y-15714174D01*
X60620872Y-15667747D01*
X60544736Y-15605264D01*
X60482253Y-15529128D01*
X60435826Y-15442270D01*
X60407234Y-15348015D01*
X60397581Y-15250000D01*
X60407234Y-15151985D01*
X60435826Y-15057730D01*
X60482253Y-14970872D01*
X60544736Y-14894736D01*
X60620872Y-14832253D01*
X60707730Y-14785826D01*
X60801985Y-14757234D01*
X60875436Y-14750000D01*
X61224564Y-14750000D01*
X61298015Y-14757234D01*
G37*
G36*
X66298015Y-14757234D02*
G01*
X66392270Y-14785826D01*
X66479128Y-14832253D01*
X66555264Y-14894736D01*
X66617747Y-14970872D01*
X66664174Y-15057730D01*
X66692766Y-15151985D01*
X66702419Y-15250000D01*
X66692766Y-15348015D01*
X66664174Y-15442270D01*
X66617747Y-15529128D01*
X66555264Y-15605264D01*
X66479128Y-15667747D01*
X66392270Y-15714174D01*
X66298015Y-15742766D01*
X66224564Y-15750000D01*
X65875436Y-15750000D01*
X65801985Y-15742766D01*
X65707730Y-15714174D01*
X65620872Y-15667747D01*
X65544736Y-15605264D01*
X65482253Y-15529128D01*
X65435826Y-15442270D01*
X65407234Y-15348015D01*
X65397581Y-15250000D01*
X65407234Y-15151985D01*
X65435826Y-15057730D01*
X65482253Y-14970872D01*
X65544736Y-14894736D01*
X65620872Y-14832253D01*
X65707730Y-14785826D01*
X65801985Y-14757234D01*
X65875436Y-14750000D01*
X66224564Y-14750000D01*
X66298015Y-14757234D01*
G37*
G36*
X123677107Y-11536022D02*
G01*
X123877293Y-11618942D01*
X123877295Y-11618943D01*
X123967988Y-11679542D01*
X124057458Y-11739324D01*
X124210676Y-11892542D01*
X124331058Y-12072707D01*
X124413978Y-12272893D01*
X124456250Y-12485408D01*
X124456250Y-12702092D01*
X124413978Y-12914607D01*
X124331058Y-13114793D01*
X124331057Y-13114795D01*
X124210675Y-13294959D01*
X124057459Y-13448175D01*
X123877295Y-13568557D01*
X123877294Y-13568558D01*
X123877293Y-13568558D01*
X123677107Y-13651478D01*
X123464592Y-13693750D01*
X123247908Y-13693750D01*
X123035393Y-13651478D01*
X122835207Y-13568558D01*
X122835206Y-13568558D01*
X122835205Y-13568557D01*
X122655041Y-13448175D01*
X122501825Y-13294959D01*
X122381443Y-13114795D01*
X122381442Y-13114793D01*
X122298522Y-12914607D01*
X122256250Y-12702092D01*
X122256250Y-12485408D01*
X122298522Y-12272893D01*
X122381442Y-12072707D01*
X122501824Y-11892542D01*
X122655042Y-11739324D01*
X122744512Y-11679542D01*
X122835205Y-11618943D01*
X122835207Y-11618942D01*
X123035393Y-11536022D01*
X123247908Y-11493750D01*
X123464592Y-11493750D01*
X123677107Y-11536022D01*
G37*
G36*
X104870857Y-11536022D02*
G01*
X105071043Y-11618942D01*
X105071045Y-11618943D01*
X105161738Y-11679542D01*
X105251208Y-11739324D01*
X105404426Y-11892542D01*
X105524808Y-12072707D01*
X105607728Y-12272893D01*
X105650000Y-12485408D01*
X105650000Y-12702092D01*
X105607728Y-12914607D01*
X105524808Y-13114793D01*
X105524807Y-13114795D01*
X105404425Y-13294959D01*
X105251209Y-13448175D01*
X105071045Y-13568557D01*
X105071044Y-13568558D01*
X105071043Y-13568558D01*
X104870857Y-13651478D01*
X104658342Y-13693750D01*
X104441658Y-13693750D01*
X104229143Y-13651478D01*
X104028957Y-13568558D01*
X104028956Y-13568558D01*
X104028955Y-13568557D01*
X103848791Y-13448175D01*
X103695575Y-13294959D01*
X103575193Y-13114795D01*
X103575192Y-13114793D01*
X103492272Y-12914607D01*
X103450000Y-12702092D01*
X103450000Y-12485408D01*
X103492272Y-12272893D01*
X103575192Y-12072707D01*
X103695574Y-11892542D01*
X103848792Y-11739324D01*
X103938262Y-11679542D01*
X104028955Y-11618943D01*
X104028957Y-11618942D01*
X104229143Y-11536022D01*
X104441658Y-11493750D01*
X104658342Y-11493750D01*
X104870857Y-11536022D01*
G37*
G36*
X83195857Y-11536022D02*
G01*
X83396043Y-11618942D01*
X83396045Y-11618943D01*
X83486738Y-11679542D01*
X83576208Y-11739324D01*
X83729426Y-11892542D01*
X83849808Y-12072707D01*
X83932728Y-12272893D01*
X83975000Y-12485408D01*
X83975000Y-12702092D01*
X83932728Y-12914607D01*
X83849808Y-13114793D01*
X83849807Y-13114795D01*
X83729425Y-13294959D01*
X83576209Y-13448175D01*
X83396045Y-13568557D01*
X83396044Y-13568558D01*
X83396043Y-13568558D01*
X83195857Y-13651478D01*
X82983342Y-13693750D01*
X82766658Y-13693750D01*
X82554143Y-13651478D01*
X82353957Y-13568558D01*
X82353956Y-13568558D01*
X82353955Y-13568557D01*
X82173791Y-13448175D01*
X82020575Y-13294959D01*
X81900193Y-13114795D01*
X81900192Y-13114793D01*
X81817272Y-12914607D01*
X81775000Y-12702092D01*
X81775000Y-12485408D01*
X81817272Y-12272893D01*
X81900192Y-12072707D01*
X82020574Y-11892542D01*
X82173792Y-11739324D01*
X82263262Y-11679542D01*
X82353955Y-11618943D01*
X82353957Y-11618942D01*
X82554143Y-11536022D01*
X82766658Y-11493750D01*
X82983342Y-11493750D01*
X83195857Y-11536022D01*
G37*
G36*
X45095857Y-11536022D02*
G01*
X45296043Y-11618942D01*
X45296045Y-11618943D01*
X45386738Y-11679542D01*
X45476208Y-11739324D01*
X45629426Y-11892542D01*
X45749808Y-12072707D01*
X45832728Y-12272893D01*
X45875000Y-12485408D01*
X45875000Y-12702092D01*
X45832728Y-12914607D01*
X45749808Y-13114793D01*
X45749807Y-13114795D01*
X45629425Y-13294959D01*
X45476209Y-13448175D01*
X45296045Y-13568557D01*
X45296044Y-13568558D01*
X45296043Y-13568558D01*
X45095857Y-13651478D01*
X44883342Y-13693750D01*
X44666658Y-13693750D01*
X44454143Y-13651478D01*
X44253957Y-13568558D01*
X44253956Y-13568558D01*
X44253955Y-13568557D01*
X44073791Y-13448175D01*
X43920575Y-13294959D01*
X43800193Y-13114795D01*
X43800192Y-13114793D01*
X43717272Y-12914607D01*
X43675000Y-12702092D01*
X43675000Y-12485408D01*
X43717272Y-12272893D01*
X43800192Y-12072707D01*
X43920574Y-11892542D01*
X44073792Y-11739324D01*
X44163262Y-11679542D01*
X44253955Y-11618943D01*
X44253957Y-11618942D01*
X44454143Y-11536022D01*
X44666658Y-11493750D01*
X44883342Y-11493750D01*
X45095857Y-11536022D01*
G37*
M02*
