G04 #@! TF.GenerationSoftware,KiCad,Pcbnew,10.0.4*
G04 #@! TF.CreationDate,2026-08-16T22:12:10+09:00*
G04 #@! TF.ProjectId,Naked60,4e616b65-6436-4302-9e6b-696361645f70,rev?*
G04 #@! TF.SameCoordinates,Original*
G04 #@! TF.FileFunction,Profile,NP*
%FSLAX46Y46*%
G04 Gerber Fmt 4.6, Leading zero omitted, Abs format (unit mm)*
G04 Created by KiCad (PCBNEW 10.0.4) date 2026-08-16 22:12:10*
%MOMM*%
%LPD*%
G01*
G04 APERTURE LIST*
G04 #@! TA.AperFunction,Profile*
%ADD10C,0.100000*%
G04 #@! TD*
G04 APERTURE END LIST*
D10*
X24250000Y-40000000D02*
X24000000Y-40250000D01*
X279750000Y-40000000D02*
X280000000Y-40250000D01*
X24000000Y-126125000D02*
X24925000Y-127000000D01*
X279175000Y-127000000D02*
X280000000Y-126125000D01*
X24000000Y-40250000D02*
X24000000Y-126125000D01*
X279750000Y-40000000D02*
X24250000Y-40000000D01*
X280000000Y-126125000D02*
X280000000Y-40250000D01*
X24925000Y-127000000D02*
X279175000Y-127000000D01*
X167200000Y-101850000D02*
X164800000Y-101850000D01*
X164800000Y-101850000D02*
X163600000Y-104000000D01*
X163600000Y-104000000D02*
X164800000Y-106150000D01*
X164800000Y-106150000D02*
X167200000Y-106150000D01*
X167200000Y-106150000D02*
X168400000Y-104000000D01*
X168400000Y-104000000D02*
X167200000Y-101850000D01*
X262200000Y-54850000D02*
X259800000Y-54850000D01*
X259800000Y-54850000D02*
X258600000Y-57000000D01*
X258600000Y-57000000D02*
X259800000Y-59150000D01*
X259800000Y-59150000D02*
X262200000Y-59150000D01*
X262200000Y-59150000D02*
X263400000Y-57000000D01*
X263400000Y-57000000D02*
X262200000Y-54850000D01*
X139200000Y-101850000D02*
X136800000Y-101850000D01*
X136800000Y-101850000D02*
X135600000Y-104000000D01*
X135600000Y-104000000D02*
X136800000Y-106150000D01*
X136800000Y-106150000D02*
X139200000Y-106150000D01*
X139200000Y-106150000D02*
X140400000Y-104000000D01*
X140400000Y-104000000D02*
X139200000Y-101850000D01*
X167200000Y-57850000D02*
X164800000Y-57850000D01*
X164800000Y-57850000D02*
X163600000Y-60000000D01*
X163600000Y-60000000D02*
X164800000Y-62150000D01*
X164800000Y-62150000D02*
X167200000Y-62150000D01*
X167200000Y-62150000D02*
X168400000Y-60000000D01*
X168400000Y-60000000D02*
X167200000Y-57850000D01*
X271200000Y-114850000D02*
X268800000Y-114850000D01*
X268800000Y-114850000D02*
X267600000Y-117000000D01*
X267600000Y-117000000D02*
X268800000Y-119150000D01*
X268800000Y-119150000D02*
X271200000Y-119150000D01*
X271200000Y-119150000D02*
X272400000Y-117000000D01*
X272400000Y-117000000D02*
X271200000Y-114850000D01*
X139200000Y-57850000D02*
X136800000Y-57850000D01*
X136800000Y-57850000D02*
X135600000Y-60000000D01*
X135600000Y-60000000D02*
X136800000Y-62150000D01*
X136800000Y-62150000D02*
X139200000Y-62150000D01*
X139200000Y-62150000D02*
X140400000Y-60000000D01*
X140400000Y-60000000D02*
X139200000Y-57850000D01*
X207200000Y-54850000D02*
X204800000Y-54850000D01*
X204800000Y-54850000D02*
X203600000Y-57000000D01*
X203600000Y-57000000D02*
X204800000Y-59150000D01*
X204800000Y-59150000D02*
X207200000Y-59150000D01*
X207200000Y-59150000D02*
X208400000Y-57000000D01*
X208400000Y-57000000D02*
X207200000Y-54850000D01*
X225200000Y-106850000D02*
X222800000Y-106850000D01*
X222800000Y-106850000D02*
X221600000Y-109000000D01*
X221600000Y-109000000D02*
X222800000Y-111150000D01*
X222800000Y-111150000D02*
X225200000Y-111150000D01*
X225200000Y-111150000D02*
X226400000Y-109000000D01*
X226400000Y-109000000D02*
X225200000Y-106850000D01*
X117200000Y-106850000D02*
X114800000Y-106850000D01*
X114800000Y-106850000D02*
X113600000Y-109000000D01*
X113600000Y-109000000D02*
X114800000Y-111150000D01*
X114800000Y-111150000D02*
X117200000Y-111150000D01*
X117200000Y-111150000D02*
X118400000Y-109000000D01*
X118400000Y-109000000D02*
X117200000Y-106850000D01*
X99200000Y-54850000D02*
X96800000Y-54850000D01*
X96800000Y-54850000D02*
X95600000Y-57000000D01*
X95600000Y-57000000D02*
X96800000Y-59150000D01*
X96800000Y-59150000D02*
X99200000Y-59150000D01*
X99200000Y-59150000D02*
X100400000Y-57000000D01*
X100400000Y-57000000D02*
X99200000Y-54850000D01*
X189200000Y-106850000D02*
X186800000Y-106850000D01*
X186800000Y-106850000D02*
X185600000Y-109000000D01*
X185600000Y-109000000D02*
X186800000Y-111150000D01*
X186800000Y-111150000D02*
X189200000Y-111150000D01*
X189200000Y-111150000D02*
X190400000Y-109000000D01*
X190400000Y-109000000D02*
X189200000Y-106850000D01*
X35200000Y-114850000D02*
X32800000Y-114850000D01*
X32800000Y-114850000D02*
X31600000Y-117000000D01*
X31600000Y-117000000D02*
X32800000Y-119150000D01*
X32800000Y-119150000D02*
X35200000Y-119150000D01*
X35200000Y-119150000D02*
X36400000Y-117000000D01*
X36400000Y-117000000D02*
X35200000Y-114850000D01*
X81200000Y-106850000D02*
X78800000Y-106850000D01*
X78800000Y-106850000D02*
X77600000Y-109000000D01*
X77600000Y-109000000D02*
X78800000Y-111150000D01*
X78800000Y-111150000D02*
X81200000Y-111150000D01*
X81200000Y-111150000D02*
X82400000Y-109000000D01*
X82400000Y-109000000D02*
X81200000Y-106850000D01*
X44200000Y-54850000D02*
X41800000Y-54850000D01*
X41800000Y-54850000D02*
X40600000Y-57000000D01*
X40600000Y-57000000D02*
X41800000Y-59150000D01*
X41800000Y-59150000D02*
X44200000Y-59150000D01*
X44200000Y-59150000D02*
X45400000Y-57000000D01*
X45400000Y-57000000D02*
X44200000Y-54850000D01*
M02*
