G04 #@! TF.GenerationSoftware,KiCad,Pcbnew,10.0.4*
G04 #@! TF.CreationDate,2026-08-16T22:12:09+09:00*
G04 #@! TF.ProjectId,Naked60,4e616b65-6436-4302-9e6b-696361645f70,rev?*
G04 #@! TF.SameCoordinates,Original*
G04 #@! TF.FileFunction,Soldermask,Top*
G04 #@! TF.FilePolarity,Negative*
%FSLAX46Y46*%
G04 Gerber Fmt 4.6, Leading zero omitted, Abs format (unit mm)*
G04 Created by KiCad (PCBNEW 10.0.4) date 2026-08-16 22:12:09*
%MOMM*%
%LPD*%
G01*
G04 APERTURE LIST*
G04 Aperture macros list*
%AMHorizOval*
0 Thick line with rounded ends*
0 $1 width*
0 $2 $3 position (X,Y) of the first rounded end (center of the circle)*
0 $4 $5 position (X,Y) of the second rounded end (center of the circle)*
0 Add line between two ends*
20,1,$1,$2,$3,$4,$5,0*
0 Add two circle primitives to create the rounded ends*
1,1,$1,$2,$3*
1,1,$1,$4,$5*%
G04 Aperture macros list end*
%ADD10C,3.100000*%
%ADD11C,4.000000*%
%ADD12C,1.900000*%
%ADD13C,1.000000*%
%ADD14O,1.300000X2.200000*%
%ADD15C,1.210000*%
%ADD16HorizOval,1.800000X-0.265165X0.265165X0.265165X-0.265165X0*%
%ADD17C,14.000000*%
%ADD18HorizOval,1.800000X0.265165X0.265165X-0.265165X-0.265165X0*%
%ADD19C,1.524000*%
%ADD20O,1.300000X1.000000*%
%ADD21C,2.000000*%
G04 APERTURE END LIST*
D10*
X174000000Y-52200000D03*
X179000000Y-54400000D03*
D11*
X179000000Y-48500000D03*
D12*
X173500000Y-48500000D03*
X184500000Y-48500000D03*
D13*
X184220000Y-44300000D03*
D10*
X192000000Y-86200000D03*
X197000000Y-88400000D03*
D11*
X197000000Y-82500000D03*
D12*
X191500000Y-82500000D03*
X202500000Y-82500000D03*
D13*
X202220000Y-78300000D03*
D10*
X66000000Y-86200000D03*
X71000000Y-88400000D03*
D11*
X71000000Y-82500000D03*
D12*
X65500000Y-82500000D03*
X76500000Y-82500000D03*
D13*
X76220000Y-78300000D03*
D14*
X167730000Y-48400000D03*
X167730000Y-45400000D03*
X163730000Y-53900000D03*
X167730000Y-52400000D03*
D15*
X165730000Y-43600000D03*
X165730000Y-50600000D03*
D10*
X246000000Y-122200000D03*
X251000000Y-124400000D03*
D11*
X251000000Y-118500000D03*
D12*
X245500000Y-118500000D03*
X256500000Y-118500000D03*
D13*
X256220000Y-114300000D03*
D10*
X266000000Y-103200000D03*
X271000000Y-105400000D03*
D11*
X271000000Y-99500000D03*
D12*
X265500000Y-99500000D03*
X276500000Y-99500000D03*
D13*
X276220000Y-95300000D03*
D10*
X266000000Y-86200000D03*
X271000000Y-88400000D03*
D11*
X271000000Y-82500000D03*
D12*
X265500000Y-82500000D03*
X276500000Y-82500000D03*
D13*
X276220000Y-78300000D03*
D10*
X266000000Y-69200000D03*
X271000000Y-71400000D03*
D11*
X271000000Y-65500000D03*
D12*
X265500000Y-65500000D03*
X276500000Y-65500000D03*
D13*
X276220000Y-61300000D03*
D10*
X266000000Y-52200000D03*
X271000000Y-54400000D03*
D11*
X271000000Y-48500000D03*
D12*
X265500000Y-48500000D03*
X276500000Y-48500000D03*
D13*
X276220000Y-44300000D03*
D10*
X228000000Y-122200000D03*
X233000000Y-124400000D03*
D11*
X233000000Y-118500000D03*
D12*
X227500000Y-118500000D03*
X238500000Y-118500000D03*
D13*
X238220000Y-114300000D03*
D10*
X246000000Y-103200000D03*
X251000000Y-105400000D03*
D11*
X251000000Y-99500000D03*
D12*
X245500000Y-99500000D03*
X256500000Y-99500000D03*
D13*
X256220000Y-95300000D03*
D10*
X246000000Y-86200000D03*
X251000000Y-88400000D03*
D11*
X251000000Y-82500000D03*
D12*
X245500000Y-82500000D03*
X256500000Y-82500000D03*
D13*
X256220000Y-78300000D03*
D10*
X246000000Y-69200000D03*
X251000000Y-71400000D03*
D11*
X251000000Y-65500000D03*
D12*
X245500000Y-65500000D03*
X256500000Y-65500000D03*
D13*
X256220000Y-61300000D03*
D10*
X246000000Y-52200000D03*
X251000000Y-54400000D03*
D11*
X251000000Y-48500000D03*
D12*
X245500000Y-48500000D03*
X256500000Y-48500000D03*
D13*
X256220000Y-44300000D03*
D10*
X210000000Y-122200000D03*
X215000000Y-124400000D03*
D11*
X215000000Y-118500000D03*
D12*
X209500000Y-118500000D03*
X220500000Y-118500000D03*
D13*
X220220000Y-114300000D03*
D10*
X228000000Y-103200000D03*
X233000000Y-105400000D03*
D11*
X233000000Y-99500000D03*
D12*
X227500000Y-99500000D03*
X238500000Y-99500000D03*
D13*
X238220000Y-95300000D03*
D10*
X228000000Y-86200000D03*
X233000000Y-88400000D03*
D11*
X233000000Y-82500000D03*
D12*
X227500000Y-82500000D03*
X238500000Y-82500000D03*
D13*
X238220000Y-78300000D03*
D10*
X228000000Y-69200000D03*
X233000000Y-71400000D03*
D11*
X233000000Y-65500000D03*
D12*
X227500000Y-65500000D03*
X238500000Y-65500000D03*
D13*
X238220000Y-61300000D03*
D10*
X228000000Y-52200000D03*
X233000000Y-54400000D03*
D11*
X233000000Y-48500000D03*
D12*
X227500000Y-48500000D03*
X238500000Y-48500000D03*
D13*
X238220000Y-44300000D03*
D10*
X192000000Y-122200000D03*
X197000000Y-124400000D03*
D11*
X197000000Y-118500000D03*
D12*
X191500000Y-118500000D03*
X202500000Y-118500000D03*
D13*
X202220000Y-114300000D03*
D10*
X210000000Y-103200000D03*
X215000000Y-105400000D03*
D11*
X215000000Y-99500000D03*
D12*
X209500000Y-99500000D03*
X220500000Y-99500000D03*
D13*
X220220000Y-95300000D03*
D10*
X210000000Y-86200000D03*
X215000000Y-88400000D03*
D11*
X215000000Y-82500000D03*
D12*
X209500000Y-82500000D03*
X220500000Y-82500000D03*
D13*
X220220000Y-78300000D03*
D10*
X210000000Y-69200000D03*
X215000000Y-71400000D03*
D11*
X215000000Y-65500000D03*
D12*
X209500000Y-65500000D03*
X220500000Y-65500000D03*
D13*
X220220000Y-61300000D03*
D10*
X210000000Y-52200000D03*
X215000000Y-54400000D03*
D11*
X215000000Y-48500000D03*
D12*
X209500000Y-48500000D03*
X220500000Y-48500000D03*
D13*
X220220000Y-44300000D03*
D10*
X174000000Y-122200000D03*
X179000000Y-124400000D03*
D11*
X179000000Y-118500000D03*
D12*
X173500000Y-118500000D03*
X184500000Y-118500000D03*
D13*
X184220000Y-114300000D03*
D10*
X192000000Y-103200000D03*
X197000000Y-105400000D03*
D11*
X197000000Y-99500000D03*
D12*
X191500000Y-99500000D03*
X202500000Y-99500000D03*
D13*
X202220000Y-95300000D03*
D10*
X192000000Y-69200000D03*
X197000000Y-71400000D03*
D11*
X197000000Y-65500000D03*
D12*
X191500000Y-65500000D03*
X202500000Y-65500000D03*
D13*
X202220000Y-61300000D03*
D10*
X192000000Y-52200000D03*
X197000000Y-54400000D03*
D11*
X197000000Y-48500000D03*
D12*
X191500000Y-48500000D03*
X202500000Y-48500000D03*
D13*
X202220000Y-44300000D03*
D10*
X156000000Y-122200000D03*
X161000000Y-124400000D03*
D11*
X161000000Y-118500000D03*
D12*
X155500000Y-118500000D03*
X166500000Y-118500000D03*
D13*
X166220000Y-114300000D03*
D10*
X174000000Y-103200000D03*
X179000000Y-105400000D03*
D11*
X179000000Y-99500000D03*
D12*
X173500000Y-99500000D03*
X184500000Y-99500000D03*
D13*
X184220000Y-95300000D03*
D10*
X174000000Y-86200000D03*
X179000000Y-88400000D03*
D11*
X179000000Y-82500000D03*
D12*
X173500000Y-82500000D03*
X184500000Y-82500000D03*
D13*
X184220000Y-78300000D03*
D10*
X174000000Y-69200000D03*
X179000000Y-71400000D03*
D11*
X179000000Y-65500000D03*
D12*
X173500000Y-65500000D03*
X184500000Y-65500000D03*
D13*
X184220000Y-61300000D03*
D10*
X138000000Y-122200000D03*
X143000000Y-124400000D03*
D11*
X143000000Y-118500000D03*
D12*
X137500000Y-118500000D03*
X148500000Y-118500000D03*
D13*
X148220000Y-114300000D03*
D10*
X120000000Y-103200000D03*
X125000000Y-105400000D03*
D11*
X125000000Y-99500000D03*
D12*
X119500000Y-99500000D03*
X130500000Y-99500000D03*
D13*
X130220000Y-95300000D03*
D10*
X120000000Y-86200000D03*
X125000000Y-88400000D03*
D11*
X125000000Y-82500000D03*
D12*
X119500000Y-82500000D03*
X130500000Y-82500000D03*
D13*
X130220000Y-78300000D03*
D10*
X120000000Y-69200000D03*
X125000000Y-71400000D03*
D11*
X125000000Y-65500000D03*
D12*
X119500000Y-65500000D03*
X130500000Y-65500000D03*
D13*
X130220000Y-61300000D03*
D10*
X120000000Y-52200000D03*
X125000000Y-54400000D03*
D11*
X125000000Y-48500000D03*
D12*
X119500000Y-48500000D03*
X130500000Y-48500000D03*
D13*
X130220000Y-44300000D03*
D10*
X120000000Y-122200000D03*
X125000000Y-124400000D03*
D11*
X125000000Y-118500000D03*
D12*
X119500000Y-118500000D03*
X130500000Y-118500000D03*
D13*
X130220000Y-114300000D03*
D10*
X102000000Y-103200000D03*
X107000000Y-105400000D03*
D11*
X107000000Y-99500000D03*
D12*
X101500000Y-99500000D03*
X112500000Y-99500000D03*
D13*
X112220000Y-95300000D03*
D10*
X102000000Y-86200000D03*
X107000000Y-88400000D03*
D11*
X107000000Y-82500000D03*
D12*
X101500000Y-82500000D03*
X112500000Y-82500000D03*
D13*
X112220000Y-78300000D03*
D10*
X102000000Y-69200000D03*
X107000000Y-71400000D03*
D11*
X107000000Y-65500000D03*
D12*
X101500000Y-65500000D03*
X112500000Y-65500000D03*
D13*
X112220000Y-61300000D03*
D10*
X102000000Y-52200000D03*
X107000000Y-54400000D03*
D11*
X107000000Y-48500000D03*
D12*
X101500000Y-48500000D03*
X112500000Y-48500000D03*
D13*
X112220000Y-44300000D03*
D10*
X102000000Y-122200000D03*
X107000000Y-124400000D03*
D11*
X107000000Y-118500000D03*
D12*
X101500000Y-118500000D03*
X112500000Y-118500000D03*
D13*
X112220000Y-114300000D03*
D10*
X84000000Y-103200000D03*
X89000000Y-105400000D03*
D11*
X89000000Y-99500000D03*
D12*
X83500000Y-99500000D03*
X94500000Y-99500000D03*
D13*
X94220000Y-95300000D03*
D10*
X84000000Y-86200000D03*
X89000000Y-88400000D03*
D11*
X89000000Y-82500000D03*
D12*
X83500000Y-82500000D03*
X94500000Y-82500000D03*
D13*
X94220000Y-78300000D03*
D10*
X84000000Y-69200000D03*
X89000000Y-71400000D03*
D11*
X89000000Y-65500000D03*
D12*
X83500000Y-65500000D03*
X94500000Y-65500000D03*
D13*
X94220000Y-61300000D03*
D10*
X84000000Y-52200000D03*
X89000000Y-54400000D03*
D11*
X89000000Y-48500000D03*
D12*
X83500000Y-48500000D03*
X94500000Y-48500000D03*
D13*
X94220000Y-44300000D03*
D10*
X84000000Y-122200000D03*
X89000000Y-124400000D03*
D11*
X89000000Y-118500000D03*
D12*
X83500000Y-118500000D03*
X94500000Y-118500000D03*
D13*
X94220000Y-114300000D03*
D10*
X66000000Y-103200000D03*
X71000000Y-105400000D03*
D11*
X71000000Y-99500000D03*
D12*
X65500000Y-99500000D03*
X76500000Y-99500000D03*
D13*
X76220000Y-95300000D03*
D10*
X66000000Y-69200000D03*
X71000000Y-71400000D03*
D11*
X71000000Y-65500000D03*
D12*
X65500000Y-65500000D03*
X76500000Y-65500000D03*
D13*
X76220000Y-61300000D03*
D10*
X66000000Y-52200000D03*
X71000000Y-54400000D03*
D11*
X71000000Y-48500000D03*
D12*
X65500000Y-48500000D03*
X76500000Y-48500000D03*
D13*
X76220000Y-44300000D03*
D10*
X66000000Y-122200000D03*
X71000000Y-124400000D03*
D11*
X71000000Y-118500000D03*
D12*
X65500000Y-118500000D03*
X76500000Y-118500000D03*
D13*
X76220000Y-114300000D03*
D10*
X48000000Y-103200000D03*
X53000000Y-105400000D03*
D11*
X53000000Y-99500000D03*
D12*
X47500000Y-99500000D03*
X58500000Y-99500000D03*
D13*
X58220000Y-95300000D03*
D10*
X48000000Y-86200000D03*
X53000000Y-88400000D03*
D11*
X53000000Y-82500000D03*
D12*
X47500000Y-82500000D03*
X58500000Y-82500000D03*
D13*
X58220000Y-78300000D03*
D10*
X48000000Y-69200000D03*
X53000000Y-71400000D03*
D11*
X53000000Y-65500000D03*
D12*
X47500000Y-65500000D03*
X58500000Y-65500000D03*
D13*
X58220000Y-61300000D03*
D10*
X48000000Y-52200000D03*
X53000000Y-54400000D03*
D11*
X53000000Y-48500000D03*
D12*
X47500000Y-48500000D03*
X58500000Y-48500000D03*
D13*
X58220000Y-44300000D03*
D10*
X48000000Y-122200000D03*
X53000000Y-124400000D03*
D11*
X53000000Y-118500000D03*
D12*
X47500000Y-118500000D03*
X58500000Y-118500000D03*
D13*
X58220000Y-114300000D03*
D10*
X28000000Y-103200000D03*
X33000000Y-105400000D03*
D11*
X33000000Y-99500000D03*
D12*
X27500000Y-99500000D03*
X38500000Y-99500000D03*
D13*
X38220000Y-95300000D03*
D10*
X28000000Y-86200000D03*
X33000000Y-88400000D03*
D11*
X33000000Y-82500000D03*
D12*
X27500000Y-82500000D03*
X38500000Y-82500000D03*
D13*
X38220000Y-78300000D03*
D10*
X28000000Y-69200000D03*
X33000000Y-71400000D03*
D11*
X33000000Y-65500000D03*
D12*
X27500000Y-65500000D03*
X38500000Y-65500000D03*
D13*
X38220000Y-61300000D03*
D10*
X28000000Y-52200000D03*
X33000000Y-54400000D03*
D11*
X33000000Y-48500000D03*
D12*
X27500000Y-48500000D03*
X38500000Y-48500000D03*
D13*
X38220000Y-44300000D03*
D16*
X136636039Y-89863961D03*
D17*
X143000000Y-83500000D03*
D16*
X149363961Y-77136039D03*
D18*
X154636039Y-77136039D03*
D17*
X161000000Y-83500000D03*
D18*
X167363961Y-89863961D03*
D19*
X145686400Y-42982000D03*
X160906400Y-42982000D03*
X160906400Y-45522000D03*
X160906400Y-48062000D03*
X160906400Y-50602000D03*
X160906400Y-53142000D03*
X160906400Y-55682000D03*
X160906400Y-58222000D03*
X160906400Y-60762000D03*
X160906400Y-63302000D03*
X160906400Y-65842000D03*
X160906400Y-68382000D03*
X160906400Y-70922000D03*
X160906400Y-73462000D03*
X145686400Y-73462000D03*
X145686400Y-70922000D03*
X145686400Y-68382000D03*
X145686400Y-65842000D03*
X145686400Y-63302000D03*
X145686400Y-60762000D03*
X145686400Y-58222000D03*
X145686400Y-55682000D03*
X145686400Y-53142000D03*
X145686400Y-50602000D03*
X145686400Y-48062000D03*
X145686400Y-45522000D03*
D20*
X136750000Y-45050000D03*
X139250000Y-45050000D03*
X141750000Y-45050000D03*
D21*
X139250000Y-54750000D03*
X139250000Y-48250000D03*
M02*
