G04 #@! TF.GenerationSoftware,KiCad,Pcbnew,10.0.4*
G04 #@! TF.CreationDate,2026-08-16T22:12:09+09:00*
G04 #@! TF.ProjectId,Naked60,4e616b65-6436-4302-9e6b-696361645f70,rev?*
G04 #@! TF.SameCoordinates,Original*
G04 #@! TF.FileFunction,Soldermask,Bot*
G04 #@! TF.FilePolarity,Negative*
%FSLAX46Y46*%
G04 Gerber Fmt 4.6, Leading zero omitted, Abs format (unit mm)*
G04 Created by KiCad (PCBNEW 10.0.4) date 2026-08-16 22:12:09*
%MOMM*%
%LPD*%
G01*
G04 APERTURE LIST*
G04 Aperture macros list*
%AMHorizOval*
0 Thick line with rounded ends*
0 $1 width*
0 $2 $3 position (X,Y) of the first rounded end (center of the circle)*
0 $4 $5 position (X,Y) of the second rounded end (center of the circle)*
0 Add line between two ends*
20,1,$1,$2,$3,$4,$5,0*
0 Add two circle primitives to create the rounded ends*
1,1,$1,$2,$3*
1,1,$1,$4,$5*%
G04 Aperture macros list end*
%ADD10R,1.700000X3.500000*%
%ADD11C,3.100000*%
%ADD12C,4.000000*%
%ADD13C,1.900000*%
%ADD14C,1.000000*%
%ADD15R,3.000000X3.500000*%
%ADD16O,1.300000X2.200000*%
%ADD17C,1.210000*%
%ADD18HorizOval,1.800000X-0.265165X0.265165X0.265165X-0.265165X0*%
%ADD19HorizOval,1.800000X0.265165X0.265165X-0.265165X-0.265165X0*%
%ADD20C,1.524000*%
%ADD21R,0.635000X1.143000*%
%ADD22O,1.300000X1.000000*%
%ADD23R,2.000000X1.600000*%
%ADD24R,0.950000X1.300000*%
%ADD25C,2.000000*%
G04 APERTURE END LIST*
D10*
X171300000Y-52200000D03*
D11*
X174000000Y-52200000D03*
X179000000Y-54400000D03*
D12*
X179000000Y-48500000D03*
D13*
X173500000Y-48500000D03*
X184500000Y-48500000D03*
D14*
X184220000Y-44300000D03*
D15*
X182550000Y-54400000D03*
D11*
X192000000Y-86200000D03*
X197000000Y-88400000D03*
D12*
X197000000Y-82500000D03*
D13*
X191500000Y-82500000D03*
X202500000Y-82500000D03*
D14*
X202220000Y-78300000D03*
D15*
X200550000Y-88400000D03*
X188650000Y-86200000D03*
D11*
X66000000Y-86200000D03*
X71000000Y-88400000D03*
D12*
X71000000Y-82500000D03*
D13*
X65500000Y-82500000D03*
X76500000Y-82500000D03*
D14*
X76220000Y-78300000D03*
D15*
X74550000Y-88400000D03*
X62650000Y-86200000D03*
D16*
X167730000Y-48400000D03*
X167730000Y-45400000D03*
X163730000Y-53900000D03*
X167730000Y-52400000D03*
D17*
X165730000Y-43600000D03*
X165730000Y-50600000D03*
D11*
X246000000Y-122200000D03*
X251000000Y-124400000D03*
D12*
X251000000Y-118500000D03*
D13*
X245500000Y-118500000D03*
X256500000Y-118500000D03*
D14*
X256220000Y-114300000D03*
D15*
X254550000Y-124400000D03*
X242650000Y-122200000D03*
D11*
X266000000Y-103200000D03*
X271000000Y-105400000D03*
D12*
X271000000Y-99500000D03*
D13*
X265500000Y-99500000D03*
X276500000Y-99500000D03*
D14*
X276220000Y-95300000D03*
D15*
X274550000Y-105400000D03*
X262650000Y-103200000D03*
D11*
X266000000Y-86200000D03*
X271000000Y-88400000D03*
D12*
X271000000Y-82500000D03*
D13*
X265500000Y-82500000D03*
X276500000Y-82500000D03*
D14*
X276220000Y-78300000D03*
D15*
X274550000Y-88400000D03*
X262650000Y-86200000D03*
D11*
X266000000Y-69200000D03*
X271000000Y-71400000D03*
D12*
X271000000Y-65500000D03*
D13*
X265500000Y-65500000D03*
X276500000Y-65500000D03*
D14*
X276220000Y-61300000D03*
D15*
X274550000Y-71400000D03*
X262650000Y-69200000D03*
D11*
X266000000Y-52200000D03*
X271000000Y-54400000D03*
D12*
X271000000Y-48500000D03*
D13*
X265500000Y-48500000D03*
X276500000Y-48500000D03*
D14*
X276220000Y-44300000D03*
D15*
X274550000Y-54400000D03*
X262650000Y-52200000D03*
D11*
X228000000Y-122200000D03*
X233000000Y-124400000D03*
D12*
X233000000Y-118500000D03*
D13*
X227500000Y-118500000D03*
X238500000Y-118500000D03*
D14*
X238220000Y-114300000D03*
D15*
X236550000Y-124400000D03*
X224650000Y-122200000D03*
D11*
X246000000Y-103200000D03*
X251000000Y-105400000D03*
D12*
X251000000Y-99500000D03*
D13*
X245500000Y-99500000D03*
X256500000Y-99500000D03*
D14*
X256220000Y-95300000D03*
D15*
X254550000Y-105400000D03*
X242650000Y-103200000D03*
D11*
X246000000Y-86200000D03*
X251000000Y-88400000D03*
D12*
X251000000Y-82500000D03*
D13*
X245500000Y-82500000D03*
X256500000Y-82500000D03*
D14*
X256220000Y-78300000D03*
D15*
X254550000Y-88400000D03*
X242650000Y-86200000D03*
D11*
X246000000Y-69200000D03*
X251000000Y-71400000D03*
D12*
X251000000Y-65500000D03*
D13*
X245500000Y-65500000D03*
X256500000Y-65500000D03*
D14*
X256220000Y-61300000D03*
D15*
X254550000Y-71400000D03*
X242650000Y-69200000D03*
D11*
X246000000Y-52200000D03*
X251000000Y-54400000D03*
D12*
X251000000Y-48500000D03*
D13*
X245500000Y-48500000D03*
X256500000Y-48500000D03*
D14*
X256220000Y-44300000D03*
D15*
X254550000Y-54400000D03*
X242650000Y-52200000D03*
D11*
X210000000Y-122200000D03*
X215000000Y-124400000D03*
D12*
X215000000Y-118500000D03*
D13*
X209500000Y-118500000D03*
X220500000Y-118500000D03*
D14*
X220220000Y-114300000D03*
D15*
X218550000Y-124400000D03*
X206650000Y-122200000D03*
D11*
X228000000Y-103200000D03*
X233000000Y-105400000D03*
D12*
X233000000Y-99500000D03*
D13*
X227500000Y-99500000D03*
X238500000Y-99500000D03*
D14*
X238220000Y-95300000D03*
D15*
X236550000Y-105400000D03*
X224650000Y-103200000D03*
D11*
X228000000Y-86200000D03*
X233000000Y-88400000D03*
D12*
X233000000Y-82500000D03*
D13*
X227500000Y-82500000D03*
X238500000Y-82500000D03*
D14*
X238220000Y-78300000D03*
D15*
X236550000Y-88400000D03*
X224650000Y-86200000D03*
D11*
X228000000Y-69200000D03*
X233000000Y-71400000D03*
D12*
X233000000Y-65500000D03*
D13*
X227500000Y-65500000D03*
X238500000Y-65500000D03*
D14*
X238220000Y-61300000D03*
D15*
X236550000Y-71400000D03*
X224650000Y-69200000D03*
D11*
X228000000Y-52200000D03*
X233000000Y-54400000D03*
D12*
X233000000Y-48500000D03*
D13*
X227500000Y-48500000D03*
X238500000Y-48500000D03*
D14*
X238220000Y-44300000D03*
D15*
X236550000Y-54400000D03*
X224650000Y-52200000D03*
D11*
X192000000Y-122200000D03*
X197000000Y-124400000D03*
D12*
X197000000Y-118500000D03*
D13*
X191500000Y-118500000D03*
X202500000Y-118500000D03*
D14*
X202220000Y-114300000D03*
D15*
X200550000Y-124400000D03*
X188650000Y-122200000D03*
D11*
X210000000Y-103200000D03*
X215000000Y-105400000D03*
D12*
X215000000Y-99500000D03*
D13*
X209500000Y-99500000D03*
X220500000Y-99500000D03*
D14*
X220220000Y-95300000D03*
D15*
X218550000Y-105400000D03*
X206650000Y-103200000D03*
D11*
X210000000Y-86200000D03*
X215000000Y-88400000D03*
D12*
X215000000Y-82500000D03*
D13*
X209500000Y-82500000D03*
X220500000Y-82500000D03*
D14*
X220220000Y-78300000D03*
D15*
X218550000Y-88400000D03*
X206650000Y-86200000D03*
D11*
X210000000Y-69200000D03*
X215000000Y-71400000D03*
D12*
X215000000Y-65500000D03*
D13*
X209500000Y-65500000D03*
X220500000Y-65500000D03*
D14*
X220220000Y-61300000D03*
D15*
X218550000Y-71400000D03*
X206650000Y-69200000D03*
D11*
X210000000Y-52200000D03*
X215000000Y-54400000D03*
D12*
X215000000Y-48500000D03*
D13*
X209500000Y-48500000D03*
X220500000Y-48500000D03*
D14*
X220220000Y-44300000D03*
D15*
X218550000Y-54400000D03*
X206650000Y-52200000D03*
D11*
X174000000Y-122200000D03*
X179000000Y-124400000D03*
D12*
X179000000Y-118500000D03*
D13*
X173500000Y-118500000D03*
X184500000Y-118500000D03*
D14*
X184220000Y-114300000D03*
D15*
X182550000Y-124400000D03*
X170650000Y-122200000D03*
D11*
X192000000Y-103200000D03*
X197000000Y-105400000D03*
D12*
X197000000Y-99500000D03*
D13*
X191500000Y-99500000D03*
X202500000Y-99500000D03*
D14*
X202220000Y-95300000D03*
D15*
X200550000Y-105400000D03*
X188650000Y-103200000D03*
D11*
X192000000Y-69200000D03*
X197000000Y-71400000D03*
D12*
X197000000Y-65500000D03*
D13*
X191500000Y-65500000D03*
X202500000Y-65500000D03*
D14*
X202220000Y-61300000D03*
D15*
X200550000Y-71400000D03*
X188650000Y-69200000D03*
D11*
X192000000Y-52200000D03*
X197000000Y-54400000D03*
D12*
X197000000Y-48500000D03*
D13*
X191500000Y-48500000D03*
X202500000Y-48500000D03*
D14*
X202220000Y-44300000D03*
D15*
X200550000Y-54400000D03*
X188650000Y-52200000D03*
D11*
X156000000Y-122200000D03*
X161000000Y-124400000D03*
D12*
X161000000Y-118500000D03*
D13*
X155500000Y-118500000D03*
X166500000Y-118500000D03*
D14*
X166220000Y-114300000D03*
D15*
X164550000Y-124400000D03*
X152650000Y-122200000D03*
D11*
X174000000Y-103200000D03*
X179000000Y-105400000D03*
D12*
X179000000Y-99500000D03*
D13*
X173500000Y-99500000D03*
X184500000Y-99500000D03*
D14*
X184220000Y-95300000D03*
D15*
X182550000Y-105400000D03*
X170650000Y-103200000D03*
D11*
X174000000Y-86200000D03*
X179000000Y-88400000D03*
D12*
X179000000Y-82500000D03*
D13*
X173500000Y-82500000D03*
X184500000Y-82500000D03*
D14*
X184220000Y-78300000D03*
D15*
X182550000Y-88400000D03*
X170650000Y-86200000D03*
D11*
X174000000Y-69200000D03*
X179000000Y-71400000D03*
D12*
X179000000Y-65500000D03*
D13*
X173500000Y-65500000D03*
X184500000Y-65500000D03*
D14*
X184220000Y-61300000D03*
D15*
X182550000Y-71400000D03*
X170650000Y-69200000D03*
D11*
X138000000Y-122200000D03*
X143000000Y-124400000D03*
D12*
X143000000Y-118500000D03*
D13*
X137500000Y-118500000D03*
X148500000Y-118500000D03*
D14*
X148220000Y-114300000D03*
D15*
X146550000Y-124400000D03*
X134650000Y-122200000D03*
D11*
X120000000Y-103200000D03*
X125000000Y-105400000D03*
D12*
X125000000Y-99500000D03*
D13*
X119500000Y-99500000D03*
X130500000Y-99500000D03*
D14*
X130220000Y-95300000D03*
D15*
X128550000Y-105400000D03*
X116650000Y-103200000D03*
D11*
X120000000Y-86200000D03*
X125000000Y-88400000D03*
D12*
X125000000Y-82500000D03*
D13*
X119500000Y-82500000D03*
X130500000Y-82500000D03*
D14*
X130220000Y-78300000D03*
D15*
X128550000Y-88400000D03*
X116650000Y-86200000D03*
D11*
X120000000Y-69200000D03*
X125000000Y-71400000D03*
D12*
X125000000Y-65500000D03*
D13*
X119500000Y-65500000D03*
X130500000Y-65500000D03*
D14*
X130220000Y-61300000D03*
D15*
X128550000Y-71400000D03*
X116650000Y-69200000D03*
D11*
X120000000Y-52200000D03*
X125000000Y-54400000D03*
D12*
X125000000Y-48500000D03*
D13*
X119500000Y-48500000D03*
X130500000Y-48500000D03*
D14*
X130220000Y-44300000D03*
D15*
X128550000Y-54400000D03*
X116650000Y-52200000D03*
D11*
X120000000Y-122200000D03*
X125000000Y-124400000D03*
D12*
X125000000Y-118500000D03*
D13*
X119500000Y-118500000D03*
X130500000Y-118500000D03*
D14*
X130220000Y-114300000D03*
D15*
X128550000Y-124400000D03*
X116650000Y-122200000D03*
D11*
X102000000Y-103200000D03*
X107000000Y-105400000D03*
D12*
X107000000Y-99500000D03*
D13*
X101500000Y-99500000D03*
X112500000Y-99500000D03*
D14*
X112220000Y-95300000D03*
D15*
X110550000Y-105400000D03*
X98650000Y-103200000D03*
D11*
X102000000Y-86200000D03*
X107000000Y-88400000D03*
D12*
X107000000Y-82500000D03*
D13*
X101500000Y-82500000D03*
X112500000Y-82500000D03*
D14*
X112220000Y-78300000D03*
D15*
X110550000Y-88400000D03*
X98650000Y-86200000D03*
D11*
X102000000Y-69200000D03*
X107000000Y-71400000D03*
D12*
X107000000Y-65500000D03*
D13*
X101500000Y-65500000D03*
X112500000Y-65500000D03*
D14*
X112220000Y-61300000D03*
D15*
X110550000Y-71400000D03*
X98650000Y-69200000D03*
D11*
X102000000Y-52200000D03*
X107000000Y-54400000D03*
D12*
X107000000Y-48500000D03*
D13*
X101500000Y-48500000D03*
X112500000Y-48500000D03*
D14*
X112220000Y-44300000D03*
D15*
X110550000Y-54400000D03*
X98650000Y-52200000D03*
D11*
X102000000Y-122200000D03*
X107000000Y-124400000D03*
D12*
X107000000Y-118500000D03*
D13*
X101500000Y-118500000D03*
X112500000Y-118500000D03*
D14*
X112220000Y-114300000D03*
D15*
X110550000Y-124400000D03*
X98650000Y-122200000D03*
D11*
X84000000Y-103200000D03*
X89000000Y-105400000D03*
D12*
X89000000Y-99500000D03*
D13*
X83500000Y-99500000D03*
X94500000Y-99500000D03*
D14*
X94220000Y-95300000D03*
D15*
X92550000Y-105400000D03*
X80650000Y-103200000D03*
D11*
X84000000Y-86200000D03*
X89000000Y-88400000D03*
D12*
X89000000Y-82500000D03*
D13*
X83500000Y-82500000D03*
X94500000Y-82500000D03*
D14*
X94220000Y-78300000D03*
D15*
X92550000Y-88400000D03*
X80650000Y-86200000D03*
D11*
X84000000Y-69200000D03*
X89000000Y-71400000D03*
D12*
X89000000Y-65500000D03*
D13*
X83500000Y-65500000D03*
X94500000Y-65500000D03*
D14*
X94220000Y-61300000D03*
D15*
X92550000Y-71400000D03*
X80650000Y-69200000D03*
D11*
X84000000Y-52200000D03*
X89000000Y-54400000D03*
D12*
X89000000Y-48500000D03*
D13*
X83500000Y-48500000D03*
X94500000Y-48500000D03*
D14*
X94220000Y-44300000D03*
D15*
X92550000Y-54400000D03*
X80650000Y-52200000D03*
D11*
X84000000Y-122200000D03*
X89000000Y-124400000D03*
D12*
X89000000Y-118500000D03*
D13*
X83500000Y-118500000D03*
X94500000Y-118500000D03*
D14*
X94220000Y-114300000D03*
D15*
X92550000Y-124400000D03*
X80650000Y-122200000D03*
D11*
X66000000Y-103200000D03*
X71000000Y-105400000D03*
D12*
X71000000Y-99500000D03*
D13*
X65500000Y-99500000D03*
X76500000Y-99500000D03*
D14*
X76220000Y-95300000D03*
D15*
X74550000Y-105400000D03*
X62650000Y-103200000D03*
D11*
X66000000Y-69200000D03*
X71000000Y-71400000D03*
D12*
X71000000Y-65500000D03*
D13*
X65500000Y-65500000D03*
X76500000Y-65500000D03*
D14*
X76220000Y-61300000D03*
D15*
X74550000Y-71400000D03*
X62650000Y-69200000D03*
D11*
X66000000Y-52200000D03*
X71000000Y-54400000D03*
D12*
X71000000Y-48500000D03*
D13*
X65500000Y-48500000D03*
X76500000Y-48500000D03*
D14*
X76220000Y-44300000D03*
D15*
X74550000Y-54400000D03*
X62650000Y-52200000D03*
D11*
X66000000Y-122200000D03*
X71000000Y-124400000D03*
D12*
X71000000Y-118500000D03*
D13*
X65500000Y-118500000D03*
X76500000Y-118500000D03*
D14*
X76220000Y-114300000D03*
D15*
X74550000Y-124400000D03*
X62650000Y-122200000D03*
D11*
X48000000Y-103200000D03*
X53000000Y-105400000D03*
D12*
X53000000Y-99500000D03*
D13*
X47500000Y-99500000D03*
X58500000Y-99500000D03*
D14*
X58220000Y-95300000D03*
D15*
X56550000Y-105400000D03*
X44650000Y-103200000D03*
D11*
X48000000Y-86200000D03*
X53000000Y-88400000D03*
D12*
X53000000Y-82500000D03*
D13*
X47500000Y-82500000D03*
X58500000Y-82500000D03*
D14*
X58220000Y-78300000D03*
D15*
X56550000Y-88400000D03*
X44650000Y-86200000D03*
D11*
X48000000Y-69200000D03*
X53000000Y-71400000D03*
D12*
X53000000Y-65500000D03*
D13*
X47500000Y-65500000D03*
X58500000Y-65500000D03*
D14*
X58220000Y-61300000D03*
D15*
X56550000Y-71400000D03*
X44650000Y-69200000D03*
D11*
X48000000Y-52200000D03*
X53000000Y-54400000D03*
D12*
X53000000Y-48500000D03*
D13*
X47500000Y-48500000D03*
X58500000Y-48500000D03*
D14*
X58220000Y-44300000D03*
D15*
X56550000Y-54400000D03*
X44650000Y-52200000D03*
D11*
X48000000Y-122200000D03*
X53000000Y-124400000D03*
D12*
X53000000Y-118500000D03*
D13*
X47500000Y-118500000D03*
X58500000Y-118500000D03*
D14*
X58220000Y-114300000D03*
D15*
X56550000Y-124400000D03*
X44650000Y-122200000D03*
D10*
X25300000Y-103200000D03*
D11*
X28000000Y-103200000D03*
X33000000Y-105400000D03*
D12*
X33000000Y-99500000D03*
D13*
X27500000Y-99500000D03*
X38500000Y-99500000D03*
D14*
X38220000Y-95300000D03*
D15*
X36550000Y-105400000D03*
D10*
X25300000Y-86200000D03*
D11*
X28000000Y-86200000D03*
X33000000Y-88400000D03*
D12*
X33000000Y-82500000D03*
D13*
X27500000Y-82500000D03*
X38500000Y-82500000D03*
D14*
X38220000Y-78300000D03*
D15*
X36550000Y-88400000D03*
D10*
X25300000Y-69200000D03*
D11*
X28000000Y-69200000D03*
X33000000Y-71400000D03*
D12*
X33000000Y-65500000D03*
D13*
X27500000Y-65500000D03*
X38500000Y-65500000D03*
D14*
X38220000Y-61300000D03*
D15*
X36550000Y-71400000D03*
D10*
X25300000Y-52200000D03*
D11*
X28000000Y-52200000D03*
X33000000Y-54400000D03*
D12*
X33000000Y-48500000D03*
D13*
X27500000Y-48500000D03*
X38500000Y-48500000D03*
D14*
X38220000Y-44300000D03*
D15*
X36550000Y-54400000D03*
D18*
X136636039Y-89863961D03*
X149363961Y-77136039D03*
D19*
X154636039Y-77136039D03*
X167363961Y-89863961D03*
D20*
X145686400Y-42982000D03*
X160906400Y-42982000D03*
X160906400Y-45522000D03*
X160906400Y-48062000D03*
X160906400Y-50602000D03*
X160906400Y-53142000D03*
X160906400Y-55682000D03*
X160906400Y-58222000D03*
X160906400Y-60762000D03*
X160906400Y-63302000D03*
X160906400Y-65842000D03*
X160906400Y-68382000D03*
X160906400Y-70922000D03*
X160906400Y-73462000D03*
X145686400Y-73462000D03*
X145686400Y-70922000D03*
X145686400Y-68382000D03*
X145686400Y-65842000D03*
X145686400Y-63302000D03*
X145686400Y-60762000D03*
X145686400Y-58222000D03*
X145686400Y-55682000D03*
X145686400Y-53142000D03*
X145686400Y-50602000D03*
X145686400Y-48062000D03*
X145686400Y-45522000D03*
D21*
X152500380Y-94500000D03*
X151499620Y-94500000D03*
D22*
X136750000Y-45050000D03*
X139250000Y-45050000D03*
X141750000Y-45050000D03*
D23*
X150000000Y-98307500D03*
X154000000Y-98307500D03*
D24*
X133000000Y-63275000D03*
X133000000Y-59725000D03*
X171000000Y-63275000D03*
X171000000Y-59725000D03*
X97000000Y-65275000D03*
X97000000Y-61725000D03*
X97000000Y-46275000D03*
X97000000Y-42725000D03*
X143000000Y-108775000D03*
X143000000Y-105225000D03*
X133000000Y-97275000D03*
X133000000Y-93725000D03*
X133000000Y-80275000D03*
X133000000Y-76725000D03*
X133000000Y-46275000D03*
X133000000Y-42725000D03*
X133000000Y-116275000D03*
X133000000Y-112725000D03*
X115000000Y-80275000D03*
X115000000Y-76725000D03*
X115000000Y-63275000D03*
X115000000Y-59725000D03*
X115000000Y-46275000D03*
X115000000Y-42725000D03*
X115000000Y-117275000D03*
X115000000Y-113725000D03*
X79000000Y-97275000D03*
X79000000Y-93725000D03*
X97000000Y-97275000D03*
X97000000Y-93725000D03*
X79000000Y-80275000D03*
X79000000Y-76725000D03*
X79000000Y-63275000D03*
X79000000Y-59725000D03*
X79000000Y-46275000D03*
X79000000Y-42725000D03*
X79000000Y-117275000D03*
X79000000Y-113725000D03*
X61000000Y-97275000D03*
X61000000Y-93725000D03*
X61000000Y-80275000D03*
X61000000Y-76725000D03*
X171000000Y-46275000D03*
X171000000Y-42725000D03*
X61000000Y-46275000D03*
X61000000Y-42725000D03*
X61000000Y-116275000D03*
X61000000Y-112725000D03*
X43000000Y-97275000D03*
X43000000Y-93725000D03*
X43000000Y-80275000D03*
X43000000Y-76725000D03*
X43000000Y-65275000D03*
X43000000Y-61725000D03*
X97000000Y-116275000D03*
X97000000Y-112725000D03*
X43000000Y-47275000D03*
X43000000Y-43725000D03*
X115000000Y-97275000D03*
X115000000Y-93725000D03*
X97000000Y-80275000D03*
X97000000Y-76725000D03*
X243000000Y-97275000D03*
X243000000Y-93725000D03*
X225000000Y-80275000D03*
X225000000Y-76725000D03*
X207000000Y-116275000D03*
X207000000Y-112725000D03*
X243000000Y-46275000D03*
X243000000Y-42725000D03*
X243000000Y-63275000D03*
X243000000Y-59725000D03*
X243000000Y-80275000D03*
X243000000Y-76725000D03*
X225000000Y-117275000D03*
X225000000Y-113725000D03*
X261000000Y-47275000D03*
X261000000Y-43725000D03*
X261000000Y-65275000D03*
X261000000Y-61725000D03*
X261000000Y-80275000D03*
X261000000Y-76725000D03*
X261000000Y-97275000D03*
X261000000Y-93725000D03*
X243000000Y-116275000D03*
X243000000Y-112725000D03*
X161000000Y-100275000D03*
X161000000Y-96725000D03*
X225000000Y-63275000D03*
X225000000Y-59725000D03*
X171000000Y-97275000D03*
X171000000Y-93725000D03*
X225000000Y-97275000D03*
X225000000Y-93725000D03*
X61000000Y-63275000D03*
X61000000Y-59725000D03*
X225000000Y-46275000D03*
X225000000Y-42725000D03*
X171000000Y-80275000D03*
X171000000Y-76725000D03*
X189000000Y-117275000D03*
X189000000Y-113725000D03*
X207000000Y-97275000D03*
X207000000Y-93725000D03*
X207000000Y-80275000D03*
X207000000Y-76725000D03*
X207000000Y-65275000D03*
X207000000Y-61725000D03*
X207000000Y-46275000D03*
X207000000Y-42725000D03*
X171000000Y-116275000D03*
X171000000Y-112725000D03*
X189000000Y-97275000D03*
X189000000Y-93725000D03*
X189000000Y-80275000D03*
X189000000Y-76725000D03*
X189000000Y-63275000D03*
X189000000Y-59725000D03*
X189000000Y-46275000D03*
X189000000Y-42725000D03*
X143000000Y-100275000D03*
X143000000Y-96725000D03*
X161000000Y-108775000D03*
X161000000Y-105225000D03*
D25*
X139250000Y-54750000D03*
X139250000Y-48250000D03*
M02*
