M48
; DRILL file KiCad 10.0.4 date 2026-08-16T22:12:11
; FORMAT={-:-/ absolute / metric / decimal}
; #@! TF.CreationDate,2026-08-16T22:12:11+09:00
; #@! TF.GenerationSoftware,Kicad,Pcbnew,10.0.4
; #@! TF.FileFunction,NonPlated,1,2,NPTH
FMAT,2
METRIC
; #@! TA.AperFunction,NonPlated,NPTH,ComponentDrill
T1C1.000
; #@! TA.AperFunction,NonPlated,NPTH,ComponentDrill
T2C1.200
; #@! TA.AperFunction,NonPlated,NPTH,ComponentDrill
T3C1.700
; #@! TA.AperFunction,NonPlated,NPTH,ComponentDrill
T4C3.000
; #@! TA.AperFunction,NonPlated,NPTH,ComponentDrill
T5C4.000
%
G90
G05
T1
X38.22Y-44.3
X38.22Y-61.3
X38.22Y-78.3
X38.22Y-95.3
X58.22Y-44.3
X58.22Y-61.3
X58.22Y-78.3
X58.22Y-95.3
X58.22Y-114.3
X76.22Y-44.3
X76.22Y-61.3
X76.22Y-78.3
X76.22Y-95.3
X76.22Y-114.3
X94.22Y-44.3
X94.22Y-61.3
X94.22Y-78.3
X94.22Y-95.3
X94.22Y-114.3
X112.22Y-44.3
X112.22Y-61.3
X112.22Y-78.3
X112.22Y-95.3
X112.22Y-114.3
X130.22Y-44.3
X130.22Y-61.3
X130.22Y-78.3
X130.22Y-95.3
X130.22Y-114.3
X148.22Y-114.3
X166.22Y-114.3
X184.22Y-44.3
X184.22Y-61.3
X184.22Y-78.3
X184.22Y-95.3
X184.22Y-114.3
X202.22Y-44.3
X202.22Y-61.3
X202.22Y-78.3
X202.22Y-95.3
X202.22Y-114.3
X220.22Y-44.3
X220.22Y-61.3
X220.22Y-78.3
X220.22Y-95.3
X220.22Y-114.3
X238.22Y-44.3
X238.22Y-61.3
X238.22Y-78.3
X238.22Y-95.3
X238.22Y-114.3
X256.22Y-44.3
X256.22Y-61.3
X256.22Y-78.3
X256.22Y-95.3
X256.22Y-114.3
X276.22Y-44.3
X276.22Y-61.3
X276.22Y-78.3
X276.22Y-95.3
T2
X165.73Y-43.6
X165.73Y-50.6
T3
X27.5Y-48.5
X27.5Y-65.5
X27.5Y-82.5
X27.5Y-99.5
X38.5Y-48.5
X38.5Y-65.5
X38.5Y-82.5
X38.5Y-99.5
X47.5Y-48.5
X47.5Y-65.5
X47.5Y-82.5
X47.5Y-99.5
X47.5Y-118.5
X58.5Y-48.5
X58.5Y-65.5
X58.5Y-82.5
X58.5Y-99.5
X58.5Y-118.5
X65.5Y-48.5
X65.5Y-65.5
X65.5Y-82.5
X65.5Y-99.5
X65.5Y-118.5
X76.5Y-48.5
X76.5Y-65.5
X76.5Y-82.5
X76.5Y-99.5
X76.5Y-118.5
X83.5Y-48.5
X83.5Y-65.5
X83.5Y-82.5
X83.5Y-99.5
X83.5Y-118.5
X94.5Y-48.5
X94.5Y-65.5
X94.5Y-82.5
X94.5Y-99.5
X94.5Y-118.5
X101.5Y-48.5
X101.5Y-65.5
X101.5Y-82.5
X101.5Y-99.5
X101.5Y-118.5
X112.5Y-48.5
X112.5Y-65.5
X112.5Y-82.5
X112.5Y-99.5
X112.5Y-118.5
X119.5Y-48.5
X119.5Y-65.5
X119.5Y-82.5
X119.5Y-99.5
X119.5Y-118.5
X130.5Y-48.5
X130.5Y-65.5
X130.5Y-82.5
X130.5Y-99.5
X130.5Y-118.5
X137.5Y-118.5
X148.5Y-118.5
X155.5Y-118.5
X166.5Y-118.5
X173.5Y-48.5
X173.5Y-65.5
X173.5Y-82.5
X173.5Y-99.5
X173.5Y-118.5
X184.5Y-48.5
X184.5Y-65.5
X184.5Y-82.5
X184.5Y-99.5
X184.5Y-118.5
X191.5Y-48.5
X191.5Y-65.5
X191.5Y-82.5
X191.5Y-99.5
X191.5Y-118.5
X202.5Y-48.5
X202.5Y-65.5
X202.5Y-82.5
X202.5Y-99.5
X202.5Y-118.5
X209.5Y-48.5
X209.5Y-65.5
X209.5Y-82.5
X209.5Y-99.5
X209.5Y-118.5
X220.5Y-48.5
X220.5Y-65.5
X220.5Y-82.5
X220.5Y-99.5
X220.5Y-118.5
X227.5Y-48.5
X227.5Y-65.5
X227.5Y-82.5
X227.5Y-99.5
X227.5Y-118.5
X238.5Y-48.5
X238.5Y-65.5
X238.5Y-82.5
X238.5Y-99.5
X238.5Y-118.5
X245.5Y-48.5
X245.5Y-65.5
X245.5Y-82.5
X245.5Y-99.5
X245.5Y-118.5
X256.5Y-48.5
X256.5Y-65.5
X256.5Y-82.5
X256.5Y-99.5
X256.5Y-118.5
X265.5Y-48.5
X265.5Y-65.5
X265.5Y-82.5
X265.5Y-99.5
X276.5Y-48.5
X276.5Y-65.5
X276.5Y-82.5
X276.5Y-99.5
T4
X28.0Y-52.2
X28.0Y-69.2
X28.0Y-86.2
X28.0Y-103.2
X33.0Y-54.4
X33.0Y-71.4
X33.0Y-88.4
X33.0Y-105.4
X48.0Y-52.2
X48.0Y-69.2
X48.0Y-86.2
X48.0Y-103.2
X48.0Y-122.2
X53.0Y-54.4
X53.0Y-71.4
X53.0Y-88.4
X53.0Y-105.4
X53.0Y-124.4
X66.0Y-52.2
X66.0Y-69.2
X66.0Y-86.2
X66.0Y-103.2
X66.0Y-122.2
X71.0Y-54.4
X71.0Y-71.4
X71.0Y-88.4
X71.0Y-105.4
X71.0Y-124.4
X84.0Y-52.2
X84.0Y-69.2
X84.0Y-86.2
X84.0Y-103.2
X84.0Y-122.2
X89.0Y-54.4
X89.0Y-71.4
X89.0Y-88.4
X89.0Y-105.4
X89.0Y-124.4
X102.0Y-52.2
X102.0Y-69.2
X102.0Y-86.2
X102.0Y-103.2
X102.0Y-122.2
X107.0Y-54.4
X107.0Y-71.4
X107.0Y-88.4
X107.0Y-105.4
X107.0Y-124.4
X120.0Y-52.2
X120.0Y-69.2
X120.0Y-86.2
X120.0Y-103.2
X120.0Y-122.2
X125.0Y-54.4
X125.0Y-71.4
X125.0Y-88.4
X125.0Y-105.4
X125.0Y-124.4
X138.0Y-122.2
X143.0Y-124.4
X156.0Y-122.2
X161.0Y-124.4
X174.0Y-52.2
X174.0Y-69.2
X174.0Y-86.2
X174.0Y-103.2
X174.0Y-122.2
X179.0Y-54.4
X179.0Y-71.4
X179.0Y-88.4
X179.0Y-105.4
X179.0Y-124.4
X192.0Y-52.2
X192.0Y-69.2
X192.0Y-86.2
X192.0Y-103.2
X192.0Y-122.2
X197.0Y-54.4
X197.0Y-71.4
X197.0Y-88.4
X197.0Y-105.4
X197.0Y-124.4
X210.0Y-52.2
X210.0Y-69.2
X210.0Y-86.2
X210.0Y-103.2
X210.0Y-122.2
X215.0Y-54.4
X215.0Y-71.4
X215.0Y-88.4
X215.0Y-105.4
X215.0Y-124.4
X228.0Y-52.2
X228.0Y-69.2
X228.0Y-86.2
X228.0Y-103.2
X228.0Y-122.2
X233.0Y-54.4
X233.0Y-71.4
X233.0Y-88.4
X233.0Y-105.4
X233.0Y-124.4
X246.0Y-52.2
X246.0Y-69.2
X246.0Y-86.2
X246.0Y-103.2
X246.0Y-122.2
X251.0Y-54.4
X251.0Y-71.4
X251.0Y-88.4
X251.0Y-105.4
X251.0Y-124.4
X266.0Y-52.2
X266.0Y-69.2
X266.0Y-86.2
X266.0Y-103.2
X271.0Y-54.4
X271.0Y-71.4
X271.0Y-88.4
X271.0Y-105.4
T5
X33.0Y-48.5
X33.0Y-65.5
X33.0Y-82.5
X33.0Y-99.5
X53.0Y-48.5
X53.0Y-65.5
X53.0Y-82.5
X53.0Y-99.5
X53.0Y-118.5
X71.0Y-48.5
X71.0Y-65.5
X71.0Y-82.5
X71.0Y-99.5
X71.0Y-118.5
X89.0Y-48.5
X89.0Y-65.5
X89.0Y-82.5
X89.0Y-99.5
X89.0Y-118.5
X107.0Y-48.5
X107.0Y-65.5
X107.0Y-82.5
X107.0Y-99.5
X107.0Y-118.5
X125.0Y-48.5
X125.0Y-65.5
X125.0Y-82.5
X125.0Y-99.5
X125.0Y-118.5
X143.0Y-118.5
X161.0Y-118.5
X179.0Y-48.5
X179.0Y-65.5
X179.0Y-82.5
X179.0Y-99.5
X179.0Y-118.5
X197.0Y-48.5
X197.0Y-65.5
X197.0Y-82.5
X197.0Y-99.5
X197.0Y-118.5
X215.0Y-48.5
X215.0Y-65.5
X215.0Y-82.5
X215.0Y-99.5
X215.0Y-118.5
X233.0Y-48.5
X233.0Y-65.5
X233.0Y-82.5
X233.0Y-99.5
X233.0Y-118.5
X251.0Y-48.5
X251.0Y-65.5
X251.0Y-82.5
X251.0Y-99.5
X251.0Y-118.5
X271.0Y-48.5
X271.0Y-65.5
X271.0Y-82.5
X271.0Y-99.5
M30
