M48
; DRILL file KiCad 10.0.4 date 2026-08-16T22:12:11
; FORMAT={-:-/ absolute / metric / decimal}
; #@! TF.CreationDate,2026-08-16T22:12:11+09:00
; #@! TF.GenerationSoftware,Kicad,Pcbnew,10.0.4
; #@! TF.FileFunction,Plated,1,2,PTH
FMAT,2
METRIC
; #@! TA.AperFunction,Plated,PTH,ViaDrill
T1C0.400
; #@! TA.AperFunction,Plated,PTH,ComponentDrill
T2C0.500
; #@! TA.AperFunction,Plated,PTH,ComponentDrill
T3C0.600
; #@! TA.AperFunction,Plated,PTH,ComponentDrill
T4C0.800
; #@! TA.AperFunction,Plated,PTH,ComponentDrill
T5C0.813
; #@! TA.AperFunction,Plated,PTH,ComponentDrill
T6C1.300
%
G90
G05
T1
X25.3Y-55.5
X25.3Y-65.55
X25.3Y-72.7
X25.3Y-82.8
X25.3Y-89.7
X25.3Y-100.1
X25.3Y-106.1
X39.7Y-88.4
X39.75Y-54.3
X39.8Y-71.4
X39.9Y-105.45
X44.65Y-66.25
X44.65Y-72.3
X44.65Y-89.65
X44.65Y-106.1
X44.65Y-119.2
X44.7Y-49.15
X44.7Y-82.9
X44.7Y-100.15
X59.7Y-71.4
X59.7Y-88.4
X59.7Y-105.4
X59.8Y-54.4
X59.85Y-124.4
X62.65Y-49.0
X62.65Y-56.05
X62.65Y-65.95
X62.65Y-72.4
X62.65Y-82.95
X62.65Y-89.25
X62.65Y-99.7
X62.65Y-106.45
X62.65Y-119.0
X66.0Y-44.55
X77.7Y-88.4
X77.7Y-124.4
X77.8Y-71.45
X77.85Y-54.4
X77.85Y-105.4
X80.65Y-55.95
X80.65Y-66.15
X80.65Y-83.15
X80.65Y-89.45
X80.65Y-100.2
X80.65Y-119.25
X80.7Y-72.35
X95.6Y-71.4
X95.65Y-54.4
X95.65Y-88.4
X95.7Y-105.4
X95.8Y-124.4
X98.65Y-49.25
X98.65Y-66.0
X98.65Y-72.25
X98.65Y-83.3
X98.65Y-89.4
X98.65Y-100.0
X98.65Y-119.1
X98.7Y-106.25
X113.6Y-54.4
X113.65Y-71.4
X113.7Y-88.4
X113.7Y-105.4
X113.8Y-124.4
X116.65Y-55.2
X116.65Y-66.2
X116.65Y-71.9
X116.65Y-83.5
X116.65Y-89.05
X116.65Y-100.2
X116.65Y-118.95
X131.65Y-88.4
X131.7Y-105.4
X131.7Y-124.4
X131.75Y-71.4
X131.85Y-54.4
X134.65Y-119.25
X134.75Y-57.95
X135.45Y-56.5
X138.8Y-65.3
X138.85Y-69.25
X140.003Y-64.468
X140.25Y-51.0
X140.4Y-74.4
X142.5Y-62.95
X145.8Y-105.225
X146.55Y-121.45
X147.9Y-61.85
X148.15Y-68.7
X148.2Y-70.7
X148.2Y-74.5
X149.0Y-53.25
X149.0Y-55.25
X149.0Y-56.9
X150.0Y-90.5
X152.65Y-119.4
X153.0Y-44.31
X155.55Y-59.6
X157.5Y-53.5
X164.4Y-68.5
X164.5Y-64.75
X164.55Y-121.5
X165.75Y-93.3
X167.15Y-68.8
X167.75Y-55.75
X168.8Y-75.25
X170.6Y-106.0
X170.65Y-66.4
X170.65Y-72.05
X170.65Y-100.45
X170.65Y-119.4
X170.925Y-83.3
X170.925Y-89.55
X171.3Y-55.5
X178.4Y-75.1
X178.9Y-109.15
X182.55Y-51.5
X182.55Y-68.15
X182.55Y-85.4
X182.55Y-102.65
X182.55Y-121.7
X184.75Y-41.25
X185.0Y-91.25
X186.85Y-75.25
X188.65Y-55.0
X188.65Y-72.15
X188.65Y-83.25
X188.65Y-88.95
X188.65Y-100.4
X188.65Y-119.45
X188.7Y-66.3
X197.775Y-111.825
X200.55Y-51.55
X200.55Y-85.55
X200.55Y-102.55
X200.55Y-121.65
X200.6Y-68.45
X206.65Y-49.3
X206.65Y-83.3
X206.65Y-89.15
X206.65Y-100.3
X206.65Y-106.0
X206.65Y-119.35
X206.7Y-72.2
X218.55Y-51.4
X218.55Y-68.45
X218.55Y-85.55
X218.55Y-102.45
X218.55Y-121.55
X222.8Y-91.1
X224.65Y-54.85
X224.65Y-66.45
X224.65Y-72.1
X224.65Y-83.25
X224.65Y-88.9
X224.65Y-100.4
X224.65Y-119.5
X236.55Y-51.6
X236.55Y-68.7
X236.55Y-85.55
X236.55Y-102.4
X236.55Y-121.3
X240.55Y-74.9
X242.65Y-55.15
X242.65Y-66.25
X242.65Y-72.0
X242.65Y-83.25
X242.65Y-89.4
X242.65Y-100.2
X242.65Y-106.15
X242.65Y-119.35
X254.55Y-51.55
X254.55Y-68.4
X254.55Y-85.5
X254.55Y-102.7
X254.55Y-121.5
X262.65Y-49.35
X262.65Y-66.55
X262.65Y-71.85
X262.65Y-82.95
X262.65Y-89.15
X262.65Y-100.05
X262.65Y-106.1
X274.5Y-68.25
X274.55Y-51.65
X274.55Y-85.2
X274.55Y-102.3
T5
X145.686Y-42.982
X145.686Y-45.522
X145.686Y-48.062
X145.686Y-50.602
X145.686Y-53.142
X145.686Y-55.682
X145.686Y-58.222
X145.686Y-60.762
X145.686Y-63.302
X145.686Y-65.842
X145.686Y-68.382
X145.686Y-70.922
X145.686Y-73.462
X160.906Y-42.982
X160.906Y-45.522
X160.906Y-48.062
X160.906Y-50.602
X160.906Y-53.142
X160.906Y-55.682
X160.906Y-58.222
X160.906Y-60.762
X160.906Y-63.302
X160.906Y-65.842
X160.906Y-68.382
X160.906Y-70.922
X160.906Y-73.462
T6
X139.25Y-48.25
X139.25Y-54.75
T2
G00X136.6Y-45.05
M15
G01X136.9Y-45.05
M16
G05
G00X139.1Y-45.05
M15
G01X139.4Y-45.05
M16
G05
G00X141.6Y-45.05
M15
G01X141.9Y-45.05
M16
G05
T3
G00X163.73Y-54.35
M15
G01X163.73Y-53.45
M16
G05
G00X167.73Y-45.85
M15
G01X167.73Y-44.95
M16
G05
G00X167.73Y-48.85
M15
G01X167.73Y-47.95
M16
G05
G00X167.73Y-52.85
M15
G01X167.73Y-51.95
M16
G05
T4
G00X136.901Y-90.129
M15
G01X136.371Y-89.599
M16
G05
G00X149.629Y-77.401
M15
G01X149.099Y-76.871
M16
G05
G00X154.371Y-77.401
M15
G01X154.901Y-76.871
M16
G05
G00X167.099Y-90.129
M15
G01X167.629Y-89.599
M16
G05
M30
