G04 #@! TF.GenerationSoftware,KiCad,Pcbnew,(5.1.5)-3*
G04 #@! TF.CreationDate,2021-03-06T01:40:30+09:00*
G04 #@! TF.ProjectId,Setta21_Top,53657474-6132-4315-9f54-6f702e6b6963,rev?*
G04 #@! TF.SameCoordinates,Original*
G04 #@! TF.FileFunction,Soldermask,Bot*
G04 #@! TF.FilePolarity,Negative*
%FSLAX46Y46*%
G04 Gerber Fmt 4.6, Leading zero omitted, Abs format (unit mm)*
G04 Created by KiCad (PCBNEW (5.1.5)-3) date 2021-03-06 01:40:30*
%MOMM*%
%LPD*%
G04 APERTURE LIST*
%ADD10C,0.100000*%
G04 APERTURE END LIST*
D10*
G36*
X150320857Y-122942272D02*
G01*
X150521043Y-123025192D01*
X150521045Y-123025193D01*
X150611738Y-123085792D01*
X150701208Y-123145574D01*
X150854426Y-123298792D01*
X150974808Y-123478957D01*
X151057728Y-123679143D01*
X151100000Y-123891658D01*
X151100000Y-124108342D01*
X151057728Y-124320857D01*
X150974808Y-124521043D01*
X150974807Y-124521045D01*
X150854425Y-124701209D01*
X150701209Y-124854425D01*
X150521045Y-124974807D01*
X150521044Y-124974808D01*
X150521043Y-124974808D01*
X150320857Y-125057728D01*
X150108342Y-125100000D01*
X149891658Y-125100000D01*
X149679143Y-125057728D01*
X149478957Y-124974808D01*
X149478956Y-124974808D01*
X149478955Y-124974807D01*
X149298791Y-124854425D01*
X149145575Y-124701209D01*
X149025193Y-124521045D01*
X149025192Y-124521043D01*
X148942272Y-124320857D01*
X148900000Y-124108342D01*
X148900000Y-123891658D01*
X148942272Y-123679143D01*
X149025192Y-123478957D01*
X149145574Y-123298792D01*
X149298792Y-123145574D01*
X149388262Y-123085792D01*
X149478955Y-123025193D01*
X149478957Y-123025192D01*
X149679143Y-122942272D01*
X149891658Y-122900000D01*
X150108342Y-122900000D01*
X150320857Y-122942272D01*
G37*
G36*
X69320857Y-122942272D02*
G01*
X69521043Y-123025192D01*
X69521045Y-123025193D01*
X69611738Y-123085792D01*
X69701208Y-123145574D01*
X69854426Y-123298792D01*
X69974808Y-123478957D01*
X70057728Y-123679143D01*
X70100000Y-123891658D01*
X70100000Y-124108342D01*
X70057728Y-124320857D01*
X69974808Y-124521043D01*
X69974807Y-124521045D01*
X69854425Y-124701209D01*
X69701209Y-124854425D01*
X69521045Y-124974807D01*
X69521044Y-124974808D01*
X69521043Y-124974808D01*
X69320857Y-125057728D01*
X69108342Y-125100000D01*
X68891658Y-125100000D01*
X68679143Y-125057728D01*
X68478957Y-124974808D01*
X68478956Y-124974808D01*
X68478955Y-124974807D01*
X68298791Y-124854425D01*
X68145575Y-124701209D01*
X68025193Y-124521045D01*
X68025192Y-124521043D01*
X67942272Y-124320857D01*
X67900000Y-124108342D01*
X67900000Y-123891658D01*
X67942272Y-123679143D01*
X68025192Y-123478957D01*
X68145574Y-123298792D01*
X68298792Y-123145574D01*
X68388262Y-123085792D01*
X68478955Y-123025193D01*
X68478957Y-123025192D01*
X68679143Y-122942272D01*
X68891658Y-122900000D01*
X69108342Y-122900000D01*
X69320857Y-122942272D01*
G37*
G36*
X176320857Y-91692272D02*
G01*
X176521043Y-91775192D01*
X176521045Y-91775193D01*
X176611738Y-91835792D01*
X176701208Y-91895574D01*
X176854426Y-92048792D01*
X176974808Y-92228957D01*
X177057728Y-92429143D01*
X177100000Y-92641658D01*
X177100000Y-92858342D01*
X177057728Y-93070857D01*
X176974808Y-93271043D01*
X176974807Y-93271045D01*
X176854425Y-93451209D01*
X176701209Y-93604425D01*
X176521045Y-93724807D01*
X176521044Y-93724808D01*
X176521043Y-93724808D01*
X176320857Y-93807728D01*
X176108342Y-93850000D01*
X175891658Y-93850000D01*
X175679143Y-93807728D01*
X175478957Y-93724808D01*
X175478956Y-93724808D01*
X175478955Y-93724807D01*
X175298791Y-93604425D01*
X175145575Y-93451209D01*
X175025193Y-93271045D01*
X175025192Y-93271043D01*
X174942272Y-93070857D01*
X174900000Y-92858342D01*
X174900000Y-92641658D01*
X174942272Y-92429143D01*
X175025192Y-92228957D01*
X175145574Y-92048792D01*
X175298792Y-91895574D01*
X175388262Y-91835792D01*
X175478955Y-91775193D01*
X175478957Y-91775192D01*
X175679143Y-91692272D01*
X175891658Y-91650000D01*
X176108342Y-91650000D01*
X176320857Y-91692272D01*
G37*
G36*
X150320857Y-62942272D02*
G01*
X150521043Y-63025192D01*
X150521045Y-63025193D01*
X150611738Y-63085792D01*
X150701208Y-63145574D01*
X150854426Y-63298792D01*
X150974808Y-63478957D01*
X151057728Y-63679143D01*
X151100000Y-63891658D01*
X151100000Y-64108342D01*
X151057728Y-64320857D01*
X150974808Y-64521043D01*
X150974807Y-64521045D01*
X150854425Y-64701209D01*
X150701209Y-64854425D01*
X150521045Y-64974807D01*
X150521044Y-64974808D01*
X150521043Y-64974808D01*
X150320857Y-65057728D01*
X150108342Y-65100000D01*
X149891658Y-65100000D01*
X149679143Y-65057728D01*
X149478957Y-64974808D01*
X149478956Y-64974808D01*
X149478955Y-64974807D01*
X149298791Y-64854425D01*
X149145575Y-64701209D01*
X149025193Y-64521045D01*
X149025192Y-64521043D01*
X148942272Y-64320857D01*
X148900000Y-64108342D01*
X148900000Y-63891658D01*
X148942272Y-63679143D01*
X149025192Y-63478957D01*
X149145574Y-63298792D01*
X149298792Y-63145574D01*
X149388262Y-63085792D01*
X149478955Y-63025193D01*
X149478957Y-63025192D01*
X149679143Y-62942272D01*
X149891658Y-62900000D01*
X150108342Y-62900000D01*
X150320857Y-62942272D01*
G37*
G36*
X69320857Y-62942272D02*
G01*
X69521043Y-63025192D01*
X69521045Y-63025193D01*
X69611738Y-63085792D01*
X69701208Y-63145574D01*
X69854426Y-63298792D01*
X69974808Y-63478957D01*
X70057728Y-63679143D01*
X70100000Y-63891658D01*
X70100000Y-64108342D01*
X70057728Y-64320857D01*
X69974808Y-64521043D01*
X69974807Y-64521045D01*
X69854425Y-64701209D01*
X69701209Y-64854425D01*
X69521045Y-64974807D01*
X69521044Y-64974808D01*
X69521043Y-64974808D01*
X69320857Y-65057728D01*
X69108342Y-65100000D01*
X68891658Y-65100000D01*
X68679143Y-65057728D01*
X68478957Y-64974808D01*
X68478956Y-64974808D01*
X68478955Y-64974807D01*
X68298791Y-64854425D01*
X68145575Y-64701209D01*
X68025193Y-64521045D01*
X68025192Y-64521043D01*
X67942272Y-64320857D01*
X67900000Y-64108342D01*
X67900000Y-63891658D01*
X67942272Y-63679143D01*
X68025192Y-63478957D01*
X68145574Y-63298792D01*
X68298792Y-63145574D01*
X68388262Y-63085792D01*
X68478955Y-63025193D01*
X68478957Y-63025192D01*
X68679143Y-62942272D01*
X68891658Y-62900000D01*
X69108342Y-62900000D01*
X69320857Y-62942272D01*
G37*
G36*
X189820857Y-59942272D02*
G01*
X190021043Y-60025192D01*
X190021045Y-60025193D01*
X190111738Y-60085792D01*
X190201208Y-60145574D01*
X190354426Y-60298792D01*
X190474808Y-60478957D01*
X190557728Y-60679143D01*
X190600000Y-60891658D01*
X190600000Y-61108342D01*
X190557728Y-61320857D01*
X190474808Y-61521043D01*
X190474807Y-61521045D01*
X190354425Y-61701209D01*
X190201209Y-61854425D01*
X190021045Y-61974807D01*
X190021044Y-61974808D01*
X190021043Y-61974808D01*
X189820857Y-62057728D01*
X189608342Y-62100000D01*
X189391658Y-62100000D01*
X189179143Y-62057728D01*
X188978957Y-61974808D01*
X188978956Y-61974808D01*
X188978955Y-61974807D01*
X188798791Y-61854425D01*
X188645575Y-61701209D01*
X188525193Y-61521045D01*
X188525192Y-61521043D01*
X188442272Y-61320857D01*
X188400000Y-61108342D01*
X188400000Y-60891658D01*
X188442272Y-60679143D01*
X188525192Y-60478957D01*
X188645574Y-60298792D01*
X188798792Y-60145574D01*
X188888262Y-60085792D01*
X188978955Y-60025193D01*
X188978957Y-60025192D01*
X189179143Y-59942272D01*
X189391658Y-59900000D01*
X189608342Y-59900000D01*
X189820857Y-59942272D01*
G37*
G36*
X176320857Y-59942272D02*
G01*
X176521043Y-60025192D01*
X176521045Y-60025193D01*
X176611738Y-60085792D01*
X176701208Y-60145574D01*
X176854426Y-60298792D01*
X176974808Y-60478957D01*
X177057728Y-60679143D01*
X177100000Y-60891658D01*
X177100000Y-61108342D01*
X177057728Y-61320857D01*
X176974808Y-61521043D01*
X176974807Y-61521045D01*
X176854425Y-61701209D01*
X176701209Y-61854425D01*
X176521045Y-61974807D01*
X176521044Y-61974808D01*
X176521043Y-61974808D01*
X176320857Y-62057728D01*
X176108342Y-62100000D01*
X175891658Y-62100000D01*
X175679143Y-62057728D01*
X175478957Y-61974808D01*
X175478956Y-61974808D01*
X175478955Y-61974807D01*
X175298791Y-61854425D01*
X175145575Y-61701209D01*
X175025193Y-61521045D01*
X175025192Y-61521043D01*
X174942272Y-61320857D01*
X174900000Y-61108342D01*
X174900000Y-60891658D01*
X174942272Y-60679143D01*
X175025192Y-60478957D01*
X175145574Y-60298792D01*
X175298792Y-60145574D01*
X175388262Y-60085792D01*
X175478955Y-60025193D01*
X175478957Y-60025192D01*
X175679143Y-59942272D01*
X175891658Y-59900000D01*
X176108342Y-59900000D01*
X176320857Y-59942272D01*
G37*
M02*
