G04 #@! TF.GenerationSoftware,KiCad,Pcbnew,(5.1.5)-3*
G04 #@! TF.CreationDate,2021-03-06T02:02:41+09:00*
G04 #@! TF.ProjectId,Getta25,47657474-6132-4352-9e6b-696361645f70,rev?*
G04 #@! TF.SameCoordinates,Original*
G04 #@! TF.FileFunction,Soldermask,Bot*
G04 #@! TF.FilePolarity,Negative*
%FSLAX46Y46*%
G04 Gerber Fmt 4.6, Leading zero omitted, Abs format (unit mm)*
G04 Created by KiCad (PCBNEW (5.1.5)-3) date 2021-03-06 02:02:41*
%MOMM*%
%LPD*%
G04 APERTURE LIST*
%ADD10C,0.100000*%
G04 APERTURE END LIST*
D10*
G36*
X128677107Y-49842272D02*
G01*
X128877293Y-49925192D01*
X128877295Y-49925193D01*
X128967988Y-49985792D01*
X129057458Y-50045574D01*
X129210676Y-50198792D01*
X129331058Y-50378957D01*
X129413978Y-50579143D01*
X129456250Y-50791658D01*
X129456250Y-51008342D01*
X129413978Y-51220857D01*
X129331058Y-51421043D01*
X129331057Y-51421045D01*
X129210675Y-51601209D01*
X129057459Y-51754425D01*
X128877295Y-51874807D01*
X128877294Y-51874808D01*
X128877293Y-51874808D01*
X128677107Y-51957728D01*
X128464592Y-52000000D01*
X128247908Y-52000000D01*
X128035393Y-51957728D01*
X127835207Y-51874808D01*
X127835206Y-51874808D01*
X127835205Y-51874807D01*
X127655041Y-51754425D01*
X127501825Y-51601209D01*
X127381443Y-51421045D01*
X127381442Y-51421043D01*
X127298522Y-51220857D01*
X127256250Y-51008342D01*
X127256250Y-50791658D01*
X127298522Y-50579143D01*
X127381442Y-50378957D01*
X127501824Y-50198792D01*
X127655042Y-50045574D01*
X127744512Y-49985792D01*
X127835205Y-49925193D01*
X127835207Y-49925192D01*
X128035393Y-49842272D01*
X128247908Y-49800000D01*
X128464592Y-49800000D01*
X128677107Y-49842272D01*
G37*
G36*
X127071032Y-10164469D02*
G01*
X127165285Y-10193061D01*
X127259535Y-10221651D01*
X127259537Y-10221652D01*
X127433257Y-10314507D01*
X127458378Y-10335123D01*
X127478752Y-10348736D01*
X127508258Y-10364507D01*
X127660528Y-10489472D01*
X127785493Y-10641742D01*
X127878348Y-10815463D01*
X127935531Y-11003968D01*
X127950000Y-11150876D01*
X127950000Y-42149124D01*
X127935531Y-42296032D01*
X127935530Y-42296034D01*
X127882442Y-42471043D01*
X127878348Y-42484537D01*
X127785493Y-42658258D01*
X127660528Y-42810528D01*
X127508258Y-42935493D01*
X127478752Y-42951264D01*
X127458378Y-42964877D01*
X127433257Y-42985493D01*
X127259537Y-43078348D01*
X127259535Y-43078349D01*
X127172212Y-43104838D01*
X127071032Y-43135531D01*
X126924124Y-43150000D01*
X115175876Y-43150000D01*
X115028968Y-43135531D01*
X114927788Y-43104838D01*
X114840465Y-43078349D01*
X114840463Y-43078348D01*
X114666743Y-42985493D01*
X114641621Y-42964876D01*
X114621245Y-42951261D01*
X114591741Y-42935491D01*
X114439473Y-42810528D01*
X114314508Y-42658258D01*
X114221653Y-42484537D01*
X114217560Y-42471043D01*
X114164471Y-42296034D01*
X114164470Y-42296032D01*
X114150001Y-42149124D01*
X114150001Y-12274999D01*
X116150000Y-12274999D01*
X116150000Y-41025001D01*
X116152402Y-41049387D01*
X116159515Y-41072836D01*
X116171066Y-41094447D01*
X116186611Y-41113389D01*
X116205553Y-41128934D01*
X116227164Y-41140485D01*
X116250613Y-41147598D01*
X116274999Y-41150000D01*
X125825002Y-41150000D01*
X125849388Y-41147598D01*
X125872837Y-41140485D01*
X125894448Y-41128934D01*
X125913390Y-41113389D01*
X125928935Y-41094447D01*
X125940486Y-41072836D01*
X125947599Y-41049387D01*
X125950001Y-41025001D01*
X125950000Y-12274999D01*
X125947598Y-12250613D01*
X125940485Y-12227164D01*
X125928934Y-12205553D01*
X125913389Y-12186611D01*
X125894447Y-12171066D01*
X125872836Y-12159515D01*
X125849387Y-12152402D01*
X125825001Y-12150000D01*
X116274999Y-12150000D01*
X116250613Y-12152402D01*
X116227164Y-12159515D01*
X116205553Y-12171066D01*
X116186611Y-12186611D01*
X116171066Y-12205553D01*
X116159515Y-12227164D01*
X116152402Y-12250613D01*
X116150000Y-12274999D01*
X114150001Y-12274999D01*
X114150000Y-11150877D01*
X114164469Y-11003969D01*
X114221652Y-10815464D01*
X114314507Y-10641742D01*
X114439472Y-10489472D01*
X114591742Y-10364507D01*
X114621248Y-10348736D01*
X114641622Y-10335123D01*
X114666743Y-10314507D01*
X114840463Y-10221652D01*
X114840465Y-10221651D01*
X114934715Y-10193061D01*
X115028968Y-10164469D01*
X115175876Y-10150000D01*
X126924124Y-10150000D01*
X127071032Y-10164469D01*
G37*
G36*
X109870857Y-40892272D02*
G01*
X110071043Y-40975192D01*
X110071045Y-40975193D01*
X110145588Y-41025001D01*
X110251208Y-41095574D01*
X110404426Y-41248792D01*
X110524808Y-41428957D01*
X110607728Y-41629143D01*
X110650000Y-41841658D01*
X110650000Y-42058342D01*
X110607728Y-42270857D01*
X110524808Y-42471043D01*
X110404426Y-42651208D01*
X110251208Y-42804426D01*
X110167245Y-42860528D01*
X110071045Y-42924807D01*
X110071044Y-42924808D01*
X110071043Y-42924808D01*
X109870857Y-43007728D01*
X109658342Y-43050000D01*
X109441658Y-43050000D01*
X109229143Y-43007728D01*
X109028957Y-42924808D01*
X109028956Y-42924808D01*
X109028955Y-42924807D01*
X108932755Y-42860528D01*
X108848792Y-42804426D01*
X108695574Y-42651208D01*
X108575192Y-42471043D01*
X108492272Y-42270857D01*
X108450000Y-42058342D01*
X108450000Y-41841658D01*
X108492272Y-41629143D01*
X108575192Y-41428957D01*
X108695574Y-41248792D01*
X108848792Y-41095574D01*
X108954412Y-41025001D01*
X109028955Y-40975193D01*
X109028957Y-40975192D01*
X109229143Y-40892272D01*
X109441658Y-40850000D01*
X109658342Y-40850000D01*
X109870857Y-40892272D01*
G37*
G36*
X109870857Y-8486022D02*
G01*
X110071043Y-8568942D01*
X110071045Y-8568943D01*
X110161738Y-8629542D01*
X110251208Y-8689324D01*
X110404426Y-8842542D01*
X110524808Y-9022707D01*
X110607728Y-9222893D01*
X110650000Y-9435408D01*
X110650000Y-9652092D01*
X110607728Y-9864607D01*
X110524808Y-10064793D01*
X110419999Y-10221652D01*
X110404425Y-10244959D01*
X110251209Y-10398175D01*
X110071045Y-10518557D01*
X110071044Y-10518558D01*
X110071043Y-10518558D01*
X109870857Y-10601478D01*
X109658342Y-10643750D01*
X109441658Y-10643750D01*
X109229143Y-10601478D01*
X109028957Y-10518558D01*
X109028956Y-10518558D01*
X109028955Y-10518557D01*
X108848791Y-10398175D01*
X108695575Y-10244959D01*
X108680002Y-10221652D01*
X108575192Y-10064793D01*
X108492272Y-9864607D01*
X108450000Y-9652092D01*
X108450000Y-9435408D01*
X108492272Y-9222893D01*
X108575192Y-9022707D01*
X108695574Y-8842542D01*
X108848792Y-8689324D01*
X108938262Y-8629542D01*
X109028955Y-8568943D01*
X109028957Y-8568942D01*
X109229143Y-8486022D01*
X109441658Y-8443750D01*
X109658342Y-8443750D01*
X109870857Y-8486022D01*
G37*
M02*
