G04 #@! TF.GenerationSoftware,KiCad,Pcbnew,(5.1.5)-3*
G04 #@! TF.CreationDate,2021-03-06T01:39:33+09:00*
G04 #@! TF.ProjectId,Setta21_Top,53657474-6132-4315-9f54-6f702e6b6963,rev?*
G04 #@! TF.SameCoordinates,Original*
G04 #@! TF.FileFunction,Copper,L1,Top*
G04 #@! TF.FilePolarity,Positive*
%FSLAX46Y46*%
G04 Gerber Fmt 4.6, Leading zero omitted, Abs format (unit mm)*
G04 Created by KiCad (PCBNEW (5.1.5)-3) date 2021-03-06 01:39:33*
%MOMM*%
%LPD*%
G04 APERTURE LIST*
%ADD10C,0.254000*%
G04 APERTURE END LIST*
D10*
G36*
X169315000Y-58783736D02*
G01*
X169315001Y-129216263D01*
X169216264Y-129315000D01*
X63783736Y-129315000D01*
X63685000Y-129216264D01*
X63685000Y-123829117D01*
X67265000Y-123829117D01*
X67265000Y-124170883D01*
X67331675Y-124506081D01*
X67462463Y-124821831D01*
X67652337Y-125105998D01*
X67894002Y-125347663D01*
X68178169Y-125537537D01*
X68493919Y-125668325D01*
X68829117Y-125735000D01*
X69170883Y-125735000D01*
X69506081Y-125668325D01*
X69821831Y-125537537D01*
X70105998Y-125347663D01*
X70347663Y-125105998D01*
X70537537Y-124821831D01*
X70668325Y-124506081D01*
X70735000Y-124170883D01*
X70735000Y-123829117D01*
X70668325Y-123493919D01*
X70537537Y-123178169D01*
X70347663Y-122894002D01*
X70105998Y-122652337D01*
X69821831Y-122462463D01*
X69506081Y-122331675D01*
X69170883Y-122265000D01*
X68829117Y-122265000D01*
X68493919Y-122331675D01*
X68178169Y-122462463D01*
X67894002Y-122652337D01*
X67652337Y-122894002D01*
X67462463Y-123178169D01*
X67331675Y-123493919D01*
X67265000Y-123829117D01*
X63685000Y-123829117D01*
X63685000Y-114000000D01*
X72311686Y-114000000D01*
X72315001Y-114033657D01*
X72315000Y-127966353D01*
X72311686Y-128000000D01*
X72324912Y-128134283D01*
X72364081Y-128263406D01*
X72427688Y-128382407D01*
X72513289Y-128486711D01*
X72617593Y-128572312D01*
X72736594Y-128635919D01*
X72865717Y-128675088D01*
X73000000Y-128688314D01*
X73033647Y-128685000D01*
X86966353Y-128685000D01*
X87000000Y-128688314D01*
X87134283Y-128675088D01*
X87263406Y-128635919D01*
X87382407Y-128572312D01*
X87486711Y-128486711D01*
X87572312Y-128382407D01*
X87635919Y-128263406D01*
X87675088Y-128134283D01*
X87685000Y-128033647D01*
X87685000Y-128033646D01*
X87688314Y-128000000D01*
X87685000Y-127966353D01*
X87685000Y-114033647D01*
X87688314Y-114000000D01*
X106311686Y-114000000D01*
X106315000Y-114033647D01*
X106315001Y-127966343D01*
X106311686Y-128000000D01*
X106324912Y-128134283D01*
X106364081Y-128263406D01*
X106427688Y-128382407D01*
X106513289Y-128486711D01*
X106617593Y-128572312D01*
X106736594Y-128635919D01*
X106865717Y-128675088D01*
X106966353Y-128685000D01*
X107000000Y-128688314D01*
X107033647Y-128685000D01*
X120966353Y-128685000D01*
X121000000Y-128688314D01*
X121033647Y-128685000D01*
X121134283Y-128675088D01*
X121263406Y-128635919D01*
X121382407Y-128572312D01*
X121486711Y-128486711D01*
X121572312Y-128382407D01*
X121635919Y-128263406D01*
X121675088Y-128134283D01*
X121688314Y-128000000D01*
X121685000Y-127966353D01*
X121685000Y-114033647D01*
X121688314Y-114000000D01*
X131811686Y-114000000D01*
X131815000Y-114033647D01*
X131815001Y-127966343D01*
X131811686Y-128000000D01*
X131824912Y-128134283D01*
X131864081Y-128263406D01*
X131927688Y-128382407D01*
X132013289Y-128486711D01*
X132117593Y-128572312D01*
X132236594Y-128635919D01*
X132365717Y-128675088D01*
X132466353Y-128685000D01*
X132500000Y-128688314D01*
X132533647Y-128685000D01*
X146466353Y-128685000D01*
X146500000Y-128688314D01*
X146533647Y-128685000D01*
X146634283Y-128675088D01*
X146763406Y-128635919D01*
X146882407Y-128572312D01*
X146986711Y-128486711D01*
X147072312Y-128382407D01*
X147135919Y-128263406D01*
X147175088Y-128134283D01*
X147188314Y-128000000D01*
X147185000Y-127966353D01*
X147185000Y-123829117D01*
X148265000Y-123829117D01*
X148265000Y-124170883D01*
X148331675Y-124506081D01*
X148462463Y-124821831D01*
X148652337Y-125105998D01*
X148894002Y-125347663D01*
X149178169Y-125537537D01*
X149493919Y-125668325D01*
X149829117Y-125735000D01*
X150170883Y-125735000D01*
X150506081Y-125668325D01*
X150821831Y-125537537D01*
X151105998Y-125347663D01*
X151347663Y-125105998D01*
X151537537Y-124821831D01*
X151668325Y-124506081D01*
X151735000Y-124170883D01*
X151735000Y-123829117D01*
X151668325Y-123493919D01*
X151537537Y-123178169D01*
X151347663Y-122894002D01*
X151105998Y-122652337D01*
X150821831Y-122462463D01*
X150506081Y-122331675D01*
X150170883Y-122265000D01*
X149829117Y-122265000D01*
X149493919Y-122331675D01*
X149178169Y-122462463D01*
X148894002Y-122652337D01*
X148652337Y-122894002D01*
X148462463Y-123178169D01*
X148331675Y-123493919D01*
X148265000Y-123829117D01*
X147185000Y-123829117D01*
X147185000Y-114033647D01*
X147188314Y-114000000D01*
X152811686Y-114000000D01*
X152815000Y-114033647D01*
X152815001Y-127966343D01*
X152811686Y-128000000D01*
X152824912Y-128134283D01*
X152864081Y-128263406D01*
X152927688Y-128382407D01*
X153013289Y-128486711D01*
X153117593Y-128572312D01*
X153236594Y-128635919D01*
X153365717Y-128675088D01*
X153466353Y-128685000D01*
X153500000Y-128688314D01*
X153533647Y-128685000D01*
X167466353Y-128685000D01*
X167500000Y-128688314D01*
X167533647Y-128685000D01*
X167634283Y-128675088D01*
X167763406Y-128635919D01*
X167882407Y-128572312D01*
X167986711Y-128486711D01*
X168072312Y-128382407D01*
X168135919Y-128263406D01*
X168175088Y-128134283D01*
X168188314Y-128000000D01*
X168185000Y-127966353D01*
X168185000Y-114033647D01*
X168188314Y-114000000D01*
X168175088Y-113865717D01*
X168135919Y-113736594D01*
X168072312Y-113617593D01*
X167986711Y-113513289D01*
X167882407Y-113427688D01*
X167763406Y-113364081D01*
X167634283Y-113324912D01*
X167533647Y-113315000D01*
X167500000Y-113311686D01*
X167466353Y-113315000D01*
X153533647Y-113315000D01*
X153500000Y-113311686D01*
X153466353Y-113315000D01*
X153365717Y-113324912D01*
X153236594Y-113364081D01*
X153117593Y-113427688D01*
X153013289Y-113513289D01*
X152927688Y-113617593D01*
X152864081Y-113736594D01*
X152824912Y-113865717D01*
X152811686Y-114000000D01*
X147188314Y-114000000D01*
X147175088Y-113865717D01*
X147135919Y-113736594D01*
X147072312Y-113617593D01*
X146986711Y-113513289D01*
X146882407Y-113427688D01*
X146763406Y-113364081D01*
X146634283Y-113324912D01*
X146533647Y-113315000D01*
X146500000Y-113311686D01*
X146466353Y-113315000D01*
X132533647Y-113315000D01*
X132500000Y-113311686D01*
X132466353Y-113315000D01*
X132365717Y-113324912D01*
X132236594Y-113364081D01*
X132117593Y-113427688D01*
X132013289Y-113513289D01*
X131927688Y-113617593D01*
X131864081Y-113736594D01*
X131824912Y-113865717D01*
X131811686Y-114000000D01*
X121688314Y-114000000D01*
X121675088Y-113865717D01*
X121635919Y-113736594D01*
X121572312Y-113617593D01*
X121486711Y-113513289D01*
X121382407Y-113427688D01*
X121263406Y-113364081D01*
X121134283Y-113324912D01*
X121033647Y-113315000D01*
X121000000Y-113311686D01*
X120966353Y-113315000D01*
X107033647Y-113315000D01*
X107000000Y-113311686D01*
X106966353Y-113315000D01*
X106865717Y-113324912D01*
X106736594Y-113364081D01*
X106617593Y-113427688D01*
X106513289Y-113513289D01*
X106427688Y-113617593D01*
X106364081Y-113736594D01*
X106324912Y-113865717D01*
X106311686Y-114000000D01*
X87688314Y-114000000D01*
X87675088Y-113865717D01*
X87635919Y-113736594D01*
X87572312Y-113617593D01*
X87486711Y-113513289D01*
X87382407Y-113427688D01*
X87263406Y-113364081D01*
X87134283Y-113324912D01*
X87033647Y-113315000D01*
X87000000Y-113311686D01*
X86966353Y-113315000D01*
X73033647Y-113315000D01*
X73000000Y-113311686D01*
X72966353Y-113315000D01*
X72865717Y-113324912D01*
X72736594Y-113364081D01*
X72617593Y-113427688D01*
X72513289Y-113513289D01*
X72427688Y-113617593D01*
X72364081Y-113736594D01*
X72324912Y-113865717D01*
X72311686Y-114000000D01*
X63685000Y-114000000D01*
X63685000Y-96000000D01*
X63811686Y-96000000D01*
X63815000Y-96033647D01*
X63815001Y-109966343D01*
X63811686Y-110000000D01*
X63824912Y-110134283D01*
X63864081Y-110263406D01*
X63927688Y-110382407D01*
X64013289Y-110486711D01*
X64117593Y-110572312D01*
X64236594Y-110635919D01*
X64365717Y-110675088D01*
X64466353Y-110685000D01*
X64500000Y-110688314D01*
X64533647Y-110685000D01*
X78466353Y-110685000D01*
X78500000Y-110688314D01*
X78533647Y-110685000D01*
X78634283Y-110675088D01*
X78763406Y-110635919D01*
X78882407Y-110572312D01*
X78986711Y-110486711D01*
X79072312Y-110382407D01*
X79135919Y-110263406D01*
X79175088Y-110134283D01*
X79188314Y-110000000D01*
X79185000Y-109966353D01*
X79185000Y-96033647D01*
X79188314Y-96000000D01*
X80811686Y-96000000D01*
X80815000Y-96033647D01*
X80815001Y-109966343D01*
X80811686Y-110000000D01*
X80824912Y-110134283D01*
X80864081Y-110263406D01*
X80927688Y-110382407D01*
X81013289Y-110486711D01*
X81117593Y-110572312D01*
X81236594Y-110635919D01*
X81365717Y-110675088D01*
X81466353Y-110685000D01*
X81500000Y-110688314D01*
X81533647Y-110685000D01*
X95466353Y-110685000D01*
X95500000Y-110688314D01*
X95533647Y-110685000D01*
X95634283Y-110675088D01*
X95763406Y-110635919D01*
X95882407Y-110572312D01*
X95986711Y-110486711D01*
X96072312Y-110382407D01*
X96135919Y-110263406D01*
X96175088Y-110134283D01*
X96188314Y-110000000D01*
X96185000Y-109966353D01*
X96185000Y-96033647D01*
X96188314Y-96000000D01*
X97811686Y-96000000D01*
X97815000Y-96033647D01*
X97815001Y-109966343D01*
X97811686Y-110000000D01*
X97824912Y-110134283D01*
X97864081Y-110263406D01*
X97927688Y-110382407D01*
X98013289Y-110486711D01*
X98117593Y-110572312D01*
X98236594Y-110635919D01*
X98365717Y-110675088D01*
X98466353Y-110685000D01*
X98500000Y-110688314D01*
X98533647Y-110685000D01*
X112466353Y-110685000D01*
X112500000Y-110688314D01*
X112533647Y-110685000D01*
X112634283Y-110675088D01*
X112763406Y-110635919D01*
X112882407Y-110572312D01*
X112986711Y-110486711D01*
X113072312Y-110382407D01*
X113135919Y-110263406D01*
X113175088Y-110134283D01*
X113188314Y-110000000D01*
X113185000Y-109966353D01*
X113185000Y-96033647D01*
X113188314Y-96000000D01*
X114811686Y-96000000D01*
X114815000Y-96033647D01*
X114815001Y-109966343D01*
X114811686Y-110000000D01*
X114824912Y-110134283D01*
X114864081Y-110263406D01*
X114927688Y-110382407D01*
X115013289Y-110486711D01*
X115117593Y-110572312D01*
X115236594Y-110635919D01*
X115365717Y-110675088D01*
X115466353Y-110685000D01*
X115500000Y-110688314D01*
X115533647Y-110685000D01*
X129466353Y-110685000D01*
X129500000Y-110688314D01*
X129533647Y-110685000D01*
X129634283Y-110675088D01*
X129763406Y-110635919D01*
X129882407Y-110572312D01*
X129986711Y-110486711D01*
X130072312Y-110382407D01*
X130135919Y-110263406D01*
X130175088Y-110134283D01*
X130188314Y-110000000D01*
X130185000Y-109966353D01*
X130185000Y-96033647D01*
X130188314Y-96000000D01*
X131811686Y-96000000D01*
X131815000Y-96033647D01*
X131815001Y-109966343D01*
X131811686Y-110000000D01*
X131824912Y-110134283D01*
X131864081Y-110263406D01*
X131927688Y-110382407D01*
X132013289Y-110486711D01*
X132117593Y-110572312D01*
X132236594Y-110635919D01*
X132365717Y-110675088D01*
X132466353Y-110685000D01*
X132500000Y-110688314D01*
X132533647Y-110685000D01*
X146466353Y-110685000D01*
X146500000Y-110688314D01*
X146533647Y-110685000D01*
X146634283Y-110675088D01*
X146763406Y-110635919D01*
X146882407Y-110572312D01*
X146986711Y-110486711D01*
X147072312Y-110382407D01*
X147135919Y-110263406D01*
X147175088Y-110134283D01*
X147188314Y-110000000D01*
X147185000Y-109966353D01*
X147185000Y-96033647D01*
X147188314Y-96000000D01*
X152811686Y-96000000D01*
X152815000Y-96033647D01*
X152815001Y-109966343D01*
X152811686Y-110000000D01*
X152824912Y-110134283D01*
X152864081Y-110263406D01*
X152927688Y-110382407D01*
X153013289Y-110486711D01*
X153117593Y-110572312D01*
X153236594Y-110635919D01*
X153365717Y-110675088D01*
X153466353Y-110685000D01*
X153500000Y-110688314D01*
X153533647Y-110685000D01*
X167466353Y-110685000D01*
X167500000Y-110688314D01*
X167533647Y-110685000D01*
X167634283Y-110675088D01*
X167763406Y-110635919D01*
X167882407Y-110572312D01*
X167986711Y-110486711D01*
X168072312Y-110382407D01*
X168135919Y-110263406D01*
X168175088Y-110134283D01*
X168188314Y-110000000D01*
X168185000Y-109966353D01*
X168185000Y-96033647D01*
X168188314Y-96000000D01*
X168175088Y-95865717D01*
X168135919Y-95736594D01*
X168072312Y-95617593D01*
X167986711Y-95513289D01*
X167882407Y-95427688D01*
X167763406Y-95364081D01*
X167634283Y-95324912D01*
X167533647Y-95315000D01*
X167500000Y-95311686D01*
X167466353Y-95315000D01*
X153533647Y-95315000D01*
X153500000Y-95311686D01*
X153466353Y-95315000D01*
X153365717Y-95324912D01*
X153236594Y-95364081D01*
X153117593Y-95427688D01*
X153013289Y-95513289D01*
X152927688Y-95617593D01*
X152864081Y-95736594D01*
X152824912Y-95865717D01*
X152811686Y-96000000D01*
X147188314Y-96000000D01*
X147175088Y-95865717D01*
X147135919Y-95736594D01*
X147072312Y-95617593D01*
X146986711Y-95513289D01*
X146882407Y-95427688D01*
X146763406Y-95364081D01*
X146634283Y-95324912D01*
X146533647Y-95315000D01*
X146500000Y-95311686D01*
X146466353Y-95315000D01*
X132533647Y-95315000D01*
X132500000Y-95311686D01*
X132466353Y-95315000D01*
X132365717Y-95324912D01*
X132236594Y-95364081D01*
X132117593Y-95427688D01*
X132013289Y-95513289D01*
X131927688Y-95617593D01*
X131864081Y-95736594D01*
X131824912Y-95865717D01*
X131811686Y-96000000D01*
X130188314Y-96000000D01*
X130175088Y-95865717D01*
X130135919Y-95736594D01*
X130072312Y-95617593D01*
X129986711Y-95513289D01*
X129882407Y-95427688D01*
X129763406Y-95364081D01*
X129634283Y-95324912D01*
X129533647Y-95315000D01*
X129500000Y-95311686D01*
X129466353Y-95315000D01*
X115533647Y-95315000D01*
X115500000Y-95311686D01*
X115466353Y-95315000D01*
X115365717Y-95324912D01*
X115236594Y-95364081D01*
X115117593Y-95427688D01*
X115013289Y-95513289D01*
X114927688Y-95617593D01*
X114864081Y-95736594D01*
X114824912Y-95865717D01*
X114811686Y-96000000D01*
X113188314Y-96000000D01*
X113175088Y-95865717D01*
X113135919Y-95736594D01*
X113072312Y-95617593D01*
X112986711Y-95513289D01*
X112882407Y-95427688D01*
X112763406Y-95364081D01*
X112634283Y-95324912D01*
X112533647Y-95315000D01*
X112500000Y-95311686D01*
X112466353Y-95315000D01*
X98533647Y-95315000D01*
X98500000Y-95311686D01*
X98466353Y-95315000D01*
X98365717Y-95324912D01*
X98236594Y-95364081D01*
X98117593Y-95427688D01*
X98013289Y-95513289D01*
X97927688Y-95617593D01*
X97864081Y-95736594D01*
X97824912Y-95865717D01*
X97811686Y-96000000D01*
X96188314Y-96000000D01*
X96175088Y-95865717D01*
X96135919Y-95736594D01*
X96072312Y-95617593D01*
X95986711Y-95513289D01*
X95882407Y-95427688D01*
X95763406Y-95364081D01*
X95634283Y-95324912D01*
X95533647Y-95315000D01*
X95500000Y-95311686D01*
X95466353Y-95315000D01*
X81533647Y-95315000D01*
X81500000Y-95311686D01*
X81466353Y-95315000D01*
X81365717Y-95324912D01*
X81236594Y-95364081D01*
X81117593Y-95427688D01*
X81013289Y-95513289D01*
X80927688Y-95617593D01*
X80864081Y-95736594D01*
X80824912Y-95865717D01*
X80811686Y-96000000D01*
X79188314Y-96000000D01*
X79175088Y-95865717D01*
X79135919Y-95736594D01*
X79072312Y-95617593D01*
X78986711Y-95513289D01*
X78882407Y-95427688D01*
X78763406Y-95364081D01*
X78634283Y-95324912D01*
X78533647Y-95315000D01*
X78500000Y-95311686D01*
X78466353Y-95315000D01*
X64533647Y-95315000D01*
X64500000Y-95311686D01*
X64466353Y-95315000D01*
X64365717Y-95324912D01*
X64236594Y-95364081D01*
X64117593Y-95427688D01*
X64013289Y-95513289D01*
X63927688Y-95617593D01*
X63864081Y-95736594D01*
X63824912Y-95865717D01*
X63811686Y-96000000D01*
X63685000Y-96000000D01*
X63685000Y-69000000D01*
X63811686Y-69000000D01*
X63815001Y-69033657D01*
X63815000Y-82966353D01*
X63811686Y-83000000D01*
X63824912Y-83134283D01*
X63864081Y-83263406D01*
X63927688Y-83382407D01*
X64013289Y-83486711D01*
X64117593Y-83572312D01*
X64236594Y-83635919D01*
X64365717Y-83675088D01*
X64500000Y-83688314D01*
X64533647Y-83685000D01*
X78466353Y-83685000D01*
X78500000Y-83688314D01*
X78634283Y-83675088D01*
X78763406Y-83635919D01*
X78882407Y-83572312D01*
X78986711Y-83486711D01*
X79072312Y-83382407D01*
X79135919Y-83263406D01*
X79175088Y-83134283D01*
X79185000Y-83033647D01*
X79185000Y-83033646D01*
X79188314Y-83000000D01*
X79185000Y-82966353D01*
X79185000Y-78000000D01*
X80811686Y-78000000D01*
X80815000Y-78033647D01*
X80815001Y-91941343D01*
X80811686Y-91975000D01*
X80824912Y-92109283D01*
X80864081Y-92238406D01*
X80927688Y-92357407D01*
X81013289Y-92461711D01*
X81117593Y-92547312D01*
X81236594Y-92610919D01*
X81365717Y-92650088D01*
X81466353Y-92660000D01*
X81500000Y-92663314D01*
X81533647Y-92660000D01*
X95466353Y-92660000D01*
X95500000Y-92663314D01*
X95533647Y-92660000D01*
X95634283Y-92650088D01*
X95763406Y-92610919D01*
X95882407Y-92547312D01*
X95986711Y-92461711D01*
X96072312Y-92357407D01*
X96135919Y-92238406D01*
X96175088Y-92109283D01*
X96188314Y-91975000D01*
X96185000Y-91941353D01*
X96185000Y-78033647D01*
X96188314Y-78000000D01*
X97811686Y-78000000D01*
X97815000Y-78033647D01*
X97815001Y-91966343D01*
X97811686Y-92000000D01*
X97824912Y-92134283D01*
X97864081Y-92263406D01*
X97927688Y-92382407D01*
X98013289Y-92486711D01*
X98117593Y-92572312D01*
X98236594Y-92635919D01*
X98365717Y-92675088D01*
X98466353Y-92685000D01*
X98500000Y-92688314D01*
X98533647Y-92685000D01*
X112466353Y-92685000D01*
X112500000Y-92688314D01*
X112533647Y-92685000D01*
X112634283Y-92675088D01*
X112763406Y-92635919D01*
X112882407Y-92572312D01*
X112986711Y-92486711D01*
X113072312Y-92382407D01*
X113135919Y-92263406D01*
X113175088Y-92134283D01*
X113188314Y-92000000D01*
X113185000Y-91966353D01*
X113185000Y-78033647D01*
X113188314Y-78000000D01*
X114811686Y-78000000D01*
X114815000Y-78033647D01*
X114815001Y-91966343D01*
X114811686Y-92000000D01*
X114824912Y-92134283D01*
X114864081Y-92263406D01*
X114927688Y-92382407D01*
X115013289Y-92486711D01*
X115117593Y-92572312D01*
X115236594Y-92635919D01*
X115365717Y-92675088D01*
X115466353Y-92685000D01*
X115500000Y-92688314D01*
X115533647Y-92685000D01*
X129466353Y-92685000D01*
X129500000Y-92688314D01*
X129533647Y-92685000D01*
X129634283Y-92675088D01*
X129763406Y-92635919D01*
X129882407Y-92572312D01*
X129986711Y-92486711D01*
X130072312Y-92382407D01*
X130135919Y-92263406D01*
X130175088Y-92134283D01*
X130188314Y-92000000D01*
X130185000Y-91966353D01*
X130185000Y-78033647D01*
X130188314Y-78000000D01*
X131811686Y-78000000D01*
X131815000Y-78033647D01*
X131815001Y-91966343D01*
X131811686Y-92000000D01*
X131824912Y-92134283D01*
X131864081Y-92263406D01*
X131927688Y-92382407D01*
X132013289Y-92486711D01*
X132117593Y-92572312D01*
X132236594Y-92635919D01*
X132365717Y-92675088D01*
X132466353Y-92685000D01*
X132500000Y-92688314D01*
X132533647Y-92685000D01*
X146466353Y-92685000D01*
X146500000Y-92688314D01*
X146533647Y-92685000D01*
X146634283Y-92675088D01*
X146763406Y-92635919D01*
X146882407Y-92572312D01*
X146986711Y-92486711D01*
X147072312Y-92382407D01*
X147135919Y-92263406D01*
X147175088Y-92134283D01*
X147188314Y-92000000D01*
X147185000Y-91966353D01*
X147185000Y-78033647D01*
X147188314Y-78000000D01*
X152811686Y-78000000D01*
X152815000Y-78033647D01*
X152815001Y-91966343D01*
X152811686Y-92000000D01*
X152824912Y-92134283D01*
X152864081Y-92263406D01*
X152927688Y-92382407D01*
X153013289Y-92486711D01*
X153117593Y-92572312D01*
X153236594Y-92635919D01*
X153365717Y-92675088D01*
X153466353Y-92685000D01*
X153500000Y-92688314D01*
X153533647Y-92685000D01*
X167466353Y-92685000D01*
X167500000Y-92688314D01*
X167533647Y-92685000D01*
X167634283Y-92675088D01*
X167763406Y-92635919D01*
X167882407Y-92572312D01*
X167986711Y-92486711D01*
X168072312Y-92382407D01*
X168135919Y-92263406D01*
X168175088Y-92134283D01*
X168188314Y-92000000D01*
X168185000Y-91966353D01*
X168185000Y-78033647D01*
X168188314Y-78000000D01*
X168175088Y-77865717D01*
X168135919Y-77736594D01*
X168072312Y-77617593D01*
X167986711Y-77513289D01*
X167882407Y-77427688D01*
X167763406Y-77364081D01*
X167634283Y-77324912D01*
X167533647Y-77315000D01*
X167500000Y-77311686D01*
X167466353Y-77315000D01*
X153533647Y-77315000D01*
X153500000Y-77311686D01*
X153466353Y-77315000D01*
X153365717Y-77324912D01*
X153236594Y-77364081D01*
X153117593Y-77427688D01*
X153013289Y-77513289D01*
X152927688Y-77617593D01*
X152864081Y-77736594D01*
X152824912Y-77865717D01*
X152811686Y-78000000D01*
X147188314Y-78000000D01*
X147175088Y-77865717D01*
X147135919Y-77736594D01*
X147072312Y-77617593D01*
X146986711Y-77513289D01*
X146882407Y-77427688D01*
X146763406Y-77364081D01*
X146634283Y-77324912D01*
X146533647Y-77315000D01*
X146500000Y-77311686D01*
X146466353Y-77315000D01*
X132533647Y-77315000D01*
X132500000Y-77311686D01*
X132466353Y-77315000D01*
X132365717Y-77324912D01*
X132236594Y-77364081D01*
X132117593Y-77427688D01*
X132013289Y-77513289D01*
X131927688Y-77617593D01*
X131864081Y-77736594D01*
X131824912Y-77865717D01*
X131811686Y-78000000D01*
X130188314Y-78000000D01*
X130175088Y-77865717D01*
X130135919Y-77736594D01*
X130072312Y-77617593D01*
X129986711Y-77513289D01*
X129882407Y-77427688D01*
X129763406Y-77364081D01*
X129634283Y-77324912D01*
X129533647Y-77315000D01*
X129500000Y-77311686D01*
X129466353Y-77315000D01*
X115533647Y-77315000D01*
X115500000Y-77311686D01*
X115466353Y-77315000D01*
X115365717Y-77324912D01*
X115236594Y-77364081D01*
X115117593Y-77427688D01*
X115013289Y-77513289D01*
X114927688Y-77617593D01*
X114864081Y-77736594D01*
X114824912Y-77865717D01*
X114811686Y-78000000D01*
X113188314Y-78000000D01*
X113175088Y-77865717D01*
X113135919Y-77736594D01*
X113072312Y-77617593D01*
X112986711Y-77513289D01*
X112882407Y-77427688D01*
X112763406Y-77364081D01*
X112634283Y-77324912D01*
X112533647Y-77315000D01*
X112500000Y-77311686D01*
X112466353Y-77315000D01*
X98533647Y-77315000D01*
X98500000Y-77311686D01*
X98466353Y-77315000D01*
X98365717Y-77324912D01*
X98236594Y-77364081D01*
X98117593Y-77427688D01*
X98013289Y-77513289D01*
X97927688Y-77617593D01*
X97864081Y-77736594D01*
X97824912Y-77865717D01*
X97811686Y-78000000D01*
X96188314Y-78000000D01*
X96175088Y-77865717D01*
X96135919Y-77736594D01*
X96072312Y-77617593D01*
X95986711Y-77513289D01*
X95882407Y-77427688D01*
X95763406Y-77364081D01*
X95634283Y-77324912D01*
X95533647Y-77315000D01*
X95500000Y-77311686D01*
X95466353Y-77315000D01*
X81533647Y-77315000D01*
X81500000Y-77311686D01*
X81466353Y-77315000D01*
X81365717Y-77324912D01*
X81236594Y-77364081D01*
X81117593Y-77427688D01*
X81013289Y-77513289D01*
X80927688Y-77617593D01*
X80864081Y-77736594D01*
X80824912Y-77865717D01*
X80811686Y-78000000D01*
X79185000Y-78000000D01*
X79185000Y-69033647D01*
X79188314Y-69000000D01*
X79175088Y-68865717D01*
X79135919Y-68736594D01*
X79072312Y-68617593D01*
X78986711Y-68513289D01*
X78882407Y-68427688D01*
X78763406Y-68364081D01*
X78634283Y-68324912D01*
X78533647Y-68315000D01*
X78500000Y-68311686D01*
X78466353Y-68315000D01*
X64533647Y-68315000D01*
X64500000Y-68311686D01*
X64466353Y-68315000D01*
X64365717Y-68324912D01*
X64236594Y-68364081D01*
X64117593Y-68427688D01*
X64013289Y-68513289D01*
X63927688Y-68617593D01*
X63864081Y-68736594D01*
X63824912Y-68865717D01*
X63811686Y-69000000D01*
X63685000Y-69000000D01*
X63685000Y-63829117D01*
X67265000Y-63829117D01*
X67265000Y-64170883D01*
X67331675Y-64506081D01*
X67462463Y-64821831D01*
X67652337Y-65105998D01*
X67894002Y-65347663D01*
X68178169Y-65537537D01*
X68493919Y-65668325D01*
X68829117Y-65735000D01*
X69170883Y-65735000D01*
X69506081Y-65668325D01*
X69821831Y-65537537D01*
X70105998Y-65347663D01*
X70347663Y-65105998D01*
X70537537Y-64821831D01*
X70668325Y-64506081D01*
X70735000Y-64170883D01*
X70735000Y-63829117D01*
X70668325Y-63493919D01*
X70537537Y-63178169D01*
X70347663Y-62894002D01*
X70105998Y-62652337D01*
X69821831Y-62462463D01*
X69506081Y-62331675D01*
X69170883Y-62265000D01*
X68829117Y-62265000D01*
X68493919Y-62331675D01*
X68178169Y-62462463D01*
X67894002Y-62652337D01*
X67652337Y-62894002D01*
X67462463Y-63178169D01*
X67331675Y-63493919D01*
X67265000Y-63829117D01*
X63685000Y-63829117D01*
X63685000Y-60000000D01*
X80811686Y-60000000D01*
X80815000Y-60033647D01*
X80815001Y-73966343D01*
X80811686Y-74000000D01*
X80824912Y-74134283D01*
X80864081Y-74263406D01*
X80927688Y-74382407D01*
X81013289Y-74486711D01*
X81117593Y-74572312D01*
X81236594Y-74635919D01*
X81365717Y-74675088D01*
X81466353Y-74685000D01*
X81500000Y-74688314D01*
X81533647Y-74685000D01*
X95466353Y-74685000D01*
X95500000Y-74688314D01*
X95533647Y-74685000D01*
X95634283Y-74675088D01*
X95763406Y-74635919D01*
X95882407Y-74572312D01*
X95986711Y-74486711D01*
X96072312Y-74382407D01*
X96135919Y-74263406D01*
X96175088Y-74134283D01*
X96188314Y-74000000D01*
X96185000Y-73966353D01*
X96185000Y-60033647D01*
X96188314Y-60000000D01*
X97811686Y-60000000D01*
X97815000Y-60033647D01*
X97815001Y-73941343D01*
X97811686Y-73975000D01*
X97824912Y-74109283D01*
X97864081Y-74238406D01*
X97927688Y-74357407D01*
X98013289Y-74461711D01*
X98117593Y-74547312D01*
X98236594Y-74610919D01*
X98365717Y-74650088D01*
X98466353Y-74660000D01*
X98500000Y-74663314D01*
X98533647Y-74660000D01*
X112466353Y-74660000D01*
X112500000Y-74663314D01*
X112533647Y-74660000D01*
X112634283Y-74650088D01*
X112763406Y-74610919D01*
X112882407Y-74547312D01*
X112986711Y-74461711D01*
X113072312Y-74357407D01*
X113135919Y-74238406D01*
X113175088Y-74109283D01*
X113188314Y-73975000D01*
X113185000Y-73941353D01*
X113185000Y-60033647D01*
X113188314Y-60000000D01*
X114811686Y-60000000D01*
X114815000Y-60033647D01*
X114815001Y-73966343D01*
X114811686Y-74000000D01*
X114824912Y-74134283D01*
X114864081Y-74263406D01*
X114927688Y-74382407D01*
X115013289Y-74486711D01*
X115117593Y-74572312D01*
X115236594Y-74635919D01*
X115365717Y-74675088D01*
X115466353Y-74685000D01*
X115500000Y-74688314D01*
X115533647Y-74685000D01*
X129466353Y-74685000D01*
X129500000Y-74688314D01*
X129533647Y-74685000D01*
X129634283Y-74675088D01*
X129763406Y-74635919D01*
X129882407Y-74572312D01*
X129986711Y-74486711D01*
X130072312Y-74382407D01*
X130135919Y-74263406D01*
X130175088Y-74134283D01*
X130188314Y-74000000D01*
X130185000Y-73966353D01*
X130185000Y-60033647D01*
X130188314Y-60000000D01*
X131811686Y-60000000D01*
X131815000Y-60033647D01*
X131815001Y-73966343D01*
X131811686Y-74000000D01*
X131824912Y-74134283D01*
X131864081Y-74263406D01*
X131927688Y-74382407D01*
X132013289Y-74486711D01*
X132117593Y-74572312D01*
X132236594Y-74635919D01*
X132365717Y-74675088D01*
X132466353Y-74685000D01*
X132500000Y-74688314D01*
X132533647Y-74685000D01*
X146466353Y-74685000D01*
X146500000Y-74688314D01*
X146533647Y-74685000D01*
X146634283Y-74675088D01*
X146763406Y-74635919D01*
X146882407Y-74572312D01*
X146986711Y-74486711D01*
X147072312Y-74382407D01*
X147135919Y-74263406D01*
X147175088Y-74134283D01*
X147188314Y-74000000D01*
X147185000Y-73966353D01*
X147185000Y-63829117D01*
X148265000Y-63829117D01*
X148265000Y-64170883D01*
X148331675Y-64506081D01*
X148462463Y-64821831D01*
X148652337Y-65105998D01*
X148894002Y-65347663D01*
X149178169Y-65537537D01*
X149493919Y-65668325D01*
X149829117Y-65735000D01*
X150170883Y-65735000D01*
X150506081Y-65668325D01*
X150821831Y-65537537D01*
X151105998Y-65347663D01*
X151347663Y-65105998D01*
X151537537Y-64821831D01*
X151668325Y-64506081D01*
X151735000Y-64170883D01*
X151735000Y-63829117D01*
X151668325Y-63493919D01*
X151537537Y-63178169D01*
X151347663Y-62894002D01*
X151105998Y-62652337D01*
X150821831Y-62462463D01*
X150506081Y-62331675D01*
X150170883Y-62265000D01*
X149829117Y-62265000D01*
X149493919Y-62331675D01*
X149178169Y-62462463D01*
X148894002Y-62652337D01*
X148652337Y-62894002D01*
X148462463Y-63178169D01*
X148331675Y-63493919D01*
X148265000Y-63829117D01*
X147185000Y-63829117D01*
X147185000Y-60033647D01*
X147188314Y-60000000D01*
X152811686Y-60000000D01*
X152815000Y-60033647D01*
X152815001Y-73966343D01*
X152811686Y-74000000D01*
X152824912Y-74134283D01*
X152864081Y-74263406D01*
X152927688Y-74382407D01*
X153013289Y-74486711D01*
X153117593Y-74572312D01*
X153236594Y-74635919D01*
X153365717Y-74675088D01*
X153466353Y-74685000D01*
X153500000Y-74688314D01*
X153533647Y-74685000D01*
X167466353Y-74685000D01*
X167500000Y-74688314D01*
X167533647Y-74685000D01*
X167634283Y-74675088D01*
X167763406Y-74635919D01*
X167882407Y-74572312D01*
X167986711Y-74486711D01*
X168072312Y-74382407D01*
X168135919Y-74263406D01*
X168175088Y-74134283D01*
X168188314Y-74000000D01*
X168185000Y-73966353D01*
X168185000Y-60033647D01*
X168188314Y-60000000D01*
X168175088Y-59865717D01*
X168135919Y-59736594D01*
X168072312Y-59617593D01*
X167986711Y-59513289D01*
X167882407Y-59427688D01*
X167763406Y-59364081D01*
X167634283Y-59324912D01*
X167533647Y-59315000D01*
X167500000Y-59311686D01*
X167466353Y-59315000D01*
X153533647Y-59315000D01*
X153500000Y-59311686D01*
X153466353Y-59315000D01*
X153365717Y-59324912D01*
X153236594Y-59364081D01*
X153117593Y-59427688D01*
X153013289Y-59513289D01*
X152927688Y-59617593D01*
X152864081Y-59736594D01*
X152824912Y-59865717D01*
X152811686Y-60000000D01*
X147188314Y-60000000D01*
X147175088Y-59865717D01*
X147135919Y-59736594D01*
X147072312Y-59617593D01*
X146986711Y-59513289D01*
X146882407Y-59427688D01*
X146763406Y-59364081D01*
X146634283Y-59324912D01*
X146533647Y-59315000D01*
X146500000Y-59311686D01*
X146466353Y-59315000D01*
X132533647Y-59315000D01*
X132500000Y-59311686D01*
X132466353Y-59315000D01*
X132365717Y-59324912D01*
X132236594Y-59364081D01*
X132117593Y-59427688D01*
X132013289Y-59513289D01*
X131927688Y-59617593D01*
X131864081Y-59736594D01*
X131824912Y-59865717D01*
X131811686Y-60000000D01*
X130188314Y-60000000D01*
X130175088Y-59865717D01*
X130135919Y-59736594D01*
X130072312Y-59617593D01*
X129986711Y-59513289D01*
X129882407Y-59427688D01*
X129763406Y-59364081D01*
X129634283Y-59324912D01*
X129533647Y-59315000D01*
X129500000Y-59311686D01*
X129466353Y-59315000D01*
X115533647Y-59315000D01*
X115500000Y-59311686D01*
X115466353Y-59315000D01*
X115365717Y-59324912D01*
X115236594Y-59364081D01*
X115117593Y-59427688D01*
X115013289Y-59513289D01*
X114927688Y-59617593D01*
X114864081Y-59736594D01*
X114824912Y-59865717D01*
X114811686Y-60000000D01*
X113188314Y-60000000D01*
X113175088Y-59865717D01*
X113135919Y-59736594D01*
X113072312Y-59617593D01*
X112986711Y-59513289D01*
X112882407Y-59427688D01*
X112763406Y-59364081D01*
X112634283Y-59324912D01*
X112533647Y-59315000D01*
X112500000Y-59311686D01*
X112466353Y-59315000D01*
X98533647Y-59315000D01*
X98500000Y-59311686D01*
X98466353Y-59315000D01*
X98365717Y-59324912D01*
X98236594Y-59364081D01*
X98117593Y-59427688D01*
X98013289Y-59513289D01*
X97927688Y-59617593D01*
X97864081Y-59736594D01*
X97824912Y-59865717D01*
X97811686Y-60000000D01*
X96188314Y-60000000D01*
X96175088Y-59865717D01*
X96135919Y-59736594D01*
X96072312Y-59617593D01*
X95986711Y-59513289D01*
X95882407Y-59427688D01*
X95763406Y-59364081D01*
X95634283Y-59324912D01*
X95533647Y-59315000D01*
X95500000Y-59311686D01*
X95466353Y-59315000D01*
X81533647Y-59315000D01*
X81500000Y-59311686D01*
X81466353Y-59315000D01*
X81365717Y-59324912D01*
X81236594Y-59364081D01*
X81117593Y-59427688D01*
X81013289Y-59513289D01*
X80927688Y-59617593D01*
X80864081Y-59736594D01*
X80824912Y-59865717D01*
X80811686Y-60000000D01*
X63685000Y-60000000D01*
X63685000Y-58783736D01*
X63783736Y-58685000D01*
X169216264Y-58685000D01*
X169315000Y-58783736D01*
G37*
X169315000Y-58783736D02*
X169315001Y-129216263D01*
X169216264Y-129315000D01*
X63783736Y-129315000D01*
X63685000Y-129216264D01*
X63685000Y-123829117D01*
X67265000Y-123829117D01*
X67265000Y-124170883D01*
X67331675Y-124506081D01*
X67462463Y-124821831D01*
X67652337Y-125105998D01*
X67894002Y-125347663D01*
X68178169Y-125537537D01*
X68493919Y-125668325D01*
X68829117Y-125735000D01*
X69170883Y-125735000D01*
X69506081Y-125668325D01*
X69821831Y-125537537D01*
X70105998Y-125347663D01*
X70347663Y-125105998D01*
X70537537Y-124821831D01*
X70668325Y-124506081D01*
X70735000Y-124170883D01*
X70735000Y-123829117D01*
X70668325Y-123493919D01*
X70537537Y-123178169D01*
X70347663Y-122894002D01*
X70105998Y-122652337D01*
X69821831Y-122462463D01*
X69506081Y-122331675D01*
X69170883Y-122265000D01*
X68829117Y-122265000D01*
X68493919Y-122331675D01*
X68178169Y-122462463D01*
X67894002Y-122652337D01*
X67652337Y-122894002D01*
X67462463Y-123178169D01*
X67331675Y-123493919D01*
X67265000Y-123829117D01*
X63685000Y-123829117D01*
X63685000Y-114000000D01*
X72311686Y-114000000D01*
X72315001Y-114033657D01*
X72315000Y-127966353D01*
X72311686Y-128000000D01*
X72324912Y-128134283D01*
X72364081Y-128263406D01*
X72427688Y-128382407D01*
X72513289Y-128486711D01*
X72617593Y-128572312D01*
X72736594Y-128635919D01*
X72865717Y-128675088D01*
X73000000Y-128688314D01*
X73033647Y-128685000D01*
X86966353Y-128685000D01*
X87000000Y-128688314D01*
X87134283Y-128675088D01*
X87263406Y-128635919D01*
X87382407Y-128572312D01*
X87486711Y-128486711D01*
X87572312Y-128382407D01*
X87635919Y-128263406D01*
X87675088Y-128134283D01*
X87685000Y-128033647D01*
X87685000Y-128033646D01*
X87688314Y-128000000D01*
X87685000Y-127966353D01*
X87685000Y-114033647D01*
X87688314Y-114000000D01*
X106311686Y-114000000D01*
X106315000Y-114033647D01*
X106315001Y-127966343D01*
X106311686Y-128000000D01*
X106324912Y-128134283D01*
X106364081Y-128263406D01*
X106427688Y-128382407D01*
X106513289Y-128486711D01*
X106617593Y-128572312D01*
X106736594Y-128635919D01*
X106865717Y-128675088D01*
X106966353Y-128685000D01*
X107000000Y-128688314D01*
X107033647Y-128685000D01*
X120966353Y-128685000D01*
X121000000Y-128688314D01*
X121033647Y-128685000D01*
X121134283Y-128675088D01*
X121263406Y-128635919D01*
X121382407Y-128572312D01*
X121486711Y-128486711D01*
X121572312Y-128382407D01*
X121635919Y-128263406D01*
X121675088Y-128134283D01*
X121688314Y-128000000D01*
X121685000Y-127966353D01*
X121685000Y-114033647D01*
X121688314Y-114000000D01*
X131811686Y-114000000D01*
X131815000Y-114033647D01*
X131815001Y-127966343D01*
X131811686Y-128000000D01*
X131824912Y-128134283D01*
X131864081Y-128263406D01*
X131927688Y-128382407D01*
X132013289Y-128486711D01*
X132117593Y-128572312D01*
X132236594Y-128635919D01*
X132365717Y-128675088D01*
X132466353Y-128685000D01*
X132500000Y-128688314D01*
X132533647Y-128685000D01*
X146466353Y-128685000D01*
X146500000Y-128688314D01*
X146533647Y-128685000D01*
X146634283Y-128675088D01*
X146763406Y-128635919D01*
X146882407Y-128572312D01*
X146986711Y-128486711D01*
X147072312Y-128382407D01*
X147135919Y-128263406D01*
X147175088Y-128134283D01*
X147188314Y-128000000D01*
X147185000Y-127966353D01*
X147185000Y-123829117D01*
X148265000Y-123829117D01*
X148265000Y-124170883D01*
X148331675Y-124506081D01*
X148462463Y-124821831D01*
X148652337Y-125105998D01*
X148894002Y-125347663D01*
X149178169Y-125537537D01*
X149493919Y-125668325D01*
X149829117Y-125735000D01*
X150170883Y-125735000D01*
X150506081Y-125668325D01*
X150821831Y-125537537D01*
X151105998Y-125347663D01*
X151347663Y-125105998D01*
X151537537Y-124821831D01*
X151668325Y-124506081D01*
X151735000Y-124170883D01*
X151735000Y-123829117D01*
X151668325Y-123493919D01*
X151537537Y-123178169D01*
X151347663Y-122894002D01*
X151105998Y-122652337D01*
X150821831Y-122462463D01*
X150506081Y-122331675D01*
X150170883Y-122265000D01*
X149829117Y-122265000D01*
X149493919Y-122331675D01*
X149178169Y-122462463D01*
X148894002Y-122652337D01*
X148652337Y-122894002D01*
X148462463Y-123178169D01*
X148331675Y-123493919D01*
X148265000Y-123829117D01*
X147185000Y-123829117D01*
X147185000Y-114033647D01*
X147188314Y-114000000D01*
X152811686Y-114000000D01*
X152815000Y-114033647D01*
X152815001Y-127966343D01*
X152811686Y-128000000D01*
X152824912Y-128134283D01*
X152864081Y-128263406D01*
X152927688Y-128382407D01*
X153013289Y-128486711D01*
X153117593Y-128572312D01*
X153236594Y-128635919D01*
X153365717Y-128675088D01*
X153466353Y-128685000D01*
X153500000Y-128688314D01*
X153533647Y-128685000D01*
X167466353Y-128685000D01*
X167500000Y-128688314D01*
X167533647Y-128685000D01*
X167634283Y-128675088D01*
X167763406Y-128635919D01*
X167882407Y-128572312D01*
X167986711Y-128486711D01*
X168072312Y-128382407D01*
X168135919Y-128263406D01*
X168175088Y-128134283D01*
X168188314Y-128000000D01*
X168185000Y-127966353D01*
X168185000Y-114033647D01*
X168188314Y-114000000D01*
X168175088Y-113865717D01*
X168135919Y-113736594D01*
X168072312Y-113617593D01*
X167986711Y-113513289D01*
X167882407Y-113427688D01*
X167763406Y-113364081D01*
X167634283Y-113324912D01*
X167533647Y-113315000D01*
X167500000Y-113311686D01*
X167466353Y-113315000D01*
X153533647Y-113315000D01*
X153500000Y-113311686D01*
X153466353Y-113315000D01*
X153365717Y-113324912D01*
X153236594Y-113364081D01*
X153117593Y-113427688D01*
X153013289Y-113513289D01*
X152927688Y-113617593D01*
X152864081Y-113736594D01*
X152824912Y-113865717D01*
X152811686Y-114000000D01*
X147188314Y-114000000D01*
X147175088Y-113865717D01*
X147135919Y-113736594D01*
X147072312Y-113617593D01*
X146986711Y-113513289D01*
X146882407Y-113427688D01*
X146763406Y-113364081D01*
X146634283Y-113324912D01*
X146533647Y-113315000D01*
X146500000Y-113311686D01*
X146466353Y-113315000D01*
X132533647Y-113315000D01*
X132500000Y-113311686D01*
X132466353Y-113315000D01*
X132365717Y-113324912D01*
X132236594Y-113364081D01*
X132117593Y-113427688D01*
X132013289Y-113513289D01*
X131927688Y-113617593D01*
X131864081Y-113736594D01*
X131824912Y-113865717D01*
X131811686Y-114000000D01*
X121688314Y-114000000D01*
X121675088Y-113865717D01*
X121635919Y-113736594D01*
X121572312Y-113617593D01*
X121486711Y-113513289D01*
X121382407Y-113427688D01*
X121263406Y-113364081D01*
X121134283Y-113324912D01*
X121033647Y-113315000D01*
X121000000Y-113311686D01*
X120966353Y-113315000D01*
X107033647Y-113315000D01*
X107000000Y-113311686D01*
X106966353Y-113315000D01*
X106865717Y-113324912D01*
X106736594Y-113364081D01*
X106617593Y-113427688D01*
X106513289Y-113513289D01*
X106427688Y-113617593D01*
X106364081Y-113736594D01*
X106324912Y-113865717D01*
X106311686Y-114000000D01*
X87688314Y-114000000D01*
X87675088Y-113865717D01*
X87635919Y-113736594D01*
X87572312Y-113617593D01*
X87486711Y-113513289D01*
X87382407Y-113427688D01*
X87263406Y-113364081D01*
X87134283Y-113324912D01*
X87033647Y-113315000D01*
X87000000Y-113311686D01*
X86966353Y-113315000D01*
X73033647Y-113315000D01*
X73000000Y-113311686D01*
X72966353Y-113315000D01*
X72865717Y-113324912D01*
X72736594Y-113364081D01*
X72617593Y-113427688D01*
X72513289Y-113513289D01*
X72427688Y-113617593D01*
X72364081Y-113736594D01*
X72324912Y-113865717D01*
X72311686Y-114000000D01*
X63685000Y-114000000D01*
X63685000Y-96000000D01*
X63811686Y-96000000D01*
X63815000Y-96033647D01*
X63815001Y-109966343D01*
X63811686Y-110000000D01*
X63824912Y-110134283D01*
X63864081Y-110263406D01*
X63927688Y-110382407D01*
X64013289Y-110486711D01*
X64117593Y-110572312D01*
X64236594Y-110635919D01*
X64365717Y-110675088D01*
X64466353Y-110685000D01*
X64500000Y-110688314D01*
X64533647Y-110685000D01*
X78466353Y-110685000D01*
X78500000Y-110688314D01*
X78533647Y-110685000D01*
X78634283Y-110675088D01*
X78763406Y-110635919D01*
X78882407Y-110572312D01*
X78986711Y-110486711D01*
X79072312Y-110382407D01*
X79135919Y-110263406D01*
X79175088Y-110134283D01*
X79188314Y-110000000D01*
X79185000Y-109966353D01*
X79185000Y-96033647D01*
X79188314Y-96000000D01*
X80811686Y-96000000D01*
X80815000Y-96033647D01*
X80815001Y-109966343D01*
X80811686Y-110000000D01*
X80824912Y-110134283D01*
X80864081Y-110263406D01*
X80927688Y-110382407D01*
X81013289Y-110486711D01*
X81117593Y-110572312D01*
X81236594Y-110635919D01*
X81365717Y-110675088D01*
X81466353Y-110685000D01*
X81500000Y-110688314D01*
X81533647Y-110685000D01*
X95466353Y-110685000D01*
X95500000Y-110688314D01*
X95533647Y-110685000D01*
X95634283Y-110675088D01*
X95763406Y-110635919D01*
X95882407Y-110572312D01*
X95986711Y-110486711D01*
X96072312Y-110382407D01*
X96135919Y-110263406D01*
X96175088Y-110134283D01*
X96188314Y-110000000D01*
X96185000Y-109966353D01*
X96185000Y-96033647D01*
X96188314Y-96000000D01*
X97811686Y-96000000D01*
X97815000Y-96033647D01*
X97815001Y-109966343D01*
X97811686Y-110000000D01*
X97824912Y-110134283D01*
X97864081Y-110263406D01*
X97927688Y-110382407D01*
X98013289Y-110486711D01*
X98117593Y-110572312D01*
X98236594Y-110635919D01*
X98365717Y-110675088D01*
X98466353Y-110685000D01*
X98500000Y-110688314D01*
X98533647Y-110685000D01*
X112466353Y-110685000D01*
X112500000Y-110688314D01*
X112533647Y-110685000D01*
X112634283Y-110675088D01*
X112763406Y-110635919D01*
X112882407Y-110572312D01*
X112986711Y-110486711D01*
X113072312Y-110382407D01*
X113135919Y-110263406D01*
X113175088Y-110134283D01*
X113188314Y-110000000D01*
X113185000Y-109966353D01*
X113185000Y-96033647D01*
X113188314Y-96000000D01*
X114811686Y-96000000D01*
X114815000Y-96033647D01*
X114815001Y-109966343D01*
X114811686Y-110000000D01*
X114824912Y-110134283D01*
X114864081Y-110263406D01*
X114927688Y-110382407D01*
X115013289Y-110486711D01*
X115117593Y-110572312D01*
X115236594Y-110635919D01*
X115365717Y-110675088D01*
X115466353Y-110685000D01*
X115500000Y-110688314D01*
X115533647Y-110685000D01*
X129466353Y-110685000D01*
X129500000Y-110688314D01*
X129533647Y-110685000D01*
X129634283Y-110675088D01*
X129763406Y-110635919D01*
X129882407Y-110572312D01*
X129986711Y-110486711D01*
X130072312Y-110382407D01*
X130135919Y-110263406D01*
X130175088Y-110134283D01*
X130188314Y-110000000D01*
X130185000Y-109966353D01*
X130185000Y-96033647D01*
X130188314Y-96000000D01*
X131811686Y-96000000D01*
X131815000Y-96033647D01*
X131815001Y-109966343D01*
X131811686Y-110000000D01*
X131824912Y-110134283D01*
X131864081Y-110263406D01*
X131927688Y-110382407D01*
X132013289Y-110486711D01*
X132117593Y-110572312D01*
X132236594Y-110635919D01*
X132365717Y-110675088D01*
X132466353Y-110685000D01*
X132500000Y-110688314D01*
X132533647Y-110685000D01*
X146466353Y-110685000D01*
X146500000Y-110688314D01*
X146533647Y-110685000D01*
X146634283Y-110675088D01*
X146763406Y-110635919D01*
X146882407Y-110572312D01*
X146986711Y-110486711D01*
X147072312Y-110382407D01*
X147135919Y-110263406D01*
X147175088Y-110134283D01*
X147188314Y-110000000D01*
X147185000Y-109966353D01*
X147185000Y-96033647D01*
X147188314Y-96000000D01*
X152811686Y-96000000D01*
X152815000Y-96033647D01*
X152815001Y-109966343D01*
X152811686Y-110000000D01*
X152824912Y-110134283D01*
X152864081Y-110263406D01*
X152927688Y-110382407D01*
X153013289Y-110486711D01*
X153117593Y-110572312D01*
X153236594Y-110635919D01*
X153365717Y-110675088D01*
X153466353Y-110685000D01*
X153500000Y-110688314D01*
X153533647Y-110685000D01*
X167466353Y-110685000D01*
X167500000Y-110688314D01*
X167533647Y-110685000D01*
X167634283Y-110675088D01*
X167763406Y-110635919D01*
X167882407Y-110572312D01*
X167986711Y-110486711D01*
X168072312Y-110382407D01*
X168135919Y-110263406D01*
X168175088Y-110134283D01*
X168188314Y-110000000D01*
X168185000Y-109966353D01*
X168185000Y-96033647D01*
X168188314Y-96000000D01*
X168175088Y-95865717D01*
X168135919Y-95736594D01*
X168072312Y-95617593D01*
X167986711Y-95513289D01*
X167882407Y-95427688D01*
X167763406Y-95364081D01*
X167634283Y-95324912D01*
X167533647Y-95315000D01*
X167500000Y-95311686D01*
X167466353Y-95315000D01*
X153533647Y-95315000D01*
X153500000Y-95311686D01*
X153466353Y-95315000D01*
X153365717Y-95324912D01*
X153236594Y-95364081D01*
X153117593Y-95427688D01*
X153013289Y-95513289D01*
X152927688Y-95617593D01*
X152864081Y-95736594D01*
X152824912Y-95865717D01*
X152811686Y-96000000D01*
X147188314Y-96000000D01*
X147175088Y-95865717D01*
X147135919Y-95736594D01*
X147072312Y-95617593D01*
X146986711Y-95513289D01*
X146882407Y-95427688D01*
X146763406Y-95364081D01*
X146634283Y-95324912D01*
X146533647Y-95315000D01*
X146500000Y-95311686D01*
X146466353Y-95315000D01*
X132533647Y-95315000D01*
X132500000Y-95311686D01*
X132466353Y-95315000D01*
X132365717Y-95324912D01*
X132236594Y-95364081D01*
X132117593Y-95427688D01*
X132013289Y-95513289D01*
X131927688Y-95617593D01*
X131864081Y-95736594D01*
X131824912Y-95865717D01*
X131811686Y-96000000D01*
X130188314Y-96000000D01*
X130175088Y-95865717D01*
X130135919Y-95736594D01*
X130072312Y-95617593D01*
X129986711Y-95513289D01*
X129882407Y-95427688D01*
X129763406Y-95364081D01*
X129634283Y-95324912D01*
X129533647Y-95315000D01*
X129500000Y-95311686D01*
X129466353Y-95315000D01*
X115533647Y-95315000D01*
X115500000Y-95311686D01*
X115466353Y-95315000D01*
X115365717Y-95324912D01*
X115236594Y-95364081D01*
X115117593Y-95427688D01*
X115013289Y-95513289D01*
X114927688Y-95617593D01*
X114864081Y-95736594D01*
X114824912Y-95865717D01*
X114811686Y-96000000D01*
X113188314Y-96000000D01*
X113175088Y-95865717D01*
X113135919Y-95736594D01*
X113072312Y-95617593D01*
X112986711Y-95513289D01*
X112882407Y-95427688D01*
X112763406Y-95364081D01*
X112634283Y-95324912D01*
X112533647Y-95315000D01*
X112500000Y-95311686D01*
X112466353Y-95315000D01*
X98533647Y-95315000D01*
X98500000Y-95311686D01*
X98466353Y-95315000D01*
X98365717Y-95324912D01*
X98236594Y-95364081D01*
X98117593Y-95427688D01*
X98013289Y-95513289D01*
X97927688Y-95617593D01*
X97864081Y-95736594D01*
X97824912Y-95865717D01*
X97811686Y-96000000D01*
X96188314Y-96000000D01*
X96175088Y-95865717D01*
X96135919Y-95736594D01*
X96072312Y-95617593D01*
X95986711Y-95513289D01*
X95882407Y-95427688D01*
X95763406Y-95364081D01*
X95634283Y-95324912D01*
X95533647Y-95315000D01*
X95500000Y-95311686D01*
X95466353Y-95315000D01*
X81533647Y-95315000D01*
X81500000Y-95311686D01*
X81466353Y-95315000D01*
X81365717Y-95324912D01*
X81236594Y-95364081D01*
X81117593Y-95427688D01*
X81013289Y-95513289D01*
X80927688Y-95617593D01*
X80864081Y-95736594D01*
X80824912Y-95865717D01*
X80811686Y-96000000D01*
X79188314Y-96000000D01*
X79175088Y-95865717D01*
X79135919Y-95736594D01*
X79072312Y-95617593D01*
X78986711Y-95513289D01*
X78882407Y-95427688D01*
X78763406Y-95364081D01*
X78634283Y-95324912D01*
X78533647Y-95315000D01*
X78500000Y-95311686D01*
X78466353Y-95315000D01*
X64533647Y-95315000D01*
X64500000Y-95311686D01*
X64466353Y-95315000D01*
X64365717Y-95324912D01*
X64236594Y-95364081D01*
X64117593Y-95427688D01*
X64013289Y-95513289D01*
X63927688Y-95617593D01*
X63864081Y-95736594D01*
X63824912Y-95865717D01*
X63811686Y-96000000D01*
X63685000Y-96000000D01*
X63685000Y-69000000D01*
X63811686Y-69000000D01*
X63815001Y-69033657D01*
X63815000Y-82966353D01*
X63811686Y-83000000D01*
X63824912Y-83134283D01*
X63864081Y-83263406D01*
X63927688Y-83382407D01*
X64013289Y-83486711D01*
X64117593Y-83572312D01*
X64236594Y-83635919D01*
X64365717Y-83675088D01*
X64500000Y-83688314D01*
X64533647Y-83685000D01*
X78466353Y-83685000D01*
X78500000Y-83688314D01*
X78634283Y-83675088D01*
X78763406Y-83635919D01*
X78882407Y-83572312D01*
X78986711Y-83486711D01*
X79072312Y-83382407D01*
X79135919Y-83263406D01*
X79175088Y-83134283D01*
X79185000Y-83033647D01*
X79185000Y-83033646D01*
X79188314Y-83000000D01*
X79185000Y-82966353D01*
X79185000Y-78000000D01*
X80811686Y-78000000D01*
X80815000Y-78033647D01*
X80815001Y-91941343D01*
X80811686Y-91975000D01*
X80824912Y-92109283D01*
X80864081Y-92238406D01*
X80927688Y-92357407D01*
X81013289Y-92461711D01*
X81117593Y-92547312D01*
X81236594Y-92610919D01*
X81365717Y-92650088D01*
X81466353Y-92660000D01*
X81500000Y-92663314D01*
X81533647Y-92660000D01*
X95466353Y-92660000D01*
X95500000Y-92663314D01*
X95533647Y-92660000D01*
X95634283Y-92650088D01*
X95763406Y-92610919D01*
X95882407Y-92547312D01*
X95986711Y-92461711D01*
X96072312Y-92357407D01*
X96135919Y-92238406D01*
X96175088Y-92109283D01*
X96188314Y-91975000D01*
X96185000Y-91941353D01*
X96185000Y-78033647D01*
X96188314Y-78000000D01*
X97811686Y-78000000D01*
X97815000Y-78033647D01*
X97815001Y-91966343D01*
X97811686Y-92000000D01*
X97824912Y-92134283D01*
X97864081Y-92263406D01*
X97927688Y-92382407D01*
X98013289Y-92486711D01*
X98117593Y-92572312D01*
X98236594Y-92635919D01*
X98365717Y-92675088D01*
X98466353Y-92685000D01*
X98500000Y-92688314D01*
X98533647Y-92685000D01*
X112466353Y-92685000D01*
X112500000Y-92688314D01*
X112533647Y-92685000D01*
X112634283Y-92675088D01*
X112763406Y-92635919D01*
X112882407Y-92572312D01*
X112986711Y-92486711D01*
X113072312Y-92382407D01*
X113135919Y-92263406D01*
X113175088Y-92134283D01*
X113188314Y-92000000D01*
X113185000Y-91966353D01*
X113185000Y-78033647D01*
X113188314Y-78000000D01*
X114811686Y-78000000D01*
X114815000Y-78033647D01*
X114815001Y-91966343D01*
X114811686Y-92000000D01*
X114824912Y-92134283D01*
X114864081Y-92263406D01*
X114927688Y-92382407D01*
X115013289Y-92486711D01*
X115117593Y-92572312D01*
X115236594Y-92635919D01*
X115365717Y-92675088D01*
X115466353Y-92685000D01*
X115500000Y-92688314D01*
X115533647Y-92685000D01*
X129466353Y-92685000D01*
X129500000Y-92688314D01*
X129533647Y-92685000D01*
X129634283Y-92675088D01*
X129763406Y-92635919D01*
X129882407Y-92572312D01*
X129986711Y-92486711D01*
X130072312Y-92382407D01*
X130135919Y-92263406D01*
X130175088Y-92134283D01*
X130188314Y-92000000D01*
X130185000Y-91966353D01*
X130185000Y-78033647D01*
X130188314Y-78000000D01*
X131811686Y-78000000D01*
X131815000Y-78033647D01*
X131815001Y-91966343D01*
X131811686Y-92000000D01*
X131824912Y-92134283D01*
X131864081Y-92263406D01*
X131927688Y-92382407D01*
X132013289Y-92486711D01*
X132117593Y-92572312D01*
X132236594Y-92635919D01*
X132365717Y-92675088D01*
X132466353Y-92685000D01*
X132500000Y-92688314D01*
X132533647Y-92685000D01*
X146466353Y-92685000D01*
X146500000Y-92688314D01*
X146533647Y-92685000D01*
X146634283Y-92675088D01*
X146763406Y-92635919D01*
X146882407Y-92572312D01*
X146986711Y-92486711D01*
X147072312Y-92382407D01*
X147135919Y-92263406D01*
X147175088Y-92134283D01*
X147188314Y-92000000D01*
X147185000Y-91966353D01*
X147185000Y-78033647D01*
X147188314Y-78000000D01*
X152811686Y-78000000D01*
X152815000Y-78033647D01*
X152815001Y-91966343D01*
X152811686Y-92000000D01*
X152824912Y-92134283D01*
X152864081Y-92263406D01*
X152927688Y-92382407D01*
X153013289Y-92486711D01*
X153117593Y-92572312D01*
X153236594Y-92635919D01*
X153365717Y-92675088D01*
X153466353Y-92685000D01*
X153500000Y-92688314D01*
X153533647Y-92685000D01*
X167466353Y-92685000D01*
X167500000Y-92688314D01*
X167533647Y-92685000D01*
X167634283Y-92675088D01*
X167763406Y-92635919D01*
X167882407Y-92572312D01*
X167986711Y-92486711D01*
X168072312Y-92382407D01*
X168135919Y-92263406D01*
X168175088Y-92134283D01*
X168188314Y-92000000D01*
X168185000Y-91966353D01*
X168185000Y-78033647D01*
X168188314Y-78000000D01*
X168175088Y-77865717D01*
X168135919Y-77736594D01*
X168072312Y-77617593D01*
X167986711Y-77513289D01*
X167882407Y-77427688D01*
X167763406Y-77364081D01*
X167634283Y-77324912D01*
X167533647Y-77315000D01*
X167500000Y-77311686D01*
X167466353Y-77315000D01*
X153533647Y-77315000D01*
X153500000Y-77311686D01*
X153466353Y-77315000D01*
X153365717Y-77324912D01*
X153236594Y-77364081D01*
X153117593Y-77427688D01*
X153013289Y-77513289D01*
X152927688Y-77617593D01*
X152864081Y-77736594D01*
X152824912Y-77865717D01*
X152811686Y-78000000D01*
X147188314Y-78000000D01*
X147175088Y-77865717D01*
X147135919Y-77736594D01*
X147072312Y-77617593D01*
X146986711Y-77513289D01*
X146882407Y-77427688D01*
X146763406Y-77364081D01*
X146634283Y-77324912D01*
X146533647Y-77315000D01*
X146500000Y-77311686D01*
X146466353Y-77315000D01*
X132533647Y-77315000D01*
X132500000Y-77311686D01*
X132466353Y-77315000D01*
X132365717Y-77324912D01*
X132236594Y-77364081D01*
X132117593Y-77427688D01*
X132013289Y-77513289D01*
X131927688Y-77617593D01*
X131864081Y-77736594D01*
X131824912Y-77865717D01*
X131811686Y-78000000D01*
X130188314Y-78000000D01*
X130175088Y-77865717D01*
X130135919Y-77736594D01*
X130072312Y-77617593D01*
X129986711Y-77513289D01*
X129882407Y-77427688D01*
X129763406Y-77364081D01*
X129634283Y-77324912D01*
X129533647Y-77315000D01*
X129500000Y-77311686D01*
X129466353Y-77315000D01*
X115533647Y-77315000D01*
X115500000Y-77311686D01*
X115466353Y-77315000D01*
X115365717Y-77324912D01*
X115236594Y-77364081D01*
X115117593Y-77427688D01*
X115013289Y-77513289D01*
X114927688Y-77617593D01*
X114864081Y-77736594D01*
X114824912Y-77865717D01*
X114811686Y-78000000D01*
X113188314Y-78000000D01*
X113175088Y-77865717D01*
X113135919Y-77736594D01*
X113072312Y-77617593D01*
X112986711Y-77513289D01*
X112882407Y-77427688D01*
X112763406Y-77364081D01*
X112634283Y-77324912D01*
X112533647Y-77315000D01*
X112500000Y-77311686D01*
X112466353Y-77315000D01*
X98533647Y-77315000D01*
X98500000Y-77311686D01*
X98466353Y-77315000D01*
X98365717Y-77324912D01*
X98236594Y-77364081D01*
X98117593Y-77427688D01*
X98013289Y-77513289D01*
X97927688Y-77617593D01*
X97864081Y-77736594D01*
X97824912Y-77865717D01*
X97811686Y-78000000D01*
X96188314Y-78000000D01*
X96175088Y-77865717D01*
X96135919Y-77736594D01*
X96072312Y-77617593D01*
X95986711Y-77513289D01*
X95882407Y-77427688D01*
X95763406Y-77364081D01*
X95634283Y-77324912D01*
X95533647Y-77315000D01*
X95500000Y-77311686D01*
X95466353Y-77315000D01*
X81533647Y-77315000D01*
X81500000Y-77311686D01*
X81466353Y-77315000D01*
X81365717Y-77324912D01*
X81236594Y-77364081D01*
X81117593Y-77427688D01*
X81013289Y-77513289D01*
X80927688Y-77617593D01*
X80864081Y-77736594D01*
X80824912Y-77865717D01*
X80811686Y-78000000D01*
X79185000Y-78000000D01*
X79185000Y-69033647D01*
X79188314Y-69000000D01*
X79175088Y-68865717D01*
X79135919Y-68736594D01*
X79072312Y-68617593D01*
X78986711Y-68513289D01*
X78882407Y-68427688D01*
X78763406Y-68364081D01*
X78634283Y-68324912D01*
X78533647Y-68315000D01*
X78500000Y-68311686D01*
X78466353Y-68315000D01*
X64533647Y-68315000D01*
X64500000Y-68311686D01*
X64466353Y-68315000D01*
X64365717Y-68324912D01*
X64236594Y-68364081D01*
X64117593Y-68427688D01*
X64013289Y-68513289D01*
X63927688Y-68617593D01*
X63864081Y-68736594D01*
X63824912Y-68865717D01*
X63811686Y-69000000D01*
X63685000Y-69000000D01*
X63685000Y-63829117D01*
X67265000Y-63829117D01*
X67265000Y-64170883D01*
X67331675Y-64506081D01*
X67462463Y-64821831D01*
X67652337Y-65105998D01*
X67894002Y-65347663D01*
X68178169Y-65537537D01*
X68493919Y-65668325D01*
X68829117Y-65735000D01*
X69170883Y-65735000D01*
X69506081Y-65668325D01*
X69821831Y-65537537D01*
X70105998Y-65347663D01*
X70347663Y-65105998D01*
X70537537Y-64821831D01*
X70668325Y-64506081D01*
X70735000Y-64170883D01*
X70735000Y-63829117D01*
X70668325Y-63493919D01*
X70537537Y-63178169D01*
X70347663Y-62894002D01*
X70105998Y-62652337D01*
X69821831Y-62462463D01*
X69506081Y-62331675D01*
X69170883Y-62265000D01*
X68829117Y-62265000D01*
X68493919Y-62331675D01*
X68178169Y-62462463D01*
X67894002Y-62652337D01*
X67652337Y-62894002D01*
X67462463Y-63178169D01*
X67331675Y-63493919D01*
X67265000Y-63829117D01*
X63685000Y-63829117D01*
X63685000Y-60000000D01*
X80811686Y-60000000D01*
X80815000Y-60033647D01*
X80815001Y-73966343D01*
X80811686Y-74000000D01*
X80824912Y-74134283D01*
X80864081Y-74263406D01*
X80927688Y-74382407D01*
X81013289Y-74486711D01*
X81117593Y-74572312D01*
X81236594Y-74635919D01*
X81365717Y-74675088D01*
X81466353Y-74685000D01*
X81500000Y-74688314D01*
X81533647Y-74685000D01*
X95466353Y-74685000D01*
X95500000Y-74688314D01*
X95533647Y-74685000D01*
X95634283Y-74675088D01*
X95763406Y-74635919D01*
X95882407Y-74572312D01*
X95986711Y-74486711D01*
X96072312Y-74382407D01*
X96135919Y-74263406D01*
X96175088Y-74134283D01*
X96188314Y-74000000D01*
X96185000Y-73966353D01*
X96185000Y-60033647D01*
X96188314Y-60000000D01*
X97811686Y-60000000D01*
X97815000Y-60033647D01*
X97815001Y-73941343D01*
X97811686Y-73975000D01*
X97824912Y-74109283D01*
X97864081Y-74238406D01*
X97927688Y-74357407D01*
X98013289Y-74461711D01*
X98117593Y-74547312D01*
X98236594Y-74610919D01*
X98365717Y-74650088D01*
X98466353Y-74660000D01*
X98500000Y-74663314D01*
X98533647Y-74660000D01*
X112466353Y-74660000D01*
X112500000Y-74663314D01*
X112533647Y-74660000D01*
X112634283Y-74650088D01*
X112763406Y-74610919D01*
X112882407Y-74547312D01*
X112986711Y-74461711D01*
X113072312Y-74357407D01*
X113135919Y-74238406D01*
X113175088Y-74109283D01*
X113188314Y-73975000D01*
X113185000Y-73941353D01*
X113185000Y-60033647D01*
X113188314Y-60000000D01*
X114811686Y-60000000D01*
X114815000Y-60033647D01*
X114815001Y-73966343D01*
X114811686Y-74000000D01*
X114824912Y-74134283D01*
X114864081Y-74263406D01*
X114927688Y-74382407D01*
X115013289Y-74486711D01*
X115117593Y-74572312D01*
X115236594Y-74635919D01*
X115365717Y-74675088D01*
X115466353Y-74685000D01*
X115500000Y-74688314D01*
X115533647Y-74685000D01*
X129466353Y-74685000D01*
X129500000Y-74688314D01*
X129533647Y-74685000D01*
X129634283Y-74675088D01*
X129763406Y-74635919D01*
X129882407Y-74572312D01*
X129986711Y-74486711D01*
X130072312Y-74382407D01*
X130135919Y-74263406D01*
X130175088Y-74134283D01*
X130188314Y-74000000D01*
X130185000Y-73966353D01*
X130185000Y-60033647D01*
X130188314Y-60000000D01*
X131811686Y-60000000D01*
X131815000Y-60033647D01*
X131815001Y-73966343D01*
X131811686Y-74000000D01*
X131824912Y-74134283D01*
X131864081Y-74263406D01*
X131927688Y-74382407D01*
X132013289Y-74486711D01*
X132117593Y-74572312D01*
X132236594Y-74635919D01*
X132365717Y-74675088D01*
X132466353Y-74685000D01*
X132500000Y-74688314D01*
X132533647Y-74685000D01*
X146466353Y-74685000D01*
X146500000Y-74688314D01*
X146533647Y-74685000D01*
X146634283Y-74675088D01*
X146763406Y-74635919D01*
X146882407Y-74572312D01*
X146986711Y-74486711D01*
X147072312Y-74382407D01*
X147135919Y-74263406D01*
X147175088Y-74134283D01*
X147188314Y-74000000D01*
X147185000Y-73966353D01*
X147185000Y-63829117D01*
X148265000Y-63829117D01*
X148265000Y-64170883D01*
X148331675Y-64506081D01*
X148462463Y-64821831D01*
X148652337Y-65105998D01*
X148894002Y-65347663D01*
X149178169Y-65537537D01*
X149493919Y-65668325D01*
X149829117Y-65735000D01*
X150170883Y-65735000D01*
X150506081Y-65668325D01*
X150821831Y-65537537D01*
X151105998Y-65347663D01*
X151347663Y-65105998D01*
X151537537Y-64821831D01*
X151668325Y-64506081D01*
X151735000Y-64170883D01*
X151735000Y-63829117D01*
X151668325Y-63493919D01*
X151537537Y-63178169D01*
X151347663Y-62894002D01*
X151105998Y-62652337D01*
X150821831Y-62462463D01*
X150506081Y-62331675D01*
X150170883Y-62265000D01*
X149829117Y-62265000D01*
X149493919Y-62331675D01*
X149178169Y-62462463D01*
X148894002Y-62652337D01*
X148652337Y-62894002D01*
X148462463Y-63178169D01*
X148331675Y-63493919D01*
X148265000Y-63829117D01*
X147185000Y-63829117D01*
X147185000Y-60033647D01*
X147188314Y-60000000D01*
X152811686Y-60000000D01*
X152815000Y-60033647D01*
X152815001Y-73966343D01*
X152811686Y-74000000D01*
X152824912Y-74134283D01*
X152864081Y-74263406D01*
X152927688Y-74382407D01*
X153013289Y-74486711D01*
X153117593Y-74572312D01*
X153236594Y-74635919D01*
X153365717Y-74675088D01*
X153466353Y-74685000D01*
X153500000Y-74688314D01*
X153533647Y-74685000D01*
X167466353Y-74685000D01*
X167500000Y-74688314D01*
X167533647Y-74685000D01*
X167634283Y-74675088D01*
X167763406Y-74635919D01*
X167882407Y-74572312D01*
X167986711Y-74486711D01*
X168072312Y-74382407D01*
X168135919Y-74263406D01*
X168175088Y-74134283D01*
X168188314Y-74000000D01*
X168185000Y-73966353D01*
X168185000Y-60033647D01*
X168188314Y-60000000D01*
X168175088Y-59865717D01*
X168135919Y-59736594D01*
X168072312Y-59617593D01*
X167986711Y-59513289D01*
X167882407Y-59427688D01*
X167763406Y-59364081D01*
X167634283Y-59324912D01*
X167533647Y-59315000D01*
X167500000Y-59311686D01*
X167466353Y-59315000D01*
X153533647Y-59315000D01*
X153500000Y-59311686D01*
X153466353Y-59315000D01*
X153365717Y-59324912D01*
X153236594Y-59364081D01*
X153117593Y-59427688D01*
X153013289Y-59513289D01*
X152927688Y-59617593D01*
X152864081Y-59736594D01*
X152824912Y-59865717D01*
X152811686Y-60000000D01*
X147188314Y-60000000D01*
X147175088Y-59865717D01*
X147135919Y-59736594D01*
X147072312Y-59617593D01*
X146986711Y-59513289D01*
X146882407Y-59427688D01*
X146763406Y-59364081D01*
X146634283Y-59324912D01*
X146533647Y-59315000D01*
X146500000Y-59311686D01*
X146466353Y-59315000D01*
X132533647Y-59315000D01*
X132500000Y-59311686D01*
X132466353Y-59315000D01*
X132365717Y-59324912D01*
X132236594Y-59364081D01*
X132117593Y-59427688D01*
X132013289Y-59513289D01*
X131927688Y-59617593D01*
X131864081Y-59736594D01*
X131824912Y-59865717D01*
X131811686Y-60000000D01*
X130188314Y-60000000D01*
X130175088Y-59865717D01*
X130135919Y-59736594D01*
X130072312Y-59617593D01*
X129986711Y-59513289D01*
X129882407Y-59427688D01*
X129763406Y-59364081D01*
X129634283Y-59324912D01*
X129533647Y-59315000D01*
X129500000Y-59311686D01*
X129466353Y-59315000D01*
X115533647Y-59315000D01*
X115500000Y-59311686D01*
X115466353Y-59315000D01*
X115365717Y-59324912D01*
X115236594Y-59364081D01*
X115117593Y-59427688D01*
X115013289Y-59513289D01*
X114927688Y-59617593D01*
X114864081Y-59736594D01*
X114824912Y-59865717D01*
X114811686Y-60000000D01*
X113188314Y-60000000D01*
X113175088Y-59865717D01*
X113135919Y-59736594D01*
X113072312Y-59617593D01*
X112986711Y-59513289D01*
X112882407Y-59427688D01*
X112763406Y-59364081D01*
X112634283Y-59324912D01*
X112533647Y-59315000D01*
X112500000Y-59311686D01*
X112466353Y-59315000D01*
X98533647Y-59315000D01*
X98500000Y-59311686D01*
X98466353Y-59315000D01*
X98365717Y-59324912D01*
X98236594Y-59364081D01*
X98117593Y-59427688D01*
X98013289Y-59513289D01*
X97927688Y-59617593D01*
X97864081Y-59736594D01*
X97824912Y-59865717D01*
X97811686Y-60000000D01*
X96188314Y-60000000D01*
X96175088Y-59865717D01*
X96135919Y-59736594D01*
X96072312Y-59617593D01*
X95986711Y-59513289D01*
X95882407Y-59427688D01*
X95763406Y-59364081D01*
X95634283Y-59324912D01*
X95533647Y-59315000D01*
X95500000Y-59311686D01*
X95466353Y-59315000D01*
X81533647Y-59315000D01*
X81500000Y-59311686D01*
X81466353Y-59315000D01*
X81365717Y-59324912D01*
X81236594Y-59364081D01*
X81117593Y-59427688D01*
X81013289Y-59513289D01*
X80927688Y-59617593D01*
X80864081Y-59736594D01*
X80824912Y-59865717D01*
X80811686Y-60000000D01*
X63685000Y-60000000D01*
X63685000Y-58783736D01*
X63783736Y-58685000D01*
X169216264Y-58685000D01*
X169315000Y-58783736D01*
M02*
