G04 #@! TF.GenerationSoftware,KiCad,Pcbnew,(5.1.5)-3*
G04 #@! TF.CreationDate,2021-03-06T01:39:33+09:00*
G04 #@! TF.ProjectId,Setta21_Top,53657474-6132-4315-9f54-6f702e6b6963,rev?*
G04 #@! TF.SameCoordinates,Original*
G04 #@! TF.FileFunction,Profile,NP*
%FSLAX46Y46*%
G04 Gerber Fmt 4.6, Leading zero omitted, Abs format (unit mm)*
G04 Created by KiCad (PCBNEW (5.1.5)-3) date 2021-03-06 01:39:33*
%MOMM*%
%LPD*%
G04 APERTURE LIST*
%ADD10C,0.100000*%
G04 APERTURE END LIST*
D10*
X63000000Y-58500000D02*
X63500000Y-58000000D01*
X170000000Y-58500000D02*
X169500000Y-58000000D01*
X169500000Y-130000000D02*
X170000000Y-129500000D01*
X63000000Y-129500000D02*
X63500000Y-130000000D01*
X170000000Y-58500000D02*
X170000000Y-129500000D01*
X121000000Y-114000000D02*
X107000000Y-114000000D01*
X121000000Y-128000000D02*
X121000000Y-114000000D01*
X107000000Y-128000000D02*
X121000000Y-128000000D01*
X107000000Y-114000000D02*
X107000000Y-128000000D01*
X73000000Y-128000000D02*
X73000000Y-114000000D01*
X87000000Y-128000000D02*
X73000000Y-128000000D01*
X87000000Y-114000000D02*
X87000000Y-128000000D01*
X73000000Y-114000000D02*
X87000000Y-114000000D01*
X64500000Y-83000000D02*
X64500000Y-69000000D01*
X78500000Y-83000000D02*
X64500000Y-83000000D01*
X78500000Y-69000000D02*
X78500000Y-83000000D01*
X64500000Y-69000000D02*
X78500000Y-69000000D01*
X64500000Y-96000000D02*
X64500000Y-110000000D01*
X78500000Y-96000000D02*
X64500000Y-96000000D01*
X78500000Y-110000000D02*
X78500000Y-96000000D01*
X64500000Y-110000000D02*
X78500000Y-110000000D01*
X146500000Y-114000000D02*
X132500000Y-114000000D01*
X146500000Y-128000000D02*
X146500000Y-114000000D01*
X132500000Y-128000000D02*
X146500000Y-128000000D01*
X132500000Y-114000000D02*
X132500000Y-128000000D01*
X167500000Y-114000000D02*
X153500000Y-114000000D01*
X167500000Y-128000000D02*
X167500000Y-114000000D01*
X153500000Y-128000000D02*
X167500000Y-128000000D01*
X153500000Y-114000000D02*
X153500000Y-128000000D01*
X167500000Y-96000000D02*
X153500000Y-96000000D01*
X167500000Y-110000000D02*
X167500000Y-96000000D01*
X153500000Y-110000000D02*
X167500000Y-110000000D01*
X153500000Y-96000000D02*
X153500000Y-110000000D01*
X167500000Y-78000000D02*
X153500000Y-78000000D01*
X167500000Y-92000000D02*
X167500000Y-78000000D01*
X153500000Y-92000000D02*
X167500000Y-92000000D01*
X153500000Y-78000000D02*
X153500000Y-92000000D01*
X146500000Y-96000000D02*
X132500000Y-96000000D01*
X146500000Y-110000000D02*
X146500000Y-96000000D01*
X132500000Y-110000000D02*
X146500000Y-110000000D01*
X132500000Y-96000000D02*
X132500000Y-110000000D01*
X129500000Y-96000000D02*
X115500000Y-96000000D01*
X129500000Y-110000000D02*
X129500000Y-96000000D01*
X115500000Y-110000000D02*
X129500000Y-110000000D01*
X115500000Y-96000000D02*
X115500000Y-110000000D01*
X167500000Y-60000000D02*
X153500000Y-60000000D01*
X167500000Y-74000000D02*
X167500000Y-60000000D01*
X153500000Y-74000000D02*
X167500000Y-74000000D01*
X153500000Y-60000000D02*
X153500000Y-74000000D01*
X146500000Y-78000000D02*
X132500000Y-78000000D01*
X146500000Y-92000000D02*
X146500000Y-78000000D01*
X132500000Y-92000000D02*
X146500000Y-92000000D01*
X132500000Y-78000000D02*
X132500000Y-92000000D01*
X129500000Y-78000000D02*
X115500000Y-78000000D01*
X129500000Y-92000000D02*
X129500000Y-78000000D01*
X115500000Y-92000000D02*
X129500000Y-92000000D01*
X115500000Y-78000000D02*
X115500000Y-92000000D01*
X146500000Y-60000000D02*
X132500000Y-60000000D01*
X146500000Y-74000000D02*
X146500000Y-60000000D01*
X132500000Y-74000000D02*
X146500000Y-74000000D01*
X132500000Y-60000000D02*
X132500000Y-74000000D01*
X129500000Y-60000000D02*
X115500000Y-60000000D01*
X129500000Y-74000000D02*
X129500000Y-60000000D01*
X115500000Y-74000000D02*
X129500000Y-74000000D01*
X115500000Y-60000000D02*
X115500000Y-74000000D01*
X112500000Y-78000000D02*
X98500000Y-78000000D01*
X112500000Y-92000000D02*
X112500000Y-78000000D01*
X98500000Y-92000000D02*
X112500000Y-92000000D01*
X98500000Y-78000000D02*
X98500000Y-92000000D01*
X112500000Y-96000000D02*
X98500000Y-96000000D01*
X112500000Y-110000000D02*
X112500000Y-96000000D01*
X98500000Y-110000000D02*
X112500000Y-110000000D01*
X98500000Y-96000000D02*
X98500000Y-110000000D01*
X95500000Y-96000000D02*
X81500000Y-96000000D01*
X95500000Y-110000000D02*
X95500000Y-96000000D01*
X81500000Y-110000000D02*
X95500000Y-110000000D01*
X81500000Y-96000000D02*
X81500000Y-110000000D01*
X95500000Y-78000000D02*
X81500000Y-78000000D01*
X95500000Y-91975000D02*
X95500000Y-78000000D01*
X81500000Y-91975000D02*
X95500000Y-91975000D01*
X81500000Y-78000000D02*
X81500000Y-91975000D01*
X112500000Y-60000000D02*
X98500000Y-60000000D01*
X112500000Y-73975000D02*
X112500000Y-60000000D01*
X98500000Y-73975000D02*
X112500000Y-73975000D01*
X98500000Y-60000000D02*
X98500000Y-73975000D01*
X95500000Y-60000000D02*
X81500000Y-60000000D01*
X95500000Y-74000000D02*
X95500000Y-60000000D01*
X81500000Y-74000000D02*
X95500000Y-74000000D01*
X81500000Y-60000000D02*
X81500000Y-74000000D01*
X63000000Y-129500000D02*
X63000000Y-58500000D01*
X63500000Y-58000000D02*
X169500000Y-58000000D01*
X169500000Y-130000000D02*
X63500000Y-130000000D01*
M02*
