G04 #@! TF.GenerationSoftware,KiCad,Pcbnew,(5.1.5)-3*
G04 #@! TF.CreationDate,2021-03-06T01:37:00+09:00*
G04 #@! TF.ProjectId,Setta21_Back_mask,53657474-6132-4315-9f42-61636b5f6d61,rev?*
G04 #@! TF.SameCoordinates,Original*
G04 #@! TF.FileFunction,Copper,L2,Bot*
G04 #@! TF.FilePolarity,Positive*
%FSLAX46Y46*%
G04 Gerber Fmt 4.6, Leading zero omitted, Abs format (unit mm)*
G04 Created by KiCad (PCBNEW (5.1.5)-3) date 2021-03-06 01:37:00*
%MOMM*%
%LPD*%
G04 APERTURE LIST*
%ADD10C,0.254000*%
G04 APERTURE END LIST*
D10*
G36*
X189315000Y-58783736D02*
G01*
X189315001Y-129216263D01*
X189216264Y-129315000D01*
X63783736Y-129315000D01*
X63685000Y-129216264D01*
X63685000Y-123711593D01*
X67254677Y-123711593D01*
X67265000Y-124028284D01*
X67265000Y-124345113D01*
X67276210Y-124372176D01*
X67277164Y-124401453D01*
X67497901Y-124934359D01*
X67511293Y-124939716D01*
X67529138Y-124982799D01*
X68017201Y-125470862D01*
X68060284Y-125488707D01*
X68065641Y-125502099D01*
X68362171Y-125613753D01*
X68654887Y-125735000D01*
X68684177Y-125735000D01*
X68711593Y-125745323D01*
X69028284Y-125735000D01*
X69345113Y-125735000D01*
X69372176Y-125723790D01*
X69401453Y-125722836D01*
X69934359Y-125502099D01*
X69939716Y-125488707D01*
X69982799Y-125470862D01*
X70470862Y-124982799D01*
X70488707Y-124939716D01*
X70502099Y-124934359D01*
X70613753Y-124637829D01*
X70735000Y-124345113D01*
X70735000Y-124315823D01*
X70745323Y-124288407D01*
X70735000Y-123971716D01*
X70735000Y-123711593D01*
X148254677Y-123711593D01*
X148265000Y-124028284D01*
X148265000Y-124345113D01*
X148276210Y-124372176D01*
X148277164Y-124401453D01*
X148497901Y-124934359D01*
X148511293Y-124939716D01*
X148529138Y-124982799D01*
X149017201Y-125470862D01*
X149060284Y-125488707D01*
X149065641Y-125502099D01*
X149362171Y-125613753D01*
X149654887Y-125735000D01*
X149684177Y-125735000D01*
X149711593Y-125745323D01*
X150028284Y-125735000D01*
X150345113Y-125735000D01*
X150372176Y-125723790D01*
X150401453Y-125722836D01*
X150934359Y-125502099D01*
X150939716Y-125488707D01*
X150982799Y-125470862D01*
X151470862Y-124982799D01*
X151488707Y-124939716D01*
X151502099Y-124934359D01*
X151613753Y-124637829D01*
X151735000Y-124345113D01*
X151735000Y-124315823D01*
X151745323Y-124288407D01*
X151735000Y-123971716D01*
X151735000Y-123654887D01*
X151723790Y-123627824D01*
X151722836Y-123598547D01*
X151502099Y-123065641D01*
X151488707Y-123060284D01*
X151470862Y-123017201D01*
X150982799Y-122529138D01*
X150939716Y-122511293D01*
X150934359Y-122497901D01*
X150637829Y-122386247D01*
X150345113Y-122265000D01*
X150315823Y-122265000D01*
X150288407Y-122254677D01*
X149971716Y-122265000D01*
X149654887Y-122265000D01*
X149627824Y-122276210D01*
X149598547Y-122277164D01*
X149065641Y-122497901D01*
X149060284Y-122511293D01*
X149017201Y-122529138D01*
X148529138Y-123017201D01*
X148511293Y-123060284D01*
X148497901Y-123065641D01*
X148386247Y-123362171D01*
X148265000Y-123654887D01*
X148265000Y-123684177D01*
X148254677Y-123711593D01*
X70735000Y-123711593D01*
X70735000Y-123654887D01*
X70723790Y-123627824D01*
X70722836Y-123598547D01*
X70502099Y-123065641D01*
X70488707Y-123060284D01*
X70470862Y-123017201D01*
X69982799Y-122529138D01*
X69939716Y-122511293D01*
X69934359Y-122497901D01*
X69637829Y-122386247D01*
X69345113Y-122265000D01*
X69315823Y-122265000D01*
X69288407Y-122254677D01*
X68971716Y-122265000D01*
X68654887Y-122265000D01*
X68627824Y-122276210D01*
X68598547Y-122277164D01*
X68065641Y-122497901D01*
X68060284Y-122511293D01*
X68017201Y-122529138D01*
X67529138Y-123017201D01*
X67511293Y-123060284D01*
X67497901Y-123065641D01*
X67386247Y-123362171D01*
X67265000Y-123654887D01*
X67265000Y-123684177D01*
X67254677Y-123711593D01*
X63685000Y-123711593D01*
X63685000Y-63711593D01*
X67254677Y-63711593D01*
X67265000Y-64028284D01*
X67265000Y-64345113D01*
X67276210Y-64372176D01*
X67277164Y-64401453D01*
X67497901Y-64934359D01*
X67511293Y-64939716D01*
X67529138Y-64982799D01*
X68017201Y-65470862D01*
X68060284Y-65488707D01*
X68065641Y-65502099D01*
X68362171Y-65613753D01*
X68654887Y-65735000D01*
X68684177Y-65735000D01*
X68711593Y-65745323D01*
X69028284Y-65735000D01*
X69345113Y-65735000D01*
X69372176Y-65723790D01*
X69401453Y-65722836D01*
X69934359Y-65502099D01*
X69939716Y-65488707D01*
X69982799Y-65470862D01*
X70470862Y-64982799D01*
X70488707Y-64939716D01*
X70502099Y-64934359D01*
X70613753Y-64637829D01*
X70735000Y-64345113D01*
X70735000Y-64315823D01*
X70745323Y-64288407D01*
X70735000Y-63971716D01*
X70735000Y-63711593D01*
X148254677Y-63711593D01*
X148265000Y-64028284D01*
X148265000Y-64345113D01*
X148276210Y-64372176D01*
X148277164Y-64401453D01*
X148497901Y-64934359D01*
X148511293Y-64939716D01*
X148529138Y-64982799D01*
X149017201Y-65470862D01*
X149060284Y-65488707D01*
X149065641Y-65502099D01*
X149362171Y-65613753D01*
X149654887Y-65735000D01*
X149684177Y-65735000D01*
X149711593Y-65745323D01*
X150028284Y-65735000D01*
X150345113Y-65735000D01*
X150372176Y-65723790D01*
X150401453Y-65722836D01*
X150934359Y-65502099D01*
X150939716Y-65488707D01*
X150982799Y-65470862D01*
X151470862Y-64982799D01*
X151488707Y-64939716D01*
X151502099Y-64934359D01*
X151613753Y-64637829D01*
X151735000Y-64345113D01*
X151735000Y-64315823D01*
X151745323Y-64288407D01*
X151735000Y-63971716D01*
X151735000Y-63654887D01*
X151723790Y-63627824D01*
X151722836Y-63598547D01*
X151502099Y-63065641D01*
X151488707Y-63060284D01*
X151470862Y-63017201D01*
X150982799Y-62529138D01*
X150939716Y-62511293D01*
X150934359Y-62497901D01*
X150637829Y-62386247D01*
X150345113Y-62265000D01*
X150315823Y-62265000D01*
X150288407Y-62254677D01*
X149971716Y-62265000D01*
X149654887Y-62265000D01*
X149627824Y-62276210D01*
X149598547Y-62277164D01*
X149065641Y-62497901D01*
X149060284Y-62511293D01*
X149017201Y-62529138D01*
X148529138Y-63017201D01*
X148511293Y-63060284D01*
X148497901Y-63065641D01*
X148386247Y-63362171D01*
X148265000Y-63654887D01*
X148265000Y-63684177D01*
X148254677Y-63711593D01*
X70735000Y-63711593D01*
X70735000Y-63654887D01*
X70723790Y-63627824D01*
X70722836Y-63598547D01*
X70502099Y-63065641D01*
X70488707Y-63060284D01*
X70470862Y-63017201D01*
X69982799Y-62529138D01*
X69939716Y-62511293D01*
X69934359Y-62497901D01*
X69637829Y-62386247D01*
X69345113Y-62265000D01*
X69315823Y-62265000D01*
X69288407Y-62254677D01*
X68971716Y-62265000D01*
X68654887Y-62265000D01*
X68627824Y-62276210D01*
X68598547Y-62277164D01*
X68065641Y-62497901D01*
X68060284Y-62511293D01*
X68017201Y-62529138D01*
X67529138Y-63017201D01*
X67511293Y-63060284D01*
X67497901Y-63065641D01*
X67386247Y-63362171D01*
X67265000Y-63654887D01*
X67265000Y-63684177D01*
X67254677Y-63711593D01*
X63685000Y-63711593D01*
X63685000Y-58783736D01*
X63783736Y-58685000D01*
X189216264Y-58685000D01*
X189315000Y-58783736D01*
G37*
X189315000Y-58783736D02*
X189315001Y-129216263D01*
X189216264Y-129315000D01*
X63783736Y-129315000D01*
X63685000Y-129216264D01*
X63685000Y-123711593D01*
X67254677Y-123711593D01*
X67265000Y-124028284D01*
X67265000Y-124345113D01*
X67276210Y-124372176D01*
X67277164Y-124401453D01*
X67497901Y-124934359D01*
X67511293Y-124939716D01*
X67529138Y-124982799D01*
X68017201Y-125470862D01*
X68060284Y-125488707D01*
X68065641Y-125502099D01*
X68362171Y-125613753D01*
X68654887Y-125735000D01*
X68684177Y-125735000D01*
X68711593Y-125745323D01*
X69028284Y-125735000D01*
X69345113Y-125735000D01*
X69372176Y-125723790D01*
X69401453Y-125722836D01*
X69934359Y-125502099D01*
X69939716Y-125488707D01*
X69982799Y-125470862D01*
X70470862Y-124982799D01*
X70488707Y-124939716D01*
X70502099Y-124934359D01*
X70613753Y-124637829D01*
X70735000Y-124345113D01*
X70735000Y-124315823D01*
X70745323Y-124288407D01*
X70735000Y-123971716D01*
X70735000Y-123711593D01*
X148254677Y-123711593D01*
X148265000Y-124028284D01*
X148265000Y-124345113D01*
X148276210Y-124372176D01*
X148277164Y-124401453D01*
X148497901Y-124934359D01*
X148511293Y-124939716D01*
X148529138Y-124982799D01*
X149017201Y-125470862D01*
X149060284Y-125488707D01*
X149065641Y-125502099D01*
X149362171Y-125613753D01*
X149654887Y-125735000D01*
X149684177Y-125735000D01*
X149711593Y-125745323D01*
X150028284Y-125735000D01*
X150345113Y-125735000D01*
X150372176Y-125723790D01*
X150401453Y-125722836D01*
X150934359Y-125502099D01*
X150939716Y-125488707D01*
X150982799Y-125470862D01*
X151470862Y-124982799D01*
X151488707Y-124939716D01*
X151502099Y-124934359D01*
X151613753Y-124637829D01*
X151735000Y-124345113D01*
X151735000Y-124315823D01*
X151745323Y-124288407D01*
X151735000Y-123971716D01*
X151735000Y-123654887D01*
X151723790Y-123627824D01*
X151722836Y-123598547D01*
X151502099Y-123065641D01*
X151488707Y-123060284D01*
X151470862Y-123017201D01*
X150982799Y-122529138D01*
X150939716Y-122511293D01*
X150934359Y-122497901D01*
X150637829Y-122386247D01*
X150345113Y-122265000D01*
X150315823Y-122265000D01*
X150288407Y-122254677D01*
X149971716Y-122265000D01*
X149654887Y-122265000D01*
X149627824Y-122276210D01*
X149598547Y-122277164D01*
X149065641Y-122497901D01*
X149060284Y-122511293D01*
X149017201Y-122529138D01*
X148529138Y-123017201D01*
X148511293Y-123060284D01*
X148497901Y-123065641D01*
X148386247Y-123362171D01*
X148265000Y-123654887D01*
X148265000Y-123684177D01*
X148254677Y-123711593D01*
X70735000Y-123711593D01*
X70735000Y-123654887D01*
X70723790Y-123627824D01*
X70722836Y-123598547D01*
X70502099Y-123065641D01*
X70488707Y-123060284D01*
X70470862Y-123017201D01*
X69982799Y-122529138D01*
X69939716Y-122511293D01*
X69934359Y-122497901D01*
X69637829Y-122386247D01*
X69345113Y-122265000D01*
X69315823Y-122265000D01*
X69288407Y-122254677D01*
X68971716Y-122265000D01*
X68654887Y-122265000D01*
X68627824Y-122276210D01*
X68598547Y-122277164D01*
X68065641Y-122497901D01*
X68060284Y-122511293D01*
X68017201Y-122529138D01*
X67529138Y-123017201D01*
X67511293Y-123060284D01*
X67497901Y-123065641D01*
X67386247Y-123362171D01*
X67265000Y-123654887D01*
X67265000Y-123684177D01*
X67254677Y-123711593D01*
X63685000Y-123711593D01*
X63685000Y-63711593D01*
X67254677Y-63711593D01*
X67265000Y-64028284D01*
X67265000Y-64345113D01*
X67276210Y-64372176D01*
X67277164Y-64401453D01*
X67497901Y-64934359D01*
X67511293Y-64939716D01*
X67529138Y-64982799D01*
X68017201Y-65470862D01*
X68060284Y-65488707D01*
X68065641Y-65502099D01*
X68362171Y-65613753D01*
X68654887Y-65735000D01*
X68684177Y-65735000D01*
X68711593Y-65745323D01*
X69028284Y-65735000D01*
X69345113Y-65735000D01*
X69372176Y-65723790D01*
X69401453Y-65722836D01*
X69934359Y-65502099D01*
X69939716Y-65488707D01*
X69982799Y-65470862D01*
X70470862Y-64982799D01*
X70488707Y-64939716D01*
X70502099Y-64934359D01*
X70613753Y-64637829D01*
X70735000Y-64345113D01*
X70735000Y-64315823D01*
X70745323Y-64288407D01*
X70735000Y-63971716D01*
X70735000Y-63711593D01*
X148254677Y-63711593D01*
X148265000Y-64028284D01*
X148265000Y-64345113D01*
X148276210Y-64372176D01*
X148277164Y-64401453D01*
X148497901Y-64934359D01*
X148511293Y-64939716D01*
X148529138Y-64982799D01*
X149017201Y-65470862D01*
X149060284Y-65488707D01*
X149065641Y-65502099D01*
X149362171Y-65613753D01*
X149654887Y-65735000D01*
X149684177Y-65735000D01*
X149711593Y-65745323D01*
X150028284Y-65735000D01*
X150345113Y-65735000D01*
X150372176Y-65723790D01*
X150401453Y-65722836D01*
X150934359Y-65502099D01*
X150939716Y-65488707D01*
X150982799Y-65470862D01*
X151470862Y-64982799D01*
X151488707Y-64939716D01*
X151502099Y-64934359D01*
X151613753Y-64637829D01*
X151735000Y-64345113D01*
X151735000Y-64315823D01*
X151745323Y-64288407D01*
X151735000Y-63971716D01*
X151735000Y-63654887D01*
X151723790Y-63627824D01*
X151722836Y-63598547D01*
X151502099Y-63065641D01*
X151488707Y-63060284D01*
X151470862Y-63017201D01*
X150982799Y-62529138D01*
X150939716Y-62511293D01*
X150934359Y-62497901D01*
X150637829Y-62386247D01*
X150345113Y-62265000D01*
X150315823Y-62265000D01*
X150288407Y-62254677D01*
X149971716Y-62265000D01*
X149654887Y-62265000D01*
X149627824Y-62276210D01*
X149598547Y-62277164D01*
X149065641Y-62497901D01*
X149060284Y-62511293D01*
X149017201Y-62529138D01*
X148529138Y-63017201D01*
X148511293Y-63060284D01*
X148497901Y-63065641D01*
X148386247Y-63362171D01*
X148265000Y-63654887D01*
X148265000Y-63684177D01*
X148254677Y-63711593D01*
X70735000Y-63711593D01*
X70735000Y-63654887D01*
X70723790Y-63627824D01*
X70722836Y-63598547D01*
X70502099Y-63065641D01*
X70488707Y-63060284D01*
X70470862Y-63017201D01*
X69982799Y-62529138D01*
X69939716Y-62511293D01*
X69934359Y-62497901D01*
X69637829Y-62386247D01*
X69345113Y-62265000D01*
X69315823Y-62265000D01*
X69288407Y-62254677D01*
X68971716Y-62265000D01*
X68654887Y-62265000D01*
X68627824Y-62276210D01*
X68598547Y-62277164D01*
X68065641Y-62497901D01*
X68060284Y-62511293D01*
X68017201Y-62529138D01*
X67529138Y-63017201D01*
X67511293Y-63060284D01*
X67497901Y-63065641D01*
X67386247Y-63362171D01*
X67265000Y-63654887D01*
X67265000Y-63684177D01*
X67254677Y-63711593D01*
X63685000Y-63711593D01*
X63685000Y-58783736D01*
X63783736Y-58685000D01*
X189216264Y-58685000D01*
X189315000Y-58783736D01*
M02*
