G04 #@! TF.GenerationSoftware,KiCad,Pcbnew,(5.1.5)-3*
G04 #@! TF.CreationDate,2021-03-06T02:16:54+09:00*
G04 #@! TF.ProjectId,Kleine Gherkin,4b6c6569-6e65-4204-9768-65726b696e2e,rev?*
G04 #@! TF.SameCoordinates,Original*
G04 #@! TF.FileFunction,Copper,L1,Top*
G04 #@! TF.FilePolarity,Positive*
%FSLAX46Y46*%
G04 Gerber Fmt 4.6, Leading zero omitted, Abs format (unit mm)*
G04 Created by KiCad (PCBNEW (5.1.5)-3) date 2021-03-06 02:16:54*
%MOMM*%
%LPD*%
G04 APERTURE LIST*
%ADD10C,10.000000*%
%ADD11C,0.254000*%
G04 APERTURE END LIST*
D10*
X202406250Y-36750000D03*
D11*
G36*
X112178169Y-32262463D02*
G01*
X111894002Y-32452337D01*
X111652337Y-32694002D01*
X111462463Y-32978169D01*
X111331675Y-33293919D01*
X111265000Y-33629117D01*
X111265000Y-33970883D01*
X111331675Y-34306081D01*
X111462463Y-34621831D01*
X111652337Y-34905998D01*
X111894002Y-35147663D01*
X112178169Y-35337537D01*
X112493919Y-35468325D01*
X112829117Y-35535000D01*
X113170883Y-35535000D01*
X113506081Y-35468325D01*
X113821831Y-35337537D01*
X114105998Y-35147663D01*
X114347663Y-34905998D01*
X114537537Y-34621831D01*
X114668325Y-34306081D01*
X114735000Y-33970883D01*
X114735000Y-33829117D01*
X191265000Y-33829117D01*
X191265000Y-34170883D01*
X191331675Y-34506081D01*
X191462463Y-34821831D01*
X191652337Y-35105998D01*
X191894002Y-35347663D01*
X192178169Y-35537537D01*
X192493919Y-35668325D01*
X192829117Y-35735000D01*
X193170883Y-35735000D01*
X193506081Y-35668325D01*
X193821831Y-35537537D01*
X194105998Y-35347663D01*
X194347663Y-35105998D01*
X194537537Y-34821831D01*
X194668325Y-34506081D01*
X194735000Y-34170883D01*
X194735000Y-33829117D01*
X194668325Y-33493919D01*
X194537537Y-33178169D01*
X194347663Y-32894002D01*
X194105998Y-32652337D01*
X193821831Y-32462463D01*
X193506081Y-32331675D01*
X193170883Y-32265000D01*
X192829117Y-32265000D01*
X192493919Y-32331675D01*
X192178169Y-32462463D01*
X191894002Y-32652337D01*
X191652337Y-32894002D01*
X191462463Y-33178169D01*
X191331675Y-33493919D01*
X191265000Y-33829117D01*
X114735000Y-33829117D01*
X114735000Y-33629117D01*
X114668325Y-33293919D01*
X114537537Y-32978169D01*
X114347663Y-32694002D01*
X114105998Y-32452337D01*
X113821831Y-32262463D01*
X113634819Y-32185000D01*
X199095524Y-32185000D01*
X198814147Y-32373010D01*
X198029260Y-33157897D01*
X197412578Y-34080827D01*
X196987800Y-35106331D01*
X196771250Y-36195001D01*
X196771250Y-37304999D01*
X196987800Y-38393669D01*
X197412578Y-39419173D01*
X198029260Y-40342103D01*
X198814147Y-41126990D01*
X199737077Y-41743672D01*
X200762581Y-42168450D01*
X201851251Y-42385000D01*
X202961249Y-42385000D01*
X204049919Y-42168450D01*
X205075423Y-41743672D01*
X205941001Y-41165311D01*
X194799063Y-82732711D01*
X194696492Y-83037590D01*
X194569286Y-83259752D01*
X194401353Y-83452973D01*
X194199085Y-83609899D01*
X193970191Y-83724547D01*
X193719335Y-83793670D01*
X193470670Y-83815000D01*
X113855560Y-83815000D01*
X114105998Y-83647663D01*
X114347663Y-83405998D01*
X114537537Y-83121831D01*
X114668325Y-82806081D01*
X114735000Y-82470883D01*
X114735000Y-82129117D01*
X114675327Y-81829117D01*
X191265000Y-81829117D01*
X191265000Y-82170883D01*
X191331675Y-82506081D01*
X191462463Y-82821831D01*
X191652337Y-83105998D01*
X191894002Y-83347663D01*
X192178169Y-83537537D01*
X192493919Y-83668325D01*
X192829117Y-83735000D01*
X193170883Y-83735000D01*
X193506081Y-83668325D01*
X193821831Y-83537537D01*
X194105998Y-83347663D01*
X194347663Y-83105998D01*
X194537537Y-82821831D01*
X194668325Y-82506081D01*
X194735000Y-82170883D01*
X194735000Y-81829117D01*
X194668325Y-81493919D01*
X194537537Y-81178169D01*
X194347663Y-80894002D01*
X194105998Y-80652337D01*
X193821831Y-80462463D01*
X193506081Y-80331675D01*
X193170883Y-80265000D01*
X192829117Y-80265000D01*
X192493919Y-80331675D01*
X192178169Y-80462463D01*
X191894002Y-80652337D01*
X191652337Y-80894002D01*
X191462463Y-81178169D01*
X191331675Y-81493919D01*
X191265000Y-81829117D01*
X114675327Y-81829117D01*
X114668325Y-81793919D01*
X114537537Y-81478169D01*
X114347663Y-81194002D01*
X114105998Y-80952337D01*
X113821831Y-80762463D01*
X113506081Y-80631675D01*
X113170883Y-80565000D01*
X112829117Y-80565000D01*
X112493919Y-80631675D01*
X112178169Y-80762463D01*
X111894002Y-80952337D01*
X111652337Y-81194002D01*
X111462463Y-81478169D01*
X111331675Y-81793919D01*
X111265000Y-82129117D01*
X111265000Y-82470883D01*
X111331675Y-82806081D01*
X111462463Y-83121831D01*
X111652337Y-83405998D01*
X111894002Y-83647663D01*
X112144440Y-83815000D01*
X32533505Y-83815000D01*
X32245218Y-83786733D01*
X32000145Y-83712741D01*
X31774107Y-83592554D01*
X31575721Y-83430754D01*
X31412540Y-83233503D01*
X31290779Y-83008310D01*
X31215076Y-82763753D01*
X31185000Y-82477602D01*
X31185000Y-81829117D01*
X31265000Y-81829117D01*
X31265000Y-82170883D01*
X31331675Y-82506081D01*
X31462463Y-82821831D01*
X31652337Y-83105998D01*
X31894002Y-83347663D01*
X32178169Y-83537537D01*
X32493919Y-83668325D01*
X32829117Y-83735000D01*
X33170883Y-83735000D01*
X33506081Y-83668325D01*
X33821831Y-83537537D01*
X34105998Y-83347663D01*
X34347663Y-83105998D01*
X34537537Y-82821831D01*
X34668325Y-82506081D01*
X34735000Y-82170883D01*
X34735000Y-81829117D01*
X34668325Y-81493919D01*
X34537537Y-81178169D01*
X34347663Y-80894002D01*
X34105998Y-80652337D01*
X33821831Y-80462463D01*
X33506081Y-80331675D01*
X33170883Y-80265000D01*
X32829117Y-80265000D01*
X32493919Y-80331675D01*
X32178169Y-80462463D01*
X31894002Y-80652337D01*
X31652337Y-80894002D01*
X31462463Y-81178169D01*
X31331675Y-81493919D01*
X31265000Y-81829117D01*
X31185000Y-81829117D01*
X31185000Y-68685000D01*
X66966353Y-68685000D01*
X67000000Y-68688314D01*
X67134283Y-68675088D01*
X67263406Y-68635919D01*
X67382407Y-68572312D01*
X67486711Y-68486711D01*
X67572312Y-68382407D01*
X67635919Y-68263406D01*
X67675088Y-68134283D01*
X67685000Y-68033647D01*
X67688314Y-68000000D01*
X67685000Y-67966353D01*
X67685000Y-48033647D01*
X67688314Y-48000000D01*
X67675088Y-47865717D01*
X67635919Y-47736594D01*
X67572312Y-47617593D01*
X67486711Y-47513289D01*
X67382407Y-47427688D01*
X67263406Y-47364081D01*
X67134283Y-47324912D01*
X67033647Y-47315000D01*
X67000000Y-47311686D01*
X66966353Y-47315000D01*
X31185000Y-47315000D01*
X31185000Y-33829117D01*
X31265000Y-33829117D01*
X31265000Y-34170883D01*
X31331675Y-34506081D01*
X31462463Y-34821831D01*
X31652337Y-35105998D01*
X31894002Y-35347663D01*
X32178169Y-35537537D01*
X32493919Y-35668325D01*
X32829117Y-35735000D01*
X33170883Y-35735000D01*
X33506081Y-35668325D01*
X33821831Y-35537537D01*
X34105998Y-35347663D01*
X34347663Y-35105998D01*
X34537537Y-34821831D01*
X34668325Y-34506081D01*
X34735000Y-34170883D01*
X34735000Y-33829117D01*
X34668325Y-33493919D01*
X34537537Y-33178169D01*
X34347663Y-32894002D01*
X34105998Y-32652337D01*
X33821831Y-32462463D01*
X33506081Y-32331675D01*
X33170883Y-32265000D01*
X32829117Y-32265000D01*
X32493919Y-32331675D01*
X32178169Y-32462463D01*
X31894002Y-32652337D01*
X31652337Y-32894002D01*
X31462463Y-33178169D01*
X31331675Y-33493919D01*
X31265000Y-33829117D01*
X31185000Y-33829117D01*
X31185000Y-33533505D01*
X31213267Y-33245218D01*
X31287259Y-33000145D01*
X31407443Y-32774110D01*
X31569248Y-32575719D01*
X31766497Y-32412540D01*
X31991687Y-32290780D01*
X32236247Y-32215076D01*
X32522398Y-32185000D01*
X112365181Y-32185000D01*
X112178169Y-32262463D01*
G37*
X112178169Y-32262463D02*
X111894002Y-32452337D01*
X111652337Y-32694002D01*
X111462463Y-32978169D01*
X111331675Y-33293919D01*
X111265000Y-33629117D01*
X111265000Y-33970883D01*
X111331675Y-34306081D01*
X111462463Y-34621831D01*
X111652337Y-34905998D01*
X111894002Y-35147663D01*
X112178169Y-35337537D01*
X112493919Y-35468325D01*
X112829117Y-35535000D01*
X113170883Y-35535000D01*
X113506081Y-35468325D01*
X113821831Y-35337537D01*
X114105998Y-35147663D01*
X114347663Y-34905998D01*
X114537537Y-34621831D01*
X114668325Y-34306081D01*
X114735000Y-33970883D01*
X114735000Y-33829117D01*
X191265000Y-33829117D01*
X191265000Y-34170883D01*
X191331675Y-34506081D01*
X191462463Y-34821831D01*
X191652337Y-35105998D01*
X191894002Y-35347663D01*
X192178169Y-35537537D01*
X192493919Y-35668325D01*
X192829117Y-35735000D01*
X193170883Y-35735000D01*
X193506081Y-35668325D01*
X193821831Y-35537537D01*
X194105998Y-35347663D01*
X194347663Y-35105998D01*
X194537537Y-34821831D01*
X194668325Y-34506081D01*
X194735000Y-34170883D01*
X194735000Y-33829117D01*
X194668325Y-33493919D01*
X194537537Y-33178169D01*
X194347663Y-32894002D01*
X194105998Y-32652337D01*
X193821831Y-32462463D01*
X193506081Y-32331675D01*
X193170883Y-32265000D01*
X192829117Y-32265000D01*
X192493919Y-32331675D01*
X192178169Y-32462463D01*
X191894002Y-32652337D01*
X191652337Y-32894002D01*
X191462463Y-33178169D01*
X191331675Y-33493919D01*
X191265000Y-33829117D01*
X114735000Y-33829117D01*
X114735000Y-33629117D01*
X114668325Y-33293919D01*
X114537537Y-32978169D01*
X114347663Y-32694002D01*
X114105998Y-32452337D01*
X113821831Y-32262463D01*
X113634819Y-32185000D01*
X199095524Y-32185000D01*
X198814147Y-32373010D01*
X198029260Y-33157897D01*
X197412578Y-34080827D01*
X196987800Y-35106331D01*
X196771250Y-36195001D01*
X196771250Y-37304999D01*
X196987800Y-38393669D01*
X197412578Y-39419173D01*
X198029260Y-40342103D01*
X198814147Y-41126990D01*
X199737077Y-41743672D01*
X200762581Y-42168450D01*
X201851251Y-42385000D01*
X202961249Y-42385000D01*
X204049919Y-42168450D01*
X205075423Y-41743672D01*
X205941001Y-41165311D01*
X194799063Y-82732711D01*
X194696492Y-83037590D01*
X194569286Y-83259752D01*
X194401353Y-83452973D01*
X194199085Y-83609899D01*
X193970191Y-83724547D01*
X193719335Y-83793670D01*
X193470670Y-83815000D01*
X113855560Y-83815000D01*
X114105998Y-83647663D01*
X114347663Y-83405998D01*
X114537537Y-83121831D01*
X114668325Y-82806081D01*
X114735000Y-82470883D01*
X114735000Y-82129117D01*
X114675327Y-81829117D01*
X191265000Y-81829117D01*
X191265000Y-82170883D01*
X191331675Y-82506081D01*
X191462463Y-82821831D01*
X191652337Y-83105998D01*
X191894002Y-83347663D01*
X192178169Y-83537537D01*
X192493919Y-83668325D01*
X192829117Y-83735000D01*
X193170883Y-83735000D01*
X193506081Y-83668325D01*
X193821831Y-83537537D01*
X194105998Y-83347663D01*
X194347663Y-83105998D01*
X194537537Y-82821831D01*
X194668325Y-82506081D01*
X194735000Y-82170883D01*
X194735000Y-81829117D01*
X194668325Y-81493919D01*
X194537537Y-81178169D01*
X194347663Y-80894002D01*
X194105998Y-80652337D01*
X193821831Y-80462463D01*
X193506081Y-80331675D01*
X193170883Y-80265000D01*
X192829117Y-80265000D01*
X192493919Y-80331675D01*
X192178169Y-80462463D01*
X191894002Y-80652337D01*
X191652337Y-80894002D01*
X191462463Y-81178169D01*
X191331675Y-81493919D01*
X191265000Y-81829117D01*
X114675327Y-81829117D01*
X114668325Y-81793919D01*
X114537537Y-81478169D01*
X114347663Y-81194002D01*
X114105998Y-80952337D01*
X113821831Y-80762463D01*
X113506081Y-80631675D01*
X113170883Y-80565000D01*
X112829117Y-80565000D01*
X112493919Y-80631675D01*
X112178169Y-80762463D01*
X111894002Y-80952337D01*
X111652337Y-81194002D01*
X111462463Y-81478169D01*
X111331675Y-81793919D01*
X111265000Y-82129117D01*
X111265000Y-82470883D01*
X111331675Y-82806081D01*
X111462463Y-83121831D01*
X111652337Y-83405998D01*
X111894002Y-83647663D01*
X112144440Y-83815000D01*
X32533505Y-83815000D01*
X32245218Y-83786733D01*
X32000145Y-83712741D01*
X31774107Y-83592554D01*
X31575721Y-83430754D01*
X31412540Y-83233503D01*
X31290779Y-83008310D01*
X31215076Y-82763753D01*
X31185000Y-82477602D01*
X31185000Y-81829117D01*
X31265000Y-81829117D01*
X31265000Y-82170883D01*
X31331675Y-82506081D01*
X31462463Y-82821831D01*
X31652337Y-83105998D01*
X31894002Y-83347663D01*
X32178169Y-83537537D01*
X32493919Y-83668325D01*
X32829117Y-83735000D01*
X33170883Y-83735000D01*
X33506081Y-83668325D01*
X33821831Y-83537537D01*
X34105998Y-83347663D01*
X34347663Y-83105998D01*
X34537537Y-82821831D01*
X34668325Y-82506081D01*
X34735000Y-82170883D01*
X34735000Y-81829117D01*
X34668325Y-81493919D01*
X34537537Y-81178169D01*
X34347663Y-80894002D01*
X34105998Y-80652337D01*
X33821831Y-80462463D01*
X33506081Y-80331675D01*
X33170883Y-80265000D01*
X32829117Y-80265000D01*
X32493919Y-80331675D01*
X32178169Y-80462463D01*
X31894002Y-80652337D01*
X31652337Y-80894002D01*
X31462463Y-81178169D01*
X31331675Y-81493919D01*
X31265000Y-81829117D01*
X31185000Y-81829117D01*
X31185000Y-68685000D01*
X66966353Y-68685000D01*
X67000000Y-68688314D01*
X67134283Y-68675088D01*
X67263406Y-68635919D01*
X67382407Y-68572312D01*
X67486711Y-68486711D01*
X67572312Y-68382407D01*
X67635919Y-68263406D01*
X67675088Y-68134283D01*
X67685000Y-68033647D01*
X67688314Y-68000000D01*
X67685000Y-67966353D01*
X67685000Y-48033647D01*
X67688314Y-48000000D01*
X67675088Y-47865717D01*
X67635919Y-47736594D01*
X67572312Y-47617593D01*
X67486711Y-47513289D01*
X67382407Y-47427688D01*
X67263406Y-47364081D01*
X67134283Y-47324912D01*
X67033647Y-47315000D01*
X67000000Y-47311686D01*
X66966353Y-47315000D01*
X31185000Y-47315000D01*
X31185000Y-33829117D01*
X31265000Y-33829117D01*
X31265000Y-34170883D01*
X31331675Y-34506081D01*
X31462463Y-34821831D01*
X31652337Y-35105998D01*
X31894002Y-35347663D01*
X32178169Y-35537537D01*
X32493919Y-35668325D01*
X32829117Y-35735000D01*
X33170883Y-35735000D01*
X33506081Y-35668325D01*
X33821831Y-35537537D01*
X34105998Y-35347663D01*
X34347663Y-35105998D01*
X34537537Y-34821831D01*
X34668325Y-34506081D01*
X34735000Y-34170883D01*
X34735000Y-33829117D01*
X34668325Y-33493919D01*
X34537537Y-33178169D01*
X34347663Y-32894002D01*
X34105998Y-32652337D01*
X33821831Y-32462463D01*
X33506081Y-32331675D01*
X33170883Y-32265000D01*
X32829117Y-32265000D01*
X32493919Y-32331675D01*
X32178169Y-32462463D01*
X31894002Y-32652337D01*
X31652337Y-32894002D01*
X31462463Y-33178169D01*
X31331675Y-33493919D01*
X31265000Y-33829117D01*
X31185000Y-33829117D01*
X31185000Y-33533505D01*
X31213267Y-33245218D01*
X31287259Y-33000145D01*
X31407443Y-32774110D01*
X31569248Y-32575719D01*
X31766497Y-32412540D01*
X31991687Y-32290780D01*
X32236247Y-32215076D01*
X32522398Y-32185000D01*
X112365181Y-32185000D01*
X112178169Y-32262463D01*
M02*
