G04 #@! TF.GenerationSoftware,KiCad,Pcbnew,(5.1.5)-3*
G04 #@! TF.CreationDate,2021-03-06T01:35:20+09:00*
G04 #@! TF.ProjectId,Setta21_Back,53657474-6132-4315-9f42-61636b2e6b69,rev?*
G04 #@! TF.SameCoordinates,Original*
G04 #@! TF.FileFunction,Legend,Top*
G04 #@! TF.FilePolarity,Positive*
%FSLAX46Y46*%
G04 Gerber Fmt 4.6, Leading zero omitted, Abs format (unit mm)*
G04 Created by KiCad (PCBNEW (5.1.5)-3) date 2021-03-06 01:35:20*
%MOMM*%
%LPD*%
G04 APERTURE LIST*
%ADD10C,0.010000*%
G04 APERTURE END LIST*
D10*
G36*
X72606344Y-64097160D02*
G01*
X72560362Y-64182344D01*
X72488461Y-64312636D01*
X72394517Y-64481203D01*
X72282406Y-64681214D01*
X72156003Y-64905836D01*
X72019184Y-65148237D01*
X71875824Y-65401585D01*
X71729800Y-65659048D01*
X71584986Y-65913793D01*
X71445259Y-66158989D01*
X71314493Y-66387803D01*
X71196564Y-66593402D01*
X71095349Y-66768956D01*
X71014722Y-66907631D01*
X70958558Y-67002595D01*
X70930735Y-67047017D01*
X70929390Y-67048736D01*
X70886399Y-67053661D01*
X70813652Y-67029282D01*
X70807504Y-67026275D01*
X70709514Y-66977732D01*
X70597700Y-66923080D01*
X70582066Y-66915504D01*
X70503621Y-66869793D01*
X70460270Y-66829391D01*
X70457135Y-66819432D01*
X70473916Y-66784088D01*
X70521291Y-66695757D01*
X70596055Y-66560148D01*
X70695003Y-66382974D01*
X70814927Y-66169942D01*
X70952624Y-65926764D01*
X71104886Y-65659149D01*
X71268509Y-65372808D01*
X71306608Y-65306305D01*
X72154012Y-63827810D01*
X72388272Y-63931281D01*
X72500351Y-63984363D01*
X72583211Y-64030424D01*
X72621544Y-64060797D01*
X72622533Y-64063916D01*
X72606344Y-64097160D01*
G37*
X72606344Y-64097160D02*
X72560362Y-64182344D01*
X72488461Y-64312636D01*
X72394517Y-64481203D01*
X72282406Y-64681214D01*
X72156003Y-64905836D01*
X72019184Y-65148237D01*
X71875824Y-65401585D01*
X71729800Y-65659048D01*
X71584986Y-65913793D01*
X71445259Y-66158989D01*
X71314493Y-66387803D01*
X71196564Y-66593402D01*
X71095349Y-66768956D01*
X71014722Y-66907631D01*
X70958558Y-67002595D01*
X70930735Y-67047017D01*
X70929390Y-67048736D01*
X70886399Y-67053661D01*
X70813652Y-67029282D01*
X70807504Y-67026275D01*
X70709514Y-66977732D01*
X70597700Y-66923080D01*
X70582066Y-66915504D01*
X70503621Y-66869793D01*
X70460270Y-66829391D01*
X70457135Y-66819432D01*
X70473916Y-66784088D01*
X70521291Y-66695757D01*
X70596055Y-66560148D01*
X70695003Y-66382974D01*
X70814927Y-66169942D01*
X70952624Y-65926764D01*
X71104886Y-65659149D01*
X71268509Y-65372808D01*
X71306608Y-65306305D01*
X72154012Y-63827810D01*
X72388272Y-63931281D01*
X72500351Y-63984363D01*
X72583211Y-64030424D01*
X72621544Y-64060797D01*
X72622533Y-64063916D01*
X72606344Y-64097160D01*
G36*
X67170000Y-61416933D02*
G01*
X67170000Y-60908933D01*
X70759866Y-60908933D01*
X70759866Y-61416933D01*
X67170000Y-61416933D01*
G37*
X67170000Y-61416933D02*
X67170000Y-60908933D01*
X70759866Y-60908933D01*
X70759866Y-61416933D01*
X67170000Y-61416933D01*
G36*
X67638214Y-66786981D02*
G01*
X67584182Y-66823449D01*
X67490141Y-66873324D01*
X67401566Y-66914562D01*
X67209799Y-66998582D01*
X66360166Y-65582125D01*
X66191534Y-65300378D01*
X66034030Y-65036034D01*
X65891011Y-64794812D01*
X65765834Y-64582434D01*
X65661858Y-64404617D01*
X65582440Y-64267081D01*
X65530937Y-64175546D01*
X65510707Y-64135730D01*
X65510533Y-64134815D01*
X65538627Y-64105736D01*
X65612767Y-64057517D01*
X65717735Y-63999915D01*
X65733021Y-63992161D01*
X65846307Y-63940749D01*
X65934350Y-63911173D01*
X65980992Y-63908737D01*
X65982748Y-63910181D01*
X66005078Y-63944435D01*
X66058571Y-64031116D01*
X66139744Y-64164451D01*
X66245112Y-64338665D01*
X66371191Y-64547984D01*
X66514498Y-64786635D01*
X66671548Y-65048843D01*
X66838857Y-65328835D01*
X66846541Y-65341710D01*
X67043122Y-65671824D01*
X67206892Y-65948664D01*
X67340336Y-66176765D01*
X67445939Y-66360665D01*
X67526185Y-66504898D01*
X67583559Y-66614001D01*
X67620546Y-66692511D01*
X67639630Y-66744962D01*
X67643297Y-66775891D01*
X67638214Y-66786981D01*
G37*
X67638214Y-66786981D02*
X67584182Y-66823449D01*
X67490141Y-66873324D01*
X67401566Y-66914562D01*
X67209799Y-66998582D01*
X66360166Y-65582125D01*
X66191534Y-65300378D01*
X66034030Y-65036034D01*
X65891011Y-64794812D01*
X65765834Y-64582434D01*
X65661858Y-64404617D01*
X65582440Y-64267081D01*
X65530937Y-64175546D01*
X65510707Y-64135730D01*
X65510533Y-64134815D01*
X65538627Y-64105736D01*
X65612767Y-64057517D01*
X65717735Y-63999915D01*
X65733021Y-63992161D01*
X65846307Y-63940749D01*
X65934350Y-63911173D01*
X65980992Y-63908737D01*
X65982748Y-63910181D01*
X66005078Y-63944435D01*
X66058571Y-64031116D01*
X66139744Y-64164451D01*
X66245112Y-64338665D01*
X66371191Y-64547984D01*
X66514498Y-64786635D01*
X66671548Y-65048843D01*
X66838857Y-65328835D01*
X66846541Y-65341710D01*
X67043122Y-65671824D01*
X67206892Y-65948664D01*
X67340336Y-66176765D01*
X67445939Y-66360665D01*
X67526185Y-66504898D01*
X67583559Y-66614001D01*
X67620546Y-66692511D01*
X67639630Y-66744962D01*
X67643297Y-66775891D01*
X67638214Y-66786981D01*
G36*
X77499333Y-69375600D02*
G01*
X77499333Y-70154533D01*
X78244400Y-70154533D01*
X78244400Y-70459333D01*
X76415600Y-70459333D01*
X76415600Y-70154533D01*
X77228400Y-70154533D01*
X77228400Y-69375600D01*
X76415600Y-69375600D01*
X76415600Y-69070800D01*
X78244400Y-69070800D01*
X78244400Y-69375600D01*
X77499333Y-69375600D01*
G37*
X77499333Y-69375600D02*
X77499333Y-70154533D01*
X78244400Y-70154533D01*
X78244400Y-70459333D01*
X76415600Y-70459333D01*
X76415600Y-70154533D01*
X77228400Y-70154533D01*
X77228400Y-69375600D01*
X76415600Y-69375600D01*
X76415600Y-69070800D01*
X78244400Y-69070800D01*
X78244400Y-69375600D01*
X77499333Y-69375600D01*
G36*
X78213724Y-68140180D02*
G01*
X78122552Y-68332265D01*
X77986759Y-68489466D01*
X77978892Y-68496080D01*
X77797013Y-68605823D01*
X77579541Y-68672974D01*
X77343742Y-68697294D01*
X77106879Y-68678546D01*
X76886218Y-68616490D01*
X76702695Y-68513707D01*
X76564337Y-68370093D01*
X76462464Y-68187727D01*
X76404134Y-67986373D01*
X76396405Y-67785792D01*
X76411793Y-67699200D01*
X76492568Y-67503052D01*
X76620646Y-67329099D01*
X76781876Y-67192705D01*
X76952672Y-67111971D01*
X77088075Y-67086706D01*
X77261829Y-67074961D01*
X77330000Y-67075617D01*
X77330000Y-67396356D01*
X77101400Y-67414843D01*
X76923039Y-67472275D01*
X76787775Y-67571607D01*
X76729313Y-67644941D01*
X76664016Y-67799296D01*
X76664069Y-67961255D01*
X76725633Y-68114068D01*
X76833628Y-68233803D01*
X76986771Y-68312696D01*
X77189877Y-68352705D01*
X77327774Y-68358856D01*
X77557022Y-68337917D01*
X77744861Y-68276115D01*
X77886031Y-68177175D01*
X77975268Y-68044819D01*
X78007310Y-67882771D01*
X78007333Y-67878011D01*
X77976611Y-67717219D01*
X77888420Y-67584419D01*
X77748724Y-67483854D01*
X77563487Y-67419762D01*
X77338672Y-67396385D01*
X77330000Y-67396356D01*
X77330000Y-67075617D01*
X77445915Y-67076735D01*
X77612315Y-67092029D01*
X77707327Y-67111971D01*
X77859312Y-67184566D01*
X78009249Y-67302120D01*
X78134552Y-67445045D01*
X78183591Y-67525039D01*
X78247836Y-67719524D01*
X78256682Y-67930252D01*
X78213724Y-68140180D01*
G37*
X78213724Y-68140180D02*
X78122552Y-68332265D01*
X77986759Y-68489466D01*
X77978892Y-68496080D01*
X77797013Y-68605823D01*
X77579541Y-68672974D01*
X77343742Y-68697294D01*
X77106879Y-68678546D01*
X76886218Y-68616490D01*
X76702695Y-68513707D01*
X76564337Y-68370093D01*
X76462464Y-68187727D01*
X76404134Y-67986373D01*
X76396405Y-67785792D01*
X76411793Y-67699200D01*
X76492568Y-67503052D01*
X76620646Y-67329099D01*
X76781876Y-67192705D01*
X76952672Y-67111971D01*
X77088075Y-67086706D01*
X77261829Y-67074961D01*
X77330000Y-67075617D01*
X77330000Y-67396356D01*
X77101400Y-67414843D01*
X76923039Y-67472275D01*
X76787775Y-67571607D01*
X76729313Y-67644941D01*
X76664016Y-67799296D01*
X76664069Y-67961255D01*
X76725633Y-68114068D01*
X76833628Y-68233803D01*
X76986771Y-68312696D01*
X77189877Y-68352705D01*
X77327774Y-68358856D01*
X77557022Y-68337917D01*
X77744861Y-68276115D01*
X77886031Y-68177175D01*
X77975268Y-68044819D01*
X78007310Y-67882771D01*
X78007333Y-67878011D01*
X77976611Y-67717219D01*
X77888420Y-67584419D01*
X77748724Y-67483854D01*
X77563487Y-67419762D01*
X77338672Y-67396385D01*
X77330000Y-67396356D01*
X77330000Y-67075617D01*
X77445915Y-67076735D01*
X77612315Y-67092029D01*
X77707327Y-67111971D01*
X77859312Y-67184566D01*
X78009249Y-67302120D01*
X78134552Y-67445045D01*
X78183591Y-67525039D01*
X78247836Y-67719524D01*
X78256682Y-67930252D01*
X78213724Y-68140180D01*
G36*
X78213724Y-66175913D02*
G01*
X78122552Y-66367999D01*
X77986759Y-66525199D01*
X77978892Y-66531814D01*
X77797013Y-66641556D01*
X77579541Y-66708707D01*
X77343742Y-66733028D01*
X77106879Y-66714279D01*
X76886218Y-66652223D01*
X76702695Y-66549440D01*
X76564337Y-66405827D01*
X76462464Y-66223461D01*
X76404134Y-66022106D01*
X76396405Y-65821526D01*
X76411793Y-65734933D01*
X76492568Y-65538786D01*
X76620646Y-65364833D01*
X76781876Y-65228439D01*
X76952672Y-65147704D01*
X77088075Y-65122440D01*
X77261829Y-65110694D01*
X77330000Y-65111351D01*
X77330000Y-65432090D01*
X77101400Y-65450577D01*
X76923039Y-65508008D01*
X76787775Y-65607340D01*
X76729313Y-65680675D01*
X76664016Y-65835029D01*
X76664069Y-65996988D01*
X76725633Y-66149801D01*
X76833628Y-66269536D01*
X76986771Y-66348430D01*
X77189877Y-66388438D01*
X77327774Y-66394589D01*
X77557022Y-66373650D01*
X77744861Y-66311849D01*
X77886031Y-66212908D01*
X77975268Y-66080552D01*
X78007310Y-65918504D01*
X78007333Y-65913744D01*
X77976611Y-65752952D01*
X77888420Y-65620153D01*
X77748724Y-65519587D01*
X77563487Y-65455495D01*
X77338672Y-65432118D01*
X77330000Y-65432090D01*
X77330000Y-65111351D01*
X77445915Y-65112469D01*
X77612315Y-65127762D01*
X77707327Y-65147704D01*
X77859312Y-65220300D01*
X78009249Y-65337854D01*
X78134552Y-65480778D01*
X78183591Y-65560772D01*
X78247836Y-65755257D01*
X78256682Y-65965985D01*
X78213724Y-66175913D01*
G37*
X78213724Y-66175913D02*
X78122552Y-66367999D01*
X77986759Y-66525199D01*
X77978892Y-66531814D01*
X77797013Y-66641556D01*
X77579541Y-66708707D01*
X77343742Y-66733028D01*
X77106879Y-66714279D01*
X76886218Y-66652223D01*
X76702695Y-66549440D01*
X76564337Y-66405827D01*
X76462464Y-66223461D01*
X76404134Y-66022106D01*
X76396405Y-65821526D01*
X76411793Y-65734933D01*
X76492568Y-65538786D01*
X76620646Y-65364833D01*
X76781876Y-65228439D01*
X76952672Y-65147704D01*
X77088075Y-65122440D01*
X77261829Y-65110694D01*
X77330000Y-65111351D01*
X77330000Y-65432090D01*
X77101400Y-65450577D01*
X76923039Y-65508008D01*
X76787775Y-65607340D01*
X76729313Y-65680675D01*
X76664016Y-65835029D01*
X76664069Y-65996988D01*
X76725633Y-66149801D01*
X76833628Y-66269536D01*
X76986771Y-66348430D01*
X77189877Y-66388438D01*
X77327774Y-66394589D01*
X77557022Y-66373650D01*
X77744861Y-66311849D01*
X77886031Y-66212908D01*
X77975268Y-66080552D01*
X78007310Y-65918504D01*
X78007333Y-65913744D01*
X77976611Y-65752952D01*
X77888420Y-65620153D01*
X77748724Y-65519587D01*
X77563487Y-65455495D01*
X77338672Y-65432118D01*
X77330000Y-65432090D01*
X77330000Y-65111351D01*
X77445915Y-65112469D01*
X77612315Y-65127762D01*
X77707327Y-65147704D01*
X77859312Y-65220300D01*
X78009249Y-65337854D01*
X78134552Y-65480778D01*
X78183591Y-65560772D01*
X78247836Y-65755257D01*
X78256682Y-65965985D01*
X78213724Y-66175913D01*
G36*
X78246729Y-64236088D02*
G01*
X78240470Y-64268176D01*
X78169186Y-64450156D01*
X78044821Y-64604928D01*
X77880636Y-64718943D01*
X77752882Y-64766314D01*
X77636683Y-64787050D01*
X77569625Y-64771484D01*
X77539646Y-64712332D01*
X77534237Y-64634267D01*
X77545980Y-64544555D01*
X77591477Y-64486235D01*
X77686134Y-64441719D01*
X77709892Y-64433714D01*
X77855264Y-64355904D01*
X77957072Y-64238041D01*
X78004980Y-64093392D01*
X78007333Y-64051950D01*
X77997790Y-63956960D01*
X77960215Y-63878559D01*
X77881189Y-63788956D01*
X77879570Y-63787334D01*
X77724384Y-63675717D01*
X77535438Y-63606459D01*
X77329507Y-63579810D01*
X77123368Y-63596019D01*
X76933796Y-63655336D01*
X76777567Y-63758008D01*
X76764322Y-63770771D01*
X76695568Y-63849183D01*
X76662557Y-63924116D01*
X76652891Y-64027395D01*
X76652667Y-64057373D01*
X76659620Y-64172647D01*
X76677297Y-64268679D01*
X76689266Y-64300705D01*
X76747770Y-64360735D01*
X76847187Y-64421873D01*
X76962104Y-64471488D01*
X77067109Y-64496950D01*
X77086322Y-64498056D01*
X77133100Y-64504585D01*
X77154188Y-64534758D01*
X77156988Y-64606231D01*
X77154055Y-64659667D01*
X77145308Y-64756362D01*
X77127182Y-64802217D01*
X77087260Y-64814056D01*
X77042133Y-64811335D01*
X76836340Y-64764420D01*
X76657069Y-64668714D01*
X76516419Y-64533371D01*
X76426492Y-64367546D01*
X76417636Y-64338859D01*
X76386467Y-64137369D01*
X76395357Y-63927358D01*
X76431487Y-63774892D01*
X76528434Y-63597990D01*
X76674273Y-63454822D01*
X76857856Y-63347765D01*
X77068037Y-63279195D01*
X77293669Y-63251490D01*
X77523605Y-63267028D01*
X77746699Y-63328185D01*
X77951803Y-63437338D01*
X77966241Y-63447592D01*
X78116997Y-63596829D01*
X78216024Y-63784055D01*
X78260281Y-64000174D01*
X78246729Y-64236088D01*
G37*
X78246729Y-64236088D02*
X78240470Y-64268176D01*
X78169186Y-64450156D01*
X78044821Y-64604928D01*
X77880636Y-64718943D01*
X77752882Y-64766314D01*
X77636683Y-64787050D01*
X77569625Y-64771484D01*
X77539646Y-64712332D01*
X77534237Y-64634267D01*
X77545980Y-64544555D01*
X77591477Y-64486235D01*
X77686134Y-64441719D01*
X77709892Y-64433714D01*
X77855264Y-64355904D01*
X77957072Y-64238041D01*
X78004980Y-64093392D01*
X78007333Y-64051950D01*
X77997790Y-63956960D01*
X77960215Y-63878559D01*
X77881189Y-63788956D01*
X77879570Y-63787334D01*
X77724384Y-63675717D01*
X77535438Y-63606459D01*
X77329507Y-63579810D01*
X77123368Y-63596019D01*
X76933796Y-63655336D01*
X76777567Y-63758008D01*
X76764322Y-63770771D01*
X76695568Y-63849183D01*
X76662557Y-63924116D01*
X76652891Y-64027395D01*
X76652667Y-64057373D01*
X76659620Y-64172647D01*
X76677297Y-64268679D01*
X76689266Y-64300705D01*
X76747770Y-64360735D01*
X76847187Y-64421873D01*
X76962104Y-64471488D01*
X77067109Y-64496950D01*
X77086322Y-64498056D01*
X77133100Y-64504585D01*
X77154188Y-64534758D01*
X77156988Y-64606231D01*
X77154055Y-64659667D01*
X77145308Y-64756362D01*
X77127182Y-64802217D01*
X77087260Y-64814056D01*
X77042133Y-64811335D01*
X76836340Y-64764420D01*
X76657069Y-64668714D01*
X76516419Y-64533371D01*
X76426492Y-64367546D01*
X76417636Y-64338859D01*
X76386467Y-64137369D01*
X76395357Y-63927358D01*
X76431487Y-63774892D01*
X76528434Y-63597990D01*
X76674273Y-63454822D01*
X76857856Y-63347765D01*
X77068037Y-63279195D01*
X77293669Y-63251490D01*
X77523605Y-63267028D01*
X77746699Y-63328185D01*
X77951803Y-63437338D01*
X77966241Y-63447592D01*
X78116997Y-63596829D01*
X78216024Y-63784055D01*
X78260281Y-64000174D01*
X78246729Y-64236088D01*
G36*
X73266000Y-72660667D02*
G01*
X73266000Y-73439600D01*
X74011066Y-73439600D01*
X74011066Y-73744400D01*
X72182267Y-73744400D01*
X72182267Y-73439600D01*
X72995067Y-73439600D01*
X72995067Y-72660667D01*
X72182267Y-72660667D01*
X72182267Y-72355867D01*
X74011066Y-72355867D01*
X74011066Y-72660667D01*
X73266000Y-72660667D01*
G37*
X73266000Y-72660667D02*
X73266000Y-73439600D01*
X74011066Y-73439600D01*
X74011066Y-73744400D01*
X72182267Y-73744400D01*
X72182267Y-73439600D01*
X72995067Y-73439600D01*
X72995067Y-72660667D01*
X72182267Y-72660667D01*
X72182267Y-72355867D01*
X74011066Y-72355867D01*
X74011066Y-72660667D01*
X73266000Y-72660667D01*
G36*
X73980390Y-71425246D02*
G01*
X73889218Y-71617332D01*
X73753426Y-71774533D01*
X73745559Y-71781147D01*
X73563680Y-71890890D01*
X73346208Y-71958040D01*
X73110408Y-71982361D01*
X72873545Y-71963612D01*
X72652885Y-71901556D01*
X72469361Y-71798774D01*
X72331003Y-71655160D01*
X72229130Y-71472794D01*
X72170800Y-71271439D01*
X72163072Y-71070859D01*
X72178459Y-70984267D01*
X72259234Y-70788119D01*
X72387312Y-70614166D01*
X72548542Y-70477772D01*
X72719339Y-70397037D01*
X72854741Y-70371773D01*
X73028495Y-70360028D01*
X73096667Y-70360684D01*
X73096667Y-70681423D01*
X72868067Y-70699910D01*
X72689706Y-70757342D01*
X72554441Y-70856674D01*
X72495980Y-70930008D01*
X72430682Y-71084363D01*
X72430736Y-71246322D01*
X72492300Y-71399135D01*
X72600294Y-71518870D01*
X72753438Y-71597763D01*
X72956544Y-71637772D01*
X73094441Y-71643923D01*
X73323688Y-71622984D01*
X73511528Y-71561182D01*
X73652697Y-71462241D01*
X73741935Y-71329885D01*
X73773977Y-71167837D01*
X73774000Y-71163077D01*
X73743278Y-71002285D01*
X73655087Y-70869486D01*
X73515391Y-70768920D01*
X73330154Y-70704828D01*
X73105339Y-70681452D01*
X73096667Y-70681423D01*
X73096667Y-70360684D01*
X73212582Y-70361802D01*
X73378982Y-70377095D01*
X73473994Y-70397037D01*
X73625979Y-70469633D01*
X73775915Y-70587187D01*
X73901218Y-70730112D01*
X73950257Y-70810105D01*
X74014502Y-71004591D01*
X74023349Y-71215319D01*
X73980390Y-71425246D01*
G37*
X73980390Y-71425246D02*
X73889218Y-71617332D01*
X73753426Y-71774533D01*
X73745559Y-71781147D01*
X73563680Y-71890890D01*
X73346208Y-71958040D01*
X73110408Y-71982361D01*
X72873545Y-71963612D01*
X72652885Y-71901556D01*
X72469361Y-71798774D01*
X72331003Y-71655160D01*
X72229130Y-71472794D01*
X72170800Y-71271439D01*
X72163072Y-71070859D01*
X72178459Y-70984267D01*
X72259234Y-70788119D01*
X72387312Y-70614166D01*
X72548542Y-70477772D01*
X72719339Y-70397037D01*
X72854741Y-70371773D01*
X73028495Y-70360028D01*
X73096667Y-70360684D01*
X73096667Y-70681423D01*
X72868067Y-70699910D01*
X72689706Y-70757342D01*
X72554441Y-70856674D01*
X72495980Y-70930008D01*
X72430682Y-71084363D01*
X72430736Y-71246322D01*
X72492300Y-71399135D01*
X72600294Y-71518870D01*
X72753438Y-71597763D01*
X72956544Y-71637772D01*
X73094441Y-71643923D01*
X73323688Y-71622984D01*
X73511528Y-71561182D01*
X73652697Y-71462241D01*
X73741935Y-71329885D01*
X73773977Y-71167837D01*
X73774000Y-71163077D01*
X73743278Y-71002285D01*
X73655087Y-70869486D01*
X73515391Y-70768920D01*
X73330154Y-70704828D01*
X73105339Y-70681452D01*
X73096667Y-70681423D01*
X73096667Y-70360684D01*
X73212582Y-70361802D01*
X73378982Y-70377095D01*
X73473994Y-70397037D01*
X73625979Y-70469633D01*
X73775915Y-70587187D01*
X73901218Y-70730112D01*
X73950257Y-70810105D01*
X74014502Y-71004591D01*
X74023349Y-71215319D01*
X73980390Y-71425246D01*
G36*
X73353234Y-64278667D02*
G01*
X72414989Y-65920264D01*
X72210398Y-66278769D01*
X72037459Y-66583207D01*
X71893800Y-66838077D01*
X71777045Y-67047879D01*
X71684821Y-67217111D01*
X71614755Y-67350273D01*
X71564470Y-67451864D01*
X71531595Y-67526382D01*
X71513755Y-67578328D01*
X71508575Y-67612200D01*
X71512554Y-67630531D01*
X71537315Y-67675127D01*
X71591743Y-67771288D01*
X71671752Y-67911856D01*
X71773254Y-68089671D01*
X71892164Y-68297573D01*
X72024396Y-68528405D01*
X72151039Y-68749181D01*
X72291130Y-68993753D01*
X72420889Y-69221258D01*
X72536340Y-69424653D01*
X72633510Y-69596894D01*
X72708422Y-69730937D01*
X72757104Y-69819739D01*
X72775251Y-69855281D01*
X72772078Y-69893652D01*
X72728224Y-69939616D01*
X72634977Y-70000963D01*
X72571718Y-70037266D01*
X72453834Y-70097366D01*
X72364719Y-70131394D01*
X72317986Y-70134235D01*
X72316646Y-70133126D01*
X72293424Y-70097745D01*
X72240602Y-70010322D01*
X72162150Y-69877647D01*
X72062040Y-69706505D01*
X71944242Y-69503684D01*
X71812728Y-69275973D01*
X71675175Y-69036628D01*
X71063709Y-67970133D01*
X68994374Y-67953200D01*
X66925040Y-67936266D01*
X65726720Y-65980111D01*
X65524292Y-65649537D01*
X65332614Y-65336267D01*
X65154567Y-65045027D01*
X64993030Y-64780540D01*
X64850886Y-64547531D01*
X64731015Y-64350725D01*
X64636298Y-64194845D01*
X64569616Y-64084616D01*
X64533851Y-64024763D01*
X64528400Y-64015011D01*
X64544792Y-63984891D01*
X64592139Y-63900823D01*
X64667698Y-63767618D01*
X64768727Y-63590083D01*
X64892482Y-63373029D01*
X65036220Y-63121264D01*
X65197199Y-62839597D01*
X65372675Y-62532836D01*
X65559905Y-62205792D01*
X65667918Y-62017234D01*
X66807435Y-60028400D01*
X69029184Y-60029627D01*
X71047733Y-60030742D01*
X71047733Y-60572035D01*
X69053172Y-60579617D01*
X67058612Y-60587200D01*
X66085291Y-62297467D01*
X65111971Y-64007733D01*
X65174301Y-64126266D01*
X65202890Y-64177566D01*
X65262202Y-64281535D01*
X65348854Y-64432321D01*
X65459464Y-64624075D01*
X65590650Y-64850943D01*
X65739030Y-65107075D01*
X65901224Y-65386619D01*
X66073848Y-65683723D01*
X66162725Y-65836533D01*
X67088821Y-67428266D01*
X69085210Y-67435803D01*
X71081600Y-67443339D01*
X72046800Y-65749508D01*
X72223887Y-65438236D01*
X72390842Y-65143802D01*
X72544649Y-64871592D01*
X72682292Y-64626990D01*
X72800754Y-64415380D01*
X72897019Y-64242147D01*
X72968070Y-64112676D01*
X73010893Y-64032351D01*
X73022783Y-64007169D01*
X73008056Y-63969840D01*
X72961840Y-63879531D01*
X72887136Y-63741561D01*
X72786940Y-63561246D01*
X72664251Y-63343903D01*
X72522068Y-63094850D01*
X72363388Y-62819406D01*
X72191210Y-62522886D01*
X72040650Y-62265348D01*
X71047733Y-60572035D01*
X71047733Y-60030742D01*
X71250933Y-60030855D01*
X72334667Y-61892244D01*
X73418400Y-63753633D01*
X76110800Y-63753733D01*
X76110800Y-64260973D01*
X73353234Y-64278667D01*
G37*
X73353234Y-64278667D02*
X72414989Y-65920264D01*
X72210398Y-66278769D01*
X72037459Y-66583207D01*
X71893800Y-66838077D01*
X71777045Y-67047879D01*
X71684821Y-67217111D01*
X71614755Y-67350273D01*
X71564470Y-67451864D01*
X71531595Y-67526382D01*
X71513755Y-67578328D01*
X71508575Y-67612200D01*
X71512554Y-67630531D01*
X71537315Y-67675127D01*
X71591743Y-67771288D01*
X71671752Y-67911856D01*
X71773254Y-68089671D01*
X71892164Y-68297573D01*
X72024396Y-68528405D01*
X72151039Y-68749181D01*
X72291130Y-68993753D01*
X72420889Y-69221258D01*
X72536340Y-69424653D01*
X72633510Y-69596894D01*
X72708422Y-69730937D01*
X72757104Y-69819739D01*
X72775251Y-69855281D01*
X72772078Y-69893652D01*
X72728224Y-69939616D01*
X72634977Y-70000963D01*
X72571718Y-70037266D01*
X72453834Y-70097366D01*
X72364719Y-70131394D01*
X72317986Y-70134235D01*
X72316646Y-70133126D01*
X72293424Y-70097745D01*
X72240602Y-70010322D01*
X72162150Y-69877647D01*
X72062040Y-69706505D01*
X71944242Y-69503684D01*
X71812728Y-69275973D01*
X71675175Y-69036628D01*
X71063709Y-67970133D01*
X68994374Y-67953200D01*
X66925040Y-67936266D01*
X65726720Y-65980111D01*
X65524292Y-65649537D01*
X65332614Y-65336267D01*
X65154567Y-65045027D01*
X64993030Y-64780540D01*
X64850886Y-64547531D01*
X64731015Y-64350725D01*
X64636298Y-64194845D01*
X64569616Y-64084616D01*
X64533851Y-64024763D01*
X64528400Y-64015011D01*
X64544792Y-63984891D01*
X64592139Y-63900823D01*
X64667698Y-63767618D01*
X64768727Y-63590083D01*
X64892482Y-63373029D01*
X65036220Y-63121264D01*
X65197199Y-62839597D01*
X65372675Y-62532836D01*
X65559905Y-62205792D01*
X65667918Y-62017234D01*
X66807435Y-60028400D01*
X69029184Y-60029627D01*
X71047733Y-60030742D01*
X71047733Y-60572035D01*
X69053172Y-60579617D01*
X67058612Y-60587200D01*
X66085291Y-62297467D01*
X65111971Y-64007733D01*
X65174301Y-64126266D01*
X65202890Y-64177566D01*
X65262202Y-64281535D01*
X65348854Y-64432321D01*
X65459464Y-64624075D01*
X65590650Y-64850943D01*
X65739030Y-65107075D01*
X65901224Y-65386619D01*
X66073848Y-65683723D01*
X66162725Y-65836533D01*
X67088821Y-67428266D01*
X69085210Y-67435803D01*
X71081600Y-67443339D01*
X72046800Y-65749508D01*
X72223887Y-65438236D01*
X72390842Y-65143802D01*
X72544649Y-64871592D01*
X72682292Y-64626990D01*
X72800754Y-64415380D01*
X72897019Y-64242147D01*
X72968070Y-64112676D01*
X73010893Y-64032351D01*
X73022783Y-64007169D01*
X73008056Y-63969840D01*
X72961840Y-63879531D01*
X72887136Y-63741561D01*
X72786940Y-63561246D01*
X72664251Y-63343903D01*
X72522068Y-63094850D01*
X72363388Y-62819406D01*
X72191210Y-62522886D01*
X72040650Y-62265348D01*
X71047733Y-60572035D01*
X71047733Y-60030742D01*
X71250933Y-60030855D01*
X72334667Y-61892244D01*
X73418400Y-63753633D01*
X76110800Y-63753733D01*
X76110800Y-64260973D01*
X73353234Y-64278667D01*
G36*
X183966410Y-87129575D02*
G01*
X183958439Y-87149374D01*
X183874876Y-87322650D01*
X183782091Y-87424153D01*
X183650088Y-87464786D01*
X183448872Y-87455452D01*
X183216455Y-87419082D01*
X182807025Y-87338597D01*
X182371680Y-87233734D01*
X181870655Y-87094657D01*
X181693500Y-87042377D01*
X181139377Y-86881672D01*
X180675917Y-86759819D01*
X180274568Y-86671887D01*
X179906777Y-86612947D01*
X179543991Y-86578070D01*
X179157659Y-86562326D01*
X178899500Y-86560012D01*
X178270430Y-86579630D01*
X177684801Y-86643732D01*
X177103739Y-86759722D01*
X176488369Y-86935003D01*
X175946750Y-87122340D01*
X175773185Y-87188973D01*
X175504551Y-87295686D01*
X175162889Y-87433418D01*
X174770239Y-87593113D01*
X174348642Y-87765710D01*
X173920138Y-87942151D01*
X173506768Y-88113378D01*
X173130572Y-88270331D01*
X172813590Y-88403952D01*
X172577862Y-88505183D01*
X172517750Y-88531678D01*
X172162321Y-88670554D01*
X171718253Y-88814112D01*
X171223031Y-88952122D01*
X170714138Y-89074355D01*
X170229058Y-89170579D01*
X170097173Y-89192317D01*
X169263842Y-89276353D01*
X168429666Y-89265471D01*
X167578225Y-89157315D01*
X166693098Y-88949528D01*
X165757865Y-88639754D01*
X165469250Y-88528246D01*
X165221823Y-88422022D01*
X164901632Y-88273539D01*
X164541133Y-88098997D01*
X164172784Y-87914595D01*
X163829039Y-87736533D01*
X163542356Y-87581009D01*
X163373750Y-87482364D01*
X162899377Y-87140057D01*
X162524669Y-86769381D01*
X162258152Y-86380821D01*
X162108352Y-85984862D01*
X162093541Y-85908136D01*
X162083661Y-85742472D01*
X162133076Y-85650767D01*
X162175815Y-85623021D01*
X162496704Y-85523433D01*
X162897634Y-85520320D01*
X163379257Y-85613769D01*
X163942228Y-85803872D01*
X164167500Y-85897093D01*
X164613484Y-86076958D01*
X165045254Y-86221328D01*
X165484087Y-86333543D01*
X165951257Y-86416945D01*
X166468039Y-86474874D01*
X167055708Y-86510671D01*
X167735540Y-86527676D01*
X168199750Y-86530250D01*
X168781635Y-86527062D01*
X169273379Y-86513599D01*
X169698125Y-86484016D01*
X170079016Y-86432463D01*
X170439194Y-86353093D01*
X170801804Y-86240060D01*
X171189986Y-86087516D01*
X171626886Y-85889613D01*
X172135644Y-85640504D01*
X172549500Y-85431217D01*
X173278441Y-85072099D01*
X173927369Y-84781402D01*
X174518981Y-84552849D01*
X175075973Y-84380162D01*
X175621041Y-84257065D01*
X176176883Y-84177278D01*
X176766193Y-84134525D01*
X177280250Y-84122750D01*
X178302026Y-84162988D01*
X179271298Y-84298880D01*
X180207739Y-84536066D01*
X181131020Y-84880185D01*
X182060813Y-85336877D01*
X182596519Y-85646845D01*
X183069938Y-85943914D01*
X183436626Y-86196948D01*
X183705078Y-86415317D01*
X183883788Y-86608394D01*
X183981250Y-86785548D01*
X184005960Y-86956151D01*
X183966410Y-87129575D01*
G37*
X183966410Y-87129575D02*
X183958439Y-87149374D01*
X183874876Y-87322650D01*
X183782091Y-87424153D01*
X183650088Y-87464786D01*
X183448872Y-87455452D01*
X183216455Y-87419082D01*
X182807025Y-87338597D01*
X182371680Y-87233734D01*
X181870655Y-87094657D01*
X181693500Y-87042377D01*
X181139377Y-86881672D01*
X180675917Y-86759819D01*
X180274568Y-86671887D01*
X179906777Y-86612947D01*
X179543991Y-86578070D01*
X179157659Y-86562326D01*
X178899500Y-86560012D01*
X178270430Y-86579630D01*
X177684801Y-86643732D01*
X177103739Y-86759722D01*
X176488369Y-86935003D01*
X175946750Y-87122340D01*
X175773185Y-87188973D01*
X175504551Y-87295686D01*
X175162889Y-87433418D01*
X174770239Y-87593113D01*
X174348642Y-87765710D01*
X173920138Y-87942151D01*
X173506768Y-88113378D01*
X173130572Y-88270331D01*
X172813590Y-88403952D01*
X172577862Y-88505183D01*
X172517750Y-88531678D01*
X172162321Y-88670554D01*
X171718253Y-88814112D01*
X171223031Y-88952122D01*
X170714138Y-89074355D01*
X170229058Y-89170579D01*
X170097173Y-89192317D01*
X169263842Y-89276353D01*
X168429666Y-89265471D01*
X167578225Y-89157315D01*
X166693098Y-88949528D01*
X165757865Y-88639754D01*
X165469250Y-88528246D01*
X165221823Y-88422022D01*
X164901632Y-88273539D01*
X164541133Y-88098997D01*
X164172784Y-87914595D01*
X163829039Y-87736533D01*
X163542356Y-87581009D01*
X163373750Y-87482364D01*
X162899377Y-87140057D01*
X162524669Y-86769381D01*
X162258152Y-86380821D01*
X162108352Y-85984862D01*
X162093541Y-85908136D01*
X162083661Y-85742472D01*
X162133076Y-85650767D01*
X162175815Y-85623021D01*
X162496704Y-85523433D01*
X162897634Y-85520320D01*
X163379257Y-85613769D01*
X163942228Y-85803872D01*
X164167500Y-85897093D01*
X164613484Y-86076958D01*
X165045254Y-86221328D01*
X165484087Y-86333543D01*
X165951257Y-86416945D01*
X166468039Y-86474874D01*
X167055708Y-86510671D01*
X167735540Y-86527676D01*
X168199750Y-86530250D01*
X168781635Y-86527062D01*
X169273379Y-86513599D01*
X169698125Y-86484016D01*
X170079016Y-86432463D01*
X170439194Y-86353093D01*
X170801804Y-86240060D01*
X171189986Y-86087516D01*
X171626886Y-85889613D01*
X172135644Y-85640504D01*
X172549500Y-85431217D01*
X173278441Y-85072099D01*
X173927369Y-84781402D01*
X174518981Y-84552849D01*
X175075973Y-84380162D01*
X175621041Y-84257065D01*
X176176883Y-84177278D01*
X176766193Y-84134525D01*
X177280250Y-84122750D01*
X178302026Y-84162988D01*
X179271298Y-84298880D01*
X180207739Y-84536066D01*
X181131020Y-84880185D01*
X182060813Y-85336877D01*
X182596519Y-85646845D01*
X183069938Y-85943914D01*
X183436626Y-86196948D01*
X183705078Y-86415317D01*
X183883788Y-86608394D01*
X183981250Y-86785548D01*
X184005960Y-86956151D01*
X183966410Y-87129575D01*
G36*
X183965621Y-100291760D02*
G01*
X183961763Y-100327897D01*
X183924192Y-100513338D01*
X183867438Y-100644908D01*
X183843540Y-100670659D01*
X183726551Y-100699869D01*
X183514206Y-100707083D01*
X183235769Y-100694768D01*
X182920505Y-100665393D01*
X182597679Y-100621428D01*
X182296555Y-100565341D01*
X182138000Y-100526768D01*
X181879823Y-100456428D01*
X181645090Y-100392592D01*
X181481152Y-100348136D01*
X181471250Y-100345461D01*
X181324824Y-100305353D01*
X181096178Y-100242083D01*
X180825383Y-100166754D01*
X180709250Y-100134338D01*
X180265691Y-100013462D01*
X179907731Y-99925866D01*
X179599896Y-99866475D01*
X179306716Y-99830216D01*
X178992719Y-99812015D01*
X178622431Y-99806799D01*
X178423250Y-99807363D01*
X178038232Y-99811956D01*
X177731162Y-99824169D01*
X177465340Y-99849364D01*
X177204065Y-99892904D01*
X176910634Y-99960153D01*
X176548347Y-100056474D01*
X176359500Y-100108935D01*
X175898162Y-100255731D01*
X175335677Y-100465887D01*
X174679264Y-100736541D01*
X173936144Y-101064830D01*
X173851250Y-101103500D01*
X172945099Y-101503802D01*
X172128777Y-101833794D01*
X171388537Y-102096653D01*
X170710632Y-102295557D01*
X170081311Y-102433683D01*
X169486828Y-102514209D01*
X168913434Y-102540313D01*
X168347380Y-102515171D01*
X167945750Y-102468439D01*
X167407660Y-102374139D01*
X166882153Y-102244469D01*
X166337499Y-102069585D01*
X165741971Y-101839644D01*
X165278750Y-101641059D01*
X164514621Y-101286532D01*
X163844972Y-100942057D01*
X163273368Y-100610507D01*
X162803370Y-100294756D01*
X162438544Y-99997680D01*
X162182452Y-99722153D01*
X162038657Y-99471050D01*
X162010723Y-99247245D01*
X162089895Y-99068585D01*
X162282450Y-98896230D01*
X162543162Y-98788386D01*
X162880558Y-98744744D01*
X163303164Y-98764997D01*
X163819509Y-98848837D01*
X164397838Y-98985319D01*
X164826091Y-99096270D01*
X165167706Y-99180209D01*
X165458272Y-99244603D01*
X165733382Y-99296920D01*
X166028625Y-99344626D01*
X166294750Y-99383293D01*
X167296010Y-99504966D01*
X168192168Y-99571701D01*
X168992695Y-99583353D01*
X169707063Y-99539772D01*
X170344744Y-99440811D01*
X170835000Y-99312583D01*
X171540852Y-99067441D01*
X172337425Y-98750922D01*
X173229815Y-98360979D01*
X173406750Y-98280200D01*
X174178420Y-97954690D01*
X174986464Y-97666425D01*
X175784037Y-97430894D01*
X176423000Y-97282887D01*
X176691522Y-97246056D01*
X177044678Y-97220453D01*
X177450492Y-97206064D01*
X177876990Y-97202876D01*
X178292194Y-97210875D01*
X178664130Y-97230045D01*
X178960822Y-97260373D01*
X179090000Y-97284060D01*
X179555127Y-97407845D01*
X180035691Y-97557142D01*
X180484847Y-97716402D01*
X180855747Y-97870074D01*
X180856556Y-97870447D01*
X181059611Y-97962412D01*
X181212791Y-98028660D01*
X181284258Y-98055443D01*
X181285059Y-98055500D01*
X181346454Y-98086718D01*
X181494501Y-98171970D01*
X181707742Y-98298646D01*
X181964718Y-98454138D01*
X181995003Y-98472624D01*
X182482226Y-98782586D01*
X182928015Y-99090090D01*
X183313349Y-99380919D01*
X183619203Y-99640854D01*
X183794044Y-99817195D01*
X183917883Y-99976058D01*
X183968151Y-100113161D01*
X183965621Y-100291760D01*
G37*
X183965621Y-100291760D02*
X183961763Y-100327897D01*
X183924192Y-100513338D01*
X183867438Y-100644908D01*
X183843540Y-100670659D01*
X183726551Y-100699869D01*
X183514206Y-100707083D01*
X183235769Y-100694768D01*
X182920505Y-100665393D01*
X182597679Y-100621428D01*
X182296555Y-100565341D01*
X182138000Y-100526768D01*
X181879823Y-100456428D01*
X181645090Y-100392592D01*
X181481152Y-100348136D01*
X181471250Y-100345461D01*
X181324824Y-100305353D01*
X181096178Y-100242083D01*
X180825383Y-100166754D01*
X180709250Y-100134338D01*
X180265691Y-100013462D01*
X179907731Y-99925866D01*
X179599896Y-99866475D01*
X179306716Y-99830216D01*
X178992719Y-99812015D01*
X178622431Y-99806799D01*
X178423250Y-99807363D01*
X178038232Y-99811956D01*
X177731162Y-99824169D01*
X177465340Y-99849364D01*
X177204065Y-99892904D01*
X176910634Y-99960153D01*
X176548347Y-100056474D01*
X176359500Y-100108935D01*
X175898162Y-100255731D01*
X175335677Y-100465887D01*
X174679264Y-100736541D01*
X173936144Y-101064830D01*
X173851250Y-101103500D01*
X172945099Y-101503802D01*
X172128777Y-101833794D01*
X171388537Y-102096653D01*
X170710632Y-102295557D01*
X170081311Y-102433683D01*
X169486828Y-102514209D01*
X168913434Y-102540313D01*
X168347380Y-102515171D01*
X167945750Y-102468439D01*
X167407660Y-102374139D01*
X166882153Y-102244469D01*
X166337499Y-102069585D01*
X165741971Y-101839644D01*
X165278750Y-101641059D01*
X164514621Y-101286532D01*
X163844972Y-100942057D01*
X163273368Y-100610507D01*
X162803370Y-100294756D01*
X162438544Y-99997680D01*
X162182452Y-99722153D01*
X162038657Y-99471050D01*
X162010723Y-99247245D01*
X162089895Y-99068585D01*
X162282450Y-98896230D01*
X162543162Y-98788386D01*
X162880558Y-98744744D01*
X163303164Y-98764997D01*
X163819509Y-98848837D01*
X164397838Y-98985319D01*
X164826091Y-99096270D01*
X165167706Y-99180209D01*
X165458272Y-99244603D01*
X165733382Y-99296920D01*
X166028625Y-99344626D01*
X166294750Y-99383293D01*
X167296010Y-99504966D01*
X168192168Y-99571701D01*
X168992695Y-99583353D01*
X169707063Y-99539772D01*
X170344744Y-99440811D01*
X170835000Y-99312583D01*
X171540852Y-99067441D01*
X172337425Y-98750922D01*
X173229815Y-98360979D01*
X173406750Y-98280200D01*
X174178420Y-97954690D01*
X174986464Y-97666425D01*
X175784037Y-97430894D01*
X176423000Y-97282887D01*
X176691522Y-97246056D01*
X177044678Y-97220453D01*
X177450492Y-97206064D01*
X177876990Y-97202876D01*
X178292194Y-97210875D01*
X178664130Y-97230045D01*
X178960822Y-97260373D01*
X179090000Y-97284060D01*
X179555127Y-97407845D01*
X180035691Y-97557142D01*
X180484847Y-97716402D01*
X180855747Y-97870074D01*
X180856556Y-97870447D01*
X181059611Y-97962412D01*
X181212791Y-98028660D01*
X181284258Y-98055443D01*
X181285059Y-98055500D01*
X181346454Y-98086718D01*
X181494501Y-98171970D01*
X181707742Y-98298646D01*
X181964718Y-98454138D01*
X181995003Y-98472624D01*
X182482226Y-98782586D01*
X182928015Y-99090090D01*
X183313349Y-99380919D01*
X183619203Y-99640854D01*
X183794044Y-99817195D01*
X183917883Y-99976058D01*
X183968151Y-100113161D01*
X183965621Y-100291760D01*
G36*
X186480929Y-93970260D02*
G01*
X186366388Y-94082125D01*
X186197751Y-94157059D01*
X185893254Y-94232686D01*
X185547427Y-94249129D01*
X185143252Y-94204584D01*
X184663710Y-94097248D01*
X184130910Y-93938107D01*
X183743005Y-93814861D01*
X183431620Y-93725846D01*
X183154679Y-93662666D01*
X182870110Y-93616920D01*
X182535836Y-93580211D01*
X182188945Y-93550462D01*
X181117214Y-93513109D01*
X179993675Y-93565328D01*
X178853053Y-93703738D01*
X177730075Y-93924956D01*
X177343750Y-94022357D01*
X177103851Y-94086486D01*
X176815468Y-94163527D01*
X176613500Y-94217456D01*
X176319712Y-94299400D01*
X176003739Y-94392801D01*
X175819750Y-94450110D01*
X175557984Y-94532735D01*
X175293745Y-94613766D01*
X175153000Y-94655570D01*
X174956346Y-94714477D01*
X174688784Y-94796951D01*
X174400269Y-94887553D01*
X174327500Y-94910691D01*
X174058629Y-94995717D01*
X173814025Y-95071799D01*
X173635106Y-95126096D01*
X173597250Y-95137126D01*
X173439356Y-95182557D01*
X173209725Y-95249128D01*
X172962250Y-95321208D01*
X172682227Y-95398615D01*
X172342781Y-95486196D01*
X172008634Y-95567351D01*
X171946250Y-95581782D01*
X171662692Y-95647110D01*
X171399943Y-95708401D01*
X171201410Y-95755505D01*
X171152500Y-95767409D01*
X171001894Y-95795550D01*
X170759147Y-95830926D01*
X170458565Y-95868888D01*
X170154330Y-95902733D01*
X169218611Y-95940664D01*
X168234487Y-95866565D01*
X167211888Y-95681215D01*
X167152000Y-95667161D01*
X166815417Y-95585856D01*
X166528580Y-95512208D01*
X166265389Y-95437838D01*
X165999742Y-95354367D01*
X165705541Y-95253413D01*
X165356683Y-95126598D01*
X164927070Y-94965542D01*
X164707250Y-94882247D01*
X163991468Y-94605991D01*
X163384638Y-94361151D01*
X162874362Y-94141687D01*
X162448242Y-93941559D01*
X162093880Y-93754728D01*
X161798877Y-93575153D01*
X161550835Y-93396794D01*
X161400819Y-93271486D01*
X161161285Y-93032503D01*
X160961151Y-92782831D01*
X160811853Y-92543051D01*
X160724828Y-92333745D01*
X160711511Y-92175494D01*
X160752942Y-92105516D01*
X160959346Y-91993087D01*
X161238703Y-91900763D01*
X161537054Y-91843923D01*
X161708161Y-91833249D01*
X161905933Y-91847749D01*
X162166174Y-91885424D01*
X162451347Y-91938580D01*
X162723912Y-91999521D01*
X162946333Y-92060553D01*
X163081069Y-92113981D01*
X163082777Y-92115022D01*
X163191693Y-92158626D01*
X163390125Y-92218416D01*
X163643148Y-92285226D01*
X163915834Y-92349889D01*
X164173258Y-92403238D01*
X164199250Y-92408042D01*
X164461255Y-92447023D01*
X164820690Y-92488332D01*
X165248069Y-92529664D01*
X165713906Y-92568717D01*
X166188715Y-92603187D01*
X166643012Y-92630770D01*
X167047309Y-92649164D01*
X167372121Y-92656064D01*
X167374250Y-92656067D01*
X168220010Y-92630013D01*
X169055327Y-92547098D01*
X169902401Y-92402812D01*
X170783433Y-92192642D01*
X171720625Y-91912079D01*
X172676500Y-91578705D01*
X172938056Y-91482758D01*
X173170866Y-91398411D01*
X173337027Y-91339358D01*
X173375000Y-91326335D01*
X173505511Y-91280369D01*
X173717073Y-91203478D01*
X173971870Y-91109453D01*
X174073500Y-91071600D01*
X174319165Y-90980387D01*
X174518411Y-90908843D01*
X174700843Y-90847800D01*
X174896063Y-90788086D01*
X175133672Y-90720532D01*
X175443273Y-90635968D01*
X175724500Y-90560177D01*
X176754208Y-90335473D01*
X177780937Y-90213106D01*
X178789587Y-90192635D01*
X179765054Y-90273619D01*
X180692236Y-90455618D01*
X181534750Y-90729674D01*
X181759547Y-90817829D01*
X181981346Y-90902813D01*
X182011000Y-90913953D01*
X182266600Y-91010999D01*
X182483218Y-91097904D01*
X182692609Y-91188906D01*
X182926526Y-91298244D01*
X183216724Y-91440154D01*
X183504894Y-91583774D01*
X184138397Y-91918510D01*
X184724579Y-92263095D01*
X185249694Y-92607774D01*
X185699992Y-92942796D01*
X186061726Y-93258404D01*
X186321147Y-93544847D01*
X186374234Y-93619486D01*
X186481203Y-93823179D01*
X186480929Y-93970260D01*
G37*
X186480929Y-93970260D02*
X186366388Y-94082125D01*
X186197751Y-94157059D01*
X185893254Y-94232686D01*
X185547427Y-94249129D01*
X185143252Y-94204584D01*
X184663710Y-94097248D01*
X184130910Y-93938107D01*
X183743005Y-93814861D01*
X183431620Y-93725846D01*
X183154679Y-93662666D01*
X182870110Y-93616920D01*
X182535836Y-93580211D01*
X182188945Y-93550462D01*
X181117214Y-93513109D01*
X179993675Y-93565328D01*
X178853053Y-93703738D01*
X177730075Y-93924956D01*
X177343750Y-94022357D01*
X177103851Y-94086486D01*
X176815468Y-94163527D01*
X176613500Y-94217456D01*
X176319712Y-94299400D01*
X176003739Y-94392801D01*
X175819750Y-94450110D01*
X175557984Y-94532735D01*
X175293745Y-94613766D01*
X175153000Y-94655570D01*
X174956346Y-94714477D01*
X174688784Y-94796951D01*
X174400269Y-94887553D01*
X174327500Y-94910691D01*
X174058629Y-94995717D01*
X173814025Y-95071799D01*
X173635106Y-95126096D01*
X173597250Y-95137126D01*
X173439356Y-95182557D01*
X173209725Y-95249128D01*
X172962250Y-95321208D01*
X172682227Y-95398615D01*
X172342781Y-95486196D01*
X172008634Y-95567351D01*
X171946250Y-95581782D01*
X171662692Y-95647110D01*
X171399943Y-95708401D01*
X171201410Y-95755505D01*
X171152500Y-95767409D01*
X171001894Y-95795550D01*
X170759147Y-95830926D01*
X170458565Y-95868888D01*
X170154330Y-95902733D01*
X169218611Y-95940664D01*
X168234487Y-95866565D01*
X167211888Y-95681215D01*
X167152000Y-95667161D01*
X166815417Y-95585856D01*
X166528580Y-95512208D01*
X166265389Y-95437838D01*
X165999742Y-95354367D01*
X165705541Y-95253413D01*
X165356683Y-95126598D01*
X164927070Y-94965542D01*
X164707250Y-94882247D01*
X163991468Y-94605991D01*
X163384638Y-94361151D01*
X162874362Y-94141687D01*
X162448242Y-93941559D01*
X162093880Y-93754728D01*
X161798877Y-93575153D01*
X161550835Y-93396794D01*
X161400819Y-93271486D01*
X161161285Y-93032503D01*
X160961151Y-92782831D01*
X160811853Y-92543051D01*
X160724828Y-92333745D01*
X160711511Y-92175494D01*
X160752942Y-92105516D01*
X160959346Y-91993087D01*
X161238703Y-91900763D01*
X161537054Y-91843923D01*
X161708161Y-91833249D01*
X161905933Y-91847749D01*
X162166174Y-91885424D01*
X162451347Y-91938580D01*
X162723912Y-91999521D01*
X162946333Y-92060553D01*
X163081069Y-92113981D01*
X163082777Y-92115022D01*
X163191693Y-92158626D01*
X163390125Y-92218416D01*
X163643148Y-92285226D01*
X163915834Y-92349889D01*
X164173258Y-92403238D01*
X164199250Y-92408042D01*
X164461255Y-92447023D01*
X164820690Y-92488332D01*
X165248069Y-92529664D01*
X165713906Y-92568717D01*
X166188715Y-92603187D01*
X166643012Y-92630770D01*
X167047309Y-92649164D01*
X167372121Y-92656064D01*
X167374250Y-92656067D01*
X168220010Y-92630013D01*
X169055327Y-92547098D01*
X169902401Y-92402812D01*
X170783433Y-92192642D01*
X171720625Y-91912079D01*
X172676500Y-91578705D01*
X172938056Y-91482758D01*
X173170866Y-91398411D01*
X173337027Y-91339358D01*
X173375000Y-91326335D01*
X173505511Y-91280369D01*
X173717073Y-91203478D01*
X173971870Y-91109453D01*
X174073500Y-91071600D01*
X174319165Y-90980387D01*
X174518411Y-90908843D01*
X174700843Y-90847800D01*
X174896063Y-90788086D01*
X175133672Y-90720532D01*
X175443273Y-90635968D01*
X175724500Y-90560177D01*
X176754208Y-90335473D01*
X177780937Y-90213106D01*
X178789587Y-90192635D01*
X179765054Y-90273619D01*
X180692236Y-90455618D01*
X181534750Y-90729674D01*
X181759547Y-90817829D01*
X181981346Y-90902813D01*
X182011000Y-90913953D01*
X182266600Y-91010999D01*
X182483218Y-91097904D01*
X182692609Y-91188906D01*
X182926526Y-91298244D01*
X183216724Y-91440154D01*
X183504894Y-91583774D01*
X184138397Y-91918510D01*
X184724579Y-92263095D01*
X185249694Y-92607774D01*
X185699992Y-92942796D01*
X186061726Y-93258404D01*
X186321147Y-93544847D01*
X186374234Y-93619486D01*
X186481203Y-93823179D01*
X186480929Y-93970260D01*
G36*
X169134831Y-81714384D02*
G01*
X169116177Y-81742072D01*
X168955009Y-81883296D01*
X168743566Y-81921736D01*
X168479335Y-81856181D01*
X168159807Y-81685422D01*
X167782469Y-81408246D01*
X167344810Y-81023444D01*
X167064928Y-80753039D01*
X166661684Y-80367226D01*
X166305861Y-80064623D01*
X165968781Y-79826764D01*
X165621766Y-79635185D01*
X165236137Y-79471421D01*
X164885047Y-79349480D01*
X164127789Y-79169053D01*
X163358725Y-79108974D01*
X162589958Y-79164859D01*
X161833588Y-79332325D01*
X161101716Y-79606990D01*
X160406443Y-79984470D01*
X159759872Y-80460384D01*
X159174101Y-81030348D01*
X158740478Y-81574931D01*
X158365859Y-82169025D01*
X158001608Y-82869211D01*
X157656074Y-83654598D01*
X157337604Y-84504294D01*
X157054547Y-85397408D01*
X156815250Y-86313048D01*
X156773053Y-86498500D01*
X156712291Y-86771069D01*
X156653601Y-87031907D01*
X156609475Y-87225510D01*
X156608726Y-87228750D01*
X156542580Y-87552534D01*
X156468552Y-87980112D01*
X156389918Y-88488767D01*
X156309960Y-89055784D01*
X156231953Y-89658448D01*
X156159177Y-90274042D01*
X156127593Y-90562500D01*
X156096084Y-90937748D01*
X156069863Y-91408264D01*
X156049056Y-91951989D01*
X156033789Y-92546866D01*
X156024188Y-93170838D01*
X156020380Y-93801847D01*
X156022490Y-94417837D01*
X156030644Y-94996750D01*
X156044969Y-95516529D01*
X156065591Y-95955115D01*
X156092635Y-96290453D01*
X156094744Y-96309250D01*
X156210332Y-97265787D01*
X156325984Y-98114764D01*
X156445493Y-98875565D01*
X156572650Y-99567576D01*
X156711246Y-100210181D01*
X156865074Y-100822766D01*
X157037924Y-101424715D01*
X157187710Y-101897250D01*
X157566577Y-102920059D01*
X158000308Y-103855908D01*
X158484513Y-104698564D01*
X159014800Y-105441797D01*
X159586780Y-106079374D01*
X160196061Y-106605065D01*
X160763569Y-106972364D01*
X161420419Y-107269630D01*
X162103988Y-107449896D01*
X162819889Y-107513422D01*
X163573735Y-107460465D01*
X164371141Y-107291284D01*
X164802500Y-107158267D01*
X165243755Y-106994496D01*
X165633494Y-106814303D01*
X166000235Y-106599855D01*
X166372496Y-106333324D01*
X166778794Y-105996876D01*
X167056137Y-105749143D01*
X167496847Y-105373206D01*
X167887283Y-105098047D01*
X168242006Y-104915245D01*
X168575579Y-104816375D01*
X168698610Y-104799178D01*
X168896995Y-104791105D01*
X169021113Y-104828558D01*
X169088118Y-104933330D01*
X169115165Y-105127212D01*
X169119528Y-105333852D01*
X169059499Y-105870563D01*
X168882212Y-106417031D01*
X168595835Y-106963080D01*
X168208537Y-107498533D01*
X167728486Y-108013215D01*
X167163849Y-108496949D01*
X166522797Y-108939560D01*
X165977250Y-109248531D01*
X165420828Y-109510255D01*
X164862326Y-109716200D01*
X164267256Y-109876339D01*
X163601129Y-110000646D01*
X163172039Y-110059835D01*
X162421871Y-110095578D01*
X161633849Y-110028607D01*
X160834158Y-109865884D01*
X160048986Y-109614366D01*
X159304517Y-109281014D01*
X158626938Y-108872787D01*
X158579500Y-108839313D01*
X158093533Y-108445284D01*
X157594962Y-107954430D01*
X157105565Y-107392182D01*
X156647119Y-106783971D01*
X156241403Y-106155231D01*
X156159266Y-106012926D01*
X155470860Y-104665176D01*
X154881576Y-103238442D01*
X154391736Y-101733541D01*
X154231133Y-101138985D01*
X154124174Y-100714088D01*
X154032405Y-100332184D01*
X153951795Y-99971569D01*
X153878312Y-99610538D01*
X153807924Y-99227387D01*
X153736601Y-98800412D01*
X153660312Y-98307907D01*
X153575025Y-97728169D01*
X153499206Y-97198250D01*
X153445335Y-96753885D01*
X153394543Y-96213546D01*
X153348667Y-95608250D01*
X153309544Y-94969016D01*
X153279011Y-94326862D01*
X153258905Y-93712806D01*
X153251063Y-93157869D01*
X153251341Y-93013128D01*
X153254774Y-92630775D01*
X153259784Y-92294255D01*
X153265914Y-92023282D01*
X153272707Y-91837569D01*
X153279705Y-91756829D01*
X153280519Y-91755148D01*
X153292361Y-91686944D01*
X153307986Y-91518565D01*
X153325213Y-91276696D01*
X153339284Y-91036974D01*
X153362169Y-90676537D01*
X153392367Y-90291810D01*
X153424929Y-89943194D01*
X153440644Y-89800500D01*
X153475712Y-89496150D01*
X153509377Y-89189201D01*
X153535088Y-88939596D01*
X153537788Y-88911500D01*
X153587723Y-88493793D01*
X153664561Y-87987918D01*
X153761835Y-87428244D01*
X153873077Y-86849139D01*
X153991816Y-86284971D01*
X154111585Y-85770110D01*
X154177199Y-85514250D01*
X154353805Y-84867614D01*
X154511186Y-84322442D01*
X154656698Y-83856012D01*
X154797696Y-83445598D01*
X154941537Y-83068479D01*
X155064174Y-82774153D01*
X155122534Y-82629134D01*
X155150160Y-82541309D01*
X155150500Y-82537248D01*
X155175207Y-82469127D01*
X155240381Y-82315713D01*
X155332608Y-82106712D01*
X155438471Y-81871834D01*
X155544554Y-81640786D01*
X155637441Y-81443277D01*
X155703717Y-81309015D01*
X155713073Y-81291500D01*
X155923213Y-80912214D01*
X156095909Y-80610622D01*
X156252164Y-80351664D01*
X156412981Y-80100280D01*
X156549980Y-79894500D01*
X157140672Y-79086556D01*
X157752003Y-78390636D01*
X158398910Y-77791892D01*
X159096332Y-77275474D01*
X159341500Y-77119743D01*
X159881073Y-76826200D01*
X160421936Y-76611728D01*
X160996969Y-76467057D01*
X161639052Y-76382915D01*
X162040380Y-76358771D01*
X162441929Y-76346627D01*
X162758560Y-76348346D01*
X163031861Y-76366584D01*
X163303416Y-76403998D01*
X163587383Y-76457626D01*
X164496037Y-76704174D01*
X165377548Y-77062713D01*
X166215956Y-77522600D01*
X166995302Y-78073193D01*
X167699627Y-78703847D01*
X168312972Y-79403920D01*
X168593533Y-79796194D01*
X168907095Y-80312149D01*
X169117166Y-80758818D01*
X169224585Y-81139328D01*
X169230194Y-81456807D01*
X169134831Y-81714384D01*
G37*
X169134831Y-81714384D02*
X169116177Y-81742072D01*
X168955009Y-81883296D01*
X168743566Y-81921736D01*
X168479335Y-81856181D01*
X168159807Y-81685422D01*
X167782469Y-81408246D01*
X167344810Y-81023444D01*
X167064928Y-80753039D01*
X166661684Y-80367226D01*
X166305861Y-80064623D01*
X165968781Y-79826764D01*
X165621766Y-79635185D01*
X165236137Y-79471421D01*
X164885047Y-79349480D01*
X164127789Y-79169053D01*
X163358725Y-79108974D01*
X162589958Y-79164859D01*
X161833588Y-79332325D01*
X161101716Y-79606990D01*
X160406443Y-79984470D01*
X159759872Y-80460384D01*
X159174101Y-81030348D01*
X158740478Y-81574931D01*
X158365859Y-82169025D01*
X158001608Y-82869211D01*
X157656074Y-83654598D01*
X157337604Y-84504294D01*
X157054547Y-85397408D01*
X156815250Y-86313048D01*
X156773053Y-86498500D01*
X156712291Y-86771069D01*
X156653601Y-87031907D01*
X156609475Y-87225510D01*
X156608726Y-87228750D01*
X156542580Y-87552534D01*
X156468552Y-87980112D01*
X156389918Y-88488767D01*
X156309960Y-89055784D01*
X156231953Y-89658448D01*
X156159177Y-90274042D01*
X156127593Y-90562500D01*
X156096084Y-90937748D01*
X156069863Y-91408264D01*
X156049056Y-91951989D01*
X156033789Y-92546866D01*
X156024188Y-93170838D01*
X156020380Y-93801847D01*
X156022490Y-94417837D01*
X156030644Y-94996750D01*
X156044969Y-95516529D01*
X156065591Y-95955115D01*
X156092635Y-96290453D01*
X156094744Y-96309250D01*
X156210332Y-97265787D01*
X156325984Y-98114764D01*
X156445493Y-98875565D01*
X156572650Y-99567576D01*
X156711246Y-100210181D01*
X156865074Y-100822766D01*
X157037924Y-101424715D01*
X157187710Y-101897250D01*
X157566577Y-102920059D01*
X158000308Y-103855908D01*
X158484513Y-104698564D01*
X159014800Y-105441797D01*
X159586780Y-106079374D01*
X160196061Y-106605065D01*
X160763569Y-106972364D01*
X161420419Y-107269630D01*
X162103988Y-107449896D01*
X162819889Y-107513422D01*
X163573735Y-107460465D01*
X164371141Y-107291284D01*
X164802500Y-107158267D01*
X165243755Y-106994496D01*
X165633494Y-106814303D01*
X166000235Y-106599855D01*
X166372496Y-106333324D01*
X166778794Y-105996876D01*
X167056137Y-105749143D01*
X167496847Y-105373206D01*
X167887283Y-105098047D01*
X168242006Y-104915245D01*
X168575579Y-104816375D01*
X168698610Y-104799178D01*
X168896995Y-104791105D01*
X169021113Y-104828558D01*
X169088118Y-104933330D01*
X169115165Y-105127212D01*
X169119528Y-105333852D01*
X169059499Y-105870563D01*
X168882212Y-106417031D01*
X168595835Y-106963080D01*
X168208537Y-107498533D01*
X167728486Y-108013215D01*
X167163849Y-108496949D01*
X166522797Y-108939560D01*
X165977250Y-109248531D01*
X165420828Y-109510255D01*
X164862326Y-109716200D01*
X164267256Y-109876339D01*
X163601129Y-110000646D01*
X163172039Y-110059835D01*
X162421871Y-110095578D01*
X161633849Y-110028607D01*
X160834158Y-109865884D01*
X160048986Y-109614366D01*
X159304517Y-109281014D01*
X158626938Y-108872787D01*
X158579500Y-108839313D01*
X158093533Y-108445284D01*
X157594962Y-107954430D01*
X157105565Y-107392182D01*
X156647119Y-106783971D01*
X156241403Y-106155231D01*
X156159266Y-106012926D01*
X155470860Y-104665176D01*
X154881576Y-103238442D01*
X154391736Y-101733541D01*
X154231133Y-101138985D01*
X154124174Y-100714088D01*
X154032405Y-100332184D01*
X153951795Y-99971569D01*
X153878312Y-99610538D01*
X153807924Y-99227387D01*
X153736601Y-98800412D01*
X153660312Y-98307907D01*
X153575025Y-97728169D01*
X153499206Y-97198250D01*
X153445335Y-96753885D01*
X153394543Y-96213546D01*
X153348667Y-95608250D01*
X153309544Y-94969016D01*
X153279011Y-94326862D01*
X153258905Y-93712806D01*
X153251063Y-93157869D01*
X153251341Y-93013128D01*
X153254774Y-92630775D01*
X153259784Y-92294255D01*
X153265914Y-92023282D01*
X153272707Y-91837569D01*
X153279705Y-91756829D01*
X153280519Y-91755148D01*
X153292361Y-91686944D01*
X153307986Y-91518565D01*
X153325213Y-91276696D01*
X153339284Y-91036974D01*
X153362169Y-90676537D01*
X153392367Y-90291810D01*
X153424929Y-89943194D01*
X153440644Y-89800500D01*
X153475712Y-89496150D01*
X153509377Y-89189201D01*
X153535088Y-88939596D01*
X153537788Y-88911500D01*
X153587723Y-88493793D01*
X153664561Y-87987918D01*
X153761835Y-87428244D01*
X153873077Y-86849139D01*
X153991816Y-86284971D01*
X154111585Y-85770110D01*
X154177199Y-85514250D01*
X154353805Y-84867614D01*
X154511186Y-84322442D01*
X154656698Y-83856012D01*
X154797696Y-83445598D01*
X154941537Y-83068479D01*
X155064174Y-82774153D01*
X155122534Y-82629134D01*
X155150160Y-82541309D01*
X155150500Y-82537248D01*
X155175207Y-82469127D01*
X155240381Y-82315713D01*
X155332608Y-82106712D01*
X155438471Y-81871834D01*
X155544554Y-81640786D01*
X155637441Y-81443277D01*
X155703717Y-81309015D01*
X155713073Y-81291500D01*
X155923213Y-80912214D01*
X156095909Y-80610622D01*
X156252164Y-80351664D01*
X156412981Y-80100280D01*
X156549980Y-79894500D01*
X157140672Y-79086556D01*
X157752003Y-78390636D01*
X158398910Y-77791892D01*
X159096332Y-77275474D01*
X159341500Y-77119743D01*
X159881073Y-76826200D01*
X160421936Y-76611728D01*
X160996969Y-76467057D01*
X161639052Y-76382915D01*
X162040380Y-76358771D01*
X162441929Y-76346627D01*
X162758560Y-76348346D01*
X163031861Y-76366584D01*
X163303416Y-76403998D01*
X163587383Y-76457626D01*
X164496037Y-76704174D01*
X165377548Y-77062713D01*
X166215956Y-77522600D01*
X166995302Y-78073193D01*
X167699627Y-78703847D01*
X168312972Y-79403920D01*
X168593533Y-79796194D01*
X168907095Y-80312149D01*
X169117166Y-80758818D01*
X169224585Y-81139328D01*
X169230194Y-81456807D01*
X169134831Y-81714384D01*
G36*
X148752819Y-99085729D02*
G01*
X148603977Y-99279451D01*
X148442334Y-99408995D01*
X148232949Y-99529557D01*
X148001742Y-99597443D01*
X147771097Y-99625783D01*
X147546178Y-99640010D01*
X147408378Y-99630705D01*
X147318523Y-99587683D01*
X147237435Y-99500763D01*
X147223768Y-99483515D01*
X147117511Y-99322763D01*
X147099971Y-99191756D01*
X147173899Y-99046435D01*
X147257661Y-98940737D01*
X147506840Y-98723005D01*
X147816939Y-98599983D01*
X148184142Y-98563500D01*
X148405144Y-98575022D01*
X148549653Y-98620286D01*
X148666937Y-98715340D01*
X148674366Y-98723171D01*
X148776097Y-98900849D01*
X148752819Y-99085729D01*
G37*
X148752819Y-99085729D02*
X148603977Y-99279451D01*
X148442334Y-99408995D01*
X148232949Y-99529557D01*
X148001742Y-99597443D01*
X147771097Y-99625783D01*
X147546178Y-99640010D01*
X147408378Y-99630705D01*
X147318523Y-99587683D01*
X147237435Y-99500763D01*
X147223768Y-99483515D01*
X147117511Y-99322763D01*
X147099971Y-99191756D01*
X147173899Y-99046435D01*
X147257661Y-98940737D01*
X147506840Y-98723005D01*
X147816939Y-98599983D01*
X148184142Y-98563500D01*
X148405144Y-98575022D01*
X148549653Y-98620286D01*
X148666937Y-98715340D01*
X148674366Y-98723171D01*
X148776097Y-98900849D01*
X148752819Y-99085729D01*
G36*
X148635752Y-97921101D02*
G01*
X148527873Y-98112508D01*
X148325048Y-98277001D01*
X148037788Y-98401762D01*
X147739433Y-98466411D01*
X147395756Y-98487816D01*
X147152783Y-98442977D01*
X147001502Y-98329620D01*
X146967772Y-98271643D01*
X146905875Y-98091950D01*
X146921738Y-97947314D01*
X147024529Y-97785964D01*
X147061814Y-97740591D01*
X147315064Y-97510553D01*
X147616928Y-97378290D01*
X147994769Y-97331820D01*
X147995094Y-97331814D01*
X148213857Y-97334752D01*
X148351697Y-97363438D01*
X148454259Y-97433128D01*
X148524634Y-97508811D01*
X148638175Y-97715596D01*
X148635752Y-97921101D01*
G37*
X148635752Y-97921101D02*
X148527873Y-98112508D01*
X148325048Y-98277001D01*
X148037788Y-98401762D01*
X147739433Y-98466411D01*
X147395756Y-98487816D01*
X147152783Y-98442977D01*
X147001502Y-98329620D01*
X146967772Y-98271643D01*
X146905875Y-98091950D01*
X146921738Y-97947314D01*
X147024529Y-97785964D01*
X147061814Y-97740591D01*
X147315064Y-97510553D01*
X147616928Y-97378290D01*
X147994769Y-97331820D01*
X147995094Y-97331814D01*
X148213857Y-97334752D01*
X148351697Y-97363438D01*
X148454259Y-97433128D01*
X148524634Y-97508811D01*
X148638175Y-97715596D01*
X148635752Y-97921101D01*
G36*
X148398484Y-100427443D02*
G01*
X148211656Y-100596556D01*
X148088665Y-100667714D01*
X147782309Y-100781337D01*
X147474599Y-100817982D01*
X147199969Y-100777771D01*
X146995995Y-100663806D01*
X146874602Y-100530973D01*
X146843886Y-100415513D01*
X146896649Y-100265685D01*
X146931403Y-100199423D01*
X147105519Y-100000822D01*
X147381271Y-99865446D01*
X147658337Y-99803238D01*
X147987300Y-99799463D01*
X148240897Y-99897455D01*
X148393437Y-100055516D01*
X148459142Y-100246966D01*
X148398484Y-100427443D01*
G37*
X148398484Y-100427443D02*
X148211656Y-100596556D01*
X148088665Y-100667714D01*
X147782309Y-100781337D01*
X147474599Y-100817982D01*
X147199969Y-100777771D01*
X146995995Y-100663806D01*
X146874602Y-100530973D01*
X146843886Y-100415513D01*
X146896649Y-100265685D01*
X146931403Y-100199423D01*
X147105519Y-100000822D01*
X147381271Y-99865446D01*
X147658337Y-99803238D01*
X147987300Y-99799463D01*
X148240897Y-99897455D01*
X148393437Y-100055516D01*
X148459142Y-100246966D01*
X148398484Y-100427443D01*
G36*
X147668343Y-101466323D02*
G01*
X147522328Y-101645497D01*
X147327429Y-101776751D01*
X147141630Y-101835297D01*
X146906141Y-101861393D01*
X146671063Y-101854512D01*
X146486492Y-101814127D01*
X146434863Y-101786125D01*
X146306398Y-101621876D01*
X146294907Y-101427882D01*
X146400388Y-101223849D01*
X146434969Y-101184162D01*
X146649926Y-101034135D01*
X146931095Y-100943591D01*
X147228024Y-100921832D01*
X147490261Y-100978156D01*
X147508251Y-100986323D01*
X147666337Y-101114734D01*
X147718023Y-101282068D01*
X147668343Y-101466323D01*
G37*
X147668343Y-101466323D02*
X147522328Y-101645497D01*
X147327429Y-101776751D01*
X147141630Y-101835297D01*
X146906141Y-101861393D01*
X146671063Y-101854512D01*
X146486492Y-101814127D01*
X146434863Y-101786125D01*
X146306398Y-101621876D01*
X146294907Y-101427882D01*
X146400388Y-101223849D01*
X146434969Y-101184162D01*
X146649926Y-101034135D01*
X146931095Y-100943591D01*
X147228024Y-100921832D01*
X147490261Y-100978156D01*
X147508251Y-100986323D01*
X147666337Y-101114734D01*
X147718023Y-101282068D01*
X147668343Y-101466323D01*
G36*
X148492269Y-96350676D02*
G01*
X148327995Y-96637859D01*
X148155043Y-96829041D01*
X147848358Y-97065729D01*
X147496150Y-97246865D01*
X147127871Y-97364482D01*
X146772974Y-97410616D01*
X146460910Y-97377301D01*
X146322730Y-97324592D01*
X146120519Y-97156122D01*
X146015769Y-96928327D01*
X146017427Y-96672959D01*
X146088126Y-96492293D01*
X146313774Y-96181807D01*
X146602769Y-95907109D01*
X146930803Y-95681208D01*
X147273570Y-95517112D01*
X147606760Y-95427831D01*
X147906066Y-95426374D01*
X148021936Y-95457349D01*
X148306055Y-95615808D01*
X148480010Y-95826370D01*
X148542511Y-96075753D01*
X148492269Y-96350676D01*
G37*
X148492269Y-96350676D02*
X148327995Y-96637859D01*
X148155043Y-96829041D01*
X147848358Y-97065729D01*
X147496150Y-97246865D01*
X147127871Y-97364482D01*
X146772974Y-97410616D01*
X146460910Y-97377301D01*
X146322730Y-97324592D01*
X146120519Y-97156122D01*
X146015769Y-96928327D01*
X146017427Y-96672959D01*
X146088126Y-96492293D01*
X146313774Y-96181807D01*
X146602769Y-95907109D01*
X146930803Y-95681208D01*
X147273570Y-95517112D01*
X147606760Y-95427831D01*
X147906066Y-95426374D01*
X148021936Y-95457349D01*
X148306055Y-95615808D01*
X148480010Y-95826370D01*
X148542511Y-96075753D01*
X148492269Y-96350676D01*
G36*
X146730368Y-99997192D02*
G01*
X146648673Y-100294651D01*
X146391244Y-100868548D01*
X146034746Y-101379249D01*
X145593831Y-101813299D01*
X145083150Y-102157242D01*
X144517356Y-102397624D01*
X144292000Y-102458775D01*
X144139044Y-102491939D01*
X143998455Y-102514635D01*
X143850317Y-102526275D01*
X143674712Y-102526272D01*
X143451723Y-102514039D01*
X143161432Y-102488988D01*
X142783922Y-102450533D01*
X142323500Y-102400738D01*
X141136722Y-102325009D01*
X139942595Y-102353132D01*
X138776319Y-102483633D01*
X138300311Y-102569211D01*
X137846417Y-102655089D01*
X137489904Y-102706816D01*
X137205782Y-102724220D01*
X136969064Y-102707129D01*
X136754760Y-102655372D01*
X136537880Y-102568777D01*
X136512369Y-102556918D01*
X136167412Y-102333620D01*
X135872894Y-102025358D01*
X135642953Y-101659214D01*
X135491728Y-101262267D01*
X135433357Y-100861598D01*
X135464557Y-100549870D01*
X135623651Y-100113172D01*
X135878149Y-99710289D01*
X136177972Y-99403501D01*
X136605679Y-99127990D01*
X137081747Y-98957262D01*
X137612094Y-98890849D01*
X138202635Y-98928285D01*
X138859287Y-99069104D01*
X139179670Y-99166651D01*
X139670107Y-99314684D01*
X140073852Y-99403144D01*
X140415168Y-99434258D01*
X140718312Y-99410249D01*
X141005425Y-99334091D01*
X141202615Y-99257640D01*
X141383347Y-99168071D01*
X141564938Y-99051912D01*
X141764707Y-98895690D01*
X141999973Y-98685932D01*
X142288054Y-98409165D01*
X142621441Y-98076914D01*
X142927823Y-97772925D01*
X143170798Y-97544491D01*
X143372821Y-97373590D01*
X143556344Y-97242197D01*
X143743823Y-97132291D01*
X143891441Y-97057517D01*
X144158103Y-96934965D01*
X144363822Y-96862965D01*
X144557956Y-96829119D01*
X144789859Y-96821025D01*
X144831750Y-96821272D01*
X145160144Y-96843853D01*
X145434250Y-96916511D01*
X145700791Y-97056697D01*
X145954655Y-97240693D01*
X146260880Y-97557327D01*
X146503578Y-97962973D01*
X146677312Y-98433707D01*
X146776647Y-98945604D01*
X146796144Y-99474741D01*
X146730368Y-99997192D01*
G37*
X146730368Y-99997192D02*
X146648673Y-100294651D01*
X146391244Y-100868548D01*
X146034746Y-101379249D01*
X145593831Y-101813299D01*
X145083150Y-102157242D01*
X144517356Y-102397624D01*
X144292000Y-102458775D01*
X144139044Y-102491939D01*
X143998455Y-102514635D01*
X143850317Y-102526275D01*
X143674712Y-102526272D01*
X143451723Y-102514039D01*
X143161432Y-102488988D01*
X142783922Y-102450533D01*
X142323500Y-102400738D01*
X141136722Y-102325009D01*
X139942595Y-102353132D01*
X138776319Y-102483633D01*
X138300311Y-102569211D01*
X137846417Y-102655089D01*
X137489904Y-102706816D01*
X137205782Y-102724220D01*
X136969064Y-102707129D01*
X136754760Y-102655372D01*
X136537880Y-102568777D01*
X136512369Y-102556918D01*
X136167412Y-102333620D01*
X135872894Y-102025358D01*
X135642953Y-101659214D01*
X135491728Y-101262267D01*
X135433357Y-100861598D01*
X135464557Y-100549870D01*
X135623651Y-100113172D01*
X135878149Y-99710289D01*
X136177972Y-99403501D01*
X136605679Y-99127990D01*
X137081747Y-98957262D01*
X137612094Y-98890849D01*
X138202635Y-98928285D01*
X138859287Y-99069104D01*
X139179670Y-99166651D01*
X139670107Y-99314684D01*
X140073852Y-99403144D01*
X140415168Y-99434258D01*
X140718312Y-99410249D01*
X141005425Y-99334091D01*
X141202615Y-99257640D01*
X141383347Y-99168071D01*
X141564938Y-99051912D01*
X141764707Y-98895690D01*
X141999973Y-98685932D01*
X142288054Y-98409165D01*
X142621441Y-98076914D01*
X142927823Y-97772925D01*
X143170798Y-97544491D01*
X143372821Y-97373590D01*
X143556344Y-97242197D01*
X143743823Y-97132291D01*
X143891441Y-97057517D01*
X144158103Y-96934965D01*
X144363822Y-96862965D01*
X144557956Y-96829119D01*
X144789859Y-96821025D01*
X144831750Y-96821272D01*
X145160144Y-96843853D01*
X145434250Y-96916511D01*
X145700791Y-97056697D01*
X145954655Y-97240693D01*
X146260880Y-97557327D01*
X146503578Y-97962973D01*
X146677312Y-98433707D01*
X146776647Y-98945604D01*
X146796144Y-99474741D01*
X146730368Y-99997192D01*
G36*
X132058821Y-94155729D02*
G01*
X131866700Y-94351644D01*
X131590384Y-94472844D01*
X131218380Y-94523946D01*
X131137091Y-94526098D01*
X130894880Y-94522349D01*
X130737325Y-94496765D01*
X130622575Y-94438747D01*
X130549716Y-94377306D01*
X130412879Y-94182594D01*
X130401780Y-93974964D01*
X130454500Y-93847886D01*
X130586038Y-93716383D01*
X130805336Y-93589612D01*
X131073697Y-93484023D01*
X131352422Y-93416065D01*
X131507625Y-93400227D01*
X131719747Y-93400767D01*
X131853396Y-93431260D01*
X131956306Y-93507496D01*
X132010044Y-93566415D01*
X132137930Y-93771934D01*
X132146279Y-93969568D01*
X132058821Y-94155729D01*
G37*
X132058821Y-94155729D02*
X131866700Y-94351644D01*
X131590384Y-94472844D01*
X131218380Y-94523946D01*
X131137091Y-94526098D01*
X130894880Y-94522349D01*
X130737325Y-94496765D01*
X130622575Y-94438747D01*
X130549716Y-94377306D01*
X130412879Y-94182594D01*
X130401780Y-93974964D01*
X130454500Y-93847886D01*
X130586038Y-93716383D01*
X130805336Y-93589612D01*
X131073697Y-93484023D01*
X131352422Y-93416065D01*
X131507625Y-93400227D01*
X131719747Y-93400767D01*
X131853396Y-93431260D01*
X131956306Y-93507496D01*
X132010044Y-93566415D01*
X132137930Y-93771934D01*
X132146279Y-93969568D01*
X132058821Y-94155729D01*
G36*
X132865954Y-95769089D02*
G01*
X132701428Y-96016864D01*
X132453097Y-96199506D01*
X132264389Y-96269456D01*
X131860900Y-96336420D01*
X131472330Y-96337984D01*
X131112953Y-96281997D01*
X130797043Y-96176308D01*
X130538876Y-96028764D01*
X130352727Y-95847214D01*
X130252869Y-95639506D01*
X130253578Y-95413489D01*
X130343557Y-95213377D01*
X130533909Y-94999188D01*
X130786268Y-94850384D01*
X131117975Y-94760620D01*
X131546371Y-94723550D01*
X131687250Y-94721750D01*
X131988219Y-94724920D01*
X132195058Y-94738326D01*
X132340560Y-94767809D01*
X132457520Y-94819213D01*
X132544500Y-94874471D01*
X132751752Y-95032512D01*
X132868243Y-95173844D01*
X132917827Y-95336466D01*
X132925500Y-95481418D01*
X132865954Y-95769089D01*
G37*
X132865954Y-95769089D02*
X132701428Y-96016864D01*
X132453097Y-96199506D01*
X132264389Y-96269456D01*
X131860900Y-96336420D01*
X131472330Y-96337984D01*
X131112953Y-96281997D01*
X130797043Y-96176308D01*
X130538876Y-96028764D01*
X130352727Y-95847214D01*
X130252869Y-95639506D01*
X130253578Y-95413489D01*
X130343557Y-95213377D01*
X130533909Y-94999188D01*
X130786268Y-94850384D01*
X131117975Y-94760620D01*
X131546371Y-94723550D01*
X131687250Y-94721750D01*
X131988219Y-94724920D01*
X132195058Y-94738326D01*
X132340560Y-94767809D01*
X132457520Y-94819213D01*
X132544500Y-94874471D01*
X132751752Y-95032512D01*
X132868243Y-95173844D01*
X132917827Y-95336466D01*
X132925500Y-95481418D01*
X132865954Y-95769089D01*
G36*
X131677812Y-92870020D02*
G01*
X131558872Y-93044660D01*
X131360744Y-93202451D01*
X131106891Y-93327501D01*
X130820779Y-93403919D01*
X130622689Y-93420000D01*
X130407812Y-93405136D01*
X130257317Y-93345413D01*
X130126616Y-93234384D01*
X129993688Y-93088228D01*
X129952237Y-92979838D01*
X129997754Y-92863818D01*
X130078884Y-92753835D01*
X130280488Y-92569605D01*
X130535193Y-92440242D01*
X130816563Y-92366717D01*
X131098160Y-92350004D01*
X131353548Y-92391075D01*
X131556288Y-92490903D01*
X131679943Y-92650459D01*
X131694097Y-92694420D01*
X131677812Y-92870020D01*
G37*
X131677812Y-92870020D02*
X131558872Y-93044660D01*
X131360744Y-93202451D01*
X131106891Y-93327501D01*
X130820779Y-93403919D01*
X130622689Y-93420000D01*
X130407812Y-93405136D01*
X130257317Y-93345413D01*
X130126616Y-93234384D01*
X129993688Y-93088228D01*
X129952237Y-92979838D01*
X129997754Y-92863818D01*
X130078884Y-92753835D01*
X130280488Y-92569605D01*
X130535193Y-92440242D01*
X130816563Y-92366717D01*
X131098160Y-92350004D01*
X131353548Y-92391075D01*
X131556288Y-92490903D01*
X131679943Y-92650459D01*
X131694097Y-92694420D01*
X131677812Y-92870020D01*
G36*
X130744468Y-91975141D02*
G01*
X130656593Y-92114376D01*
X130481909Y-92261129D01*
X130257236Y-92393839D01*
X130019391Y-92490946D01*
X129805191Y-92530889D01*
X129795268Y-92531000D01*
X129611068Y-92493761D01*
X129421537Y-92399727D01*
X129265953Y-92275424D01*
X129183592Y-92147375D01*
X129179000Y-92114814D01*
X129218357Y-92017378D01*
X129317700Y-91873090D01*
X129373021Y-91806441D01*
X129590829Y-91628365D01*
X129868573Y-91497136D01*
X130159079Y-91429167D01*
X130415178Y-91440868D01*
X130420108Y-91442156D01*
X130612818Y-91551149D01*
X130731043Y-91732878D01*
X130750403Y-91947281D01*
X130744468Y-91975141D01*
G37*
X130744468Y-91975141D02*
X130656593Y-92114376D01*
X130481909Y-92261129D01*
X130257236Y-92393839D01*
X130019391Y-92490946D01*
X129805191Y-92530889D01*
X129795268Y-92531000D01*
X129611068Y-92493761D01*
X129421537Y-92399727D01*
X129265953Y-92275424D01*
X129183592Y-92147375D01*
X129179000Y-92114814D01*
X129218357Y-92017378D01*
X129317700Y-91873090D01*
X129373021Y-91806441D01*
X129590829Y-91628365D01*
X129868573Y-91497136D01*
X130159079Y-91429167D01*
X130415178Y-91440868D01*
X130420108Y-91442156D01*
X130612818Y-91551149D01*
X130731043Y-91732878D01*
X130750403Y-91947281D01*
X130744468Y-91975141D01*
G36*
X129525363Y-91473699D02*
G01*
X129510964Y-91492044D01*
X129361314Y-91619170D01*
X129145892Y-91736922D01*
X128910813Y-91826346D01*
X128702192Y-91868490D01*
X128608297Y-91863049D01*
X128357741Y-91762077D01*
X128207220Y-91616615D01*
X128164547Y-91443490D01*
X128237531Y-91259531D01*
X128296403Y-91191097D01*
X128544070Y-91007872D01*
X128831442Y-90893695D01*
X129112197Y-90864696D01*
X129198089Y-90877144D01*
X129454698Y-90970929D01*
X129597263Y-91106496D01*
X129622059Y-91276526D01*
X129525363Y-91473699D01*
G37*
X129525363Y-91473699D02*
X129510964Y-91492044D01*
X129361314Y-91619170D01*
X129145892Y-91736922D01*
X128910813Y-91826346D01*
X128702192Y-91868490D01*
X128608297Y-91863049D01*
X128357741Y-91762077D01*
X128207220Y-91616615D01*
X128164547Y-91443490D01*
X128237531Y-91259531D01*
X128296403Y-91191097D01*
X128544070Y-91007872D01*
X128831442Y-90893695D01*
X129112197Y-90864696D01*
X129198089Y-90877144D01*
X129454698Y-90970929D01*
X129597263Y-91106496D01*
X129622059Y-91276526D01*
X129525363Y-91473699D01*
G36*
X130070460Y-95420870D02*
G01*
X129971023Y-95672085D01*
X129723773Y-96055474D01*
X129391126Y-96349513D01*
X128980459Y-96551582D01*
X128499148Y-96659063D01*
X127954568Y-96669336D01*
X127391449Y-96587994D01*
X127121241Y-96526746D01*
X126881080Y-96466916D01*
X126711391Y-96418749D01*
X126677330Y-96407001D01*
X126415267Y-96322173D01*
X126092120Y-96238805D01*
X125751243Y-96165984D01*
X125435995Y-96112799D01*
X125189731Y-96088337D01*
X125153902Y-96087687D01*
X124759798Y-96121027D01*
X124398640Y-96226585D01*
X124050912Y-96415318D01*
X123697097Y-96698183D01*
X123317681Y-97086138D01*
X123260098Y-97150951D01*
X122824907Y-97608020D01*
X122410722Y-97959293D01*
X121996588Y-98218844D01*
X121561546Y-98400743D01*
X121283740Y-98478003D01*
X120831403Y-98525629D01*
X120381074Y-98467836D01*
X119954343Y-98316216D01*
X119572802Y-98082360D01*
X119258042Y-97777860D01*
X119031654Y-97414309D01*
X118963733Y-97232436D01*
X118902820Y-96894263D01*
X118899740Y-96522078D01*
X118952034Y-96171685D01*
X119019356Y-95971262D01*
X119200075Y-95633308D01*
X119414277Y-95363306D01*
X119684306Y-95143793D01*
X120032507Y-94957308D01*
X120481224Y-94786389D01*
X120574750Y-94755815D01*
X121013214Y-94611759D01*
X121370533Y-94484073D01*
X121688038Y-94355531D01*
X122007060Y-94208903D01*
X122368928Y-94026961D01*
X122550935Y-93932034D01*
X123222248Y-93561777D01*
X123811614Y-93196013D01*
X124360248Y-92808253D01*
X124653999Y-92580460D01*
X124858764Y-92420125D01*
X125025552Y-92295321D01*
X125130300Y-92223774D01*
X125152196Y-92213500D01*
X125224553Y-92180045D01*
X125352866Y-92097741D01*
X125378394Y-92079811D01*
X125743961Y-91883144D01*
X126189848Y-91743092D01*
X126680193Y-91664986D01*
X127179131Y-91654155D01*
X127650798Y-91715931D01*
X127718031Y-91732059D01*
X128260468Y-91925762D01*
X128752025Y-92207407D01*
X129184396Y-92562464D01*
X129549272Y-92976405D01*
X129838346Y-93434701D01*
X130043309Y-93922825D01*
X130155854Y-94426247D01*
X130167674Y-94930438D01*
X130070460Y-95420870D01*
G37*
X130070460Y-95420870D02*
X129971023Y-95672085D01*
X129723773Y-96055474D01*
X129391126Y-96349513D01*
X128980459Y-96551582D01*
X128499148Y-96659063D01*
X127954568Y-96669336D01*
X127391449Y-96587994D01*
X127121241Y-96526746D01*
X126881080Y-96466916D01*
X126711391Y-96418749D01*
X126677330Y-96407001D01*
X126415267Y-96322173D01*
X126092120Y-96238805D01*
X125751243Y-96165984D01*
X125435995Y-96112799D01*
X125189731Y-96088337D01*
X125153902Y-96087687D01*
X124759798Y-96121027D01*
X124398640Y-96226585D01*
X124050912Y-96415318D01*
X123697097Y-96698183D01*
X123317681Y-97086138D01*
X123260098Y-97150951D01*
X122824907Y-97608020D01*
X122410722Y-97959293D01*
X121996588Y-98218844D01*
X121561546Y-98400743D01*
X121283740Y-98478003D01*
X120831403Y-98525629D01*
X120381074Y-98467836D01*
X119954343Y-98316216D01*
X119572802Y-98082360D01*
X119258042Y-97777860D01*
X119031654Y-97414309D01*
X118963733Y-97232436D01*
X118902820Y-96894263D01*
X118899740Y-96522078D01*
X118952034Y-96171685D01*
X119019356Y-95971262D01*
X119200075Y-95633308D01*
X119414277Y-95363306D01*
X119684306Y-95143793D01*
X120032507Y-94957308D01*
X120481224Y-94786389D01*
X120574750Y-94755815D01*
X121013214Y-94611759D01*
X121370533Y-94484073D01*
X121688038Y-94355531D01*
X122007060Y-94208903D01*
X122368928Y-94026961D01*
X122550935Y-93932034D01*
X123222248Y-93561777D01*
X123811614Y-93196013D01*
X124360248Y-92808253D01*
X124653999Y-92580460D01*
X124858764Y-92420125D01*
X125025552Y-92295321D01*
X125130300Y-92223774D01*
X125152196Y-92213500D01*
X125224553Y-92180045D01*
X125352866Y-92097741D01*
X125378394Y-92079811D01*
X125743961Y-91883144D01*
X126189848Y-91743092D01*
X126680193Y-91664986D01*
X127179131Y-91654155D01*
X127650798Y-91715931D01*
X127718031Y-91732059D01*
X128260468Y-91925762D01*
X128752025Y-92207407D01*
X129184396Y-92562464D01*
X129549272Y-92976405D01*
X129838346Y-93434701D01*
X130043309Y-93922825D01*
X130155854Y-94426247D01*
X130167674Y-94930438D01*
X130070460Y-95420870D01*
G36*
X119280540Y-105496524D02*
G01*
X119235538Y-105674927D01*
X119017655Y-106188589D01*
X118686185Y-106648217D01*
X118243114Y-107052422D01*
X117690428Y-107399819D01*
X117030114Y-107689021D01*
X116264157Y-107918641D01*
X115909233Y-107997422D01*
X115572445Y-108044074D01*
X115129881Y-108069152D01*
X114577443Y-108072627D01*
X113911036Y-108054469D01*
X113126561Y-108014647D01*
X112482812Y-107972295D01*
X112228503Y-107954090D01*
X112047554Y-107928550D01*
X111924863Y-107876205D01*
X111845325Y-107777583D01*
X111793835Y-107613213D01*
X111755290Y-107363625D01*
X111714586Y-107009346D01*
X111710938Y-106977250D01*
X111674936Y-106690865D01*
X111635827Y-106426160D01*
X111600403Y-106227863D01*
X111590400Y-106183500D01*
X111559567Y-106015942D01*
X111526772Y-105767916D01*
X111497921Y-105485707D01*
X111491412Y-105407610D01*
X111447810Y-104853970D01*
X111629780Y-104780093D01*
X112030730Y-104604495D01*
X112436295Y-104404683D01*
X112798610Y-104205036D01*
X112979855Y-104092479D01*
X113534329Y-103735651D01*
X114014565Y-103452795D01*
X114443255Y-103235823D01*
X114843091Y-103076649D01*
X115236763Y-102967183D01*
X115646963Y-102899339D01*
X116096383Y-102865029D01*
X116447250Y-102856627D01*
X117069087Y-102878325D01*
X117593370Y-102958857D01*
X118038145Y-103104466D01*
X118421460Y-103321395D01*
X118761359Y-103615889D01*
X118818915Y-103677170D01*
X119091068Y-104066369D01*
X119261972Y-104514907D01*
X119326754Y-104999416D01*
X119280540Y-105496524D01*
G37*
X119280540Y-105496524D02*
X119235538Y-105674927D01*
X119017655Y-106188589D01*
X118686185Y-106648217D01*
X118243114Y-107052422D01*
X117690428Y-107399819D01*
X117030114Y-107689021D01*
X116264157Y-107918641D01*
X115909233Y-107997422D01*
X115572445Y-108044074D01*
X115129881Y-108069152D01*
X114577443Y-108072627D01*
X113911036Y-108054469D01*
X113126561Y-108014647D01*
X112482812Y-107972295D01*
X112228503Y-107954090D01*
X112047554Y-107928550D01*
X111924863Y-107876205D01*
X111845325Y-107777583D01*
X111793835Y-107613213D01*
X111755290Y-107363625D01*
X111714586Y-107009346D01*
X111710938Y-106977250D01*
X111674936Y-106690865D01*
X111635827Y-106426160D01*
X111600403Y-106227863D01*
X111590400Y-106183500D01*
X111559567Y-106015942D01*
X111526772Y-105767916D01*
X111497921Y-105485707D01*
X111491412Y-105407610D01*
X111447810Y-104853970D01*
X111629780Y-104780093D01*
X112030730Y-104604495D01*
X112436295Y-104404683D01*
X112798610Y-104205036D01*
X112979855Y-104092479D01*
X113534329Y-103735651D01*
X114014565Y-103452795D01*
X114443255Y-103235823D01*
X114843091Y-103076649D01*
X115236763Y-102967183D01*
X115646963Y-102899339D01*
X116096383Y-102865029D01*
X116447250Y-102856627D01*
X117069087Y-102878325D01*
X117593370Y-102958857D01*
X118038145Y-103104466D01*
X118421460Y-103321395D01*
X118761359Y-103615889D01*
X118818915Y-103677170D01*
X119091068Y-104066369D01*
X119261972Y-104514907D01*
X119326754Y-104999416D01*
X119280540Y-105496524D01*
G36*
X111047990Y-108030547D02*
G01*
X111047949Y-108030677D01*
X110966574Y-108108525D01*
X110773124Y-108175153D01*
X110463936Y-108231226D01*
X110035345Y-108277409D01*
X109487115Y-108314186D01*
X108919944Y-108322753D01*
X108455447Y-108278627D01*
X108078467Y-108176491D01*
X107773845Y-108011029D01*
X107526426Y-107776924D01*
X107383413Y-107576286D01*
X107247794Y-107272684D01*
X107173214Y-106924886D01*
X107164615Y-106579237D01*
X107226942Y-106282083D01*
X107241604Y-106247000D01*
X107459872Y-105915187D01*
X107787749Y-105633115D01*
X108215999Y-105405749D01*
X108735387Y-105238053D01*
X109303500Y-105138682D01*
X109562925Y-105105451D01*
X109868547Y-105061324D01*
X110079002Y-105028113D01*
X110335401Y-104993433D01*
X110496554Y-104993202D01*
X110589495Y-105027577D01*
X110593958Y-105031127D01*
X110647052Y-105127212D01*
X110703637Y-105311122D01*
X110752131Y-105544579D01*
X110755393Y-105564748D01*
X110784551Y-105751945D01*
X110813049Y-105942266D01*
X110843940Y-106157607D01*
X110880276Y-106419867D01*
X110925107Y-106750941D01*
X110981486Y-107172729D01*
X111022725Y-107482966D01*
X111047695Y-107720001D01*
X111056768Y-107916697D01*
X111047990Y-108030547D01*
G37*
X111047990Y-108030547D02*
X111047949Y-108030677D01*
X110966574Y-108108525D01*
X110773124Y-108175153D01*
X110463936Y-108231226D01*
X110035345Y-108277409D01*
X109487115Y-108314186D01*
X108919944Y-108322753D01*
X108455447Y-108278627D01*
X108078467Y-108176491D01*
X107773845Y-108011029D01*
X107526426Y-107776924D01*
X107383413Y-107576286D01*
X107247794Y-107272684D01*
X107173214Y-106924886D01*
X107164615Y-106579237D01*
X107226942Y-106282083D01*
X107241604Y-106247000D01*
X107459872Y-105915187D01*
X107787749Y-105633115D01*
X108215999Y-105405749D01*
X108735387Y-105238053D01*
X109303500Y-105138682D01*
X109562925Y-105105451D01*
X109868547Y-105061324D01*
X110079002Y-105028113D01*
X110335401Y-104993433D01*
X110496554Y-104993202D01*
X110589495Y-105027577D01*
X110593958Y-105031127D01*
X110647052Y-105127212D01*
X110703637Y-105311122D01*
X110752131Y-105544579D01*
X110755393Y-105564748D01*
X110784551Y-105751945D01*
X110813049Y-105942266D01*
X110843940Y-106157607D01*
X110880276Y-106419867D01*
X110925107Y-106750941D01*
X110981486Y-107172729D01*
X111022725Y-107482966D01*
X111047695Y-107720001D01*
X111056768Y-107916697D01*
X111047990Y-108030547D01*
G36*
X104354624Y-100908675D02*
G01*
X104288630Y-101389926D01*
X104099394Y-101850118D01*
X103789355Y-102286458D01*
X103360954Y-102696150D01*
X102816627Y-103076399D01*
X102159750Y-103423977D01*
X101720699Y-103614344D01*
X101326843Y-103750543D01*
X100941610Y-103839609D01*
X100528424Y-103888578D01*
X100050710Y-103904484D01*
X99683250Y-103900310D01*
X99195065Y-103889932D01*
X98813772Y-103884781D01*
X98519344Y-103885532D01*
X98291756Y-103892862D01*
X98110980Y-103907446D01*
X97956990Y-103929958D01*
X97809759Y-103961075D01*
X97797901Y-103963902D01*
X97668202Y-103996214D01*
X97566324Y-104014100D01*
X97482298Y-104004730D01*
X97406156Y-103955276D01*
X97327928Y-103852908D01*
X97237648Y-103684797D01*
X97125346Y-103438113D01*
X96981054Y-103100027D01*
X96808853Y-102691000D01*
X96619434Y-102240816D01*
X96474532Y-101893101D01*
X96368567Y-101633622D01*
X96295961Y-101448145D01*
X96251135Y-101322436D01*
X96228511Y-101242262D01*
X96222500Y-101194938D01*
X96272553Y-101124074D01*
X96407704Y-101004399D01*
X96605444Y-100854551D01*
X96773469Y-100738749D01*
X97024851Y-100570724D01*
X97254214Y-100415168D01*
X97429370Y-100294020D01*
X97496033Y-100246250D01*
X98320154Y-99690674D01*
X99137595Y-99247408D01*
X99939613Y-98920864D01*
X100381750Y-98789863D01*
X101082568Y-98657256D01*
X101740440Y-98624264D01*
X102346617Y-98688555D01*
X102892351Y-98847798D01*
X103368895Y-99099661D01*
X103767499Y-99441814D01*
X104010451Y-99756916D01*
X104184378Y-100051343D01*
X104289576Y-100301527D01*
X104341295Y-100558500D01*
X104354782Y-100873291D01*
X104354624Y-100908675D01*
G37*
X104354624Y-100908675D02*
X104288630Y-101389926D01*
X104099394Y-101850118D01*
X103789355Y-102286458D01*
X103360954Y-102696150D01*
X102816627Y-103076399D01*
X102159750Y-103423977D01*
X101720699Y-103614344D01*
X101326843Y-103750543D01*
X100941610Y-103839609D01*
X100528424Y-103888578D01*
X100050710Y-103904484D01*
X99683250Y-103900310D01*
X99195065Y-103889932D01*
X98813772Y-103884781D01*
X98519344Y-103885532D01*
X98291756Y-103892862D01*
X98110980Y-103907446D01*
X97956990Y-103929958D01*
X97809759Y-103961075D01*
X97797901Y-103963902D01*
X97668202Y-103996214D01*
X97566324Y-104014100D01*
X97482298Y-104004730D01*
X97406156Y-103955276D01*
X97327928Y-103852908D01*
X97237648Y-103684797D01*
X97125346Y-103438113D01*
X96981054Y-103100027D01*
X96808853Y-102691000D01*
X96619434Y-102240816D01*
X96474532Y-101893101D01*
X96368567Y-101633622D01*
X96295961Y-101448145D01*
X96251135Y-101322436D01*
X96228511Y-101242262D01*
X96222500Y-101194938D01*
X96272553Y-101124074D01*
X96407704Y-101004399D01*
X96605444Y-100854551D01*
X96773469Y-100738749D01*
X97024851Y-100570724D01*
X97254214Y-100415168D01*
X97429370Y-100294020D01*
X97496033Y-100246250D01*
X98320154Y-99690674D01*
X99137595Y-99247408D01*
X99939613Y-98920864D01*
X100381750Y-98789863D01*
X101082568Y-98657256D01*
X101740440Y-98624264D01*
X102346617Y-98688555D01*
X102892351Y-98847798D01*
X103368895Y-99099661D01*
X103767499Y-99441814D01*
X104010451Y-99756916D01*
X104184378Y-100051343D01*
X104289576Y-100301527D01*
X104341295Y-100558500D01*
X104354782Y-100873291D01*
X104354624Y-100908675D01*
G36*
X96616805Y-104291404D02*
G01*
X96560936Y-104371690D01*
X96538887Y-104392908D01*
X96431521Y-104460194D01*
X96231050Y-104558175D01*
X95964361Y-104675952D01*
X95658344Y-104802625D01*
X95339888Y-104927293D01*
X95035882Y-105039059D01*
X94773214Y-105127021D01*
X94620334Y-105170611D01*
X94393880Y-105206398D01*
X94109585Y-105223621D01*
X93876946Y-105220437D01*
X93605438Y-105194701D01*
X93407344Y-105143692D01*
X93229421Y-105051455D01*
X93161362Y-105005995D01*
X92884143Y-104738423D01*
X92684533Y-104383933D01*
X92573034Y-103963424D01*
X92556628Y-103802250D01*
X92552174Y-103559982D01*
X92584496Y-103379223D01*
X92668008Y-103196466D01*
X92711008Y-103121941D01*
X92984036Y-102765469D01*
X93368214Y-102432784D01*
X93806118Y-102153161D01*
X94011953Y-102043096D01*
X94268781Y-101914864D01*
X94550251Y-101780505D01*
X94830006Y-101652061D01*
X95081695Y-101541574D01*
X95278963Y-101461085D01*
X95395456Y-101422634D01*
X95408532Y-101421000D01*
X95462617Y-101474673D01*
X95544909Y-101614548D01*
X95626644Y-101786125D01*
X95719530Y-101995873D01*
X95798503Y-102168280D01*
X95838807Y-102250985D01*
X95887212Y-102357202D01*
X95964944Y-102543386D01*
X96055907Y-102770904D01*
X96063665Y-102790735D01*
X96169600Y-103051571D01*
X96278896Y-103304116D01*
X96363546Y-103484750D01*
X96468874Y-103721116D01*
X96561996Y-103973343D01*
X96573872Y-104011214D01*
X96619666Y-104187075D01*
X96616805Y-104291404D01*
G37*
X96616805Y-104291404D02*
X96560936Y-104371690D01*
X96538887Y-104392908D01*
X96431521Y-104460194D01*
X96231050Y-104558175D01*
X95964361Y-104675952D01*
X95658344Y-104802625D01*
X95339888Y-104927293D01*
X95035882Y-105039059D01*
X94773214Y-105127021D01*
X94620334Y-105170611D01*
X94393880Y-105206398D01*
X94109585Y-105223621D01*
X93876946Y-105220437D01*
X93605438Y-105194701D01*
X93407344Y-105143692D01*
X93229421Y-105051455D01*
X93161362Y-105005995D01*
X92884143Y-104738423D01*
X92684533Y-104383933D01*
X92573034Y-103963424D01*
X92556628Y-103802250D01*
X92552174Y-103559982D01*
X92584496Y-103379223D01*
X92668008Y-103196466D01*
X92711008Y-103121941D01*
X92984036Y-102765469D01*
X93368214Y-102432784D01*
X93806118Y-102153161D01*
X94011953Y-102043096D01*
X94268781Y-101914864D01*
X94550251Y-101780505D01*
X94830006Y-101652061D01*
X95081695Y-101541574D01*
X95278963Y-101461085D01*
X95395456Y-101422634D01*
X95408532Y-101421000D01*
X95462617Y-101474673D01*
X95544909Y-101614548D01*
X95626644Y-101786125D01*
X95719530Y-101995873D01*
X95798503Y-102168280D01*
X95838807Y-102250985D01*
X95887212Y-102357202D01*
X95964944Y-102543386D01*
X96055907Y-102770904D01*
X96063665Y-102790735D01*
X96169600Y-103051571D01*
X96278896Y-103304116D01*
X96363546Y-103484750D01*
X96468874Y-103721116D01*
X96561996Y-103973343D01*
X96573872Y-104011214D01*
X96619666Y-104187075D01*
X96616805Y-104291404D01*
G36*
X93380345Y-113096907D02*
G01*
X93264743Y-113578559D01*
X93126892Y-113884876D01*
X92866973Y-114254480D01*
X92503788Y-114615218D01*
X92060800Y-114949939D01*
X91561472Y-115241491D01*
X91029267Y-115472722D01*
X90889291Y-115520560D01*
X90504059Y-115637825D01*
X90161355Y-115723406D01*
X89830463Y-115780758D01*
X89480665Y-115813332D01*
X89081245Y-115824581D01*
X88601487Y-115817959D01*
X88322831Y-115809059D01*
X87686358Y-115784452D01*
X87166678Y-115760142D01*
X86753587Y-115735164D01*
X86436885Y-115708555D01*
X86206370Y-115679349D01*
X86051840Y-115646584D01*
X85963094Y-115609294D01*
X85936665Y-115583531D01*
X85901034Y-115474402D01*
X85865222Y-115282406D01*
X85839797Y-115075531D01*
X85808352Y-114794353D01*
X85768857Y-114507623D01*
X85741643Y-114343250D01*
X85705670Y-114124134D01*
X85664380Y-113835391D01*
X85625802Y-113533687D01*
X85620185Y-113486000D01*
X85586932Y-113221529D01*
X85553643Y-112993302D01*
X85526163Y-112840403D01*
X85519853Y-112814814D01*
X85524441Y-112677029D01*
X85565961Y-112616103D01*
X85661503Y-112560394D01*
X85839971Y-112472813D01*
X86066944Y-112370055D01*
X86126000Y-112344478D01*
X86414995Y-112215185D01*
X86659335Y-112090497D01*
X86908039Y-111943423D01*
X87205500Y-111750055D01*
X87536240Y-111531418D01*
X87790516Y-111368712D01*
X87996160Y-111245402D01*
X88181007Y-111144957D01*
X88372889Y-111050843D01*
X88418833Y-111029335D01*
X88838548Y-110854638D01*
X89248878Y-110731962D01*
X89686376Y-110654087D01*
X90187593Y-110613794D01*
X90571000Y-110604283D01*
X91039591Y-110609575D01*
X91414892Y-110639639D01*
X91729421Y-110701881D01*
X92015696Y-110803711D01*
X92306235Y-110952536D01*
X92433883Y-111028702D01*
X92810434Y-111331039D01*
X93098156Y-111708817D01*
X93292250Y-112142247D01*
X93387914Y-112611540D01*
X93380345Y-113096907D01*
G37*
X93380345Y-113096907D02*
X93264743Y-113578559D01*
X93126892Y-113884876D01*
X92866973Y-114254480D01*
X92503788Y-114615218D01*
X92060800Y-114949939D01*
X91561472Y-115241491D01*
X91029267Y-115472722D01*
X90889291Y-115520560D01*
X90504059Y-115637825D01*
X90161355Y-115723406D01*
X89830463Y-115780758D01*
X89480665Y-115813332D01*
X89081245Y-115824581D01*
X88601487Y-115817959D01*
X88322831Y-115809059D01*
X87686358Y-115784452D01*
X87166678Y-115760142D01*
X86753587Y-115735164D01*
X86436885Y-115708555D01*
X86206370Y-115679349D01*
X86051840Y-115646584D01*
X85963094Y-115609294D01*
X85936665Y-115583531D01*
X85901034Y-115474402D01*
X85865222Y-115282406D01*
X85839797Y-115075531D01*
X85808352Y-114794353D01*
X85768857Y-114507623D01*
X85741643Y-114343250D01*
X85705670Y-114124134D01*
X85664380Y-113835391D01*
X85625802Y-113533687D01*
X85620185Y-113486000D01*
X85586932Y-113221529D01*
X85553643Y-112993302D01*
X85526163Y-112840403D01*
X85519853Y-112814814D01*
X85524441Y-112677029D01*
X85565961Y-112616103D01*
X85661503Y-112560394D01*
X85839971Y-112472813D01*
X86066944Y-112370055D01*
X86126000Y-112344478D01*
X86414995Y-112215185D01*
X86659335Y-112090497D01*
X86908039Y-111943423D01*
X87205500Y-111750055D01*
X87536240Y-111531418D01*
X87790516Y-111368712D01*
X87996160Y-111245402D01*
X88181007Y-111144957D01*
X88372889Y-111050843D01*
X88418833Y-111029335D01*
X88838548Y-110854638D01*
X89248878Y-110731962D01*
X89686376Y-110654087D01*
X90187593Y-110613794D01*
X90571000Y-110604283D01*
X91039591Y-110609575D01*
X91414892Y-110639639D01*
X91729421Y-110701881D01*
X92015696Y-110803711D01*
X92306235Y-110952536D01*
X92433883Y-111028702D01*
X92810434Y-111331039D01*
X93098156Y-111708817D01*
X93292250Y-112142247D01*
X93387914Y-112611540D01*
X93380345Y-113096907D01*
G36*
X85150491Y-115803869D02*
G01*
X85065320Y-115865649D01*
X84869858Y-115921949D01*
X84580776Y-115970513D01*
X84214741Y-116009085D01*
X83788422Y-116035409D01*
X83354813Y-116046897D01*
X82897522Y-116044700D01*
X82542673Y-116022893D01*
X82266375Y-115974867D01*
X82044738Y-115894009D01*
X81853871Y-115773710D01*
X81669884Y-115607358D01*
X81634580Y-115570889D01*
X81446893Y-115300154D01*
X81315601Y-114962429D01*
X81248327Y-114598121D01*
X81252693Y-114247634D01*
X81331089Y-113962250D01*
X81525629Y-113656878D01*
X81802848Y-113411754D01*
X82055892Y-113264836D01*
X82244484Y-113175214D01*
X82429987Y-113100367D01*
X82631414Y-113036093D01*
X82867772Y-112978191D01*
X83158071Y-112922459D01*
X83521322Y-112864695D01*
X83976535Y-112800698D01*
X84421854Y-112741908D01*
X84558964Y-112738062D01*
X84661725Y-112778535D01*
X84738639Y-112880155D01*
X84798209Y-113059747D01*
X84848939Y-113334141D01*
X84894115Y-113676464D01*
X84940674Y-114048033D01*
X84996949Y-114474350D01*
X85053506Y-114884612D01*
X85075648Y-115039034D01*
X85114357Y-115326369D01*
X85141224Y-115569268D01*
X85153444Y-115739071D01*
X85150491Y-115803869D01*
G37*
X85150491Y-115803869D02*
X85065320Y-115865649D01*
X84869858Y-115921949D01*
X84580776Y-115970513D01*
X84214741Y-116009085D01*
X83788422Y-116035409D01*
X83354813Y-116046897D01*
X82897522Y-116044700D01*
X82542673Y-116022893D01*
X82266375Y-115974867D01*
X82044738Y-115894009D01*
X81853871Y-115773710D01*
X81669884Y-115607358D01*
X81634580Y-115570889D01*
X81446893Y-115300154D01*
X81315601Y-114962429D01*
X81248327Y-114598121D01*
X81252693Y-114247634D01*
X81331089Y-113962250D01*
X81525629Y-113656878D01*
X81802848Y-113411754D01*
X82055892Y-113264836D01*
X82244484Y-113175214D01*
X82429987Y-113100367D01*
X82631414Y-113036093D01*
X82867772Y-112978191D01*
X83158071Y-112922459D01*
X83521322Y-112864695D01*
X83976535Y-112800698D01*
X84421854Y-112741908D01*
X84558964Y-112738062D01*
X84661725Y-112778535D01*
X84738639Y-112880155D01*
X84798209Y-113059747D01*
X84848939Y-113334141D01*
X84894115Y-113676464D01*
X84940674Y-114048033D01*
X84996949Y-114474350D01*
X85053506Y-114884612D01*
X85075648Y-115039034D01*
X85114357Y-115326369D01*
X85141224Y-115569268D01*
X85153444Y-115739071D01*
X85150491Y-115803869D01*
G36*
X77164763Y-110429297D02*
G01*
X76951606Y-110870352D01*
X76630727Y-111292408D01*
X76208515Y-111687379D01*
X75691359Y-112047181D01*
X75085650Y-112363730D01*
X74950000Y-112423021D01*
X74501335Y-112598587D01*
X74082194Y-112727335D01*
X73664127Y-112813047D01*
X73218685Y-112859508D01*
X72717417Y-112870499D01*
X72131873Y-112849805D01*
X71864674Y-112833299D01*
X71310007Y-112826587D01*
X70862317Y-112883320D01*
X70632186Y-112923191D01*
X70442530Y-112941203D01*
X70337128Y-112933962D01*
X70261834Y-112856553D01*
X70155444Y-112682446D01*
X70029635Y-112434524D01*
X69896087Y-112135668D01*
X69776273Y-111835000D01*
X69718323Y-111687268D01*
X69624693Y-111455860D01*
X69508985Y-111174149D01*
X69401003Y-110914250D01*
X69286801Y-110634629D01*
X69193447Y-110394101D01*
X69130771Y-110218825D01*
X69108583Y-110135958D01*
X69158113Y-110066077D01*
X69290165Y-109951380D01*
X69479050Y-109813527D01*
X69536625Y-109775039D01*
X69795210Y-109602830D01*
X70062560Y-109420642D01*
X70281166Y-109267667D01*
X70282750Y-109266532D01*
X70499544Y-109114460D01*
X70766083Y-108931937D01*
X71025666Y-108757781D01*
X71032243Y-108753429D01*
X71753083Y-108327068D01*
X72479831Y-107993767D01*
X73200751Y-107755508D01*
X73904108Y-107614274D01*
X74578167Y-107572047D01*
X75211193Y-107630808D01*
X75791451Y-107792540D01*
X76046326Y-107906583D01*
X76440672Y-108174031D01*
X76782466Y-108534710D01*
X77049421Y-108958510D01*
X77219253Y-109415322D01*
X77242350Y-109522528D01*
X77263807Y-109977328D01*
X77164763Y-110429297D01*
G37*
X77164763Y-110429297D02*
X76951606Y-110870352D01*
X76630727Y-111292408D01*
X76208515Y-111687379D01*
X75691359Y-112047181D01*
X75085650Y-112363730D01*
X74950000Y-112423021D01*
X74501335Y-112598587D01*
X74082194Y-112727335D01*
X73664127Y-112813047D01*
X73218685Y-112859508D01*
X72717417Y-112870499D01*
X72131873Y-112849805D01*
X71864674Y-112833299D01*
X71310007Y-112826587D01*
X70862317Y-112883320D01*
X70632186Y-112923191D01*
X70442530Y-112941203D01*
X70337128Y-112933962D01*
X70261834Y-112856553D01*
X70155444Y-112682446D01*
X70029635Y-112434524D01*
X69896087Y-112135668D01*
X69776273Y-111835000D01*
X69718323Y-111687268D01*
X69624693Y-111455860D01*
X69508985Y-111174149D01*
X69401003Y-110914250D01*
X69286801Y-110634629D01*
X69193447Y-110394101D01*
X69130771Y-110218825D01*
X69108583Y-110135958D01*
X69158113Y-110066077D01*
X69290165Y-109951380D01*
X69479050Y-109813527D01*
X69536625Y-109775039D01*
X69795210Y-109602830D01*
X70062560Y-109420642D01*
X70281166Y-109267667D01*
X70282750Y-109266532D01*
X70499544Y-109114460D01*
X70766083Y-108931937D01*
X71025666Y-108757781D01*
X71032243Y-108753429D01*
X71753083Y-108327068D01*
X72479831Y-107993767D01*
X73200751Y-107755508D01*
X73904108Y-107614274D01*
X74578167Y-107572047D01*
X75211193Y-107630808D01*
X75791451Y-107792540D01*
X76046326Y-107906583D01*
X76440672Y-108174031D01*
X76782466Y-108534710D01*
X77049421Y-108958510D01*
X77219253Y-109415322D01*
X77242350Y-109522528D01*
X77263807Y-109977328D01*
X77164763Y-110429297D01*
G36*
X69505737Y-113277394D02*
G01*
X69447938Y-113347783D01*
X69367370Y-113404410D01*
X69249768Y-113463088D01*
X69041604Y-113553314D01*
X68771860Y-113663765D01*
X68469519Y-113783119D01*
X68163564Y-113900055D01*
X67882978Y-114003251D01*
X67656745Y-114081385D01*
X67552250Y-114113457D01*
X67230458Y-114169819D01*
X66871954Y-114181349D01*
X66526838Y-114149915D01*
X66245205Y-114077387D01*
X66212468Y-114063504D01*
X65923423Y-113865244D01*
X65691345Y-113569162D01*
X65529075Y-113196523D01*
X65452536Y-112804967D01*
X65442478Y-112552538D01*
X65477309Y-112350528D01*
X65569731Y-112126506D01*
X65572523Y-112120750D01*
X65747908Y-111845500D01*
X66006461Y-111578708D01*
X66357579Y-111313704D01*
X66810662Y-111043821D01*
X67375110Y-110762390D01*
X67682300Y-110623900D01*
X67962691Y-110504288D01*
X68151116Y-110434381D01*
X68269844Y-110408397D01*
X68341146Y-110420551D01*
X68371499Y-110444920D01*
X68423150Y-110530573D01*
X68508682Y-110700520D01*
X68614579Y-110924676D01*
X68727324Y-111172955D01*
X68833401Y-111415273D01*
X68919293Y-111621545D01*
X68971485Y-111761686D01*
X68981000Y-111801557D01*
X69005715Y-111876884D01*
X69070067Y-112031484D01*
X69147496Y-112204193D01*
X69316475Y-112575229D01*
X69433479Y-112849999D01*
X69501817Y-113046571D01*
X69524799Y-113183013D01*
X69505737Y-113277394D01*
G37*
X69505737Y-113277394D02*
X69447938Y-113347783D01*
X69367370Y-113404410D01*
X69249768Y-113463088D01*
X69041604Y-113553314D01*
X68771860Y-113663765D01*
X68469519Y-113783119D01*
X68163564Y-113900055D01*
X67882978Y-114003251D01*
X67656745Y-114081385D01*
X67552250Y-114113457D01*
X67230458Y-114169819D01*
X66871954Y-114181349D01*
X66526838Y-114149915D01*
X66245205Y-114077387D01*
X66212468Y-114063504D01*
X65923423Y-113865244D01*
X65691345Y-113569162D01*
X65529075Y-113196523D01*
X65452536Y-112804967D01*
X65442478Y-112552538D01*
X65477309Y-112350528D01*
X65569731Y-112126506D01*
X65572523Y-112120750D01*
X65747908Y-111845500D01*
X66006461Y-111578708D01*
X66357579Y-111313704D01*
X66810662Y-111043821D01*
X67375110Y-110762390D01*
X67682300Y-110623900D01*
X67962691Y-110504288D01*
X68151116Y-110434381D01*
X68269844Y-110408397D01*
X68341146Y-110420551D01*
X68371499Y-110444920D01*
X68423150Y-110530573D01*
X68508682Y-110700520D01*
X68614579Y-110924676D01*
X68727324Y-111172955D01*
X68833401Y-111415273D01*
X68919293Y-111621545D01*
X68971485Y-111761686D01*
X68981000Y-111801557D01*
X69005715Y-111876884D01*
X69070067Y-112031484D01*
X69147496Y-112204193D01*
X69316475Y-112575229D01*
X69433479Y-112849999D01*
X69501817Y-113046571D01*
X69524799Y-113183013D01*
X69505737Y-113277394D01*
M02*
