M48
; DRILL file {KiCad (5.1.5)-3} date 2021/03/06 2:12:19
; FORMAT={-:-/ absolute / metric / decimal}
; #@! TF.CreationDate,2021-03-06T02:12:19+09:00
; #@! TF.GenerationSoftware,Kicad,Pcbnew,(5.1.5)-3
; #@! TF.FileFunction,Plated,1,2,PTH
FMAT,2
METRIC
T1C0.400
T2C0.813
T3C1.499
%
G90
G05
T1
X80.4Y-41.0
X81.7Y-67.1
X97.0Y-64.8
X173.3Y-77.085
T2
X65.0Y-70.19
X65.0Y-77.81
X65.0Y-38.19
X65.0Y-45.81
X177.0Y-60.19
X177.0Y-67.81
X161.0Y-70.19
X161.0Y-77.81
X49.0Y-54.19
X49.0Y-61.81
X81.0Y-54.19
X81.0Y-61.81
X81.0Y-70.19
X81.0Y-77.81
X97.0Y-54.19
X97.0Y-61.81
X161.0Y-38.19
X161.0Y-45.81
X181.19Y-66.0
X188.81Y-66.0
X145.0Y-38.19
X145.0Y-45.81
X129.0Y-38.19
X129.0Y-45.81
X113.0Y-54.19
X113.0Y-61.81
X113.0Y-70.19
X113.0Y-77.81
X129.0Y-54.19
X129.0Y-61.81
X97.0Y-70.19
X97.0Y-77.81
X36.522Y-50.436
X36.522Y-65.656
X39.062Y-50.436
X39.062Y-65.656
X41.602Y-50.436
X41.602Y-65.656
X44.142Y-50.436
X44.142Y-65.656
X46.682Y-50.436
X46.682Y-65.656
X49.222Y-50.436
X49.222Y-65.656
X51.762Y-50.436
X51.762Y-65.656
X54.302Y-50.436
X54.302Y-65.656
X56.842Y-50.436
X56.842Y-65.656
X59.382Y-50.436
X59.382Y-65.656
X61.922Y-50.436
X61.922Y-65.656
X64.462Y-50.436
X64.462Y-65.656
X177.0Y-36.19
X177.0Y-43.81
X181.19Y-50.0
X188.81Y-50.0
X129.0Y-70.19
X129.0Y-77.81
X177.0Y-72.19
X177.0Y-79.81
X49.0Y-38.19
X49.0Y-45.81
X161.0Y-54.19
X161.0Y-61.81
X113.0Y-38.19
X113.0Y-45.81
X177.0Y-48.19
X177.0Y-55.81
X97.0Y-38.19
X97.0Y-45.81
X65.0Y-54.19
X65.0Y-61.81
X145.0Y-70.19
X145.0Y-77.81
X49.0Y-70.19
X49.0Y-77.81
X145.0Y-54.0
X145.0Y-61.62
X81.0Y-38.19
X81.0Y-45.81
T3
X53.19Y-71.46
X59.54Y-68.92
X133.19Y-55.46
X139.54Y-52.92
X181.19Y-39.46
X187.54Y-36.92
X101.19Y-71.46
X107.54Y-68.92
X85.19Y-55.46
X91.54Y-52.92
X117.19Y-39.46
X123.54Y-36.92
X149.19Y-39.46
X155.54Y-36.92
X181.19Y-55.46
X187.54Y-52.92
X165.19Y-71.46
X171.54Y-68.92
X181.19Y-71.46
X187.54Y-68.92
X69.19Y-55.46
X75.54Y-52.92
X117.19Y-71.46
X123.54Y-68.92
X53.19Y-39.46
X59.54Y-36.92
X165.19Y-39.46
X171.54Y-36.92
X53.19Y-55.46
X59.54Y-52.92
X69.19Y-71.46
X75.54Y-68.92
X165.19Y-55.46
X171.54Y-52.92
X69.19Y-39.46
X75.54Y-36.92
X117.19Y-55.46
X123.54Y-52.92
X101.19Y-39.46
X107.54Y-36.92
X37.19Y-39.46
X43.54Y-36.92
X101.19Y-55.46
X107.54Y-52.92
X85.19Y-39.46
X91.54Y-36.92
X37.19Y-71.46
X43.54Y-68.92
X149.19Y-55.46
X155.54Y-52.92
X149.19Y-71.46
X155.54Y-68.92
X37.19Y-55.46
X43.54Y-52.92
X133.19Y-71.46
X139.54Y-68.92
X85.19Y-71.46
X91.54Y-68.92
X133.19Y-39.46
X139.54Y-36.92
T0
M30
