M48
; DRILL file {KiCad (5.1.5)-3} date 2021/03/06 2:12:19
; FORMAT={-:-/ absolute / metric / decimal}
; #@! TF.CreationDate,2021-03-06T02:12:19+09:00
; #@! TF.GenerationSoftware,Kicad,Pcbnew,(5.1.5)-3
; #@! TF.FileFunction,NonPlated,1,2,NPTH
FMAT,2
METRIC
T1C1.700
T2C2.200
T3C3.988
%
G90
G05
T1
X115.92Y-58.0
X126.08Y-58.0
X99.92Y-42.0
X110.08Y-42.0
X35.92Y-42.0
X46.08Y-42.0
X99.92Y-58.0
X110.08Y-58.0
X83.92Y-42.0
X94.08Y-42.0
X35.92Y-74.0
X46.08Y-74.0
X147.92Y-58.0
X158.08Y-58.0
X147.92Y-74.0
X158.08Y-74.0
X35.92Y-58.0
X46.08Y-58.0
X131.92Y-74.0
X142.08Y-74.0
X83.92Y-74.0
X94.08Y-74.0
X131.92Y-42.0
X142.08Y-42.0
X51.92Y-74.0
X62.08Y-74.0
X131.92Y-58.0
X142.08Y-58.0
X179.92Y-42.0
X190.08Y-42.0
X99.92Y-74.0
X110.08Y-74.0
X83.92Y-58.0
X94.08Y-58.0
X115.92Y-42.0
X126.08Y-42.0
X147.92Y-42.0
X158.08Y-42.0
X179.92Y-58.0
X190.08Y-58.0
X163.92Y-74.0
X174.08Y-74.0
X179.92Y-74.0
X190.08Y-74.0
X67.92Y-58.0
X78.08Y-58.0
X115.92Y-74.0
X126.08Y-74.0
X51.92Y-42.0
X62.08Y-42.0
X163.92Y-42.0
X174.08Y-42.0
X51.92Y-58.0
X62.08Y-58.0
X67.92Y-74.0
X78.08Y-74.0
X163.92Y-58.0
X174.08Y-58.0
X67.92Y-42.0
X78.08Y-42.0
T2
X33.0Y-82.0
X193.0Y-82.0
X113.0Y-82.3
X113.0Y-33.8
X33.0Y-34.0
X193.0Y-34.0
T3
X73.0Y-42.0
X121.0Y-58.0
X105.0Y-42.0
X41.0Y-42.0
X105.0Y-58.0
X89.0Y-42.0
X41.0Y-74.0
X153.0Y-58.0
X153.0Y-74.0
X41.0Y-58.0
X137.0Y-74.0
X89.0Y-74.0
X137.0Y-42.0
X57.0Y-74.0
X137.0Y-58.0
X185.0Y-42.0
X105.0Y-74.0
X89.0Y-58.0
X121.0Y-42.0
X153.0Y-42.0
X185.0Y-58.0
X169.0Y-74.0
X185.0Y-74.0
X73.0Y-58.0
X121.0Y-74.0
X57.0Y-42.0
X169.0Y-42.0
X57.0Y-58.0
X73.0Y-74.0
X169.0Y-58.0
T0
M30
