M48
; DRILL file {KiCad (5.1.5)-3} date 2021/03/06 2:32:00
; FORMAT={-:-/ absolute / metric / decimal}
; #@! TF.CreationDate,2021-03-06T02:32:00+09:00
; #@! TF.GenerationSoftware,Kicad,Pcbnew,(5.1.5)-3
; #@! TF.FileFunction,Plated,1,2,PTH
FMAT,2
METRIC
T1C0.400
T2C0.813
T3C1.000
T4C1.300
%
G90
G05
T1
X27.8Y-54.8
X29.6Y-27.4
X29.75Y-51.05
X29.8Y-37.225
X30.55Y-71.8
X30.925Y-92.675
X31.5Y-111.075
X38.525Y-33.3
X39.025Y-128.825
X40.275Y-56.9
X42.25Y-29.45
X42.6Y-20.35
X43.3Y-44.025
X43.3Y-47.925
X45.9Y-27.35
X45.925Y-33.775
X46.25Y-23.836
X46.75Y-37.175
X47.275Y-71.8
X47.3Y-52.025
X47.3Y-110.675
X47.375Y-92.675
X47.875Y-15.25
X48.375Y-20.7
X48.55Y-37.35
X49.075Y-27.375
X50.0Y-33.9
X54.5Y-31.25
X57.2Y-22.425
X57.4Y-15.275
X59.05Y-37.275
X60.05Y-29.7
X62.125Y-22.775
X63.675Y-122.425
X64.125Y-39.15
X66.35Y-52.025
X66.375Y-110.675
X66.45Y-71.8
X66.475Y-92.675
X66.625Y-26.975
X66.775Y-20.725
X67.35Y-37.225
X69.075Y-34.15
X73.625Y-31.325
X76.45Y-22.65
X78.625Y-37.2
X78.7Y-32.025
X79.425Y-29.675
X81.425Y-22.775
X83.05Y-34.375
X83.075Y-40.25
X84.95Y-53.75
X85.025Y-26.4
X85.4Y-52.025
X85.6Y-40.25
X85.625Y-39.25
X85.9Y-20.65
X87.9Y-37.45
X89.9Y-131.525
X89.925Y-92.675
X90.6Y-70.25
X90.625Y-53.125
X93.8Y-102.95
X94.35Y-55.5
X94.35Y-70.4
X94.85Y-97.0
X94.95Y-89.3
X95.45Y-22.475
X95.8Y-77.1
X96.0Y-120.6
X96.7Y-31.95
X96.725Y-37.325
X98.75Y-55.5
X99.5Y-29.875
X99.5Y-73.4
X100.075Y-57.65
X100.825Y-23.9
X102.441Y-77.065
X102.825Y-16.025
X103.15Y-97.55
X103.55Y-41.25
X104.275Y-90.175
X104.425Y-27.175
X104.425Y-103.6
X104.475Y-21.0
X107.937Y-98.637
X109.05Y-54.725
X109.65Y-94.7
X109.65Y-115.525
X109.675Y-120.45
X110.675Y-71.925
X110.75Y-74.925
X110.8Y-80.2
X112.0Y-15.7
X112.15Y-27.1
X113.4Y-25.6
X113.85Y-111.175
X114.225Y-91.425
X114.75Y-28.75
X115.95Y-34.6
X116.75Y-18.25
X118.6Y-32.4
X119.275Y-71.1
X120.75Y-29.55
X121.4Y-42.3
X122.125Y-95.125
X122.425Y-87.125
X122.425Y-107.225
X122.475Y-66.675
X123.665Y-115.35
X124.85Y-124.775
T2
X112.2Y-49.2
X114.74Y-49.2
X117.28Y-49.2
X119.82Y-49.2
X108.436Y-14.332
X108.436Y-16.872
X108.436Y-19.412
X108.436Y-21.952
X108.436Y-24.492
X108.436Y-27.032
X108.436Y-29.572
X108.436Y-32.112
X108.436Y-34.652
X108.436Y-37.192
X108.436Y-39.732
X108.436Y-42.272
X108.436Y-44.812
X123.656Y-14.332
X123.656Y-16.872
X123.656Y-19.412
X123.656Y-21.952
X123.656Y-24.492
X123.656Y-27.032
X123.656Y-29.572
X123.656Y-32.112
X123.656Y-34.652
X123.656Y-37.192
X123.656Y-39.732
X123.656Y-42.272
X123.656Y-44.812
X101.85Y-35.206
X101.85Y-37.746
T4
X51.05Y-12.275
X57.55Y-12.275
T3
G00X29.325Y-15.7
M15
G01X28.825Y-15.7
M16
G05
G00X32.325Y-15.7
M15
G01X31.825Y-15.7
M16
G05
G00X36.325Y-15.7
M15
G01X35.825Y-15.7
M16
G05
G00X37.825Y-11.5
M15
G01X37.325Y-11.5
M16
G05
T0
M30
